M48
;Layer_Color=9474304
;FILE_FORMAT=2:5
INCH,LZ
;TYPE=PLATED
T1F00S00C0.01200
T2F00S00C0.03543
T3F00S00C0.08661
%
T01
X-0043307Y-0052165
Y-0048228
X-0017717Y-0035433
X-0016732Y-0028543
X-0000197Y-0019685
X0001969Y-0040354
X-0016732Y-0064961
X-0027559Y-0012795
X0007874Y-0023622
X001378Y-0029528
X0015748Y0008858
X0022638Y0019685
X0009252Y0020669
X0021654Y0037402
X0031496Y0035433
X0Y0004921
X-0007874Y0008858
X-0016732Y0007874
T02
X-0045276Y-0038386
Y-0028386
Y-0018386
X0045276Y0031496
Y0041496
X-0045276Y-0008386
T03
X0029528Y-0051143
X0030315Y0051181
X-0059055Y0
M30
