%FSLAX25Y25*%
%MOIN*%
G70*
G01*
G75*
G04 Layer_Color=8388736*
%ADD10R,0.02756X0.03543*%
%ADD11R,0.10630X0.12992*%
%ADD12R,0.10630X0.03937*%
%ADD13R,0.03543X0.03150*%
%ADD14R,0.03150X0.03543*%
%ADD15R,0.04331X0.10236*%
%ADD16R,0.03543X0.02756*%
%ADD17R,0.02756X0.05118*%
%ADD18R,0.03347X0.02756*%
%ADD19R,0.08071X0.05709*%
%ADD20R,0.05709X0.08071*%
%ADD21O,0.01772X0.05118*%
%ADD22O,0.05118X0.01772*%
%ADD23R,0.03583X0.04803*%
%ADD24R,0.07874X0.05118*%
%ADD25R,0.07874X0.07874*%
%ADD26R,0.05118X0.07874*%
%ADD27R,0.07874X0.07874*%
%ADD28C,0.01000*%
%ADD29C,0.01600*%
%ADD30C,0.05906*%
%ADD31R,0.05906X0.05906*%
%ADD32C,0.02500*%
%ADD33C,0.10236*%
%ADD34C,0.00984*%
%ADD35C,0.01575*%
%ADD36C,0.00787*%
%ADD37C,0.00800*%
%ADD38C,0.00606*%
%ADD39R,0.03556X0.04343*%
%ADD40R,0.11430X0.13792*%
%ADD41R,0.11430X0.04737*%
%ADD42R,0.04343X0.03950*%
%ADD43R,0.03950X0.04343*%
%ADD44R,0.05131X0.11036*%
%ADD45R,0.04343X0.03556*%
%ADD46R,0.03556X0.05918*%
%ADD47R,0.04147X0.03556*%
%ADD48R,0.08871X0.06509*%
%ADD49R,0.06509X0.08871*%
%ADD50O,0.02572X0.05918*%
%ADD51O,0.05918X0.02572*%
%ADD52R,0.04383X0.05603*%
%ADD53R,0.08674X0.05918*%
%ADD54R,0.08674X0.08674*%
%ADD55R,0.05918X0.08674*%
%ADD56R,0.08674X0.08674*%
%ADD57C,0.06706*%
%ADD58R,0.06706X0.06706*%
%ADD59C,0.03300*%
%ADD60C,0.11036*%
D39*
X-10827Y-31496D02*
D03*
X-4921D02*
D03*
X38961Y-45457D02*
D03*
X44866D02*
D03*
X6890Y-3937D02*
D03*
X984D02*
D03*
X4921Y4921D02*
D03*
X10827D02*
D03*
X6890Y15748D02*
D03*
X984D02*
D03*
X28543D02*
D03*
X22638D02*
D03*
X12795Y40354D02*
D03*
X18701D02*
D03*
X18701Y49213D02*
D03*
X12795D02*
D03*
X-17717Y56102D02*
D03*
X-23622D02*
D03*
D40*
X15551Y-49213D02*
D03*
D41*
X-7677Y-58268D02*
D03*
Y-49213D02*
D03*
Y-40157D02*
D03*
D42*
X-20669Y-38583D02*
D03*
Y-44094D02*
D03*
X-19685Y-59842D02*
D03*
Y-54331D02*
D03*
X-16732Y-17913D02*
D03*
Y-23425D02*
D03*
X-5906Y-18898D02*
D03*
Y-24409D02*
D03*
D43*
X-34252Y-39370D02*
D03*
X-28740D02*
D03*
X32096Y-403D02*
D03*
X37608D02*
D03*
X18504Y55118D02*
D03*
X12992D02*
D03*
X5709D02*
D03*
X197D02*
D03*
X26969Y40053D02*
D03*
X32480D02*
D03*
D44*
X-37795Y-52165D02*
D03*
X-27165D02*
D03*
D45*
X-11811Y-4921D02*
D03*
Y-10827D02*
D03*
X-22638Y8858D02*
D03*
Y2953D02*
D03*
X24606Y-6890D02*
D03*
Y-12795D02*
D03*
X17717Y-12795D02*
D03*
Y-6890D02*
D03*
X24606Y-984D02*
D03*
Y4921D02*
D03*
X31693Y24305D02*
D03*
Y30210D02*
D03*
X3937Y39370D02*
D03*
Y45276D02*
D03*
D46*
X-23819Y-28346D02*
D03*
X-27559D02*
D03*
X-31299D02*
D03*
Y-18898D02*
D03*
X-27559D02*
D03*
X-23819D02*
D03*
D47*
X-31594Y-7874D02*
D03*
X-25492D02*
D03*
D48*
X34744Y-33465D02*
D03*
X45965D02*
D03*
D49*
X21654Y-21949D02*
D03*
Y-33169D02*
D03*
X37402Y-9154D02*
D03*
Y-20374D02*
D03*
X53150Y-20374D02*
D03*
Y-9154D02*
D03*
D50*
X9744Y-13386D02*
D03*
X7185D02*
D03*
X4626D02*
D03*
X2067D02*
D03*
X9744Y-29921D02*
D03*
X7185D02*
D03*
X4626D02*
D03*
X2067D02*
D03*
D51*
X22047Y23720D02*
D03*
Y26280D02*
D03*
Y28839D02*
D03*
Y31398D02*
D03*
X5512Y23720D02*
D03*
Y26280D02*
D03*
Y28839D02*
D03*
Y31398D02*
D03*
D52*
X-18248Y46260D02*
D03*
X-5374D02*
D03*
X-25059D02*
D03*
X-37933D02*
D03*
D53*
X-22638Y22047D02*
D03*
Y31102D02*
D03*
D54*
X-6890Y26575D02*
D03*
D55*
X-35827Y2953D02*
D03*
X-44882D02*
D03*
X48622Y19003D02*
D03*
X57677D02*
D03*
D56*
X-40354Y18701D02*
D03*
X53150Y3255D02*
D03*
D57*
X45276Y41496D02*
D03*
X-45276Y-8386D02*
D03*
Y-18386D02*
D03*
Y-28386D02*
D03*
D58*
X45276Y31496D02*
D03*
X-45276Y-38386D02*
D03*
D59*
X15748Y8858D02*
D03*
X7874Y-23622D02*
D03*
X0Y4921D02*
D03*
X-7874Y8858D02*
D03*
X21654Y37402D02*
D03*
X22638Y19685D02*
D03*
X-16732Y7874D02*
D03*
X-17717Y-35433D02*
D03*
X1969Y-40354D02*
D03*
X-16732Y-64961D02*
D03*
X-16732Y-28543D02*
D03*
X-197Y-19685D02*
D03*
X-27559Y-12795D02*
D03*
X13780Y-29528D02*
D03*
X-43307Y-48228D02*
D03*
Y-52165D02*
D03*
X31496Y35433D02*
D03*
X9252Y20669D02*
D03*
D60*
X-59055Y0D02*
D03*
X29528Y-51143D02*
D03*
X30315Y51181D02*
D03*
M02*
