%FSLAX44Y44*%
%MOMM*%
G71*
G01*
G75*
G04 Layer_Color=32896*
%ADD10C,0.7620*%
G04:AMPARAMS|DCode=11|XSize=2mm|YSize=1.75mm|CornerRadius=0mm|HoleSize=0mm|Usage=FLASHONLY|Rotation=279.640|XOffset=0mm|YOffset=0mm|HoleType=Round|Shape=Rectangle|*
%AMROTATEDRECTD11*
4,1,4,-1.0301,0.8394,0.6952,1.1324,1.0301,-0.8394,-0.6952,-1.1324,-1.0301,0.8394,0.0*
%
%ADD11ROTATEDRECTD11*%

%ADD12R,2.3000X2.3000*%
%ADD13R,0.8000X0.9000*%
%ADD14O,1.7500X0.3000*%
%ADD15R,0.7000X0.9000*%
%ADD16R,0.9000X0.7000*%
%ADD17R,0.9000X0.8000*%
%ADD18R,0.4900X0.3000*%
%ADD19R,0.5200X0.3000*%
%ADD20R,1.7000X1.1000*%
%ADD21C,0.4000*%
%ADD22R,1.0000X1.0000*%
%ADD23R,0.7000X1.4000*%
%ADD24R,0.5500X0.9500*%
%ADD25O,0.2800X0.8500*%
%ADD26R,2.4000X1.6500*%
%ADD27R,0.7000X0.3000*%
%ADD28R,1.0000X1.6000*%
%ADD29R,0.4500X0.8500*%
%ADD30R,2.4000X1.5000*%
%ADD31R,0.8500X0.7000*%
%ADD32O,0.7000X2.0000*%
%ADD33O,1.3500X0.4500*%
%ADD34R,2.0000X0.4000*%
G04:AMPARAMS|DCode=35|XSize=1.524mm|YSize=2.8448mm|CornerRadius=0mm|HoleSize=0mm|Usage=FLASHONLY|Rotation=82.000|XOffset=0mm|YOffset=0mm|HoleType=Round|Shape=Rectangle|*
%AMROTATEDRECTD35*
4,1,4,1.3025,-0.9525,-1.5146,-0.5566,-1.3025,0.9525,1.5146,0.5566,1.3025,-0.9525,0.0*
%
%ADD35ROTATEDRECTD35*%

G04:AMPARAMS|DCode=36|XSize=1.524mm|YSize=2.8448mm|CornerRadius=0mm|HoleSize=0mm|Usage=FLASHONLY|Rotation=352.000|XOffset=0mm|YOffset=0mm|HoleType=Round|Shape=Rectangle|*
%AMROTATEDRECTD36*
4,1,4,-0.9525,-1.3025,-0.5566,1.5146,0.9525,1.3025,0.5566,-1.5146,-0.9525,-1.3025,0.0*
%
%ADD36ROTATEDRECTD36*%

%ADD37O,0.3000X1.7500*%
%ADD38R,0.2500X0.7000*%
%ADD39R,2.3800X1.6500*%
%ADD40R,0.3000X0.4900*%
%ADD41R,0.3000X0.5200*%
%ADD42C,0.1905*%
%ADD43C,0.4064*%
%ADD44C,0.5080*%
%ADD45C,0.2540*%
%ADD46C,0.3048*%
%ADD47C,0.2032*%
%ADD48C,0.6096*%
%ADD49C,1.0160*%
%ADD50C,0.3556*%
%ADD51C,1.2700*%
%ADD52R,0.7000X0.2800*%
%ADD53R,1.5000X1.5000*%
%ADD54C,1.5000*%
%ADD55C,1.8500*%
%ADD56R,1.8500X1.8500*%
%ADD57R,1.5000X1.5000*%
%ADD58C,1.2700*%
%ADD59R,1.2700X1.2700*%
%ADD60C,1.5240*%
%ADD61C,2.9000*%
%ADD62C,0.6350*%
%ADD63C,0.9000*%
%ADD64C,0.7000*%
%ADD65C,0.5000*%
%ADD66C,0.6350*%
G04:AMPARAMS|DCode=67|XSize=0.65mm|YSize=1.35mm|CornerRadius=0mm|HoleSize=0mm|Usage=FLASHONLY|Rotation=13.600|XOffset=0mm|YOffset=0mm|HoleType=Round|Shape=Rectangle|*
%AMROTATEDRECTD67*
4,1,4,-0.1572,-0.7325,-0.4746,0.5797,0.1572,0.7325,0.4746,-0.5797,-0.1572,-0.7325,0.0*
%
%ADD67ROTATEDRECTD67*%

G04:AMPARAMS|DCode=68|XSize=0.4mm|YSize=1.35mm|CornerRadius=0mm|HoleSize=0mm|Usage=FLASHONLY|Rotation=13.600|XOffset=0mm|YOffset=0mm|HoleType=Round|Shape=Rectangle|*
%AMROTATEDRECTD68*
4,1,4,-0.0357,-0.7031,-0.3531,0.6090,0.0357,0.7031,0.3531,-0.6090,-0.0357,-0.7031,0.0*
%
%ADD68ROTATEDRECTD68*%

G04:AMPARAMS|DCode=69|XSize=0.825mm|YSize=1.15mm|CornerRadius=0mm|HoleSize=0mm|Usage=FLASHONLY|Rotation=13.600|XOffset=0mm|YOffset=0mm|HoleType=Round|Shape=Rectangle|*
%AMROTATEDRECTD69*
4,1,4,-0.2657,-0.6559,-0.5361,0.4619,0.2657,0.6559,0.5361,-0.4619,-0.2657,-0.6559,0.0*
%
%ADD69ROTATEDRECTD69*%

G04:AMPARAMS|DCode=70|XSize=0.775mm|YSize=1.15mm|CornerRadius=0mm|HoleSize=0mm|Usage=FLASHONLY|Rotation=13.600|XOffset=0mm|YOffset=0mm|HoleType=Round|Shape=Rectangle|*
%AMROTATEDRECTD70*
4,1,4,-0.2414,-0.6500,-0.5118,0.4678,0.2414,0.6500,0.5118,-0.4678,-0.2414,-0.6500,0.0*
%
%ADD70ROTATEDRECTD70*%

G04:AMPARAMS|DCode=71|XSize=1.2mm|YSize=1.55mm|CornerRadius=0mm|HoleSize=0mm|Usage=FLASHONLY|Rotation=13.600|XOffset=0mm|YOffset=0mm|HoleType=Round|Shape=Rectangle|*
%AMROTATEDRECTD71*
4,1,4,-0.4009,-0.8943,-0.7654,0.6122,0.4009,0.8943,0.7654,-0.6122,-0.4009,-0.8943,0.0*
%
%ADD71ROTATEDRECTD71*%

G04:AMPARAMS|DCode=72|XSize=2.51mm|YSize=1mm|CornerRadius=0mm|HoleSize=0mm|Usage=FLASHONLY|Rotation=13.600|XOffset=0mm|YOffset=0mm|HoleType=Round|Shape=Rectangle|*
%AMROTATEDRECTD72*
4,1,4,-1.1022,-0.7811,-1.3374,0.1909,1.1022,0.7811,1.3374,-0.1909,-1.1022,-0.7811,0.0*
%
%ADD72ROTATEDRECTD72*%

G04:AMPARAMS|DCode=73|XSize=1.2mm|YSize=2.1mm|CornerRadius=0mm|HoleSize=0mm|Usage=FLASHONLY|Rotation=13.600|XOffset=0mm|YOffset=0mm|HoleType=Round|Shape=Rectangle|*
%AMROTATEDRECTD73*
4,1,4,-0.3363,-1.1617,-0.8301,0.8795,0.3363,1.1617,0.8301,-0.8795,-0.3363,-1.1617,0.0*
%
%ADD73ROTATEDRECTD73*%

%ADD74C,0.0000*%
%ADD75C,0.1000*%
%ADD76C,0.2500*%
%ADD77C,0.6000*%
%ADD78C,0.2000*%
%ADD79C,0.1500*%
%ADD80R,0.4572X1.7018*%
%ADD81R,0.5842X0.1651*%
%ADD82R,0.6502X0.1854*%
%ADD83R,1.0500X0.6800*%
%ADD84R,0.5000X0.2600*%
%ADD85R,0.8000X1.4000*%
%ADD86O,0.2300X0.8000*%
%ADD87R,0.6500X0.2500*%
%ADD88R,0.0000X0.6000*%
G04:AMPARAMS|DCode=89|XSize=2.2032mm|YSize=1.9532mm|CornerRadius=0mm|HoleSize=0mm|Usage=FLASHONLY|Rotation=279.640|XOffset=0mm|YOffset=0mm|HoleType=Round|Shape=Rectangle|*
%AMROTATEDRECTD89*
4,1,4,-1.1473,0.9225,0.7783,1.2496,1.1473,-0.9225,-0.7783,-1.2496,-1.1473,0.9225,0.0*
%
%ADD89ROTATEDRECTD89*%

%ADD90R,2.5032X2.5032*%
%ADD91R,1.0032X1.1032*%
%ADD92O,1.9532X0.5032*%
%ADD93R,0.9032X1.1032*%
%ADD94R,1.1032X0.9032*%
%ADD95R,1.1032X1.0032*%
%ADD96R,0.5900X0.4000*%
%ADD97R,0.6200X0.4000*%
%ADD98R,1.9032X1.3032*%
%ADD99C,0.6032*%
%ADD100R,0.9032X1.6032*%
%ADD101R,0.7532X1.1532*%
%ADD102O,0.4200X0.9900*%
%ADD103R,2.5400X1.7900*%
%ADD104R,0.8400X0.4400*%
%ADD105R,1.1400X1.7400*%
%ADD106R,0.6532X1.0532*%
%ADD107R,2.6032X1.7032*%
%ADD108R,1.0532X0.9032*%
%ADD109O,0.9032X2.2032*%
%ADD110O,1.5532X0.6532*%
%ADD111R,2.2032X0.6032*%
G04:AMPARAMS|DCode=112|XSize=1.7272mm|YSize=3.048mm|CornerRadius=0mm|HoleSize=0mm|Usage=FLASHONLY|Rotation=82.000|XOffset=0mm|YOffset=0mm|HoleType=Round|Shape=Rectangle|*
%AMROTATEDRECTD112*
4,1,4,1.3890,-1.0673,-1.6294,-0.6431,-1.3890,1.0673,1.6294,0.6431,1.3890,-1.0673,0.0*
%
%ADD112ROTATEDRECTD112*%

G04:AMPARAMS|DCode=113|XSize=1.7272mm|YSize=3.048mm|CornerRadius=0mm|HoleSize=0mm|Usage=FLASHONLY|Rotation=352.000|XOffset=0mm|YOffset=0mm|HoleType=Round|Shape=Rectangle|*
%AMROTATEDRECTD113*
4,1,4,-1.0673,-1.3890,-0.6431,1.6294,1.0673,1.3890,0.6431,-1.6294,-1.0673,-1.3890,0.0*
%
%ADD113ROTATEDRECTD113*%

%ADD114O,0.5032X1.9532*%
%ADD115R,0.4532X0.9032*%
%ADD116R,2.5832X1.8532*%
%ADD117R,0.4000X0.5900*%
%ADD118R,0.4000X0.6200*%
%ADD119R,0.9032X0.4832*%
%ADD120R,1.7032X1.7032*%
%ADD121C,1.7032*%
%ADD122C,2.0532*%
%ADD123R,2.0532X2.0532*%
%ADD124R,1.7032X1.7032*%
%ADD125C,1.4732*%
%ADD126R,1.4732X1.4732*%
%ADD127C,1.7272*%
%ADD128C,3.1032*%
%ADD129C,0.8382*%
%ADD130C,1.1032*%
%ADD131C,0.9032*%
%ADD132C,0.7032*%
G04:AMPARAMS|DCode=133|XSize=0.8532mm|YSize=1.5532mm|CornerRadius=0mm|HoleSize=0mm|Usage=FLASHONLY|Rotation=13.600|XOffset=0mm|YOffset=0mm|HoleType=Round|Shape=Rectangle|*
%AMROTATEDRECTD133*
4,1,4,-0.2320,-0.8551,-0.5972,0.6545,0.2320,0.8551,0.5972,-0.6545,-0.2320,-0.8551,0.0*
%
%ADD133ROTATEDRECTD133*%

G04:AMPARAMS|DCode=134|XSize=0.6032mm|YSize=1.5532mm|CornerRadius=0mm|HoleSize=0mm|Usage=FLASHONLY|Rotation=13.600|XOffset=0mm|YOffset=0mm|HoleType=Round|Shape=Rectangle|*
%AMROTATEDRECTD134*
4,1,4,-0.1105,-0.8257,-0.4758,0.6839,0.1105,0.8257,0.4758,-0.6839,-0.1105,-0.8257,0.0*
%
%ADD134ROTATEDRECTD134*%

G04:AMPARAMS|DCode=135|XSize=1.0282mm|YSize=1.3532mm|CornerRadius=0mm|HoleSize=0mm|Usage=FLASHONLY|Rotation=13.600|XOffset=0mm|YOffset=0mm|HoleType=Round|Shape=Rectangle|*
%AMROTATEDRECTD135*
4,1,4,-0.3406,-0.7785,-0.6588,0.5367,0.3406,0.7785,0.6588,-0.5367,-0.3406,-0.7785,0.0*
%
%ADD135ROTATEDRECTD135*%

G04:AMPARAMS|DCode=136|XSize=0.9782mm|YSize=1.3532mm|CornerRadius=0mm|HoleSize=0mm|Usage=FLASHONLY|Rotation=13.600|XOffset=0mm|YOffset=0mm|HoleType=Round|Shape=Rectangle|*
%AMROTATEDRECTD136*
4,1,4,-0.3163,-0.7726,-0.6345,0.5426,0.3163,0.7726,0.6345,-0.5426,-0.3163,-0.7726,0.0*
%
%ADD136ROTATEDRECTD136*%

G04:AMPARAMS|DCode=137|XSize=1.4032mm|YSize=1.7532mm|CornerRadius=0mm|HoleSize=0mm|Usage=FLASHONLY|Rotation=13.600|XOffset=0mm|YOffset=0mm|HoleType=Round|Shape=Rectangle|*
%AMROTATEDRECTD137*
4,1,4,-0.4758,-1.0170,-0.8881,0.6870,0.4758,1.0170,0.8881,-0.6870,-0.4758,-1.0170,0.0*
%
%ADD137ROTATEDRECTD137*%

G04:AMPARAMS|DCode=138|XSize=2.7132mm|YSize=1.2032mm|CornerRadius=0mm|HoleSize=0mm|Usage=FLASHONLY|Rotation=13.600|XOffset=0mm|YOffset=0mm|HoleType=Round|Shape=Rectangle|*
%AMROTATEDRECTD138*
4,1,4,-1.1771,-0.9037,-1.4600,0.2657,1.1771,0.9037,1.4600,-0.2657,-1.1771,-0.9037,0.0*
%
%ADD138ROTATEDRECTD138*%

G04:AMPARAMS|DCode=139|XSize=1.4032mm|YSize=2.3032mm|CornerRadius=0mm|HoleSize=0mm|Usage=FLASHONLY|Rotation=13.600|XOffset=0mm|YOffset=0mm|HoleType=Round|Shape=Rectangle|*
%AMROTATEDRECTD139*
4,1,4,-0.4111,-1.2843,-0.9527,0.9543,0.4111,1.2843,0.9527,-0.9543,-0.4111,-1.2843,0.0*
%
%ADD139ROTATEDRECTD139*%

D45*
X-341357Y169001D02*
X-337972D01*
X-339664D01*
Y160537D01*
X-337972Y158844D01*
X-336279D01*
X-334586Y160537D01*
X-344743Y158844D02*
Y169001D01*
X-349821D01*
X-351514Y167308D01*
Y163923D01*
X-349821Y162230D01*
X-344743D01*
X-361671Y169001D02*
X-354900D01*
Y163923D01*
X-358285Y165615D01*
X-359978D01*
X-361671Y163923D01*
Y160537D01*
X-359978Y158844D01*
X-356592D01*
X-354900Y160537D01*
X-365056Y169001D02*
Y162230D01*
X-368442Y158844D01*
X-371827Y162230D01*
Y169001D01*
X-259823Y56733D02*
X-256438D01*
X-258130D01*
Y48269D01*
X-256438Y46576D01*
X-254745D01*
X-253052Y48269D01*
X-263209Y46576D02*
Y56733D01*
X-268287D01*
X-269980Y55040D01*
Y51655D01*
X-268287Y49962D01*
X-263209D01*
X-273366Y55040D02*
X-275058Y56733D01*
X-278444D01*
X-280137Y55040D01*
Y53347D01*
X-278444Y51655D01*
X-276751D01*
X-278444D01*
X-280137Y49962D01*
Y48269D01*
X-278444Y46576D01*
X-275058D01*
X-273366Y48269D01*
X-283522Y56733D02*
Y49962D01*
X-286908Y46576D01*
X-290293Y49962D01*
Y56733D01*
X-293679Y55040D02*
X-295372Y56733D01*
X-298757D01*
X-300450Y55040D01*
Y53347D01*
X-298757Y51655D01*
X-297065D01*
X-298757D01*
X-300450Y49962D01*
Y48269D01*
X-298757Y46576D01*
X-295372D01*
X-293679Y48269D01*
X187500Y80000D02*
Y69843D01*
X192578D01*
X194271Y71536D01*
Y74922D01*
X192578Y76614D01*
X187500D01*
X190886D02*
X194271Y80000D01*
X204428D02*
X197657D01*
X204428Y73229D01*
Y71536D01*
X202735Y69843D01*
X199349D01*
X197657Y71536D01*
X212892Y80000D02*
Y69843D01*
X207813Y74922D01*
X214585D01*
X187500Y65000D02*
Y54843D01*
X192578D01*
X194271Y56536D01*
Y59922D01*
X192578Y61614D01*
X187500D01*
X190886D02*
X194271Y65000D01*
X204428D02*
X197657D01*
X204428Y58229D01*
Y56536D01*
X202735Y54843D01*
X199349D01*
X197657Y56536D01*
X207813D02*
X209506Y54843D01*
X212892D01*
X214585Y56536D01*
Y58229D01*
X212892Y59922D01*
X211199D01*
X212892D01*
X214585Y61614D01*
Y63307D01*
X212892Y65000D01*
X209506D01*
X207813Y63307D01*
X215000Y20000D02*
Y9843D01*
X220078D01*
X221771Y11536D01*
Y14922D01*
X220078Y16614D01*
X215000D01*
X218386D02*
X221771Y20000D01*
X231928D02*
X225157D01*
X231928Y13229D01*
Y11536D01*
X230235Y9843D01*
X226849D01*
X225157Y11536D01*
X242085Y20000D02*
X235313D01*
X242085Y13229D01*
Y11536D01*
X240392Y9843D01*
X237006D01*
X235313Y11536D01*
X190000Y47500D02*
Y37343D01*
X195078D01*
X196771Y39036D01*
Y42422D01*
X195078Y44114D01*
X190000D01*
X193386D02*
X196771Y47500D01*
X206928D02*
X200157D01*
X206928Y40729D01*
Y39036D01*
X205235Y37343D01*
X201849D01*
X200157Y39036D01*
X210313Y47500D02*
X213699D01*
X212006D01*
Y37343D01*
X210313Y39036D01*
D76*
X-442680Y282964D02*
G03*
X-442680Y282964I-1250J0D01*
G01*
D78*
X-399001Y302447D02*
X-385880Y305621D01*
X-481844Y289775D02*
X-480160Y282812D01*
X-467524Y285869D01*
X-387564Y312583D02*
X-385880Y305621D01*
X230500Y43572D02*
X234500D01*
X230500Y50572D02*
X234500D01*
X230500Y28572D02*
X234500D01*
X230500Y35572D02*
X234500D01*
X230500Y58572D02*
X234500D01*
X230500Y65572D02*
X234500D01*
X230500Y73572D02*
X234500D01*
X230500Y80572D02*
X234500D01*
X-375327Y112014D02*
Y145880D01*
X-371094Y150114D02*
X-366861Y145880D01*
X-375327D02*
X-371094Y150114D01*
X-383794Y99314D02*
Y112014D01*
X-332994D01*
X-383794Y99314D02*
X-332994D01*
X-366861Y112014D02*
Y145881D01*
X-345694Y150114D02*
X-341461Y145880D01*
X-349927D02*
X-345694Y150114D01*
X-341461Y112014D02*
Y145880D01*
X-349927Y112014D02*
Y145880D01*
X-332994Y99314D02*
Y112014D01*
X-302300Y-12728D02*
Y-28D01*
Y-12728D02*
X-251500D01*
X-293833Y-28D02*
Y33839D01*
X-289600Y38072D01*
X-302300Y-28D02*
X-251500D01*
X-289600Y38072D02*
X-285367Y33839D01*
X-285367Y-28D02*
Y33839D01*
X-251500Y-12728D02*
Y-28D01*
X-268433D02*
Y33839D01*
X-264200Y38072D01*
X-259967Y-28D02*
Y33839D01*
X-264200Y38072D02*
X-259967Y33839D01*
M02*
