%FSLAX44Y44*%
%MOMM*%
G71*
G01*
G75*
G04 Layer_Physical_Order=1*
G04 Layer_Color=255*
%ADD10C,0.7620*%
G04:AMPARAMS|DCode=11|XSize=2mm|YSize=1.75mm|CornerRadius=0mm|HoleSize=0mm|Usage=FLASHONLY|Rotation=279.640|XOffset=0mm|YOffset=0mm|HoleType=Round|Shape=Rectangle|*
%AMROTATEDRECTD11*
4,1,4,-1.0301,0.8394,0.6952,1.1324,1.0301,-0.8394,-0.6952,-1.1324,-1.0301,0.8394,0.0*
%
%ADD11ROTATEDRECTD11*%

%ADD12R,2.3000X2.3000*%
%ADD13R,0.8000X0.9000*%
%ADD14O,1.7500X0.3000*%
%ADD15R,0.7000X0.9000*%
%ADD16R,0.9000X0.7000*%
%ADD17R,0.9000X0.8000*%
%ADD18R,0.4900X0.3000*%
%ADD19R,0.5200X0.3000*%
%ADD20R,1.7000X1.1000*%
%ADD21C,0.4000*%
%ADD22R,1.0000X1.0000*%
%ADD23R,0.7000X1.4000*%
%ADD24R,0.5500X0.9500*%
%ADD25O,0.2800X0.8500*%
%ADD26R,2.4000X1.6500*%
%ADD27R,0.7000X0.3000*%
%ADD28R,1.0000X1.6000*%
%ADD29R,0.4500X0.8500*%
%ADD30R,2.4000X1.5000*%
%ADD31R,0.8500X0.7000*%
%ADD32O,0.7000X2.0000*%
%ADD33O,1.3500X0.4500*%
%ADD34R,2.0000X0.4000*%
G04:AMPARAMS|DCode=35|XSize=1.524mm|YSize=2.8448mm|CornerRadius=0mm|HoleSize=0mm|Usage=FLASHONLY|Rotation=82.000|XOffset=0mm|YOffset=0mm|HoleType=Round|Shape=Rectangle|*
%AMROTATEDRECTD35*
4,1,4,1.3025,-0.9525,-1.5146,-0.5566,-1.3025,0.9525,1.5146,0.5566,1.3025,-0.9525,0.0*
%
%ADD35ROTATEDRECTD35*%

G04:AMPARAMS|DCode=36|XSize=1.524mm|YSize=2.8448mm|CornerRadius=0mm|HoleSize=0mm|Usage=FLASHONLY|Rotation=352.000|XOffset=0mm|YOffset=0mm|HoleType=Round|Shape=Rectangle|*
%AMROTATEDRECTD36*
4,1,4,-0.9525,-1.3025,-0.5566,1.5146,0.9525,1.3025,0.5566,-1.5146,-0.9525,-1.3025,0.0*
%
%ADD36ROTATEDRECTD36*%

%ADD37O,0.3000X1.7500*%
%ADD38R,0.2500X0.7000*%
%ADD39R,2.3800X1.6500*%
%ADD40R,0.3000X0.4900*%
%ADD41R,0.3000X0.5200*%
%ADD42C,0.1905*%
%ADD43C,0.4064*%
%ADD44C,0.5080*%
%ADD45C,0.2540*%
%ADD46C,0.3048*%
%ADD47C,0.2032*%
%ADD48C,0.6096*%
%ADD49C,1.0160*%
%ADD50C,0.3556*%
%ADD51C,1.2700*%
%ADD52R,0.7000X0.2800*%
%ADD53R,1.5000X1.5000*%
%ADD54C,1.5000*%
%ADD55C,1.8500*%
%ADD56R,1.8500X1.8500*%
%ADD57R,1.5000X1.5000*%
%ADD58C,1.2700*%
%ADD59R,1.2700X1.2700*%
%ADD60C,1.5240*%
%ADD61C,2.9000*%
%ADD62C,0.6350*%
%ADD63C,0.9000*%
%ADD64C,0.7000*%
%ADD65C,0.5000*%
G36*
X-352997Y13369D02*
Y13370D01*
X-352996Y13372D01*
X-352997Y13369D01*
D02*
G37*
G36*
X-374997Y10915D02*
X-374996Y10912D01*
Y10912D01*
X-374998Y10915D01*
X-374998Y10915D01*
X-374999Y10915D01*
X-374997Y10915D01*
D02*
G37*
G36*
Y34575D02*
X-374996Y34572D01*
X-374996D01*
X-375000Y34576D01*
X-374997Y34575D01*
D02*
G37*
G36*
X-378200Y34576D02*
X-378200Y34576D01*
X-374996Y34572D01*
D01*
X-374999Y28236D01*
X-374996Y28232D01*
Y28232D01*
X-374997Y28229D01*
X-374999Y28229D01*
Y28229D01*
X-374998Y28229D01*
X-374999Y28229D01*
Y28236D01*
X-375036Y28296D01*
X-375037Y28295D01*
X-374999Y28229D01*
D01*
X-375042Y28303D01*
X-377129Y26701D01*
X-378732Y24613D01*
X-379739Y22181D01*
X-380083Y19572D01*
X-379739Y16962D01*
X-378732Y14531D01*
X-377129Y12443D01*
X-375042Y10841D01*
X-375021Y10873D01*
X-375021Y10873D01*
X-374998Y10915D01*
X-374996Y10912D01*
X-375000Y4568D01*
D01*
X-378202Y4569D01*
X-378203Y4569D01*
X-387004Y13372D01*
X-387003Y13369D01*
X-387005Y13372D01*
X-387005Y13372D01*
X-387004Y13372D01*
X-387003Y25774D01*
X-387004Y25772D01*
X-387003Y25775D01*
Y25774D01*
X-387003Y25775D01*
X-378200Y34576D01*
X-378203Y34575D01*
X-378200Y34576D01*
X-378200Y34576D01*
D02*
G37*
G36*
X-361800Y4568D02*
X-361800Y4568D01*
X-361797Y4569D01*
X-361800Y4568D01*
D02*
G37*
G36*
X-115769Y-40181D02*
X-114590Y-41946D01*
X-103762Y-52773D01*
X-103573Y-54214D01*
X-102843Y-55975D01*
X-101683Y-57487D01*
X-100171Y-58647D01*
X-99542Y-58908D01*
X-99471Y-59252D01*
X-99987Y-59924D01*
X-101385Y-61080D01*
X-102758Y-60511D01*
X-104648Y-60263D01*
X-106538Y-60511D01*
X-108299Y-61241D01*
X-109452Y-62126D01*
X-126572D01*
X-126738Y-59591D01*
X-125110Y-59377D01*
X-123349Y-58647D01*
X-121837Y-57487D01*
X-120677Y-55975D01*
X-119947Y-54214D01*
X-119699Y-52324D01*
X-119947Y-50434D01*
X-120677Y-48673D01*
X-121837Y-47161D01*
X-123349Y-46001D01*
X-125110Y-45271D01*
X-127000Y-45023D01*
X-128854Y-45267D01*
X-129826Y-42920D01*
X-128949Y-42247D01*
X-127789Y-40735D01*
X-127059Y-38974D01*
X-126987Y-38426D01*
X-116118D01*
X-115769Y-40181D01*
D02*
G37*
G36*
X-261824Y12373D02*
X-249588D01*
Y-42552D01*
X-249089Y-43068D01*
X-245215Y-47068D01*
Y-53340D01*
X-244801Y-55421D01*
X-243622Y-57186D01*
X-220254Y-80554D01*
X-218489Y-81733D01*
X-216408Y-82147D01*
X-185928D01*
X-183847Y-81733D01*
X-182083Y-80554D01*
X-180697Y-79169D01*
X-167431D01*
X-165227Y-76892D01*
X-164440Y-77049D01*
X-149940D01*
X-147769Y-76617D01*
X-145929Y-75388D01*
X-144699Y-73547D01*
X-144267Y-71376D01*
X-144699Y-69205D01*
X-144919Y-68876D01*
X-144699Y-68547D01*
X-144267Y-66376D01*
X-144699Y-64205D01*
X-144919Y-63876D01*
X-144699Y-63547D01*
X-144267Y-61376D01*
X-144699Y-59205D01*
X-144799Y-59055D01*
X-143602Y-56814D01*
X-132679D01*
X-132163Y-57487D01*
X-130651Y-58647D01*
X-128890Y-59377D01*
X-127167Y-59604D01*
X-127084Y-62142D01*
X-129081Y-62540D01*
X-130846Y-63719D01*
X-137786Y-70658D01*
X-138965Y-72423D01*
X-139379Y-74504D01*
Y-76790D01*
X-141111Y-77135D01*
X-142951Y-78365D01*
X-144181Y-80205D01*
X-144613Y-82376D01*
Y-96876D01*
X-144181Y-99047D01*
X-142951Y-100887D01*
X-141152Y-102090D01*
X-141136Y-102241D01*
X-141796Y-105559D01*
X-147011Y-110944D01*
X-150427Y-111394D01*
X-151157Y-109633D01*
X-152317Y-108121D01*
X-153829Y-106961D01*
X-155590Y-106231D01*
X-157480Y-105983D01*
X-159323Y-105156D01*
X-159323Y-105156D01*
Y-105156D01*
X-159323D01*
D01*
X-159571Y-103266D01*
X-160301Y-101505D01*
X-161461Y-99993D01*
X-162973Y-98833D01*
X-164734Y-98103D01*
X-166624Y-97855D01*
X-168514Y-98103D01*
X-170275Y-98833D01*
X-171787Y-99993D01*
X-172947Y-101505D01*
X-173677Y-103266D01*
X-173866Y-104707D01*
X-187523Y-118364D01*
X-202723D01*
X-202973Y-117761D01*
X-204133Y-116249D01*
X-205645Y-115089D01*
X-207406Y-114359D01*
X-209296Y-114111D01*
X-211186Y-114359D01*
X-212947Y-115089D01*
X-214459Y-116249D01*
X-215619Y-117761D01*
X-215869Y-118364D01*
X-277307D01*
Y-9545D01*
X-301779Y15726D01*
X-332994Y45638D01*
Y50279D01*
X-317034Y66761D01*
X-314494D01*
X-261824Y12373D01*
D02*
G37*
G36*
X-374997Y4569D02*
X-375000Y4568D01*
Y4568D01*
X-374996Y4572D01*
X-374997Y4569D01*
D02*
G37*
G36*
X-378202D02*
X-378200Y4568D01*
X-378203Y4569D01*
X-378202D01*
D02*
G37*
G36*
X-365000Y34576D02*
D01*
X-361798Y34575D01*
X-361800Y34576D01*
X-361797Y34575D01*
X-361798D01*
X-361797Y34575D01*
X-352996Y25772D01*
X-352997Y25775D01*
X-352996Y25772D01*
X-352996D01*
X-352996Y25772D01*
Y25772D01*
X-352996Y25772D01*
X-352997Y13370D01*
X-352997Y13369D01*
X-361800Y4568D01*
X-361800Y4568D01*
X-365004Y4572D01*
X-365000Y4568D01*
X-365000D01*
X-365003Y4569D01*
X-365004Y4572D01*
X-365004D01*
D01*
X-365002Y10907D01*
X-365004Y10912D01*
X-365003Y10915D01*
X-365002Y10915D01*
Y10914D01*
X-365002Y10915D01*
X-365002Y10914D01*
Y10907D01*
X-364980Y10873D01*
X-364979Y10873D01*
X-365002Y10914D01*
Y10914D01*
X-364958Y10841D01*
X-362871Y12443D01*
X-361268Y14531D01*
X-360261Y16962D01*
X-359918Y19572D01*
X-360261Y22181D01*
X-361268Y24613D01*
X-362871Y26701D01*
X-364958Y28303D01*
X-364990Y28253D01*
X-364990Y28253D01*
X-365002Y28229D01*
X-365002Y28229D01*
X-365003Y28229D01*
X-365004Y28232D01*
X-365002Y28229D01*
X-365002Y28229D01*
X-365004Y28232D01*
X-365000Y34576D01*
X-365004Y34572D01*
X-365003Y34575D01*
X-365000Y34576D01*
Y34576D01*
D02*
G37*
G36*
X-461200Y81576D02*
X-461200D01*
Y81576D01*
X-461200Y81576D01*
D02*
G37*
G36*
X-362204Y94488D02*
Y65278D01*
X-364490Y62992D01*
X-370078D01*
X-372364Y60706D01*
X-385826D01*
X-388112Y62992D01*
X-397256D01*
X-397438Y65362D01*
X-396576Y66294D01*
X-391160D01*
X-384302Y73152D01*
Y73914D01*
Y93218D01*
X-384048Y93472D01*
X-378206Y99314D01*
X-367030D01*
X-362204Y94488D01*
D02*
G37*
G36*
X-461200Y81576D02*
X-448798Y81575D01*
X-448800Y81576D01*
X-448797Y81575D01*
X-448798D01*
X-448797Y81575D01*
X-439996Y72772D01*
X-439997Y72775D01*
X-439996Y72772D01*
X-439996Y72772D01*
X-439996Y72772D01*
X-440000Y69568D01*
X-439996Y69572D01*
Y69572D01*
X-439997Y69569D01*
X-440000Y69568D01*
Y69568D01*
D01*
X-446336Y69570D01*
X-446340Y69568D01*
X-446343Y69569D01*
X-446343Y69570D01*
X-446342D01*
X-446269Y69614D01*
X-447871Y71701D01*
X-449959Y73304D01*
X-452391Y74311D01*
X-455000Y74654D01*
X-457610Y74311D01*
X-460041Y73304D01*
X-462129Y71701D01*
X-463731Y69614D01*
X-463681Y69582D01*
X-463681Y69582D01*
X-463657Y69570D01*
X-463657Y69570D01*
X-463657Y69569D01*
X-463660Y69568D01*
X-463657Y69570D01*
X-463657Y69570D01*
X-463660Y69568D01*
X-470004Y69572D01*
X-470000Y69568D01*
X-470003Y69569D01*
X-470004Y69572D01*
X-470004D01*
D01*
X-470003Y72774D01*
X-470004Y72772D01*
X-470003Y72775D01*
Y72774D01*
X-470003Y72775D01*
X-461200Y81576D01*
X-461203Y81575D01*
X-461200Y81576D01*
X-461200Y81576D01*
D02*
G37*
G36*
X-446343Y59574D02*
X-446343Y59574D01*
X-446340Y59576D01*
X-439996Y59572D01*
D01*
X-439997Y56370D01*
X-439996Y56372D01*
X-439997Y56369D01*
Y56370D01*
X-439997Y56369D01*
X-448800Y47568D01*
X-448797Y47569D01*
X-448800Y47568D01*
X-448800Y47568D01*
X-448800Y47568D01*
X-461202Y47569D01*
X-461200Y47568D01*
X-461203Y47569D01*
X-461202D01*
X-461203Y47569D01*
X-470004Y56371D01*
X-470003Y56369D01*
X-470004Y56372D01*
X-470004Y56371D01*
X-470004Y56372D01*
X-470000Y59576D01*
X-470004Y59572D01*
X-470003Y59575D01*
X-470000Y59576D01*
Y59576D01*
D01*
X-463664Y59573D01*
X-463660Y59576D01*
X-463660D01*
X-463657Y59575D01*
X-463657Y59573D01*
X-463658D01*
X-463731Y59530D01*
X-462129Y57443D01*
X-460041Y55840D01*
X-457610Y54833D01*
X-455000Y54489D01*
X-452391Y54833D01*
X-449959Y55840D01*
X-447871Y57443D01*
X-446269Y59530D01*
X-446301Y59551D01*
X-446301Y59551D01*
X-446343Y59574D01*
X-446343Y59573D01*
X-446343Y59575D01*
X-446340Y59576D01*
X-446340D01*
X-446343Y59574D01*
D02*
G37*
G36*
X-398526Y60233D02*
X-391414D01*
X-386080Y55936D01*
X-374650D01*
X-374142Y55527D01*
X-370840Y58187D01*
X-351028D01*
X-350012Y57369D01*
X-348234Y55936D01*
Y50412D01*
X-353314Y46320D01*
X-373888D01*
X-376428Y44274D01*
X-381254Y40386D01*
X-402082D01*
Y47547D01*
X-404622Y49593D01*
Y50821D01*
Y53686D01*
X-409168Y57347D01*
Y58618D01*
X-408940Y58801D01*
X-405892D01*
X-401320Y62484D01*
X-398526Y60233D01*
D02*
G37*
G36*
X-412242Y52578D02*
X-408178Y48514D01*
Y44196D01*
Y29192D01*
X-408376Y27686D01*
X-408178Y26180D01*
Y18288D01*
X-392717Y2827D01*
X-392631Y2173D01*
X-391735Y11D01*
X-390311Y-1847D01*
X-387594Y-4563D01*
X-385737Y-5987D01*
X-383636Y-6858D01*
X-382778D01*
X-378714Y-10922D01*
X-381000Y-13208D01*
Y-19812D01*
X-396494D01*
X-397097Y-19209D01*
X-397613Y-19422D01*
X-398882Y-20396D01*
X-403042D01*
X-404245Y-19898D01*
X-406400Y-19614D01*
X-408555Y-19898D01*
X-410563Y-20729D01*
X-412288Y-22053D01*
X-413611Y-23777D01*
X-414443Y-25785D01*
X-414526Y-26416D01*
X-421204D01*
Y-17708D01*
X-421640Y-17272D01*
Y-16700D01*
X-440364D01*
Y-16700D01*
X-441817D01*
X-442089Y-16428D01*
X-442316Y-14704D01*
X-442420Y-14453D01*
Y-7848D01*
X-442677D01*
X-444088Y-5736D01*
X-444077Y-5711D01*
X-443794Y-3556D01*
X-444077Y-1401D01*
X-444909Y607D01*
X-446232Y2332D01*
X-447957Y3655D01*
X-449965Y4487D01*
X-452120Y4770D01*
X-453510Y4587D01*
X-453977Y4996D01*
Y7536D01*
X-453510Y7946D01*
X-453390Y7930D01*
X-451235Y8213D01*
X-449227Y9045D01*
X-447503Y10368D01*
X-446179Y12093D01*
X-445348Y14101D01*
X-445064Y16256D01*
X-445348Y18411D01*
X-446179Y20419D01*
X-447503Y22143D01*
X-449227Y23467D01*
X-451235Y24299D01*
X-453390Y24582D01*
X-453752Y24534D01*
X-455420Y24754D01*
Y25652D01*
X-474580D01*
Y22947D01*
X-476490Y21273D01*
X-478536Y21542D01*
X-480691Y21258D01*
X-482699Y20427D01*
X-484424Y19103D01*
X-485747Y17379D01*
X-486579Y15371D01*
X-486862Y13216D01*
X-486579Y11061D01*
X-485747Y9053D01*
X-484424Y7329D01*
X-483224Y6408D01*
Y-8678D01*
X-482732Y-11156D01*
X-481328Y-13256D01*
X-479228Y-14660D01*
X-476980Y-15107D01*
Y-17098D01*
X-476980D01*
Y-26416D01*
X-557276D01*
X-558546Y-8890D01*
X-521914Y27742D01*
X-506670D01*
Y47402D01*
X-506730D01*
Y51308D01*
X-483086D01*
X-481453Y50631D01*
X-479298Y50348D01*
X-477143Y50631D01*
X-475510Y51308D01*
X-472948D01*
Y56179D01*
X-471892Y56884D01*
X-471653Y56785D01*
X-471653Y56374D01*
X-471653Y56373D01*
X-471654Y56372D01*
X-471561Y56147D01*
X-471586Y55907D01*
X-471586Y55906D01*
X-471580Y55898D01*
X-471581Y55889D01*
X-471580Y55886D01*
X-471531Y55826D01*
X-471531Y55748D01*
X-471530Y55745D01*
X-471297Y55509D01*
X-471172Y55207D01*
X-471171Y55207D01*
X-471171Y55205D01*
X-471170Y55205D01*
X-462370Y46403D01*
X-462369Y46403D01*
X-462135Y46306D01*
X-461975Y46111D01*
X-461974Y46111D01*
X-461973Y46111D01*
X-461973Y46110D01*
X-461970Y46109D01*
X-461887Y46101D01*
X-461827Y46042D01*
X-461824Y46041D01*
X-461500Y46042D01*
X-461203Y45919D01*
X-461203D01*
X-448802Y45919D01*
X-448800Y45918D01*
X-448766Y45932D01*
X-448731Y45919D01*
X-448466Y46042D01*
X-448176Y46041D01*
X-448173Y46042D01*
X-448119Y46096D01*
X-448042Y46102D01*
X-448039Y46104D01*
X-447872Y46302D01*
X-447634Y46401D01*
Y46401D01*
D01*
X-447634Y46401D01*
D01*
D01*
X-447633Y46402D01*
Y46402D01*
X-438831Y55202D01*
X-438831Y55203D01*
X-438734Y55437D01*
X-438540Y55598D01*
X-438539Y55598D01*
X-438539Y55599D01*
X-438539Y55599D01*
X-438537Y55602D01*
X-438530Y55685D01*
X-438470Y55745D01*
X-438469Y55748D01*
X-438470Y56072D01*
X-438348Y56369D01*
Y56369D01*
X-438347Y59436D01*
X-412242D01*
Y52578D01*
D02*
G37*
G36*
X-439997Y59575D02*
X-439996Y59572D01*
X-439996D01*
X-440000Y59576D01*
X-439997Y59575D01*
D02*
G37*
%LPC*%
G36*
X-463657Y59574D02*
X-463658Y59573D01*
X-463664D01*
X-463724Y59536D01*
X-463723Y59535D01*
X-463658Y59573D01*
D01*
X-463657Y59574D01*
D02*
G37*
G36*
X-446301Y69593D02*
X-446342Y69570D01*
X-446342D01*
X-446343Y69570D01*
X-446342Y69570D01*
X-446336D01*
X-446301Y69592D01*
X-446301Y69593D01*
D02*
G37*
%LPD*%
D10*
X-405356Y269268D02*
G03*
X-401764Y260596I12264J0D01*
G01*
X-396276Y245581D02*
G03*
X-395000Y242500I4357J0D01*
G01*
X-386465Y238964D02*
G03*
X-395000Y242500I-8536J-8536D01*
G01*
X-320136Y57500D02*
X-312500D01*
X-321056Y58420D02*
X-320136Y57500D01*
X-180848Y219152D02*
X-132500Y267500D01*
X-180848Y184658D02*
Y219152D01*
X-273934Y334480D02*
X-247500D01*
X-396276Y245581D02*
Y255108D01*
X-401764Y260596D02*
X-396276Y255108D01*
X-386464Y238964D02*
X-380000Y232500D01*
X-467500Y225412D02*
X-448028Y244884D01*
X-467500Y202500D02*
Y225412D01*
X-493000Y177000D02*
X-467500Y202500D01*
X-493000Y84572D02*
Y177000D01*
X-132500Y267500D02*
X40000D01*
X160000Y255000D02*
X177740Y237260D01*
X52500Y255000D02*
X160000D01*
X223017Y230517D02*
X249079D01*
X218000Y225500D02*
X223017Y230517D01*
X197500Y225500D02*
X218000D01*
X177740Y225000D02*
Y237260D01*
Y217872D02*
Y225000D01*
X178240Y225500D01*
X197500D01*
X168656Y208788D02*
X177740Y217872D01*
X40000Y267500D02*
X52500Y255000D01*
X-360172Y-165D02*
X-356538Y3469D01*
X-493000Y68794D02*
Y84572D01*
X-278130Y147072D02*
Y158496D01*
Y137922D02*
Y147072D01*
X-292862Y123190D02*
X-278130Y137922D01*
X-383970Y4494D02*
X-381254Y1778D01*
X-263510Y173116D02*
X-249936D01*
X-278130Y158496D02*
X-263510Y173116D01*
X-264200Y-25428D02*
Y-23836D01*
X-321056Y33020D02*
X-264200Y-23836D01*
X-321056Y33020D02*
Y58420D01*
X-451792Y54572D02*
X-419000D01*
D11*
X-345622Y257894D02*
D03*
X-341268Y232261D02*
D03*
X-356255Y320497D02*
D03*
X-260873Y257581D02*
D03*
X-269329Y307368D02*
D03*
X-273934Y334480D02*
D03*
D12*
X-380000Y187500D02*
D03*
Y232500D02*
D03*
D13*
X-433404Y204012D02*
D03*
X-417404Y204012D02*
D03*
X-203000Y9572D02*
D03*
X-217000D02*
D03*
X-203000Y25000D02*
D03*
X-217000D02*
D03*
X-215500Y320000D02*
D03*
X-229500D02*
D03*
X-382276Y255108D02*
D03*
X-396276D02*
D03*
X-507000Y84572D02*
D03*
X-493000D02*
D03*
X-398000Y39572D02*
D03*
X-412000D02*
D03*
X-447404Y204012D02*
D03*
X-403404Y204012D02*
D03*
X207000Y-305000D02*
D03*
X193000D02*
D03*
D14*
X-157190Y8624D02*
D03*
Y18624D02*
D03*
Y-71376D02*
D03*
Y-61376D02*
D03*
Y-66376D02*
D03*
Y-46376D02*
D03*
Y-51376D02*
D03*
Y-56376D02*
D03*
Y-26376D02*
D03*
Y-16376D02*
D03*
Y-21376D02*
D03*
Y-41376D02*
D03*
Y-31376D02*
D03*
Y-36376D02*
D03*
Y3624D02*
D03*
Y13624D02*
D03*
Y-11376D02*
D03*
Y-1376D02*
D03*
Y-6376D02*
D03*
Y23624D02*
D03*
X-25690Y-56376D02*
D03*
Y-46376D02*
D03*
Y-51376D02*
D03*
Y-71376D02*
D03*
Y-61376D02*
D03*
Y-66376D02*
D03*
Y-36376D02*
D03*
Y-41376D02*
D03*
Y-31376D02*
D03*
Y-11376D02*
D03*
Y-1376D02*
D03*
Y-6376D02*
D03*
Y-26376D02*
D03*
Y-16376D02*
D03*
Y-21376D02*
D03*
Y8624D02*
D03*
Y13624D02*
D03*
Y3624D02*
D03*
Y23624D02*
D03*
Y18624D02*
D03*
D15*
X-249548Y98044D02*
D03*
X-264548D02*
D03*
X-227500Y52500D02*
D03*
X-212500D02*
D03*
X-182500D02*
D03*
X-197500D02*
D03*
X152788Y-125476D02*
D03*
X137788D02*
D03*
X147708Y-110236D02*
D03*
X132708D02*
D03*
X136772Y-55372D02*
D03*
X151772D02*
D03*
X136772Y-39116D02*
D03*
X151772D02*
D03*
X453628Y-205740D02*
D03*
X468628D02*
D03*
X505340Y134620D02*
D03*
X490340D02*
D03*
X-465000Y-65428D02*
D03*
X-480000D02*
D03*
X185000Y155000D02*
D03*
X200000D02*
D03*
X-435000Y-65428D02*
D03*
X-450000D02*
D03*
D16*
X-260000Y62500D02*
D03*
Y47500D02*
D03*
X-85000Y162072D02*
D03*
Y147072D02*
D03*
X-85000Y177072D02*
D03*
Y192072D02*
D03*
X-195000Y177072D02*
D03*
Y192072D02*
D03*
X-195000Y162072D02*
D03*
Y147072D02*
D03*
X-416532Y220112D02*
D03*
Y235112D02*
D03*
X-430784Y-25280D02*
D03*
Y-10280D02*
D03*
X-517144Y-112656D02*
D03*
Y-97656D02*
D03*
X-410000Y-97928D02*
D03*
Y-112928D02*
D03*
X-450000Y-97928D02*
D03*
Y-112928D02*
D03*
X-490000Y-97928D02*
D03*
Y-112928D02*
D03*
X-495300Y-66428D02*
D03*
Y-51428D02*
D03*
X-433804Y220112D02*
D03*
Y235112D02*
D03*
X180000Y102072D02*
D03*
Y87072D02*
D03*
X-495000Y-37928D02*
D03*
Y-22928D02*
D03*
X-245000Y62500D02*
D03*
Y47500D02*
D03*
D17*
X-155000Y52572D02*
D03*
Y66572D02*
D03*
X-85000Y81572D02*
D03*
Y67572D02*
D03*
X-105664Y-132476D02*
D03*
Y-118476D02*
D03*
X-24384Y-112380D02*
D03*
Y-126380D02*
D03*
X-40640Y-126380D02*
D03*
Y-112380D02*
D03*
X-249936Y159116D02*
D03*
Y173116D02*
D03*
X-520000Y-37428D02*
D03*
Y-23428D02*
D03*
X-485000Y-213428D02*
D03*
Y-227428D02*
D03*
X-90000Y-147428D02*
D03*
Y-133428D02*
D03*
X197500Y239500D02*
D03*
Y225500D02*
D03*
X-70000Y-147428D02*
D03*
Y-133428D02*
D03*
X-465000Y16572D02*
D03*
Y2572D02*
D03*
X-378206Y50404D02*
D03*
Y64404D02*
D03*
D18*
X-224750Y172132D02*
D03*
Y167132D02*
D03*
Y162132D02*
D03*
X-232450D02*
D03*
Y167132D02*
D03*
D19*
Y172132D02*
D03*
D20*
X-406400Y-39408D02*
D03*
Y-12408D02*
D03*
X-334264Y-41440D02*
D03*
Y-14440D02*
D03*
D21*
X-356538Y19572D02*
D03*
X-383208D02*
D03*
X-455000Y51364D02*
D03*
Y78034D02*
D03*
D22*
X-553076Y-80772D02*
D03*
X-536076D02*
D03*
D23*
X-87500Y-115428D02*
D03*
X-72500D02*
D03*
D24*
X-514500Y37572D02*
D03*
X-495500D02*
D03*
X-514500Y61572D02*
D03*
X-505000D02*
D03*
X-495500D02*
D03*
D25*
X-380000Y-45178D02*
D03*
X-375000Y-15678D02*
D03*
X-380000D02*
D03*
X-370000Y-45178D02*
D03*
X-360000D02*
D03*
X-365000D02*
D03*
X-375000D02*
D03*
X-370000Y-15678D02*
D03*
X-365000D02*
D03*
X-360000D02*
D03*
D26*
X-370000Y-30428D02*
D03*
D27*
X-415500Y58072D02*
D03*
Y64572D02*
D03*
Y71072D02*
D03*
X-394500Y58072D02*
D03*
Y64572D02*
D03*
Y71072D02*
D03*
D28*
X-405000Y64572D02*
D03*
D29*
X-460000Y-234928D02*
D03*
Y-205928D02*
D03*
X-450000Y-234928D02*
D03*
X-440000D02*
D03*
X-450000Y-205928D02*
D03*
X-440000D02*
D03*
D30*
X-450000Y-220428D02*
D03*
D31*
X152250Y-305000D02*
D03*
X167750D02*
D03*
D32*
X471350Y-171678D02*
D03*
X445950D02*
D03*
X458650D02*
D03*
X484050D02*
D03*
X445950Y-99178D02*
D03*
X458650D02*
D03*
X471350D02*
D03*
X484050D02*
D03*
D33*
X-162250Y159822D02*
D03*
Y172822D02*
D03*
Y166322D02*
D03*
Y179322D02*
D03*
X-117750Y159822D02*
D03*
Y166322D02*
D03*
Y179322D02*
D03*
Y172822D02*
D03*
D34*
X-195000Y-35428D02*
D03*
Y-50428D02*
D03*
Y-20428D02*
D03*
D35*
X218360Y11939D02*
D03*
X221153Y31810D02*
D03*
X223946Y51681D02*
D03*
X226738Y71551D02*
D03*
X229531Y91422D02*
D03*
X232323Y111293D02*
D03*
X235116Y131164D02*
D03*
X237909Y151034D02*
D03*
X240701Y170905D02*
D03*
X243494Y190776D02*
D03*
X246287Y210646D02*
D03*
X249079Y230517D02*
D03*
X251872Y250388D02*
D03*
X434423Y-18427D02*
D03*
X437215Y1444D02*
D03*
X440008Y21315D02*
D03*
X442801Y41186D02*
D03*
X445593Y61056D02*
D03*
X448386Y80927D02*
D03*
X451179Y100798D02*
D03*
X453971Y120669D02*
D03*
X456764Y140539D02*
D03*
X459557Y160410D02*
D03*
X462349Y180281D02*
D03*
X465142Y200152D02*
D03*
X467935Y220022D02*
D03*
X470727Y239893D02*
D03*
X473520Y259764D02*
D03*
X476313Y279634D02*
D03*
D36*
X273958Y-15881D02*
D03*
X313699Y-21467D02*
D03*
X293828Y-18674D02*
D03*
X254087Y-13089D02*
D03*
X393182Y-32637D02*
D03*
X333570Y-24259D02*
D03*
X373311Y-29844D02*
D03*
X353440Y-27052D02*
D03*
D37*
X-138940Y-89626D02*
D03*
X-133940D02*
D03*
X-118940D02*
D03*
X-128940D02*
D03*
X-123940D02*
D03*
X-103940D02*
D03*
X-113940D02*
D03*
X-108940D02*
D03*
X-133940Y41874D02*
D03*
X-128940D02*
D03*
X-123940D02*
D03*
X-138940D02*
D03*
X-108940D02*
D03*
X-103940D02*
D03*
X-118940D02*
D03*
X-113940D02*
D03*
X-58940Y-89626D02*
D03*
X-68940D02*
D03*
X-63940D02*
D03*
X-43940D02*
D03*
X-53940D02*
D03*
X-48940D02*
D03*
X-88940D02*
D03*
X-98940D02*
D03*
X-93940D02*
D03*
X-73940D02*
D03*
X-83940D02*
D03*
X-78940D02*
D03*
X-98940Y41874D02*
D03*
X-93940D02*
D03*
X-88940D02*
D03*
X-83940D02*
D03*
X-68940D02*
D03*
X-78940D02*
D03*
X-73940D02*
D03*
X-53940D02*
D03*
X-63940D02*
D03*
X-58940D02*
D03*
X-48940D02*
D03*
X-43940D02*
D03*
D38*
X-471250Y-44428D02*
D03*
X-466750D02*
D03*
X-471250Y-16428D02*
D03*
X-466750D02*
D03*
X-462250Y-44428D02*
D03*
X-457750D02*
D03*
X-453250D02*
D03*
X-448750D02*
D03*
X-462250Y-16428D02*
D03*
X-457750D02*
D03*
X-453250D02*
D03*
X-448750D02*
D03*
D39*
X-460000Y-30428D02*
D03*
D40*
X-430676Y249162D02*
D03*
Y256862D02*
D03*
X-420676Y249162D02*
D03*
X-425676D02*
D03*
Y256862D02*
D03*
D41*
X-420676D02*
D03*
D42*
X-427500Y277500D02*
X-426247Y276250D01*
X-422920Y272932D01*
X-245000Y43810D02*
X-203810D01*
X-273810D02*
X-245000D01*
X-203810D02*
X-178624Y18624D01*
X-205388Y40000D02*
X-174012Y8624D01*
X-157190D01*
X-435000Y272500D02*
X-433476Y267475D01*
Y262524D02*
Y267475D01*
Y262524D02*
X-430676Y259724D01*
Y256862D02*
Y259724D01*
X-433404Y202588D02*
X-428810Y197994D01*
X-433404Y202588D02*
Y204012D01*
X-433804Y214895D02*
X-433404Y214494D01*
X-433804Y214895D02*
Y220112D01*
X-433404Y204012D02*
Y214494D01*
X-416532Y214895D02*
Y220112D01*
X-417404Y214023D02*
X-416532Y214895D01*
X-417404Y204012D02*
Y214023D01*
X-178624Y18624D02*
X-157190D01*
X-428810Y193422D02*
Y197994D01*
Y193422D02*
X-275388Y40000D01*
X-425000Y196416D02*
X-417404Y204012D01*
X-425000Y195000D02*
Y196416D01*
X-275388Y40000D02*
X-205388D01*
X-425000Y195000D02*
X-273810Y43810D01*
X-422920Y272932D02*
X-416699Y266712D01*
Y253138D02*
Y266712D01*
X-420676Y249162D02*
X-416699Y253138D01*
X-432942Y254596D02*
X-430676Y256862D01*
X-433412Y254596D02*
X-432942D01*
X-435160Y252848D02*
X-433412Y254596D01*
X-435160Y245476D02*
Y252848D01*
X-435034Y242402D02*
Y245349D01*
Y242402D02*
X-434652Y242020D01*
Y237760D02*
Y242020D01*
X-435160Y245476D02*
X-435034Y245349D01*
X-434652Y237760D02*
X-433404Y236512D01*
X-416404D02*
Y241676D01*
X-416612D02*
X-416404D01*
X-420676Y245740D02*
X-416612Y241676D01*
X-420676Y245740D02*
Y249162D01*
D43*
X-215500Y313000D02*
X-210000Y307500D01*
X-215500Y313000D02*
Y320000D01*
X-141108Y278892D02*
X43608D01*
X-202184Y201676D02*
Y217816D01*
X-141108Y278892D01*
X-217500Y190822D02*
X-196250D01*
X-254694D02*
X-217500D01*
X-380000Y187500D02*
X-377500Y172500D01*
X-370000Y164572D01*
X-177500Y70000D02*
X-162072Y54572D01*
X-250000Y70000D02*
X-177500D01*
X-157000Y54572D02*
X-155000Y52572D01*
X-162072Y54572D02*
X-157000D01*
X-262500Y82500D02*
X-250000Y70000D01*
X-287500Y82500D02*
X-262500D01*
X-300000Y95000D02*
X-287500Y82500D01*
X-404340Y217452D02*
X-403404Y216516D01*
X187500Y242500D02*
X220000D01*
X225000Y247500D01*
X237500D01*
X245000Y255000D01*
X165000Y265000D02*
X187500Y242500D01*
X57500Y265000D02*
X165000D01*
X43608Y278892D02*
X57500Y265000D01*
X120000Y-270000D02*
X155000D01*
X-318008D02*
X120000D01*
X135000Y-305000D02*
X152250D01*
X167750D02*
X167750Y-305000D01*
X193000D01*
Y-302000D01*
X215000Y-280000D01*
X190000Y-235000D02*
X455000D01*
X155000Y-270000D02*
X190000Y-235000D01*
X455000D02*
X468628Y-221372D01*
Y-205740D01*
X-318008Y-270000D02*
Y-244348D01*
X471350Y-208726D02*
Y-171678D01*
Y-154878D02*
X479416Y-146812D01*
X-318008Y-244348D02*
X-181864Y-108204D01*
X-273304Y-163068D02*
Y-35052D01*
X-312928Y-202692D02*
X-273304Y-163068D01*
X-495500Y61572D02*
Y66294D01*
X-465540Y34572D02*
X-461500D01*
X-467417Y36449D02*
X-465540Y34572D01*
X-475939Y36449D02*
X-467417D01*
X-477816Y34572D02*
X-475939Y36449D01*
X-492500Y34572D02*
X-477816D01*
X-278130Y147072D02*
X-195000D01*
X-280924D02*
X-278130D01*
X-411236Y-11928D02*
X-381000D01*
X-263510Y173116D02*
Y182006D01*
X-254694Y190822D01*
X-370000Y164572D02*
X-300000Y95000D01*
X-144248Y66572D02*
X-142240Y68580D01*
X-155000Y66572D02*
X-144248D01*
X-81407Y89916D02*
X-81280Y90043D01*
X-81407Y85165D02*
Y89916D01*
X-85000Y81572D02*
X-81407Y85165D01*
X-386052Y270284D02*
X-382276Y266508D01*
Y255108D02*
Y266508D01*
X-403404Y204012D02*
Y216516D01*
X-450060Y217452D02*
X-447404Y214796D01*
Y204012D02*
Y214796D01*
X-507000Y84572D02*
X-505000Y82572D01*
X-113794Y179322D02*
X-105664Y187452D01*
X-117750Y179322D02*
X-113794D01*
X-460248Y-254508D02*
X-450000Y-244260D01*
X-477520Y-254508D02*
X-460248D01*
X-485000Y-247028D02*
X-477520Y-254508D01*
X-450000Y-244260D02*
Y-234928D01*
X-410000Y-125940D02*
X-333248Y-202692D01*
X-485000Y-247028D02*
Y-227428D01*
X-494440D02*
X-485000D01*
X-499872Y-221996D02*
X-494440Y-227428D01*
X434423Y-2104D02*
X460684D01*
X505340Y42552D01*
Y134620D01*
X504952Y135008D02*
X505340Y134620D01*
X504952Y135008D02*
Y236220D01*
X-477520Y-205948D02*
Y-204724D01*
X-485000Y-213428D02*
X-477520Y-205948D01*
X-450088Y-191516D02*
X-450000Y-191604D01*
Y-205928D02*
Y-191604D01*
X-430784Y-76708D02*
Y-69644D01*
X-435000Y-65428D02*
X-430784Y-69644D01*
X-414000Y37572D02*
X-412000Y39572D01*
X-117856Y-60452D02*
Y-11684D01*
Y-508D01*
X-92456Y24892D01*
X-422712Y64572D02*
X-415500D01*
X-419000Y46572D02*
X-412000Y39572D01*
X-419000Y46572D02*
Y54572D01*
X-333248Y-202692D02*
X-312928D01*
X-235712Y91948D02*
X-227584D01*
X-169672Y149860D01*
Y152908D02*
X-165608Y156972D01*
X-169672Y149860D02*
Y152908D01*
X-122936Y140716D02*
X-116580Y147072D01*
X-85000D01*
X-72892D01*
X-65024Y154940D01*
X-74724Y192072D02*
X-66040Y183388D01*
X-85000Y192072D02*
X-74724D01*
X471350Y-171678D02*
Y-154878D01*
X458650Y-126046D02*
X461128Y-128524D01*
X458650Y-126046D02*
Y-99178D01*
X445950D02*
X458650D01*
X-517040Y61572D02*
X-514500D01*
X-565912Y12700D02*
X-517040Y61572D01*
X-565912Y-53340D02*
Y12700D01*
X-544300Y-37428D02*
X-520000D01*
X-550000Y-43128D02*
X-544300Y-37428D01*
X-544300Y-23428D02*
X-520000D01*
X-550000Y-17728D02*
X-544300Y-23428D01*
X-565912Y-53340D02*
X-553076Y-66176D01*
Y-80772D02*
Y-66176D01*
X-517144Y-112656D02*
X-507000Y-122800D01*
X-499872D01*
Y-221996D02*
Y-122800D01*
X-490000Y-112928D01*
X-450000D02*
X-410000D01*
X-490000D02*
X-450000D01*
X-410000Y-125940D02*
Y-112928D01*
X-229616Y-86868D02*
X-164592D01*
X-128905Y-60325D02*
X-65151D01*
X-155448Y-86868D02*
X-128905Y-60325D01*
X-65151D02*
X-54864Y-70612D01*
X-88940Y-75144D02*
Y-60920D01*
X-164592Y-86868D02*
X-155448D01*
X-396276Y255108D02*
Y258156D01*
X-455000Y51364D02*
X-451792Y54572D01*
X-520000Y-23428D02*
X-498000D01*
X-550000Y-17728D02*
Y-16928D01*
X-134112Y-8636D02*
X-131064Y-11684D01*
X-117856D01*
D44*
X-247500Y334480D02*
X-243980D01*
X-229500Y320000D01*
Y304500D02*
Y320000D01*
Y304500D02*
X-217500Y292500D01*
Y190822D02*
Y292500D01*
X170836Y169164D02*
X185000Y155000D01*
X-455000Y42078D02*
Y51364D01*
X170688Y169164D02*
X170836D01*
D45*
X-229870Y205740D02*
Y267909D01*
X-269329Y307368D02*
X-229870Y267909D01*
X-197500Y25000D02*
X-171124Y-1376D01*
X-203000Y25000D02*
X-197500D01*
X-355000Y220000D02*
X-333502Y183642D01*
X-365000Y257500D02*
X-355000Y220000D01*
X-365000Y257500D02*
Y311752D01*
X-356255Y320497D01*
X-479806Y116078D02*
X-479298Y115570D01*
X-220308Y85000D02*
X-149352Y155956D01*
X-245000Y62500D02*
X-235000Y52500D01*
X-227500D01*
X-212500D02*
X-197500D01*
X-182500D02*
X-170000Y40000D01*
X-157500D01*
X-155000Y43247D02*
X-135936Y24183D01*
X-155000Y43247D02*
Y52572D01*
X-157500Y40000D02*
X-140000Y22500D01*
Y15000D02*
Y22500D01*
X-135936Y5884D02*
Y24183D01*
X-141376Y13624D02*
X-140000Y15000D01*
X-138196Y3624D02*
X-135936Y5884D01*
X-157190Y13624D02*
X-141376D01*
X-427499Y265000D02*
X-424999D01*
X-427499D02*
Y265413D01*
X-425676Y267236D01*
X-420676Y262236D01*
Y256862D02*
Y262236D01*
X35997Y257500D02*
X48895Y244602D01*
X-125167Y257500D02*
X35997D01*
X-149352Y233315D02*
X-125167Y257500D01*
X177128Y-55372D02*
X177500Y-55000D01*
X151772Y-55372D02*
X177128D01*
X176616Y-39116D02*
X177500Y-40000D01*
X151772Y-39116D02*
X176616D01*
X152788Y-125476D02*
X235000Y-207688D01*
X155236Y-110236D02*
X255000Y-210000D01*
X235000Y-280240D02*
Y-280000D01*
X147708Y-110236D02*
X155236D01*
X255000Y-281230D02*
Y-280000D01*
X-280400Y-250000D02*
Y-236204D01*
X-478536Y13216D02*
X-476750Y11430D01*
X-550000Y114972D02*
X-548894Y116078D01*
X-516636D01*
X-479298Y58674D02*
Y115570D01*
X-476750Y-8678D02*
Y11430D01*
X-242316Y167640D02*
X-236808Y162132D01*
X-232450D01*
X-242316Y167640D02*
X-240538Y169418D01*
X-235705Y175387D02*
X-232450Y172132D01*
X-244788Y175387D02*
X-235705D01*
X-247059Y173116D02*
X-244788Y175387D01*
X-249936Y173116D02*
X-247059D01*
X-241808Y183642D02*
X-230378D01*
X-224750Y178014D01*
Y172132D02*
Y178014D01*
X-227530Y153924D02*
X-217424D01*
X-232450Y158844D02*
X-227530Y153924D01*
X-231648Y207518D02*
X-229870Y205740D01*
X-224289Y172593D02*
X-213725D01*
X-224750Y172132D02*
X-224289Y172593D01*
X-213264Y172132D02*
X-206684D01*
X-213725Y172593D02*
X-213264Y172132D01*
X-74168Y91948D02*
X-72136D01*
X-74168Y75692D02*
Y91948D01*
X-82288Y67572D02*
X-74168Y75692D01*
X-425676Y228628D02*
X-424660Y227612D01*
X-425676Y228628D02*
Y239804D01*
X-430756Y244884D02*
X-425676Y239804D01*
X-430756Y244884D02*
X-430676Y249162D01*
X-149352Y155956D02*
Y233315D01*
X-43940Y-89626D02*
X-25069Y-108497D01*
X-107490Y-6064D02*
X-102124D01*
X-111284Y-9858D02*
X-107490Y-6064D01*
X-111284Y-15224D02*
Y-9858D01*
Y-15224D02*
X-110744Y-15764D01*
Y-38100D02*
Y-15764D01*
X-92456Y24892D02*
X-88940Y28408D01*
X-157190Y3624D02*
X-138196D01*
X-102100Y-6088D02*
X-77216Y18796D01*
Y18196D02*
X-72712Y22700D01*
X-102124Y-6064D02*
X-102100Y-6088D01*
X-77216Y18196D02*
Y18796D01*
X-450571Y-51308D02*
X-417576D01*
X-128940Y-209896D02*
Y-89626D01*
Y-209896D02*
X-117856Y-220980D01*
X-104510Y-172720D02*
X3218D01*
X-123444Y-153786D02*
X-104510Y-172720D01*
X-102616Y-168148D02*
X-4064D01*
X-118872Y-151892D02*
X-102616Y-168148D01*
X-118872Y-151892D02*
Y-117348D01*
X-146304Y-218059D02*
Y-120396D01*
Y-218059D02*
X-128905Y-235458D01*
X-255000Y-229092D02*
X-146304Y-120396D01*
X-255000Y-250000D02*
Y-229092D01*
X-280400Y-236204D02*
X-157480Y-113284D01*
X-305800Y-244332D02*
X-166624Y-105156D01*
X-117856Y-220980D02*
X9017D01*
X-133096Y179451D02*
X-67945Y244602D01*
X-133096Y112268D02*
Y179451D01*
X-142240Y187452D02*
X-118745Y210947D01*
X-142240Y106172D02*
Y187452D01*
Y106172D02*
X-111760Y75692D01*
X-133096Y112268D02*
X-111760Y90932D01*
X-239776Y-53340D02*
Y9652D01*
X-209276Y162072D02*
X-195000D01*
X-85000Y147072D02*
X-83312Y145384D01*
Y120396D02*
Y145384D01*
X-85000Y67572D02*
X-82288D01*
X-217424Y153924D02*
X-209276Y162072D01*
X-232450Y158844D02*
Y162132D01*
X-206684Y172132D02*
X-201744Y177072D01*
X-195000D01*
X28448Y127508D02*
Y204108D01*
X-1905Y234461D02*
X28448Y204108D01*
X36830Y137414D02*
Y206502D01*
X23495Y219837D02*
X36830Y206502D01*
X-1905Y234461D02*
Y244602D01*
X-88940Y58888D02*
X-85000Y62828D01*
X-88940Y41874D02*
Y58888D01*
X-455000Y-55879D02*
X-447040D01*
X-461794Y-49085D02*
X-455000Y-55879D01*
X-462250Y-48629D02*
Y-44428D01*
X-442500Y-90428D02*
Y-57928D01*
X-444549Y-55879D02*
X-442500Y-57928D01*
X-450000Y-97928D02*
X-442500Y-90428D01*
X-435080Y-44428D02*
X-434340Y-43688D01*
X-448750Y-44428D02*
X-435080D01*
X-416560Y-91368D02*
X-410000Y-97928D01*
X-416560Y-91368D02*
Y-76708D01*
X9017Y-220980D02*
X23495Y-235458D01*
X3218Y-172720D02*
X14055Y-161883D01*
X-4064Y-168148D02*
X8128Y-155956D01*
X48895Y-235458D02*
Y-145961D01*
X-25690Y-71376D02*
X48895Y-145961D01*
X-11869Y-56376D02*
X125095Y-193340D01*
X-13334Y-61376D02*
X99695Y-174405D01*
X-14800Y-66376D02*
X74295Y-155471D01*
X61976Y-86868D02*
X65024Y-89916D01*
X68739Y-79089D02*
Y3905D01*
X-25690Y-56376D02*
X-11869D01*
X-25690Y-61376D02*
X-13334D01*
X-25690Y-66376D02*
X-14800D01*
X-113940Y-105950D02*
Y-89626D01*
X-123444Y-115454D02*
X-113940Y-105950D01*
X-123444Y-153786D02*
Y-115454D01*
X-108940Y-107416D02*
Y-89626D01*
X-118872Y-117348D02*
X-108940Y-107416D01*
X36576Y137668D02*
X36830Y137414D01*
X23495Y219837D02*
Y244602D01*
X61976Y-86868D02*
Y10668D01*
X-53940Y-99026D02*
Y-89626D01*
X-157388Y-56574D02*
X-157190Y-56376D01*
X-166429Y-56574D02*
X-157388D01*
X-169242Y-59387D02*
X-166429Y-56574D01*
X-169242Y-60022D02*
Y-59387D01*
X-185928Y-76708D02*
X-169242Y-60022D01*
X-216408Y-76708D02*
X-185928D01*
X-239776Y-53340D02*
X-216408Y-76708D01*
X-118745Y210947D02*
Y244602D01*
X-133940Y-89626D02*
Y-74504D01*
X-127000Y-67564D01*
X-104648D01*
X-110744Y-38100D02*
X-96520Y-52324D01*
X-47124Y-16376D02*
X-25690D01*
X-59944Y-3556D02*
X-47124Y-16376D01*
X-53940Y-89626D02*
Y-71536D01*
X-54864Y-70612D02*
X-53940Y-71536D01*
X-171124Y-1376D02*
X-157190D01*
X-495000Y-22928D02*
X-488500Y-16428D01*
X-466750Y-56998D02*
Y-44428D01*
X-458320Y-65428D02*
X-450000D01*
X-465000D02*
X-458320D01*
X-466750Y-56998D02*
X-458320Y-65428D01*
X-471250Y-56678D02*
Y-44428D01*
X-480000Y-65428D02*
X-471250Y-56678D01*
X-495300Y-66428D02*
X-481000D01*
X-480000Y-65428D01*
X-495300Y-51428D02*
Y-38228D01*
X-495000Y-37928D01*
X-453250Y-48629D02*
X-450571Y-51308D01*
X-453250Y-48629D02*
Y-44428D01*
X-380000Y-45178D02*
X-375000D01*
X-370000Y-55548D02*
Y-45178D01*
X-488500Y-16428D02*
X-471250D01*
X-417576Y-51308D02*
X-386130D01*
X-380000Y-45178D01*
X-465000Y2572D02*
X-462250Y-178D01*
X-466750Y-16428D02*
Y-8678D01*
X-476750D02*
X-466750D01*
X-462250Y-16428D02*
Y-178D01*
X-141372Y-1376D02*
X-134112Y-8636D01*
X-157190Y-1376D02*
X-141372D01*
X-171316Y-16376D02*
X-157190D01*
X-175368Y-20428D02*
X-171316Y-16376D01*
X-195000Y-20428D02*
X-175368D01*
X-167172Y-21376D02*
X-157190D01*
X-176784Y-30988D02*
X-167172Y-21376D01*
X-88940Y28408D02*
Y41874D01*
X-85000Y62828D02*
Y67572D01*
X-157190Y-26376D02*
X-142788D01*
X-134112Y-37084D02*
X-133096Y-36068D01*
X-142788Y-26376D02*
X-133096Y-36068D01*
X-157190Y-51376D02*
X-127948D01*
X-127000Y-52324D01*
X-195000Y-50428D02*
X-178952D01*
X-176784Y-48260D01*
Y-30988D01*
X74295Y-235458D02*
Y-155471D01*
X99695Y-235458D02*
Y-174405D01*
X-164592Y-86868D02*
X-146304Y-105156D01*
Y-120396D02*
Y-105156D01*
X125095Y-235458D02*
Y-193340D01*
X-370000Y-15678D02*
Y-1192D01*
X-369824Y-1016D01*
X-370000Y-30428D02*
Y-26522D01*
Y-15678D01*
D46*
X-177500Y32500D02*
X-168624Y23624D01*
X-157190D01*
X-341268Y214014D02*
X-324104Y196850D01*
X-341268Y214014D02*
Y232261D01*
X-264548Y98044D02*
X-244004Y77500D01*
X-161544D01*
X-288544Y98044D02*
X-264548D01*
X-314960Y124460D02*
X-288544Y98044D01*
X-331724Y140716D02*
X-315468Y124460D01*
X-331724Y146812D02*
X-324104Y154432D01*
X-331724Y140716D02*
Y146812D01*
X-369824Y111252D02*
X-367792Y113284D01*
X-381762Y111252D02*
X-369824D01*
X-415802Y77212D02*
X-381762Y111252D01*
X-415802Y71374D02*
X-415500Y71072D01*
X-415802Y71374D02*
Y77212D01*
X-394500Y75400D02*
X-393700Y76200D01*
X-384048D01*
X-394500Y71072D02*
Y75400D01*
X-380492Y-176D02*
Y3810D01*
X-365000Y-4993D02*
X-360172Y-165D01*
X-380492Y-176D02*
X-375000Y-5668D01*
X-324104Y196850D02*
X-259080D01*
X-248412Y207518D01*
X-167386Y198120D02*
X-162250Y192984D01*
Y179322D02*
Y192984D01*
X-184286Y172822D02*
X-162250D01*
X-188536Y177072D02*
X-184286Y172822D01*
X-315468Y124460D02*
X-314960D01*
X-324104Y154432D02*
Y196850D01*
X-243952Y159116D02*
X-239776Y154940D01*
X-249936Y159116D02*
X-243952D01*
X-220392Y162132D02*
X-216408Y166116D01*
X-224750Y162132D02*
X-220392D01*
X-179832Y-9652D02*
X-178108Y-11376D01*
X-157190D01*
X-375000Y-15678D02*
Y-5668D01*
X-307848Y-48260D02*
Y-12700D01*
X-218440Y-2540D02*
X-217000Y-1100D01*
Y9572D01*
X-48940Y-69768D02*
X-45720Y-66548D01*
X-48940Y-89626D02*
Y-69768D01*
X-40528Y-126492D02*
X-13208D01*
X-40640Y-126380D02*
X-40528Y-126492D01*
X-106680Y-144780D02*
X-105664Y-143764D01*
Y-132476D01*
X-80456Y-156972D02*
X-70912Y-147428D01*
X-70000D01*
X-80456Y-156972D02*
X-80264D01*
X-90000Y-147428D02*
X-80456Y-156972D01*
X-53940Y-99026D02*
X-40640Y-112326D01*
Y-113428D02*
Y-112326D01*
X-73940Y-69368D02*
X-72136Y-67564D01*
X-73940Y-89626D02*
Y-69368D01*
X-218064Y-35428D02*
X-195000D01*
X-95504Y11684D02*
X-91440D01*
X-83940Y19184D01*
Y41874D01*
X-430784Y-37084D02*
Y-25280D01*
Y-37084D02*
X-417576Y-50292D01*
X-184286Y166322D02*
X-162250D01*
X-165608Y156972D02*
X-162758Y159822D01*
X-162250D01*
Y157282D02*
Y159822D01*
X-195000Y177072D02*
X-188536D01*
Y162072D02*
X-184286Y166322D01*
X-195000Y162072D02*
X-188536D01*
X-92172Y-104872D02*
X-88940Y-101640D01*
X-92473Y-104872D02*
X-92172D01*
X-92757Y-105156D02*
X-92473Y-104872D01*
X-101728Y-105156D02*
X-92757D01*
X-104114Y-107542D02*
X-101728Y-105156D01*
X-104114Y-119862D02*
Y-107542D01*
X-104648Y-120396D02*
X-104114Y-119862D01*
X-88940Y-89626D02*
Y-75144D01*
X-495500Y37572D02*
X-492500Y34572D01*
X-381000Y-15678D02*
X-380000D01*
X-375000D02*
X-374904Y-15582D01*
X-381000Y-15678D02*
Y-11928D01*
X-417576Y-51308D02*
Y-50292D01*
X-372872Y-58420D02*
X-370000Y-55548D01*
X-406400Y-58420D02*
X-372872D01*
X-438912Y-508D02*
Y11984D01*
X-439270Y12342D02*
X-438912Y11984D01*
X-430784Y-10280D02*
Y-8636D01*
X-438912Y-508D02*
X-430784Y-8636D01*
X-360000Y-45178D02*
X-350822Y-54356D01*
X-313944D01*
X-307848Y-48260D01*
X-88940Y-101640D02*
Y-89626D01*
X-448750Y-33342D02*
Y-16428D01*
X-455000Y-25428D02*
X-453250Y-23678D01*
Y-28842D02*
X-448750Y-33342D01*
X-453250Y-23678D02*
Y-16428D01*
Y-28842D02*
Y-23678D01*
X-460000Y-30428D02*
X-455000Y-25428D01*
X-365000Y-52576D02*
Y-45178D01*
Y-52576D02*
X-360172Y-57404D01*
Y-58928D02*
Y-57404D01*
X-365000Y-15678D02*
Y-4993D01*
X-370000Y-30428D02*
X-365000Y-35428D01*
D47*
X-171512Y-6376D02*
X-157190D01*
X-182460Y4572D02*
X-171512Y-6376D01*
X-198000Y4572D02*
X-182460D01*
X-203000Y9572D02*
X-198000Y4572D01*
X374788Y190776D02*
X375564Y190000D01*
X393665Y210000D02*
X422483Y181183D01*
X186647Y210000D02*
X393665D01*
X108839Y132192D02*
X186647Y210000D01*
X172714Y140214D02*
X185214D01*
X200000Y155000D01*
X203966Y151034D01*
X237909D01*
X123317Y90817D02*
X172714Y140214D01*
X123317Y83185D02*
Y90817D01*
X190000Y27500D02*
X195000Y22500D01*
X192500Y7500D02*
Y15000D01*
X180000Y27500D02*
X192500Y15000D01*
X174752Y66548D02*
X190000Y51300D01*
Y27500D02*
Y51300D01*
X192500Y7500D02*
X200000Y0D01*
X78232Y82804D02*
X148780Y12255D01*
X170000Y27500D02*
X180000D01*
X158130Y39370D02*
X170000Y27500D01*
X171030Y13970D02*
X175895D01*
X157500Y27500D02*
X171030Y13970D01*
X140607Y27500D02*
X157500D01*
X143637Y37084D02*
X150495Y43942D01*
Y39370D02*
X158130D01*
X175895Y13970D02*
X178180D01*
X185429Y429D02*
X190000Y-4142D01*
X164036Y429D02*
X185429D01*
X150495Y13970D02*
X164036Y429D01*
X178180Y13970D02*
X194449Y-2299D01*
X81239Y86868D02*
X140607Y27500D01*
X200000Y-65858D02*
X206642Y-72500D01*
X204343Y-78051D02*
X470551D01*
X194449Y-68157D02*
X204343Y-78051D01*
X194449Y-68157D02*
Y-2299D01*
X190000Y-70000D02*
Y-4142D01*
X200000Y-65858D02*
Y0D01*
X190000Y-70000D02*
X202500Y-82500D01*
X206642Y-72500D02*
X475000D01*
X494656Y-117348D02*
Y-92156D01*
X475000Y-72500D02*
X494656Y-92156D01*
X484050Y-99178D02*
Y-91550D01*
X470551Y-78051D02*
X484050Y-91550D01*
X144871Y102072D02*
X180000D01*
X132080Y89281D02*
X144871Y102072D01*
X180268Y195000D02*
X190000D01*
X-84430Y107188D02*
X79248D01*
X-103940Y41874D02*
Y87678D01*
X-82747Y103124D02*
X80931D01*
X-98940Y41874D02*
Y86931D01*
X-81064Y99060D02*
X-80264D01*
X-93472Y46228D02*
Y86652D01*
X-81064Y99060D01*
X-98940Y86931D02*
X-82747Y103124D01*
X-103940Y87678D02*
X-84430Y107188D01*
X194198Y87873D02*
X226738D01*
X180000Y102072D02*
X194198Y87873D01*
X-428156Y-223084D02*
X-307920D01*
X-426468Y-215900D02*
X-310896D01*
X-398272Y-116672D02*
X-326814Y-188130D01*
X-398272Y-116672D02*
Y-111252D01*
X-404368Y-105156D02*
X-398272Y-111252D01*
X-469160Y-105156D02*
X-404368D01*
X-403352Y-87884D02*
X-314960Y-176276D01*
X-403352Y-87884D02*
Y-71628D01*
X-419100Y-55880D02*
X-403352Y-71628D01*
X-405162Y-97928D02*
X-320887Y-182203D01*
X-410000Y-97928D02*
X-405162D01*
X-440000Y-234928D02*
X-428156Y-223084D01*
X458650Y-153354D02*
X494656Y-117348D01*
X458650Y-171678D02*
Y-153354D01*
X-49784Y-132588D02*
X-36576Y-145796D01*
X-49784Y-132588D02*
Y-117348D01*
X-63940Y-103192D02*
X-49784Y-117348D01*
X-63940Y-103192D02*
Y-89626D01*
X-102416Y-12541D02*
X-76251Y13624D01*
X-74180Y8624D02*
X-25690D01*
X-98880Y-16076D02*
X-74180Y8624D01*
X-76251Y13624D02*
X-25690D01*
X-444549Y-55879D02*
X-419470D01*
X-110744Y-190420D02*
X20738D01*
X-108585Y-184197D02*
X15107D01*
X-108585Y-196643D02*
X26369D01*
X27592Y-195420D01*
X-307920Y-223084D02*
X-210312Y-125476D01*
X-310896Y-215900D02*
X-224028Y-129032D01*
X15107Y-184197D02*
X28786Y-170518D01*
X-73340Y167540D02*
X-21744D01*
X-78808Y162072D02*
X-73340Y167540D01*
X-85000Y162072D02*
X-78808D01*
X-80264Y99060D02*
X84328D01*
X-80264Y99060D02*
X-80264Y99060D01*
X-92504Y162072D02*
X-85000D01*
X-96755Y166322D02*
X-92504Y162072D01*
X-117750Y166322D02*
X-96755D01*
X-92504Y177072D02*
X-85000D01*
X-96754Y172822D02*
X-92504Y177072D01*
X-117750Y172822D02*
X-96754D01*
X-74356Y172620D02*
X-19640D01*
X445950Y-198062D02*
X453628Y-205740D01*
X445950Y-198062D02*
Y-171678D01*
X453971Y136991D02*
X485081D01*
X490106Y131966D01*
X202500Y-82500D02*
X465806D01*
X-536076Y-80772D02*
X-534028D01*
X-517144Y-97656D01*
X-25690Y3624D02*
X-2980D01*
X26416Y33020D01*
X-6070Y8624D02*
X15680Y30374D01*
X-25690Y8624D02*
X-6070D01*
X26416Y33020D02*
Y38100D01*
X-1407Y-1376D02*
X37831Y37861D01*
X-25690Y-1376D02*
X-1407D01*
X15680Y30374D02*
Y37905D01*
X-9871Y13624D02*
X7493Y30988D01*
X-25690Y13624D02*
X-9871D01*
X-2699Y-26376D02*
X49685Y26007D01*
X4155Y-31376D02*
X55611Y20080D01*
X-25690Y-31376D02*
X4155D01*
X-3918Y-41376D02*
X77134Y-122428D01*
X-25690Y-41376D02*
X-3918D01*
X-5989Y-46376D02*
X78445Y-130810D01*
X-25690Y-46376D02*
X-5989D01*
X-8060Y-51376D02*
X79756Y-139192D01*
X-25690Y-51376D02*
X-8060D01*
X77134Y-122428D02*
X81280D01*
X78445Y-130810D02*
X81280D01*
X79756Y-139192D02*
X81280D01*
X21336Y121412D02*
X27432Y115316D01*
X21336Y121412D02*
Y195961D01*
X-27305Y244602D02*
X21336Y195961D01*
X43053Y124930D02*
Y206385D01*
X7493Y30988D02*
Y38100D01*
X14029Y121099D02*
Y138951D01*
X8949Y116527D02*
Y136847D01*
X116713Y78867D02*
X129032Y66548D01*
X174752D01*
X130048Y58420D02*
X147320D01*
X93472Y94996D02*
X130048Y58420D01*
X116713Y78867D02*
Y119253D01*
X116840Y119380D01*
X132080Y75692D02*
Y89281D01*
X80931Y103124D02*
X108839Y131032D01*
Y132192D01*
X101600Y133604D02*
X102616Y134620D01*
X101600Y129540D02*
Y133604D01*
X79248Y107188D02*
X101600Y129540D01*
X84328Y99060D02*
X180268Y195000D01*
X-44704Y94996D02*
X93472D01*
X-78940Y60760D02*
X-44704Y94996D01*
X-42672Y90932D02*
X84246D01*
X-73940Y59664D02*
X-42672Y90932D01*
X-39665Y86868D02*
X81239D01*
X-68940Y57593D02*
X-39665Y86868D01*
X-36658Y82804D02*
X78232D01*
X-63940Y55522D02*
X-36658Y82804D01*
X59000Y78740D02*
X85416Y52324D01*
X-33112Y78740D02*
X59000D01*
X-58940Y52912D02*
X-33112Y78740D01*
X56896Y73660D02*
X83312Y47244D01*
X-32444Y73660D02*
X56896D01*
X85416Y52324D02*
X95885D01*
X83312Y47244D02*
X95885D01*
X-78940Y41874D02*
Y60760D01*
X-73940Y41874D02*
Y59664D01*
X-68940Y41874D02*
Y57593D01*
X-63940Y41874D02*
Y55522D01*
X-58940Y41874D02*
Y52912D01*
X-53940Y52164D02*
X-32444Y73660D01*
X-53940Y41874D02*
Y52164D01*
X-48488Y51008D02*
X-30789Y68707D01*
X-48488Y42326D02*
Y51008D01*
X-210312Y-125476D02*
Y-124383D01*
X-476388Y-97928D02*
X-469160Y-105156D01*
X-447040Y-55879D02*
X-444549D01*
X-419470D02*
X-419470Y-55880D01*
X-419100D01*
X-452120Y-6956D02*
Y-3556D01*
X-457750Y-16428D02*
Y-12586D01*
X-476388Y-97928D02*
X-457200Y-78740D01*
X-490000Y-97928D02*
X-476388D01*
X27592Y-195420D02*
X40640Y-182372D01*
X20738Y-190420D02*
X34713Y-176445D01*
X-110744Y-182038D02*
X-108585Y-184197D01*
X-110744Y-198802D02*
X-108585Y-196643D01*
X81280Y-101092D02*
X91440Y-90932D01*
X71120Y165227D02*
X150495Y244602D01*
X71120Y115316D02*
Y165227D01*
X60960Y180467D02*
X125095Y244602D01*
X60960Y115316D02*
Y180467D01*
X-25690Y-26376D02*
X-2699D01*
X-79248Y-7620D02*
X-50492Y-36376D01*
X-25690D01*
X-130048Y77724D02*
X-114808Y62484D01*
X-161544Y77724D02*
X-130048D01*
X122936Y82804D02*
X123317Y83185D01*
X95885Y52324D02*
X97536Y53975D01*
X95885Y47244D02*
X97536Y45593D01*
X84246Y90932D02*
X138094Y37084D01*
X52777Y68707D02*
X144272Y-22788D01*
X53253Y62484D02*
X113792Y1945D01*
X54617Y55372D02*
X109481Y508D01*
X15875Y55372D02*
X54617D01*
X54966Y49276D02*
X103632Y610D01*
X25692Y49276D02*
X54966D01*
X53283Y45212D02*
X97536Y959D01*
X27375Y45212D02*
X53283D01*
X7112Y62484D02*
X53253D01*
X-30789Y68707D02*
X52777D01*
X-36538Y49276D02*
X20282D01*
X-43940Y41874D02*
X-36538Y49276D01*
X-4102Y45212D02*
X18599D01*
X-25690Y23624D02*
X-4102Y45212D01*
X248386Y-171678D02*
X445950D01*
X144272Y-67564D02*
X248386Y-171678D01*
X103632Y-59436D02*
X140208Y-96012D01*
X99321Y-63747D02*
X132708Y-97133D01*
X131504Y-50104D02*
X136772Y-55372D01*
X124287Y-50104D02*
X131504D01*
X109481Y-35299D02*
X124287Y-50104D01*
X109481Y-35299D02*
Y508D01*
X121920Y-39116D02*
X136772D01*
X113792Y-30988D02*
X121920Y-39116D01*
X113792Y-30988D02*
Y1945D01*
X103632Y-59436D02*
Y610D01*
X97536Y-61961D02*
Y959D01*
X91440Y-90932D02*
Y-3556D01*
X49784Y38100D02*
X91440Y-3556D01*
X144272Y-67564D02*
Y-22788D01*
X97536Y-61961D02*
X99321Y-63747D01*
X-48940Y41874D02*
X-48488Y42326D01*
X20282Y49276D02*
X25438D01*
X326475Y136991D02*
X453971D01*
X282448Y92964D02*
X326475Y136991D01*
X138094Y37084D02*
X143637D01*
X-78940Y-108988D02*
X-72500Y-115428D01*
X-78940Y-108988D02*
Y-89626D01*
X259426Y25234D02*
Y39572D01*
X190000Y195000D02*
X241129D01*
X40640Y122517D02*
X43053Y124930D01*
X40640Y208799D02*
X43053Y206385D01*
X40640Y208799D02*
Y210947D01*
Y115316D02*
Y122517D01*
X-19640Y172620D02*
X14029Y138951D01*
X-21744Y167540D02*
X8949Y136847D01*
X50800Y195707D02*
X99695Y244602D01*
X50800Y115316D02*
Y195707D01*
X40640Y210947D02*
X74295Y244602D01*
X18599Y45212D02*
X27121D01*
X-78808Y177072D02*
X-74356Y172620D01*
X-85000Y177072D02*
X-78808D01*
X-36576Y-145796D02*
X23368D01*
X-87500Y-130928D02*
Y-115428D01*
X-104807Y-12541D02*
X-102416D01*
X-98880Y-18468D02*
Y-16076D01*
X-440000Y-205928D02*
X-436440D01*
X-426468Y-215900D01*
X99321Y-63747D02*
Y-63747D01*
X132708Y-110236D02*
Y-97133D01*
X303022Y23072D02*
X313699Y12395D01*
X243494Y190776D02*
X374788D01*
X471350Y-99178D02*
Y-88044D01*
X465806Y-82500D02*
X471350Y-88044D01*
X303022Y23072D02*
Y39572D01*
X288489Y20234D02*
Y39572D01*
X273958Y-15881D02*
Y39572D01*
X288489Y20234D02*
X293828Y14895D01*
Y-22500D02*
Y14895D01*
X254087Y19895D02*
X259426Y25234D01*
X254087Y-2500D02*
Y19895D01*
X313699Y-12500D02*
Y12395D01*
X-83940Y-111868D02*
Y-89626D01*
X-87500Y-115428D02*
X-83940Y-111868D01*
X-90000Y-133428D02*
X-87500Y-130928D01*
X-72500Y-130928D02*
Y-115428D01*
Y-130928D02*
X-70000Y-133428D01*
X140208Y-115047D02*
Y-96012D01*
X137788Y-125476D02*
Y-117467D01*
X140208Y-115047D01*
X375564Y190000D02*
X418432Y147132D01*
X14029Y121099D02*
X16061Y119067D01*
Y116527D02*
Y119067D01*
X-457750Y-12586D02*
X-452120Y-6956D01*
D48*
X-355000Y257894D02*
Y292500D01*
Y300000D01*
Y257894D02*
X-345622D01*
X-277500Y70000D02*
X-267500D01*
X-260000Y62500D01*
X245000Y17500D02*
Y45000D01*
X239439Y11939D02*
X245000Y17500D01*
X218360Y11939D02*
X239439D01*
X242500Y47500D02*
X245000Y45000D01*
X219572Y47500D02*
X242500D01*
X263003Y68003D01*
X304361D01*
X180000Y87072D02*
X219572Y47500D01*
X225000Y-305000D02*
X225000Y-305000D01*
X207000Y-305000D02*
X225000D01*
X470000Y-260000D02*
X576072Y-210000D01*
X195000Y-260000D02*
X470000D01*
X165000Y-290000D02*
X195000Y-260000D01*
X-355668Y-290000D02*
X165000D01*
X-374904Y-270764D02*
X-355668Y-290000D01*
X-273304Y-35052D02*
X-264200Y-25948D01*
X-495500Y66294D02*
X-493000Y68794D01*
X-465000Y16572D02*
X-455541D01*
X-495500Y37572D02*
X-414000D01*
X-400050Y27686D02*
X-398000Y29736D01*
Y39572D01*
X-459618Y36454D02*
X-411236Y-11928D01*
X-508000Y102108D02*
X-507000Y101108D01*
Y84572D02*
Y101108D01*
X-505000Y61572D02*
Y82572D01*
X304361Y68003D02*
X419608Y1524D01*
X-374904Y-270764D02*
Y-243332D01*
X576072Y-210000D02*
Y-92964D01*
X485212Y-2104D02*
X576072Y-92964D01*
X460684Y-2104D02*
X485212D01*
X-405746Y-28594D02*
X-401174Y-33166D01*
X-400158D02*
X-395586Y-28594D01*
X-406400Y-39408D02*
X-400158Y-33166D01*
X-401174D02*
X-400158D01*
X-395586Y-28594D02*
X-393514Y-26522D01*
X-406400Y-27940D02*
X-405746Y-28594D01*
X-395586D01*
X-406400Y-39408D02*
Y-27940D01*
X-349048Y-30428D02*
X-340548Y-38928D01*
X-352954Y-26522D02*
X-349048Y-30428D01*
X-340360D02*
X-335736D01*
X-349048D02*
X-340360D01*
X-336776Y-38928D02*
X-334264D01*
X-340548D02*
X-336776D01*
X-334264D02*
X-333248D01*
X-336776D02*
X-334264Y-41440D01*
X-340360Y-35344D02*
X-336776Y-38928D01*
X-340360Y-35344D02*
Y-30428D01*
X-334264Y-38928D02*
Y-28956D01*
Y-41440D02*
Y-38928D01*
X-335736Y-30428D02*
X-334264Y-28956D01*
X-436880Y80010D02*
X-423418Y66548D01*
X-241808Y98044D02*
X-235712Y91948D01*
X-249548Y98044D02*
X-241808D01*
X-264200Y-52284D02*
Y-25948D01*
Y-25428D01*
Y-52284D02*
X-229616Y-86868D01*
X-219964Y-96520D02*
X-193108D01*
X-229616Y-86868D02*
X-219964Y-96520D01*
X-193108D02*
X-182660Y-106968D01*
X-406400Y-39408D02*
X-400596D01*
X-391616Y-30428D01*
X-405000Y61084D02*
Y64572D01*
X-393514Y-26522D02*
X-370000D01*
X-352954D01*
X-391616Y-30428D02*
X-370000D01*
X-349048D01*
D49*
X-356538Y3469D02*
Y19572D01*
X-383208Y6526D02*
Y19572D01*
X-455000Y78034D02*
X-436174D01*
D50*
X484957Y256215D02*
X504952Y236220D01*
X470727Y256215D02*
X484957D01*
X484050Y-187006D02*
X485512Y-188468D01*
X484050Y-187006D02*
Y-171678D01*
D51*
X-354584Y-12700D02*
X-307848D01*
X-302328D02*
X-289600Y-25428D01*
X-307848Y-12700D02*
X-302328D01*
D52*
X-385500Y-32918D02*
D03*
X-385500Y-27919D02*
D03*
X-354500Y-32918D02*
D03*
X-354500Y-27918D02*
D03*
D53*
X-371094Y86614D02*
D03*
X-255000Y-250000D02*
D03*
X-289600Y-25428D02*
D03*
D54*
X-345694Y86614D02*
D03*
X-550000Y-43128D02*
D03*
X-331200Y-250000D02*
D03*
X-305800D02*
D03*
X-280400D02*
D03*
X542500Y112900D02*
D03*
X-264200Y-25428D02*
D03*
D55*
X-550000Y114972D02*
D03*
D56*
Y64172D02*
D03*
D57*
Y-17728D02*
D03*
X542500Y87500D02*
D03*
D58*
X-154305Y-240030D02*
D03*
X-128905D02*
D03*
X-103505D02*
D03*
X175895Y39370D02*
D03*
Y13970D02*
D03*
Y-11430D02*
D03*
X150495D02*
D03*
Y13970D02*
D03*
Y39370D02*
D03*
X-1905Y240030D02*
D03*
X-52705Y-240030D02*
D03*
X150495Y240030D02*
D03*
X125095Y-240030D02*
D03*
Y240030D02*
D03*
X99695Y-240030D02*
D03*
Y240030D02*
D03*
X74295Y-240030D02*
D03*
Y240030D02*
D03*
X48895Y-240030D02*
D03*
Y240030D02*
D03*
X23495Y-240030D02*
D03*
Y240030D02*
D03*
X-27305Y-240030D02*
D03*
Y240030D02*
D03*
X-78105Y-240030D02*
D03*
X-67945Y240030D02*
D03*
X-93345D02*
D03*
X-118745D02*
D03*
D59*
X150495Y-240030D02*
D03*
D60*
X235000Y-280000D02*
D03*
X215000D02*
D03*
X255000D02*
D03*
X275000D02*
D03*
X235000Y-60000D02*
D03*
X215000D02*
D03*
X295000Y-280000D02*
D03*
X255000Y-60000D02*
D03*
X275000D02*
D03*
X335000Y-280000D02*
D03*
X315000D02*
D03*
X395000D02*
D03*
X355000D02*
D03*
X375000D02*
D03*
X335000Y-60000D02*
D03*
X295000D02*
D03*
X315000D02*
D03*
X395000D02*
D03*
X355000D02*
D03*
X375000D02*
D03*
D61*
X540000Y-160000D02*
D03*
Y160000D02*
D03*
X-540000Y-160000D02*
D03*
Y160000D02*
D03*
D62*
X-321056Y58420D02*
D03*
X-312500Y57500D02*
D03*
X-210000Y307500D02*
D03*
X-177500Y32500D02*
D03*
X-355000Y300000D02*
D03*
Y292500D02*
D03*
X-479806Y116078D02*
D03*
X-435000Y272500D02*
D03*
X-220308Y85000D02*
D03*
X-277500Y70000D02*
D03*
X-425000Y277500D02*
D03*
X-404340Y217452D02*
D03*
X-425676Y227612D02*
D03*
X-314960Y124460D02*
D03*
X177500Y-55000D02*
D03*
Y-40000D02*
D03*
X195000Y22500D02*
D03*
X303022Y39572D02*
D03*
X120000Y-270000D02*
D03*
X135000Y-305000D02*
D03*
X255000Y-210000D02*
D03*
X235000Y-207688D02*
D03*
X-478536Y13216D02*
D03*
X-516636Y116078D02*
D03*
X-479298Y58674D02*
D03*
X-453390Y16256D02*
D03*
X-361188Y49784D02*
D03*
X-370332Y1016D02*
D03*
X-248412Y207518D02*
D03*
X-167386Y198120D02*
D03*
X-180848Y184658D02*
D03*
X-240538Y169418D02*
D03*
X-229870Y205740D02*
D03*
X-333502Y183642D02*
D03*
X-241808D02*
D03*
X-400050Y27686D02*
D03*
X-239776Y154940D02*
D03*
X-216408Y166116D02*
D03*
X-179832Y-9652D02*
D03*
X-142240Y68580D02*
D03*
X-72136Y91948D02*
D03*
X-81280Y90043D02*
D03*
X-386052Y270284D02*
D03*
X-450060Y217452D02*
D03*
X-508000Y102108D02*
D03*
X-105664Y187452D02*
D03*
X225000Y-305000D02*
D03*
X-374904Y-243332D02*
D03*
X-202184Y201676D02*
D03*
X485512Y-188468D02*
D03*
X-477520Y-204724D02*
D03*
X-450088Y-191516D02*
D03*
X-406400Y-27940D02*
D03*
X-334264Y-28956D02*
D03*
X-430784Y-76708D02*
D03*
X-218440Y-2540D02*
D03*
X-45720Y-66548D02*
D03*
X-13208Y-126492D02*
D03*
X-106680Y-144780D02*
D03*
X-80264Y-156972D02*
D03*
X-72136Y-67564D02*
D03*
X-218064Y-35428D02*
D03*
X-95504Y11684D02*
D03*
X-367792Y113284D02*
D03*
X-438912Y-508D02*
D03*
X170688Y169164D02*
D03*
X168656Y208788D02*
D03*
X-169672Y149860D02*
D03*
X-122936Y140716D02*
D03*
X-83312Y120396D02*
D03*
X-111760Y75692D02*
D03*
Y90932D02*
D03*
X-65024Y154940D02*
D03*
X-66040Y183388D02*
D03*
X-235712Y91948D02*
D03*
X479416Y-146812D02*
D03*
X461128Y-128524D02*
D03*
X26416Y38100D02*
D03*
X27432Y115316D02*
D03*
X132080Y75692D02*
D03*
X116840Y119380D02*
D03*
X102616Y134620D02*
D03*
X-320887Y-182203D02*
D03*
X-326814Y-188130D02*
D03*
X-314960Y-176276D02*
D03*
X81280Y-122428D02*
D03*
X28786Y-170518D02*
D03*
X-452120Y-3556D02*
D03*
X-457200Y-78740D02*
D03*
X81280Y-139192D02*
D03*
X40640Y-182372D02*
D03*
X-434340Y-43688D02*
D03*
X-416560Y-76708D02*
D03*
X81280Y-130810D02*
D03*
X34713Y-176445D02*
D03*
X-110744Y-182038D02*
D03*
Y-198802D02*
D03*
Y-190420D02*
D03*
X65024Y-89916D02*
D03*
X68739Y-79089D02*
D03*
X81280Y-101092D02*
D03*
X71120Y115316D02*
D03*
X60960D02*
D03*
X-79248Y-7620D02*
D03*
X-114808Y62484D02*
D03*
X122936Y82804D02*
D03*
X97536Y53975D02*
D03*
Y45593D02*
D03*
X282448Y92964D02*
D03*
X147320Y58420D02*
D03*
X14055Y-161883D02*
D03*
X28448Y127508D02*
D03*
X8128Y-155956D02*
D03*
X36576Y137668D02*
D03*
X68739Y3905D02*
D03*
X61976Y10668D02*
D03*
X50800Y115316D02*
D03*
X40640D02*
D03*
X15875Y38100D02*
D03*
X15875Y55372D02*
D03*
X7493Y115316D02*
D03*
X-239776Y9652D02*
D03*
X-104648Y-67564D02*
D03*
X-96520Y-52324D02*
D03*
X-71120Y21844D02*
D03*
X-59944Y-3556D02*
D03*
X23368Y-145796D02*
D03*
X7112Y62484D02*
D03*
X7493Y38100D02*
D03*
X-104807Y-12541D02*
D03*
X-209296Y-121412D02*
D03*
X-98880Y-18468D02*
D03*
X-223520Y-126492D02*
D03*
X55611Y20080D02*
D03*
X49685Y26007D02*
D03*
X37831Y37861D02*
D03*
X49784Y38100D02*
D03*
X288489Y39572D02*
D03*
X259426D02*
D03*
X273958D02*
D03*
X-406400Y-58420D02*
D03*
X-134112Y-37084D02*
D03*
X-127000Y-52324D02*
D03*
X-166624Y-105156D02*
D03*
X-157480Y-113284D02*
D03*
X418432Y147132D02*
D03*
X422483Y181183D02*
D03*
X-360172Y-58928D02*
D03*
X17526Y114808D02*
D03*
D63*
X-292862Y123190D02*
D03*
X-405356Y269268D02*
D03*
X-448028Y244884D02*
D03*
D64*
X-424999Y265000D02*
D03*
D65*
X-377500Y-35428D02*
D03*
Y-25428D02*
D03*
X-362500Y-35428D02*
D03*
X-370000Y-30428D02*
D03*
X-362500Y-25428D02*
D03*
X-405000Y60572D02*
D03*
Y68572D02*
D03*
X-455000Y-215428D02*
D03*
Y-225428D02*
D03*
X-445000D02*
D03*
Y-215428D02*
D03*
X-465000Y-25428D02*
D03*
Y-35428D02*
D03*
X-455000D02*
D03*
Y-25428D02*
D03*
M02*
