%FSLAX44Y44*%
%MOMM*%
G71*
G01*
G75*
%ADD10C,0.7620*%
%ADD11R,2.3000X2.3000*%
%ADD12R,0.8000X0.9000*%
%ADD13O,1.7500X0.3000*%
G04:AMPARAMS|DCode=14|XSize=2mm|YSize=1.75mm|CornerRadius=0mm|HoleSize=0mm|Usage=FLASHONLY|Rotation=279.640|XOffset=0mm|YOffset=0mm|HoleType=Round|Shape=Rectangle|*
%AMROTATEDRECTD14*
4,1,4,-1.0301,0.8394,0.6952,1.1324,1.0301,-0.8394,-0.6952,-1.1324,-1.0301,0.8394,0.0*
%
%ADD14ROTATEDRECTD14*%

%ADD15R,0.7000X0.9000*%
%ADD16R,0.9000X0.7000*%
%ADD17R,0.9000X0.8000*%
%ADD18R,0.4900X0.3000*%
%ADD19R,0.5200X0.3000*%
%ADD20R,1.7000X1.1000*%
%ADD21C,0.4000*%
%ADD22R,1.0000X1.0000*%
%ADD23R,0.7000X1.4000*%
%ADD24R,0.5500X0.9500*%
%ADD25O,0.2800X0.8500*%
%ADD26R,2.4000X1.6500*%
%ADD27R,0.7000X0.3000*%
%ADD28R,1.0000X1.6000*%
%ADD29R,0.4500X0.8500*%
%ADD30R,2.4000X1.5000*%
%ADD31R,0.8500X0.7000*%
%ADD32O,0.7000X2.0000*%
%ADD33O,1.3500X0.4500*%
%ADD34R,2.0000X0.4000*%
G04:AMPARAMS|DCode=35|XSize=1.524mm|YSize=2.8448mm|CornerRadius=0mm|HoleSize=0mm|Usage=FLASHONLY|Rotation=82.000|XOffset=0mm|YOffset=0mm|HoleType=Round|Shape=Rectangle|*
%AMROTATEDRECTD35*
4,1,4,1.3025,-0.9525,-1.5146,-0.5566,-1.3025,0.9525,1.5146,0.5566,1.3025,-0.9525,0.0*
%
%ADD35ROTATEDRECTD35*%

G04:AMPARAMS|DCode=36|XSize=1.524mm|YSize=2.8448mm|CornerRadius=0mm|HoleSize=0mm|Usage=FLASHONLY|Rotation=352.000|XOffset=0mm|YOffset=0mm|HoleType=Round|Shape=Rectangle|*
%AMROTATEDRECTD36*
4,1,4,-0.9525,-1.3025,-0.5566,1.5146,0.9525,1.3025,0.5566,-1.5146,-0.9525,-1.3025,0.0*
%
%ADD36ROTATEDRECTD36*%

%ADD37O,0.3000X1.7500*%
%ADD38R,0.2500X0.7000*%
%ADD39R,2.3800X1.6500*%
%ADD40R,0.3000X0.4900*%
%ADD41R,0.3000X0.5200*%
%ADD42C,0.1905*%
%ADD43C,0.4064*%
%ADD44C,0.5080*%
%ADD45C,0.2540*%
%ADD46C,0.3048*%
%ADD47C,0.2032*%
%ADD48C,0.6096*%
%ADD49C,1.0160*%
%ADD50C,0.3556*%
%ADD51C,1.2700*%
%ADD52R,0.7000X0.2800*%
%ADD53C,0.1000*%
%ADD54C,0.0500*%
%ADD55R,1.5000X1.5000*%
%ADD56C,1.5000*%
%ADD57C,1.8500*%
%ADD58R,1.8500X1.8500*%
%ADD59R,1.5000X1.5000*%
%ADD60C,1.2700*%
%ADD61R,1.2700X1.2700*%
%ADD62C,1.5240*%
%ADD63C,2.9000*%
%ADD64C,0.6350*%
%ADD65C,0.9000*%
%ADD66C,0.7000*%
%ADD67C,0.5000*%
%ADD68C,0.6350*%
G04:AMPARAMS|DCode=69|XSize=0.65mm|YSize=1.35mm|CornerRadius=0mm|HoleSize=0mm|Usage=FLASHONLY|Rotation=13.600|XOffset=0mm|YOffset=0mm|HoleType=Round|Shape=Rectangle|*
%AMROTATEDRECTD69*
4,1,4,-0.1572,-0.7325,-0.4746,0.5797,0.1572,0.7325,0.4746,-0.5797,-0.1572,-0.7325,0.0*
%
%ADD69ROTATEDRECTD69*%

G04:AMPARAMS|DCode=70|XSize=0.4mm|YSize=1.35mm|CornerRadius=0mm|HoleSize=0mm|Usage=FLASHONLY|Rotation=13.600|XOffset=0mm|YOffset=0mm|HoleType=Round|Shape=Rectangle|*
%AMROTATEDRECTD70*
4,1,4,-0.0357,-0.7031,-0.3531,0.6090,0.0357,0.7031,0.3531,-0.6090,-0.0357,-0.7031,0.0*
%
%ADD70ROTATEDRECTD70*%

G04:AMPARAMS|DCode=71|XSize=0.825mm|YSize=1.15mm|CornerRadius=0mm|HoleSize=0mm|Usage=FLASHONLY|Rotation=13.600|XOffset=0mm|YOffset=0mm|HoleType=Round|Shape=Rectangle|*
%AMROTATEDRECTD71*
4,1,4,-0.2657,-0.6559,-0.5361,0.4619,0.2657,0.6559,0.5361,-0.4619,-0.2657,-0.6559,0.0*
%
%ADD71ROTATEDRECTD71*%

G04:AMPARAMS|DCode=72|XSize=0.775mm|YSize=1.15mm|CornerRadius=0mm|HoleSize=0mm|Usage=FLASHONLY|Rotation=13.600|XOffset=0mm|YOffset=0mm|HoleType=Round|Shape=Rectangle|*
%AMROTATEDRECTD72*
4,1,4,-0.2414,-0.6500,-0.5118,0.4678,0.2414,0.6500,0.5118,-0.4678,-0.2414,-0.6500,0.0*
%
%ADD72ROTATEDRECTD72*%

G04:AMPARAMS|DCode=73|XSize=1.2mm|YSize=1.55mm|CornerRadius=0mm|HoleSize=0mm|Usage=FLASHONLY|Rotation=13.600|XOffset=0mm|YOffset=0mm|HoleType=Round|Shape=Rectangle|*
%AMROTATEDRECTD73*
4,1,4,-0.4009,-0.8943,-0.7654,0.6122,0.4009,0.8943,0.7654,-0.6122,-0.4009,-0.8943,0.0*
%
%ADD73ROTATEDRECTD73*%

G04:AMPARAMS|DCode=74|XSize=2.51mm|YSize=1mm|CornerRadius=0mm|HoleSize=0mm|Usage=FLASHONLY|Rotation=13.600|XOffset=0mm|YOffset=0mm|HoleType=Round|Shape=Rectangle|*
%AMROTATEDRECTD74*
4,1,4,-1.1022,-0.7811,-1.3374,0.1909,1.1022,0.7811,1.3374,-0.1909,-1.1022,-0.7811,0.0*
%
%ADD74ROTATEDRECTD74*%

G04:AMPARAMS|DCode=75|XSize=1.2mm|YSize=2.1mm|CornerRadius=0mm|HoleSize=0mm|Usage=FLASHONLY|Rotation=13.600|XOffset=0mm|YOffset=0mm|HoleType=Round|Shape=Rectangle|*
%AMROTATEDRECTD75*
4,1,4,-0.3363,-1.1617,-0.8301,0.8795,0.3363,1.1617,0.8301,-0.8795,-0.3363,-1.1617,0.0*
%
%ADD75ROTATEDRECTD75*%

D11*
X-380000Y187500D02*
D03*
Y232500D02*
D03*
D12*
X-433404Y204012D02*
D03*
X-417404Y204012D02*
D03*
X-203000Y9572D02*
D03*
X-217000D02*
D03*
X-203000Y25000D02*
D03*
X-217000D02*
D03*
X-215500Y320000D02*
D03*
X-229500D02*
D03*
X-382276Y255108D02*
D03*
X-396276D02*
D03*
X-507000Y84572D02*
D03*
X-493000D02*
D03*
X-398000Y39572D02*
D03*
X-412000D02*
D03*
X-447404Y204012D02*
D03*
X-403404Y204012D02*
D03*
X207000Y-305000D02*
D03*
X193000D02*
D03*
D13*
X-157190Y8624D02*
D03*
Y18624D02*
D03*
Y-71376D02*
D03*
Y-61376D02*
D03*
Y-66376D02*
D03*
Y-46376D02*
D03*
Y-51376D02*
D03*
Y-56376D02*
D03*
Y-26376D02*
D03*
Y-16376D02*
D03*
Y-21376D02*
D03*
Y-41376D02*
D03*
Y-31376D02*
D03*
Y-36376D02*
D03*
Y3624D02*
D03*
Y13624D02*
D03*
Y-11376D02*
D03*
Y-1376D02*
D03*
Y-6376D02*
D03*
Y23624D02*
D03*
X-25690Y-56376D02*
D03*
Y-46376D02*
D03*
Y-51376D02*
D03*
Y-71376D02*
D03*
Y-61376D02*
D03*
Y-66376D02*
D03*
Y-36376D02*
D03*
Y-41376D02*
D03*
Y-31376D02*
D03*
Y-11376D02*
D03*
Y-1376D02*
D03*
Y-6376D02*
D03*
Y-26376D02*
D03*
Y-16376D02*
D03*
Y-21376D02*
D03*
Y8624D02*
D03*
Y13624D02*
D03*
Y3624D02*
D03*
Y23624D02*
D03*
Y18624D02*
D03*
D14*
X-345622Y257894D02*
D03*
X-341268Y232261D02*
D03*
X-356255Y320497D02*
D03*
X-260873Y257581D02*
D03*
X-269329Y307368D02*
D03*
X-273934Y334480D02*
D03*
D15*
X-249548Y98044D02*
D03*
X-264548D02*
D03*
X-227500Y52500D02*
D03*
X-212500D02*
D03*
X-182500D02*
D03*
X-197500D02*
D03*
X152788Y-125476D02*
D03*
X137788D02*
D03*
X147708Y-110236D02*
D03*
X132708D02*
D03*
X136772Y-55372D02*
D03*
X151772D02*
D03*
X136772Y-39116D02*
D03*
X151772D02*
D03*
X453628Y-205740D02*
D03*
X468628D02*
D03*
X505340Y134620D02*
D03*
X490340D02*
D03*
X-465000Y-65428D02*
D03*
X-480000D02*
D03*
X185000Y155000D02*
D03*
X200000D02*
D03*
X-435000Y-65428D02*
D03*
X-450000D02*
D03*
D16*
X-260000Y62500D02*
D03*
Y47500D02*
D03*
X-85000Y162072D02*
D03*
Y147072D02*
D03*
X-85000Y177072D02*
D03*
Y192072D02*
D03*
X-195000Y177072D02*
D03*
Y192072D02*
D03*
X-195000Y162072D02*
D03*
Y147072D02*
D03*
X-416532Y220112D02*
D03*
Y235112D02*
D03*
X-430784Y-25280D02*
D03*
Y-10280D02*
D03*
X-517144Y-112656D02*
D03*
Y-97656D02*
D03*
X-410000Y-97928D02*
D03*
Y-112928D02*
D03*
X-450000Y-97928D02*
D03*
Y-112928D02*
D03*
X-490000Y-97928D02*
D03*
Y-112928D02*
D03*
X-495300Y-66428D02*
D03*
Y-51428D02*
D03*
X-433804Y220112D02*
D03*
Y235112D02*
D03*
X180000Y102072D02*
D03*
Y87072D02*
D03*
X-495000Y-37928D02*
D03*
Y-22928D02*
D03*
X-245000Y62500D02*
D03*
Y47500D02*
D03*
D17*
X-155000Y52572D02*
D03*
Y66572D02*
D03*
X-85000Y81572D02*
D03*
Y67572D02*
D03*
X-105664Y-132476D02*
D03*
Y-118476D02*
D03*
X-24384Y-112380D02*
D03*
Y-126380D02*
D03*
X-40640Y-126380D02*
D03*
Y-112380D02*
D03*
X-249936Y159116D02*
D03*
Y173116D02*
D03*
X-520000Y-37428D02*
D03*
Y-23428D02*
D03*
X-485000Y-213428D02*
D03*
Y-227428D02*
D03*
X-90000Y-147428D02*
D03*
Y-133428D02*
D03*
X197500Y239500D02*
D03*
Y225500D02*
D03*
X-70000Y-147428D02*
D03*
Y-133428D02*
D03*
X-465000Y16572D02*
D03*
Y2572D02*
D03*
X-378206Y50404D02*
D03*
Y64404D02*
D03*
D18*
X-224750Y172132D02*
D03*
Y167132D02*
D03*
Y162132D02*
D03*
X-232450D02*
D03*
Y167132D02*
D03*
D19*
Y172132D02*
D03*
D20*
X-406400Y-39408D02*
D03*
Y-12408D02*
D03*
X-334264Y-41440D02*
D03*
Y-14440D02*
D03*
D21*
X-356538Y19572D02*
D03*
X-383208D02*
D03*
X-455000Y51364D02*
D03*
Y78034D02*
D03*
D22*
X-553076Y-80772D02*
D03*
X-536076D02*
D03*
D23*
X-87500Y-115428D02*
D03*
X-72500D02*
D03*
D24*
X-514500Y37572D02*
D03*
X-495500D02*
D03*
X-514500Y61572D02*
D03*
X-505000D02*
D03*
X-495500D02*
D03*
D25*
X-380000Y-45178D02*
D03*
X-375000Y-15678D02*
D03*
X-380000D02*
D03*
X-370000Y-45178D02*
D03*
X-360000D02*
D03*
X-365000D02*
D03*
X-375000D02*
D03*
X-370000Y-15678D02*
D03*
X-365000D02*
D03*
X-360000D02*
D03*
D26*
X-370000Y-30428D02*
D03*
D27*
X-415500Y58072D02*
D03*
Y64572D02*
D03*
Y71072D02*
D03*
X-394500Y58072D02*
D03*
Y64572D02*
D03*
Y71072D02*
D03*
D28*
X-405000Y64572D02*
D03*
D29*
X-460000Y-234928D02*
D03*
Y-205928D02*
D03*
X-450000Y-234928D02*
D03*
X-440000D02*
D03*
X-450000Y-205928D02*
D03*
X-440000D02*
D03*
D30*
X-450000Y-220428D02*
D03*
D31*
X152250Y-305000D02*
D03*
X167750D02*
D03*
D32*
X471350Y-171678D02*
D03*
X445950D02*
D03*
X458650D02*
D03*
X484050D02*
D03*
X445950Y-99178D02*
D03*
X458650D02*
D03*
X471350D02*
D03*
X484050D02*
D03*
D33*
X-162250Y159822D02*
D03*
Y172822D02*
D03*
Y166322D02*
D03*
Y179322D02*
D03*
X-117750Y159822D02*
D03*
Y166322D02*
D03*
Y179322D02*
D03*
Y172822D02*
D03*
D34*
X-195000Y-35428D02*
D03*
Y-50428D02*
D03*
Y-20428D02*
D03*
D35*
X218360Y11939D02*
D03*
X221153Y31810D02*
D03*
X223946Y51681D02*
D03*
X226738Y71551D02*
D03*
X229531Y91422D02*
D03*
X232323Y111293D02*
D03*
X235116Y131164D02*
D03*
X237909Y151034D02*
D03*
X240701Y170905D02*
D03*
X243494Y190776D02*
D03*
X246287Y210646D02*
D03*
X249079Y230517D02*
D03*
X251872Y250388D02*
D03*
X434423Y-18427D02*
D03*
X437215Y1444D02*
D03*
X440008Y21315D02*
D03*
X442801Y41186D02*
D03*
X445593Y61056D02*
D03*
X448386Y80927D02*
D03*
X451179Y100798D02*
D03*
X453971Y120669D02*
D03*
X456764Y140539D02*
D03*
X459557Y160410D02*
D03*
X462349Y180281D02*
D03*
X465142Y200152D02*
D03*
X467935Y220022D02*
D03*
X470727Y239893D02*
D03*
X473520Y259764D02*
D03*
X476313Y279634D02*
D03*
D36*
X273958Y-15881D02*
D03*
X313699Y-21467D02*
D03*
X293828Y-18674D02*
D03*
X254087Y-13089D02*
D03*
X393182Y-32637D02*
D03*
X333570Y-24259D02*
D03*
X373311Y-29844D02*
D03*
X353440Y-27052D02*
D03*
D37*
X-138940Y-89626D02*
D03*
X-133940D02*
D03*
X-118940D02*
D03*
X-128940D02*
D03*
X-123940D02*
D03*
X-103940D02*
D03*
X-113940D02*
D03*
X-108940D02*
D03*
X-133940Y41874D02*
D03*
X-128940D02*
D03*
X-123940D02*
D03*
X-138940D02*
D03*
X-108940D02*
D03*
X-103940D02*
D03*
X-118940D02*
D03*
X-113940D02*
D03*
X-58940Y-89626D02*
D03*
X-68940D02*
D03*
X-63940D02*
D03*
X-43940D02*
D03*
X-53940D02*
D03*
X-48940D02*
D03*
X-88940D02*
D03*
X-98940D02*
D03*
X-93940D02*
D03*
X-73940D02*
D03*
X-83940D02*
D03*
X-78940D02*
D03*
X-98940Y41874D02*
D03*
X-93940D02*
D03*
X-88940D02*
D03*
X-83940D02*
D03*
X-68940D02*
D03*
X-78940D02*
D03*
X-73940D02*
D03*
X-53940D02*
D03*
X-63940D02*
D03*
X-58940D02*
D03*
X-48940D02*
D03*
X-43940D02*
D03*
D38*
X-471250Y-44428D02*
D03*
X-466750D02*
D03*
X-471250Y-16428D02*
D03*
X-466750D02*
D03*
X-462250Y-44428D02*
D03*
X-457750D02*
D03*
X-453250D02*
D03*
X-448750D02*
D03*
X-462250Y-16428D02*
D03*
X-457750D02*
D03*
X-453250D02*
D03*
X-448750D02*
D03*
D39*
X-460000Y-30428D02*
D03*
D40*
X-430676Y249162D02*
D03*
Y256862D02*
D03*
X-420676Y249162D02*
D03*
X-425676D02*
D03*
Y256862D02*
D03*
D41*
X-420676D02*
D03*
D53*
X-382000Y210000D02*
X-378000D01*
X-380000Y208000D02*
Y212000D01*
X-358500Y-23928D02*
G03*
X-358500Y-23928I-5000J0D01*
G01*
X-398500Y62072D02*
G03*
X-398500Y62072I-4000J0D01*
G01*
X-439000Y-214428D02*
G03*
X-439000Y-214428I-5000J0D01*
G01*
X442500Y-153428D02*
G03*
X442500Y-153428I-5000J0D01*
G01*
X-128500Y163072D02*
G03*
X-128500Y163072I-5000J0D01*
G01*
X-137440Y-74876D02*
G03*
X-137440Y-74876I-5000J0D01*
G01*
X-449000Y-24428D02*
G03*
X-449000Y-24428I-5000J0D01*
G01*
X-470213Y287412D02*
X-397315Y305048D01*
X-248548Y93294D02*
Y102794D01*
X-265548Y93294D02*
Y102794D01*
Y93294D02*
X-248548D01*
X-265548Y102794D02*
X-248548D01*
X-264750Y46500D02*
X-255250D01*
X-264750Y63500D02*
X-255250D01*
X-264750Y46500D02*
Y63500D01*
X-255250Y46500D02*
Y63500D01*
X-228500Y57250D02*
X-211500D01*
X-228500Y47750D02*
X-211500D01*
X-228500D02*
Y57250D01*
X-211500Y47750D02*
Y57250D01*
X-181500Y47750D02*
Y57250D01*
X-198500Y47750D02*
Y57250D01*
Y47750D02*
X-181500D01*
X-198500Y57250D02*
X-181500D01*
X-201250Y4822D02*
Y14322D01*
X-218750Y4822D02*
Y14322D01*
Y4822D02*
X-201250D01*
X-218750Y14322D02*
X-201250D01*
X-201250Y20250D02*
Y29750D01*
X-218750Y20250D02*
Y29750D01*
Y20250D02*
X-201250D01*
X-218750Y29750D02*
X-201250D01*
X-159750Y50822D02*
Y68322D01*
X-150250Y50822D02*
Y68322D01*
X-159750Y50822D02*
X-150250D01*
X-159750Y68322D02*
X-150250D01*
X-89750Y83322D02*
X-80250D01*
X-89750Y65822D02*
X-80250D01*
Y83322D01*
X-89750Y65822D02*
Y83322D01*
X-110414Y-134226D02*
X-100914D01*
X-110414Y-116726D02*
X-100914D01*
X-110414Y-134226D02*
Y-116726D01*
X-100914Y-134226D02*
Y-116726D01*
X-29134Y-110630D02*
X-19634D01*
X-29134Y-128130D02*
X-19634D01*
Y-110630D01*
X-29134Y-128130D02*
Y-110630D01*
X-45390Y-128130D02*
X-35890D01*
X-45390Y-110630D02*
X-35890D01*
X-45390Y-128130D02*
Y-110630D01*
X-35890Y-128130D02*
Y-110630D01*
X153788Y-130226D02*
Y-120726D01*
X136788Y-130226D02*
Y-120726D01*
Y-130226D02*
X153788D01*
X136788Y-120726D02*
X153788D01*
X148708Y-114986D02*
Y-105486D01*
X131708Y-114986D02*
Y-105486D01*
Y-114986D02*
X148708D01*
X131708Y-105486D02*
X148708D01*
X135772Y-60122D02*
Y-50622D01*
X152772Y-60122D02*
Y-50622D01*
X135772D02*
X152772D01*
X135772Y-60122D02*
X152772D01*
X135772Y-43866D02*
Y-34366D01*
X152772Y-43866D02*
Y-34366D01*
X135772D02*
X152772D01*
X135772Y-43866D02*
X152772D01*
X452628Y-210490D02*
Y-200990D01*
X469628Y-210490D02*
Y-200990D01*
X452628D02*
X469628D01*
X452628Y-210490D02*
X469628D01*
X506340Y129870D02*
Y139370D01*
X489340Y129870D02*
Y139370D01*
Y129870D02*
X506340D01*
X489340Y139370D02*
X506340D01*
X-89750Y163072D02*
X-80250D01*
X-89750Y146072D02*
X-80250D01*
Y163072D01*
X-89750Y146072D02*
Y163072D01*
X-89750Y176072D02*
X-80250D01*
X-89750Y193072D02*
X-80250D01*
X-89750Y176072D02*
Y193072D01*
X-80250Y176072D02*
Y193072D01*
X-199750Y176072D02*
X-190250D01*
X-199750Y193072D02*
X-190250D01*
X-199750Y176072D02*
Y193072D01*
X-190250Y176072D02*
Y193072D01*
X-199750Y163072D02*
X-190250D01*
X-199750Y146072D02*
X-190250D01*
Y163072D01*
X-199750Y146072D02*
Y163072D01*
X-233850Y159632D02*
X-223350D01*
X-233850Y174632D02*
X-223350D01*
Y159632D02*
Y174632D01*
X-233850Y159632D02*
Y174632D01*
X-254686Y157366D02*
X-245186D01*
X-254686Y174866D02*
X-245186D01*
X-254686Y157366D02*
Y174866D01*
X-245186Y157366D02*
Y174866D01*
X-213750Y315250D02*
Y324750D01*
X-231250Y315250D02*
Y324750D01*
Y315250D02*
X-213750D01*
X-231250Y324750D02*
X-213750D01*
X-380526Y250358D02*
Y259858D01*
X-398026Y250358D02*
Y259858D01*
Y250358D02*
X-380526D01*
X-398026Y259858D02*
X-380526D01*
X-421282Y236112D02*
X-411782D01*
X-421282Y219112D02*
X-411782D01*
Y236112D01*
X-421282D02*
X-421282Y219112D01*
X-508750Y79822D02*
Y89322D01*
X-491250Y79822D02*
Y89322D01*
X-508750D02*
X-491250D01*
X-508750Y79822D02*
X-491250D01*
X-396250Y34822D02*
Y44322D01*
X-413750Y34822D02*
Y44322D01*
Y34822D02*
X-396250D01*
X-413750Y44322D02*
X-396250D01*
X-415400Y-42908D02*
Y-8908D01*
X-397400Y-42908D02*
Y-8908D01*
X-415400Y-42908D02*
X-397400D01*
X-415400Y-8908D02*
X-397400D01*
X-435534Y-26280D02*
X-426034D01*
X-435534Y-9280D02*
X-426034D01*
X-435534Y-26280D02*
Y-9280D01*
X-426034Y-26280D02*
Y-9280D01*
X-521894Y-113656D02*
X-512394D01*
X-521894Y-96656D02*
X-512394D01*
X-521894Y-113656D02*
Y-96656D01*
X-512394Y-113656D02*
Y-96656D01*
X-414750Y-96928D02*
X-405250D01*
X-414750Y-113928D02*
X-405250D01*
Y-96928D01*
X-414750Y-113928D02*
Y-96928D01*
X-454750D02*
X-445250D01*
X-454750Y-113928D02*
X-445250D01*
Y-96928D01*
X-454750Y-113928D02*
Y-96928D01*
X-494750D02*
X-485250D01*
X-494750Y-113928D02*
X-485250D01*
Y-96928D01*
X-494750Y-113928D02*
Y-96928D01*
X-464000Y-70178D02*
Y-60678D01*
X-481000Y-70178D02*
Y-60678D01*
Y-70178D02*
X-464000D01*
X-481000Y-60678D02*
X-464000D01*
X224000Y42322D02*
Y51822D01*
X241000Y42322D02*
Y51822D01*
X224000Y42322D02*
X241000D01*
X224000Y51822D02*
X241000D01*
X224000Y27322D02*
Y36822D01*
X241000Y27322D02*
Y36822D01*
X224000Y27322D02*
X241000D01*
X224000Y36822D02*
X241000D01*
X224000Y57322D02*
Y66822D01*
X241000Y57322D02*
Y66822D01*
X224000Y57322D02*
X241000D01*
X224000Y66822D02*
X241000D01*
X224000Y72322D02*
Y81822D01*
X241000Y72322D02*
Y81822D01*
X224000Y72322D02*
X241000D01*
X224000Y81822D02*
X241000D01*
X-500050Y-67428D02*
X-490550D01*
X-500050Y-50428D02*
X-490550D01*
X-500050Y-67428D02*
Y-50428D01*
X-490550Y-67428D02*
Y-50428D01*
X-524750Y-39178D02*
X-515250D01*
X-524750Y-21678D02*
X-515250D01*
X-524750Y-39178D02*
Y-21678D01*
X-515250Y-39178D02*
Y-21678D01*
X-449154Y208762D02*
X-449154Y199262D01*
X-431654D02*
Y208762D01*
X-449154D02*
X-431654D01*
X-449154Y199262D02*
X-431654D01*
X-401654Y208762D02*
X-401654Y199262D01*
X-419154D02*
Y208762D01*
Y199262D02*
X-401654D01*
X-419154Y208762D02*
X-401654D01*
X-489750Y-229178D02*
Y-211678D01*
X-480250Y-229178D02*
Y-211678D01*
X-489750D02*
X-480250D01*
X-489750Y-229178D02*
X-480250D01*
X-94750Y-149178D02*
Y-131678D01*
Y-149178D02*
X-85250D01*
X-94750Y-131678D02*
X-85250D01*
Y-149178D02*
Y-131678D01*
X192750Y241250D02*
X202250D01*
X192750Y223750D02*
X202250D01*
Y241250D01*
X192750Y223750D02*
Y241250D01*
X-74750Y-149178D02*
Y-131678D01*
Y-149178D02*
X-65250D01*
X-74750Y-131678D02*
X-65250D01*
Y-149178D02*
Y-131678D01*
X208750Y-309750D02*
Y-300250D01*
X191250Y-309750D02*
Y-300250D01*
Y-309750D02*
X208750D01*
X191250Y-300250D02*
X208750D01*
X-364200Y5572D02*
X-356000Y13772D01*
X-364200Y33572D02*
X-356000Y25372D01*
X-384000D02*
X-375800Y33572D01*
X-384000Y13772D02*
X-375800Y5572D01*
Y33572D02*
X-364200D01*
X-375800Y5572D02*
X-364200D01*
X-384000Y13772D02*
Y25372D01*
X-356000Y13772D02*
Y25372D01*
X-438554Y236112D02*
X-429054D01*
X-438554Y219112D02*
X-429054D01*
Y236112D01*
X-438554D02*
X-438554Y219112D01*
X184000Y150250D02*
Y159750D01*
X201000Y150250D02*
Y159750D01*
X184000D02*
X201000D01*
X184000Y150250D02*
X201000D01*
X175250Y103072D02*
X184750D01*
Y86072D02*
Y103072D01*
X175250Y86072D02*
Y103072D01*
Y86072D02*
X184750D01*
X-469750Y18322D02*
X-460250D01*
X-469750Y822D02*
X-460250D01*
Y18322D01*
X-469750Y822D02*
Y18322D01*
X-499750Y-38928D02*
X-490250D01*
X-499750Y-21928D02*
X-490250D01*
X-499750Y-38928D02*
Y-21928D01*
X-490250Y-38928D02*
Y-21928D01*
X-434000Y-70178D02*
Y-60678D01*
X-451000Y-70178D02*
Y-60678D01*
Y-70178D02*
X-434000D01*
X-451000Y-60678D02*
X-434000D01*
X-90500Y-121678D02*
X-69500D01*
X-90500D02*
Y-109178D01*
X-69500D01*
Y-121678D02*
Y-109178D01*
X-520000Y41322D02*
Y57822D01*
Y41322D02*
X-490000D01*
X-520000Y57822D02*
X-490000D01*
Y41322D02*
Y57822D01*
X-249750Y63500D02*
X-240250D01*
Y46500D02*
Y63500D01*
X-249750Y46500D02*
Y63500D01*
Y46500D02*
X-240250D01*
X-469000Y58772D02*
X-460800Y50572D01*
X-449200D01*
X-469000Y58772D02*
Y70372D01*
X-460800Y78572D01*
X-449200Y50572D02*
X-441000Y58772D01*
Y70372D01*
X-460800Y78572D02*
X-449200D01*
X-441000Y70372D01*
X-385500Y-45928D02*
Y-14928D01*
Y-45928D02*
X-354500D01*
X-385500Y-14928D02*
X-354500D01*
Y-45928D02*
Y-14928D01*
X-415500Y54072D02*
Y75072D01*
Y54072D02*
X-394500D01*
X-415500Y75072D02*
X-394500D01*
Y54072D02*
Y75072D01*
X-465000Y-235428D02*
Y-205428D01*
Y-235428D02*
X-435000D01*
X-465000Y-205428D02*
X-435000D01*
Y-235428D02*
Y-205428D01*
X-382956Y48654D02*
Y66154D01*
Y48654D02*
X-373456D01*
X-382956Y66154D02*
X-373456D01*
Y48654D02*
Y66154D01*
X151000Y-310000D02*
Y-300000D01*
X169000Y-310000D02*
Y-300000D01*
X151000D02*
X169000D01*
X151000Y-310000D02*
X169000D01*
X428500Y-162428D02*
Y-108428D01*
Y-162428D02*
X501500D01*
X428500Y-108428D02*
X501500D01*
Y-162428D02*
Y-108428D01*
X-155500Y154072D02*
Y185072D01*
Y154072D02*
X-124500D01*
X-155500Y185072D02*
X-124500D01*
Y154072D02*
Y185072D01*
X-151440Y-83876D02*
Y36124D01*
Y-83876D02*
X-31440D01*
X-151440Y36124D02*
X-31440D01*
Y-83876D02*
Y36124D01*
X-475000Y-45428D02*
Y-15428D01*
Y-45428D02*
X-445000D01*
X-475000Y-15428D02*
X-445000D01*
Y-45428D02*
Y-15428D01*
X-433176Y247762D02*
X-418176D01*
X-433176D02*
Y258262D01*
X-418176D01*
Y247762D02*
Y258262D01*
X-343264Y-44940D02*
X-325264D01*
X-343264D02*
Y-10940D01*
X-325264Y-44940D02*
Y-10940D01*
X-343264D02*
X-325264D01*
X-438261Y314820D02*
X-435910Y305100D01*
X-441945Y308785D02*
X-432226Y311136D01*
X-245048Y92544D02*
Y103544D01*
X-269048Y92544D02*
Y103544D01*
Y92544D02*
X-245048D01*
X-269048Y103544D02*
X-245048D01*
X-261798Y98044D02*
X-252298D01*
X-257048Y93294D02*
Y102794D01*
X-265500Y43000D02*
X-254500D01*
X-265500Y67000D02*
X-254500D01*
X-265500Y43000D02*
Y67000D01*
X-254500Y43000D02*
Y67000D01*
X-260000Y50250D02*
Y59750D01*
X-264750Y55000D02*
X-255250D01*
X-220000Y47750D02*
Y57250D01*
X-224750Y52500D02*
X-215250D01*
X-232000Y58000D02*
X-208000D01*
X-232000Y47000D02*
X-208000D01*
X-232000D02*
Y58000D01*
X-208000Y47000D02*
Y58000D01*
X-178000Y47000D02*
Y58000D01*
X-202000Y47000D02*
Y58000D01*
Y47000D02*
X-178000D01*
X-202000Y58000D02*
X-178000D01*
X-194750Y52500D02*
X-185250D01*
X-190000Y47750D02*
Y57250D01*
X-198000Y4072D02*
Y15072D01*
X-222000Y4072D02*
Y15072D01*
Y4072D02*
X-198000D01*
X-222000Y15072D02*
X-198000D01*
X-214750Y9572D02*
X-205250D01*
X-210000Y4822D02*
Y14322D01*
X-198000Y19500D02*
Y30500D01*
X-222000Y19500D02*
Y30500D01*
Y19500D02*
X-198000D01*
X-222000Y30500D02*
X-198000D01*
X-214750Y25000D02*
X-205250D01*
X-210000Y20250D02*
Y29750D01*
X-159750Y59572D02*
X-150250D01*
X-155000Y54822D02*
Y64322D01*
X-160500Y47572D02*
Y71572D01*
X-149500Y47572D02*
Y71572D01*
X-160500Y47572D02*
X-149500D01*
X-160500Y71572D02*
X-149500D01*
X-90500Y86572D02*
X-79500D01*
X-90500Y62572D02*
X-79500D01*
Y86572D01*
X-90500Y62572D02*
Y86572D01*
X-85000Y69822D02*
Y79322D01*
X-89750Y74572D02*
X-80250D01*
X-111164Y-137476D02*
X-100164D01*
X-111164Y-113476D02*
X-100164D01*
X-111164Y-137476D02*
Y-113476D01*
X-100164Y-137476D02*
Y-113476D01*
X-105664Y-130226D02*
Y-120726D01*
X-110414Y-125476D02*
X-100914D01*
X-29884Y-107380D02*
X-18884D01*
X-29884Y-131380D02*
X-18884D01*
Y-107380D01*
X-29884Y-131380D02*
Y-107380D01*
X-24384Y-124130D02*
Y-114630D01*
X-29134Y-119380D02*
X-19634D01*
X-46140Y-131380D02*
X-35140D01*
X-46140Y-107380D02*
X-35140D01*
X-46140Y-131380D02*
Y-107380D01*
X-35140Y-131380D02*
Y-107380D01*
X-40640Y-124130D02*
Y-114630D01*
X-45390Y-119380D02*
X-35890D01*
X157288Y-130976D02*
Y-119976D01*
X133288Y-130976D02*
Y-119976D01*
Y-130976D02*
X157288D01*
X133288Y-119976D02*
X157288D01*
X140538Y-125476D02*
X150038D01*
X145288Y-130226D02*
Y-120726D01*
X152208Y-115736D02*
Y-104736D01*
X128208Y-115736D02*
Y-104736D01*
Y-115736D02*
X152208D01*
X128208Y-104736D02*
X152208D01*
X135458Y-110236D02*
X144958D01*
X140208Y-114986D02*
Y-105486D01*
X132272Y-60872D02*
Y-49872D01*
X156272Y-60872D02*
Y-49872D01*
X132272D02*
X156272D01*
X132272Y-60872D02*
X156272D01*
X139522Y-55372D02*
X149022D01*
X144272Y-60122D02*
Y-50622D01*
X132272Y-44616D02*
Y-33616D01*
X156272Y-44616D02*
Y-33616D01*
X132272D02*
X156272D01*
X132272Y-44616D02*
X156272D01*
X139522Y-39116D02*
X149022D01*
X144272Y-43866D02*
Y-34366D01*
X449128Y-211240D02*
Y-200240D01*
X473128Y-211240D02*
Y-200240D01*
X449128D02*
X473128D01*
X449128Y-211240D02*
X473128D01*
X456378Y-205740D02*
X465878D01*
X461128Y-210490D02*
Y-200990D01*
X509840Y129120D02*
Y140120D01*
X485840Y129120D02*
Y140120D01*
Y129120D02*
X509840D01*
X485840Y140120D02*
X509840D01*
X493090Y134620D02*
X502590D01*
X497840Y129870D02*
Y139370D01*
X-90500Y166572D02*
X-79500D01*
X-90500Y142572D02*
X-79500D01*
Y166572D01*
X-90500Y142572D02*
Y166572D01*
X-85000Y149822D02*
Y159322D01*
X-89750Y154572D02*
X-80250D01*
X-90500Y172572D02*
X-79500D01*
X-90500Y196572D02*
X-79500D01*
X-90500Y172572D02*
Y196572D01*
X-79500Y172572D02*
Y196572D01*
X-85000Y179822D02*
Y189322D01*
X-89750Y184572D02*
X-80250D01*
X-200500Y172572D02*
X-189500D01*
X-200500Y196572D02*
X-189500D01*
X-200500Y172572D02*
Y196572D01*
X-189500Y172572D02*
Y196572D01*
X-195000Y179822D02*
Y189322D01*
X-199750Y184572D02*
X-190250D01*
X-200500Y166572D02*
X-189500D01*
X-200500Y142572D02*
X-189500D01*
Y166572D01*
X-200500Y142572D02*
Y166572D01*
X-195000Y149822D02*
Y159322D01*
X-199750Y154572D02*
X-190250D01*
X-228600Y162132D02*
Y172132D01*
X-233600Y167132D02*
X-223600D01*
X-255436Y154116D02*
X-244436D01*
X-255436Y178116D02*
X-244436D01*
X-255436Y154116D02*
Y178116D01*
X-244436Y154116D02*
Y178116D01*
X-249936Y161366D02*
Y170866D01*
X-254686Y166116D02*
X-245186D01*
X-210500Y314500D02*
Y325500D01*
X-234500Y314500D02*
Y325500D01*
Y314500D02*
X-210500D01*
X-234500Y325500D02*
X-210500D01*
X-227250Y320000D02*
X-217750D01*
X-222500Y315250D02*
Y324750D01*
X-377276Y249608D02*
Y260608D01*
X-401276Y249608D02*
Y260608D01*
Y249608D02*
X-377276D01*
X-401276Y260608D02*
X-377276D01*
X-394026Y255108D02*
X-384526D01*
X-389276Y250358D02*
Y259858D01*
X-422032Y239612D02*
X-411032D01*
X-422032Y215612D02*
X-411032D01*
Y239612D01*
X-422032Y215612D02*
Y239612D01*
X-416532Y222862D02*
Y232362D01*
X-421282Y227612D02*
X-411782D01*
X-512000Y79072D02*
Y90072D01*
X-488000Y79072D02*
Y90072D01*
X-512000D02*
X-488000D01*
X-512000Y79072D02*
X-488000D01*
X-504750Y84572D02*
X-495250D01*
X-500000Y79822D02*
Y89322D01*
X-393000Y34072D02*
Y45072D01*
X-417000Y34072D02*
Y45072D01*
Y34072D02*
X-393000D01*
X-417000Y45072D02*
X-393000D01*
X-409750Y39572D02*
X-400250D01*
X-405000Y34822D02*
Y44322D01*
X-411400Y-25908D02*
X-401400D01*
X-406400Y-30908D02*
Y-20908D01*
X-415900Y-45908D02*
Y-5908D01*
X-396900Y-45908D02*
Y-5908D01*
X-415900Y-45908D02*
X-396900D01*
X-415900Y-5908D02*
X-396900D01*
X-436284Y-29780D02*
X-425284D01*
X-436284Y-5780D02*
X-425284D01*
X-436284Y-29780D02*
Y-5780D01*
X-425284Y-29780D02*
Y-5780D01*
X-430784Y-22530D02*
Y-13030D01*
X-435534Y-17780D02*
X-426034D01*
X-522644Y-117156D02*
X-511644D01*
X-522644Y-93156D02*
X-511644D01*
X-522644Y-117156D02*
Y-93156D01*
X-511644Y-117156D02*
Y-93156D01*
X-517144Y-109906D02*
Y-100406D01*
X-521894Y-105156D02*
X-512394D01*
X-415500Y-93428D02*
X-404500D01*
X-415500Y-117428D02*
X-404500D01*
Y-93428D01*
X-415500Y-117428D02*
Y-93428D01*
X-410000Y-110178D02*
Y-100678D01*
X-414750Y-105428D02*
X-405250D01*
X-455500Y-93428D02*
X-444500D01*
X-455500Y-117428D02*
X-444500D01*
Y-93428D01*
X-455500Y-117428D02*
Y-93428D01*
X-450000Y-110178D02*
Y-100678D01*
X-454750Y-105428D02*
X-445250D01*
X-495500Y-93428D02*
X-484500D01*
X-495500Y-117428D02*
X-484500D01*
Y-93428D01*
X-495500Y-117428D02*
Y-93428D01*
X-490000Y-110178D02*
Y-100678D01*
X-494750Y-105428D02*
X-485250D01*
X-460500Y-70928D02*
Y-59928D01*
X-484500Y-70928D02*
Y-59928D01*
Y-70928D02*
X-460500D01*
X-484500Y-59928D02*
X-460500D01*
X-477250Y-65428D02*
X-467750D01*
X-472500Y-70178D02*
Y-60678D01*
X220500Y41572D02*
Y52572D01*
X244500Y41572D02*
Y52572D01*
X220500Y41572D02*
X244500D01*
X220500Y52572D02*
X244500D01*
X227750Y47072D02*
X237250D01*
X232500Y42322D02*
Y51822D01*
X220500Y26572D02*
Y37572D01*
X244500Y26572D02*
Y37572D01*
X220500Y26572D02*
X244500D01*
X220500Y37572D02*
X244500D01*
X227750Y32072D02*
X237250D01*
X232500Y27322D02*
Y36822D01*
X220500Y56572D02*
Y67572D01*
X244500Y56572D02*
Y67572D01*
X220500Y56572D02*
X244500D01*
X220500Y67572D02*
X244500D01*
X227750Y62072D02*
X237250D01*
X232500Y57322D02*
Y66822D01*
X220500Y71572D02*
Y82572D01*
X244500Y71572D02*
Y82572D01*
X220500Y71572D02*
X244500D01*
X220500Y82572D02*
X244500D01*
X227750Y77072D02*
X237250D01*
X232500Y72322D02*
Y81822D01*
X-500800Y-70928D02*
X-489800D01*
X-500800Y-46928D02*
X-489800D01*
X-500800Y-70928D02*
Y-46928D01*
X-489800Y-70928D02*
Y-46928D01*
X-495300Y-63678D02*
Y-54178D01*
X-500050Y-58928D02*
X-490550D01*
X-525500Y-42428D02*
X-514500D01*
X-525500Y-18428D02*
X-514500D01*
X-525500Y-42428D02*
Y-18428D01*
X-514500Y-42428D02*
Y-18428D01*
X-520000Y-35178D02*
Y-25678D01*
X-524750Y-30428D02*
X-515250D01*
X-452404Y198512D02*
Y209512D01*
X-428404Y198512D02*
Y209512D01*
X-452404D02*
X-428404D01*
X-452404Y198512D02*
X-428404D01*
X-445154Y204012D02*
X-435654D01*
X-440404Y199262D02*
Y208762D01*
X-398404Y198512D02*
Y209512D01*
X-422404Y198512D02*
Y209512D01*
Y198512D02*
X-398404D01*
X-422404Y209512D02*
X-398404D01*
X-415154Y204012D02*
X-405654D01*
X-410404Y199262D02*
Y208762D01*
X-490500Y-208428D02*
X-479500D01*
X-490500Y-232428D02*
Y-208428D01*
X-479500Y-232428D02*
Y-208428D01*
X-490500Y-232428D02*
X-479500D01*
X-485000Y-225178D02*
Y-215678D01*
X-489750Y-220428D02*
X-480250D01*
X-95500Y-152428D02*
Y-128428D01*
Y-152428D02*
X-84500D01*
X-94750Y-140428D02*
X-85250D01*
X-95500Y-128428D02*
X-84500D01*
Y-152428D02*
Y-128428D01*
X-90000Y-145178D02*
Y-135678D01*
X192000Y244500D02*
X203000D01*
X192000Y220500D02*
X203000D01*
Y244500D01*
X192000Y220500D02*
Y244500D01*
X197500Y227750D02*
Y237250D01*
X192750Y232500D02*
X202250D01*
X-75500Y-152428D02*
Y-128428D01*
Y-152428D02*
X-64500D01*
X-74750Y-140428D02*
X-65250D01*
X-75500Y-128428D02*
X-64500D01*
Y-152428D02*
Y-128428D01*
X-70000Y-145178D02*
Y-135678D01*
X212000Y-310500D02*
Y-299500D01*
X188000Y-310500D02*
Y-299500D01*
Y-310500D02*
X212000D01*
X188000Y-299500D02*
X212000D01*
X195250Y-305000D02*
X204750D01*
X200000Y-309750D02*
Y-300250D01*
X-370000Y14572D02*
Y24572D01*
X-366190Y19572D02*
X-365682D01*
X-375000D02*
X-365000D01*
X-439304Y239612D02*
X-428304D01*
X-439304Y215612D02*
X-428304D01*
Y239612D01*
X-439304Y215612D02*
Y239612D01*
X-433804Y222862D02*
Y232362D01*
X-438554Y227612D02*
X-429054D01*
X180500Y149500D02*
Y160500D01*
X204500Y149500D02*
Y160500D01*
X180500D02*
X204500D01*
X180500Y149500D02*
X204500D01*
X187750Y155000D02*
X197250D01*
X192500Y150250D02*
Y159750D01*
X180000Y89822D02*
Y99322D01*
X185500Y82572D02*
Y106572D01*
X174500D02*
X185500D01*
X175250Y94572D02*
X184750D01*
X174500Y82572D02*
X185500D01*
X174500D02*
Y106572D01*
X-470500Y21572D02*
X-459500D01*
X-470500Y-2428D02*
X-459500D01*
Y21572D01*
X-470500Y-2428D02*
Y21572D01*
X-465000Y4822D02*
Y14322D01*
X-469750Y9572D02*
X-460250D01*
X-500500Y-42428D02*
X-489500D01*
X-500500Y-18428D02*
X-489500D01*
X-500500Y-42428D02*
Y-18428D01*
X-489500Y-42428D02*
Y-18428D01*
X-495000Y-35178D02*
Y-25678D01*
X-499750Y-30428D02*
X-490250D01*
X-430500Y-70928D02*
Y-59928D01*
X-454500Y-70928D02*
Y-59928D01*
Y-70928D02*
X-430500D01*
X-454500Y-59928D02*
X-430500D01*
X-447250Y-65428D02*
X-437750D01*
X-442500Y-70178D02*
Y-60678D01*
X-80000Y-120428D02*
Y-110428D01*
X-85000Y-115428D02*
X-75000D01*
X-505000Y44572D02*
Y54572D01*
X-510000Y49572D02*
X-500000D01*
X-239500Y43000D02*
Y67000D01*
X-250500D02*
X-239500D01*
X-249750Y55000D02*
X-240250D01*
X-250500Y43000D02*
X-239500D01*
X-250500D02*
Y67000D01*
X-245000Y50250D02*
Y59750D01*
X-455000Y68382D02*
Y68890D01*
Y59572D02*
Y69572D01*
X-460000Y64572D02*
X-450000D01*
X-405000Y59572D02*
Y69572D01*
X-410000Y64572D02*
X-400000D01*
X-450000Y-225428D02*
Y-215428D01*
X-455000Y-220428D02*
X-445000D01*
X-383706Y45404D02*
Y69404D01*
Y45404D02*
X-372706D01*
X-382956Y57404D02*
X-373456D01*
X-383706Y69404D02*
X-372706D01*
Y45404D02*
Y69404D01*
X-378206Y52654D02*
Y62154D01*
X144250Y-297500D02*
X175750D01*
X144250Y-312500D02*
Y-297500D01*
X160000Y-310000D02*
Y-300000D01*
X175750Y-312500D02*
Y-297500D01*
X144250Y-312500D02*
X175750D01*
X155000Y-305000D02*
X165000D01*
X465000Y-140428D02*
Y-130428D01*
X460000Y-135428D02*
X470000D01*
X-145000Y169572D02*
X-135000D01*
X-140000Y164572D02*
Y174572D01*
X-96440Y-23876D02*
X-86440D01*
X-91440Y-28876D02*
Y-18876D01*
X-465000Y-30428D02*
X-455000D01*
X-460000Y-35428D02*
Y-25428D01*
X-425676Y248012D02*
Y258012D01*
X-430676Y253012D02*
X-420676D01*
X-343764Y-47940D02*
Y-7940D01*
Y-47940D02*
X-324764D01*
X-343764Y-7940D02*
X-324764D01*
X-334264Y-32940D02*
Y-22940D01*
X-324764Y-47940D02*
Y-7940D01*
X-339264Y-27940D02*
X-329264D01*
D54*
X-495088Y305179D02*
X-492736Y295460D01*
X-493819Y340336D02*
X-400511Y362910D01*
X-383312Y332221D02*
X-380961Y322501D01*
X-235900Y158632D02*
X-221300D01*
X-235900Y175632D02*
X-221300D01*
Y158632D02*
Y175632D01*
X-235900Y158632D02*
Y175632D01*
X-388000Y3572D02*
X-352000D01*
Y35572D01*
X-388000D02*
X-352000D01*
X-388000Y3572D02*
Y35572D01*
X-97500Y-124928D02*
Y-105928D01*
Y-124928D02*
X-62500D01*
X-97500Y-105928D02*
X-62500D01*
Y-124928D02*
Y-105928D01*
X-522500Y30322D02*
Y68822D01*
Y30322D02*
X-487500D01*
X-522500Y68822D02*
X-487500D01*
Y30322D02*
Y68822D01*
X-471000Y46572D02*
Y82572D01*
Y46572D02*
X-439000D01*
X-471000Y82572D02*
X-439000D01*
Y46572D02*
Y82572D01*
X-390000Y-50428D02*
Y-10428D01*
Y-50428D02*
X-350000D01*
X-390000Y-10428D02*
X-350000D01*
Y-50428D02*
Y-10428D01*
X-420000Y53072D02*
Y76072D01*
Y53072D02*
X-390000D01*
X-420000Y76072D02*
X-390000D01*
Y53072D02*
Y76072D01*
X-467500Y-241278D02*
Y-199578D01*
Y-241278D02*
X-432500D01*
X-467500Y-199578D02*
X-432500D01*
Y-241278D02*
Y-199578D01*
X423000Y-186428D02*
Y-84428D01*
Y-186428D02*
X507000D01*
X423000Y-84428D02*
X507000D01*
Y-186428D02*
Y-84428D01*
X-171500Y151572D02*
Y187572D01*
Y151572D02*
X-108500D01*
X-171500Y187572D02*
X-108500D01*
Y151572D02*
Y187572D01*
X-168440Y-100876D02*
Y53124D01*
Y-100876D02*
X-14440D01*
X-168440Y53124D02*
X-14440D01*
Y-100876D02*
Y53124D01*
X-476500Y-48928D02*
Y-11928D01*
Y-48928D02*
X-443500D01*
X-476500Y-11928D02*
X-443500D01*
Y-48928D02*
Y-11928D01*
X-434176Y245712D02*
Y260312D01*
Y245712D02*
X-417176D01*
X-434176Y260312D02*
X-417176D01*
Y245712D02*
Y260312D01*
D55*
X-371094Y86614D02*
D03*
X-255000Y-250000D02*
D03*
X-289600Y-25428D02*
D03*
D56*
X-345694Y86614D02*
D03*
X-550000Y-43128D02*
D03*
X-331200Y-250000D02*
D03*
X-305800D02*
D03*
X-280400D02*
D03*
X542500Y112900D02*
D03*
X-264200Y-25428D02*
D03*
D57*
X-550000Y114972D02*
D03*
D58*
Y64172D02*
D03*
D59*
Y-17728D02*
D03*
X542500Y87500D02*
D03*
D60*
X-154305Y-240030D02*
D03*
X-128905D02*
D03*
X-103505D02*
D03*
X175895Y39370D02*
D03*
Y13970D02*
D03*
Y-11430D02*
D03*
X150495D02*
D03*
Y13970D02*
D03*
Y39370D02*
D03*
X-1905Y240030D02*
D03*
X-52705Y-240030D02*
D03*
X150495Y240030D02*
D03*
X125095Y-240030D02*
D03*
Y240030D02*
D03*
X99695Y-240030D02*
D03*
Y240030D02*
D03*
X74295Y-240030D02*
D03*
Y240030D02*
D03*
X48895Y-240030D02*
D03*
Y240030D02*
D03*
X23495Y-240030D02*
D03*
Y240030D02*
D03*
X-27305Y-240030D02*
D03*
Y240030D02*
D03*
X-78105Y-240030D02*
D03*
X-67945Y240030D02*
D03*
X-93345D02*
D03*
X-118745D02*
D03*
D61*
X150495Y-240030D02*
D03*
D62*
X235000Y-280000D02*
D03*
X215000D02*
D03*
X255000D02*
D03*
X275000D02*
D03*
X235000Y-60000D02*
D03*
X215000D02*
D03*
X295000Y-280000D02*
D03*
X255000Y-60000D02*
D03*
X275000D02*
D03*
X335000Y-280000D02*
D03*
X315000D02*
D03*
X395000D02*
D03*
X355000D02*
D03*
X375000D02*
D03*
X335000Y-60000D02*
D03*
X295000D02*
D03*
X315000D02*
D03*
X395000D02*
D03*
X355000D02*
D03*
X375000D02*
D03*
D63*
X540000Y-160000D02*
D03*
Y160000D02*
D03*
X-540000Y-160000D02*
D03*
Y160000D02*
D03*
M02*
