%FSLAX44Y44*%
%MOMM*%
G71*
G01*
G75*
G04 Layer_Physical_Order=2*
G04 Layer_Color=16711680*
%ADD10C,0.7620*%
G04:AMPARAMS|DCode=11|XSize=2mm|YSize=1.75mm|CornerRadius=0mm|HoleSize=0mm|Usage=FLASHONLY|Rotation=279.640|XOffset=0mm|YOffset=0mm|HoleType=Round|Shape=Rectangle|*
%AMROTATEDRECTD11*
4,1,4,-1.0301,0.8394,0.6952,1.1324,1.0301,-0.8394,-0.6952,-1.1324,-1.0301,0.8394,0.0*
%
%ADD11ROTATEDRECTD11*%

%ADD12R,2.3000X2.3000*%
%ADD13R,0.8000X0.9000*%
%ADD14O,1.7500X0.3000*%
%ADD15R,0.7000X0.9000*%
%ADD16R,0.9000X0.7000*%
%ADD17R,0.9000X0.8000*%
%ADD18R,0.4900X0.3000*%
%ADD19R,0.5200X0.3000*%
%ADD20R,1.7000X1.1000*%
%ADD21C,0.4000*%
%ADD22R,1.0000X1.0000*%
%ADD23R,0.7000X1.4000*%
%ADD24R,0.5500X0.9500*%
%ADD25O,0.2800X0.8500*%
%ADD26R,2.4000X1.6500*%
%ADD27R,0.7000X0.3000*%
%ADD28R,1.0000X1.6000*%
%ADD29R,0.4500X0.8500*%
%ADD30R,2.4000X1.5000*%
%ADD31R,0.8500X0.7000*%
%ADD32O,0.7000X2.0000*%
%ADD33O,1.3500X0.4500*%
%ADD34R,2.0000X0.4000*%
G04:AMPARAMS|DCode=35|XSize=1.524mm|YSize=2.8448mm|CornerRadius=0mm|HoleSize=0mm|Usage=FLASHONLY|Rotation=82.000|XOffset=0mm|YOffset=0mm|HoleType=Round|Shape=Rectangle|*
%AMROTATEDRECTD35*
4,1,4,1.3025,-0.9525,-1.5146,-0.5566,-1.3025,0.9525,1.5146,0.5566,1.3025,-0.9525,0.0*
%
%ADD35ROTATEDRECTD35*%

G04:AMPARAMS|DCode=36|XSize=1.524mm|YSize=2.8448mm|CornerRadius=0mm|HoleSize=0mm|Usage=FLASHONLY|Rotation=352.000|XOffset=0mm|YOffset=0mm|HoleType=Round|Shape=Rectangle|*
%AMROTATEDRECTD36*
4,1,4,-0.9525,-1.3025,-0.5566,1.5146,0.9525,1.3025,0.5566,-1.5146,-0.9525,-1.3025,0.0*
%
%ADD36ROTATEDRECTD36*%

%ADD37O,0.3000X1.7500*%
%ADD38R,0.2500X0.7000*%
%ADD39R,2.3800X1.6500*%
%ADD40R,0.3000X0.4900*%
%ADD41R,0.3000X0.5200*%
%ADD42C,0.1905*%
%ADD43C,0.4064*%
%ADD44C,0.5080*%
%ADD45C,0.2540*%
%ADD46C,0.3048*%
%ADD47C,0.2032*%
%ADD48C,0.6096*%
%ADD49C,1.0160*%
%ADD50C,0.3556*%
%ADD51C,1.2700*%
%ADD52R,0.7000X0.2800*%
%ADD53R,1.5000X1.5000*%
%ADD54C,1.5000*%
%ADD55C,1.8500*%
%ADD56R,1.8500X1.8500*%
%ADD57R,1.5000X1.5000*%
%ADD58C,1.2700*%
%ADD59R,1.2700X1.2700*%
%ADD60C,1.5240*%
%ADD61C,2.9000*%
%ADD62C,0.6350*%
%ADD63C,0.9000*%
%ADD64C,0.7000*%
%ADD65C,0.5000*%
%ADD66C,0.6350*%
G04:AMPARAMS|DCode=67|XSize=0.65mm|YSize=1.35mm|CornerRadius=0mm|HoleSize=0mm|Usage=FLASHONLY|Rotation=13.600|XOffset=0mm|YOffset=0mm|HoleType=Round|Shape=Rectangle|*
%AMROTATEDRECTD67*
4,1,4,-0.1572,-0.7325,-0.4746,0.5797,0.1572,0.7325,0.4746,-0.5797,-0.1572,-0.7325,0.0*
%
%ADD67ROTATEDRECTD67*%

G04:AMPARAMS|DCode=68|XSize=0.4mm|YSize=1.35mm|CornerRadius=0mm|HoleSize=0mm|Usage=FLASHONLY|Rotation=13.600|XOffset=0mm|YOffset=0mm|HoleType=Round|Shape=Rectangle|*
%AMROTATEDRECTD68*
4,1,4,-0.0357,-0.7031,-0.3531,0.6090,0.0357,0.7031,0.3531,-0.6090,-0.0357,-0.7031,0.0*
%
%ADD68ROTATEDRECTD68*%

G04:AMPARAMS|DCode=69|XSize=0.825mm|YSize=1.15mm|CornerRadius=0mm|HoleSize=0mm|Usage=FLASHONLY|Rotation=13.600|XOffset=0mm|YOffset=0mm|HoleType=Round|Shape=Rectangle|*
%AMROTATEDRECTD69*
4,1,4,-0.2657,-0.6559,-0.5361,0.4619,0.2657,0.6559,0.5361,-0.4619,-0.2657,-0.6559,0.0*
%
%ADD69ROTATEDRECTD69*%

G04:AMPARAMS|DCode=70|XSize=0.775mm|YSize=1.15mm|CornerRadius=0mm|HoleSize=0mm|Usage=FLASHONLY|Rotation=13.600|XOffset=0mm|YOffset=0mm|HoleType=Round|Shape=Rectangle|*
%AMROTATEDRECTD70*
4,1,4,-0.2414,-0.6500,-0.5118,0.4678,0.2414,0.6500,0.5118,-0.4678,-0.2414,-0.6500,0.0*
%
%ADD70ROTATEDRECTD70*%

G04:AMPARAMS|DCode=71|XSize=1.2mm|YSize=1.55mm|CornerRadius=0mm|HoleSize=0mm|Usage=FLASHONLY|Rotation=13.600|XOffset=0mm|YOffset=0mm|HoleType=Round|Shape=Rectangle|*
%AMROTATEDRECTD71*
4,1,4,-0.4009,-0.8943,-0.7654,0.6122,0.4009,0.8943,0.7654,-0.6122,-0.4009,-0.8943,0.0*
%
%ADD71ROTATEDRECTD71*%

G04:AMPARAMS|DCode=72|XSize=2.51mm|YSize=1mm|CornerRadius=0mm|HoleSize=0mm|Usage=FLASHONLY|Rotation=13.600|XOffset=0mm|YOffset=0mm|HoleType=Round|Shape=Rectangle|*
%AMROTATEDRECTD72*
4,1,4,-1.1022,-0.7811,-1.3374,0.1909,1.1022,0.7811,1.3374,-0.1909,-1.1022,-0.7811,0.0*
%
%ADD72ROTATEDRECTD72*%

G04:AMPARAMS|DCode=73|XSize=1.2mm|YSize=2.1mm|CornerRadius=0mm|HoleSize=0mm|Usage=FLASHONLY|Rotation=13.600|XOffset=0mm|YOffset=0mm|HoleType=Round|Shape=Rectangle|*
%AMROTATEDRECTD73*
4,1,4,-0.3363,-1.1617,-0.8301,0.8795,0.3363,1.1617,0.8301,-0.8795,-0.3363,-1.1617,0.0*
%
%ADD73ROTATEDRECTD73*%

G36*
X-65257Y344360D02*
X-64443Y343385D01*
X-71106Y295979D01*
X-70991Y293962D01*
X-70113Y292141D01*
X-68605Y290796D01*
X-66697Y290129D01*
X627019Y192634D01*
X630228Y183059D01*
X632872Y171819D01*
X634467Y160384D01*
X635000Y148850D01*
Y-148850D01*
X633393Y-160116D01*
X630769Y-171189D01*
X627148Y-181978D01*
X622561Y-192393D01*
X617046Y-202347D01*
X610649Y-211758D01*
X603422Y-220549D01*
X595426Y-228646D01*
X586726Y-235982D01*
X577395Y-242497D01*
X567510Y-248136D01*
X557154Y-252853D01*
X513660Y-265091D01*
X469897Y-276332D01*
X425888Y-286570D01*
X381657Y-295800D01*
X337227Y-304016D01*
X292621Y-311215D01*
X247861Y-317392D01*
X202972Y-322545D01*
X157978Y-326670D01*
X112900Y-329766D01*
X67764Y-331831D01*
X22592Y-332864D01*
X-22592D01*
X-67764Y-331831D01*
X-112900Y-329766D01*
X-157977Y-326670D01*
X-202972Y-322545D01*
X-247861Y-317392D01*
X-292620Y-311215D01*
X-337227Y-304016D01*
X-381657Y-295800D01*
X-425888Y-286570D01*
X-469897Y-276332D01*
X-513660Y-265091D01*
X-557154Y-252853D01*
X-567269Y-249330D01*
X-576987Y-244826D01*
X-586213Y-239385D01*
X-594857Y-233060D01*
X-602835Y-225913D01*
X-610068Y-218013D01*
X-616486Y-209438D01*
X-622027Y-200272D01*
X-626636Y-190603D01*
X-630268Y-180527D01*
X-632888Y-170141D01*
X-634471Y-159548D01*
X-635000Y-148850D01*
Y148850D01*
X-634467Y160384D01*
X-632872Y171819D01*
X-630228Y183059D01*
X-627157Y192221D01*
X-625888Y192270D01*
X-620145Y178740D01*
X-619007Y177069D01*
X-617317Y175961D01*
X-615332Y175584D01*
X-613694Y175925D01*
X-613353Y175996D01*
X-599617Y181826D01*
X-598439Y181351D01*
X-591827Y165773D01*
X-590690Y164103D01*
X-589000Y162995D01*
X-587014Y162618D01*
D01*
X-587014D01*
X-585036Y163029D01*
X-552140Y176993D01*
X-551482Y175906D01*
X-553912Y173912D01*
X-556359Y170931D01*
X-558177Y167529D01*
X-559297Y163838D01*
X-559675Y160000D01*
X-559297Y156162D01*
X-558177Y152471D01*
X-556359Y149069D01*
X-553912Y146088D01*
X-550931Y143641D01*
X-547529Y141823D01*
X-543838Y140703D01*
X-540000Y140325D01*
X-536162Y140703D01*
X-532471Y141823D01*
X-529069Y143641D01*
X-526088Y146088D01*
X-523641Y149069D01*
X-521823Y152471D01*
X-520703Y156162D01*
X-520325Y160000D01*
X-520703Y163838D01*
X-521823Y167529D01*
X-523641Y170931D01*
X-526088Y173912D01*
X-529069Y176359D01*
X-532471Y178177D01*
X-536162Y179297D01*
X-540000Y179675D01*
X-543397Y179340D01*
X-543711Y180571D01*
X-502190Y198195D01*
X-500520Y199333D01*
X-499412Y201023D01*
X-499035Y203008D01*
X-499446Y204987D01*
X-499446Y204987D01*
X-506409Y221391D01*
X-472516Y235777D01*
X-470845Y236915D01*
X-469737Y238605D01*
X-469360Y240590D01*
X-469772Y242569D01*
X-469772Y242569D01*
X-484687Y277707D01*
X-484117Y278842D01*
X-481901Y279378D01*
X-481901D01*
X-480067Y280227D01*
X-479635Y280696D01*
X-479459Y280631D01*
X-477440Y280714D01*
X-471309Y282197D01*
X-469666Y282265D01*
X-468816Y280431D01*
X-467330Y279062D01*
X-465433Y278365D01*
X-463414Y278448D01*
X-454965Y280492D01*
X-453967Y279707D01*
Y257912D01*
Y252402D01*
X-454861Y251716D01*
X-456396Y249715D01*
X-457361Y247385D01*
X-457691Y244884D01*
X-457361Y242383D01*
X-456396Y240053D01*
X-454861Y238051D01*
X-452859Y236516D01*
X-450529Y235550D01*
X-448028Y235221D01*
X-445527Y235550D01*
X-443197Y236516D01*
X-441195Y238051D01*
X-439660Y240053D01*
X-439293Y240938D01*
X-438660Y241572D01*
X-437235Y243429D01*
X-436339Y245591D01*
X-436033Y247912D01*
Y251033D01*
X-432912D01*
X-430591Y251339D01*
X-428429Y252235D01*
X-426572Y253660D01*
X-424077Y256154D01*
X-422678Y256338D01*
X-420516Y257234D01*
X-419167Y258269D01*
X-407388D01*
X-405067Y258575D01*
X-402905Y259471D01*
X-401649Y260434D01*
X-400525Y260900D01*
X-398523Y262435D01*
X-396988Y264437D01*
X-396023Y266767D01*
X-395693Y269268D01*
X-396023Y271769D01*
X-396988Y274099D01*
X-398523Y276101D01*
X-400525Y277636D01*
X-402855Y278601D01*
X-405356Y278931D01*
X-407857Y278601D01*
X-410187Y277636D01*
X-412055Y276203D01*
X-415882D01*
X-416719Y277157D01*
X-416674Y277500D01*
X-416958Y279655D01*
X-417789Y281663D01*
X-419113Y283388D01*
X-420837Y284711D01*
X-422845Y285543D01*
X-424162Y285716D01*
X-424702Y287065D01*
X-424119Y288194D01*
X-418195Y289627D01*
X-418461Y290729D01*
X-418461Y290730D01*
X-420976Y301126D01*
X-423280Y310649D01*
X-423280Y310649D01*
X-423758Y312624D01*
X-430076Y311095D01*
X-430076Y311095D01*
X-430076Y311095D01*
X-436394Y309567D01*
X-436394Y309567D01*
X-436394Y309567D01*
X-450157Y306237D01*
Y306237D01*
X-450157Y306237D01*
X-453516Y305424D01*
X-453914Y305791D01*
X-455812Y306487D01*
X-457831Y306404D01*
X-464656Y304753D01*
X-465740Y305415D01*
X-466898Y310200D01*
X-467248Y310955D01*
X-466695Y312099D01*
X-411727Y325381D01*
X-410713Y324616D01*
X-410680Y323800D01*
X-409311Y318143D01*
X-417009Y316280D01*
X-418843Y315431D01*
X-420212Y313944D01*
X-420909Y312047D01*
X-420875Y311231D01*
X-420876Y311230D01*
X-420826Y310028D01*
X-420826Y310027D01*
Y310027D01*
X-418800Y301652D01*
X-417181Y294962D01*
X-416332Y293128D01*
X-415569Y292425D01*
X-415553Y292357D01*
X-415506Y292368D01*
X-414845Y291759D01*
X-412948Y291063D01*
X-410929Y291146D01*
X-399265Y293967D01*
X-397431Y294817D01*
X-396062Y296303D01*
X-395366Y298200D01*
X-395449Y300220D01*
X-395524Y300532D01*
X-387826Y302394D01*
X-385992Y303243D01*
X-385712Y303547D01*
X-385326Y303405D01*
X-385325D01*
D01*
X-383306Y303488D01*
X-375774Y305310D01*
X-375774D01*
X-373940Y306159D01*
X-372570Y307646D01*
X-371874Y309543D01*
X-371957Y311562D01*
X-374661Y322740D01*
X-375511Y324574D01*
X-376997Y325943D01*
X-378894Y326639D01*
X-380914Y326556D01*
X-387932Y324859D01*
X-388947Y329058D01*
X-389288Y329793D01*
X-388736Y330937D01*
X-383321Y332245D01*
X-356326Y336867D01*
X-355289Y336132D01*
X-350106Y305617D01*
X-351172Y304927D01*
X-352460Y305787D01*
Y300000D01*
X-355000D01*
Y297460D01*
X-360787D01*
X-359979Y296250D01*
X-360787Y295040D01*
X-355000D01*
Y292500D01*
X-352460D01*
Y286713D01*
X-350513Y288013D01*
X-349138Y290072D01*
X-348919Y291171D01*
X-347650Y291153D01*
X-346603Y284990D01*
X-347440Y284348D01*
X-347887Y283838D01*
X-348396Y283392D01*
X-349479Y281980D01*
X-349779Y281373D01*
X-350155Y280809D01*
X-350836Y279166D01*
X-350968Y278501D01*
X-351186Y277860D01*
X-351418Y276096D01*
X-351374Y275420D01*
X-351418Y274744D01*
X-351236Y273365D01*
X-351206Y273274D01*
X-351172Y273015D01*
X-351171Y272981D01*
X-351165Y272968D01*
X-351103Y272490D01*
X-350885Y271849D01*
X-350753Y271184D01*
X-350072Y269541D01*
X-349695Y268977D01*
X-349396Y268370D01*
X-348313Y266959D01*
X-347804Y266512D01*
X-347357Y266002D01*
X-345946Y264919D01*
X-345338Y264620D01*
X-344775Y264243D01*
X-343131Y263563D01*
X-342957Y263528D01*
X-336241Y223986D01*
X-335520Y222098D01*
X-334132Y220629D01*
X-332287Y219804D01*
X-330267Y219747D01*
D01*
X-330267D01*
X-265199Y230799D01*
D01*
X-265199D01*
X-263311Y231520D01*
X-261842Y232908D01*
X-261017Y234753D01*
X-260960Y236773D01*
X-267652Y276170D01*
X-266461Y277083D01*
X-266014Y277593D01*
X-265505Y278040D01*
X-264383Y279502D01*
X-264083Y280109D01*
X-263707Y280673D01*
X-263002Y282376D01*
X-262869Y283040D01*
X-262652Y283682D01*
X-262411Y285509D01*
X-262455Y286185D01*
X-262411Y286861D01*
X-262565Y288034D01*
D01*
Y288034D01*
X-262652Y288689D01*
X-262869Y289330D01*
X-263002Y289995D01*
X-263707Y291697D01*
X-264083Y292261D01*
X-264383Y292868D01*
X-265505Y294331D01*
X-266014Y294777D01*
X-266461Y295287D01*
X-267924Y296409D01*
X-268531Y296708D01*
X-269094Y297085D01*
X-270797Y297790D01*
X-271343Y297899D01*
X-280176Y349904D01*
X-265372Y352438D01*
X-65257Y344360D01*
D02*
G37*
%LPC*%
G36*
X-69596Y-61777D02*
Y-65024D01*
X-66349D01*
X-67649Y-63078D01*
X-69596Y-61777D01*
D02*
G37*
G36*
X-354385Y-61468D02*
X-357632D01*
Y-64715D01*
X-355686Y-63415D01*
X-354385Y-61468D01*
D02*
G37*
G36*
X-362712D02*
X-365959D01*
X-364659Y-63415D01*
X-362712Y-64715D01*
Y-61468D01*
D02*
G37*
G36*
X-48260Y-69088D02*
X-51507D01*
X-50207Y-71035D01*
X-48260Y-72335D01*
Y-69088D01*
D02*
G37*
G36*
X-39933D02*
X-43180D01*
Y-72335D01*
X-41234Y-71035D01*
X-39933Y-69088D01*
D02*
G37*
G36*
X-74676Y-61777D02*
X-76623Y-63078D01*
X-77923Y-65024D01*
X-74676D01*
Y-61777D01*
D02*
G37*
G36*
X-48260Y-60761D02*
X-50207Y-62062D01*
X-51507Y-64008D01*
X-48260D01*
Y-60761D01*
D02*
G37*
G36*
X-552540Y-45668D02*
X-560305D01*
X-560276Y-45882D01*
X-559214Y-48447D01*
X-557523Y-50651D01*
X-555320Y-52342D01*
X-552754Y-53404D01*
X-552540Y-53433D01*
Y-45668D01*
D02*
G37*
G36*
X-539695D02*
X-547460D01*
Y-53433D01*
X-547247Y-53404D01*
X-544680Y-52342D01*
X-542477Y-50651D01*
X-540786Y-48447D01*
X-539724Y-45882D01*
X-539695Y-45668D01*
D02*
G37*
G36*
X-104807Y-4214D02*
X-106962Y-4498D01*
X-108970Y-5330D01*
X-110695Y-6653D01*
X-112018Y-8378D01*
X-112850Y-10386D01*
X-113133Y-12541D01*
X-112850Y-14696D01*
X-112018Y-16704D01*
X-111319Y-17615D01*
Y-21045D01*
X-111023Y-22534D01*
Y-40097D01*
X-118803Y-47878D01*
X-120070Y-47795D01*
X-121112Y-46437D01*
X-122837Y-45113D01*
X-124845Y-44282D01*
X-127000Y-43998D01*
X-127638Y-43439D01*
Y-42207D01*
X-126901Y-41247D01*
X-126069Y-39239D01*
X-125786Y-37084D01*
X-126069Y-34929D01*
X-126901Y-32921D01*
X-128224Y-31196D01*
X-129949Y-29873D01*
X-131957Y-29042D01*
X-134112Y-28758D01*
X-136267Y-29042D01*
X-138275Y-29873D01*
X-140000Y-31196D01*
X-141323Y-32921D01*
X-142155Y-34929D01*
X-142438Y-37084D01*
X-142155Y-39239D01*
X-141323Y-41247D01*
X-140587Y-42207D01*
Y-69962D01*
X-167580Y-96956D01*
X-168779Y-97114D01*
X-170787Y-97945D01*
X-172512Y-99269D01*
X-173835Y-100993D01*
X-174667Y-103001D01*
X-174950Y-105156D01*
X-174667Y-107311D01*
X-173835Y-109319D01*
X-172512Y-111044D01*
X-170787Y-112367D01*
X-168779Y-113199D01*
X-166624Y-113482D01*
X-165795Y-113373D01*
X-165580Y-115004D01*
X-166417Y-115959D01*
X-203075D01*
X-203409Y-115525D01*
X-205133Y-114201D01*
X-207141Y-113370D01*
X-209296Y-113086D01*
X-211451Y-113370D01*
X-213459Y-114201D01*
X-215184Y-115525D01*
X-216507Y-117249D01*
X-217339Y-119257D01*
X-217361Y-119427D01*
X-218534Y-119913D01*
X-219357Y-119281D01*
X-221365Y-118449D01*
X-223520Y-118166D01*
X-225675Y-118449D01*
X-227683Y-119281D01*
X-229408Y-120604D01*
X-230731Y-122329D01*
X-231563Y-124337D01*
X-231846Y-126492D01*
X-231563Y-128647D01*
X-230731Y-130655D01*
X-229408Y-132380D01*
X-227683Y-133703D01*
X-225675Y-134535D01*
X-223520Y-134818D01*
X-221365Y-134535D01*
X-219713Y-133850D01*
X-155924D01*
X-153940Y-133456D01*
X-153545Y-133377D01*
X-151529Y-132030D01*
X-112445Y-92946D01*
X-111098Y-90930D01*
X-110625Y-88551D01*
Y-74819D01*
X-109486Y-74257D01*
X-108811Y-74775D01*
X-106803Y-75607D01*
X-104648Y-75890D01*
X-102493Y-75607D01*
X-100485Y-74775D01*
X-98760Y-73452D01*
X-97437Y-71727D01*
X-96606Y-69719D01*
X-96448Y-68520D01*
X-91942Y-64014D01*
X-90539Y-61914D01*
X-90046Y-59436D01*
Y-57447D01*
X-89309Y-56487D01*
X-88477Y-54479D01*
X-88194Y-52324D01*
X-88477Y-50169D01*
X-89309Y-48161D01*
X-90632Y-46437D01*
X-92357Y-45113D01*
X-93123Y-44796D01*
X-92665Y-42492D01*
Y-23928D01*
X-91670Y-22631D01*
X-90838Y-20623D01*
X-90554Y-18468D01*
X-90838Y-16313D01*
X-91670Y-14305D01*
X-92993Y-12580D01*
X-94717Y-11257D01*
X-96725Y-10425D01*
X-96760Y-10421D01*
X-96765Y-10386D01*
X-97597Y-8378D01*
X-98920Y-6653D01*
X-100644Y-5330D01*
X-102652Y-4498D01*
X-104807Y-4214D01*
D02*
G37*
G36*
X-43180Y-60761D02*
Y-64008D01*
X-39933D01*
X-41234Y-62062D01*
X-43180Y-60761D01*
D02*
G37*
G36*
X-362712Y-53141D02*
X-364659Y-54441D01*
X-365959Y-56388D01*
X-362712D01*
Y-53141D01*
D02*
G37*
G36*
X-357632D02*
Y-56388D01*
X-354385D01*
X-355686Y-54441D01*
X-357632Y-53141D01*
D02*
G37*
G36*
X177500Y-31674D02*
X175345Y-31957D01*
X173337Y-32789D01*
X171612Y-34113D01*
X170289Y-35837D01*
X169457Y-37845D01*
X169174Y-40000D01*
X169457Y-42155D01*
X170289Y-44163D01*
X171612Y-45887D01*
X172886Y-46865D01*
Y-48135D01*
X171612Y-49113D01*
X170289Y-50837D01*
X169457Y-52845D01*
X169174Y-55000D01*
X169457Y-57155D01*
X170289Y-59163D01*
X171612Y-60887D01*
X173337Y-62211D01*
X175345Y-63042D01*
X177500Y-63326D01*
X179655Y-63042D01*
X181663Y-62211D01*
X182623Y-61474D01*
X202384D01*
X202627Y-63315D01*
X203907Y-66405D01*
X205942Y-69058D01*
X208595Y-71093D01*
X211685Y-72373D01*
X215000Y-72810D01*
X218315Y-72373D01*
X221405Y-71093D01*
X224058Y-69058D01*
X224365Y-68657D01*
X225635D01*
X225942Y-69058D01*
X228595Y-71093D01*
X231685Y-72373D01*
X235000Y-72810D01*
X238315Y-72373D01*
X241405Y-71093D01*
X244058Y-69058D01*
X244365Y-68657D01*
X245635D01*
X245942Y-69058D01*
X248595Y-71093D01*
X251685Y-72373D01*
X255000Y-72810D01*
X258315Y-72373D01*
X261405Y-71093D01*
X264058Y-69058D01*
X264365Y-68657D01*
X265635D01*
X265942Y-69058D01*
X268595Y-71093D01*
X271685Y-72373D01*
X275000Y-72810D01*
X278315Y-72373D01*
X281405Y-71093D01*
X284058Y-69058D01*
X284365Y-68657D01*
X285635D01*
X285942Y-69058D01*
X288595Y-71093D01*
X291685Y-72373D01*
X295000Y-72810D01*
X298315Y-72373D01*
X301405Y-71093D01*
X304058Y-69058D01*
X304365Y-68657D01*
X305635D01*
X305942Y-69058D01*
X308595Y-71093D01*
X311685Y-72373D01*
X315000Y-72810D01*
X318315Y-72373D01*
X321405Y-71093D01*
X324058Y-69058D01*
X324365Y-68657D01*
X325635D01*
X325942Y-69058D01*
X328595Y-71093D01*
X331685Y-72373D01*
X335000Y-72810D01*
X338315Y-72373D01*
X341405Y-71093D01*
X344058Y-69058D01*
X344365Y-68657D01*
X345635D01*
X345942Y-69058D01*
X348595Y-71093D01*
X351685Y-72373D01*
X355000Y-72810D01*
X358315Y-72373D01*
X361405Y-71093D01*
X364058Y-69058D01*
X364365Y-68657D01*
X365635D01*
X365942Y-69058D01*
X368595Y-71093D01*
X371685Y-72373D01*
X375000Y-72810D01*
X378315Y-72373D01*
X381405Y-71093D01*
X384058Y-69058D01*
X384365Y-68657D01*
X385635D01*
X385942Y-69058D01*
X388595Y-71093D01*
X391685Y-72373D01*
X395000Y-72810D01*
X398315Y-72373D01*
X401405Y-71093D01*
X404058Y-69058D01*
X406093Y-66405D01*
X407373Y-63315D01*
X407810Y-60000D01*
X407373Y-56685D01*
X406093Y-53595D01*
X404058Y-50942D01*
X401405Y-48907D01*
X398315Y-47627D01*
X395000Y-47190D01*
X391685Y-47627D01*
X388595Y-48907D01*
X385942Y-50942D01*
X385635Y-51343D01*
X384365D01*
X384058Y-50942D01*
X381405Y-48907D01*
X378315Y-47627D01*
X375000Y-47190D01*
X371685Y-47627D01*
X368595Y-48907D01*
X365942Y-50942D01*
X365635Y-51343D01*
X364365D01*
X364058Y-50942D01*
X361405Y-48907D01*
X358315Y-47627D01*
X355000Y-47190D01*
X351685Y-47627D01*
X348595Y-48907D01*
X345942Y-50942D01*
X345635Y-51343D01*
X344365D01*
X344058Y-50942D01*
X341405Y-48907D01*
X338315Y-47627D01*
X335000Y-47190D01*
X331685Y-47627D01*
X328595Y-48907D01*
X325942Y-50942D01*
X325635Y-51343D01*
X324365D01*
X324058Y-50942D01*
X321405Y-48907D01*
X318315Y-47627D01*
X315000Y-47190D01*
X311685Y-47627D01*
X308595Y-48907D01*
X305942Y-50942D01*
X305635Y-51343D01*
X304365D01*
X304058Y-50942D01*
X301405Y-48907D01*
X298315Y-47627D01*
X295000Y-47190D01*
X291685Y-47627D01*
X288595Y-48907D01*
X285942Y-50942D01*
X285635Y-51343D01*
X284365D01*
X284058Y-50942D01*
X281405Y-48907D01*
X278315Y-47627D01*
X275000Y-47190D01*
X271685Y-47627D01*
X268595Y-48907D01*
X265942Y-50942D01*
X265635Y-51343D01*
X264365D01*
X264058Y-50942D01*
X261405Y-48907D01*
X258315Y-47627D01*
X255000Y-47190D01*
X251685Y-47627D01*
X248595Y-48907D01*
X245942Y-50942D01*
X245635Y-51343D01*
X244365D01*
X244058Y-50942D01*
X241405Y-48907D01*
X239789Y-48237D01*
X239578Y-47922D01*
X227078Y-35422D01*
X224978Y-34018D01*
X222500Y-33526D01*
X182623D01*
X181663Y-32789D01*
X179655Y-31957D01*
X177500Y-31674D01*
D02*
G37*
G36*
X-109220Y-138993D02*
X-111167Y-140294D01*
X-112467Y-142240D01*
X-109220D01*
Y-138993D01*
D02*
G37*
G36*
X-104140D02*
Y-142240D01*
X-100893D01*
X-102193Y-140294D01*
X-104140Y-138993D01*
D02*
G37*
G36*
X-15748Y-129032D02*
X-18995D01*
X-17695Y-130979D01*
X-15748Y-132279D01*
Y-129032D01*
D02*
G37*
G36*
X-77724Y-151185D02*
Y-154432D01*
X-74477D01*
X-75778Y-152486D01*
X-77724Y-151185D01*
D02*
G37*
G36*
X-109220Y-147320D02*
X-112467D01*
X-111167Y-149267D01*
X-109220Y-150567D01*
Y-147320D01*
D02*
G37*
G36*
X-100893D02*
X-104140D01*
Y-150567D01*
X-102193Y-149267D01*
X-100893Y-147320D01*
D02*
G37*
G36*
X-7421Y-129032D02*
X-10668D01*
Y-132279D01*
X-8722Y-130979D01*
X-7421Y-129032D01*
D02*
G37*
G36*
X-433324Y-70921D02*
X-435271Y-72221D01*
X-436571Y-74168D01*
X-433324D01*
Y-70921D01*
D02*
G37*
G36*
X-74676Y-70104D02*
X-77923D01*
X-76623Y-72051D01*
X-74676Y-73351D01*
Y-70104D01*
D02*
G37*
G36*
X-66349D02*
X-69596D01*
Y-73351D01*
X-67649Y-72051D01*
X-66349Y-70104D01*
D02*
G37*
G36*
X-15748Y-120705D02*
X-17695Y-122006D01*
X-18995Y-123952D01*
X-15748D01*
Y-120705D01*
D02*
G37*
G36*
X-10668D02*
Y-123952D01*
X-7421D01*
X-8722Y-122006D01*
X-10668Y-120705D01*
D02*
G37*
G36*
X-433324Y-79248D02*
X-436571D01*
X-435271Y-81195D01*
X-433324Y-82495D01*
Y-79248D01*
D02*
G37*
G36*
X-331724Y-23169D02*
Y-26416D01*
X-328477D01*
X-329777Y-24469D01*
X-331724Y-23169D01*
D02*
G37*
G36*
X-408940Y-22153D02*
X-410887Y-23454D01*
X-412187Y-25400D01*
X-408940D01*
Y-22153D01*
D02*
G37*
G36*
X-403860D02*
Y-25400D01*
X-400613D01*
X-401913Y-23454D01*
X-403860Y-22153D01*
D02*
G37*
G36*
X-215524Y-29641D02*
Y-32888D01*
X-212277D01*
X-213577Y-30942D01*
X-215524Y-29641D01*
D02*
G37*
G36*
X-537420Y-5148D02*
X-562580D01*
Y-30308D01*
X-537420D01*
Y-5148D01*
D02*
G37*
G36*
X-336804Y-23169D02*
X-338751Y-24469D01*
X-340051Y-26416D01*
X-336804D01*
Y-23169D01*
D02*
G37*
G36*
X-467540Y-20453D02*
X-469000Y-21428D01*
X-469975Y-22888D01*
X-467540D01*
Y-20453D01*
D02*
G37*
G36*
X185015Y-13970D02*
X178435D01*
Y-20550D01*
X180635Y-19639D01*
X182598Y-18133D01*
X184104Y-16170D01*
X185015Y-13970D01*
D02*
G37*
G36*
X-182372Y-12192D02*
X-185619D01*
X-184319Y-14139D01*
X-182372Y-15439D01*
Y-12192D01*
D02*
G37*
G36*
X-174045D02*
X-177292D01*
Y-15439D01*
X-175345Y-14139D01*
X-174045Y-12192D01*
D02*
G37*
G36*
X-380040Y-20453D02*
X-381500Y-21428D01*
X-382475Y-22888D01*
X-380040D01*
Y-20453D01*
D02*
G37*
G36*
X-359960D02*
Y-22888D01*
X-357525D01*
X-358500Y-21428D01*
X-359960Y-20453D01*
D02*
G37*
G36*
X173355Y-13970D02*
X166775D01*
X167686Y-16170D01*
X169192Y-18133D01*
X171155Y-19639D01*
X173355Y-20550D01*
Y-13970D01*
D02*
G37*
G36*
X-220604Y-29641D02*
X-222551Y-30942D01*
X-223851Y-32888D01*
X-220604D01*
Y-29641D01*
D02*
G37*
G36*
X-547460Y-32823D02*
Y-40588D01*
X-539695D01*
X-539724Y-40374D01*
X-540786Y-37808D01*
X-542477Y-35605D01*
X-544680Y-33914D01*
X-547247Y-32852D01*
X-547460Y-32823D01*
D02*
G37*
G36*
X-467540Y-37968D02*
X-469975D01*
X-469000Y-39428D01*
X-467540Y-40403D01*
Y-37968D01*
D02*
G37*
G36*
X-380040D02*
X-382475D01*
X-381500Y-39428D01*
X-380040Y-40403D01*
Y-37968D01*
D02*
G37*
G36*
X-220604D02*
X-223851D01*
X-222551Y-39915D01*
X-220604Y-41215D01*
Y-37968D01*
D02*
G37*
G36*
X-212277D02*
X-215524D01*
Y-41215D01*
X-213577Y-39915D01*
X-212277Y-37968D01*
D02*
G37*
G36*
X-552540Y-32823D02*
X-552754Y-32852D01*
X-555320Y-33914D01*
X-557523Y-35605D01*
X-559214Y-37808D01*
X-560276Y-40374D01*
X-560305Y-40588D01*
X-552540D01*
Y-32823D01*
D02*
G37*
G36*
X-374960Y-20453D02*
Y-25428D01*
X-377500D01*
Y-27968D01*
X-382475D01*
X-381500Y-29428D01*
X-380954Y-29793D01*
Y-31063D01*
X-381500Y-31428D01*
X-382475Y-32888D01*
X-377500D01*
Y-35428D01*
X-374960D01*
Y-40403D01*
X-373500Y-39428D01*
X-372540Y-37991D01*
Y-30428D01*
Y-22865D01*
X-373500Y-21428D01*
X-374960Y-20453D01*
D02*
G37*
G36*
X-328477Y-31496D02*
X-331724D01*
Y-34743D01*
X-329777Y-33443D01*
X-328477Y-31496D01*
D02*
G37*
G36*
X-408940Y-30480D02*
X-412187D01*
X-410887Y-32427D01*
X-408940Y-33727D01*
Y-30480D01*
D02*
G37*
G36*
X-400613D02*
X-403860D01*
Y-33727D01*
X-401913Y-32427D01*
X-400613Y-30480D01*
D02*
G37*
G36*
X-365040Y-20453D02*
X-366500Y-21428D01*
X-367460Y-22865D01*
Y-30428D01*
Y-37991D01*
X-366500Y-39428D01*
X-365040Y-40403D01*
Y-35428D01*
X-362500D01*
Y-32888D01*
X-357525D01*
X-358500Y-31428D01*
X-359047Y-31063D01*
Y-29793D01*
X-358500Y-29428D01*
X-357525Y-27968D01*
X-362500D01*
Y-25428D01*
X-365040D01*
Y-20453D01*
D02*
G37*
G36*
X-357525Y-37968D02*
X-359960D01*
Y-40403D01*
X-358500Y-39428D01*
X-357525Y-37968D01*
D02*
G37*
G36*
X-336804Y-31496D02*
X-340051D01*
X-338751Y-33443D01*
X-336804Y-34743D01*
Y-31496D01*
D02*
G37*
G36*
X-82804Y-151185D02*
X-84751Y-152486D01*
X-86051Y-154432D01*
X-82804D01*
Y-151185D01*
D02*
G37*
G36*
X125095Y-228501D02*
X122111Y-228894D01*
X119331Y-230046D01*
X116943Y-231878D01*
X115111Y-234266D01*
X113959Y-237046D01*
X113566Y-240030D01*
X113959Y-243014D01*
X115111Y-245794D01*
X116943Y-248182D01*
X119331Y-250014D01*
X122111Y-251166D01*
X125095Y-251559D01*
X128079Y-251166D01*
X130859Y-250014D01*
X133247Y-248182D01*
X135079Y-245794D01*
X136231Y-243014D01*
X136624Y-240030D01*
X136231Y-237046D01*
X135079Y-234266D01*
X133247Y-231878D01*
X130859Y-230046D01*
X128079Y-228894D01*
X125095Y-228501D01*
D02*
G37*
G36*
X161925Y-228600D02*
X139065D01*
Y-251460D01*
X161925D01*
Y-228600D01*
D02*
G37*
G36*
X-80645Y-242570D02*
X-87225D01*
X-86314Y-244770D01*
X-84808Y-246733D01*
X-82844Y-248239D01*
X-80645Y-249150D01*
Y-242570D01*
D02*
G37*
G36*
X48895Y-228501D02*
X45911Y-228894D01*
X43131Y-230046D01*
X40743Y-231878D01*
X38911Y-234266D01*
X37759Y-237046D01*
X37366Y-240030D01*
X37759Y-243014D01*
X38911Y-245794D01*
X40743Y-248182D01*
X43131Y-250014D01*
X45911Y-251166D01*
X48895Y-251559D01*
X51879Y-251166D01*
X54659Y-250014D01*
X57047Y-248182D01*
X58879Y-245794D01*
X60031Y-243014D01*
X60424Y-240030D01*
X60031Y-237046D01*
X58879Y-234266D01*
X57047Y-231878D01*
X54659Y-230046D01*
X51879Y-228894D01*
X48895Y-228501D01*
D02*
G37*
G36*
X74295D02*
X71311Y-228894D01*
X68531Y-230046D01*
X66143Y-231878D01*
X64311Y-234266D01*
X63159Y-237046D01*
X62766Y-240030D01*
X63159Y-243014D01*
X64311Y-245794D01*
X66143Y-248182D01*
X68531Y-250014D01*
X71311Y-251166D01*
X74295Y-251559D01*
X77279Y-251166D01*
X80059Y-250014D01*
X82447Y-248182D01*
X84279Y-245794D01*
X85431Y-243014D01*
X85824Y-240030D01*
X85431Y-237046D01*
X84279Y-234266D01*
X82447Y-231878D01*
X80059Y-230046D01*
X77279Y-228894D01*
X74295Y-228501D01*
D02*
G37*
G36*
X99695D02*
X96711Y-228894D01*
X93931Y-230046D01*
X91543Y-231878D01*
X89711Y-234266D01*
X88559Y-237046D01*
X88166Y-240030D01*
X88559Y-243014D01*
X89711Y-245794D01*
X91543Y-248182D01*
X93931Y-250014D01*
X96711Y-251166D01*
X99695Y-251559D01*
X102679Y-251166D01*
X105459Y-250014D01*
X107847Y-248182D01*
X109679Y-245794D01*
X110831Y-243014D01*
X111224Y-240030D01*
X110831Y-237046D01*
X109679Y-234266D01*
X107847Y-231878D01*
X105459Y-230046D01*
X102679Y-228894D01*
X99695Y-228501D01*
D02*
G37*
G36*
X-68985Y-242570D02*
X-75565D01*
Y-249150D01*
X-73365Y-248239D01*
X-71402Y-246733D01*
X-69896Y-244770D01*
X-68985Y-242570D01*
D02*
G37*
G36*
X-369117Y-245872D02*
X-372364D01*
Y-249119D01*
X-370418Y-247819D01*
X-369117Y-245872D01*
D02*
G37*
G36*
X-333740Y-239695D02*
X-333954Y-239723D01*
X-336520Y-240786D01*
X-338723Y-242477D01*
X-340414Y-244681D01*
X-341477Y-247246D01*
X-341505Y-247460D01*
X-333740D01*
Y-239695D01*
D02*
G37*
G36*
X-328660D02*
Y-247460D01*
X-320895D01*
X-320924Y-247246D01*
X-321986Y-244681D01*
X-323677Y-242477D01*
X-325881Y-240786D01*
X-328447Y-239723D01*
X-328660Y-239695D01*
D02*
G37*
G36*
X-55245Y-242570D02*
X-61825D01*
X-60914Y-244770D01*
X-59408Y-246733D01*
X-57445Y-248239D01*
X-55245Y-249150D01*
Y-242570D01*
D02*
G37*
G36*
X-43585D02*
X-50165D01*
Y-249150D01*
X-47965Y-248239D01*
X-46002Y-246733D01*
X-44496Y-244770D01*
X-43585Y-242570D01*
D02*
G37*
G36*
X-377444Y-245872D02*
X-380691D01*
X-379391Y-247819D01*
X-377444Y-249119D01*
Y-245872D01*
D02*
G37*
G36*
X23495Y-228501D02*
X20511Y-228894D01*
X17731Y-230046D01*
X15343Y-231878D01*
X13511Y-234266D01*
X12359Y-237046D01*
X11966Y-240030D01*
X12359Y-243014D01*
X13511Y-245794D01*
X15343Y-248182D01*
X17731Y-250014D01*
X20511Y-251166D01*
X23495Y-251559D01*
X26479Y-251166D01*
X29259Y-250014D01*
X31647Y-248182D01*
X33479Y-245794D01*
X34631Y-243014D01*
X35024Y-240030D01*
X34631Y-237046D01*
X33479Y-234266D01*
X31647Y-231878D01*
X29259Y-230046D01*
X26479Y-228894D01*
X23495Y-228501D01*
D02*
G37*
G36*
X222460Y-299213D02*
X220513Y-300513D01*
X219213Y-302460D01*
X222460D01*
Y-299213D01*
D02*
G37*
G36*
X227540D02*
Y-302460D01*
X230787D01*
X229487Y-300513D01*
X227540Y-299213D01*
D02*
G37*
G36*
X397540Y-269574D02*
Y-277460D01*
X405426D01*
X405393Y-277215D01*
X404319Y-274620D01*
X402608Y-272391D01*
X400380Y-270681D01*
X397785Y-269607D01*
X397540Y-269574D01*
D02*
G37*
G36*
X120000Y-261674D02*
X117845Y-261957D01*
X115837Y-262789D01*
X114113Y-264112D01*
X112789Y-265837D01*
X111958Y-267845D01*
X111674Y-270000D01*
X111958Y-272155D01*
X112789Y-274163D01*
X112827Y-274212D01*
Y-290000D01*
X113071Y-291857D01*
X113281Y-292363D01*
X113788Y-293587D01*
X114928Y-295072D01*
X126950Y-307094D01*
X126958Y-307155D01*
X127789Y-309163D01*
X129113Y-310888D01*
X130837Y-312211D01*
X132845Y-313043D01*
X135000Y-313326D01*
X137155Y-313043D01*
X139163Y-312211D01*
X140887Y-310888D01*
X142211Y-309163D01*
X143042Y-307155D01*
X143326Y-305000D01*
X143042Y-302845D01*
X142211Y-300837D01*
X140887Y-299112D01*
X139163Y-297789D01*
X137155Y-296957D01*
X137094Y-296950D01*
X127173Y-287029D01*
Y-274212D01*
X127211Y-274163D01*
X128042Y-272155D01*
X128326Y-270000D01*
X128042Y-267845D01*
X127211Y-265837D01*
X125887Y-264112D01*
X124163Y-262789D01*
X122155Y-261957D01*
X120000Y-261674D01*
D02*
G37*
G36*
X222460Y-307540D02*
X219213D01*
X220513Y-309487D01*
X222460Y-310787D01*
Y-307540D01*
D02*
G37*
G36*
X230787D02*
X227540D01*
Y-310787D01*
X229487Y-309487D01*
X230787Y-307540D01*
D02*
G37*
G36*
X235000Y-199362D02*
X232845Y-199646D01*
X230837Y-200477D01*
X229112Y-201801D01*
X227789Y-203525D01*
X226957Y-205533D01*
X226674Y-207688D01*
X226957Y-209843D01*
X227789Y-211851D01*
X228526Y-212811D01*
Y-268960D01*
X225942Y-270942D01*
X225635Y-271343D01*
X224365D01*
X224058Y-270942D01*
X221405Y-268907D01*
X218315Y-267627D01*
X215000Y-267190D01*
X211685Y-267627D01*
X208595Y-268907D01*
X205942Y-270942D01*
X203907Y-273595D01*
X202627Y-276685D01*
X202190Y-280000D01*
X202627Y-283315D01*
X203907Y-286405D01*
X205942Y-289058D01*
X208595Y-291093D01*
X211685Y-292373D01*
X215000Y-292810D01*
X218315Y-292373D01*
X221405Y-291093D01*
X224058Y-289058D01*
X224365Y-288657D01*
X225635D01*
X225942Y-289058D01*
X228595Y-291093D01*
X231685Y-292373D01*
X235000Y-292810D01*
X238315Y-292373D01*
X241405Y-291093D01*
X244058Y-289058D01*
X244365Y-288657D01*
X245635D01*
X245942Y-289058D01*
X248595Y-291093D01*
X251685Y-292373D01*
X255000Y-292810D01*
X258315Y-292373D01*
X261405Y-291093D01*
X264058Y-289058D01*
X264365Y-288657D01*
X265635D01*
X265942Y-289058D01*
X268595Y-291093D01*
X271685Y-292373D01*
X275000Y-292810D01*
X278315Y-292373D01*
X281405Y-291093D01*
X284058Y-289058D01*
X284365Y-288657D01*
X285635D01*
X285942Y-289058D01*
X288595Y-291093D01*
X291685Y-292373D01*
X295000Y-292810D01*
X298315Y-292373D01*
X301405Y-291093D01*
X304058Y-289058D01*
X304365Y-288657D01*
X305635D01*
X305942Y-289058D01*
X308595Y-291093D01*
X311685Y-292373D01*
X315000Y-292810D01*
X318315Y-292373D01*
X321405Y-291093D01*
X324058Y-289058D01*
X324365Y-288657D01*
X325635D01*
X325942Y-289058D01*
X328595Y-291093D01*
X331685Y-292373D01*
X335000Y-292810D01*
X338315Y-292373D01*
X341405Y-291093D01*
X344058Y-289058D01*
X344365Y-288657D01*
X345635D01*
X345942Y-289058D01*
X348595Y-291093D01*
X351685Y-292373D01*
X355000Y-292810D01*
X358315Y-292373D01*
X361405Y-291093D01*
X364058Y-289058D01*
X364365Y-288657D01*
X365635D01*
X365942Y-289058D01*
X368595Y-291093D01*
X371685Y-292373D01*
X375000Y-292810D01*
X378315Y-292373D01*
X381405Y-291093D01*
X384058Y-289058D01*
X385646Y-286988D01*
X386916Y-286988D01*
X387392Y-287609D01*
X389620Y-289319D01*
X392215Y-290393D01*
X395000Y-290760D01*
X397785Y-290393D01*
X400380Y-289319D01*
X402608Y-287609D01*
X404319Y-285380D01*
X405393Y-282785D01*
X405426Y-282540D01*
X395000D01*
Y-280000D01*
X392460D01*
Y-269574D01*
X392215Y-269607D01*
X389620Y-270681D01*
X387392Y-272391D01*
X386916Y-273012D01*
X385646Y-273012D01*
X384058Y-270942D01*
X381405Y-268907D01*
X378315Y-267627D01*
X375000Y-267190D01*
X371685Y-267627D01*
X368595Y-268907D01*
X365942Y-270942D01*
X365635Y-271343D01*
X364365D01*
X364058Y-270942D01*
X361405Y-268907D01*
X358315Y-267627D01*
X355000Y-267190D01*
X351685Y-267627D01*
X348595Y-268907D01*
X345942Y-270942D01*
X345635Y-271343D01*
X344365D01*
X344058Y-270942D01*
X341405Y-268907D01*
X338315Y-267627D01*
X335000Y-267190D01*
X331685Y-267627D01*
X328595Y-268907D01*
X325942Y-270942D01*
X325635Y-271343D01*
X324365D01*
X324058Y-270942D01*
X321405Y-268907D01*
X318315Y-267627D01*
X315000Y-267190D01*
X311685Y-267627D01*
X308595Y-268907D01*
X305942Y-270942D01*
X305635Y-271343D01*
X304365D01*
X304058Y-270942D01*
X301405Y-268907D01*
X298315Y-267627D01*
X295000Y-267190D01*
X291685Y-267627D01*
X288595Y-268907D01*
X285942Y-270942D01*
X285635Y-271343D01*
X284365D01*
X284058Y-270942D01*
X281405Y-268907D01*
X278315Y-267627D01*
X275000Y-267190D01*
X271685Y-267627D01*
X268595Y-268907D01*
X265942Y-270942D01*
X265635Y-271343D01*
X264365D01*
X264058Y-270942D01*
X261474Y-268960D01*
Y-215123D01*
X262211Y-214163D01*
X263043Y-212155D01*
X263326Y-210000D01*
X263043Y-207845D01*
X262211Y-205837D01*
X260888Y-204112D01*
X259163Y-202789D01*
X257155Y-201957D01*
X255000Y-201674D01*
X252845Y-201957D01*
X250837Y-202789D01*
X249112Y-204112D01*
X247789Y-205837D01*
X246957Y-207845D01*
X246674Y-210000D01*
X246957Y-212155D01*
X247789Y-214163D01*
X248526Y-215123D01*
Y-268960D01*
X245942Y-270942D01*
X245635Y-271343D01*
X244365D01*
X244058Y-270942D01*
X241474Y-268960D01*
Y-212811D01*
X242211Y-211851D01*
X243043Y-209843D01*
X243326Y-207688D01*
X243043Y-205533D01*
X242211Y-203525D01*
X240888Y-201801D01*
X239163Y-200477D01*
X237155Y-199646D01*
X235000Y-199362D01*
D02*
G37*
G36*
X-128905Y-228501D02*
X-131889Y-228894D01*
X-134669Y-230046D01*
X-137057Y-231878D01*
X-138889Y-234266D01*
X-140041Y-237046D01*
X-140434Y-240030D01*
X-140041Y-243014D01*
X-138889Y-245794D01*
X-137057Y-248182D01*
X-134669Y-250014D01*
X-131889Y-251166D01*
X-128905Y-251559D01*
X-125921Y-251166D01*
X-123141Y-250014D01*
X-120753Y-248182D01*
X-118921Y-245794D01*
X-117769Y-243014D01*
X-117376Y-240030D01*
X-117769Y-237046D01*
X-118921Y-234266D01*
X-120753Y-231878D01*
X-123141Y-230046D01*
X-125921Y-228894D01*
X-128905Y-228501D01*
D02*
G37*
G36*
X-103505D02*
X-106489Y-228894D01*
X-109269Y-230046D01*
X-111657Y-231878D01*
X-113489Y-234266D01*
X-114641Y-237046D01*
X-115034Y-240030D01*
X-114641Y-243014D01*
X-113489Y-245794D01*
X-111657Y-248182D01*
X-109269Y-250014D01*
X-106489Y-251166D01*
X-103505Y-251559D01*
X-100521Y-251166D01*
X-97741Y-250014D01*
X-95353Y-248182D01*
X-93521Y-245794D01*
X-92369Y-243014D01*
X-91976Y-240030D01*
X-92369Y-237046D01*
X-93521Y-234266D01*
X-95353Y-231878D01*
X-97741Y-230046D01*
X-100521Y-228894D01*
X-103505Y-228501D01*
D02*
G37*
G36*
X-27305D02*
X-30289Y-228894D01*
X-33069Y-230046D01*
X-35457Y-231878D01*
X-37289Y-234266D01*
X-38441Y-237046D01*
X-38834Y-240030D01*
X-38441Y-243014D01*
X-37289Y-245794D01*
X-35457Y-248182D01*
X-33069Y-250014D01*
X-30289Y-251166D01*
X-27305Y-251559D01*
X-24321Y-251166D01*
X-21541Y-250014D01*
X-19153Y-248182D01*
X-17321Y-245794D01*
X-16169Y-243014D01*
X-15776Y-240030D01*
X-16169Y-237046D01*
X-17321Y-234266D01*
X-19153Y-231878D01*
X-21541Y-230046D01*
X-24321Y-228894D01*
X-27305Y-228501D01*
D02*
G37*
G36*
X-333740Y-252540D02*
X-341505D01*
X-341477Y-252754D01*
X-340414Y-255319D01*
X-338723Y-257523D01*
X-336520Y-259214D01*
X-333954Y-260277D01*
X-333740Y-260305D01*
Y-252540D01*
D02*
G37*
G36*
X-320895D02*
X-328660D01*
Y-260305D01*
X-328447Y-260277D01*
X-325881Y-259214D01*
X-323677Y-257523D01*
X-321986Y-255319D01*
X-320924Y-252754D01*
X-320895Y-252540D01*
D02*
G37*
G36*
X-154305Y-228501D02*
X-157289Y-228894D01*
X-160069Y-230046D01*
X-162457Y-231878D01*
X-164289Y-234266D01*
X-165441Y-237046D01*
X-165834Y-240030D01*
X-165441Y-243014D01*
X-164289Y-245794D01*
X-162457Y-248182D01*
X-160069Y-250014D01*
X-157289Y-251166D01*
X-154305Y-251559D01*
X-151321Y-251166D01*
X-148541Y-250014D01*
X-146153Y-248182D01*
X-144321Y-245794D01*
X-143169Y-243014D01*
X-142776Y-240030D01*
X-143169Y-237046D01*
X-144321Y-234266D01*
X-146153Y-231878D01*
X-148541Y-230046D01*
X-151321Y-228894D01*
X-154305Y-228501D01*
D02*
G37*
G36*
X68739Y-70762D02*
X66584Y-71046D01*
X64576Y-71878D01*
X63602Y-72626D01*
X61182Y-73107D01*
X59081Y-74511D01*
X49270Y-84322D01*
X49079Y-84607D01*
X48746Y-84830D01*
X38061Y-95514D01*
X38030Y-95562D01*
X3550Y-130042D01*
X2146Y-132142D01*
X1654Y-134620D01*
Y-150833D01*
X917Y-151793D01*
X85Y-153801D01*
X-198Y-155956D01*
X85Y-158111D01*
X917Y-160119D01*
X2240Y-161843D01*
X3965Y-163167D01*
X5973Y-163999D01*
X6008Y-164003D01*
X6012Y-164038D01*
X6844Y-166046D01*
X8167Y-167771D01*
X9892Y-169094D01*
X11900Y-169925D01*
X14055Y-170209D01*
X16210Y-169925D01*
X18218Y-169094D01*
X19604Y-168030D01*
X20704Y-168665D01*
X20460Y-170518D01*
X20744Y-172673D01*
X21575Y-174681D01*
X22898Y-176406D01*
X24623Y-177729D01*
X26631Y-178561D01*
X26666Y-178565D01*
X26670Y-178600D01*
X27502Y-180608D01*
X28826Y-182333D01*
X30550Y-183656D01*
X32558Y-184488D01*
X32593Y-184492D01*
X32597Y-184527D01*
X33429Y-186535D01*
X34752Y-188260D01*
X36477Y-189583D01*
X38485Y-190415D01*
X40640Y-190698D01*
X42795Y-190415D01*
X44803Y-189583D01*
X46528Y-188260D01*
X47851Y-186535D01*
X48682Y-184527D01*
X48966Y-182372D01*
X48725Y-180537D01*
X81814Y-147448D01*
X83435Y-147234D01*
X85443Y-146403D01*
X87168Y-145079D01*
X88491Y-143355D01*
X89323Y-141347D01*
X89606Y-139192D01*
X89323Y-137037D01*
X88491Y-135029D01*
X88469Y-135001D01*
X88491Y-134973D01*
X89323Y-132965D01*
X89606Y-130810D01*
X89323Y-128655D01*
X88491Y-126647D01*
X88469Y-126619D01*
X88491Y-126591D01*
X89323Y-124583D01*
X89606Y-122428D01*
X89323Y-120273D01*
X88491Y-118265D01*
X87168Y-116540D01*
X85443Y-115217D01*
X83435Y-114385D01*
X81280Y-114102D01*
X79125Y-114385D01*
X78123Y-114801D01*
X77417Y-113745D01*
X81814Y-109348D01*
X83435Y-109135D01*
X85443Y-108303D01*
X87168Y-106980D01*
X88491Y-105255D01*
X89323Y-103247D01*
X89606Y-101092D01*
X89323Y-98937D01*
X88491Y-96929D01*
X87168Y-95204D01*
X85443Y-93881D01*
X83435Y-93049D01*
X81280Y-92766D01*
X79125Y-93049D01*
X77117Y-93881D01*
X75392Y-95204D01*
X74069Y-96929D01*
X73237Y-98937D01*
X73024Y-100558D01*
X34002Y-139581D01*
X28828D01*
X27531Y-138585D01*
X25523Y-137753D01*
X24977Y-137682D01*
X24569Y-136479D01*
X63064Y-97984D01*
X65024Y-98242D01*
X67179Y-97959D01*
X69187Y-97127D01*
X70911Y-95804D01*
X72235Y-94079D01*
X73067Y-92071D01*
X73350Y-89916D01*
X73067Y-87761D01*
X72682Y-86832D01*
X72902Y-86299D01*
X74627Y-84976D01*
X75950Y-83252D01*
X76782Y-81244D01*
X77066Y-79089D01*
X76782Y-76934D01*
X75950Y-74926D01*
X74627Y-73201D01*
X72902Y-71878D01*
X70894Y-71046D01*
X68739Y-70762D01*
D02*
G37*
G36*
X-452628Y-185729D02*
X-454575Y-187029D01*
X-455875Y-188976D01*
X-452628D01*
Y-185729D01*
D02*
G37*
G36*
X-447548D02*
Y-188976D01*
X-444301D01*
X-445602Y-187029D01*
X-447548Y-185729D01*
D02*
G37*
G36*
X-444301Y-194056D02*
X-447548D01*
Y-197303D01*
X-445602Y-196003D01*
X-444301Y-194056D01*
D02*
G37*
G36*
X482972Y-191008D02*
X479725D01*
X481025Y-192955D01*
X482972Y-194255D01*
Y-191008D01*
D02*
G37*
G36*
X491299D02*
X488052D01*
Y-194255D01*
X489999Y-192955D01*
X491299Y-191008D01*
D02*
G37*
G36*
X482972Y-182681D02*
X481025Y-183981D01*
X479725Y-185928D01*
X482972D01*
Y-182681D01*
D02*
G37*
G36*
X-82804Y-159512D02*
X-86051D01*
X-84751Y-161459D01*
X-82804Y-162759D01*
Y-159512D01*
D02*
G37*
G36*
X-74477D02*
X-77724D01*
Y-162759D01*
X-75778Y-161459D01*
X-74477Y-159512D01*
D02*
G37*
G36*
X461128Y-120198D02*
X458973Y-120482D01*
X456965Y-121313D01*
X455240Y-122636D01*
X453917Y-124361D01*
X453086Y-126369D01*
X452802Y-128524D01*
X453086Y-130679D01*
X453917Y-132687D01*
X455240Y-134412D01*
X456965Y-135735D01*
X458973Y-136567D01*
X459034Y-136575D01*
X471366Y-148906D01*
X471373Y-148967D01*
X472205Y-150975D01*
X473528Y-152700D01*
X475253Y-154023D01*
X477261Y-154855D01*
X479416Y-155138D01*
X481571Y-154855D01*
X483579Y-154023D01*
X485303Y-152700D01*
X486627Y-150975D01*
X487458Y-148967D01*
X487742Y-146812D01*
X487458Y-144657D01*
X486627Y-142649D01*
X485303Y-140925D01*
X483579Y-139601D01*
X481571Y-138770D01*
X481510Y-138762D01*
X469179Y-126430D01*
X469170Y-126369D01*
X468339Y-124361D01*
X467015Y-122636D01*
X465291Y-121313D01*
X463283Y-120482D01*
X461128Y-120198D01*
D02*
G37*
G36*
X488052Y-182681D02*
Y-185928D01*
X491299D01*
X489999Y-183981D01*
X488052Y-182681D01*
D02*
G37*
G36*
X-540000Y-140325D02*
X-543838Y-140703D01*
X-547529Y-141823D01*
X-550931Y-143641D01*
X-553912Y-146088D01*
X-556359Y-149069D01*
X-558177Y-152471D01*
X-559297Y-156162D01*
X-559675Y-160000D01*
X-559297Y-163838D01*
X-558177Y-167529D01*
X-556359Y-170931D01*
X-553912Y-173912D01*
X-550931Y-176359D01*
X-547529Y-178177D01*
X-543838Y-179297D01*
X-540000Y-179675D01*
X-536162Y-179297D01*
X-532471Y-178177D01*
X-529069Y-176359D01*
X-526088Y-173912D01*
X-523641Y-170931D01*
X-521823Y-167529D01*
X-520703Y-163838D01*
X-520325Y-160000D01*
X-520703Y-156162D01*
X-521823Y-152471D01*
X-523641Y-149069D01*
X-526088Y-146088D01*
X-529069Y-143641D01*
X-532471Y-141823D01*
X-536162Y-140703D01*
X-540000Y-140325D01*
D02*
G37*
G36*
X540000D02*
X536162Y-140703D01*
X532471Y-141823D01*
X529069Y-143641D01*
X526088Y-146088D01*
X523641Y-149069D01*
X521823Y-152471D01*
X520703Y-156162D01*
X520325Y-160000D01*
X520703Y-163838D01*
X521823Y-167529D01*
X523641Y-170931D01*
X526088Y-173912D01*
X529069Y-176359D01*
X532471Y-178177D01*
X536162Y-179297D01*
X540000Y-179675D01*
X543838Y-179297D01*
X547529Y-178177D01*
X550931Y-176359D01*
X553912Y-173912D01*
X556359Y-170931D01*
X558177Y-167529D01*
X559297Y-163838D01*
X559675Y-160000D01*
X559297Y-156162D01*
X558177Y-152471D01*
X556359Y-149069D01*
X553912Y-146088D01*
X550931Y-143641D01*
X547529Y-141823D01*
X543838Y-140703D01*
X540000Y-140325D01*
D02*
G37*
G36*
X-452628Y-194056D02*
X-455875D01*
X-454575Y-196003D01*
X-452628Y-197303D01*
Y-194056D01*
D02*
G37*
G36*
X-80645Y-230910D02*
X-82844Y-231821D01*
X-84808Y-233327D01*
X-86314Y-235290D01*
X-87225Y-237490D01*
X-80645D01*
Y-230910D01*
D02*
G37*
G36*
X-75565D02*
Y-237490D01*
X-68985D01*
X-69896Y-235290D01*
X-71402Y-233327D01*
X-73365Y-231821D01*
X-75565Y-230910D01*
D02*
G37*
G36*
X-55245D02*
X-57445Y-231821D01*
X-59408Y-233327D01*
X-60914Y-235290D01*
X-61825Y-237490D01*
X-55245D01*
Y-230910D01*
D02*
G37*
G36*
X-280400Y-237311D02*
X-283684Y-237744D01*
X-286744Y-239011D01*
X-289372Y-241028D01*
X-291389Y-243656D01*
X-292465Y-246254D01*
X-293735D01*
X-294811Y-243656D01*
X-296828Y-241028D01*
X-299456Y-239011D01*
X-302516Y-237744D01*
X-305800Y-237311D01*
X-309084Y-237744D01*
X-312144Y-239011D01*
X-314772Y-241028D01*
X-316789Y-243656D01*
X-318056Y-246716D01*
X-318489Y-250000D01*
X-318056Y-253284D01*
X-316789Y-256344D01*
X-314772Y-258972D01*
X-312144Y-260989D01*
X-309084Y-262256D01*
X-305800Y-262689D01*
X-302516Y-262256D01*
X-299456Y-260989D01*
X-296828Y-258972D01*
X-294811Y-256344D01*
X-293735Y-253746D01*
X-292465D01*
X-291389Y-256344D01*
X-289372Y-258972D01*
X-286744Y-260989D01*
X-283684Y-262256D01*
X-280400Y-262689D01*
X-277116Y-262256D01*
X-274056Y-260989D01*
X-271428Y-258972D01*
X-269411Y-256344D01*
X-268826Y-254930D01*
X-267580Y-255178D01*
Y-262580D01*
X-242420D01*
Y-237420D01*
X-267580D01*
Y-244822D01*
X-268826Y-245070D01*
X-269411Y-243656D01*
X-271428Y-241028D01*
X-274056Y-239011D01*
X-277116Y-237744D01*
X-280400Y-237311D01*
D02*
G37*
G36*
X-377444Y-237545D02*
X-379391Y-238846D01*
X-380691Y-240792D01*
X-377444D01*
Y-237545D01*
D02*
G37*
G36*
X-372364D02*
Y-240792D01*
X-369117D01*
X-370418Y-238846D01*
X-372364Y-237545D01*
D02*
G37*
G36*
X-50165Y-230910D02*
Y-237490D01*
X-43585D01*
X-44496Y-235290D01*
X-46002Y-233327D01*
X-47965Y-231821D01*
X-50165Y-230910D01*
D02*
G37*
G36*
X-314960Y-167950D02*
X-317115Y-168234D01*
X-319123Y-169065D01*
X-320848Y-170389D01*
X-322171Y-172113D01*
X-323003Y-174121D01*
X-323007Y-174156D01*
X-323042Y-174160D01*
X-325050Y-174992D01*
X-326774Y-176315D01*
X-328098Y-178040D01*
X-328929Y-180048D01*
X-328934Y-180083D01*
X-328969Y-180087D01*
X-330977Y-180919D01*
X-332701Y-182242D01*
X-334025Y-183967D01*
X-334856Y-185975D01*
X-335140Y-188130D01*
X-334856Y-190285D01*
X-334025Y-192293D01*
X-332701Y-194018D01*
X-330977Y-195341D01*
X-328969Y-196173D01*
X-327348Y-196386D01*
X-320537Y-203197D01*
X-318521Y-204544D01*
X-318126Y-204623D01*
X-316142Y-205017D01*
X-116204D01*
X-114907Y-206013D01*
X-112899Y-206845D01*
X-110744Y-207128D01*
X-108589Y-206845D01*
X-106581Y-206013D01*
X-104857Y-204690D01*
X-103533Y-202965D01*
X-102702Y-200957D01*
X-102418Y-198802D01*
X-102702Y-196647D01*
X-103533Y-194639D01*
X-103555Y-194611D01*
X-103533Y-194583D01*
X-102702Y-192575D01*
X-102418Y-190420D01*
X-102702Y-188265D01*
X-103533Y-186257D01*
X-103555Y-186229D01*
X-103533Y-186201D01*
X-102702Y-184193D01*
X-102418Y-182038D01*
X-102702Y-179883D01*
X-103533Y-177875D01*
X-104857Y-176150D01*
X-106581Y-174827D01*
X-108589Y-173995D01*
X-110744Y-173712D01*
X-112899Y-173995D01*
X-114907Y-174827D01*
X-116204Y-175823D01*
X-306623D01*
X-306704Y-175742D01*
X-306917Y-174121D01*
X-307749Y-172113D01*
X-309072Y-170389D01*
X-310797Y-169065D01*
X-312805Y-168234D01*
X-314960Y-167950D01*
D02*
G37*
G36*
X-480060Y-198937D02*
X-482007Y-200238D01*
X-483307Y-202184D01*
X-480060D01*
Y-198937D01*
D02*
G37*
G36*
X-474980D02*
Y-202184D01*
X-471733D01*
X-473033Y-200238D01*
X-474980Y-198937D01*
D02*
G37*
G36*
X-480060Y-207264D02*
X-483307D01*
X-482007Y-209211D01*
X-480060Y-210511D01*
Y-207264D01*
D02*
G37*
G36*
X-471733D02*
X-474980D01*
Y-210511D01*
X-473033Y-209211D01*
X-471733Y-207264D01*
D02*
G37*
G36*
X-445000Y-207783D02*
X-446979Y-208043D01*
X-448823Y-208807D01*
X-450000Y-209710D01*
X-451177Y-208807D01*
X-453021Y-208043D01*
X-455000Y-207783D01*
X-456979Y-208043D01*
X-458823Y-208807D01*
X-460406Y-210022D01*
X-461621Y-211605D01*
X-462385Y-213449D01*
X-462645Y-215428D01*
X-462385Y-217407D01*
X-461621Y-219251D01*
X-460718Y-220428D01*
X-461621Y-221605D01*
X-462385Y-223449D01*
X-462645Y-225428D01*
X-462385Y-227407D01*
X-461621Y-229251D01*
X-460406Y-230834D01*
X-458823Y-232049D01*
X-456979Y-232813D01*
X-455000Y-233074D01*
X-453021Y-232813D01*
X-451177Y-232049D01*
X-450000Y-231146D01*
X-448823Y-232049D01*
X-446979Y-232813D01*
X-445000Y-233074D01*
X-443021Y-232813D01*
X-441177Y-232049D01*
X-439594Y-230834D01*
X-438379Y-229251D01*
X-437615Y-227407D01*
X-437355Y-225428D01*
X-437615Y-223449D01*
X-438379Y-221605D01*
X-439282Y-220428D01*
X-438379Y-219251D01*
X-437615Y-217407D01*
X-437355Y-215428D01*
X-437615Y-213449D01*
X-438379Y-211605D01*
X-439594Y-210022D01*
X-441177Y-208807D01*
X-443021Y-208043D01*
X-445000Y-207783D01*
D02*
G37*
G36*
X-220980Y-5080D02*
X-224227D01*
X-222927Y-7027D01*
X-220980Y-8327D01*
Y-5080D01*
D02*
G37*
G36*
X-204724Y199136D02*
X-207971D01*
X-206671Y197189D01*
X-204724Y195889D01*
Y199136D01*
D02*
G37*
G36*
X-196397D02*
X-199644D01*
Y195889D01*
X-197698Y197189D01*
X-196397Y199136D01*
D02*
G37*
G36*
X-204724Y207463D02*
X-206671Y206162D01*
X-207971Y204216D01*
X-204724D01*
Y207463D01*
D02*
G37*
G36*
X-194818Y222307D02*
X-194818Y222307D01*
X-240284D01*
X-242008Y222080D01*
X-243615Y221415D01*
X-244994Y220356D01*
X-244994Y220356D01*
X-249672Y215678D01*
X-250567Y215560D01*
X-252575Y214729D01*
X-254300Y213405D01*
X-255623Y211681D01*
X-256455Y209673D01*
X-256738Y207518D01*
X-256455Y205363D01*
X-255623Y203355D01*
X-254300Y201630D01*
X-252575Y200307D01*
X-250567Y199475D01*
X-248412Y199192D01*
X-246257Y199475D01*
X-244249Y200307D01*
X-242525Y201630D01*
X-241201Y203355D01*
X-240369Y205363D01*
X-240252Y206258D01*
X-239203Y207307D01*
X-238064Y206745D01*
X-238196Y205740D01*
X-237913Y203585D01*
X-237081Y201577D01*
X-236345Y200617D01*
Y191290D01*
X-237484Y190729D01*
X-237645Y190853D01*
X-239653Y191684D01*
X-241808Y191968D01*
X-243963Y191684D01*
X-245971Y190853D01*
X-246931Y190116D01*
X-328379D01*
X-329339Y190853D01*
X-331347Y191684D01*
X-333502Y191968D01*
X-335657Y191684D01*
X-337665Y190853D01*
X-339390Y189529D01*
X-340713Y187805D01*
X-341545Y185797D01*
X-341828Y183642D01*
X-341545Y181487D01*
X-340713Y179479D01*
X-339390Y177754D01*
X-337665Y176431D01*
X-335657Y175599D01*
X-333502Y175316D01*
X-331347Y175599D01*
X-329339Y176431D01*
X-328379Y177167D01*
X-246931D01*
X-246292Y176678D01*
Y175408D01*
X-246426Y175306D01*
X-247749Y173581D01*
X-248581Y171573D01*
X-248864Y169418D01*
X-248581Y167263D01*
X-247749Y165255D01*
X-246426Y163530D01*
X-244701Y162207D01*
X-243106Y161546D01*
X-242981Y160282D01*
X-244263Y159426D01*
X-245563Y157480D01*
X-233989D01*
X-235289Y159426D01*
X-237154Y160672D01*
X-237029Y161936D01*
X-236375Y162207D01*
X-234650Y163530D01*
X-233327Y165255D01*
X-232495Y167263D01*
X-232212Y169418D01*
X-232322Y170256D01*
X-225292Y177286D01*
X-223888Y179386D01*
X-223396Y181864D01*
Y200617D01*
X-222659Y201577D01*
X-221828Y203585D01*
X-221544Y205740D01*
X-221828Y207895D01*
X-221842Y207929D01*
X-221136Y208985D01*
X-203816D01*
X-203816Y208984D01*
X-200552D01*
X-200552Y208985D01*
X-197577D01*
X-183088Y194496D01*
X-183336Y193250D01*
X-185331Y192423D01*
X-187188Y190998D01*
X-188613Y189141D01*
X-189509Y186979D01*
X-189815Y184658D01*
Y157638D01*
X-227234Y120219D01*
X-258748D01*
X-261069Y119913D01*
X-263231Y119017D01*
X-265089Y117592D01*
X-316214Y66467D01*
X-318934D01*
X-321056Y66746D01*
X-323211Y66462D01*
X-325219Y65631D01*
X-326944Y64307D01*
X-328267Y62583D01*
X-329099Y60575D01*
X-329382Y58420D01*
X-329099Y56265D01*
X-328866Y55705D01*
X-328797Y55179D01*
X-327901Y53017D01*
X-326477Y51160D01*
X-324619Y49735D01*
X-322457Y48839D01*
X-320136Y48533D01*
X-312500D01*
X-310179Y48839D01*
X-308017Y49735D01*
X-306160Y51160D01*
X-284529Y72790D01*
X-284061Y72540D01*
X-280040D01*
Y76561D01*
X-280290Y77029D01*
X-255034Y102285D01*
X-223520D01*
X-221199Y102591D01*
X-219037Y103487D01*
X-217180Y104911D01*
X-177352Y144740D01*
X-176084Y144656D01*
X-175560Y143972D01*
X-173835Y142649D01*
X-171827Y141817D01*
X-171766Y141809D01*
X-165600Y135644D01*
X-164115Y134504D01*
X-162891Y133997D01*
X-162385Y133787D01*
X-160528Y133543D01*
X-127148D01*
X-127099Y133505D01*
X-125091Y132673D01*
X-122936Y132390D01*
X-120781Y132673D01*
X-118773Y133505D01*
X-117049Y134828D01*
X-115725Y136553D01*
X-114894Y138561D01*
X-114610Y140716D01*
X-114894Y142871D01*
X-115725Y144879D01*
X-117049Y146603D01*
X-118773Y147927D01*
X-120781Y148758D01*
X-122936Y149042D01*
X-125091Y148758D01*
X-127099Y147927D01*
X-127148Y147889D01*
X-157557D01*
X-161621Y151954D01*
X-161630Y152015D01*
X-162461Y154023D01*
X-163785Y155747D01*
X-165509Y157071D01*
X-167517Y157902D01*
X-169672Y158186D01*
X-170926Y158021D01*
X-171881Y158858D01*
Y184658D01*
X-172187Y186979D01*
X-173083Y189141D01*
X-173987Y190320D01*
X-173425Y191459D01*
X-172266D01*
X-171549Y190909D01*
X-169541Y190077D01*
X-167386Y189794D01*
X-165231Y190077D01*
X-163223Y190909D01*
X-161499Y192232D01*
X-160175Y193957D01*
X-159344Y195965D01*
X-159060Y198120D01*
X-159344Y200275D01*
X-160175Y202283D01*
X-161499Y204007D01*
X-163223Y205331D01*
X-165231Y206162D01*
X-167386Y206446D01*
X-169541Y206162D01*
X-171549Y205331D01*
X-172266Y204781D01*
X-174533D01*
X-190108Y220356D01*
X-191488Y221415D01*
X-193094Y222080D01*
X-194818Y222307D01*
D02*
G37*
G36*
X-108204Y193239D02*
X-110151Y191938D01*
X-111451Y189992D01*
X-108204D01*
Y193239D01*
D02*
G37*
G36*
X-103124D02*
Y189992D01*
X-99877D01*
X-101178Y191938D01*
X-103124Y193239D01*
D02*
G37*
G36*
X-199644Y207463D02*
Y204216D01*
X-196397D01*
X-197698Y206162D01*
X-199644Y207463D01*
D02*
G37*
G36*
X-398553Y214912D02*
X-401800D01*
Y211665D01*
X-399854Y212965D01*
X-398553Y214912D01*
D02*
G37*
G36*
X-452600Y223239D02*
X-454547Y221938D01*
X-455847Y219992D01*
X-452600D01*
Y223239D01*
D02*
G37*
G36*
X-447520D02*
Y219992D01*
X-444273D01*
X-445574Y221938D01*
X-447520Y223239D01*
D02*
G37*
G36*
X-452600Y214912D02*
X-455847D01*
X-454547Y212965D01*
X-452600Y211665D01*
Y214912D01*
D02*
G37*
G36*
X-444273D02*
X-447520D01*
Y211665D01*
X-445574Y212965D01*
X-444273Y214912D01*
D02*
G37*
G36*
X-406880D02*
X-410127D01*
X-408826Y212965D01*
X-406880Y211665D01*
Y214912D01*
D02*
G37*
G36*
X-99877Y184912D02*
X-103124D01*
Y181665D01*
X-101178Y182965D01*
X-99877Y184912D01*
D02*
G37*
G36*
X540000Y179675D02*
X536162Y179297D01*
X532471Y178177D01*
X529069Y176359D01*
X526088Y173912D01*
X523641Y170931D01*
X521823Y167529D01*
X520703Y163838D01*
X520325Y160000D01*
X520703Y156162D01*
X521823Y152471D01*
X523641Y149069D01*
X526088Y146088D01*
X529069Y143641D01*
X532471Y141823D01*
X536162Y140703D01*
X540000Y140325D01*
X543838Y140703D01*
X547529Y141823D01*
X550931Y143641D01*
X553912Y146088D01*
X556359Y149069D01*
X558177Y152471D01*
X559297Y156162D01*
X559675Y160000D01*
X559297Y163838D01*
X558177Y167529D01*
X556359Y170931D01*
X553912Y173912D01*
X550931Y176359D01*
X547529Y178177D01*
X543838Y179297D01*
X540000Y179675D01*
D02*
G37*
G36*
X-66040Y191714D02*
X-68195Y191430D01*
X-70203Y190599D01*
X-71928Y189275D01*
X-73251Y187551D01*
X-74083Y185543D01*
X-74366Y183388D01*
X-74083Y181233D01*
X-73251Y179225D01*
X-73213Y179176D01*
Y155979D01*
X-73350Y154940D01*
X-73067Y152785D01*
X-72235Y150777D01*
X-70912Y149052D01*
X-69187Y147729D01*
X-67179Y146897D01*
X-65024Y146614D01*
X-62869Y146897D01*
X-60861Y147729D01*
X-59137Y149052D01*
X-57813Y150777D01*
X-56982Y152785D01*
X-56698Y154940D01*
X-56982Y157095D01*
X-57813Y159103D01*
X-58867Y160476D01*
Y179176D01*
X-58829Y179225D01*
X-57997Y181233D01*
X-57714Y183388D01*
X-57997Y185543D01*
X-58829Y187551D01*
X-60153Y189275D01*
X-61877Y190599D01*
X-63885Y191430D01*
X-66040Y191714D01*
D02*
G37*
G36*
X-242316Y152400D02*
X-245563D01*
X-244263Y150453D01*
X-242316Y149153D01*
Y152400D01*
D02*
G37*
G36*
X-479806Y124404D02*
X-481961Y124121D01*
X-483969Y123289D01*
X-484929Y122552D01*
X-511513D01*
X-512473Y123289D01*
X-514481Y124121D01*
X-516636Y124404D01*
X-518791Y124121D01*
X-520799Y123289D01*
X-522524Y121966D01*
X-523847Y120241D01*
X-524679Y118233D01*
X-524962Y116078D01*
X-524679Y113923D01*
X-523847Y111915D01*
X-522524Y110190D01*
X-520799Y108867D01*
X-518791Y108035D01*
X-516636Y107752D01*
X-514481Y108035D01*
X-512473Y108867D01*
X-511513Y109604D01*
X-508694D01*
X-508694Y109603D01*
X-507307D01*
X-507306Y109604D01*
X-484929D01*
X-483969Y108867D01*
X-481961Y108035D01*
X-479806Y107752D01*
X-477651Y108035D01*
X-475643Y108867D01*
X-473918Y110190D01*
X-472595Y111915D01*
X-471763Y113923D01*
X-471480Y116078D01*
X-471763Y118233D01*
X-472595Y120241D01*
X-473918Y121966D01*
X-475643Y123289D01*
X-477651Y124121D01*
X-479806Y124404D01*
D02*
G37*
G36*
X36576Y145994D02*
X34421Y145710D01*
X32413Y144879D01*
X30688Y143555D01*
X29365Y141831D01*
X28533Y139823D01*
X28250Y137668D01*
X28486Y135872D01*
X28448Y135834D01*
X26293Y135550D01*
X24285Y134719D01*
X22560Y133396D01*
X21237Y131671D01*
X20405Y129663D01*
X20122Y127508D01*
X20405Y125353D01*
X21172Y123503D01*
X20276Y122607D01*
X20273Y122605D01*
X19681Y122851D01*
X17526Y123134D01*
X15371Y122851D01*
X13363Y122019D01*
X12840Y121618D01*
X11656Y122527D01*
X9648Y123358D01*
X7493Y123642D01*
X5338Y123358D01*
X3330Y122527D01*
X1605Y121203D01*
X282Y119479D01*
X-550Y117471D01*
X-833Y115316D01*
X-550Y113161D01*
X282Y111153D01*
X1277Y109856D01*
Y68412D01*
X1224Y68372D01*
X-99Y66647D01*
X-931Y64639D01*
X-1214Y62484D01*
X-931Y60329D01*
X-99Y58321D01*
X701Y57278D01*
Y56964D01*
X1096Y54980D01*
X1175Y54585D01*
X1277Y54431D01*
Y43560D01*
X282Y42263D01*
X-550Y40255D01*
X-833Y38100D01*
X-550Y35945D01*
X282Y33937D01*
X1605Y32213D01*
X3330Y30889D01*
X5338Y30057D01*
X7493Y29774D01*
X9648Y30057D01*
X11656Y30889D01*
X11684Y30911D01*
X11712Y30889D01*
X13720Y30057D01*
X15875Y29774D01*
X18030Y30057D01*
X20038Y30889D01*
X21145Y31739D01*
X22253Y30889D01*
X24261Y30057D01*
X26416Y29774D01*
X28571Y30057D01*
X30579Y30889D01*
X31968Y31955D01*
X33667Y30651D01*
X35676Y29819D01*
X37831Y29535D01*
X39985Y29819D01*
X41280Y30355D01*
X42178Y29457D01*
X41642Y28162D01*
X41358Y26007D01*
X41642Y23853D01*
X42474Y21844D01*
X43797Y20120D01*
X45521Y18797D01*
X47530Y17965D01*
X47564Y17960D01*
X47569Y17925D01*
X48401Y15917D01*
X49724Y14193D01*
X51448Y12870D01*
X53456Y12038D01*
X53775Y11622D01*
X53650Y10668D01*
X53933Y8513D01*
X54765Y6505D01*
X56088Y4780D01*
X57813Y3457D01*
X59821Y2625D01*
X60595Y2524D01*
X60697Y1750D01*
X61529Y-258D01*
X62852Y-1983D01*
X64576Y-3306D01*
X66584Y-4138D01*
X68739Y-4422D01*
X70894Y-4138D01*
X72902Y-3306D01*
X74627Y-1983D01*
X75950Y-258D01*
X76782Y1750D01*
X77066Y3905D01*
X76911Y5076D01*
X90938Y19102D01*
X90938Y19102D01*
X92872Y21037D01*
X94276Y23137D01*
X94769Y25615D01*
Y36668D01*
X95723Y37505D01*
X97536Y37267D01*
X99691Y37550D01*
X101699Y38382D01*
X101767Y38435D01*
X103235Y38726D01*
X105252Y40074D01*
X132614Y67436D01*
X134235Y67649D01*
X136243Y68481D01*
X137968Y69804D01*
X139291Y71529D01*
X140122Y73537D01*
X140406Y75692D01*
X140122Y77847D01*
X139291Y79855D01*
X137968Y81580D01*
X136243Y82903D01*
X134235Y83735D01*
X132080Y84018D01*
X131119Y83892D01*
X130978Y84959D01*
X130147Y86967D01*
X128823Y88692D01*
X127099Y90015D01*
X125091Y90847D01*
X122936Y91130D01*
X120781Y90847D01*
X118773Y90015D01*
X117048Y88692D01*
X115725Y86967D01*
X114893Y84959D01*
X114610Y82804D01*
X114893Y80649D01*
X115048Y80277D01*
X97002Y62231D01*
X95723Y62063D01*
X94769Y62900D01*
Y124558D01*
X94276Y127035D01*
X92872Y129136D01*
X90938Y131070D01*
X90938Y131070D01*
X79762Y142246D01*
X77662Y143650D01*
X75184Y144142D01*
X41699D01*
X40739Y144879D01*
X38731Y145710D01*
X36576Y145994D01*
D02*
G37*
G36*
X-292862Y132853D02*
X-295363Y132523D01*
X-297693Y131558D01*
X-299695Y130022D01*
X-301230Y128021D01*
X-301597Y127136D01*
X-305595Y123138D01*
X-306734Y123700D01*
X-306634Y124460D01*
X-306917Y126615D01*
X-307749Y128623D01*
X-309072Y130347D01*
X-310797Y131671D01*
X-312805Y132502D01*
X-314960Y132786D01*
X-317115Y132502D01*
X-319123Y131671D01*
X-320848Y130347D01*
X-322171Y128623D01*
X-323003Y126615D01*
X-323120Y125720D01*
X-328895Y119945D01*
X-362912D01*
X-363629Y120495D01*
X-365637Y121327D01*
X-367792Y121610D01*
X-369947Y121327D01*
X-371955Y120495D01*
X-373680Y119171D01*
X-375003Y117447D01*
X-375835Y115439D01*
X-376118Y113284D01*
X-375835Y111129D01*
X-375003Y109121D01*
X-373680Y107396D01*
X-371955Y106073D01*
X-369947Y105241D01*
X-367792Y104958D01*
X-365637Y105241D01*
X-363629Y106073D01*
X-362912Y106623D01*
X-326136D01*
X-326136Y106623D01*
X-324412Y106850D01*
X-323102Y107393D01*
X-322396Y106337D01*
X-333152Y95581D01*
X-336718D01*
X-336722Y95586D01*
X-339350Y97603D01*
X-342410Y98870D01*
X-345694Y99303D01*
X-348978Y98870D01*
X-352038Y97603D01*
X-354666Y95586D01*
X-356683Y92958D01*
X-357268Y91544D01*
X-358514Y91792D01*
Y99194D01*
X-383674D01*
Y74034D01*
X-358514D01*
Y81436D01*
X-357268Y81684D01*
X-356683Y80270D01*
X-354666Y77642D01*
X-352038Y75625D01*
X-348978Y74358D01*
X-345694Y73925D01*
X-342410Y74358D01*
X-339350Y75625D01*
X-336722Y77642D01*
X-336718Y77647D01*
X-329438D01*
X-327117Y77953D01*
X-324955Y78849D01*
X-323098Y80274D01*
X-288916Y114455D01*
X-288031Y114822D01*
X-286029Y116357D01*
X-284494Y118359D01*
X-283529Y120689D01*
X-283199Y123190D01*
X-283529Y125691D01*
X-284494Y128021D01*
X-286029Y130022D01*
X-288031Y131558D01*
X-290361Y132523D01*
X-292862Y132853D01*
D02*
G37*
G36*
X-233989Y152400D02*
X-237236D01*
Y149153D01*
X-235289Y150453D01*
X-233989Y152400D01*
D02*
G37*
G36*
X-218948Y171903D02*
X-220895Y170602D01*
X-222195Y168656D01*
X-218948D01*
Y171903D01*
D02*
G37*
G36*
X-213868D02*
Y168656D01*
X-210621D01*
X-211922Y170602D01*
X-213868Y171903D01*
D02*
G37*
G36*
X-108204Y184912D02*
X-111451D01*
X-110151Y182965D01*
X-108204Y181665D01*
Y184912D01*
D02*
G37*
G36*
X-218948Y163576D02*
X-222195D01*
X-220895Y161629D01*
X-218948Y160329D01*
Y163576D01*
D02*
G37*
G36*
X-210621D02*
X-213868D01*
Y160329D01*
X-211922Y161629D01*
X-210621Y163576D01*
D02*
G37*
G36*
X168656Y217114D02*
X166501Y216831D01*
X164493Y215999D01*
X162768Y214676D01*
X161445Y212951D01*
X160613Y210943D01*
X160330Y208788D01*
X160613Y206633D01*
X160970Y205772D01*
Y171196D01*
X161232Y169207D01*
X161775Y167896D01*
X162000Y167353D01*
X163093Y165928D01*
X163477Y165001D01*
X164800Y163276D01*
X166525Y161953D01*
X168533Y161121D01*
X170688Y160838D01*
X172843Y161121D01*
X174851Y161953D01*
X176576Y163276D01*
X177899Y165001D01*
X178731Y167009D01*
X179014Y169164D01*
X178731Y171319D01*
X177899Y173327D01*
X176576Y175051D01*
X176342Y175231D01*
Y205772D01*
X176698Y206633D01*
X176982Y208788D01*
X176698Y210943D01*
X175867Y212951D01*
X174543Y214676D01*
X172819Y215999D01*
X170811Y216831D01*
X168656Y217114D01*
D02*
G37*
G36*
X-388592Y267744D02*
X-391839D01*
X-390538Y265797D01*
X-388592Y264497D01*
Y267744D01*
D02*
G37*
G36*
X-380265D02*
X-383512D01*
Y264497D01*
X-381566Y265797D01*
X-380265Y267744D01*
D02*
G37*
G36*
X-388592Y276071D02*
X-390538Y274771D01*
X-391839Y272824D01*
X-388592D01*
Y276071D01*
D02*
G37*
G36*
X150495Y251559D02*
X147511Y251166D01*
X144731Y250014D01*
X142343Y248182D01*
X140511Y245794D01*
X139359Y243014D01*
X138966Y240030D01*
X139359Y237046D01*
X140511Y234266D01*
X142343Y231878D01*
X144731Y230046D01*
X147511Y228894D01*
X150495Y228501D01*
X153479Y228894D01*
X156259Y230046D01*
X158647Y231878D01*
X160479Y234266D01*
X161631Y237046D01*
X162024Y240030D01*
X161631Y243014D01*
X160479Y245794D01*
X158647Y248182D01*
X156259Y250014D01*
X153479Y251166D01*
X150495Y251559D01*
D02*
G37*
G36*
X-428216Y233399D02*
X-430163Y232099D01*
X-431463Y230152D01*
X-428216D01*
Y233399D01*
D02*
G37*
G36*
X-423136D02*
Y230152D01*
X-419889D01*
X-421189Y232099D01*
X-423136Y233399D01*
D02*
G37*
G36*
X-383512Y276071D02*
Y272824D01*
X-380265D01*
X-381566Y274771D01*
X-383512Y276071D01*
D02*
G37*
G36*
X-357540Y305787D02*
X-359487Y304487D01*
X-360787Y302540D01*
X-357540D01*
Y305787D01*
D02*
G37*
G36*
X-212540Y313287D02*
X-214487Y311987D01*
X-215787Y310040D01*
X-212540D01*
Y313287D01*
D02*
G37*
G36*
X-207460D02*
Y310040D01*
X-204213D01*
X-205513Y311987D01*
X-207460Y313287D01*
D02*
G37*
G36*
X-357540Y289960D02*
X-360787D01*
X-359487Y288013D01*
X-357540Y286713D01*
Y289960D01*
D02*
G37*
G36*
X-212540Y304960D02*
X-215787D01*
X-214487Y303013D01*
X-212540Y301713D01*
Y304960D01*
D02*
G37*
G36*
X-204213D02*
X-207460D01*
Y301713D01*
X-205513Y303013D01*
X-204213Y304960D01*
D02*
G37*
G36*
X125095Y251559D02*
X122111Y251166D01*
X119331Y250014D01*
X116943Y248182D01*
X115111Y245794D01*
X113959Y243014D01*
X113566Y240030D01*
X113959Y237046D01*
X115111Y234266D01*
X116943Y231878D01*
X119331Y230046D01*
X122111Y228894D01*
X125095Y228501D01*
X128079Y228894D01*
X130859Y230046D01*
X133247Y231878D01*
X135079Y234266D01*
X136231Y237046D01*
X136624Y240030D01*
X136231Y243014D01*
X135079Y245794D01*
X133247Y248182D01*
X130859Y250014D01*
X128079Y251166D01*
X125095Y251559D01*
D02*
G37*
G36*
X-419889Y225072D02*
X-423136D01*
Y221825D01*
X-421189Y223125D01*
X-419889Y225072D01*
D02*
G37*
G36*
X-118745Y251559D02*
X-121729Y251166D01*
X-124509Y250014D01*
X-126897Y248182D01*
X-128729Y245794D01*
X-129881Y243014D01*
X-130274Y240030D01*
X-129881Y237046D01*
X-128729Y234266D01*
X-126897Y231878D01*
X-124509Y230046D01*
X-121729Y228894D01*
X-118745Y228501D01*
X-115761Y228894D01*
X-112981Y230046D01*
X-110593Y231878D01*
X-108761Y234266D01*
X-107609Y237046D01*
X-107216Y240030D01*
X-107609Y243014D01*
X-108761Y245794D01*
X-110593Y248182D01*
X-112981Y250014D01*
X-115761Y251166D01*
X-118745Y251559D01*
D02*
G37*
G36*
X-93345D02*
X-96329Y251166D01*
X-99109Y250014D01*
X-101497Y248182D01*
X-103329Y245794D01*
X-104481Y243014D01*
X-104874Y240030D01*
X-104481Y237046D01*
X-103329Y234266D01*
X-101497Y231878D01*
X-99109Y230046D01*
X-96329Y228894D01*
X-93345Y228501D01*
X-90361Y228894D01*
X-87581Y230046D01*
X-85193Y231878D01*
X-83361Y234266D01*
X-82209Y237046D01*
X-81816Y240030D01*
X-82209Y243014D01*
X-83361Y245794D01*
X-85193Y248182D01*
X-87581Y250014D01*
X-90361Y251166D01*
X-93345Y251559D01*
D02*
G37*
G36*
X-406880Y223239D02*
X-408826Y221938D01*
X-410127Y219992D01*
X-406880D01*
Y223239D01*
D02*
G37*
G36*
X-401800D02*
Y219992D01*
X-398553D01*
X-399854Y221938D01*
X-401800Y223239D01*
D02*
G37*
G36*
X-428216Y225072D02*
X-431463D01*
X-430163Y223125D01*
X-428216Y221825D01*
Y225072D01*
D02*
G37*
G36*
X-67945Y251559D02*
X-70929Y251166D01*
X-73709Y250014D01*
X-76097Y248182D01*
X-77929Y245794D01*
X-79081Y243014D01*
X-79474Y240030D01*
X-79081Y237046D01*
X-77929Y234266D01*
X-76097Y231878D01*
X-73709Y230046D01*
X-70929Y228894D01*
X-67945Y228501D01*
X-64961Y228894D01*
X-62181Y230046D01*
X-59793Y231878D01*
X-57961Y234266D01*
X-56809Y237046D01*
X-56416Y240030D01*
X-56809Y243014D01*
X-57961Y245794D01*
X-59793Y248182D01*
X-62181Y250014D01*
X-64961Y251166D01*
X-67945Y251559D01*
D02*
G37*
G36*
X48895D02*
X45911Y251166D01*
X43131Y250014D01*
X40743Y248182D01*
X38911Y245794D01*
X37759Y243014D01*
X37366Y240030D01*
X37759Y237046D01*
X38911Y234266D01*
X40743Y231878D01*
X43131Y230046D01*
X45911Y228894D01*
X48895Y228501D01*
X51879Y228894D01*
X54659Y230046D01*
X57047Y231878D01*
X58879Y234266D01*
X60031Y237046D01*
X60424Y240030D01*
X60031Y243014D01*
X58879Y245794D01*
X57047Y248182D01*
X54659Y250014D01*
X51879Y251166D01*
X48895Y251559D01*
D02*
G37*
G36*
X74295D02*
X71311Y251166D01*
X68531Y250014D01*
X66143Y248182D01*
X64311Y245794D01*
X63159Y243014D01*
X62766Y240030D01*
X63159Y237046D01*
X64311Y234266D01*
X66143Y231878D01*
X68531Y230046D01*
X71311Y228894D01*
X74295Y228501D01*
X77279Y228894D01*
X80059Y230046D01*
X82447Y231878D01*
X84279Y234266D01*
X85431Y237046D01*
X85824Y240030D01*
X85431Y243014D01*
X84279Y245794D01*
X82447Y248182D01*
X80059Y250014D01*
X77279Y251166D01*
X74295Y251559D01*
D02*
G37*
G36*
X99695D02*
X96711Y251166D01*
X93931Y250014D01*
X91543Y248182D01*
X89711Y245794D01*
X88559Y243014D01*
X88166Y240030D01*
X88559Y237046D01*
X89711Y234266D01*
X91543Y231878D01*
X93931Y230046D01*
X96711Y228894D01*
X99695Y228501D01*
X102679Y228894D01*
X105459Y230046D01*
X107847Y231878D01*
X109679Y234266D01*
X110831Y237046D01*
X111224Y240030D01*
X110831Y243014D01*
X109679Y245794D01*
X107847Y248182D01*
X105459Y250014D01*
X102679Y251166D01*
X99695Y251559D01*
D02*
G37*
G36*
X-27305D02*
X-30289Y251166D01*
X-33069Y250014D01*
X-35457Y248182D01*
X-37289Y245794D01*
X-38441Y243014D01*
X-38834Y240030D01*
X-38441Y237046D01*
X-37289Y234266D01*
X-35457Y231878D01*
X-33069Y230046D01*
X-30289Y228894D01*
X-27305Y228501D01*
X-24321Y228894D01*
X-21541Y230046D01*
X-19153Y231878D01*
X-17321Y234266D01*
X-16169Y237046D01*
X-15776Y240030D01*
X-16169Y243014D01*
X-17321Y245794D01*
X-19153Y248182D01*
X-21541Y250014D01*
X-24321Y251166D01*
X-27305Y251559D01*
D02*
G37*
G36*
X-1905D02*
X-4889Y251166D01*
X-7669Y250014D01*
X-10057Y248182D01*
X-11889Y245794D01*
X-13041Y243014D01*
X-13434Y240030D01*
X-13041Y237046D01*
X-11889Y234266D01*
X-10057Y231878D01*
X-7669Y230046D01*
X-4889Y228894D01*
X-1905Y228501D01*
X1079Y228894D01*
X3859Y230046D01*
X6247Y231878D01*
X8079Y234266D01*
X9231Y237046D01*
X9624Y240030D01*
X9231Y243014D01*
X8079Y245794D01*
X6247Y248182D01*
X3859Y250014D01*
X1079Y251166D01*
X-1905Y251559D01*
D02*
G37*
G36*
X23495D02*
X20511Y251166D01*
X17731Y250014D01*
X15343Y248182D01*
X13511Y245794D01*
X12359Y243014D01*
X11966Y240030D01*
X12359Y237046D01*
X13511Y234266D01*
X15343Y231878D01*
X17731Y230046D01*
X20511Y228894D01*
X23495Y228501D01*
X26479Y228894D01*
X29259Y230046D01*
X31647Y231878D01*
X33479Y234266D01*
X34631Y237046D01*
X35024Y240030D01*
X34631Y243014D01*
X33479Y245794D01*
X31647Y248182D01*
X29259Y250014D01*
X26479Y251166D01*
X23495Y251559D01*
D02*
G37*
G36*
X102616Y142946D02*
X100461Y142662D01*
X98453Y141831D01*
X96728Y140507D01*
X95405Y138783D01*
X94573Y136775D01*
X94290Y134620D01*
X94573Y132465D01*
X95405Y130457D01*
X96728Y128732D01*
X98453Y127409D01*
X100461Y126577D01*
X102082Y126364D01*
X108578Y119868D01*
X108514Y119380D01*
X108797Y117225D01*
X109629Y115217D01*
X110952Y113492D01*
X112677Y112169D01*
X114685Y111337D01*
X116840Y111054D01*
X118995Y111337D01*
X121003Y112169D01*
X122727Y113492D01*
X124051Y115217D01*
X124882Y117225D01*
X125166Y119380D01*
X124882Y121535D01*
X124051Y123543D01*
X122727Y125267D01*
X121003Y126591D01*
X118995Y127423D01*
X118544Y127482D01*
X110872Y135154D01*
X110659Y136775D01*
X109827Y138783D01*
X108504Y140507D01*
X106779Y141831D01*
X104771Y142662D01*
X102616Y142946D01*
D02*
G37*
G36*
X-450850Y22043D02*
Y18796D01*
X-447603D01*
X-448904Y20742D01*
X-450850Y22043D01*
D02*
G37*
G36*
X-402590Y25146D02*
X-405837D01*
X-404537Y23199D01*
X-402590Y21899D01*
Y25146D01*
D02*
G37*
G36*
X-394263D02*
X-397510D01*
Y21899D01*
X-395564Y23199D01*
X-394263Y25146D01*
D02*
G37*
G36*
X-98044Y17471D02*
X-99991Y16171D01*
X-101291Y14224D01*
X-98044D01*
Y17471D01*
D02*
G37*
G36*
X-111760Y99258D02*
X-113915Y98975D01*
X-115923Y98143D01*
X-117648Y96819D01*
X-118971Y95095D01*
X-119803Y93087D01*
X-120086Y90932D01*
X-119803Y88777D01*
X-118971Y86769D01*
X-117648Y85044D01*
X-116217Y83947D01*
Y82677D01*
X-117648Y81580D01*
X-118971Y79855D01*
X-119803Y77847D01*
X-120086Y75692D01*
X-119803Y73537D01*
X-118971Y71529D01*
X-118538Y70965D01*
X-118867Y69738D01*
X-118971Y69695D01*
X-120696Y68372D01*
X-122019Y66647D01*
X-122851Y64639D01*
X-123134Y62484D01*
X-122851Y60329D01*
X-122019Y58321D01*
X-120696Y56596D01*
X-118971Y55273D01*
X-116963Y54441D01*
X-115342Y54228D01*
X-91559Y30445D01*
Y17880D01*
X-92680Y17281D01*
X-92964Y17471D01*
Y11684D01*
Y5897D01*
X-92680Y6087D01*
X-91559Y5488D01*
Y-1524D01*
X-91165Y-3508D01*
X-91086Y-3903D01*
X-89739Y-5919D01*
X-87504Y-8154D01*
X-87291Y-9775D01*
X-86459Y-11783D01*
X-85136Y-13508D01*
X-83411Y-14831D01*
X-81403Y-15663D01*
X-79248Y-15946D01*
X-77093Y-15663D01*
X-75085Y-14831D01*
X-73361Y-13508D01*
X-72037Y-11783D01*
X-71206Y-9775D01*
X-70922Y-7620D01*
X-71206Y-5465D01*
X-72037Y-3457D01*
X-73361Y-1733D01*
X-75085Y-409D01*
X-77093Y422D01*
X-78714Y636D01*
X-79129Y1050D01*
Y16745D01*
X-77926Y17153D01*
X-77008Y15956D01*
X-75283Y14633D01*
X-73275Y13801D01*
X-71120Y13518D01*
X-68965Y13801D01*
X-67474Y14419D01*
X-66418Y13713D01*
Y1567D01*
X-67155Y607D01*
X-67987Y-1401D01*
X-68270Y-3556D01*
X-67987Y-5711D01*
X-67155Y-7719D01*
X-65832Y-9444D01*
X-64107Y-10767D01*
X-62099Y-11599D01*
X-59944Y-11882D01*
X-57789Y-11599D01*
X-55781Y-10767D01*
X-54057Y-9444D01*
X-52733Y-7719D01*
X-51901Y-5711D01*
X-51618Y-3556D01*
X-51901Y-1401D01*
X-52733Y607D01*
X-53470Y1567D01*
Y39116D01*
X-53962Y41594D01*
X-55366Y43694D01*
X-103560Y91888D01*
X-103717Y93087D01*
X-104549Y95095D01*
X-105872Y96819D01*
X-107597Y98143D01*
X-109605Y98975D01*
X-111760Y99258D01*
D02*
G37*
G36*
X-455930Y22043D02*
X-457877Y20742D01*
X-459177Y18796D01*
X-455930D01*
Y22043D01*
D02*
G37*
G36*
X-180040Y29960D02*
X-183287D01*
X-181987Y28014D01*
X-180040Y26713D01*
Y29960D01*
D02*
G37*
G36*
Y38287D02*
X-181987Y36986D01*
X-183287Y35040D01*
X-180040D01*
Y38287D01*
D02*
G37*
G36*
X-174960D02*
Y35040D01*
X-171713D01*
X-173013Y36986D01*
X-174960Y38287D01*
D02*
G37*
G36*
X-363728Y47244D02*
X-366975D01*
X-365675Y45297D01*
X-363728Y43997D01*
Y47244D01*
D02*
G37*
G36*
X-171713Y29960D02*
X-174960D01*
Y26713D01*
X-173013Y28014D01*
X-171713Y29960D01*
D02*
G37*
G36*
X-402590Y33473D02*
X-404537Y32173D01*
X-405837Y30226D01*
X-402590D01*
Y33473D01*
D02*
G37*
G36*
X-397510D02*
Y30226D01*
X-394263D01*
X-395564Y32173D01*
X-397510Y33473D01*
D02*
G37*
G36*
X-447603Y13716D02*
X-450850D01*
Y10469D01*
X-448904Y11769D01*
X-447603Y13716D01*
D02*
G37*
G36*
X-372872Y-1524D02*
X-376119D01*
X-374819Y-3471D01*
X-372872Y-4771D01*
Y-1524D01*
D02*
G37*
G36*
X-364545D02*
X-367792D01*
Y-4771D01*
X-365845Y-3471D01*
X-364545Y-1524D01*
D02*
G37*
G36*
X-220980Y3247D02*
X-222927Y1946D01*
X-224227Y-0D01*
X-220980D01*
Y3247D01*
D02*
G37*
G36*
X-212653Y-5080D02*
X-215900D01*
Y-8327D01*
X-213953Y-7027D01*
X-212653Y-5080D01*
D02*
G37*
G36*
X-182372Y-3865D02*
X-184319Y-5166D01*
X-185619Y-7112D01*
X-182372D01*
Y-3865D01*
D02*
G37*
G36*
X-177292D02*
Y-7112D01*
X-174045D01*
X-175345Y-5166D01*
X-177292Y-3865D01*
D02*
G37*
G36*
X-215900Y3247D02*
Y-0D01*
X-212653D01*
X-213953Y1946D01*
X-215900Y3247D01*
D02*
G37*
G36*
X-479298Y67000D02*
X-481453Y66716D01*
X-483461Y65885D01*
X-485186Y64562D01*
X-486509Y62837D01*
X-487341Y60829D01*
X-487624Y58674D01*
X-487341Y56519D01*
X-486509Y54511D01*
X-485773Y53551D01*
Y33782D01*
X-485280Y31304D01*
X-485010Y30902D01*
Y18339D01*
X-485747Y17379D01*
X-486579Y15371D01*
X-486862Y13216D01*
X-486579Y11061D01*
X-485747Y9053D01*
X-484424Y7329D01*
X-482699Y6005D01*
X-480691Y5174D01*
X-478536Y4890D01*
X-476381Y5174D01*
X-474373Y6005D01*
X-472649Y7329D01*
X-471325Y9053D01*
X-470494Y11061D01*
X-470210Y13216D01*
X-470494Y15371D01*
X-471325Y17379D01*
X-472062Y18339D01*
Y33020D01*
X-472555Y35498D01*
X-472824Y35900D01*
Y53551D01*
X-472087Y54511D01*
X-471255Y56519D01*
X-470972Y58674D01*
X-471255Y60829D01*
X-472087Y62837D01*
X-473410Y64562D01*
X-475135Y65885D01*
X-477143Y66716D01*
X-479298Y67000D01*
D02*
G37*
G36*
X-98044Y9144D02*
X-101291D01*
X-99991Y7197D01*
X-98044Y5897D01*
Y9144D01*
D02*
G37*
G36*
X-455930Y13716D02*
X-459177D01*
X-457877Y11769D01*
X-455930Y10469D01*
Y13716D01*
D02*
G37*
G36*
X-438912Y7818D02*
X-441067Y7534D01*
X-443075Y6703D01*
X-444800Y5379D01*
X-446123Y3655D01*
X-446166Y3550D01*
X-447393Y3222D01*
X-447957Y3655D01*
X-449965Y4487D01*
X-452120Y4770D01*
X-454275Y4487D01*
X-456283Y3655D01*
X-458008Y2332D01*
X-459331Y607D01*
X-460163Y-1401D01*
X-460446Y-3556D01*
X-460163Y-5711D01*
X-459331Y-7719D01*
X-458008Y-9444D01*
X-456283Y-10767D01*
X-454275Y-11599D01*
X-452654Y-11812D01*
X-451223Y-13243D01*
Y-19932D01*
X-452343Y-20531D01*
X-452460Y-20453D01*
Y-25428D01*
X-457540D01*
Y-20453D01*
X-459000Y-21428D01*
X-459365Y-21975D01*
X-460635D01*
X-461000Y-21428D01*
X-462460Y-20453D01*
Y-25428D01*
X-465000D01*
Y-27968D01*
X-469975D01*
X-469000Y-29428D01*
X-468453Y-29793D01*
Y-31063D01*
X-469000Y-31428D01*
X-469975Y-32888D01*
X-465000D01*
Y-35428D01*
X-462460D01*
Y-40403D01*
X-461000Y-39428D01*
X-460635Y-38881D01*
X-459365D01*
X-459000Y-39428D01*
X-457540Y-40403D01*
Y-35428D01*
X-452460D01*
Y-40403D01*
X-452343Y-40325D01*
X-451223Y-40924D01*
Y-63973D01*
X-457734Y-70484D01*
X-459355Y-70697D01*
X-461363Y-71529D01*
X-463088Y-72853D01*
X-464411Y-74577D01*
X-465243Y-76585D01*
X-465526Y-78740D01*
X-465243Y-80895D01*
X-464411Y-82903D01*
X-463088Y-84628D01*
X-461363Y-85951D01*
X-459355Y-86783D01*
X-457200Y-87066D01*
X-455045Y-86783D01*
X-453037Y-85951D01*
X-451312Y-84628D01*
X-449989Y-82903D01*
X-449157Y-80895D01*
X-448944Y-79274D01*
X-440613Y-70943D01*
X-439266Y-68927D01*
X-438793Y-66548D01*
Y-51922D01*
X-437737Y-51216D01*
X-436495Y-51731D01*
X-435296Y-51888D01*
X-423035Y-64150D01*
Y-71585D01*
X-423771Y-72545D01*
X-424140Y-73435D01*
X-425403Y-73560D01*
X-426297Y-72221D01*
X-428244Y-70921D01*
Y-76708D01*
Y-82495D01*
X-426297Y-81195D01*
X-425403Y-79857D01*
X-424140Y-79981D01*
X-423771Y-80871D01*
X-422448Y-82596D01*
X-420723Y-83919D01*
X-418715Y-84751D01*
X-416560Y-85034D01*
X-414405Y-84751D01*
X-412397Y-83919D01*
X-410672Y-82596D01*
X-409349Y-80871D01*
X-408517Y-78863D01*
X-408234Y-76708D01*
X-408517Y-74553D01*
X-409349Y-72545D01*
X-410086Y-71585D01*
Y-66972D01*
X-409030Y-66266D01*
X-408555Y-66463D01*
X-406400Y-66746D01*
X-404245Y-66463D01*
X-402237Y-65631D01*
X-400513Y-64308D01*
X-399189Y-62583D01*
X-398358Y-60575D01*
X-398074Y-58420D01*
X-398358Y-56265D01*
X-399189Y-54257D01*
X-400513Y-52533D01*
X-402237Y-51209D01*
X-404245Y-50377D01*
X-405140Y-50260D01*
X-432251Y-23149D01*
Y-5388D01*
X-431701Y-4671D01*
X-430869Y-2663D01*
X-430586Y-508D01*
X-430869Y1647D01*
X-431701Y3655D01*
X-433024Y5379D01*
X-434749Y6703D01*
X-436757Y7534D01*
X-438912Y7818D01*
D02*
G37*
G36*
X-372872Y6803D02*
X-374819Y5502D01*
X-376119Y3556D01*
X-372872D01*
Y6803D01*
D02*
G37*
G36*
X-367792D02*
Y3556D01*
X-364545D01*
X-365845Y5502D01*
X-367792Y6803D01*
D02*
G37*
G36*
X-139700Y74367D02*
Y71120D01*
X-136453D01*
X-137753Y73067D01*
X-139700Y74367D01*
D02*
G37*
G36*
X-83312Y128722D02*
X-85467Y128439D01*
X-87475Y127607D01*
X-89200Y126284D01*
X-90523Y124559D01*
X-91355Y122551D01*
X-91638Y120396D01*
X-91355Y118241D01*
X-90523Y116233D01*
X-89787Y115273D01*
Y101092D01*
X-89294Y98614D01*
X-87890Y96514D01*
X-85822Y94446D01*
X-87067Y92583D01*
X-83960D01*
X-83319Y91941D01*
X-82888Y91654D01*
X-81280Y90046D01*
Y90043D01*
X-81277D01*
X-79580Y88345D01*
X-79347Y87785D01*
X-78740Y86993D01*
Y84256D01*
X-77100Y85352D01*
X-76299Y84737D01*
X-74291Y83905D01*
X-72136Y83622D01*
X-69981Y83905D01*
X-67973Y84737D01*
X-66248Y86060D01*
X-64925Y87785D01*
X-64093Y89793D01*
X-63810Y91948D01*
X-64093Y94103D01*
X-64925Y96111D01*
X-66248Y97836D01*
X-67973Y99159D01*
X-69981Y99991D01*
X-72136Y100274D01*
X-73072Y100151D01*
X-74019Y101098D01*
X-74450Y101386D01*
X-76838Y103774D01*
Y115273D01*
X-76101Y116233D01*
X-75269Y118241D01*
X-74986Y120396D01*
X-75269Y122551D01*
X-76101Y124559D01*
X-77425Y126284D01*
X-79149Y127607D01*
X-81157Y128439D01*
X-83312Y128722D01*
D02*
G37*
G36*
X-83820Y87503D02*
X-87067D01*
X-85767Y85556D01*
X-83820Y84256D01*
Y87503D01*
D02*
G37*
G36*
X-407540Y73547D02*
X-409000Y72572D01*
X-409975Y71112D01*
X-407540D01*
Y73547D01*
D02*
G37*
G36*
X-402460D02*
Y71112D01*
X-400025D01*
X-401000Y72572D01*
X-402460Y73547D01*
D02*
G37*
G36*
X-144780Y74367D02*
X-146727Y73067D01*
X-148027Y71120D01*
X-144780D01*
Y74367D01*
D02*
G37*
G36*
X282448Y101290D02*
X280293Y101006D01*
X278285Y100175D01*
X276988Y99179D01*
X202184D01*
X199805Y98706D01*
X199136Y98259D01*
X197789Y97359D01*
X165065Y64635D01*
X152780D01*
X151483Y65631D01*
X149475Y66462D01*
X147320Y66746D01*
X145165Y66462D01*
X143157Y65631D01*
X141432Y64307D01*
X140109Y62583D01*
X139277Y60575D01*
X138994Y58420D01*
X139277Y56265D01*
X140109Y54257D01*
X141432Y52532D01*
X143157Y51209D01*
X144129Y50806D01*
X144731Y49354D01*
X142343Y47522D01*
X140511Y45134D01*
X139359Y42354D01*
X138966Y39370D01*
X139359Y36386D01*
X140511Y33606D01*
X142343Y31218D01*
X144731Y29386D01*
X147511Y28234D01*
X150495Y27841D01*
X153479Y28234D01*
X156259Y29386D01*
X158647Y31218D01*
X160479Y33606D01*
X161631Y36386D01*
X162024Y39370D01*
X161631Y42354D01*
X160479Y45134D01*
X160478Y45135D01*
X162468Y47125D01*
X166002D01*
X166564Y45985D01*
X165911Y45134D01*
X164759Y42354D01*
X164366Y39370D01*
X164759Y36386D01*
X165911Y33606D01*
X167743Y31218D01*
X170131Y29386D01*
X171114Y28979D01*
X171482Y27763D01*
X170153Y25774D01*
X170074Y25379D01*
X169730Y23646D01*
X167743Y22122D01*
X165911Y19734D01*
X164759Y16954D01*
X164366Y13970D01*
X164759Y10986D01*
X165275Y9742D01*
X164219Y9036D01*
X161705Y11550D01*
X162024Y13970D01*
X161631Y16954D01*
X160479Y19734D01*
X158647Y22122D01*
X156259Y23954D01*
X153479Y25106D01*
X150495Y25499D01*
X147511Y25106D01*
X144731Y23954D01*
X142343Y22122D01*
X140511Y19734D01*
X139359Y16954D01*
X138966Y13970D01*
X139359Y10986D01*
X140511Y8206D01*
X142343Y5818D01*
X144731Y3986D01*
X147511Y2834D01*
X150495Y2441D01*
X152915Y2760D01*
X155429Y246D01*
X154723Y-810D01*
X153479Y-294D01*
X150495Y99D01*
X147511Y-294D01*
X144731Y-1446D01*
X142343Y-3278D01*
X140511Y-5666D01*
X139359Y-8446D01*
X138966Y-11430D01*
X139359Y-14414D01*
X140511Y-17194D01*
X142343Y-19582D01*
X144731Y-21414D01*
X147511Y-22566D01*
X150495Y-22959D01*
X153479Y-22566D01*
X156259Y-21414D01*
X158647Y-19582D01*
X160479Y-17194D01*
X161631Y-14414D01*
X162024Y-11430D01*
X161631Y-8446D01*
X160745Y-6308D01*
X161727Y-5502D01*
X162087Y-5742D01*
X164465Y-6215D01*
X166740D01*
X167445Y-7271D01*
X166775Y-8890D01*
X185015D01*
X184104Y-6690D01*
X183604Y-6038D01*
X183811Y-4785D01*
X184395Y-4395D01*
X190645Y1855D01*
X191992Y3871D01*
X192071Y4266D01*
X192465Y6250D01*
Y13544D01*
X193420Y14382D01*
X195000Y14174D01*
X197155Y14457D01*
X199163Y15289D01*
X200888Y16612D01*
X202211Y18337D01*
X203043Y20345D01*
X203326Y22500D01*
X203283Y22830D01*
X204120Y23784D01*
X216420D01*
Y22492D01*
X248580D01*
Y25856D01*
X266457D01*
X268441Y26251D01*
X268836Y26330D01*
X270852Y27677D01*
X274492Y31316D01*
X276112Y31530D01*
X278121Y32361D01*
X279845Y33684D01*
X280588Y34653D01*
X281859D01*
X282602Y33684D01*
X284326Y32361D01*
X286334Y31530D01*
X288489Y31246D01*
X290644Y31530D01*
X292653Y32361D01*
X294377Y33684D01*
X295121Y34653D01*
X296390D01*
X297134Y33684D01*
X298858Y32361D01*
X300867Y31530D01*
X303022Y31246D01*
X305177Y31530D01*
X307185Y32361D01*
X308909Y33684D01*
X310232Y35409D01*
X311064Y37417D01*
X311348Y39572D01*
X311064Y41727D01*
X310232Y43735D01*
X308909Y45459D01*
X307185Y46783D01*
X305177Y47614D01*
X303556Y47828D01*
X274911Y76472D01*
X272895Y77819D01*
X272500Y77898D01*
X270516Y78292D01*
X248580D01*
Y86652D01*
D01*
Y86652D01*
X248677Y86749D01*
X276988D01*
X278285Y85753D01*
X280293Y84921D01*
X282448Y84638D01*
X284603Y84921D01*
X286611Y85753D01*
X288335Y87076D01*
X289659Y88801D01*
X290490Y90809D01*
X290774Y92964D01*
X290490Y95119D01*
X289659Y97127D01*
X288335Y98851D01*
X286611Y100175D01*
X284603Y101006D01*
X282448Y101290D01*
D02*
G37*
G36*
X422483Y189509D02*
X420328Y189225D01*
X418320Y188393D01*
X416595Y187070D01*
X415272Y185346D01*
X414440Y183338D01*
X414156Y181183D01*
X414440Y179028D01*
X415272Y177020D01*
X416595Y175295D01*
X418320Y173972D01*
X420328Y173140D01*
X421949Y172927D01*
X479299Y115577D01*
X481315Y114230D01*
X483693Y113757D01*
X529060D01*
X529812Y112900D01*
X530244Y109616D01*
X531511Y106556D01*
X533528Y103928D01*
X536053Y101990D01*
X535645Y100787D01*
X483256D01*
X426592Y148394D01*
X426474Y149287D01*
X425643Y151295D01*
X424319Y153020D01*
X422595Y154343D01*
X420587Y155175D01*
X418432Y155458D01*
X416277Y155175D01*
X414269Y154343D01*
X412544Y153020D01*
X411221Y151295D01*
X410389Y149287D01*
X410106Y147132D01*
X410389Y144977D01*
X411221Y142969D01*
X412544Y141244D01*
X414269Y139921D01*
X416277Y139089D01*
X418432Y138806D01*
X418646Y138834D01*
X476994Y89813D01*
X477825Y89356D01*
X478613Y88830D01*
X478881Y88777D01*
X479119Y88645D01*
X480062Y88542D01*
X480992Y88357D01*
X529920D01*
Y74920D01*
X555080D01*
Y100080D01*
X547678D01*
X547430Y101326D01*
X548844Y101911D01*
X551472Y103928D01*
X553489Y106556D01*
X554756Y109616D01*
X555189Y112900D01*
X554756Y116184D01*
X553489Y119244D01*
X551472Y121872D01*
X548844Y123889D01*
X545784Y125156D01*
X542583Y125578D01*
X542379Y125714D01*
X540000Y126187D01*
X486268D01*
X430739Y181717D01*
X430525Y183338D01*
X429693Y185346D01*
X428370Y187070D01*
X426646Y188393D01*
X424638Y189225D01*
X422483Y189509D01*
D02*
G37*
G36*
X-510540Y107895D02*
X-512487Y106594D01*
X-513787Y104648D01*
X-510540D01*
Y107895D01*
D02*
G37*
G36*
X-505460D02*
Y104648D01*
X-502213D01*
X-503513Y106594D01*
X-505460Y107895D01*
D02*
G37*
G36*
X-510540Y99568D02*
X-513787D01*
X-512487Y97621D01*
X-510540Y96321D01*
Y99568D01*
D02*
G37*
G36*
X-502213D02*
X-505460D01*
Y96321D01*
X-503513Y97621D01*
X-502213Y99568D01*
D02*
G37*
G36*
X-550000Y129426D02*
X-553741Y128933D01*
X-557227Y127489D01*
X-560220Y125192D01*
X-562517Y122199D01*
X-563961Y118713D01*
X-564454Y114972D01*
X-563961Y111231D01*
X-562517Y107745D01*
X-560220Y104752D01*
X-557227Y102455D01*
X-553741Y101011D01*
X-550000Y100518D01*
X-546259Y101011D01*
X-542773Y102455D01*
X-539780Y104752D01*
X-537483Y107745D01*
X-536039Y111231D01*
X-535546Y114972D01*
X-536039Y118713D01*
X-537483Y122199D01*
X-539780Y125192D01*
X-542773Y127489D01*
X-546259Y128933D01*
X-550000Y129426D01*
D02*
G37*
G36*
X-235712Y100274D02*
X-237867Y99991D01*
X-239875Y99159D01*
X-241600Y97836D01*
X-242923Y96111D01*
X-243486Y94752D01*
X-269997Y68241D01*
X-270330Y67806D01*
X-271487Y68331D01*
X-271155Y70000D01*
X-271638Y72428D01*
X-273013Y74486D01*
X-274960Y75787D01*
Y70000D01*
Y64213D01*
X-273053Y65487D01*
X-272071Y64682D01*
X-272119Y64566D01*
X-272398Y62444D01*
Y-15862D01*
X-273172Y-16456D01*
X-275189Y-19084D01*
X-275774Y-20498D01*
X-277020Y-20250D01*
Y-12848D01*
X-302180D01*
Y-38008D01*
X-277020D01*
Y-30606D01*
X-275774Y-30358D01*
X-275189Y-31772D01*
X-273172Y-34400D01*
X-270544Y-36417D01*
X-267484Y-37684D01*
X-264200Y-38117D01*
X-260916Y-37684D01*
X-257856Y-36417D01*
X-255228Y-34400D01*
X-253211Y-31772D01*
X-251944Y-28712D01*
X-251511Y-25428D01*
X-251944Y-22144D01*
X-253211Y-19084D01*
X-255228Y-16456D01*
X-256002Y-15862D01*
Y59048D01*
X-246986Y68064D01*
X-245866Y67466D01*
X-246250Y65532D01*
Y14775D01*
X-246987Y13815D01*
X-247819Y11807D01*
X-248102Y9652D01*
X-247819Y7497D01*
X-246987Y5489D01*
X-245664Y3764D01*
X-243939Y2441D01*
X-241931Y1609D01*
X-239776Y1326D01*
X-237621Y1609D01*
X-235613Y2441D01*
X-233888Y3764D01*
X-232565Y5489D01*
X-231733Y7497D01*
X-231450Y9652D01*
X-231733Y11807D01*
X-232565Y13815D01*
X-233302Y14775D01*
Y62850D01*
X-219352Y76800D01*
X-218153Y76958D01*
X-216145Y77789D01*
X-214421Y79113D01*
X-213097Y80837D01*
X-212265Y82845D01*
X-211982Y85000D01*
X-212265Y87155D01*
X-213097Y89163D01*
X-214421Y90887D01*
X-216145Y92211D01*
X-218153Y93042D01*
X-220308Y93326D01*
X-222463Y93042D01*
X-224471Y92211D01*
X-226196Y90887D01*
X-226285Y90770D01*
X-226418Y90788D01*
X-227481Y91228D01*
X-227386Y91948D01*
X-227670Y94103D01*
X-228501Y96111D01*
X-229825Y97836D01*
X-231549Y99159D01*
X-233557Y99991D01*
X-235712Y100274D01*
D02*
G37*
G36*
X-363728Y55571D02*
X-365675Y54271D01*
X-366975Y52324D01*
X-363728D01*
Y55571D01*
D02*
G37*
G36*
X-358648D02*
Y52324D01*
X-355401D01*
X-356702Y54271D01*
X-358648Y55571D01*
D02*
G37*
G36*
X-407540Y58032D02*
X-409975D01*
X-409000Y56572D01*
X-407540Y55597D01*
Y58032D01*
D02*
G37*
G36*
X-355401Y47244D02*
X-358648D01*
Y43997D01*
X-356702Y45297D01*
X-355401Y47244D01*
D02*
G37*
G36*
X-552540Y61632D02*
X-562298D01*
Y51874D01*
X-552540D01*
Y61632D01*
D02*
G37*
G36*
X-537702D02*
X-547460D01*
Y51874D01*
X-537702D01*
Y61632D01*
D02*
G37*
G36*
X-400025Y58032D02*
X-402460D01*
Y55597D01*
X-401000Y56572D01*
X-400025Y58032D01*
D02*
G37*
G36*
X-280040Y67460D02*
X-283287D01*
X-281987Y65514D01*
X-280040Y64213D01*
Y67460D01*
D02*
G37*
G36*
X-552540Y76470D02*
X-562298D01*
Y66712D01*
X-552540D01*
Y76470D01*
D02*
G37*
G36*
X-537702D02*
X-547460D01*
Y66712D01*
X-537702D01*
Y76470D01*
D02*
G37*
G36*
X-144780Y66040D02*
X-148027D01*
X-146727Y64093D01*
X-144780Y62793D01*
Y66040D01*
D02*
G37*
G36*
X-136453D02*
X-139700D01*
Y62793D01*
X-137753Y64093D01*
X-136453Y66040D01*
D02*
G37*
G36*
X-400025Y66032D02*
X-409976D01*
X-409000Y64572D01*
X-409976Y63112D01*
X-400025D01*
X-401000Y64572D01*
X-400025Y66032D01*
D02*
G37*
%LPD*%
D10*
X-312500Y57500D02*
X-258748Y111252D01*
X-312500Y57500D02*
X-312500D01*
X-320136D02*
X-312500D01*
X-258748Y111252D02*
X-223520D01*
X-180848Y153924D02*
Y184658D01*
X-223520Y111252D02*
X-180848Y153924D01*
X-425676Y267236D02*
X-407388D01*
X-445000Y247912D02*
Y257912D01*
X-442912Y260000D01*
X-432912D01*
X-427499Y265413D01*
X-445000Y257912D02*
Y282500D01*
Y282500D01*
X-427499Y265413D02*
X-425676Y267236D01*
X-448028Y244884D02*
X-445000Y247912D01*
X-427499Y265000D02*
X-424999D01*
X-427499D02*
Y265413D01*
X-407388Y267236D02*
X-405356Y269268D01*
X-345694Y86614D02*
X-329438D01*
X-292862Y123190D01*
D15*
X225000Y47072D02*
D03*
X240000D02*
D03*
X225000Y32072D02*
D03*
X240000D02*
D03*
X225000Y62072D02*
D03*
X240000D02*
D03*
X225000Y77072D02*
D03*
X240000D02*
D03*
D42*
X-437500Y282500D02*
Y289095D01*
X-438162Y289757D02*
X-437500Y289095D01*
X-438162Y289757D02*
Y290662D01*
X-440183Y292683D02*
X-438162Y290662D01*
X-440183Y292683D02*
Y296094D01*
X-440494Y296404D02*
X-440183Y296094D01*
X-437500Y282500D02*
X-435000Y272500D01*
X-434176Y297932D02*
X-432500Y290000D01*
X-427500Y277500D01*
D43*
X-446623Y287854D02*
G03*
X-445839Y286930I6066J4358D01*
G01*
X-447520Y289508D02*
G03*
X-446623Y287854I6963J2703D01*
G01*
X-448026Y292212D02*
G03*
X-447520Y289508I7469J0D01*
G01*
X-446623Y287854D02*
G03*
X-447500Y288535I-3895J-4103D01*
G01*
X-445839Y286930D02*
G03*
X-446623Y287854I-4679J-3180D01*
G01*
X-444161Y283070D02*
G03*
X-445000Y287500I-5518J1250D01*
G01*
X-425227Y267281D02*
X-405356Y269268D01*
X-425676Y267236D02*
X-425227Y267281D01*
X-447581Y292500D02*
X-447520Y289508D01*
X-447500Y288535D01*
X-447581Y292500D02*
Y294581D01*
X-448026Y292212D02*
Y294581D01*
X-447581D01*
X120000Y-290000D02*
Y-270000D01*
Y-290000D02*
X135000Y-305000D01*
X-169672Y149860D02*
X-160528Y140716D01*
X-122936D01*
X-66040Y155956D02*
X-65024Y154940D01*
X-66040Y155956D02*
Y183388D01*
X461128Y-128524D02*
X479416Y-146812D01*
D44*
X-447500Y288535D02*
G03*
X-445000Y282500I8536J0D01*
G01*
Y282500D02*
X-445000Y282500D01*
X168656Y171196D02*
X170688Y169164D01*
X168656Y171196D02*
Y208788D01*
D45*
X-516636Y116078D02*
X-479806D01*
X-220308Y84692D02*
Y85000D01*
X-222500Y82500D02*
X-220308Y84692D01*
X-239776Y65532D02*
X-222808Y82500D01*
X-222500D01*
X210000Y-55000D02*
X215000Y-60000D01*
X177500Y-55000D02*
X210000D01*
X235000Y-60000D02*
Y-52500D01*
X222500Y-40000D02*
X235000Y-52500D01*
X177500Y-40000D02*
X222500D01*
X255000Y-280000D02*
Y-210000D01*
X235000Y-280000D02*
Y-207688D01*
X-479298Y33782D02*
X-478536Y33020D01*
Y13216D02*
Y33020D01*
X-479298Y33782D02*
Y58674D01*
X-240538Y169418D02*
Y171196D01*
X-229870Y181864D01*
Y205740D01*
X-333502Y183642D02*
X-241808D01*
X-78597Y96520D02*
X-74025Y91948D01*
X-72136D01*
X-78740Y96520D02*
X-78597D01*
X-83312Y101092D02*
X-78740Y96520D01*
X-111760Y75692D02*
X-71120Y35052D01*
Y22860D02*
Y35052D01*
X-83312Y101092D02*
Y120396D01*
X-111760Y90932D02*
X-59944Y39116D01*
X-239776Y9652D02*
Y65532D01*
X-59944Y-3556D02*
Y39116D01*
X-434340Y-43688D02*
X-416560Y-61468D01*
Y-76708D02*
Y-61468D01*
X63659Y-79089D02*
X68739D01*
X53848Y-88900D02*
X63659Y-79089D01*
X14055Y-137837D02*
X61976Y-89916D01*
X65024D01*
X42640Y-100093D02*
X53324Y-89408D01*
X42640Y-100108D02*
Y-100093D01*
X88294Y25615D02*
Y124558D01*
X81690Y30382D02*
Y121822D01*
X8128Y-155956D02*
Y-134620D01*
X42640Y-100108D01*
X14055Y-152723D02*
Y-137837D01*
Y-152723D02*
X14605Y-153273D01*
Y-161333D02*
Y-153273D01*
X14055Y-161883D02*
X14605Y-161333D01*
X76005Y127508D02*
X81690Y121822D01*
X28448Y127508D02*
X76005D01*
X61976Y10668D02*
X81690Y30382D01*
X86360Y126492D02*
Y126492D01*
X75184Y137668D02*
X86360Y126492D01*
Y126492D02*
X88294Y124558D01*
X36576Y137668D02*
X75184D01*
X86360Y23681D02*
Y23681D01*
X88294Y25615D01*
X68739Y6060D02*
X86360Y23681D01*
X68739Y3905D02*
Y6060D01*
X-104648Y-67564D02*
X-96520Y-59436D01*
Y-52324D01*
X-127000Y-82804D02*
Y-52324D01*
X-134112Y-72644D02*
Y-37084D01*
X-166624Y-105156D02*
X-134112Y-72644D01*
X-157480Y-113284D02*
X-127000Y-82804D01*
D46*
X-248412Y207518D02*
X-240284Y215646D01*
X-194818D01*
X-177292Y198120D01*
X-167386D01*
X-80264Y-157988D02*
Y-156972D01*
X-96520Y12700D02*
X-95504Y11684D01*
X-367792Y113284D02*
X-326136D01*
X-314960Y124460D01*
X-438912Y-25908D02*
X-406400Y-58420D01*
X-438912Y-25908D02*
Y-508D01*
D47*
X195625Y24375D02*
X201250Y30000D01*
X186250Y26832D02*
X206490Y47072D01*
X186250Y6250D02*
Y26832D01*
X180000Y0D02*
X186250Y6250D01*
X204572Y77072D02*
X225000D01*
X180840Y53340D02*
X204572Y77072D01*
X159893Y53340D02*
X180840D01*
X209567Y57067D02*
X219995D01*
X175895Y23395D02*
X209567Y57067D01*
X175895Y13970D02*
Y23395D01*
X201250Y30000D02*
X225000D01*
X206490Y47072D02*
X225000D01*
Y30000D02*
Y32072D01*
X150495Y13970D02*
X164465Y0D01*
X180000D01*
X270516Y72077D02*
X303022Y39572D01*
X-85344Y-1524D02*
Y33020D01*
X-114808Y62484D02*
X-85344Y33020D01*
X26416Y38100D02*
X27432Y39116D01*
Y115316D01*
X147320Y58420D02*
X167640D01*
X150495Y43942D02*
X159893Y53340D01*
X97536Y53975D02*
X124968Y81407D01*
X116840Y119380D02*
Y120396D01*
X102616Y134620D02*
X116840Y120396D01*
X-326814Y-188130D02*
X-316142Y-198802D01*
X-312670Y-190420D02*
X-110744D01*
X-320887Y-182203D02*
X-312670Y-190420D01*
X-314960Y-176276D02*
X-309198Y-182038D01*
X76876Y-122428D02*
X81280D01*
X28786Y-170518D02*
X76876Y-122428D01*
X-452120Y-3556D02*
X-445008Y-10668D01*
Y-66548D02*
Y-10668D01*
X-457200Y-78740D02*
X-445008Y-66548D01*
X40640Y-179832D02*
X81280Y-139192D01*
X40640Y-182372D02*
Y-179832D01*
X80348Y-130810D02*
X81280D01*
X34713Y-176445D02*
X80348Y-130810D01*
X-309198Y-182038D02*
X-110744D01*
X-316142Y-198802D02*
X-110744D01*
X36576Y-145796D02*
X81280Y-101092D01*
X23368Y-145796D02*
X36576D01*
X71120Y36128D02*
Y115316D01*
X55611Y20619D02*
X71120Y36128D01*
X55611Y20080D02*
Y20619D01*
X60960Y37462D02*
Y115316D01*
X49685Y26187D02*
X60960Y37462D01*
X49685Y26007D02*
Y26187D01*
X-85344Y-1524D02*
X-79248Y-7620D01*
X100857Y44469D02*
X132080Y75692D01*
X202184Y92964D02*
X282448D01*
X167640Y58420D02*
X202184Y92964D01*
X15680Y55177D02*
Y115121D01*
X7493Y62484D02*
Y115316D01*
X-116840Y-88551D02*
Y-60452D01*
X-120904Y-86868D02*
Y-58769D01*
X-116840Y-60452D02*
X-98880Y-42492D01*
X-120904Y-58769D02*
X-104807Y-42672D01*
X7493Y38100D02*
Y56388D01*
X6917Y56964D02*
X7493Y56388D01*
X6917Y56964D02*
Y62289D01*
X15875Y38100D02*
Y55372D01*
X15680Y55177D02*
X15875Y55372D01*
X-105103Y-12837D02*
X-104807Y-12541D01*
X-105103Y-21045D02*
Y-12837D01*
Y-21045D02*
X-104807Y-21341D01*
Y-42672D02*
Y-21341D01*
X-156210Y-122174D02*
X-120904Y-86868D01*
X-207010Y-122174D02*
X-156210D01*
X-98880Y-42492D02*
Y-18468D01*
X-223520Y-126492D02*
X-222377Y-127635D01*
X-155924D02*
X-116840Y-88551D01*
X-222377Y-127635D02*
X-155924D01*
X37831Y37861D02*
X38369D01*
X50800Y38797D02*
Y115316D01*
X38369Y37861D02*
X40640Y40132D01*
Y115316D01*
X219995Y57067D02*
X225000Y62072D01*
X240000Y77072D02*
X244995Y72077D01*
X270516D01*
X240000Y62072D02*
X244995Y57077D01*
X270984D01*
X288489Y39572D01*
X240000Y32072D02*
X266457D01*
X273958Y39572D01*
X240000Y47072D02*
X251926D01*
X259426Y39572D01*
X422483Y181183D02*
X483693Y119972D01*
X540000D01*
X418432Y147132D02*
X480992Y94572D01*
X540000D01*
D48*
X-420325Y301283D02*
G03*
X-416113Y291113I14383J0D01*
G01*
X-355000Y292500D02*
Y300000D01*
X-416113Y291113D02*
X-410000Y285000D01*
X-410000D01*
X-235712Y90932D02*
Y91948D01*
X-264200Y62444D02*
X-235712Y90932D01*
X-264200Y-25428D02*
Y62444D01*
D53*
X-371094Y86614D02*
D03*
X-255000Y-250000D02*
D03*
X-289600Y-25428D02*
D03*
D54*
X-345694Y86614D02*
D03*
X-550000Y-43128D02*
D03*
X-331200Y-250000D02*
D03*
X-305800D02*
D03*
X-280400D02*
D03*
X542500Y112900D02*
D03*
X-264200Y-25428D02*
D03*
D55*
X-550000Y114972D02*
D03*
D56*
Y64172D02*
D03*
D57*
Y-17728D02*
D03*
X542500Y87500D02*
D03*
D58*
X-154305Y-240030D02*
D03*
X-128905D02*
D03*
X-103505D02*
D03*
X175895Y39370D02*
D03*
Y13970D02*
D03*
Y-11430D02*
D03*
X150495D02*
D03*
Y13970D02*
D03*
Y39370D02*
D03*
X-1905Y240030D02*
D03*
X-52705Y-240030D02*
D03*
X150495Y240030D02*
D03*
X125095Y-240030D02*
D03*
Y240030D02*
D03*
X99695Y-240030D02*
D03*
Y240030D02*
D03*
X74295Y-240030D02*
D03*
Y240030D02*
D03*
X48895Y-240030D02*
D03*
Y240030D02*
D03*
X23495Y-240030D02*
D03*
Y240030D02*
D03*
X-27305Y-240030D02*
D03*
Y240030D02*
D03*
X-78105Y-240030D02*
D03*
X-67945Y240030D02*
D03*
X-93345D02*
D03*
X-118745D02*
D03*
D59*
X150495Y-240030D02*
D03*
D60*
X235000Y-280000D02*
D03*
X215000D02*
D03*
X255000D02*
D03*
X275000D02*
D03*
X235000Y-60000D02*
D03*
X215000D02*
D03*
X295000Y-280000D02*
D03*
X255000Y-60000D02*
D03*
X275000D02*
D03*
X335000Y-280000D02*
D03*
X315000D02*
D03*
X395000D02*
D03*
X355000D02*
D03*
X375000D02*
D03*
X335000Y-60000D02*
D03*
X295000D02*
D03*
X315000D02*
D03*
X395000D02*
D03*
X355000D02*
D03*
X375000D02*
D03*
D61*
X540000Y-160000D02*
D03*
Y160000D02*
D03*
X-540000Y-160000D02*
D03*
Y160000D02*
D03*
D62*
X-321056Y58420D02*
D03*
X-312500Y57500D02*
D03*
X-210000Y307500D02*
D03*
X-177500Y32500D02*
D03*
X-355000Y300000D02*
D03*
Y292500D02*
D03*
X-479806Y116078D02*
D03*
X-435000Y272500D02*
D03*
X-220308Y85000D02*
D03*
X-277500Y70000D02*
D03*
X-425000Y277500D02*
D03*
X-404340Y217452D02*
D03*
X-425676Y227612D02*
D03*
X-314960Y124460D02*
D03*
X177500Y-55000D02*
D03*
Y-40000D02*
D03*
X195000Y22500D02*
D03*
X303022Y39572D02*
D03*
X120000Y-270000D02*
D03*
X135000Y-305000D02*
D03*
X255000Y-210000D02*
D03*
X235000Y-207688D02*
D03*
X-478536Y13216D02*
D03*
X-516636Y116078D02*
D03*
X-479298Y58674D02*
D03*
X-453390Y16256D02*
D03*
X-361188Y49784D02*
D03*
X-370332Y1016D02*
D03*
X-248412Y207518D02*
D03*
X-167386Y198120D02*
D03*
X-180848Y184658D02*
D03*
X-240538Y169418D02*
D03*
X-229870Y205740D02*
D03*
X-333502Y183642D02*
D03*
X-241808D02*
D03*
X-400050Y27686D02*
D03*
X-239776Y154940D02*
D03*
X-216408Y166116D02*
D03*
X-179832Y-9652D02*
D03*
X-142240Y68580D02*
D03*
X-72136Y91948D02*
D03*
X-81280Y90043D02*
D03*
X-386052Y270284D02*
D03*
X-450060Y217452D02*
D03*
X-508000Y102108D02*
D03*
X-105664Y187452D02*
D03*
X225000Y-305000D02*
D03*
X-374904Y-243332D02*
D03*
X-202184Y201676D02*
D03*
X485512Y-188468D02*
D03*
X-477520Y-204724D02*
D03*
X-450088Y-191516D02*
D03*
X-406400Y-27940D02*
D03*
X-334264Y-28956D02*
D03*
X-430784Y-76708D02*
D03*
X-218440Y-2540D02*
D03*
X-45720Y-66548D02*
D03*
X-13208Y-126492D02*
D03*
X-106680Y-144780D02*
D03*
X-80264Y-156972D02*
D03*
X-72136Y-67564D02*
D03*
X-218064Y-35428D02*
D03*
X-95504Y11684D02*
D03*
X-367792Y113284D02*
D03*
X-438912Y-508D02*
D03*
X170688Y169164D02*
D03*
X168656Y208788D02*
D03*
X-169672Y149860D02*
D03*
X-122936Y140716D02*
D03*
X-83312Y120396D02*
D03*
X-111760Y75692D02*
D03*
Y90932D02*
D03*
X-65024Y154940D02*
D03*
X-66040Y183388D02*
D03*
X-235712Y91948D02*
D03*
X479416Y-146812D02*
D03*
X461128Y-128524D02*
D03*
X26416Y38100D02*
D03*
X27432Y115316D02*
D03*
X132080Y75692D02*
D03*
X116840Y119380D02*
D03*
X102616Y134620D02*
D03*
X-320887Y-182203D02*
D03*
X-326814Y-188130D02*
D03*
X-314960Y-176276D02*
D03*
X81280Y-122428D02*
D03*
X28786Y-170518D02*
D03*
X-452120Y-3556D02*
D03*
X-457200Y-78740D02*
D03*
X81280Y-139192D02*
D03*
X40640Y-182372D02*
D03*
X-434340Y-43688D02*
D03*
X-416560Y-76708D02*
D03*
X81280Y-130810D02*
D03*
X34713Y-176445D02*
D03*
X-110744Y-182038D02*
D03*
Y-198802D02*
D03*
Y-190420D02*
D03*
X65024Y-89916D02*
D03*
X68739Y-79089D02*
D03*
X81280Y-101092D02*
D03*
X71120Y115316D02*
D03*
X60960D02*
D03*
X-79248Y-7620D02*
D03*
X-114808Y62484D02*
D03*
X122936Y82804D02*
D03*
X97536Y53975D02*
D03*
Y45593D02*
D03*
X282448Y92964D02*
D03*
X147320Y58420D02*
D03*
X14055Y-161883D02*
D03*
X28448Y127508D02*
D03*
X8128Y-155956D02*
D03*
X36576Y137668D02*
D03*
X68739Y3905D02*
D03*
X61976Y10668D02*
D03*
X50800Y115316D02*
D03*
X40640D02*
D03*
X15875Y38100D02*
D03*
X15875Y55372D02*
D03*
X7493Y115316D02*
D03*
X-239776Y9652D02*
D03*
X-104648Y-67564D02*
D03*
X-96520Y-52324D02*
D03*
X-71120Y21844D02*
D03*
X-59944Y-3556D02*
D03*
X23368Y-145796D02*
D03*
X7112Y62484D02*
D03*
X7493Y38100D02*
D03*
X-104807Y-12541D02*
D03*
X-209296Y-121412D02*
D03*
X-98880Y-18468D02*
D03*
X-223520Y-126492D02*
D03*
X55611Y20080D02*
D03*
X49685Y26007D02*
D03*
X37831Y37861D02*
D03*
X49784Y38100D02*
D03*
X288489Y39572D02*
D03*
X259426D02*
D03*
X273958D02*
D03*
X-406400Y-58420D02*
D03*
X-134112Y-37084D02*
D03*
X-127000Y-52324D02*
D03*
X-166624Y-105156D02*
D03*
X-157480Y-113284D02*
D03*
X418432Y147132D02*
D03*
X422483Y181183D02*
D03*
X-360172Y-58928D02*
D03*
X17526Y114808D02*
D03*
D63*
X-292862Y123190D02*
D03*
X-405356Y269268D02*
D03*
X-448028Y244884D02*
D03*
D64*
X-424999Y265000D02*
D03*
D65*
X-377500Y-35428D02*
D03*
Y-25428D02*
D03*
X-362500Y-35428D02*
D03*
X-370000Y-30428D02*
D03*
X-362500Y-25428D02*
D03*
X-405000Y60572D02*
D03*
Y68572D02*
D03*
X-455000Y-215428D02*
D03*
Y-225428D02*
D03*
X-445000D02*
D03*
Y-215428D02*
D03*
X-465000Y-25428D02*
D03*
Y-35428D02*
D03*
X-455000D02*
D03*
Y-25428D02*
D03*
D66*
X-445000Y282500D02*
G03*
X-445311Y283252I-1063J-0D01*
G01*
D02*
G03*
X-445000Y282500I1063J0D01*
G01*
D67*
X-448026Y294581D02*
D03*
X-420325Y301283D02*
D03*
D68*
X-440494Y296404D02*
D03*
X-434176Y297932D02*
D03*
X-427858Y299461D02*
D03*
D69*
X-488480Y289031D02*
D03*
D70*
X-382110Y315022D02*
D03*
D71*
X-408137Y305124D02*
D03*
X-460622Y292426D02*
D03*
D72*
X-402417Y309337D02*
D03*
X-467635Y293559D02*
D03*
D73*
X-397345Y316223D02*
D03*
X-475295Y297365D02*
D03*
M02*
