%FSLAX44Y44*%
%MOMM*%
G71*
G01*
G75*
G04 Layer_Color=8388736*
%ADD10C,0.7620*%
G04:AMPARAMS|DCode=11|XSize=2mm|YSize=1.75mm|CornerRadius=0mm|HoleSize=0mm|Usage=FLASHONLY|Rotation=279.640|XOffset=0mm|YOffset=0mm|HoleType=Round|Shape=Rectangle|*
%AMROTATEDRECTD11*
4,1,4,-1.0301,0.8394,0.6952,1.1324,1.0301,-0.8394,-0.6952,-1.1324,-1.0301,0.8394,0.0*
%
%ADD11ROTATEDRECTD11*%

%ADD12R,2.3000X2.3000*%
%ADD13R,0.8000X0.9000*%
%ADD14O,1.7500X0.3000*%
%ADD15R,0.7000X0.9000*%
%ADD16R,0.9000X0.7000*%
%ADD17R,0.9000X0.8000*%
%ADD18R,0.4900X0.3000*%
%ADD19R,0.5200X0.3000*%
%ADD20R,1.7000X1.1000*%
%ADD21C,0.4000*%
%ADD22R,1.0000X1.0000*%
%ADD23R,0.7000X1.4000*%
%ADD24R,0.5500X0.9500*%
%ADD25O,0.2800X0.8500*%
%ADD26R,2.4000X1.6500*%
%ADD27R,0.7000X0.3000*%
%ADD28R,1.0000X1.6000*%
%ADD29R,0.4500X0.8500*%
%ADD30R,2.4000X1.5000*%
%ADD31R,0.8500X0.7000*%
%ADD32O,0.7000X2.0000*%
%ADD33O,1.3500X0.4500*%
%ADD34R,2.0000X0.4000*%
G04:AMPARAMS|DCode=35|XSize=1.524mm|YSize=2.8448mm|CornerRadius=0mm|HoleSize=0mm|Usage=FLASHONLY|Rotation=82.000|XOffset=0mm|YOffset=0mm|HoleType=Round|Shape=Rectangle|*
%AMROTATEDRECTD35*
4,1,4,1.3025,-0.9525,-1.5146,-0.5566,-1.3025,0.9525,1.5146,0.5566,1.3025,-0.9525,0.0*
%
%ADD35ROTATEDRECTD35*%

G04:AMPARAMS|DCode=36|XSize=1.524mm|YSize=2.8448mm|CornerRadius=0mm|HoleSize=0mm|Usage=FLASHONLY|Rotation=352.000|XOffset=0mm|YOffset=0mm|HoleType=Round|Shape=Rectangle|*
%AMROTATEDRECTD36*
4,1,4,-0.9525,-1.3025,-0.5566,1.5146,0.9525,1.3025,0.5566,-1.5146,-0.9525,-1.3025,0.0*
%
%ADD36ROTATEDRECTD36*%

%ADD37O,0.3000X1.7500*%
%ADD38R,0.2500X0.7000*%
%ADD39R,2.3800X1.6500*%
%ADD40R,0.3000X0.4900*%
%ADD41R,0.3000X0.5200*%
%ADD42C,0.1905*%
%ADD43C,0.4064*%
%ADD44C,0.5080*%
%ADD45C,0.2540*%
%ADD46C,0.3048*%
%ADD47C,0.2032*%
%ADD48C,0.6096*%
%ADD49C,1.0160*%
%ADD50C,0.3556*%
%ADD51C,1.2700*%
%ADD52R,0.7000X0.2800*%
%ADD53R,1.5000X1.5000*%
%ADD54C,1.5000*%
%ADD55C,1.8500*%
%ADD56R,1.8500X1.8500*%
%ADD57R,1.5000X1.5000*%
%ADD58C,1.2700*%
%ADD59R,1.2700X1.2700*%
%ADD60C,1.5240*%
%ADD61C,2.9000*%
%ADD62C,0.6350*%
%ADD63C,0.9000*%
%ADD64C,0.7000*%
%ADD65C,0.5000*%
%ADD66C,0.6350*%
G04:AMPARAMS|DCode=67|XSize=0.65mm|YSize=1.35mm|CornerRadius=0mm|HoleSize=0mm|Usage=FLASHONLY|Rotation=13.600|XOffset=0mm|YOffset=0mm|HoleType=Round|Shape=Rectangle|*
%AMROTATEDRECTD67*
4,1,4,-0.1572,-0.7325,-0.4746,0.5797,0.1572,0.7325,0.4746,-0.5797,-0.1572,-0.7325,0.0*
%
%ADD67ROTATEDRECTD67*%

G04:AMPARAMS|DCode=68|XSize=0.4mm|YSize=1.35mm|CornerRadius=0mm|HoleSize=0mm|Usage=FLASHONLY|Rotation=13.600|XOffset=0mm|YOffset=0mm|HoleType=Round|Shape=Rectangle|*
%AMROTATEDRECTD68*
4,1,4,-0.0357,-0.7031,-0.3531,0.6090,0.0357,0.7031,0.3531,-0.6090,-0.0357,-0.7031,0.0*
%
%ADD68ROTATEDRECTD68*%

G04:AMPARAMS|DCode=69|XSize=0.825mm|YSize=1.15mm|CornerRadius=0mm|HoleSize=0mm|Usage=FLASHONLY|Rotation=13.600|XOffset=0mm|YOffset=0mm|HoleType=Round|Shape=Rectangle|*
%AMROTATEDRECTD69*
4,1,4,-0.2657,-0.6559,-0.5361,0.4619,0.2657,0.6559,0.5361,-0.4619,-0.2657,-0.6559,0.0*
%
%ADD69ROTATEDRECTD69*%

G04:AMPARAMS|DCode=70|XSize=0.775mm|YSize=1.15mm|CornerRadius=0mm|HoleSize=0mm|Usage=FLASHONLY|Rotation=13.600|XOffset=0mm|YOffset=0mm|HoleType=Round|Shape=Rectangle|*
%AMROTATEDRECTD70*
4,1,4,-0.2414,-0.6500,-0.5118,0.4678,0.2414,0.6500,0.5118,-0.4678,-0.2414,-0.6500,0.0*
%
%ADD70ROTATEDRECTD70*%

G04:AMPARAMS|DCode=71|XSize=1.2mm|YSize=1.55mm|CornerRadius=0mm|HoleSize=0mm|Usage=FLASHONLY|Rotation=13.600|XOffset=0mm|YOffset=0mm|HoleType=Round|Shape=Rectangle|*
%AMROTATEDRECTD71*
4,1,4,-0.4009,-0.8943,-0.7654,0.6122,0.4009,0.8943,0.7654,-0.6122,-0.4009,-0.8943,0.0*
%
%ADD71ROTATEDRECTD71*%

G04:AMPARAMS|DCode=72|XSize=2.51mm|YSize=1mm|CornerRadius=0mm|HoleSize=0mm|Usage=FLASHONLY|Rotation=13.600|XOffset=0mm|YOffset=0mm|HoleType=Round|Shape=Rectangle|*
%AMROTATEDRECTD72*
4,1,4,-1.1022,-0.7811,-1.3374,0.1909,1.1022,0.7811,1.3374,-0.1909,-1.1022,-0.7811,0.0*
%
%ADD72ROTATEDRECTD72*%

G04:AMPARAMS|DCode=73|XSize=1.2mm|YSize=2.1mm|CornerRadius=0mm|HoleSize=0mm|Usage=FLASHONLY|Rotation=13.600|XOffset=0mm|YOffset=0mm|HoleType=Round|Shape=Rectangle|*
%AMROTATEDRECTD73*
4,1,4,-0.3363,-1.1617,-0.8301,0.8795,0.3363,1.1617,0.8301,-0.8795,-0.3363,-1.1617,0.0*
%
%ADD73ROTATEDRECTD73*%

%ADD74C,0.0000*%
%ADD75C,0.1000*%
%ADD76C,0.2500*%
%ADD77C,0.6000*%
%ADD78C,0.2000*%
%ADD79C,0.1500*%
%ADD80R,0.4572X1.7018*%
%ADD81R,0.5842X0.1651*%
%ADD82R,0.6502X0.1854*%
%ADD83R,1.0500X0.6800*%
%ADD84R,0.5000X0.2600*%
%ADD85R,0.8000X1.4000*%
%ADD86O,0.2300X0.8000*%
%ADD87R,0.6500X0.2500*%
%ADD88R,0.0000X0.6000*%
G04:AMPARAMS|DCode=89|XSize=2.2032mm|YSize=1.9532mm|CornerRadius=0mm|HoleSize=0mm|Usage=FLASHONLY|Rotation=279.640|XOffset=0mm|YOffset=0mm|HoleType=Round|Shape=Rectangle|*
%AMROTATEDRECTD89*
4,1,4,-1.1473,0.9225,0.7783,1.2496,1.1473,-0.9225,-0.7783,-1.2496,-1.1473,0.9225,0.0*
%
%ADD89ROTATEDRECTD89*%

%ADD90R,2.5032X2.5032*%
%ADD91R,1.0032X1.1032*%
%ADD92O,1.9532X0.5032*%
%ADD93R,0.9032X1.1032*%
%ADD94R,1.1032X0.9032*%
%ADD95R,1.1032X1.0032*%
%ADD96R,0.5900X0.4000*%
%ADD97R,0.6200X0.4000*%
%ADD98R,1.9032X1.3032*%
%ADD99C,0.6032*%
%ADD100R,0.9032X1.6032*%
%ADD101R,0.7532X1.1532*%
%ADD102O,0.4200X0.9900*%
%ADD103R,2.5400X1.7900*%
%ADD104R,0.8400X0.4400*%
%ADD105R,1.1400X1.7400*%
%ADD106R,0.6532X1.0532*%
%ADD107R,2.6032X1.7032*%
%ADD108R,1.0532X0.9032*%
%ADD109O,0.9032X2.2032*%
%ADD110O,1.5532X0.6532*%
%ADD111R,2.2032X0.6032*%
G04:AMPARAMS|DCode=112|XSize=1.7272mm|YSize=3.048mm|CornerRadius=0mm|HoleSize=0mm|Usage=FLASHONLY|Rotation=82.000|XOffset=0mm|YOffset=0mm|HoleType=Round|Shape=Rectangle|*
%AMROTATEDRECTD112*
4,1,4,1.3890,-1.0673,-1.6294,-0.6431,-1.3890,1.0673,1.6294,0.6431,1.3890,-1.0673,0.0*
%
%ADD112ROTATEDRECTD112*%

G04:AMPARAMS|DCode=113|XSize=1.7272mm|YSize=3.048mm|CornerRadius=0mm|HoleSize=0mm|Usage=FLASHONLY|Rotation=352.000|XOffset=0mm|YOffset=0mm|HoleType=Round|Shape=Rectangle|*
%AMROTATEDRECTD113*
4,1,4,-1.0673,-1.3890,-0.6431,1.6294,1.0673,1.3890,0.6431,-1.6294,-1.0673,-1.3890,0.0*
%
%ADD113ROTATEDRECTD113*%

%ADD114O,0.5032X1.9532*%
%ADD115R,0.4532X0.9032*%
%ADD116R,2.5832X1.8532*%
%ADD117R,0.4000X0.5900*%
%ADD118R,0.4000X0.6200*%
%ADD119R,0.9032X0.4832*%
%ADD120R,1.7032X1.7032*%
%ADD121C,1.7032*%
%ADD122C,2.0532*%
%ADD123R,2.0532X2.0532*%
%ADD124R,1.7032X1.7032*%
%ADD125C,1.4732*%
%ADD126R,1.4732X1.4732*%
%ADD127C,1.7272*%
%ADD128C,3.1032*%
%ADD129C,0.8382*%
%ADD130C,1.1032*%
%ADD131C,0.9032*%
%ADD132C,0.7032*%
G36*
X-364991Y35598D02*
X-361843Y35597D01*
X-361838Y35598D01*
X-361822Y35597D01*
X-361822D01*
X-361805Y35598D01*
X-361754Y35595D01*
X-361705Y35594D01*
X-361688Y35591D01*
X-361671Y35590D01*
X-361622Y35581D01*
X-361573Y35573D01*
X-361557Y35568D01*
X-361540Y35565D01*
X-361533Y35562D01*
X-361532Y35562D01*
X-361511Y35555D01*
X-361493Y35549D01*
X-361445Y35534D01*
X-361429Y35528D01*
X-361413Y35522D01*
X-361410Y35521D01*
X-361408Y35520D01*
X-361406Y35519D01*
X-361361Y35497D01*
X-361323Y35480D01*
X-361320Y35478D01*
X-361308Y35471D01*
X-361290Y35463D01*
X-361288Y35461D01*
X-361286Y35460D01*
X-361240Y35429D01*
X-361206Y35408D01*
X-361195Y35400D01*
X-361179Y35389D01*
X-361177Y35387D01*
X-361175Y35386D01*
X-361133Y35349D01*
X-361102Y35324D01*
X-361093Y35314D01*
X-361078Y35301D01*
X-361076Y35299D01*
X-361074Y35297D01*
X-361071Y35294D01*
X-352286Y26507D01*
X-352271Y26494D01*
X-352255Y26476D01*
X-352237Y26458D01*
X-352219Y26435D01*
X-352210Y26426D01*
X-352202Y26415D01*
X-352183Y26393D01*
X-352170Y26373D01*
X-352154Y26353D01*
X-352142Y26332D01*
X-352132Y26318D01*
X-352123Y26302D01*
X-352109Y26282D01*
X-352099Y26260D01*
X-352086Y26238D01*
X-352085Y26235D01*
X-352077Y26218D01*
X-352068Y26201D01*
X-352060Y26181D01*
X-352051Y26163D01*
X-352050Y26159D01*
X-352050Y26159D01*
X-352049Y26156D01*
X-352043Y26137D01*
X-352032Y26112D01*
X-352027Y26094D01*
X-352020Y26076D01*
X-352015Y26056D01*
X-352008Y26037D01*
X-352007Y26032D01*
X-352007Y26032D01*
X-352007Y26029D01*
X-352003Y26010D01*
X-351996Y25984D01*
X-351993Y25965D01*
X-351988Y25946D01*
X-351986Y25925D01*
X-351982Y25905D01*
X-351980Y25878D01*
X-351977Y25851D01*
X-351976Y25832D01*
X-351974Y25813D01*
X-351975Y25792D01*
X-351973Y25772D01*
X-351974Y25762D01*
X-351975Y13415D01*
X-351974Y13410D01*
X-351975Y13394D01*
Y13394D01*
X-351974Y13377D01*
X-351977Y13326D01*
X-351978Y13277D01*
X-351981Y13260D01*
X-351982Y13243D01*
X-351991Y13194D01*
X-351999Y13145D01*
X-352004Y13128D01*
X-352007Y13112D01*
X-352010Y13105D01*
X-352010Y13104D01*
X-352016Y13085D01*
X-352023Y13064D01*
X-352038Y13017D01*
X-352044Y13001D01*
X-352050Y12985D01*
X-352051Y12982D01*
X-352052Y12980D01*
X-352053Y12978D01*
X-352075Y12933D01*
X-352092Y12895D01*
X-352094Y12892D01*
X-352101Y12880D01*
X-352109Y12862D01*
X-352111Y12860D01*
X-352112Y12858D01*
X-352143Y12812D01*
X-352164Y12778D01*
X-352172Y12767D01*
X-352183Y12751D01*
X-352185Y12749D01*
X-352186Y12747D01*
X-352223Y12705D01*
X-352248Y12674D01*
X-352258Y12665D01*
X-352271Y12650D01*
X-352273Y12648D01*
X-352274Y12646D01*
X-352278Y12643D01*
X-361046Y3876D01*
X-361050Y3871D01*
X-361065Y3858D01*
X-361078Y3843D01*
X-361114Y3812D01*
X-361148Y3780D01*
X-361164Y3768D01*
X-361179Y3755D01*
X-361218Y3729D01*
X-361256Y3701D01*
X-361274Y3692D01*
X-361290Y3681D01*
X-361333Y3661D01*
X-361374Y3638D01*
X-361393Y3632D01*
X-361409Y3623D01*
X-361410Y3623D01*
X-361410Y3623D01*
X-361413Y3622D01*
X-361461Y3606D01*
X-361499Y3591D01*
X-361502Y3590D01*
X-361516Y3587D01*
X-361535Y3580D01*
X-361538Y3580D01*
X-361540Y3579D01*
X-361594Y3569D01*
X-361633Y3560D01*
X-361647Y3558D01*
X-361667Y3554D01*
X-361669Y3554D01*
X-361671Y3554D01*
X-361726Y3550D01*
X-361766Y3546D01*
X-361780Y3547D01*
X-361800Y3546D01*
X-361802Y3546D01*
X-361805Y3546D01*
X-361809Y3546D01*
X-364925Y3550D01*
X-364951Y3549D01*
X-364998Y3546D01*
X-364999Y3546D01*
X-365000Y3546D01*
X-365000D01*
X-365018Y3547D01*
X-365036Y3546D01*
X-365084Y3551D01*
X-365132Y3554D01*
X-365133Y3554D01*
X-365134Y3554D01*
X-365151Y3558D01*
X-365169Y3560D01*
X-365215Y3571D01*
X-365263Y3580D01*
X-365264Y3580D01*
X-365265Y3580D01*
X-365282Y3586D01*
X-365299Y3591D01*
X-365344Y3607D01*
X-365390Y3623D01*
X-365391Y3623D01*
X-365391Y3623D01*
X-365391Y3623D01*
X-365393Y3624D01*
X-365394Y3625D01*
X-365396Y3625D01*
X-365410Y3633D01*
X-365424Y3638D01*
X-365461Y3658D01*
X-365513Y3683D01*
X-365514Y3684D01*
X-365516Y3685D01*
X-365532Y3696D01*
X-365542Y3701D01*
X-365568Y3720D01*
X-365624Y3757D01*
X-365625Y3758D01*
X-365627Y3759D01*
X-365645Y3776D01*
X-365651Y3779D01*
X-365664Y3792D01*
X-365676Y3803D01*
X-365725Y3845D01*
X-365726Y3846D01*
X-365727Y3847D01*
X-365746Y3869D01*
X-365748Y3871D01*
X-365752Y3875D01*
X-365759Y3885D01*
X-365774Y3902D01*
X-365813Y3945D01*
X-365814Y3947D01*
X-365815Y3948D01*
X-365831Y3972D01*
X-365836Y3979D01*
X-365849Y3999D01*
X-365854Y4007D01*
X-365887Y4056D01*
X-365888Y4058D01*
X-365889Y4059D01*
X-365900Y4082D01*
X-365907Y4092D01*
X-365921Y4124D01*
X-365947Y4176D01*
X-365947Y4178D01*
X-365948Y4179D01*
X-365949Y4182D01*
D01*
D01*
X-365949Y4182D01*
X-365956Y4201D01*
X-365961Y4214D01*
X-365973Y4254D01*
X-365992Y4308D01*
X-365992Y4309D01*
X-365992Y4309D01*
X-365996Y4329D01*
X-366000Y4342D01*
X-366006Y4382D01*
X-366008Y4390D01*
X-366018Y4440D01*
Y4440D01*
X-366018Y4440D01*
X-366019Y4461D01*
X-366021Y4474D01*
X-366023Y4515D01*
X-366023Y4521D01*
X-366026Y4573D01*
X-366026Y4573D01*
X-366026Y4574D01*
X-366026Y4578D01*
X-366024Y10852D01*
X-366025Y10867D01*
X-366025Y10892D01*
X-366026Y10918D01*
X-366023Y10959D01*
X-366022Y11001D01*
X-366019Y11026D01*
X-366017Y11051D01*
X-366008Y11092D01*
X-366002Y11133D01*
X-365996Y11155D01*
X-365993Y11167D01*
X-365992Y11171D01*
X-365990Y11182D01*
X-365983Y11204D01*
X-365983Y11204D01*
X-365982Y11204D01*
X-365976Y11221D01*
X-365965Y11261D01*
X-365957Y11278D01*
X-365952Y11294D01*
X-365949Y11301D01*
X-365946Y11308D01*
X-365945Y11311D01*
X-365937Y11327D01*
X-365936Y11329D01*
X-365928Y11344D01*
X-365926Y11350D01*
X-365911Y11384D01*
X-365903Y11396D01*
X-365894Y11415D01*
X-365889Y11422D01*
X-365885Y11431D01*
X-365876Y11444D01*
X-365874Y11448D01*
X-365861Y11467D01*
X-365857Y11473D01*
X-365841Y11498D01*
X-365835Y11506D01*
X-365821Y11527D01*
X-365816Y11534D01*
X-365810Y11542D01*
X-365800Y11553D01*
X-365797Y11557D01*
X-365777Y11579D01*
X-365772Y11585D01*
X-365771Y11586D01*
X-365758Y11602D01*
X-365753Y11607D01*
X-365734Y11629D01*
X-365729Y11634D01*
X-365728Y11634D01*
X-365727Y11635D01*
X-365722Y11642D01*
X-365711Y11651D01*
X-365707Y11655D01*
X-365678Y11680D01*
X-365667Y11689D01*
X-365661Y11695D01*
X-365659Y11696D01*
X-365635Y11718D01*
X-365630Y11722D01*
X-365628Y11723D01*
X-365626Y11724D01*
X-365620Y11729D01*
X-365610Y11736D01*
X-365604Y11741D01*
X-365569Y11763D01*
X-365525Y11794D01*
X-365520Y11796D01*
X-365518Y11798D01*
X-365515Y11799D01*
X-365512Y11801D01*
X-365512Y11801D01*
X-365509Y11803D01*
X-365499Y11808D01*
X-365491Y11812D01*
X-365450Y11832D01*
X-365406Y11854D01*
X-365404Y11855D01*
X-365401Y11856D01*
X-365398Y11857D01*
X-365395Y11858D01*
X-365392Y11860D01*
X-365390Y11860D01*
X-365389Y11861D01*
X-365379Y11864D01*
X-365370Y11869D01*
X-365325Y11883D01*
X-365278Y11899D01*
X-365274Y11900D01*
X-365271Y11901D01*
X-365269Y11901D01*
X-365266Y11903D01*
X-365262Y11903D01*
X-365262Y11904D01*
X-365258Y11904D01*
X-365253Y11905D01*
X-365248Y11907D01*
X-363600Y13172D01*
X-362161Y15046D01*
X-361257Y17229D01*
X-360949Y19572D01*
X-361257Y21915D01*
X-362161Y24098D01*
X-363600Y25972D01*
X-365249Y27238D01*
X-365262Y27240D01*
X-365268Y27243D01*
X-365278Y27245D01*
X-365302Y27253D01*
X-365325Y27259D01*
X-365327Y27260D01*
X-365331Y27261D01*
X-365334Y27262D01*
X-365336Y27263D01*
X-365362Y27274D01*
X-365389Y27283D01*
X-365396Y27286D01*
X-365404Y27289D01*
X-365406Y27290D01*
X-365427Y27301D01*
X-365448Y27309D01*
X-365452Y27311D01*
X-365455Y27312D01*
X-365457Y27314D01*
X-365459Y27315D01*
X-365482Y27328D01*
X-365509Y27341D01*
X-365517Y27346D01*
X-365525Y27350D01*
X-365546Y27365D01*
X-365565Y27376D01*
X-365568Y27378D01*
X-365570Y27379D01*
X-365572Y27380D01*
X-365574Y27382D01*
X-365594Y27397D01*
X-365620Y27415D01*
X-365627Y27421D01*
X-365635Y27426D01*
X-365656Y27445D01*
X-365671Y27456D01*
X-365674Y27459D01*
X-365676Y27461D01*
X-365677Y27462D01*
X-365680Y27464D01*
X-365696Y27480D01*
X-365722Y27502D01*
X-365728Y27509D01*
X-365734Y27515D01*
X-365754Y27538D01*
X-365766Y27550D01*
X-365769Y27554D01*
X-365771Y27555D01*
X-365771Y27556D01*
X-365774Y27559D01*
X-365787Y27576D01*
X-365810Y27602D01*
X-365816Y27610D01*
X-365821Y27617D01*
X-365838Y27643D01*
X-365848Y27656D01*
X-365851Y27659D01*
X-365853Y27663D01*
X-365853Y27663D01*
X-365855Y27666D01*
X-365864Y27682D01*
X-365885Y27713D01*
X-365889Y27722D01*
X-365894Y27729D01*
X-365907Y27755D01*
X-365918Y27775D01*
X-365920Y27780D01*
X-365921Y27781D01*
X-365930Y27803D01*
X-365945Y27833D01*
X-365946Y27836D01*
X-365948Y27841D01*
X-365948Y27842D01*
X-365949Y27844D01*
X-365952Y27850D01*
X-365960Y27873D01*
X-365970Y27898D01*
X-365972Y27903D01*
X-365972Y27905D01*
X-365978Y27925D01*
X-365979Y27930D01*
X-365990Y27962D01*
X-365991Y27968D01*
X-365991Y27968D01*
X-365993Y27974D01*
X-365993Y27977D01*
X-365997Y27996D01*
X-366006Y28027D01*
X-366006Y28033D01*
X-366007Y28034D01*
X-366009Y28054D01*
X-366010Y28060D01*
X-366017Y28093D01*
X-366017Y28099D01*
X-366017Y28099D01*
X-366018Y28115D01*
X-366019Y28126D01*
X-366024Y28159D01*
X-366024Y28165D01*
X-366024Y28166D01*
X-366024Y28189D01*
X-366024Y28193D01*
X-366026Y28226D01*
X-366026Y28232D01*
X-366026Y28233D01*
X-366022Y34481D01*
X-366023Y34524D01*
X-366026Y34567D01*
X-366025Y34591D01*
X-366026Y34615D01*
X-366021Y34657D01*
X-366018Y34701D01*
X-366014Y34724D01*
X-366011Y34748D01*
X-366001Y34789D01*
X-365993Y34832D01*
X-365990Y34841D01*
X-365989Y34844D01*
X-365984Y34857D01*
X-365980Y34878D01*
X-365964Y34917D01*
X-365950Y34959D01*
X-365949Y34962D01*
X-365947Y34966D01*
X-365946Y34971D01*
X-365937Y34987D01*
X-365931Y35002D01*
X-365913Y35036D01*
X-365891Y35082D01*
X-365888Y35086D01*
X-365886Y35090D01*
X-365873Y35109D01*
X-365867Y35120D01*
X-365850Y35144D01*
X-365817Y35193D01*
X-365814Y35197D01*
X-365811Y35201D01*
X-365793Y35221D01*
X-365788Y35227D01*
X-365775Y35242D01*
X-365770Y35247D01*
X-365729Y35294D01*
X-365726Y35297D01*
X-365722Y35301D01*
X-365699Y35322D01*
X-365696Y35324D01*
X-365692Y35328D01*
X-365681Y35337D01*
X-365674Y35343D01*
X-365629Y35383D01*
X-365625Y35385D01*
X-365621Y35389D01*
X-365595Y35406D01*
X-365588Y35412D01*
X-365568Y35424D01*
X-365518Y35458D01*
X-365514Y35460D01*
X-365510Y35463D01*
X-365485Y35474D01*
X-365474Y35482D01*
X-365444Y35494D01*
X-365399Y35517D01*
X-365394Y35519D01*
X-365391Y35521D01*
X-365390Y35521D01*
X-365390Y35521D01*
X-365387Y35522D01*
X-365366Y35529D01*
X-365351Y35536D01*
X-365315Y35546D01*
X-365298Y35552D01*
X-365272Y35561D01*
X-365271Y35561D01*
X-365264Y35564D01*
X-365262Y35564D01*
X-365260Y35565D01*
X-365238Y35569D01*
X-365223Y35573D01*
X-365186Y35579D01*
X-365133Y35590D01*
X-365131Y35590D01*
X-365129Y35590D01*
X-365106Y35591D01*
X-365091Y35594D01*
X-365053Y35595D01*
X-364999Y35598D01*
X-364997Y35598D01*
X-364995Y35598D01*
X-364991Y35598D01*
D02*
G37*
G36*
X-374983Y35597D02*
X-374961Y35598D01*
X-374916Y35593D01*
X-374871Y35590D01*
X-374850Y35586D01*
X-374828Y35584D01*
X-374785Y35573D01*
X-374740Y35565D01*
X-374731Y35561D01*
X-374728Y35561D01*
X-374716Y35557D01*
X-374698Y35552D01*
X-374656Y35537D01*
X-374613Y35522D01*
X-374610Y35521D01*
X-374606Y35519D01*
X-374602Y35517D01*
X-374587Y35510D01*
X-374573Y35505D01*
X-374538Y35486D01*
X-374490Y35463D01*
X-374486Y35460D01*
X-374482Y35458D01*
X-374465Y35446D01*
X-374455Y35441D01*
X-374430Y35423D01*
X-374379Y35389D01*
X-374375Y35385D01*
X-374371Y35383D01*
X-374352Y35366D01*
X-374347Y35363D01*
X-374333Y35350D01*
X-374325Y35342D01*
X-374278Y35301D01*
X-374275Y35298D01*
X-374271Y35294D01*
X-374252Y35272D01*
X-374250Y35271D01*
X-374246Y35266D01*
X-374238Y35257D01*
X-374229Y35246D01*
X-374189Y35201D01*
X-374187Y35197D01*
X-374183Y35193D01*
X-374167Y35169D01*
X-374162Y35163D01*
X-374150Y35142D01*
X-374149Y35141D01*
X-374114Y35090D01*
X-374112Y35086D01*
X-374109Y35082D01*
X-374099Y35059D01*
X-374092Y35049D01*
X-374078Y35018D01*
X-374055Y34971D01*
X-374053Y34966D01*
X-374051Y34962D01*
X-374051Y34962D01*
X-374051Y34962D01*
X-374050Y34959D01*
X-374043Y34939D01*
X-374038Y34927D01*
X-374026Y34888D01*
X-374021Y34872D01*
X-374011Y34844D01*
X-374011Y34843D01*
X-374008Y34835D01*
X-374008Y34834D01*
X-374007Y34832D01*
X-374003Y34812D01*
X-373999Y34798D01*
X-373993Y34759D01*
X-373982Y34704D01*
X-373982Y34702D01*
X-373982Y34701D01*
X-373981Y34680D01*
X-373978Y34666D01*
X-373977Y34627D01*
X-373974Y34571D01*
X-373974Y34569D01*
X-373974Y34567D01*
X-373974Y34563D01*
X-373976Y28291D01*
X-373975Y28276D01*
X-373975Y28257D01*
X-373974Y28237D01*
X-373974Y28235D01*
X-373974Y28232D01*
Y28232D01*
X-373977Y28187D01*
X-373978Y28143D01*
X-373981Y28123D01*
X-373982Y28104D01*
X-373982Y28101D01*
X-373983Y28099D01*
X-373985Y28084D01*
X-373985Y28084D01*
X-373987Y28074D01*
X-373991Y28054D01*
X-373998Y28010D01*
X-374003Y27992D01*
X-374007Y27972D01*
X-374008Y27970D01*
X-374009Y27968D01*
X-374012Y27957D01*
X-374013Y27953D01*
X-374024Y27922D01*
X-374035Y27882D01*
X-374043Y27864D01*
X-374050Y27845D01*
X-374051Y27843D01*
X-374051Y27842D01*
X-374052Y27841D01*
X-374055Y27834D01*
X-374058Y27827D01*
X-374076Y27790D01*
X-374090Y27760D01*
X-374098Y27745D01*
X-374109Y27722D01*
X-374114Y27715D01*
X-374118Y27707D01*
X-374145Y27668D01*
X-374159Y27645D01*
X-374167Y27636D01*
X-374183Y27611D01*
X-374189Y27604D01*
X-374194Y27597D01*
X-374231Y27556D01*
X-374243Y27541D01*
X-374249Y27535D01*
X-374271Y27510D01*
X-374277Y27504D01*
X-374283Y27498D01*
X-374328Y27460D01*
X-374331Y27457D01*
X-374339Y27449D01*
X-374343Y27446D01*
X-374371Y27421D01*
X-374376Y27418D01*
X-374377Y27418D01*
X-374378Y27416D01*
X-374378D01*
X-374385Y27411D01*
X-374433Y27379D01*
X-374446Y27371D01*
X-374447Y27370D01*
X-374448Y27370D01*
X-374482Y27346D01*
X-374485Y27345D01*
X-374486Y27344D01*
X-374487Y27344D01*
X-374488Y27343D01*
X-374491Y27342D01*
X-374497Y27338D01*
X-374550Y27313D01*
X-374602Y27287D01*
X-374602Y27287D01*
X-374603Y27286D01*
X-374604Y27286D01*
X-374606Y27285D01*
X-374607Y27285D01*
X-374608Y27284D01*
X-374613Y27283D01*
X-374618Y27280D01*
X-374619Y27280D01*
X-374676Y27261D01*
X-374683Y27259D01*
X-374729Y27243D01*
X-374731Y27242D01*
X-374733Y27242D01*
X-374733Y27242D01*
X-374734Y27241D01*
X-374740Y27240D01*
X-374746Y27238D01*
X-374752Y27237D01*
X-376400Y25972D01*
X-377839Y24098D01*
X-378743Y21915D01*
X-379052Y19572D01*
X-378743Y17229D01*
X-377839Y15046D01*
X-376400Y13172D01*
X-374752Y11907D01*
X-374746Y11906D01*
X-374735Y11902D01*
X-374728Y11901D01*
X-374700Y11891D01*
X-374670Y11883D01*
X-374665Y11881D01*
X-374659Y11879D01*
X-374649Y11875D01*
X-374639Y11872D01*
X-374630Y11868D01*
X-374619Y11864D01*
X-374618Y11864D01*
X-374609Y11860D01*
X-374602Y11857D01*
X-374573Y11843D01*
X-374547Y11832D01*
X-374542Y11829D01*
X-374536Y11827D01*
X-374527Y11821D01*
X-374517Y11817D01*
X-374509Y11812D01*
X-374497Y11806D01*
X-374490Y11801D01*
X-374482Y11797D01*
X-374454Y11779D01*
X-374431Y11765D01*
X-374426Y11761D01*
X-374421Y11759D01*
X-374413Y11752D01*
X-374403Y11746D01*
X-374397Y11741D01*
X-374385Y11733D01*
X-374378Y11727D01*
X-374371Y11723D01*
X-374345Y11699D01*
X-374325Y11684D01*
X-374320Y11679D01*
X-374316Y11676D01*
X-374309Y11669D01*
X-374300Y11662D01*
X-374295Y11656D01*
X-374283Y11646D01*
X-374277Y11640D01*
X-374271Y11634D01*
X-374246Y11606D01*
X-374230Y11589D01*
X-374226Y11584D01*
X-374222Y11581D01*
X-374217Y11573D01*
X-374208Y11564D01*
X-374205Y11559D01*
X-374194Y11547D01*
X-374189Y11540D01*
X-374183Y11533D01*
X-374162Y11501D01*
X-374149Y11484D01*
X-374146Y11480D01*
X-374143Y11475D01*
X-374142Y11474D01*
X-374140Y11470D01*
X-374137Y11464D01*
X-374131Y11456D01*
X-374128Y11451D01*
X-374118Y11437D01*
X-374114Y11429D01*
X-374109Y11422D01*
X-374093Y11388D01*
X-374080Y11365D01*
X-374076Y11357D01*
X-374075Y11353D01*
X-374070Y11343D01*
X-374067Y11338D01*
X-374066Y11334D01*
X-374058Y11317D01*
X-374055Y11310D01*
X-374052Y11303D01*
X-374051Y11302D01*
X-374051Y11301D01*
X-374050Y11298D01*
X-374040Y11269D01*
X-374028Y11241D01*
X-374026Y11233D01*
X-374025Y11229D01*
X-374021Y11213D01*
X-374020Y11213D01*
X-374020Y11209D01*
X-374013Y11191D01*
X-374012Y11187D01*
X-374009Y11176D01*
X-374008Y11174D01*
X-374007Y11172D01*
X-374002Y11141D01*
X-373993Y11112D01*
X-373992Y11103D01*
X-373992Y11100D01*
X-373989Y11076D01*
X-373987Y11070D01*
X-373985Y11060D01*
X-373985Y11059D01*
X-373983Y11045D01*
X-373982Y11043D01*
X-373982Y11040D01*
X-373980Y11010D01*
X-373976Y10979D01*
Y10971D01*
X-373976Y10967D01*
X-373976Y10943D01*
X-373974Y10912D01*
Y10912D01*
X-373974Y10909D01*
X-373974Y10907D01*
X-373974Y10903D01*
X-373978Y4655D01*
X-373977Y4622D01*
X-373974Y4577D01*
X-373975Y4555D01*
X-373974Y4533D01*
X-373979Y4488D01*
X-373982Y4443D01*
X-373986Y4422D01*
X-373988Y4400D01*
X-373999Y4356D01*
X-374007Y4312D01*
X-374010Y4303D01*
X-374011Y4300D01*
X-374015Y4288D01*
X-374020Y4270D01*
X-374035Y4228D01*
X-374050Y4185D01*
X-374051Y4182D01*
X-374053Y4178D01*
X-374055Y4173D01*
X-374062Y4159D01*
X-374067Y4145D01*
X-374086Y4110D01*
X-374109Y4062D01*
X-374112Y4058D01*
X-374114Y4054D01*
X-374126Y4037D01*
X-374131Y4027D01*
X-374149Y4002D01*
X-374183Y3951D01*
X-374187Y3947D01*
X-374189Y3943D01*
X-374206Y3924D01*
X-374210Y3919D01*
X-374222Y3905D01*
X-374230Y3897D01*
X-374271Y3850D01*
X-374274Y3847D01*
X-374278Y3843D01*
X-374300Y3824D01*
X-374301Y3822D01*
X-374306Y3818D01*
X-374315Y3810D01*
X-374326Y3801D01*
X-374371Y3761D01*
X-374375Y3758D01*
X-374379Y3755D01*
X-374403Y3739D01*
X-374409Y3734D01*
X-374430Y3721D01*
X-374431Y3720D01*
X-374482Y3686D01*
X-374486Y3684D01*
X-374490Y3681D01*
X-374513Y3670D01*
X-374523Y3664D01*
X-374554Y3650D01*
X-374602Y3627D01*
X-374606Y3625D01*
X-374609Y3623D01*
X-374610Y3623D01*
X-374610Y3623D01*
X-374613Y3622D01*
X-374632Y3615D01*
X-374646Y3609D01*
X-374683Y3598D01*
X-374703Y3591D01*
X-374728Y3583D01*
X-374729Y3583D01*
X-374736Y3580D01*
X-374738Y3580D01*
X-374740Y3579D01*
X-374760Y3575D01*
X-374774Y3571D01*
X-374812Y3565D01*
X-374867Y3554D01*
X-374869Y3554D01*
X-374871Y3554D01*
X-374892Y3553D01*
X-374906Y3550D01*
X-374945Y3549D01*
X-375001Y3546D01*
X-375003Y3546D01*
X-375005Y3546D01*
X-375009Y3546D01*
X-378157Y3547D01*
X-378162Y3546D01*
X-378178Y3547D01*
X-378178D01*
X-378195Y3546D01*
X-378246Y3549D01*
X-378295Y3550D01*
X-378312Y3553D01*
X-378329Y3554D01*
X-378378Y3563D01*
X-378427Y3571D01*
X-378443Y3576D01*
X-378460Y3579D01*
X-378467Y3582D01*
X-378468Y3582D01*
X-378489Y3589D01*
X-378508Y3595D01*
X-378555Y3609D01*
X-378571Y3616D01*
X-378587Y3622D01*
X-378590Y3623D01*
X-378592Y3624D01*
X-378594Y3625D01*
X-378639Y3647D01*
X-378677Y3664D01*
X-378680Y3665D01*
X-378692Y3673D01*
X-378710Y3681D01*
X-378712Y3683D01*
X-378714Y3684D01*
X-378760Y3715D01*
X-378794Y3735D01*
X-378805Y3744D01*
X-378821Y3755D01*
X-378823Y3757D01*
X-378825Y3758D01*
X-378867Y3795D01*
X-378898Y3820D01*
X-378907Y3830D01*
X-378922Y3843D01*
X-378924Y3845D01*
X-378926Y3846D01*
X-378929Y3850D01*
X-387714Y12636D01*
X-387729Y12650D01*
X-387743Y12666D01*
X-387758Y12680D01*
X-387779Y12706D01*
X-387789Y12716D01*
X-387797Y12728D01*
X-387817Y12751D01*
X-387828Y12768D01*
X-387842Y12785D01*
X-387856Y12809D01*
X-387868Y12824D01*
X-387877Y12841D01*
X-387891Y12862D01*
X-387900Y12881D01*
X-387911Y12899D01*
X-387912Y12902D01*
X-387921Y12923D01*
X-387932Y12942D01*
X-387939Y12961D01*
X-387949Y12981D01*
X-387957Y13003D01*
X-387966Y13025D01*
X-387972Y13046D01*
X-387980Y13067D01*
X-387985Y13087D01*
X-387992Y13107D01*
X-387993Y13112D01*
X-387993Y13112D01*
X-387993Y13115D01*
X-387996Y13130D01*
X-388003Y13153D01*
X-388006Y13175D01*
X-388012Y13196D01*
X-388014Y13218D01*
X-388018Y13239D01*
X-388019Y13262D01*
X-388023Y13285D01*
X-388023Y13308D01*
X-388026Y13329D01*
X-388025Y13350D01*
X-388027Y13372D01*
X-388026Y13382D01*
X-388025Y25729D01*
X-388026Y25734D01*
X-388025Y25750D01*
Y25750D01*
X-388026Y25767D01*
X-388023Y25817D01*
X-388022Y25867D01*
X-388019Y25884D01*
X-388018Y25901D01*
X-388009Y25950D01*
X-388001Y25999D01*
X-387996Y26015D01*
X-387993Y26032D01*
X-387990Y26039D01*
X-387990Y26040D01*
X-387984Y26059D01*
X-387977Y26079D01*
X-387962Y26127D01*
X-387956Y26143D01*
X-387950Y26159D01*
X-387949Y26162D01*
X-387948Y26164D01*
X-387947Y26166D01*
X-387925Y26211D01*
X-387908Y26249D01*
X-387906Y26252D01*
X-387899Y26264D01*
X-387891Y26282D01*
X-387889Y26284D01*
X-387888Y26286D01*
X-387857Y26332D01*
X-387836Y26366D01*
X-387828Y26377D01*
X-387817Y26393D01*
X-387815Y26395D01*
X-387814Y26397D01*
X-387777Y26439D01*
X-387752Y26470D01*
X-387742Y26479D01*
X-387729Y26494D01*
X-387727Y26496D01*
X-387726Y26498D01*
X-387722Y26501D01*
X-378954Y35268D01*
X-378950Y35273D01*
X-378935Y35286D01*
X-378922Y35301D01*
X-378886Y35332D01*
X-378852Y35364D01*
X-378836Y35376D01*
X-378821Y35389D01*
X-378782Y35415D01*
X-378744Y35442D01*
X-378726Y35452D01*
X-378710Y35463D01*
X-378668Y35483D01*
X-378626Y35505D01*
X-378607Y35512D01*
X-378591Y35521D01*
X-378590Y35521D01*
X-378590Y35521D01*
X-378587Y35522D01*
X-378540Y35538D01*
X-378501Y35553D01*
X-378498Y35554D01*
X-378484Y35557D01*
X-378465Y35563D01*
X-378462Y35564D01*
X-378460Y35565D01*
X-378406Y35575D01*
X-378368Y35584D01*
X-378353Y35586D01*
X-378333Y35589D01*
X-378331Y35590D01*
X-378329Y35590D01*
X-378274Y35593D01*
X-378234Y35597D01*
X-378220Y35597D01*
X-378200Y35598D01*
X-378198Y35598D01*
X-378195Y35598D01*
X-378191Y35598D01*
X-375081Y35594D01*
X-375050Y35595D01*
X-375005Y35598D01*
X-374983Y35597D01*
D02*
G37*
G36*
X-461190Y82598D02*
X-448843Y82597D01*
X-448838Y82598D01*
X-448822Y82597D01*
X-448822D01*
X-448805Y82598D01*
X-448755Y82595D01*
X-448705Y82594D01*
X-448688Y82591D01*
X-448671Y82590D01*
X-448622Y82581D01*
X-448573Y82573D01*
X-448557Y82568D01*
X-448540Y82565D01*
X-448533Y82562D01*
X-448532Y82562D01*
X-448513Y82556D01*
X-448493Y82549D01*
X-448445Y82535D01*
X-448429Y82528D01*
X-448413Y82522D01*
X-448410Y82521D01*
X-448408Y82520D01*
X-448406Y82519D01*
X-448361Y82497D01*
X-448323Y82480D01*
X-448320Y82478D01*
X-448308Y82471D01*
X-448290Y82463D01*
X-448288Y82461D01*
X-448286Y82460D01*
X-448240Y82429D01*
X-448206Y82408D01*
X-448195Y82400D01*
X-448179Y82389D01*
X-448177Y82387D01*
X-448175Y82386D01*
X-448133Y82349D01*
X-448102Y82324D01*
X-448093Y82314D01*
X-448078Y82301D01*
X-448076Y82299D01*
X-448074Y82298D01*
X-448071Y82294D01*
X-439304Y73526D01*
X-439299Y73522D01*
X-439286Y73507D01*
X-439271Y73494D01*
X-439240Y73458D01*
X-439208Y73424D01*
X-439196Y73408D01*
X-439183Y73393D01*
X-439157Y73354D01*
X-439130Y73316D01*
X-439120Y73298D01*
X-439109Y73282D01*
X-439089Y73239D01*
X-439067Y73198D01*
X-439060Y73179D01*
X-439052Y73163D01*
X-439051Y73162D01*
X-439051Y73162D01*
X-439050Y73159D01*
X-439034Y73111D01*
X-439019Y73073D01*
X-439018Y73070D01*
X-439015Y73056D01*
X-439009Y73036D01*
X-439008Y73034D01*
X-439007Y73032D01*
X-438997Y72978D01*
X-438988Y72939D01*
X-438986Y72925D01*
X-438983Y72905D01*
X-438982Y72903D01*
X-438982Y72901D01*
X-438979Y72846D01*
X-438975Y72806D01*
X-438975Y72792D01*
X-438974Y72772D01*
X-438974Y72770D01*
X-438974Y72767D01*
X-438974Y72763D01*
X-438978Y69647D01*
X-438977Y69621D01*
X-438974Y69574D01*
X-438974Y69573D01*
X-438974Y69572D01*
Y69572D01*
X-438975Y69554D01*
X-438974Y69536D01*
X-438979Y69488D01*
X-438982Y69440D01*
X-438983Y69439D01*
X-438983Y69439D01*
X-438986Y69421D01*
X-438988Y69403D01*
X-438999Y69357D01*
X-439008Y69309D01*
X-439008Y69308D01*
X-439009Y69307D01*
X-439015Y69290D01*
X-439019Y69273D01*
X-439035Y69228D01*
X-439051Y69182D01*
X-439052Y69181D01*
X-439052Y69181D01*
X-439052Y69181D01*
X-439052Y69179D01*
X-439053Y69178D01*
X-439053Y69176D01*
X-439061Y69162D01*
X-439066Y69148D01*
X-439086Y69111D01*
X-439111Y69059D01*
X-439112Y69058D01*
X-439113Y69057D01*
X-439124Y69040D01*
X-439129Y69030D01*
X-439148Y69005D01*
X-439185Y68948D01*
X-439186Y68947D01*
X-439187Y68945D01*
X-439204Y68927D01*
X-439207Y68921D01*
X-439221Y68907D01*
X-439231Y68896D01*
X-439273Y68847D01*
X-439274Y68846D01*
X-439276Y68845D01*
X-439297Y68826D01*
X-439299Y68824D01*
X-439303Y68820D01*
X-439313Y68813D01*
X-439330Y68798D01*
X-439374Y68759D01*
X-439375Y68758D01*
X-439376Y68757D01*
X-439400Y68741D01*
X-439407Y68736D01*
X-439427Y68723D01*
X-439435Y68718D01*
X-439485Y68685D01*
X-439486Y68684D01*
X-439487Y68683D01*
X-439510Y68672D01*
X-439521Y68665D01*
X-439552Y68651D01*
X-439604Y68625D01*
X-439606Y68625D01*
X-439608Y68624D01*
X-439610Y68623D01*
D01*
D01*
X-439610Y68623D01*
X-439629Y68616D01*
X-439642Y68611D01*
X-439682Y68599D01*
X-439737Y68580D01*
X-439737Y68580D01*
X-439737Y68580D01*
X-439757Y68576D01*
X-439771Y68572D01*
X-439810Y68566D01*
X-439819Y68564D01*
X-439868Y68554D01*
X-439868D01*
X-439868Y68554D01*
X-439889Y68553D01*
X-439902Y68551D01*
X-439943Y68549D01*
X-439949Y68549D01*
X-440001Y68546D01*
X-440001Y68546D01*
X-440002Y68546D01*
X-440006Y68546D01*
X-446280Y68548D01*
X-446295Y68547D01*
X-446320Y68547D01*
X-446346Y68546D01*
X-446388Y68549D01*
X-446429Y68549D01*
X-446454Y68553D01*
X-446479Y68555D01*
X-446520Y68563D01*
X-446561Y68570D01*
X-446583Y68576D01*
X-446595Y68579D01*
X-446599Y68580D01*
X-446610Y68582D01*
X-446632Y68590D01*
X-446632Y68590D01*
X-446632Y68590D01*
X-446650Y68596D01*
X-446689Y68607D01*
X-446706Y68615D01*
X-446722Y68620D01*
X-446729Y68623D01*
X-446736Y68626D01*
X-446739Y68627D01*
X-446755Y68635D01*
X-446757Y68636D01*
X-446773Y68644D01*
X-446778Y68646D01*
X-446812Y68661D01*
X-446824Y68669D01*
X-446843Y68678D01*
X-446851Y68683D01*
X-446859Y68687D01*
X-446872Y68696D01*
X-446876Y68698D01*
X-446895Y68711D01*
X-446901Y68716D01*
X-446926Y68731D01*
X-446934Y68737D01*
X-446955Y68751D01*
X-446962Y68757D01*
X-446970Y68762D01*
X-446981Y68772D01*
X-446985Y68775D01*
X-447007Y68795D01*
X-447013Y68800D01*
X-447014Y68801D01*
X-447030Y68814D01*
X-447035Y68819D01*
X-447057Y68837D01*
X-447062Y68843D01*
X-447062Y68844D01*
X-447063Y68845D01*
X-447070Y68850D01*
X-447079Y68861D01*
X-447083Y68865D01*
X-447108Y68894D01*
X-447117Y68905D01*
X-447123Y68911D01*
X-447124Y68913D01*
X-447146Y68937D01*
X-447150Y68942D01*
X-447151Y68944D01*
X-447152Y68946D01*
X-447157Y68952D01*
X-447164Y68962D01*
X-447169Y68968D01*
X-447191Y69003D01*
X-447222Y69047D01*
X-447224Y69052D01*
X-447226Y69054D01*
X-447227Y69057D01*
X-447229Y69060D01*
X-447229Y69060D01*
X-447231Y69063D01*
X-447236Y69073D01*
X-447241Y69081D01*
X-447260Y69122D01*
X-447282Y69166D01*
X-447283Y69168D01*
X-447284Y69171D01*
X-447285Y69174D01*
X-447286Y69177D01*
X-447288Y69180D01*
X-447289Y69182D01*
X-447289Y69183D01*
X-447293Y69193D01*
X-447297Y69202D01*
X-447311Y69247D01*
X-447327Y69294D01*
X-447328Y69298D01*
X-447329Y69300D01*
X-447329Y69303D01*
X-447331Y69306D01*
X-447332Y69310D01*
X-447332Y69310D01*
X-447332Y69314D01*
X-447333Y69319D01*
X-447335Y69324D01*
X-448600Y70972D01*
X-450474Y72411D01*
X-452657Y73315D01*
X-455000Y73623D01*
X-457343Y73315D01*
X-459526Y72411D01*
X-461400Y70972D01*
X-462666Y69323D01*
X-462668Y69310D01*
X-462671Y69304D01*
X-462673Y69294D01*
X-462681Y69270D01*
X-462687Y69247D01*
X-462688Y69245D01*
X-462689Y69241D01*
X-462690Y69238D01*
X-462691Y69236D01*
X-462702Y69210D01*
X-462711Y69183D01*
X-462715Y69176D01*
X-462717Y69168D01*
X-462718Y69166D01*
X-462729Y69145D01*
X-462738Y69124D01*
X-462739Y69121D01*
X-462741Y69117D01*
X-462742Y69115D01*
X-462743Y69113D01*
X-462756Y69090D01*
X-462769Y69063D01*
X-462774Y69056D01*
X-462779Y69047D01*
X-462793Y69026D01*
X-462804Y69007D01*
X-462806Y69004D01*
X-462808Y69002D01*
X-462809Y69000D01*
X-462810Y68998D01*
X-462826Y68978D01*
X-462843Y68952D01*
X-462849Y68945D01*
X-462854Y68937D01*
X-462873Y68916D01*
X-462884Y68901D01*
X-462887Y68898D01*
X-462889Y68896D01*
X-462890Y68895D01*
X-462892Y68892D01*
X-462909Y68876D01*
X-462930Y68850D01*
X-462937Y68844D01*
X-462943Y68837D01*
X-462966Y68818D01*
X-462978Y68806D01*
X-462982Y68803D01*
X-462984Y68801D01*
X-462985Y68801D01*
X-462987Y68798D01*
X-463004Y68785D01*
X-463030Y68762D01*
X-463038Y68756D01*
X-463045Y68751D01*
X-463071Y68734D01*
X-463084Y68724D01*
X-463087Y68721D01*
X-463091Y68719D01*
X-463091Y68719D01*
X-463094Y68717D01*
X-463111Y68707D01*
X-463141Y68687D01*
X-463150Y68683D01*
X-463157Y68678D01*
X-463183Y68665D01*
X-463203Y68654D01*
X-463208Y68652D01*
X-463209Y68651D01*
X-463231Y68642D01*
X-463261Y68627D01*
X-463264Y68626D01*
X-463269Y68624D01*
X-463270Y68623D01*
X-463272Y68623D01*
X-463278Y68620D01*
X-463301Y68612D01*
X-463326Y68602D01*
X-463332Y68600D01*
X-463333Y68600D01*
X-463353Y68594D01*
X-463358Y68593D01*
X-463390Y68582D01*
X-463396Y68581D01*
X-463396Y68581D01*
X-463402Y68580D01*
X-463405Y68579D01*
X-463424Y68575D01*
X-463455Y68566D01*
X-463461Y68566D01*
X-463462Y68565D01*
X-463482Y68563D01*
X-463488Y68562D01*
X-463521Y68555D01*
X-463527Y68555D01*
X-463527Y68555D01*
X-463543Y68554D01*
X-463554Y68553D01*
X-463587Y68548D01*
X-463593Y68548D01*
X-463595Y68548D01*
X-463614Y68548D01*
X-463621Y68548D01*
X-463654Y68546D01*
X-463660Y68546D01*
X-463661Y68546D01*
X-469909Y68550D01*
X-469952Y68549D01*
X-469995Y68546D01*
X-470019Y68547D01*
X-470043Y68547D01*
X-470086Y68551D01*
X-470129Y68554D01*
X-470152Y68558D01*
X-470176Y68561D01*
X-470217Y68571D01*
X-470260Y68579D01*
X-470269Y68582D01*
X-470272Y68583D01*
X-470285Y68587D01*
X-470306Y68592D01*
X-470346Y68608D01*
X-470387Y68622D01*
X-470390Y68623D01*
X-470394Y68625D01*
X-470399Y68626D01*
X-470415Y68635D01*
X-470430Y68641D01*
X-470464Y68659D01*
X-470510Y68681D01*
X-470514Y68684D01*
X-470518Y68686D01*
X-470537Y68699D01*
X-470548Y68705D01*
X-470572Y68722D01*
X-470621Y68755D01*
X-470625Y68758D01*
X-470629Y68761D01*
X-470649Y68779D01*
X-470656Y68784D01*
X-470670Y68797D01*
X-470675Y68802D01*
X-470722Y68843D01*
X-470726Y68846D01*
X-470729Y68850D01*
X-470750Y68873D01*
X-470752Y68876D01*
X-470756Y68880D01*
X-470765Y68891D01*
X-470771Y68898D01*
X-470811Y68943D01*
X-470814Y68947D01*
X-470817Y68951D01*
X-470834Y68977D01*
X-470840Y68984D01*
X-470853Y69005D01*
X-470886Y69054D01*
X-470888Y69058D01*
X-470891Y69062D01*
X-470902Y69087D01*
X-470910Y69098D01*
X-470923Y69127D01*
X-470946Y69173D01*
X-470947Y69178D01*
X-470949Y69181D01*
X-470949Y69182D01*
X-470949Y69182D01*
X-470950Y69185D01*
X-470957Y69206D01*
X-470964Y69220D01*
X-470975Y69257D01*
X-470980Y69274D01*
X-470989Y69300D01*
X-470989Y69301D01*
X-470992Y69308D01*
X-470992Y69310D01*
X-470993Y69312D01*
X-470997Y69334D01*
X-471001Y69349D01*
X-471007Y69386D01*
X-471018Y69439D01*
X-471018Y69441D01*
X-471018Y69443D01*
X-471020Y69466D01*
X-471022Y69481D01*
X-471023Y69519D01*
X-471026Y69573D01*
X-471026Y69575D01*
X-471026Y69577D01*
X-471026Y69581D01*
X-471025Y72729D01*
X-471026Y72734D01*
X-471025Y72750D01*
Y72750D01*
X-471026Y72767D01*
X-471023Y72818D01*
X-471022Y72867D01*
X-471019Y72884D01*
X-471018Y72901D01*
X-471009Y72950D01*
X-471001Y72999D01*
X-470996Y73015D01*
X-470993Y73032D01*
X-470990Y73039D01*
X-470990Y73040D01*
X-470983Y73061D01*
X-470977Y73080D01*
X-470963Y73127D01*
X-470956Y73143D01*
X-470950Y73159D01*
X-470949Y73162D01*
X-470948Y73164D01*
X-470947Y73166D01*
X-470925Y73211D01*
X-470908Y73249D01*
X-470907Y73252D01*
X-470899Y73264D01*
X-470891Y73282D01*
X-470889Y73284D01*
X-470888Y73286D01*
X-470857Y73332D01*
X-470836Y73366D01*
X-470828Y73377D01*
X-470817Y73393D01*
X-470815Y73395D01*
X-470814Y73397D01*
X-470777Y73439D01*
X-470752Y73470D01*
X-470742Y73479D01*
X-470729Y73494D01*
X-470727Y73496D01*
X-470726Y73498D01*
X-470722Y73501D01*
X-461936Y82286D01*
X-461922Y82301D01*
X-461904Y82317D01*
X-461886Y82335D01*
X-461863Y82353D01*
X-461854Y82362D01*
X-461843Y82370D01*
X-461821Y82389D01*
X-461801Y82402D01*
X-461781Y82418D01*
X-461760Y82430D01*
X-461746Y82441D01*
X-461730Y82450D01*
X-461710Y82463D01*
X-461688Y82473D01*
X-461666Y82486D01*
X-461663Y82487D01*
X-461646Y82495D01*
X-461629Y82504D01*
X-461609Y82512D01*
X-461591Y82521D01*
X-461587Y82522D01*
X-461587Y82522D01*
X-461584Y82523D01*
X-461566Y82529D01*
X-461541Y82540D01*
X-461522Y82545D01*
X-461504Y82552D01*
X-461484Y82557D01*
X-461465Y82564D01*
X-461460Y82565D01*
X-461460Y82565D01*
X-461457Y82565D01*
X-461438Y82569D01*
X-461412Y82576D01*
X-461393Y82579D01*
X-461374Y82584D01*
X-461353Y82586D01*
X-461334Y82590D01*
X-461306Y82592D01*
X-461279Y82595D01*
X-461260Y82596D01*
X-461241Y82598D01*
X-461220Y82597D01*
X-461200Y82599D01*
X-461190Y82598D01*
D02*
G37*
G36*
X-439983Y60597D02*
X-439961Y60598D01*
X-439916Y60593D01*
X-439871Y60590D01*
X-439850Y60586D01*
X-439828Y60584D01*
X-439785Y60573D01*
X-439740Y60565D01*
X-439731Y60562D01*
X-439728Y60561D01*
X-439716Y60557D01*
X-439698Y60553D01*
X-439656Y60537D01*
X-439613Y60522D01*
X-439610Y60521D01*
X-439606Y60519D01*
X-439602Y60517D01*
X-439587Y60510D01*
X-439573Y60505D01*
X-439538Y60486D01*
X-439490Y60462D01*
X-439486Y60460D01*
X-439482Y60458D01*
X-439465Y60446D01*
X-439455Y60441D01*
X-439431Y60423D01*
X-439379Y60389D01*
X-439375Y60385D01*
X-439371Y60383D01*
X-439352Y60366D01*
X-439347Y60363D01*
X-439333Y60349D01*
X-439325Y60342D01*
X-439278Y60301D01*
X-439275Y60297D01*
X-439271Y60294D01*
X-439252Y60272D01*
X-439250Y60271D01*
X-439246Y60266D01*
X-439238Y60257D01*
X-439229Y60246D01*
X-439189Y60201D01*
X-439187Y60197D01*
X-439183Y60193D01*
X-439167Y60169D01*
X-439162Y60163D01*
X-439150Y60142D01*
X-439149Y60141D01*
X-439114Y60090D01*
X-439112Y60086D01*
X-439109Y60082D01*
X-439099Y60059D01*
X-439092Y60049D01*
X-439078Y60018D01*
X-439055Y59970D01*
X-439053Y59966D01*
X-439051Y59963D01*
X-439051Y59962D01*
X-439051Y59962D01*
X-439050Y59959D01*
X-439043Y59939D01*
X-439038Y59927D01*
X-439026Y59889D01*
X-439020Y59869D01*
X-439011Y59844D01*
X-439011Y59843D01*
X-439008Y59836D01*
X-439008Y59834D01*
X-439007Y59832D01*
X-439003Y59812D01*
X-438999Y59798D01*
X-438993Y59760D01*
X-438982Y59705D01*
X-438982Y59703D01*
X-438982Y59701D01*
X-438981Y59680D01*
X-438978Y59666D01*
X-438977Y59627D01*
X-438974Y59571D01*
X-438974Y59569D01*
X-438974Y59567D01*
X-438974Y59563D01*
X-438975Y56415D01*
X-438974Y56410D01*
X-438975Y56394D01*
Y56394D01*
X-438974Y56377D01*
X-438977Y56326D01*
X-438978Y56277D01*
X-438981Y56260D01*
X-438982Y56243D01*
X-438991Y56194D01*
X-438999Y56145D01*
X-439004Y56129D01*
X-439007Y56112D01*
X-439010Y56105D01*
X-439010Y56104D01*
X-439017Y56083D01*
X-439023Y56064D01*
X-439038Y56017D01*
X-439044Y56001D01*
X-439050Y55985D01*
X-439051Y55982D01*
X-439052Y55980D01*
X-439053Y55978D01*
X-439075Y55933D01*
X-439092Y55894D01*
X-439094Y55892D01*
X-439101Y55880D01*
X-439109Y55862D01*
X-439111Y55860D01*
X-439112Y55858D01*
X-439143Y55812D01*
X-439164Y55778D01*
X-439172Y55767D01*
X-439183Y55751D01*
X-439185Y55749D01*
X-439186Y55746D01*
X-439223Y55705D01*
X-439248Y55674D01*
X-439258Y55665D01*
X-439271Y55650D01*
X-439273Y55648D01*
X-439275Y55646D01*
X-439278Y55643D01*
X-448064Y46858D01*
X-448078Y46843D01*
X-448094Y46829D01*
X-448108Y46814D01*
X-448134Y46793D01*
X-448145Y46783D01*
X-448156Y46775D01*
X-448179Y46755D01*
X-448196Y46743D01*
X-448213Y46730D01*
X-448237Y46716D01*
X-448253Y46704D01*
X-448269Y46695D01*
X-448290Y46681D01*
X-448309Y46672D01*
X-448327Y46661D01*
X-448330Y46660D01*
X-448351Y46651D01*
X-448370Y46640D01*
X-448390Y46633D01*
X-448409Y46623D01*
X-448431Y46616D01*
X-448453Y46606D01*
X-448474Y46600D01*
X-448495Y46592D01*
X-448515Y46587D01*
X-448535Y46580D01*
X-448559Y46576D01*
X-448581Y46569D01*
X-448603Y46566D01*
X-448625Y46561D01*
X-448646Y46558D01*
X-448667Y46554D01*
X-448690Y46553D01*
X-448714Y46549D01*
X-448736Y46549D01*
X-448758Y46546D01*
X-448778Y46547D01*
X-448800Y46545D01*
X-448810Y46546D01*
X-461157Y46547D01*
X-461162Y46546D01*
X-461178Y46547D01*
X-461178D01*
X-461195Y46546D01*
X-461246Y46549D01*
X-461295Y46550D01*
X-461312Y46553D01*
X-461329Y46554D01*
X-461378Y46563D01*
X-461427Y46571D01*
X-461443Y46576D01*
X-461460Y46579D01*
X-461467Y46582D01*
X-461468Y46582D01*
X-461487Y46588D01*
X-461508Y46595D01*
X-461555Y46610D01*
X-461571Y46616D01*
X-461587Y46622D01*
X-461590Y46623D01*
X-461592Y46624D01*
X-461594Y46625D01*
X-461639Y46647D01*
X-461678Y46664D01*
X-461680Y46666D01*
X-461692Y46673D01*
X-461710Y46681D01*
X-461712Y46683D01*
X-461714Y46684D01*
X-461760Y46715D01*
X-461794Y46736D01*
X-461805Y46744D01*
X-461821Y46755D01*
X-461823Y46757D01*
X-461825Y46758D01*
X-461867Y46795D01*
X-461898Y46820D01*
X-461907Y46830D01*
X-461922Y46843D01*
X-461924Y46845D01*
X-461926Y46846D01*
X-461929Y46850D01*
X-470696Y55618D01*
X-470701Y55622D01*
X-470714Y55637D01*
X-470729Y55650D01*
X-470760Y55686D01*
X-470793Y55720D01*
X-470804Y55736D01*
X-470817Y55751D01*
X-470843Y55790D01*
X-470871Y55828D01*
X-470880Y55846D01*
X-470891Y55862D01*
X-470911Y55904D01*
X-470934Y55946D01*
X-470941Y55965D01*
X-470949Y55981D01*
X-470949Y55982D01*
X-470949Y55982D01*
X-470950Y55985D01*
X-470966Y56033D01*
X-470981Y56071D01*
X-470982Y56074D01*
X-470985Y56088D01*
X-470992Y56108D01*
X-470992Y56110D01*
X-470993Y56112D01*
X-471003Y56166D01*
X-471012Y56205D01*
X-471014Y56219D01*
X-471018Y56239D01*
X-471018Y56241D01*
X-471018Y56243D01*
X-471021Y56298D01*
X-471026Y56338D01*
X-471025Y56352D01*
X-471026Y56372D01*
X-471026Y56374D01*
X-471026Y56377D01*
X-471026Y56381D01*
X-471022Y59491D01*
X-471023Y59522D01*
X-471026Y59567D01*
X-471025Y59589D01*
X-471026Y59611D01*
X-471021Y59656D01*
X-471018Y59701D01*
X-471014Y59722D01*
X-471012Y59744D01*
X-471001Y59788D01*
X-470993Y59832D01*
X-470990Y59841D01*
X-470989Y59844D01*
X-470985Y59856D01*
X-470981Y59874D01*
X-470965Y59916D01*
X-470950Y59959D01*
X-470949Y59962D01*
X-470947Y59966D01*
X-470946Y59970D01*
X-470938Y59985D01*
X-470933Y59999D01*
X-470914Y60034D01*
X-470891Y60082D01*
X-470888Y60086D01*
X-470886Y60090D01*
X-470874Y60107D01*
X-470869Y60117D01*
X-470851Y60142D01*
X-470817Y60193D01*
X-470814Y60197D01*
X-470811Y60201D01*
X-470794Y60220D01*
X-470791Y60225D01*
X-470778Y60239D01*
X-470770Y60247D01*
X-470729Y60294D01*
X-470726Y60297D01*
X-470722Y60301D01*
X-470700Y60320D01*
X-470699Y60322D01*
X-470695Y60326D01*
X-470685Y60334D01*
X-470674Y60343D01*
X-470629Y60383D01*
X-470625Y60385D01*
X-470621Y60389D01*
X-470597Y60405D01*
X-470591Y60410D01*
X-470570Y60423D01*
X-470569Y60423D01*
X-470518Y60458D01*
X-470514Y60460D01*
X-470510Y60462D01*
X-470487Y60473D01*
X-470477Y60480D01*
X-470446Y60494D01*
X-470399Y60517D01*
X-470394Y60519D01*
X-470390Y60521D01*
X-470390Y60521D01*
X-470390Y60521D01*
X-470387Y60522D01*
X-470368Y60529D01*
X-470355Y60535D01*
X-470316Y60546D01*
X-470300Y60551D01*
X-470272Y60561D01*
X-470271Y60561D01*
X-470263Y60564D01*
X-470262Y60564D01*
X-470260Y60565D01*
X-470240Y60569D01*
X-470226Y60573D01*
X-470187Y60579D01*
X-470132Y60590D01*
X-470130Y60590D01*
X-470129Y60590D01*
X-470108Y60591D01*
X-470094Y60594D01*
X-470055Y60595D01*
X-469999Y60598D01*
X-469997Y60598D01*
X-469995Y60598D01*
X-469991Y60598D01*
X-463719Y60596D01*
X-463704Y60597D01*
X-463685Y60597D01*
X-463665Y60598D01*
X-463663Y60598D01*
X-463660Y60598D01*
X-463660D01*
X-463615Y60595D01*
X-463571Y60594D01*
X-463551Y60591D01*
X-463532Y60590D01*
X-463529Y60590D01*
X-463527Y60589D01*
X-463513Y60587D01*
X-463512Y60587D01*
X-463502Y60585D01*
X-463482Y60581D01*
X-463439Y60574D01*
X-463420Y60568D01*
X-463400Y60565D01*
X-463398Y60564D01*
X-463396Y60563D01*
X-463385Y60560D01*
X-463381Y60559D01*
X-463350Y60548D01*
X-463310Y60536D01*
X-463292Y60529D01*
X-463274Y60522D01*
X-463271Y60521D01*
X-463270Y60521D01*
X-463269Y60521D01*
X-463262Y60517D01*
X-463255Y60514D01*
X-463219Y60496D01*
X-463188Y60483D01*
X-463173Y60474D01*
X-463150Y60462D01*
X-463143Y60458D01*
X-463135Y60454D01*
X-463096Y60427D01*
X-463074Y60413D01*
X-463064Y60405D01*
X-463039Y60389D01*
X-463032Y60383D01*
X-463025Y60378D01*
X-462984Y60341D01*
X-462969Y60329D01*
X-462963Y60323D01*
X-462938Y60301D01*
X-462932Y60295D01*
X-462926Y60289D01*
X-462888Y60244D01*
X-462885Y60241D01*
X-462877Y60233D01*
X-462874Y60229D01*
X-462849Y60201D01*
X-462846Y60195D01*
X-462846Y60195D01*
X-462845Y60194D01*
X-462839Y60187D01*
X-462807Y60138D01*
X-462799Y60126D01*
X-462798Y60125D01*
X-462798Y60124D01*
X-462775Y60090D01*
X-462773Y60087D01*
X-462772Y60086D01*
X-462772Y60085D01*
X-462771Y60084D01*
X-462770Y60081D01*
X-462766Y60075D01*
X-462741Y60022D01*
X-462715Y59970D01*
X-462715Y59970D01*
X-462715Y59970D01*
X-462714Y59968D01*
X-462713Y59966D01*
X-462713Y59966D01*
X-462712Y59964D01*
X-462711Y59959D01*
X-462708Y59955D01*
X-462708Y59953D01*
X-462689Y59896D01*
X-462687Y59889D01*
X-462671Y59843D01*
X-462671Y59841D01*
X-462670Y59839D01*
X-462670Y59839D01*
X-462669Y59838D01*
X-462668Y59832D01*
X-462666Y59826D01*
X-462665Y59820D01*
X-461400Y58172D01*
X-459526Y56733D01*
X-457343Y55829D01*
X-455000Y55521D01*
X-452657Y55829D01*
X-450474Y56733D01*
X-448600Y58172D01*
X-447335Y59820D01*
X-447334Y59826D01*
X-447330Y59837D01*
X-447329Y59844D01*
X-447319Y59872D01*
X-447311Y59902D01*
X-447309Y59907D01*
X-447308Y59913D01*
X-447303Y59923D01*
X-447300Y59933D01*
X-447296Y59942D01*
X-447292Y59953D01*
X-447292Y59955D01*
X-447288Y59963D01*
X-447285Y59970D01*
X-447271Y59999D01*
X-447260Y60025D01*
X-447257Y60030D01*
X-447255Y60036D01*
X-447249Y60045D01*
X-447245Y60055D01*
X-447240Y60063D01*
X-447234Y60075D01*
X-447229Y60082D01*
X-447225Y60090D01*
X-447207Y60118D01*
X-447193Y60141D01*
X-447190Y60146D01*
X-447187Y60151D01*
X-447180Y60159D01*
X-447174Y60169D01*
X-447169Y60175D01*
X-447161Y60187D01*
X-447155Y60194D01*
X-447151Y60201D01*
X-447127Y60227D01*
X-447112Y60247D01*
X-447107Y60252D01*
X-447104Y60256D01*
X-447097Y60263D01*
X-447090Y60272D01*
X-447084Y60277D01*
X-447074Y60289D01*
X-447068Y60295D01*
X-447062Y60301D01*
X-447034Y60326D01*
X-447018Y60342D01*
X-447012Y60346D01*
X-447009Y60349D01*
X-447001Y60355D01*
X-446992Y60363D01*
X-446987Y60367D01*
X-446975Y60378D01*
X-446968Y60383D01*
X-446961Y60389D01*
X-446929Y60410D01*
X-446912Y60423D01*
X-446908Y60426D01*
X-446903Y60429D01*
X-446902Y60430D01*
X-446898Y60432D01*
X-446892Y60436D01*
X-446884Y60441D01*
X-446879Y60444D01*
X-446865Y60454D01*
X-446857Y60458D01*
X-446850Y60462D01*
X-446817Y60479D01*
X-446793Y60493D01*
X-446785Y60496D01*
X-446782Y60497D01*
X-446771Y60502D01*
X-446766Y60505D01*
X-446762Y60506D01*
X-446745Y60514D01*
X-446738Y60517D01*
X-446731Y60521D01*
X-446730Y60521D01*
X-446729Y60521D01*
X-446726Y60522D01*
X-446697Y60532D01*
X-446669Y60544D01*
X-446661Y60546D01*
X-446658Y60547D01*
X-446642Y60551D01*
X-446641Y60552D01*
X-446638Y60553D01*
X-446619Y60559D01*
X-446615Y60560D01*
X-446604Y60563D01*
X-446602Y60564D01*
X-446600Y60565D01*
X-446570Y60571D01*
X-446540Y60578D01*
X-446531Y60580D01*
X-446528Y60581D01*
X-446504Y60583D01*
X-446498Y60585D01*
X-446488Y60587D01*
X-446488Y60587D01*
X-446473Y60589D01*
X-446471Y60590D01*
X-446468Y60590D01*
X-446438Y60592D01*
X-446407Y60596D01*
X-446399D01*
X-446395Y60596D01*
X-446371Y60596D01*
X-446340Y60598D01*
X-446340D01*
X-446338Y60598D01*
X-446335Y60598D01*
X-446331Y60598D01*
X-440083Y60594D01*
X-440050Y60595D01*
X-440005Y60598D01*
X-439983Y60597D01*
D02*
G37*
D22*
X-553076Y-80772D02*
D03*
X-536076D02*
D03*
D89*
X-345622Y257894D02*
D03*
X-341268Y232261D02*
D03*
X-356255Y320497D02*
D03*
X-260873Y257581D02*
D03*
X-269329Y307368D02*
D03*
X-273934Y334480D02*
D03*
D90*
X-380000Y187500D02*
D03*
Y232500D02*
D03*
D91*
X-433404Y204012D02*
D03*
X-417404Y204012D02*
D03*
X-203000Y9572D02*
D03*
X-217000D02*
D03*
X-203000Y25000D02*
D03*
X-217000D02*
D03*
X-215500Y320000D02*
D03*
X-229500D02*
D03*
X-382276Y255108D02*
D03*
X-396276D02*
D03*
X-507000Y84572D02*
D03*
X-493000D02*
D03*
X-398000Y39572D02*
D03*
X-412000D02*
D03*
X-447404Y204012D02*
D03*
X-403404Y204012D02*
D03*
X207000Y-305000D02*
D03*
X193000D02*
D03*
D92*
X-157190Y8624D02*
D03*
Y18624D02*
D03*
Y-71376D02*
D03*
Y-61376D02*
D03*
Y-66376D02*
D03*
Y-46376D02*
D03*
Y-51376D02*
D03*
Y-56376D02*
D03*
Y-26376D02*
D03*
Y-16376D02*
D03*
Y-21376D02*
D03*
Y-41376D02*
D03*
Y-31376D02*
D03*
Y-36376D02*
D03*
Y3624D02*
D03*
Y13624D02*
D03*
Y-11376D02*
D03*
Y-1376D02*
D03*
Y-6376D02*
D03*
Y23624D02*
D03*
X-25690Y-56376D02*
D03*
Y-46376D02*
D03*
Y-51376D02*
D03*
Y-71376D02*
D03*
Y-61376D02*
D03*
Y-66376D02*
D03*
Y-36376D02*
D03*
Y-41376D02*
D03*
Y-31376D02*
D03*
Y-11376D02*
D03*
Y-1376D02*
D03*
Y-6376D02*
D03*
Y-26376D02*
D03*
Y-16376D02*
D03*
Y-21376D02*
D03*
Y8624D02*
D03*
Y13624D02*
D03*
Y3624D02*
D03*
Y23624D02*
D03*
Y18624D02*
D03*
D93*
X-249548Y98044D02*
D03*
X-264548D02*
D03*
X-227500Y52500D02*
D03*
X-212500D02*
D03*
X-182500D02*
D03*
X-197500D02*
D03*
X152788Y-125476D02*
D03*
X137788D02*
D03*
X147708Y-110236D02*
D03*
X132708D02*
D03*
X136772Y-55372D02*
D03*
X151772D02*
D03*
X136772Y-39116D02*
D03*
X151772D02*
D03*
X453628Y-205740D02*
D03*
X468628D02*
D03*
X505340Y134620D02*
D03*
X490340D02*
D03*
X-465000Y-65428D02*
D03*
X-480000D02*
D03*
X185000Y155000D02*
D03*
X200000D02*
D03*
X-435000Y-65428D02*
D03*
X-450000D02*
D03*
D94*
X-260000Y62500D02*
D03*
Y47500D02*
D03*
X-85000Y162072D02*
D03*
Y147072D02*
D03*
X-85000Y177072D02*
D03*
Y192072D02*
D03*
X-195000Y177072D02*
D03*
Y192072D02*
D03*
X-195000Y162072D02*
D03*
Y147072D02*
D03*
X-416532Y220112D02*
D03*
Y235112D02*
D03*
X-430784Y-25280D02*
D03*
Y-10280D02*
D03*
X-517144Y-112656D02*
D03*
Y-97656D02*
D03*
X-410000Y-97928D02*
D03*
Y-112928D02*
D03*
X-450000Y-97928D02*
D03*
Y-112928D02*
D03*
X-490000Y-97928D02*
D03*
Y-112928D02*
D03*
X-495300Y-66428D02*
D03*
Y-51428D02*
D03*
X-433804Y220112D02*
D03*
Y235112D02*
D03*
X180000Y102072D02*
D03*
Y87072D02*
D03*
X-495000Y-37928D02*
D03*
Y-22928D02*
D03*
X-245000Y62500D02*
D03*
Y47500D02*
D03*
D95*
X-155000Y52572D02*
D03*
Y66572D02*
D03*
X-85000Y81572D02*
D03*
Y67572D02*
D03*
X-105664Y-132476D02*
D03*
Y-118476D02*
D03*
X-24384Y-112380D02*
D03*
Y-126380D02*
D03*
X-40640Y-126380D02*
D03*
Y-112380D02*
D03*
X-249936Y159116D02*
D03*
Y173116D02*
D03*
X-520000Y-37428D02*
D03*
Y-23428D02*
D03*
X-485000Y-213428D02*
D03*
Y-227428D02*
D03*
X-90000Y-147428D02*
D03*
Y-133428D02*
D03*
X197500Y239500D02*
D03*
Y225500D02*
D03*
X-70000Y-147428D02*
D03*
Y-133428D02*
D03*
X-465000Y16572D02*
D03*
Y2572D02*
D03*
X-378206Y50404D02*
D03*
Y64404D02*
D03*
D96*
X-224750Y172132D02*
D03*
Y167132D02*
D03*
Y162132D02*
D03*
X-232450D02*
D03*
Y167132D02*
D03*
D97*
Y172132D02*
D03*
D98*
X-406400Y-39408D02*
D03*
Y-12408D02*
D03*
X-334264Y-41440D02*
D03*
Y-14440D02*
D03*
D99*
X-356538Y19572D02*
D03*
X-383208D02*
D03*
X-455000Y51364D02*
D03*
Y78034D02*
D03*
D100*
X-87500Y-115428D02*
D03*
X-72500D02*
D03*
D101*
X-514500Y37572D02*
D03*
X-495500D02*
D03*
X-514500Y61572D02*
D03*
X-505000D02*
D03*
X-495500D02*
D03*
D102*
X-380000Y-45178D02*
D03*
X-375000Y-15678D02*
D03*
X-380000D02*
D03*
X-370000Y-45178D02*
D03*
X-360000D02*
D03*
X-365000D02*
D03*
X-375000D02*
D03*
X-370000Y-15678D02*
D03*
X-365000D02*
D03*
X-360000D02*
D03*
D103*
X-370000Y-30428D02*
D03*
D104*
X-415500Y58072D02*
D03*
Y64572D02*
D03*
Y71072D02*
D03*
X-394500Y58072D02*
D03*
Y64572D02*
D03*
Y71072D02*
D03*
D105*
X-405000Y64572D02*
D03*
D106*
X-460000Y-234928D02*
D03*
Y-205928D02*
D03*
X-450000Y-234928D02*
D03*
X-440000D02*
D03*
X-450000Y-205928D02*
D03*
X-440000D02*
D03*
D107*
X-450000Y-220428D02*
D03*
D108*
X152250Y-305000D02*
D03*
X167750D02*
D03*
D109*
X471350Y-171678D02*
D03*
X445950D02*
D03*
X458650D02*
D03*
X484050D02*
D03*
X445950Y-99178D02*
D03*
X458650D02*
D03*
X471350D02*
D03*
X484050D02*
D03*
D110*
X-162250Y159822D02*
D03*
Y172822D02*
D03*
Y166322D02*
D03*
Y179322D02*
D03*
X-117750Y159822D02*
D03*
Y166322D02*
D03*
Y179322D02*
D03*
Y172822D02*
D03*
D111*
X-195000Y-35428D02*
D03*
Y-50428D02*
D03*
Y-20428D02*
D03*
D112*
X218360Y11939D02*
D03*
X221153Y31810D02*
D03*
X223946Y51681D02*
D03*
X226738Y71551D02*
D03*
X229531Y91422D02*
D03*
X232323Y111293D02*
D03*
X235116Y131164D02*
D03*
X237909Y151034D02*
D03*
X240701Y170905D02*
D03*
X243494Y190776D02*
D03*
X246287Y210646D02*
D03*
X249079Y230517D02*
D03*
X251872Y250388D02*
D03*
X434423Y-18427D02*
D03*
X437215Y1444D02*
D03*
X440008Y21315D02*
D03*
X442801Y41186D02*
D03*
X445593Y61056D02*
D03*
X448386Y80927D02*
D03*
X451179Y100798D02*
D03*
X453971Y120669D02*
D03*
X456764Y140539D02*
D03*
X459557Y160410D02*
D03*
X462349Y180281D02*
D03*
X465142Y200152D02*
D03*
X467935Y220022D02*
D03*
X470727Y239893D02*
D03*
X473520Y259764D02*
D03*
X476313Y279634D02*
D03*
D113*
X273958Y-15881D02*
D03*
X313699Y-21467D02*
D03*
X293828Y-18674D02*
D03*
X254087Y-13089D02*
D03*
X393182Y-32637D02*
D03*
X333570Y-24259D02*
D03*
X373311Y-29844D02*
D03*
X353440Y-27052D02*
D03*
D114*
X-138940Y-89626D02*
D03*
X-133940D02*
D03*
X-118940D02*
D03*
X-128940D02*
D03*
X-123940D02*
D03*
X-103940D02*
D03*
X-113940D02*
D03*
X-108940D02*
D03*
X-133940Y41874D02*
D03*
X-128940D02*
D03*
X-123940D02*
D03*
X-138940D02*
D03*
X-108940D02*
D03*
X-103940D02*
D03*
X-118940D02*
D03*
X-113940D02*
D03*
X-58940Y-89626D02*
D03*
X-68940D02*
D03*
X-63940D02*
D03*
X-43940D02*
D03*
X-53940D02*
D03*
X-48940D02*
D03*
X-88940D02*
D03*
X-98940D02*
D03*
X-93940D02*
D03*
X-73940D02*
D03*
X-83940D02*
D03*
X-78940D02*
D03*
X-98940Y41874D02*
D03*
X-93940D02*
D03*
X-88940D02*
D03*
X-83940D02*
D03*
X-68940D02*
D03*
X-78940D02*
D03*
X-73940D02*
D03*
X-53940D02*
D03*
X-63940D02*
D03*
X-58940D02*
D03*
X-48940D02*
D03*
X-43940D02*
D03*
D115*
X-471250Y-44428D02*
D03*
X-466750D02*
D03*
X-471250Y-16428D02*
D03*
X-466750D02*
D03*
X-462250Y-44428D02*
D03*
X-457750D02*
D03*
X-453250D02*
D03*
X-448750D02*
D03*
X-462250Y-16428D02*
D03*
X-457750D02*
D03*
X-453250D02*
D03*
X-448750D02*
D03*
D116*
X-460000Y-30428D02*
D03*
D117*
X-430676Y249162D02*
D03*
Y256862D02*
D03*
X-420676Y249162D02*
D03*
X-425676D02*
D03*
Y256862D02*
D03*
D118*
X-420676D02*
D03*
D119*
X-385500Y-32918D02*
D03*
X-385500Y-27919D02*
D03*
X-354500Y-32918D02*
D03*
X-354500Y-27918D02*
D03*
D120*
X-371094Y86614D02*
D03*
X-255000Y-250000D02*
D03*
X-289600Y-25428D02*
D03*
D121*
X-345694Y86614D02*
D03*
X-550000Y-43128D02*
D03*
X-331200Y-250000D02*
D03*
X-305800D02*
D03*
X-280400D02*
D03*
X542500Y112900D02*
D03*
X-264200Y-25428D02*
D03*
D122*
X-550000Y114972D02*
D03*
D123*
Y64172D02*
D03*
D124*
Y-17728D02*
D03*
X542500Y87500D02*
D03*
D125*
X-154305Y-240030D02*
D03*
X-128905D02*
D03*
X-103505D02*
D03*
X175895Y39370D02*
D03*
Y13970D02*
D03*
Y-11430D02*
D03*
X150495D02*
D03*
Y13970D02*
D03*
Y39370D02*
D03*
X-1905Y240030D02*
D03*
X-52705Y-240030D02*
D03*
X150495Y240030D02*
D03*
X125095Y-240030D02*
D03*
Y240030D02*
D03*
X99695Y-240030D02*
D03*
Y240030D02*
D03*
X74295Y-240030D02*
D03*
Y240030D02*
D03*
X48895Y-240030D02*
D03*
Y240030D02*
D03*
X23495Y-240030D02*
D03*
Y240030D02*
D03*
X-27305Y-240030D02*
D03*
Y240030D02*
D03*
X-78105Y-240030D02*
D03*
X-67945Y240030D02*
D03*
X-93345D02*
D03*
X-118745D02*
D03*
D126*
X150495Y-240030D02*
D03*
D127*
X235000Y-280000D02*
D03*
X215000D02*
D03*
X255000D02*
D03*
X275000D02*
D03*
X235000Y-60000D02*
D03*
X215000D02*
D03*
X295000Y-280000D02*
D03*
X255000Y-60000D02*
D03*
X275000D02*
D03*
X335000Y-280000D02*
D03*
X315000D02*
D03*
X395000D02*
D03*
X355000D02*
D03*
X375000D02*
D03*
X335000Y-60000D02*
D03*
X295000D02*
D03*
X315000D02*
D03*
X395000D02*
D03*
X355000D02*
D03*
X375000D02*
D03*
D128*
X540000Y-160000D02*
D03*
Y160000D02*
D03*
X-540000Y-160000D02*
D03*
Y160000D02*
D03*
D129*
X-321056Y58420D02*
D03*
X-312500Y57500D02*
D03*
X-210000Y307500D02*
D03*
X-177500Y32500D02*
D03*
X-355000Y300000D02*
D03*
Y292500D02*
D03*
X-479806Y116078D02*
D03*
X-435000Y272500D02*
D03*
X-220308Y85000D02*
D03*
X-277500Y70000D02*
D03*
X-425000Y277500D02*
D03*
X-404340Y217452D02*
D03*
X-425676Y227612D02*
D03*
X-314960Y124460D02*
D03*
X177500Y-55000D02*
D03*
Y-40000D02*
D03*
X195000Y22500D02*
D03*
X303022Y39572D02*
D03*
X120000Y-270000D02*
D03*
X135000Y-305000D02*
D03*
X255000Y-210000D02*
D03*
X235000Y-207688D02*
D03*
X-478536Y13216D02*
D03*
X-516636Y116078D02*
D03*
X-479298Y58674D02*
D03*
X-453390Y16256D02*
D03*
X-361188Y49784D02*
D03*
X-370332Y1016D02*
D03*
X-248412Y207518D02*
D03*
X-167386Y198120D02*
D03*
X-180848Y184658D02*
D03*
X-240538Y169418D02*
D03*
X-229870Y205740D02*
D03*
X-333502Y183642D02*
D03*
X-241808D02*
D03*
X-400050Y27686D02*
D03*
X-239776Y154940D02*
D03*
X-216408Y166116D02*
D03*
X-179832Y-9652D02*
D03*
X-142240Y68580D02*
D03*
X-72136Y91948D02*
D03*
X-81280Y90043D02*
D03*
X-386052Y270284D02*
D03*
X-450060Y217452D02*
D03*
X-508000Y102108D02*
D03*
X-105664Y187452D02*
D03*
X225000Y-305000D02*
D03*
X-374904Y-243332D02*
D03*
X-202184Y201676D02*
D03*
X485512Y-188468D02*
D03*
X-477520Y-204724D02*
D03*
X-450088Y-191516D02*
D03*
X-406400Y-27940D02*
D03*
X-334264Y-28956D02*
D03*
X-430784Y-76708D02*
D03*
X-218440Y-2540D02*
D03*
X-45720Y-66548D02*
D03*
X-13208Y-126492D02*
D03*
X-106680Y-144780D02*
D03*
X-80264Y-156972D02*
D03*
X-72136Y-67564D02*
D03*
X-218064Y-35428D02*
D03*
X-95504Y11684D02*
D03*
X-367792Y113284D02*
D03*
X-438912Y-508D02*
D03*
X170688Y169164D02*
D03*
X168656Y208788D02*
D03*
X-169672Y149860D02*
D03*
X-122936Y140716D02*
D03*
X-83312Y120396D02*
D03*
X-111760Y75692D02*
D03*
Y90932D02*
D03*
X-65024Y154940D02*
D03*
X-66040Y183388D02*
D03*
X-235712Y91948D02*
D03*
X479416Y-146812D02*
D03*
X461128Y-128524D02*
D03*
X26416Y38100D02*
D03*
X27432Y115316D02*
D03*
X132080Y75692D02*
D03*
X116840Y119380D02*
D03*
X102616Y134620D02*
D03*
X-320887Y-182203D02*
D03*
X-326814Y-188130D02*
D03*
X-314960Y-176276D02*
D03*
X81280Y-122428D02*
D03*
X28786Y-170518D02*
D03*
X-452120Y-3556D02*
D03*
X-457200Y-78740D02*
D03*
X81280Y-139192D02*
D03*
X40640Y-182372D02*
D03*
X-434340Y-43688D02*
D03*
X-416560Y-76708D02*
D03*
X81280Y-130810D02*
D03*
X34713Y-176445D02*
D03*
X-110744Y-182038D02*
D03*
Y-198802D02*
D03*
Y-190420D02*
D03*
X65024Y-89916D02*
D03*
X68739Y-79089D02*
D03*
X81280Y-101092D02*
D03*
X71120Y115316D02*
D03*
X60960D02*
D03*
X-79248Y-7620D02*
D03*
X-114808Y62484D02*
D03*
X122936Y82804D02*
D03*
X97536Y53975D02*
D03*
Y45593D02*
D03*
X282448Y92964D02*
D03*
X147320Y58420D02*
D03*
X14055Y-161883D02*
D03*
X28448Y127508D02*
D03*
X8128Y-155956D02*
D03*
X36576Y137668D02*
D03*
X68739Y3905D02*
D03*
X61976Y10668D02*
D03*
X50800Y115316D02*
D03*
X40640D02*
D03*
X15875Y38100D02*
D03*
X15875Y55372D02*
D03*
X7493Y115316D02*
D03*
X-239776Y9652D02*
D03*
X-104648Y-67564D02*
D03*
X-96520Y-52324D02*
D03*
X-71120Y21844D02*
D03*
X-59944Y-3556D02*
D03*
X23368Y-145796D02*
D03*
X7112Y62484D02*
D03*
X7493Y38100D02*
D03*
X-104807Y-12541D02*
D03*
X-209296Y-121412D02*
D03*
X-98880Y-18468D02*
D03*
X-223520Y-126492D02*
D03*
X55611Y20080D02*
D03*
X49685Y26007D02*
D03*
X37831Y37861D02*
D03*
X49784Y38100D02*
D03*
X288489Y39572D02*
D03*
X259426D02*
D03*
X273958D02*
D03*
X-406400Y-58420D02*
D03*
X-134112Y-37084D02*
D03*
X-127000Y-52324D02*
D03*
X-166624Y-105156D02*
D03*
X-157480Y-113284D02*
D03*
X418432Y147132D02*
D03*
X422483Y181183D02*
D03*
X-360172Y-58928D02*
D03*
X17526Y114808D02*
D03*
D130*
X-292862Y123190D02*
D03*
X-405356Y269268D02*
D03*
X-448028Y244884D02*
D03*
D131*
X-424999Y265000D02*
D03*
D132*
X-377500Y-35428D02*
D03*
Y-25428D02*
D03*
X-362500Y-35428D02*
D03*
X-370000Y-30428D02*
D03*
X-362500Y-25428D02*
D03*
X-405000Y60572D02*
D03*
Y68572D02*
D03*
X-455000Y-215428D02*
D03*
Y-225428D02*
D03*
X-445000D02*
D03*
Y-215428D02*
D03*
X-465000Y-25428D02*
D03*
Y-35428D02*
D03*
X-455000D02*
D03*
Y-25428D02*
D03*
M02*
