%FSLAX25Y25*%
%MOIN*%
G70*
G01*
G75*
G04 Layer_Color=32896*
%ADD10R,0.05118X0.07874*%
%ADD11R,0.07874X0.07874*%
%ADD12R,0.07874X0.05118*%
%ADD13R,0.07874X0.07874*%
%ADD14R,0.02756X0.03543*%
%ADD15R,0.03583X0.04803*%
%ADD16R,0.03150X0.03543*%
%ADD17R,0.03543X0.02756*%
%ADD18O,0.05118X0.01772*%
%ADD19O,0.01772X0.05118*%
%ADD20R,0.05709X0.08071*%
%ADD21R,0.08071X0.05709*%
%ADD22R,0.03347X0.02756*%
%ADD23R,0.02756X0.05118*%
%ADD24R,0.03543X0.03150*%
%ADD25R,0.04331X0.10236*%
%ADD26R,0.10630X0.03937*%
%ADD27R,0.10630X0.12992*%
%ADD28C,0.01600*%
%ADD29C,0.01000*%
%ADD30R,0.05906X0.05906*%
%ADD31C,0.05906*%
%ADD32C,0.02500*%
%ADD33C,0.10236*%
%ADD34C,0.00984*%
%ADD35C,0.01575*%
%ADD36C,0.00787*%
%ADD37C,0.00800*%
%ADD38C,0.00606*%
%ADD39R,0.05918X0.08674*%
%ADD40R,0.08674X0.08674*%
%ADD41R,0.08674X0.05918*%
%ADD42R,0.08674X0.08674*%
%ADD43R,0.03556X0.04343*%
%ADD44R,0.04383X0.05603*%
%ADD45R,0.03950X0.04343*%
%ADD46R,0.04343X0.03556*%
%ADD47O,0.05918X0.02572*%
%ADD48O,0.02572X0.05918*%
%ADD49R,0.06509X0.08871*%
%ADD50R,0.08871X0.06509*%
%ADD51R,0.04147X0.03556*%
%ADD52R,0.03556X0.05918*%
%ADD53R,0.04343X0.03950*%
%ADD54R,0.05131X0.11036*%
%ADD55R,0.11430X0.04737*%
%ADD56R,0.11430X0.13792*%
%ADD57R,0.06706X0.06706*%
%ADD58C,0.06706*%
%ADD59C,0.03300*%
%ADD60C,0.11036*%
%ADD61C,0.00100*%
D29*
X49515Y23801D02*
Y19803D01*
X51515D01*
X52181Y20469D01*
Y21802D01*
X51515Y22468D01*
X49515D01*
X46183Y23801D02*
X47516D01*
X48182Y23135D01*
Y20469D01*
X47516Y19803D01*
X46183D01*
X45517Y20469D01*
Y23135D01*
X46183Y23801D01*
X44184Y22468D02*
Y19803D01*
Y21136D01*
X43517Y21802D01*
X42851Y22468D01*
X42184D01*
X40185D02*
Y20469D01*
X39518Y19803D01*
X37519D01*
Y19136D01*
X38186Y18470D01*
X38852D01*
X37519Y19803D02*
Y22468D01*
X29522Y23135D02*
X30188Y23801D01*
X31521D01*
X32188Y23135D01*
Y20469D01*
X31521Y19803D01*
X30188D01*
X29522Y20469D01*
X27522Y19803D02*
X26190D01*
X25523Y20469D01*
Y21802D01*
X26190Y22468D01*
X27522D01*
X28189Y21802D01*
Y20469D01*
X27522Y19803D01*
X24190D02*
Y22468D01*
X22191D01*
X21524Y21802D01*
Y19803D01*
X17526Y23801D02*
Y19803D01*
X19525D01*
X20191Y20469D01*
Y21802D01*
X19525Y22468D01*
X17526D01*
X16193D02*
Y20469D01*
X15526Y19803D01*
X13527D01*
Y22468D01*
X9528D02*
X11528D01*
X12194Y21802D01*
Y20469D01*
X11528Y19803D01*
X9528D01*
X7529Y23135D02*
Y22468D01*
X8195D01*
X6862D01*
X7529D01*
Y20469D01*
X6862Y19803D01*
X4863D02*
X3530D01*
X4197D01*
Y22468D01*
X4863D01*
X1531D02*
X198Y19803D01*
X-1135Y22468D01*
X-2468Y19803D02*
X-3801D01*
X-3134D01*
Y22468D01*
X-2468D01*
X-6467Y23135D02*
Y22468D01*
X-5800D01*
X-7133D01*
X-6467D01*
Y20469D01*
X-7133Y19803D01*
X-9132Y22468D02*
Y20469D01*
X-9799Y19803D01*
X-11798D01*
Y19136D01*
X-11132Y18470D01*
X-10465D01*
X-11798Y19803D02*
Y22468D01*
X-17130Y23801D02*
Y19803D01*
X-19129D01*
X-19796Y20469D01*
Y21136D01*
X-19129Y21802D01*
X-17130D01*
X-19129D01*
X-19796Y22468D01*
Y23135D01*
X-19129Y23801D01*
X-17130D01*
X-21795Y19803D02*
X-23128D01*
X-23794Y20469D01*
Y21802D01*
X-23128Y22468D01*
X-21795D01*
X-21129Y21802D01*
Y20469D01*
X-21795Y19803D01*
X-25794Y22468D02*
X-27127D01*
X-27793Y21802D01*
Y19803D01*
X-25794D01*
X-25127Y20469D01*
X-25794Y21136D01*
X-27793D01*
X-29126Y22468D02*
Y19803D01*
Y21136D01*
X-29792Y21802D01*
X-30459Y22468D01*
X-31125D01*
X-35791Y23801D02*
Y19803D01*
X-33791D01*
X-33125Y20469D01*
Y21802D01*
X-33791Y22468D01*
X-35791D01*
X-41122D02*
X-42455Y19803D01*
X-43788Y22468D01*
X-45121Y19803D02*
X-46454D01*
X-45787D01*
Y23801D01*
X-45121Y23135D01*
X-48453Y19803D02*
Y20469D01*
X-49120D01*
Y19803D01*
X-48453D01*
X-51785Y23135D02*
X-52452Y23801D01*
X-53785D01*
X-54451Y23135D01*
Y20469D01*
X-53785Y19803D01*
X-52452D01*
X-51785Y20469D01*
Y23135D01*
D61*
X-44564Y-1922D02*
X-39164D01*
X-44564Y-2022D02*
X-39164D01*
X-44464Y-2122D02*
X-39064D01*
X-44464Y-2222D02*
X-39064D01*
X-44464Y-2322D02*
X-38964D01*
X-44364Y-2422D02*
X-38964D01*
X-44364Y-2522D02*
X-38964D01*
X-45464Y-22D02*
X-40064D01*
X-45464Y-122D02*
X-39964D01*
X-45364Y-222D02*
X-39964D01*
X-45364Y-322D02*
X-39864D01*
X-45264Y-422D02*
X-39864D01*
X-45264Y-522D02*
X-39864D01*
X-45164Y-622D02*
X-39764D01*
X-45164Y-722D02*
X-39764D01*
X-45064Y-822D02*
X-39664D01*
X-45064Y-922D02*
X-39664D01*
X-45064Y-1022D02*
X-39564D01*
X-44964Y-1122D02*
X-39564D01*
X-44964Y-1222D02*
X-39464D01*
X-44864Y-1322D02*
X-39464D01*
X-44864Y-1422D02*
X-39464D01*
X-44764Y-1522D02*
X-39364D01*
X-44764Y-1622D02*
X-39364D01*
X-44664Y-1722D02*
X-39264D01*
X-44664Y-1822D02*
X-39264D01*
X-46264Y1678D02*
X-40764D01*
X-46264Y1578D02*
X-40764D01*
X-46164Y1478D02*
X-40764D01*
X-46164Y1378D02*
X-40664D01*
X-46064Y1278D02*
X-40664D01*
X-46064Y1178D02*
X-40564D01*
X-45964Y1078D02*
X-40564D01*
X-45964Y978D02*
X-40464D01*
X-45864Y878D02*
X-40464D01*
X-45864Y778D02*
X-40364D01*
X-45764Y678D02*
X-40364D01*
X-45764Y578D02*
X-40364D01*
X-45664Y478D02*
X-40264D01*
X-45664Y378D02*
X-40264D01*
X-45664Y278D02*
X-40164D01*
X-46764Y2778D02*
X-41264D01*
X-46764Y2678D02*
X-41264D01*
X-46664Y2578D02*
X-41264D01*
X-46664Y2478D02*
X-41164D01*
X-46564Y2378D02*
X-41164D01*
X-46564Y2278D02*
X-41064D01*
X-46464Y2178D02*
X-41064D01*
X-46464Y2078D02*
X-40964D01*
X-46364Y1978D02*
X-40964D01*
X-46364Y1878D02*
X-40864D01*
X-46264Y1778D02*
X-40864D01*
X-45564Y178D02*
X-40164D01*
X-45564Y78D02*
X-40064D01*
X-36764Y-4322D02*
X-31164D01*
X-36864Y-4422D02*
X-31264D01*
X-36864Y-4522D02*
X-31264D01*
X-36964Y-4622D02*
X-31364D01*
X-36964Y-4722D02*
X-31364D01*
X-37064Y-4822D02*
X-31464D01*
X-37064Y-4922D02*
X-31464D01*
X-36564Y-3822D02*
X-30964D01*
X-36564Y-3922D02*
X-30964D01*
X-36664Y-4022D02*
X-31064D01*
X-36664Y-4122D02*
X-31064D01*
X-36764Y-4222D02*
X-31164D01*
X-37164Y-5122D02*
X-31564D01*
X-37264Y-5222D02*
X-31664D01*
X-37264Y-5322D02*
X-31664D01*
X-37364Y-5422D02*
X-31664D01*
X-37364Y-5522D02*
X-31764D01*
X-37464Y-5622D02*
X-31764D01*
X-38764Y-14522D02*
X-33364D01*
X-38764Y-14622D02*
X-33364D01*
X-38664Y-14722D02*
X-33264D01*
X-38664Y-14822D02*
X-33264D01*
X-38664Y-14922D02*
X-33164D01*
X-38564Y-15022D02*
X-33164D01*
X-38564Y-15122D02*
X-33064D01*
X-38464Y-15222D02*
X-33064D01*
X-38464Y-15322D02*
X-32964D01*
X-38364Y-15422D02*
X-32964D01*
X-38364Y-15522D02*
X-32864D01*
X-38264Y-15622D02*
X-32864D01*
X-38264Y-15722D02*
X-32864D01*
X-38164Y-15822D02*
X-32764D01*
X-38164Y-15922D02*
X-32764D01*
X-38164Y-16022D02*
X-32664D01*
X-38064Y-16122D02*
X-32664D01*
X-38064Y-16222D02*
X-32564D01*
X-37964Y-16322D02*
X-32564D01*
X-37964Y-16422D02*
X-32464D01*
X-37864Y-16522D02*
X-32464D01*
X-37864Y-16622D02*
X-32364D01*
X-37764Y-16722D02*
X-32364D01*
X-37764Y-16822D02*
X-32264D01*
X-37664Y-16922D02*
X-32264D01*
X-37664Y-17022D02*
X-32164D01*
X-37564Y-17122D02*
X-32164D01*
X-37564Y-17222D02*
X-32164D01*
X-37564Y-17322D02*
X-32064D01*
X-37464Y-17422D02*
X-32064D01*
X-37464Y-17522D02*
X-31964D01*
X-37364Y-17622D02*
X-31964D01*
X-37364Y-17722D02*
X-31864D01*
X-37264Y-17822D02*
X-31864D01*
X-37264Y-17922D02*
X-31764D01*
X-37164Y-18022D02*
X-31764D01*
X-37164Y-18122D02*
X-31664D01*
X-37064Y-18222D02*
X-31664D01*
X-37064Y-18322D02*
X-31564D01*
X-36964Y-18422D02*
X-31564D01*
X-36964Y-18522D02*
X-31564D01*
X-36964Y-18622D02*
X-31464D01*
X-36864Y-18722D02*
X-31464D01*
X-36864Y-18822D02*
X-31364D01*
X-36764Y-18922D02*
X-31364D01*
X-36764Y-19022D02*
X-31264D01*
X-36664Y-19122D02*
X-31264D01*
X-36664Y-19222D02*
X-31164D01*
X-36564Y-19322D02*
X-31164D01*
X-36564Y-19422D02*
X-31064D01*
X-36464Y-19522D02*
X-31064D01*
X-36464Y-19622D02*
X-30964D01*
X-36364Y-19722D02*
X-30964D01*
X-36364Y-19822D02*
X-30964D01*
X-21764Y6378D02*
X-21164D01*
X-22664Y1478D02*
X-22064D01*
X-8564Y7278D02*
X-8064D01*
X-8564Y7178D02*
X-8064D01*
X-8664Y7078D02*
X-8164D01*
X-8664Y6978D02*
X-8164D01*
X-8664Y6878D02*
X-8164D01*
X-8664Y6778D02*
X-8164D01*
X-8664Y6678D02*
X-8164D01*
X-8664Y6578D02*
X-8164D01*
X-8764Y6478D02*
X-8264D01*
X-8764Y6378D02*
X-8264D01*
X-8764Y6278D02*
X-8264D01*
X-8764Y5878D02*
X-8264D01*
X-8764Y5778D02*
X-8264D01*
X-8764Y5678D02*
X-8264D01*
X-8764Y5578D02*
X-8264D01*
X-8764Y5478D02*
X-8264D01*
X-8764Y5378D02*
X-8264D01*
X-8764Y5278D02*
X-8264D01*
X-8764Y5178D02*
X-8264D01*
X-8764Y5078D02*
X-8264D01*
X-8764Y6078D02*
X-8264D01*
X-8764Y6178D02*
X-8264D01*
X-8764Y5978D02*
X-8264D01*
X-7564Y10078D02*
X-6964D01*
X-7564Y9978D02*
X-7064D01*
X-7664Y9878D02*
X-7064D01*
X-7764Y9778D02*
X-7164D01*
X-7764Y9678D02*
X-7164D01*
X-7864Y9578D02*
X-7264D01*
X-7864Y9478D02*
X-7264D01*
X-7864Y9378D02*
X-7364D01*
X-7964Y9278D02*
X-7364D01*
X-7964Y9178D02*
X-7464D01*
X-8064Y9078D02*
X-7464D01*
X-8064Y8978D02*
X-7564D01*
X-8164Y8878D02*
X-7564D01*
X-8164Y8778D02*
X-7664D01*
X-8164Y8678D02*
X-7664D01*
X-8264Y8578D02*
X-7664D01*
X-8264Y8478D02*
X-7764D01*
X-8364Y8378D02*
X-7764D01*
X-8364Y8278D02*
X-7864D01*
X-8364Y8178D02*
X-7864D01*
X-8364Y8078D02*
X-7864D01*
X-8464Y7978D02*
X-7964D01*
X-8464Y7878D02*
X-7964D01*
X-8464Y7778D02*
X-7964D01*
X-8464Y7678D02*
X-7964D01*
X-8564Y7578D02*
X-8064D01*
X-8564Y7478D02*
X-8064D01*
X-8564Y7378D02*
X-8064D01*
X-8464Y3278D02*
X-7964D01*
X-8464Y3178D02*
X-7964D01*
X-8464Y3078D02*
X-7964D01*
X-8764Y4978D02*
X-8264D01*
X-8764Y4878D02*
X-8264D01*
X-8764Y4778D02*
X-8264D01*
X-8764Y4678D02*
X-8264D01*
X-8764Y4578D02*
X-8264D01*
X-8664Y4478D02*
X-8164D01*
X-8664Y4378D02*
X-8164D01*
X-8664Y4278D02*
X-8164D01*
X-8664Y4178D02*
X-8164D01*
X-8664Y4078D02*
X-8164D01*
X-8664Y3978D02*
X-8164D01*
X-8564Y3878D02*
X-8064D01*
X-8564Y3778D02*
X-8064D01*
X-8564Y3678D02*
X-8064D01*
X-8564Y3578D02*
X-8064D01*
X-8564Y3478D02*
X-8064D01*
X-8464Y3378D02*
X-7964D01*
X-7864Y1678D02*
X-7364D01*
X-7864Y1578D02*
X-7264D01*
X-7864Y1478D02*
X-7264D01*
X-7764Y1378D02*
X-7164D01*
X-7764Y1278D02*
X-7164D01*
X-7664Y1178D02*
X-7064D01*
X-7664Y1078D02*
X-7064D01*
X-7564Y978D02*
X-6964D01*
X-8364Y2878D02*
X-7864D01*
X-8364Y2778D02*
X-7864D01*
X-8264Y2678D02*
X-7764D01*
X-8264Y2578D02*
X-7764D01*
X-8264Y2478D02*
X-7664D01*
X-8164Y2378D02*
X-7664D01*
X-8164Y2278D02*
X-7664D01*
X-8164Y2178D02*
X-7564D01*
X-8064Y2078D02*
X-7564D01*
X-8064Y1978D02*
X-7464D01*
X-7964Y1878D02*
X-7464D01*
X-7964Y1778D02*
X-7364D01*
X-4664Y13178D02*
X-3664D01*
X-2664Y14178D02*
X-464D01*
X-2964Y14078D02*
X-1164D01*
X-3164Y13978D02*
X-1564D01*
X-3364Y13878D02*
X-1964D01*
X-3564Y13778D02*
X-2364D01*
X-3864Y13678D02*
X-2564D01*
X-4064Y13578D02*
X-2864D01*
X-4164Y13478D02*
X-3064D01*
X-4364Y13378D02*
X-3264D01*
X-4464Y13278D02*
X-3464D01*
X-4764Y13078D02*
X-3864D01*
X-4964Y12978D02*
X-4064D01*
X-5064Y12878D02*
X-4164D01*
X-5264Y12778D02*
X-4364D01*
X-5364Y12678D02*
X-4464D01*
X-5464Y12578D02*
X-4664D01*
X-5564Y12478D02*
X-4764D01*
X-5664Y12378D02*
X-4864D01*
X-5764Y12278D02*
X-5064D01*
X-5864Y12178D02*
X-5164D01*
X-6064Y12078D02*
X-5264D01*
X-6164Y11978D02*
X-5364D01*
X-6164Y11878D02*
X-5464D01*
X-6264Y11778D02*
X-5564D01*
X-6364Y11678D02*
X-5764D01*
X-6464Y11578D02*
X-5764D01*
X-6564Y11478D02*
X-5864D01*
X-6664Y11378D02*
X-5964D01*
X-6764Y11278D02*
X-6064D01*
X-6764Y11178D02*
X-6164D01*
X-4464Y7278D02*
X-3964D01*
X-4564Y7178D02*
X-3964D01*
X-4564Y7078D02*
X-4064D01*
X-4564Y6978D02*
X-4064D01*
X-4664Y6878D02*
X-4064D01*
X-4664Y6778D02*
X-4164D01*
X-4664Y6678D02*
X-4164D01*
X-4664Y6578D02*
X-4164D01*
X-4764Y6478D02*
X-4264D01*
X-4764Y6378D02*
X-4264D01*
X-4764Y6278D02*
X-4264D01*
X-4864Y5778D02*
X-4364D01*
X-4864Y5678D02*
X-4364D01*
X-4864Y5578D02*
X-4364D01*
X-4864Y5478D02*
X-4364D01*
X-4864Y5378D02*
X-4364D01*
X-4864Y5278D02*
X-4364D01*
X-4864Y5178D02*
X-4364D01*
X-4864Y5078D02*
X-4364D01*
X-4764Y6078D02*
X-4264D01*
X-4864Y5878D02*
X-4364D01*
X-4864Y5978D02*
X-4364D01*
X-1964Y9978D02*
X-264D01*
X-2164Y9878D02*
X-864D01*
X-2364Y9778D02*
X-1164D01*
X-2464Y9678D02*
X-1464D01*
X-2664Y9578D02*
X-1664D01*
X-2764Y9478D02*
X-1864D01*
X-4764Y6178D02*
X-4264D01*
X-2864Y9378D02*
X-2064D01*
X-2964Y9278D02*
X-2164D01*
X-3164Y9178D02*
X-2364D01*
X-3264Y9078D02*
X-2464D01*
X-3364Y8978D02*
X-2564D01*
X-3464Y8878D02*
X-2664D01*
X-3564Y8778D02*
X-2864D01*
X-3564Y8678D02*
X-2964D01*
X-3664Y8578D02*
X-3064D01*
X-3764Y8478D02*
X-3164D01*
X-3864Y8378D02*
X-3264D01*
X-3964Y8278D02*
X-3264D01*
X-4064Y8178D02*
X-3364D01*
X-4064Y8078D02*
X-3464D01*
X-4164Y7978D02*
X-3564D01*
X-4164Y7878D02*
X-3564D01*
X-4264Y7778D02*
X-3664D01*
X-4264Y7678D02*
X-3764D01*
X-4364Y7578D02*
X-3764D01*
X-4364Y7478D02*
X-3864D01*
X-4464Y7378D02*
X-3864D01*
X-4464Y3278D02*
X-3864D01*
X-4364Y3178D02*
X-3864D01*
X-4364Y3078D02*
X-3764D01*
X-4864Y4978D02*
X-4364D01*
X-4864Y4878D02*
X-4364D01*
X-4864Y4778D02*
X-4364D01*
X-4864Y4678D02*
X-4364D01*
X-4764Y4578D02*
X-4264D01*
X-4764Y4478D02*
X-4264D01*
X-4764Y4378D02*
X-4264D01*
X-4764Y4278D02*
X-4264D01*
X-4764Y4178D02*
X-4264D01*
X-4664Y4078D02*
X-4164D01*
X-4664Y3978D02*
X-4164D01*
X-4664Y3878D02*
X-4164D01*
X-4664Y3778D02*
X-4064D01*
X-4564Y3678D02*
X-4064D01*
X-4564Y3578D02*
X-4064D01*
X-4564Y3478D02*
X-3964D01*
X-4464Y3378D02*
X-3964D01*
X-5664Y-4422D02*
X-164D01*
X-5664Y-4522D02*
X-164D01*
X-5664Y-4622D02*
X-164D01*
X-5664Y-4722D02*
X-164D01*
X-5664Y-4822D02*
X-264D01*
X-5664Y-4922D02*
X-264D01*
X-5064Y-2022D02*
X-3864D01*
X-5164Y-2122D02*
X-3764D01*
X-5164Y-2222D02*
X-3464D01*
X-5164Y-2322D02*
X-3264D01*
X-5264Y-2422D02*
X-3064D01*
X-5264Y-2522D02*
X-2864D01*
X-5264Y-2622D02*
X-2564D01*
X-5264Y-2722D02*
X-2364D01*
X-5364Y-2822D02*
X-2064D01*
X-5364Y-2922D02*
X-1664D01*
X-5364Y-3022D02*
X-1164D01*
X-5364Y-3122D02*
X-564D01*
X-5564Y-3722D02*
X36D01*
X-5564Y-3822D02*
X36D01*
X-5564Y-3922D02*
X-64D01*
X-6764Y-222D02*
X-6064D01*
X-6664Y-322D02*
X-5964D01*
X-6564Y-422D02*
X-5864D01*
X-6464Y-522D02*
X-5864D01*
X-6364Y-622D02*
X-5764D01*
X-6264Y-722D02*
X-5664D01*
X-6264Y-822D02*
X-5464D01*
X-6164Y-922D02*
X-5364D01*
X-6064Y-1022D02*
X-5264D01*
X-5964Y-1122D02*
X-5164D01*
X-5764Y-1222D02*
X-5064D01*
X-5664Y-1322D02*
X-4964D01*
X-5564Y-1422D02*
X-4764D01*
X-5464Y-1522D02*
X-4664D01*
X-5364Y-1622D02*
X-4564D01*
X-5264Y-1722D02*
X-4364D01*
X-5064Y-1822D02*
X-4164D01*
X-5064Y-1922D02*
X-4064D01*
X-5564Y-4022D02*
X-64D01*
X-5564Y-4122D02*
X-64D01*
X-5564Y-4222D02*
X-64D01*
X-5664Y-4322D02*
X-164D01*
X-3264Y1578D02*
X-2464D01*
X-3164Y1478D02*
X-2364D01*
X-3064Y1378D02*
X-2264D01*
X-2864Y1278D02*
X-2064D01*
X-2764Y1178D02*
X-1864D01*
X-2664Y1078D02*
X-1664D01*
X-2564Y978D02*
X-1464D01*
X-2364Y878D02*
X-1164D01*
X-2164Y778D02*
X-864D01*
X-1964Y678D02*
X-364D01*
Y178D02*
X1036D01*
X-4264Y2878D02*
X-3664D01*
X-4164Y2778D02*
X-3664D01*
X-4164Y2678D02*
X-3564D01*
X-4064Y2578D02*
X-3464D01*
X-4064Y2478D02*
X-3364D01*
X-3964Y2378D02*
X-3264D01*
X-3864Y2278D02*
X-3264D01*
X-3764Y2178D02*
X-3164D01*
X-3664Y2078D02*
X-3064D01*
X-3664Y1978D02*
X-2964D01*
X-3564Y1878D02*
X-2864D01*
X-3464Y1778D02*
X-2764D01*
X-3364Y1678D02*
X-2564D01*
X-5464Y-9722D02*
X136D01*
X-5364Y-9822D02*
X236D01*
X-5364Y-9922D02*
X236D01*
X-5364Y-10022D02*
X236D01*
X-5364Y-10122D02*
X336D01*
X-5264Y-10222D02*
X336D01*
X-5264Y-10322D02*
X436D01*
X-5264Y-10422D02*
X436D01*
X-5264Y-10522D02*
X436D01*
X-5164Y-10622D02*
X536D01*
X-5164Y-10722D02*
X536D01*
X-5164Y-10822D02*
X636D01*
X-5064Y-10922D02*
X636D01*
X-5064Y-11022D02*
X736D01*
X-5064Y-11122D02*
X736D01*
X-4964Y-11222D02*
X836D01*
X-4964Y-11322D02*
X836D01*
X-4964Y-11422D02*
X936D01*
X-4864Y-11522D02*
X936D01*
X-4864Y-11622D02*
X1036D01*
X-5764Y-7022D02*
X-364D01*
X-5764Y-7122D02*
X-364D01*
X-5764Y-7222D02*
X-364D01*
X-5764Y-7322D02*
X-264D01*
X-5764Y-7422D02*
X-264D01*
X-5764Y-7522D02*
X-264D01*
X-5764Y-7622D02*
X-264D01*
X-5664Y-7722D02*
X-264D01*
X-5664Y-7822D02*
X-264D01*
X-5664Y-7922D02*
X-264D01*
X-5664Y-8022D02*
X-264D01*
X-5664Y-8122D02*
X-264D01*
X-5664Y-8222D02*
X-164D01*
X-5664Y-8322D02*
X-164D01*
X-5664Y-8422D02*
X-164D01*
X-5664Y-8522D02*
X-164D01*
X-5564Y-8622D02*
X-164D01*
X-5564Y-8722D02*
X-64D01*
X-5564Y-8822D02*
X-64D01*
X-5564Y-8922D02*
X-64D01*
X-5564Y-9022D02*
X-64D01*
X-5564Y-9122D02*
X36D01*
X-5564Y-9222D02*
X36D01*
X-5464Y-9322D02*
X36D01*
X-5464Y-9422D02*
X36D01*
X-5464Y-9522D02*
X136D01*
X-5464Y-9622D02*
X136D01*
X-5664Y-5122D02*
X-264D01*
X-5664Y-5222D02*
X-264D01*
X-5764Y-5322D02*
X-264D01*
X-5764Y-5422D02*
X-264D01*
X-5764Y-5522D02*
X-264D01*
X-5764Y-5622D02*
X-264D01*
X-5764Y-5722D02*
X-364D01*
X-5764Y-5822D02*
X-364D01*
X-5764Y-5922D02*
X-364D01*
X-5764Y-6022D02*
X-364D01*
X-5764Y-6122D02*
X-364D01*
X-5764Y-6222D02*
X-364D01*
X-5764Y-6322D02*
X-364D01*
X-5764Y-6422D02*
X-364D01*
X-5764Y-6522D02*
X-364D01*
X-5764Y-6622D02*
X-364D01*
X-5764Y-6722D02*
X-364D01*
X-5764Y-6822D02*
X-364D01*
X-5764Y-6922D02*
X-364D01*
X4536Y13178D02*
X5536D01*
X1336Y14178D02*
X3536D01*
X2036Y14078D02*
X3836D01*
X2436Y13978D02*
X4036D01*
X6836Y11378D02*
X7536D01*
X2836Y13878D02*
X4236D01*
X3136Y13778D02*
X4436D01*
X3436Y13678D02*
X4636D01*
X3736Y13578D02*
X4836D01*
X3936Y13478D02*
X5036D01*
X4136Y13378D02*
X5236D01*
X4336Y13278D02*
X5336D01*
X4736Y13078D02*
X5636D01*
X4936Y12978D02*
X5836D01*
X5036Y12878D02*
X5936D01*
X5236Y12778D02*
X6036D01*
X5336Y12678D02*
X6236D01*
X5536Y12578D02*
X6336D01*
X5636Y12478D02*
X6436D01*
X5736Y12378D02*
X6536D01*
X5936Y12278D02*
X6636D01*
X6036Y12178D02*
X6736D01*
X6136Y12078D02*
X6836D01*
X6236Y11978D02*
X6936D01*
X6336Y11878D02*
X7036D01*
X6436Y11778D02*
X7136D01*
X6536Y11678D02*
X7236D01*
X6636Y11578D02*
X7336D01*
X6736Y11478D02*
X7436D01*
X6936Y11278D02*
X7636D01*
X7036Y11178D02*
X7636D01*
X7136Y11078D02*
X7736D01*
X4636Y7278D02*
X5136D01*
X4636Y7178D02*
X5236D01*
X4736Y7078D02*
X5236D01*
X4736Y6978D02*
X5336D01*
X4836Y6778D02*
X5336D01*
X4836Y6678D02*
X5436D01*
X4836Y6578D02*
X5436D01*
X4836Y6478D02*
X5436D01*
X4936Y6378D02*
X5436D01*
X4936Y6278D02*
X5436D01*
X4936Y6178D02*
X5436D01*
X4936Y6078D02*
X5536D01*
X4936Y5978D02*
X5536D01*
X5036Y5778D02*
X5536D01*
X5036Y5678D02*
X5536D01*
X5036Y5578D02*
X5536D01*
X5036Y5478D02*
X5536D01*
X5036Y5378D02*
X5536D01*
X5036Y5278D02*
X5536D01*
X5036Y5178D02*
X5536D01*
X5036Y5078D02*
X5536D01*
X5036Y5878D02*
X5536D01*
X7236Y10878D02*
X7936D01*
X7336Y10778D02*
X7936D01*
X7436Y10678D02*
X8036D01*
X7536Y10578D02*
X8136D01*
X7536Y10478D02*
X8136D01*
X7636Y10378D02*
X8236D01*
X7736Y10278D02*
X8336D01*
X7736Y10178D02*
X8336D01*
X7836Y10078D02*
X8436D01*
X7936Y9978D02*
X8436D01*
X7936Y9878D02*
X8536D01*
X1436D02*
X2936D01*
X8036Y9778D02*
X8636D01*
X1836D02*
X3036D01*
X4736Y6878D02*
X5336D01*
X8036Y9678D02*
X8636D01*
X2136D02*
X3236D01*
X8136Y9578D02*
X8636D01*
X2336D02*
X3336D01*
X8136Y9478D02*
X8736D01*
X2536D02*
X3536D01*
X8236Y9378D02*
X8736D01*
X2736D02*
X3636D01*
X8236Y9278D02*
X8836D01*
X2836D02*
X3736D01*
X8336Y9178D02*
X8836D01*
X3036D02*
X3836D01*
X8336Y9078D02*
X8936D01*
X3136D02*
X3936D01*
X8436Y8978D02*
X8936D01*
X3236D02*
X4036D01*
X8436Y8878D02*
X9036D01*
X3336D02*
X4136D01*
X8536Y8778D02*
X9036D01*
X3536D02*
X4236D01*
X8536Y8678D02*
X9036D01*
X3636D02*
X4336D01*
X3736Y8578D02*
X4436D01*
X3836Y8478D02*
X4536D01*
X3836Y8378D02*
X4536D01*
X3936Y8278D02*
X4636D01*
X4036Y8178D02*
X4736D01*
X4136Y8078D02*
X4736D01*
X4236Y7978D02*
X4836D01*
X4236Y7878D02*
X4936D01*
X4336Y7778D02*
X4936D01*
X4436Y7678D02*
X5036D01*
X4436Y7578D02*
X5036D01*
X4536Y7478D02*
X5136D01*
X4536Y7378D02*
X5136D01*
X4536Y3278D02*
X5136D01*
X4536Y3178D02*
X5036D01*
X4436Y3078D02*
X5036D01*
Y4978D02*
X5536D01*
X5036Y4878D02*
X5536D01*
X5036Y4778D02*
X5536D01*
X4936Y4678D02*
X5536D01*
X4936Y4578D02*
X5436D01*
X4936Y4478D02*
X5436D01*
X4936Y4378D02*
X5436D01*
X4936Y4278D02*
X5436D01*
X4936Y4178D02*
X5436D01*
X4836Y4078D02*
X5336D01*
X4836Y3978D02*
X5336D01*
X4836Y3878D02*
X5336D01*
X4736Y3778D02*
X5336D01*
X4736Y3678D02*
X5236D01*
X4736Y3578D02*
X5236D01*
X4636Y3478D02*
X5236D01*
X4636Y3378D02*
X5136D01*
X4736Y-2022D02*
X5636D01*
X4536Y-2122D02*
X5536D01*
X4336Y-2222D02*
X5336D01*
X4136Y-2322D02*
X5236D01*
X3936Y-2422D02*
X5036D01*
X3736Y-2522D02*
X4936D01*
X3436Y-2622D02*
X4736D01*
X3236Y-2722D02*
X4536D01*
X2936Y-2822D02*
X4236D01*
X2536Y-2922D02*
X4036D01*
X2036Y-3022D02*
X3836D01*
X1436Y-3122D02*
X3536D01*
X7036Y-122D02*
X7636D01*
X6936Y-222D02*
X7636D01*
X6836Y-322D02*
X7536D01*
X6736Y-422D02*
X7436D01*
X6636Y-522D02*
X7336D01*
X6636Y-622D02*
X7236D01*
X6436Y-722D02*
X7136D01*
X6336Y-822D02*
X7036D01*
X6136Y-1022D02*
X6936D01*
X6036Y-1122D02*
X6736D01*
X5936Y-1222D02*
X6636D01*
X5736Y-1322D02*
X6536D01*
X5636Y-1422D02*
X6436D01*
X5536Y-1522D02*
X6336D01*
X5336Y-1622D02*
X6236D01*
X5236Y-1722D02*
X6136D01*
X5036Y-1822D02*
X5936D01*
X4936Y-1922D02*
X5836D01*
X8136Y1578D02*
X8736D01*
X3136D02*
X3936D01*
X8136Y1478D02*
X8636D01*
X3036D02*
X3836D01*
X8036Y1378D02*
X8636D01*
X2836D02*
X3636D01*
X8036Y1278D02*
X8636D01*
X2736D02*
X3536D01*
X7936Y1178D02*
X8536D01*
X2536D02*
X3436D01*
X7936Y1078D02*
X8536D01*
X2336D02*
X3336D01*
X7836Y978D02*
X8436D01*
X2136D02*
X3236D01*
X7736Y878D02*
X8336D01*
X1836D02*
X3036D01*
X7736Y778D02*
X8336D01*
X1536D02*
X2836D01*
X6236Y-922D02*
X7036D01*
X7636Y678D02*
X8236D01*
X7536Y578D02*
X8136D01*
X7536Y478D02*
X8136D01*
X7436Y378D02*
X8036D01*
X7336Y278D02*
X7936D01*
X7336Y178D02*
X7936D01*
X4336Y2878D02*
X4936D01*
X4236Y2778D02*
X4836D01*
X4236Y2678D02*
X4836D01*
X4136Y2578D02*
X4736D01*
X4036Y2478D02*
X4636D01*
X8536Y2378D02*
X9036D01*
X3936D02*
X4636D01*
X8536Y2278D02*
X9036D01*
X3836D02*
X4536D01*
X8436Y2178D02*
X9036D01*
X3836D02*
X4436D01*
X8436Y2078D02*
X8936D01*
X3736D02*
X4336D01*
X8336Y1978D02*
X8936D01*
X3636D02*
X4236D01*
X8336Y1878D02*
X8836D01*
X3536D02*
X4236D01*
X8236Y1778D02*
X8836D01*
X3436D02*
X4136D01*
X8236Y1678D02*
X8736D01*
X3236D02*
X4036D01*
X7236Y78D02*
X7836D01*
X7136Y-22D02*
X7736D01*
X17936Y-4422D02*
X23436D01*
X17936Y-4522D02*
X23436D01*
X18036Y-4622D02*
X23436D01*
X18036Y-4722D02*
X23436D01*
X18036Y-4822D02*
X23436D01*
X18036Y-4922D02*
X23536D01*
X17236Y-2122D02*
X22936D01*
X17236Y-2222D02*
X22936D01*
X17336Y-2322D02*
X23036D01*
X17336Y-2422D02*
X23036D01*
X17336Y-2522D02*
X23036D01*
X17436Y-2622D02*
X23036D01*
X17436Y-2722D02*
X23136D01*
X17536Y-2822D02*
X23136D01*
X17536Y-2922D02*
X23136D01*
X17536Y-3022D02*
X23136D01*
X17636Y-3122D02*
X23236D01*
X17636Y-3222D02*
X23236D01*
X17636Y-3322D02*
X23236D01*
X17736Y-3422D02*
X23236D01*
X17736Y-3522D02*
X23336D01*
X17736Y-3622D02*
X23336D01*
X17836Y-3722D02*
X23336D01*
X17836Y-3822D02*
X23336D01*
X17836Y-3922D02*
X23336D01*
X17836Y-4022D02*
X23336D01*
X17936Y-4122D02*
X23436D01*
X17936Y-4222D02*
X23436D01*
X17936Y-4322D02*
X23436D01*
X17636Y-9722D02*
X23236D01*
X17636Y-9822D02*
X23236D01*
X17536Y-9922D02*
X23136D01*
X17536Y-10022D02*
X23136D01*
X17536Y-10122D02*
X23136D01*
X17436Y-10222D02*
X23136D01*
X17436Y-10322D02*
X23036D01*
X17336Y-10422D02*
X23036D01*
X17336Y-10522D02*
X23036D01*
X17236Y-10622D02*
X23036D01*
X17236Y-10722D02*
X22936D01*
X17236Y-10822D02*
X22936D01*
X18136Y-7022D02*
X23536D01*
X18136Y-7122D02*
X23536D01*
X18136Y-7222D02*
X23536D01*
X18136Y-7422D02*
X23536D01*
X18136Y-7522D02*
X23536D01*
X18136Y-7622D02*
X23536D01*
X18036Y-7722D02*
X23536D01*
X18036Y-7822D02*
X23536D01*
X18036Y-7922D02*
X23536D01*
X18036Y-8022D02*
X23536D01*
X18036Y-8122D02*
X23436D01*
X18036Y-8222D02*
X23436D01*
X18036Y-8322D02*
X23436D01*
X17936Y-8422D02*
X23436D01*
X17936Y-8522D02*
X23436D01*
X17936Y-8622D02*
X23436D01*
X17936Y-8722D02*
X23436D01*
X17936Y-8822D02*
X23436D01*
X17836Y-8922D02*
X23336D01*
X17836Y-9022D02*
X23336D01*
X17836Y-9122D02*
X23336D01*
X17736Y-9222D02*
X23336D01*
X17736Y-9322D02*
X23336D01*
X17736Y-9422D02*
X23236D01*
X17736Y-9522D02*
X23236D01*
X17636Y-9622D02*
X23236D01*
X18036Y-5122D02*
X23536D01*
X18036Y-5222D02*
X23536D01*
X18136Y-5322D02*
X23536D01*
X18136Y-5422D02*
X23536D01*
X18136Y-5522D02*
X23536D01*
X18136Y-5622D02*
X23536D01*
X18136Y-7322D02*
X23536D01*
X18136Y-5722D02*
X23536D01*
X18136Y-5822D02*
X23536D01*
X18136Y-5922D02*
X23536D01*
X18136Y-6022D02*
X23536D01*
X18136Y-6122D02*
X23536D01*
X18136Y-6222D02*
X23536D01*
X18136Y-6322D02*
X23536D01*
X18136Y-6422D02*
X23536D01*
X18136Y-6522D02*
X23536D01*
X18136Y-6622D02*
X23536D01*
X18136Y-6722D02*
X23536D01*
X18136Y-6822D02*
X23536D01*
X18136Y-6922D02*
X23536D01*
X26936Y14978D02*
X32136D01*
X26936Y15078D02*
X32136D01*
X26936Y14878D02*
X32136D01*
X26936Y14778D02*
X32136D01*
X26936Y14678D02*
X32136D01*
X26936Y14578D02*
X32136D01*
X26936Y14478D02*
X32136D01*
X26936Y14378D02*
X32136D01*
X26936Y14278D02*
X32136D01*
X26936Y14178D02*
X32136D01*
X26936Y14078D02*
X32136D01*
X26936Y13978D02*
X32136D01*
X26936Y13878D02*
X32136D01*
X26936Y13778D02*
X32136D01*
X26936Y13678D02*
X32136D01*
X26936Y13578D02*
X32136D01*
X26936Y13478D02*
X32136D01*
X26936Y13378D02*
X32136D01*
X26936Y13278D02*
X32136D01*
X26936Y13178D02*
X32136D01*
X26936Y13078D02*
X32136D01*
X26936Y12978D02*
X32136D01*
X26936Y12878D02*
X32136D01*
X26936Y12778D02*
X32136D01*
X26936Y12678D02*
X32136D01*
X26936Y12578D02*
X32136D01*
X26936Y12478D02*
X32136D01*
X26936Y12378D02*
X32136D01*
X26936Y12278D02*
X32136D01*
X26936Y12178D02*
X32136D01*
X26936Y12078D02*
X32136D01*
X26936Y11978D02*
X32136D01*
X26936Y11878D02*
X32136D01*
X26936Y11778D02*
X32136D01*
X26936Y11678D02*
X32136D01*
X26936Y11578D02*
X32136D01*
X26936Y11478D02*
X32136D01*
X26936Y11378D02*
X32136D01*
X26936Y11278D02*
X32136D01*
X26936Y11178D02*
X32136D01*
X26936Y11078D02*
X32136D01*
X26936Y7178D02*
X32136D01*
X26936Y7078D02*
X32136D01*
X26936Y6978D02*
X32136D01*
X26936Y6878D02*
X32136D01*
X26936Y6778D02*
X32136D01*
X26936Y6678D02*
X32136D01*
X26936Y6578D02*
X32136D01*
X26936Y6478D02*
X32136D01*
X26936Y6378D02*
X32136D01*
X26936Y6278D02*
X32136D01*
X26936Y6178D02*
X32136D01*
X26936Y6078D02*
X32136D01*
X26936Y5978D02*
X32136D01*
X26936Y5778D02*
X32136D01*
X26936Y5678D02*
X32136D01*
X26936Y5578D02*
X32136D01*
X26936Y5478D02*
X32136D01*
X26936Y5378D02*
X32136D01*
X26936Y5278D02*
X32136D01*
X26936Y5178D02*
X32136D01*
X26936Y5078D02*
X32136D01*
X26936Y10878D02*
X32136D01*
X26936Y5878D02*
X32136D01*
X26936Y10778D02*
X32136D01*
X26936Y10678D02*
X32136D01*
X26936Y10578D02*
X32136D01*
X26936Y10478D02*
X32136D01*
X26936Y10378D02*
X32136D01*
X26936Y10278D02*
X32136D01*
X26936Y10178D02*
X32136D01*
X26936Y10078D02*
X32136D01*
X26936Y9978D02*
X32136D01*
X26936Y9878D02*
X32136D01*
X26936Y9778D02*
X32136D01*
X26936Y9678D02*
X32136D01*
X26936Y7778D02*
X32136D01*
X26936Y9578D02*
X32136D01*
X26936Y9478D02*
X32136D01*
X26936Y9378D02*
X32136D01*
X26936Y9278D02*
X32136D01*
X26936Y9178D02*
X32136D01*
X26936Y9078D02*
X32136D01*
X26936Y8978D02*
X32136D01*
X26936Y8878D02*
X32136D01*
X26936Y8778D02*
X32136D01*
X26936Y8678D02*
X32136D01*
X26936Y8578D02*
X32136D01*
X26936Y8478D02*
X32136D01*
X26936Y8378D02*
X32136D01*
X26936Y8278D02*
X32136D01*
X26936Y8178D02*
X32136D01*
X26936Y8078D02*
X32136D01*
X26936Y7978D02*
X32136D01*
X26936Y7878D02*
X32136D01*
X26936Y7678D02*
X32136D01*
X26936Y7578D02*
X32136D01*
X26936Y7478D02*
X32136D01*
X26936Y7378D02*
X32136D01*
X26936Y7278D02*
X32136D01*
X26936Y4978D02*
X32136D01*
X26936Y4878D02*
X32136D01*
X26936Y4778D02*
X32136D01*
X26936Y-4422D02*
X32136D01*
X26936Y-4522D02*
X32136D01*
X26936Y-4622D02*
X32136D01*
X26936Y-4722D02*
X32136D01*
X26936Y-4822D02*
X32136D01*
X26936Y-4922D02*
X32136D01*
X26936Y-2022D02*
X32136D01*
X26936Y-2122D02*
X32136D01*
X26936Y-2222D02*
X32136D01*
X26936Y-2322D02*
X32136D01*
X26936Y-2422D02*
X32136D01*
X26936Y-2522D02*
X32136D01*
X26936Y-2622D02*
X32136D01*
X26936Y-2722D02*
X32136D01*
X26936Y-2922D02*
X32136D01*
X26936Y-3022D02*
X32136D01*
X26936Y-3122D02*
X32136D01*
X26936Y-3222D02*
X32136D01*
X26936Y-3322D02*
X32136D01*
X26936Y-3422D02*
X32136D01*
X26936Y-3522D02*
X32136D01*
X26936Y-3622D02*
X32136D01*
X26936Y-3722D02*
X32136D01*
X26936Y-3822D02*
X32136D01*
X26936Y-3922D02*
X32136D01*
X26936Y-122D02*
X32736D01*
X26936Y-222D02*
X32636D01*
X26936Y-322D02*
X32536D01*
X26936Y-422D02*
X32436D01*
X26936Y-522D02*
X32336D01*
X26936Y-622D02*
X32236D01*
X26936Y-722D02*
X32136D01*
X26936Y-822D02*
X32136D01*
X26936Y-922D02*
X32136D01*
X26936Y-1022D02*
X32136D01*
X26936Y-1122D02*
X32136D01*
X26936Y-1222D02*
X32136D01*
X26936Y-1322D02*
X32136D01*
X26936Y-1422D02*
X32136D01*
X26936Y-1522D02*
X32136D01*
X26936Y-1622D02*
X32136D01*
X26936Y-1722D02*
X32136D01*
X26936Y-1822D02*
X32136D01*
X26936Y-1922D02*
X32136D01*
X26936Y-4022D02*
X32136D01*
X26936Y-4122D02*
X32136D01*
X26936Y-4222D02*
X32136D01*
X26936Y-4322D02*
X32136D01*
X26936Y-2822D02*
X32136D01*
X26936Y178D02*
X33036D01*
X26936Y78D02*
X32936D01*
X26936Y-22D02*
X32836D01*
X26936Y-11922D02*
X31936D01*
X26936Y-12022D02*
X31936D01*
X26936Y-12122D02*
X31936D01*
X26936Y-12222D02*
X31936D01*
X26936Y-12322D02*
X31936D01*
X26936Y-12422D02*
X31936D01*
X26936Y-12522D02*
X31936D01*
X26936Y-7022D02*
X32536D01*
X26936Y-7122D02*
X32536D01*
X26936Y-7222D02*
X32636D01*
X26936Y-7322D02*
X32736D01*
X26936Y-7422D02*
X32836D01*
X26936Y-7522D02*
X32936D01*
X26936Y-12622D02*
X31936D01*
X26936Y-5122D02*
X32136D01*
X26936Y-5222D02*
X32136D01*
X26936Y-5322D02*
X32136D01*
X26936Y-5422D02*
X32136D01*
X26936Y-5522D02*
X32136D01*
X26936Y-5622D02*
X32136D01*
X26936Y-5722D02*
X32136D01*
X26936Y-5822D02*
X32136D01*
X26936Y-5922D02*
X32136D01*
X26936Y-6022D02*
X32136D01*
X26936Y-6122D02*
X32136D01*
X26936Y-6222D02*
X32136D01*
X26936Y-6322D02*
X32136D01*
X26936Y-6422D02*
X32136D01*
X26936Y-6522D02*
X32136D01*
X26936Y-6622D02*
X32136D01*
X26936Y-12722D02*
X31936D01*
X26936Y-12822D02*
X31936D01*
X26936Y-12922D02*
X31936D01*
X26936Y-6722D02*
X32236D01*
X26936Y-6822D02*
X32336D01*
X26936Y-6922D02*
X32436D01*
X26936Y-13322D02*
X31936D01*
X26936Y-13422D02*
X31936D01*
X26936Y-13122D02*
X31936D01*
X26936Y-13222D02*
X31936D01*
X36236Y6378D02*
X39036D01*
X35636Y6278D02*
X39536D01*
X35236Y6178D02*
X40036D01*
X34836Y6078D02*
X40336D01*
X34336Y5878D02*
X40936D01*
X34536Y5978D02*
X40636D01*
X34736Y-13422D02*
X40136D01*
X35136Y-13522D02*
X39736D01*
X35536Y-13622D02*
X39336D01*
X36036Y-13722D02*
X38736D01*
X33936Y-13122D02*
X41036D01*
X34236Y-13222D02*
X40736D01*
X34436Y-13322D02*
X40436D01*
X41936Y-4422D02*
X47236D01*
X41936Y-4522D02*
X47236D01*
X41936Y-4622D02*
X47136D01*
X41936Y-4722D02*
X47136D01*
X41936Y-4822D02*
X47136D01*
X41836Y-4922D02*
X47136D01*
X41736Y-2022D02*
X47136D01*
X41836Y-2122D02*
X47136D01*
X41836Y-2222D02*
X47136D01*
X41836Y-2322D02*
X47136D01*
X41836Y-2422D02*
X47136D01*
X41936Y-2522D02*
X47136D01*
X41936Y-2622D02*
X47136D01*
X41936Y-2722D02*
X47136D01*
X41936Y-2822D02*
X47236D01*
X41936Y-2922D02*
X47236D01*
X41936Y-3022D02*
X47236D01*
X41936Y-3122D02*
X47236D01*
X42036Y-3222D02*
X47236D01*
X42036Y-3322D02*
X47236D01*
X42036Y-3422D02*
X47236D01*
X42036Y-3522D02*
X47236D01*
X42036Y-3622D02*
X47236D01*
X42036Y-3722D02*
X47236D01*
X42036Y-3822D02*
X47236D01*
X42036Y-3922D02*
X47236D01*
X42036Y-4022D02*
X47236D01*
X41236Y-722D02*
X46836D01*
X41236Y-822D02*
X46836D01*
X41336Y-922D02*
X46836D01*
X41336Y-1022D02*
X46936D01*
X41436Y-1122D02*
X46936D01*
X41436Y-1222D02*
X46936D01*
X41536Y-1322D02*
X46936D01*
X41536Y-1422D02*
X47036D01*
X41636Y-1522D02*
X47036D01*
X41636Y-1722D02*
X47036D01*
X41736Y-1822D02*
X47036D01*
X41736Y-1922D02*
X47036D01*
X42036Y-4122D02*
X47236D01*
X42036Y-4222D02*
X47236D01*
X41936Y-4322D02*
X47236D01*
X41636Y-1622D02*
X47036D01*
X41836Y-5122D02*
X47136D01*
X41836Y-5222D02*
X47136D01*
X41736Y-5322D02*
X47136D01*
X41736Y-5422D02*
X47036D01*
X41736Y-5522D02*
X47036D01*
X41736Y-5622D02*
X47036D01*
X41636Y-5722D02*
X47036D01*
X41636Y-5822D02*
X47036D01*
X41536Y-5922D02*
X47036D01*
X41536Y-6022D02*
X46936D01*
X41436Y-6122D02*
X46936D01*
X41436Y-6222D02*
X46936D01*
X41336Y-6322D02*
X46936D01*
X41336Y-6422D02*
X46836D01*
X41236Y-6522D02*
X46836D01*
X41236Y-6622D02*
X46836D01*
X-37164Y-5022D02*
X-31464D01*
X-8364Y2978D02*
X-7864D01*
X-5664Y-5022D02*
X-264D01*
X-4264Y2978D02*
X-3764D01*
X7236Y10978D02*
X7836D01*
X4436Y2978D02*
X4936D01*
X18036Y-5022D02*
X23536D01*
X26936Y10978D02*
X32136D01*
X26936Y-5022D02*
X32136D01*
X26936Y-13022D02*
X31936D01*
X41836Y-5022D02*
X47136D01*
X-48164Y5878D02*
X-42664D01*
X-48164Y5778D02*
X-42664D01*
X-48064Y5678D02*
X-42564D01*
X-48064Y5578D02*
X-42564D01*
X-47964Y5478D02*
X-42564D01*
X-47964Y5378D02*
X-42464D01*
X-47964Y5278D02*
X-42464D01*
X-47864Y5178D02*
X-42364D01*
X-48264Y5978D02*
X-42764D01*
X-47064Y3378D02*
X-41564D01*
X-46964Y3278D02*
X-41564D01*
X-46964Y3178D02*
X-41464D01*
X-46864Y3078D02*
X-41464D01*
X-47864Y5078D02*
X-42364D01*
X-47764Y4978D02*
X-42264D01*
X-47764Y4878D02*
X-42264D01*
X-47664Y4778D02*
X-42164D01*
X-47664Y4678D02*
X-42164D01*
X-47564Y4578D02*
X-42164D01*
X-47564Y4478D02*
X-42064D01*
X-47464Y4378D02*
X-42064D01*
X-47464Y4278D02*
X-41964D01*
X-47364Y4178D02*
X-41964D01*
X-47364Y4078D02*
X-41864D01*
X-47364Y3978D02*
X-41864D01*
X-47264Y3878D02*
X-41764D01*
X-47264Y3778D02*
X-41764D01*
X-47164Y3678D02*
X-41664D01*
X-47164Y3578D02*
X-41664D01*
X-47064Y3478D02*
X-41664D01*
X-43464Y-4322D02*
X-38064D01*
X-43464Y-4422D02*
X-38064D01*
X-43364Y-4522D02*
X-38064D01*
X-43364Y-4622D02*
X-37964D01*
X-43364Y-4722D02*
X-37964D01*
X-43264Y-4822D02*
X-37864D01*
X-43264Y-4922D02*
X-37864D01*
X-44264Y-2622D02*
X-38864D01*
X-44264Y-2722D02*
X-38864D01*
X-44164Y-2822D02*
X-38764D01*
X-44164Y-2922D02*
X-38764D01*
X-44064Y-3022D02*
X-38664D01*
X-44064Y-3122D02*
X-38664D01*
X-43964Y-3222D02*
X-38564D01*
X-43964Y-3322D02*
X-38564D01*
X-43864Y-3422D02*
X-38564D01*
X-43864Y-3522D02*
X-38464D01*
X-43864Y-3622D02*
X-38464D01*
X-43764Y-3722D02*
X-38364D01*
X-43764Y-3822D02*
X-38364D01*
X-43664Y-3922D02*
X-38264D01*
X-43664Y-4022D02*
X-38264D01*
X-43564Y-4122D02*
X-38164D01*
X-43564Y-4222D02*
X-38164D01*
X-46864Y2878D02*
X-41364D01*
X-43164Y-5122D02*
X-37764D01*
X-43064Y-5222D02*
X-37664D01*
X-43064Y-5322D02*
X-37664D01*
X-42964Y-5422D02*
X-37664D01*
X-42964Y-5522D02*
X-37564D01*
X-42864Y-5622D02*
X-37564D01*
X-6864Y11078D02*
X-6264D01*
X-22864Y6278D02*
X-20064D01*
X-15764Y5878D02*
X-10764D01*
X-23164D02*
X-18564D01*
X-31864D02*
X-26064D01*
X-15764Y5778D02*
X-10764D01*
X-23164D02*
X-18264D01*
X-31864D02*
X-26164D01*
X-15764Y5678D02*
X-10764D01*
X-23164D02*
X-18064D01*
X-31964D02*
X-26164D01*
X-15764Y5578D02*
X-10764D01*
X-23164D02*
X-17864D01*
X-31964D02*
X-26264D01*
X-15764Y5478D02*
X-10764D01*
X-23164D02*
X-17664D01*
X-32064D02*
X-26264D01*
X-15764Y5378D02*
X-10764D01*
X-23164D02*
X-17464D01*
X-32064D02*
X-26364D01*
X-15764Y5278D02*
X-10764D01*
X-23064D02*
X-17264D01*
X-32164D02*
X-26364D01*
X-15764Y5178D02*
X-10764D01*
X-23064D02*
X-17064D01*
X-32164D02*
X-26464D01*
X-15764Y5078D02*
X-10764D01*
X-23064D02*
X-16964D01*
X-23264Y6178D02*
X-19564D01*
X-31764Y5978D02*
X-26064D01*
X-23164Y6078D02*
X-19164D01*
X-23164Y5978D02*
X-18864D01*
X-15764D02*
X-10764D01*
X-7064Y10878D02*
X-6464D01*
X-7064Y10778D02*
X-6464D01*
X-7164Y10678D02*
X-6564D01*
X-7264Y10578D02*
X-6664D01*
X-7264Y10478D02*
X-6664D01*
X-7364Y10378D02*
X-6764D01*
X-7464Y10278D02*
X-6864D01*
X-7464Y10178D02*
X-6864D01*
X-33064Y3378D02*
X-27364D01*
X-22864Y3278D02*
X-10764D01*
X-33064D02*
X-27364D01*
X-22864Y3178D02*
X-10764D01*
X-33164D02*
X-27464D01*
X-22864Y3078D02*
X-10764D01*
X-33164D02*
X-27464D01*
X-32264Y5078D02*
X-26464D01*
X-15764Y4978D02*
X-10764D01*
X-23064D02*
X-16864D01*
X-32264D02*
X-26564D01*
X-15764Y4878D02*
X-10764D01*
X-23064D02*
X-16664D01*
X-32364D02*
X-26564D01*
X-15764Y4778D02*
X-10764D01*
X-23064D02*
X-16564D01*
X-32364D02*
X-26664D01*
X-15764Y4678D02*
X-10764D01*
X-23064D02*
X-16464D01*
X-32464D02*
X-26664D01*
X-15764Y4578D02*
X-10764D01*
X-23064D02*
X-16364D01*
X-32464D02*
X-26764D01*
X-15764Y4478D02*
X-10764D01*
X-22964D02*
X-16264D01*
X-32464D02*
X-26764D01*
X-15764Y4378D02*
X-10764D01*
X-22964D02*
X-16164D01*
X-32564D02*
X-26864D01*
X-15764Y4278D02*
X-10764D01*
X-22964D02*
X-16064D01*
X-32564D02*
X-26864D01*
X-15764Y4178D02*
X-10764D01*
X-22964D02*
X-15964D01*
X-32664D02*
X-26964D01*
X-15764Y4078D02*
X-10764D01*
X-22964D02*
X-15864D01*
X-32664D02*
X-26964D01*
X-22964Y3978D02*
X-10764D01*
X-32764D02*
X-27064D01*
X-22964Y3878D02*
X-10764D01*
X-32764D02*
X-27064D01*
X-22964Y3778D02*
X-10764D01*
X-32864D02*
X-27164D01*
X-22864Y3678D02*
X-10764D01*
X-32864D02*
X-27164D01*
X-22864Y3578D02*
X-10764D01*
X-32964D02*
X-27264D01*
X-22864Y3478D02*
X-10764D01*
X-32964D02*
X-27264D01*
X-22864Y3378D02*
X-10764D01*
X-15964Y-4422D02*
X-10764D01*
X-15964Y-4522D02*
X-10764D01*
X-15964Y-4622D02*
X-10764D01*
X-15964Y-4722D02*
X-10764D01*
X-15964Y-4822D02*
X-10764D01*
X-15964Y-2022D02*
X-10764D01*
X-15964Y-2122D02*
X-10764D01*
X-15964Y-2222D02*
X-10764D01*
X-15964Y-2322D02*
X-10764D01*
X-15964Y-2422D02*
X-10764D01*
X-15964Y-2522D02*
X-10764D01*
X-15964Y-2622D02*
X-10764D01*
X-15964Y-2722D02*
X-10764D01*
X-15964Y-2822D02*
X-10764D01*
X-15964Y-2922D02*
X-10764D01*
X-15964Y-3022D02*
X-10764D01*
X-15964Y-3122D02*
X-10764D01*
X-15964Y-3222D02*
X-10764D01*
X-15964Y-3322D02*
X-10764D01*
X-15964Y-3422D02*
X-10764D01*
X-15964Y-3522D02*
X-10764D01*
X-15964Y-3622D02*
X-10764D01*
X-15964Y-3722D02*
X-10764D01*
X-15964Y-3822D02*
X-10764D01*
X-15964Y-3922D02*
X-10764D01*
X-16964Y-22D02*
X-10764D01*
X-34664D02*
X-29064D01*
X-6864Y-122D02*
X-6164D01*
X-16864D02*
X-10764D01*
X-34764D02*
X-29064D01*
X-16764Y-222D02*
X-10764D01*
X-34764D02*
X-29164D01*
X-16664Y-322D02*
X-10764D01*
X-16564Y-422D02*
X-10764D01*
X-16464Y-522D02*
X-10764D01*
X-16464Y-622D02*
X-10764D01*
X-16364Y-722D02*
X-10764D01*
X-16264Y-822D02*
X-10764D01*
X-16164Y-922D02*
X-10764D01*
X-16164Y-1022D02*
X-10764D01*
X-16064Y-1122D02*
X-10764D01*
X-15964Y-1222D02*
X-10764D01*
X-15964Y-1322D02*
X-10764D01*
X-15964Y-1422D02*
X-10764D01*
X-15964Y-1522D02*
X-10764D01*
X-15964Y-1622D02*
X-10764D01*
X-15964Y-1722D02*
X-10764D01*
X-15964Y-1822D02*
X-10764D01*
X-15964Y-1922D02*
X-10764D01*
X-15964Y-4022D02*
X-10764D01*
X-15964Y-4122D02*
X-10764D01*
X-15964Y-4222D02*
X-10764D01*
X-15964Y-4322D02*
X-10764D01*
X-22664Y1678D02*
X-10764D01*
X-15964Y-4922D02*
X-10764D01*
X-33864Y1678D02*
X-28164D01*
X-22664Y1578D02*
X-10764D01*
X-33964D02*
X-28264D01*
X-19864Y1478D02*
X-10764D01*
X-33964D02*
X-28264D01*
X-19364Y1378D02*
X-10764D01*
X-34064D02*
X-28364D01*
X-19064Y1278D02*
X-10764D01*
X-34064D02*
X-28364D01*
X-18864Y1178D02*
X-10764D01*
X-34164D02*
X-28464D01*
X-18564Y1078D02*
X-10764D01*
X-34164D02*
X-28464D01*
X-18364Y978D02*
X-10764D01*
X-34264D02*
X-28564D01*
X-7464Y878D02*
X-6864D01*
X-18164D02*
X-10764D01*
X-34264D02*
X-28564D01*
X-7464Y778D02*
X-6864D01*
X-18064D02*
X-10764D01*
X-34364D02*
X-28664D01*
X-7364Y678D02*
X-6764D01*
X-17864D02*
X-10764D01*
X-34364D02*
X-28664D01*
X-7364Y578D02*
X-6764D01*
X-17764D02*
X-10764D01*
X-34464D02*
X-28764D01*
X-7264Y478D02*
X-6664D01*
X-17564D02*
X-10764D01*
X-34464D02*
X-28764D01*
X-7164Y378D02*
X-6564D01*
X-17464D02*
X-10764D01*
X-34464D02*
X-28864D01*
X-7164Y278D02*
X-6464D01*
X-17364D02*
X-10764D01*
X-34564D02*
X-28864D01*
X-7064Y178D02*
X-6464D01*
X-17164D02*
X-10764D01*
X-22764Y2878D02*
X-10764D01*
X-33264D02*
X-27564D01*
X-22764Y2778D02*
X-10764D01*
X-33364D02*
X-27664D01*
X-22764Y2678D02*
X-10764D01*
X-33364D02*
X-27664D01*
X-22764Y2578D02*
X-10764D01*
X-33464D02*
X-27764D01*
X-22764Y2478D02*
X-10764D01*
X-33464D02*
X-27764D01*
X-22764Y2378D02*
X-10764D01*
X-33564D02*
X-27864D01*
X-17064Y78D02*
X-10764D01*
X-22764Y2278D02*
X-10764D01*
X-33564D02*
X-27864D01*
X-22764Y2178D02*
X-10764D01*
X-33664D02*
X-27964D01*
X-22664Y2078D02*
X-10764D01*
X-33664D02*
X-27964D01*
X-22664Y1978D02*
X-10764D01*
X-33764D02*
X-28064D01*
X-22664Y1878D02*
X-10764D01*
X-33764D02*
X-28064D01*
X-22664Y1778D02*
X-10764D01*
X-33864D02*
X-28164D01*
X-34564Y178D02*
X-28964D01*
X-6964Y78D02*
X-6364D01*
X-34664D02*
X-28964D01*
X-6864Y-22D02*
X-6264D01*
X-15964Y-9722D02*
X-10764D01*
X-15964Y-9822D02*
X-10764D01*
X-15964Y-9922D02*
X-10764D01*
X-15964Y-10022D02*
X-10764D01*
X-15964Y-10122D02*
X-10764D01*
X-15964Y-10222D02*
X-10764D01*
X-15964Y-10322D02*
X-10764D01*
X-15964Y-10422D02*
X-10764D01*
X-15964Y-10522D02*
X-10764D01*
X-15964Y-10622D02*
X-10764D01*
X-15964Y-10722D02*
X-10764D01*
X-15964Y-10822D02*
X-10764D01*
X-15964Y-10922D02*
X-10764D01*
X-15964Y-11022D02*
X-10764D01*
X-15964Y-11122D02*
X-10764D01*
X-15964Y-11222D02*
X-10764D01*
X-15964Y-11322D02*
X-10764D01*
X-15964Y-11422D02*
X-10764D01*
X-15964Y-11522D02*
X-10764D01*
X-15964Y-11622D02*
X-10764D01*
X-15964Y-11722D02*
X-10764D01*
X-15964Y-11822D02*
X-10764D01*
X-15964Y-11922D02*
X-10764D01*
X-15964Y-12022D02*
X-10764D01*
X-15964Y-12122D02*
X-10764D01*
X-15964Y-12222D02*
X-10764D01*
X-15964Y-12322D02*
X-10764D01*
X-15964Y-12422D02*
X-10764D01*
X-15964Y-12522D02*
X-10764D01*
X-15964Y-7022D02*
X-10764D01*
X-15964Y-7122D02*
X-10764D01*
X-15964Y-7222D02*
X-10764D01*
X-15964Y-7322D02*
X-10764D01*
X-15964Y-7422D02*
X-10764D01*
X-15964Y-7522D02*
X-10764D01*
X-15964Y-7622D02*
X-10764D01*
X-15964Y-7722D02*
X-10764D01*
X-15964Y-7822D02*
X-10764D01*
X-15964Y-7922D02*
X-10764D01*
X-15964Y-8022D02*
X-10764D01*
X-15964Y-8122D02*
X-10764D01*
X-15964Y-8222D02*
X-10764D01*
X-15964Y-8322D02*
X-10764D01*
X-15964Y-8422D02*
X-10764D01*
X-15964Y-8522D02*
X-10764D01*
X-15964Y-8622D02*
X-10764D01*
X-15964Y-8722D02*
X-10764D01*
X-15964Y-8822D02*
X-10764D01*
X-15964Y-8922D02*
X-10764D01*
X-15964Y-9022D02*
X-10764D01*
X-15964Y-9122D02*
X-10764D01*
X-15964Y-9222D02*
X-10764D01*
X-15964Y-9322D02*
X-10764D01*
X-15964Y-9422D02*
X-10764D01*
X-15964Y-9622D02*
X-10764D01*
X-15964Y-5122D02*
X-10764D01*
X-15964Y-5222D02*
X-10764D01*
X-15964Y-5322D02*
X-10764D01*
X-15964Y-5422D02*
X-10764D01*
X-15964Y-5522D02*
X-10764D01*
X-15964Y-5622D02*
X-10764D01*
X-15964Y-5722D02*
X-10764D01*
X-15964Y-5822D02*
X-10764D01*
X-15964Y-5922D02*
X-10764D01*
X-15964Y-6022D02*
X-10764D01*
X-15964Y-6122D02*
X-10764D01*
X-15964Y-6222D02*
X-10764D01*
X-15964Y-9522D02*
X-10764D01*
X-15964Y-6322D02*
X-10764D01*
X-15964Y-6422D02*
X-10764D01*
X-15964Y-6522D02*
X-10764D01*
X-15964Y-12622D02*
X-10764D01*
X-15964Y-12722D02*
X-10764D01*
X-15964Y-12822D02*
X-10764D01*
X-15964Y-12922D02*
X-10764D01*
X-15964Y-6622D02*
X-10764D01*
X-15964Y-6722D02*
X-10764D01*
X-15964Y-6822D02*
X-10764D01*
X-15964Y-6922D02*
X-10764D01*
X-15964Y-13322D02*
X-10764D01*
X-15964Y-13422D02*
X-10764D01*
X-15964Y-13122D02*
X-10764D01*
X-15964Y-13222D02*
X-10764D01*
X-464Y14678D02*
X1436D01*
X-1164Y14578D02*
X2036D01*
X-1664Y14478D02*
X2536D01*
X-2064Y14378D02*
X2936D01*
X-2364Y14278D02*
X3236D01*
X8936Y7278D02*
X13736D01*
X8936Y7178D02*
X14036D01*
X9036Y7078D02*
X14336D01*
X9036Y6978D02*
X14536D01*
X9036Y6878D02*
X14836D01*
X9036Y6778D02*
X15036D01*
X9036Y6678D02*
X15336D01*
X9036Y6578D02*
X15536D01*
X9036Y6478D02*
X15736D01*
X9136Y6378D02*
X15936D01*
X9136Y6278D02*
X16136D01*
X9136Y6178D02*
X16336D01*
X9136Y6078D02*
X16436D01*
X9136Y5978D02*
X16636D01*
X9136Y5878D02*
X16836D01*
X9136Y5778D02*
X16936D01*
X9136Y5678D02*
X17136D01*
X9136Y5578D02*
X17336D01*
X9136Y5478D02*
X17436D01*
X9136Y5378D02*
X17636D01*
X9136Y5278D02*
X17736D01*
X9136Y5178D02*
X17836D01*
X9136Y5078D02*
X18036D01*
X-264Y10478D02*
X1136D01*
X-864Y10378D02*
X1636D01*
X-1264Y10278D02*
X2036D01*
X-1564Y10178D02*
X2236D01*
X-1764Y10078D02*
X2536D01*
X936Y9978D02*
X2736D01*
X8536Y8578D02*
X9136D01*
X8636Y8478D02*
X9136D01*
X8636Y8378D02*
X9136D01*
X8636Y8278D02*
X9236D01*
X8736Y8178D02*
X9236D01*
X8736Y8078D02*
X9236D01*
X8736Y7978D02*
X9836D01*
X8836Y7878D02*
X10936D01*
X8836Y7778D02*
X11636D01*
X8836Y7678D02*
X12136D01*
X8836Y7578D02*
X12636D01*
X8936Y7478D02*
X13036D01*
X8936Y7378D02*
X13436D01*
X8836Y3278D02*
X19936D01*
X8836Y3178D02*
X20036D01*
X10336Y3078D02*
X20136D01*
X8736D02*
X9336D01*
X9136Y4978D02*
X18136D01*
X9136Y4878D02*
X18236D01*
X9136Y4778D02*
X18336D01*
X9136Y4678D02*
X18536D01*
X9036Y4578D02*
X18636D01*
X9036Y4478D02*
X18736D01*
X9036Y4378D02*
X18836D01*
X9036Y4278D02*
X18936D01*
X9036Y4178D02*
X19036D01*
X9036Y4078D02*
X19136D01*
X9036Y3978D02*
X19236D01*
X8936Y3878D02*
X19336D01*
X8936Y3778D02*
X19436D01*
X8936Y3678D02*
X19536D01*
X8936Y3578D02*
X19636D01*
X8836Y3478D02*
X19736D01*
X8836Y3378D02*
X19836D01*
X17136Y-2022D02*
X22936D01*
X15936Y-122D02*
X22236D01*
X16036Y-222D02*
X22236D01*
X16136Y-322D02*
X22236D01*
X16136Y-422D02*
X22336D01*
X16236Y-522D02*
X22336D01*
X16336Y-622D02*
X22436D01*
X16436Y-722D02*
X22436D01*
X16436Y-822D02*
X22536D01*
X16536Y-922D02*
X22536D01*
X16636Y-1022D02*
X22536D01*
X16636Y-1122D02*
X22636D01*
X16736Y-1222D02*
X22636D01*
X16736Y-1322D02*
X22636D01*
X16836Y-1422D02*
X22736D01*
X16936Y-1522D02*
X22736D01*
X16936Y-1622D02*
X22836D01*
X17036Y-1722D02*
X22836D01*
X17036Y-1822D02*
X22836D01*
X17136Y-1922D02*
X22836D01*
X14136Y1578D02*
X21236D01*
X14236Y1478D02*
X21336D01*
X14336Y1378D02*
X21336D01*
X14536Y1278D02*
X21436D01*
X14636Y1178D02*
X21536D01*
X14736Y1078D02*
X21536D01*
X14836Y978D02*
X21636D01*
X14936Y878D02*
X21636D01*
X15136Y778D02*
X21736D01*
X15236Y678D02*
X21736D01*
X1036D02*
X2636D01*
X15336Y578D02*
X21836D01*
X-1764D02*
X2436D01*
X15436Y478D02*
X21936D01*
X-1564D02*
X2236D01*
X15536Y378D02*
X21936D01*
X-1264D02*
X1936D01*
X15536Y278D02*
X22036D01*
X-864D02*
X1536D01*
X15636Y178D02*
X22036D01*
X11336Y2878D02*
X20336D01*
X8736D02*
X9236D01*
X11636Y2778D02*
X20336D01*
X8636D02*
X9236D01*
X11936Y2678D02*
X20436D01*
X8636D02*
X9136D01*
X12236Y2578D02*
X20536D01*
X8636D02*
X9136D01*
X12436Y2478D02*
X20636D01*
X8536D02*
X9136D01*
X12736Y2378D02*
X20736D01*
X12936Y2278D02*
X20736D01*
X13136Y2178D02*
X20836D01*
X13336Y2078D02*
X20936D01*
X13436Y1978D02*
X20936D01*
X13636Y1878D02*
X21036D01*
X13836Y1778D02*
X21136D01*
X13936Y1678D02*
X21136D01*
X15736Y78D02*
X22136D01*
X15836Y-22D02*
X22136D01*
X17136Y-10922D02*
X22936D01*
X17136Y-11022D02*
X22836D01*
X17036Y-11122D02*
X22836D01*
X17036Y-11222D02*
X22836D01*
X16936Y-11322D02*
X22736D01*
X16836Y-11422D02*
X22736D01*
X16836Y-11522D02*
X22736D01*
X16736Y-11622D02*
X22636D01*
X16736Y-11722D02*
X22636D01*
X16636Y-11822D02*
X22636D01*
X16536Y-11922D02*
X22536D01*
X16536Y-12022D02*
X22536D01*
X16436Y-12122D02*
X22536D01*
X16336Y-12222D02*
X22436D01*
X16336Y-12322D02*
X22436D01*
X16236Y-12422D02*
X22336D01*
X16136Y-12522D02*
X22336D01*
X16036Y-12622D02*
X22236D01*
X16036Y-12722D02*
X22236D01*
X15936Y-12822D02*
X22136D01*
X15836Y-12922D02*
X22136D01*
X-664Y-17622D02*
X18536D01*
X14236Y-14422D02*
X21336D01*
X14036Y-14522D02*
X21236D01*
X13936Y-14622D02*
X21136D01*
X13736Y-14722D02*
X21136D01*
X13636Y-14822D02*
X21036D01*
X13436Y-14922D02*
X20936D01*
X13236Y-15022D02*
X20936D01*
X13036Y-15122D02*
X20836D01*
X12836Y-15222D02*
X20736D01*
X12636Y-15322D02*
X20636D01*
X12436Y-15422D02*
X20636D01*
X-2764D02*
X5336D01*
X12136Y-15522D02*
X20536D01*
X-2764D02*
X5636D01*
X11936Y-15622D02*
X20436D01*
X-2664D02*
X5936D01*
X11636Y-15722D02*
X20336D01*
X-2564D02*
X6236D01*
X11236Y-15822D02*
X20236D01*
X-2464D02*
X6536D01*
X10836Y-15922D02*
X20236D01*
X-2364D02*
X7036D01*
X10236Y-16022D02*
X20136D01*
X-2264D02*
X7536D01*
X-2264Y-16122D02*
X20036D01*
X-2164Y-16222D02*
X19936D01*
X-2064Y-16322D02*
X19836D01*
X-1964Y-16422D02*
X19736D01*
X-1864Y-16522D02*
X19636D01*
X-1764Y-16622D02*
X19536D01*
X-1664Y-16722D02*
X19436D01*
X-1564Y-16822D02*
X19336D01*
X-1464Y-16922D02*
X19236D01*
X-1364Y-17022D02*
X19136D01*
X-1264Y-17122D02*
X19036D01*
X-1164Y-17222D02*
X18936D01*
X-1064Y-17322D02*
X18836D01*
X-964Y-17422D02*
X18736D01*
X-764Y-17522D02*
X18636D01*
X-564Y-17722D02*
X18336D01*
X-464Y-17822D02*
X18236D01*
X-264Y-17922D02*
X18136D01*
X-164Y-18022D02*
X17936D01*
X-64Y-18122D02*
X17836D01*
X136Y-18222D02*
X17736D01*
X236Y-18322D02*
X17536D01*
X336Y-18422D02*
X17436D01*
X536Y-18522D02*
X17236D01*
X736Y-18622D02*
X17136D01*
X836Y-18722D02*
X16936D01*
X1036Y-18822D02*
X16836D01*
X1136Y-18922D02*
X16636D01*
X1336Y-19022D02*
X16436D01*
X1536Y-19122D02*
X16236D01*
X1736Y-19222D02*
X16136D01*
X1936Y-19322D02*
X15936D01*
X2136Y-19422D02*
X15736D01*
X2336Y-19522D02*
X15536D01*
X2536Y-19622D02*
X15236D01*
X2736Y-19722D02*
X15036D01*
X3036Y-19822D02*
X14836D01*
X3236Y-19922D02*
X14536D01*
X3536Y-20022D02*
X14236D01*
X3836Y-20122D02*
X14036D01*
X4136Y-20222D02*
X13636D01*
X4436Y-20322D02*
X13336D01*
X4836Y-20422D02*
X12936D01*
X5236Y-20522D02*
X12536D01*
X5736Y-20622D02*
X12136D01*
X6236Y-20722D02*
X11536D01*
X6936Y-20822D02*
X10836D01*
X8336Y-20922D02*
X9536D01*
X15436Y-13322D02*
X21936D01*
X15336Y-13422D02*
X21836D01*
X15236Y-13522D02*
X21836D01*
X15136Y-13622D02*
X21736D01*
X15036Y-13722D02*
X21736D01*
X14936Y-13822D02*
X21636D01*
X14836Y-13922D02*
X21636D01*
X14736Y-14022D02*
X21536D01*
X14636Y-14122D02*
X21536D01*
X14436Y-14222D02*
X21436D01*
X14336Y-14322D02*
X21336D01*
X15636Y-13122D02*
X22036D01*
X15536Y-13222D02*
X22036D01*
X34036Y5778D02*
X41236D01*
X33836Y5678D02*
X41436D01*
X33636Y5578D02*
X41636D01*
X33436Y5478D02*
X41836D01*
X33236Y5378D02*
X42036D01*
X33036Y5278D02*
X42236D01*
X32936Y5178D02*
X42436D01*
X32736Y5078D02*
X42536D01*
X32636Y4978D02*
X42736D01*
X32436Y4878D02*
X42836D01*
X32336Y4778D02*
X43036D01*
X40736Y-122D02*
X46636D01*
X40836Y-222D02*
X46636D01*
X40936Y-322D02*
X46736D01*
X41036Y-422D02*
X46736D01*
X41036Y-522D02*
X46736D01*
X41136Y-622D02*
X46836D01*
X37836Y1578D02*
X45836D01*
X38336Y1478D02*
X45936D01*
X38636Y1378D02*
X45936D01*
X38936Y1278D02*
X46036D01*
X39136Y1178D02*
X46136D01*
X39336Y1078D02*
X46136D01*
X39536Y978D02*
X46136D01*
X39636Y878D02*
X46236D01*
X39836Y778D02*
X46236D01*
X39936Y678D02*
X46336D01*
X40036Y578D02*
X46336D01*
X40236Y478D02*
X46436D01*
X40336Y378D02*
X46436D01*
X40436Y278D02*
X46536D01*
X40536Y178D02*
X46536D01*
X40636Y78D02*
X46536D01*
X40736Y-22D02*
X46636D01*
X32036Y-11922D02*
X43236D01*
X32136Y-12022D02*
X43036D01*
X32336Y-12122D02*
X42936D01*
X32436Y-12222D02*
X42736D01*
X32536Y-12322D02*
X42636D01*
X32736Y-12422D02*
X42436D01*
X32836Y-12522D02*
X42336D01*
X33036Y-12622D02*
X42136D01*
X40936Y-7022D02*
X46736D01*
X40836Y-7122D02*
X46636D01*
X40736Y-7222D02*
X46636D01*
X40736Y-7322D02*
X46636D01*
X40636Y-7422D02*
X46536D01*
X40536Y-7522D02*
X46536D01*
X40436Y-7622D02*
X46436D01*
X40336Y-7722D02*
X46436D01*
X40136Y-7822D02*
X46436D01*
X40036Y-7922D02*
X46336D01*
X39936Y-8022D02*
X46336D01*
X39736Y-8122D02*
X46236D01*
X39636Y-8222D02*
X46236D01*
X39436Y-8322D02*
X46136D01*
X39236Y-8422D02*
X46136D01*
X39036Y-8522D02*
X46036D01*
X38836Y-8622D02*
X46036D01*
X38536Y-8722D02*
X45936D01*
X38236Y-8822D02*
X45936D01*
X37836Y-8922D02*
X45836D01*
X33236Y-12722D02*
X41936D01*
X33336Y-12822D02*
X41736D01*
X33536Y-12922D02*
X41536D01*
X41136Y-6722D02*
X46836D01*
X41036Y-6822D02*
X46736D01*
X41036Y-6922D02*
X46736D01*
X-43164Y-5022D02*
X-37764D01*
X-46864Y2978D02*
X-41364D01*
X-6964Y10978D02*
X-6364D01*
X-15964Y-5022D02*
X-10764D01*
X-15964Y-13022D02*
X-10764D01*
X-22864Y2978D02*
X-10764D01*
X-33264D02*
X-27564D01*
X15736Y-13022D02*
X22136D01*
X10836Y2978D02*
X20236D01*
X8736D02*
X9236D01*
X33736Y-13022D02*
X41236D01*
X-35664Y-1922D02*
X-29964D01*
X-35664Y-2022D02*
X-30064D01*
X-35764Y-2122D02*
X-30064D01*
X-35764Y-2222D02*
X-30164D01*
X-35864Y-2322D02*
X-30164D01*
X-35864Y-2422D02*
X-30264D01*
X-35964Y-2522D02*
X-30264D01*
X-35964Y-2622D02*
X-30364D01*
X-36064Y-2722D02*
X-30364D01*
X-36064Y-2822D02*
X-30464D01*
X-36164Y-2922D02*
X-30464D01*
X-36164Y-3022D02*
X-30564D01*
X-36264Y-3122D02*
X-30564D01*
X-36264Y-3222D02*
X-30664D01*
X-36364Y-3322D02*
X-30664D01*
X-36364Y-3422D02*
X-30764D01*
X-36464Y-3522D02*
X-30764D01*
X-36464Y-3722D02*
X-30864D01*
X-34864Y-322D02*
X-29164D01*
X-36464Y-3622D02*
X-30864D01*
X-34864Y-422D02*
X-29264D01*
X-34964Y-522D02*
X-29264D01*
X-34964Y-622D02*
X-29364D01*
X-35064Y-722D02*
X-29364D01*
X-35064Y-822D02*
X-29464D01*
X-35164Y-922D02*
X-29464D01*
X-35164Y-1022D02*
X-29564D01*
X-35264Y-1122D02*
X-29564D01*
X-35264Y-1222D02*
X-29664D01*
X-35364Y-1322D02*
X-29664D01*
X-35364Y-1422D02*
X-29764D01*
X-35464Y-1522D02*
X-29764D01*
X-35464Y-1622D02*
X-29864D01*
X-35564Y-1722D02*
X-29864D01*
X-35564Y-1822D02*
X-29964D01*
X-41064Y-9722D02*
X-33864D01*
X-40964Y-9822D02*
X-33864D01*
X-40964Y-9922D02*
X-33964D01*
X-40864Y-10022D02*
X-33964D01*
X-40864Y-10122D02*
X-34064D01*
X-40764Y-10222D02*
X-34064D01*
X-40764Y-10322D02*
X-34164D01*
X-40664Y-10422D02*
X-34164D01*
X-40664Y-10522D02*
X-34264D01*
X-40564Y-10622D02*
X-34264D01*
X-40564Y-10722D02*
X-34364D01*
X-40464Y-10822D02*
X-34364D01*
X-40464Y-10922D02*
X-34464D01*
X-40464Y-11022D02*
X-34464D01*
X-40364Y-11122D02*
X-34564D01*
X-40364Y-11222D02*
X-34564D01*
X-40264Y-11322D02*
X-34664D01*
X-40264Y-11422D02*
X-34664D01*
X-40164Y-11522D02*
X-34764D01*
X-40164Y-11622D02*
X-34764D01*
X-40064Y-11722D02*
X-34664D01*
X-40064Y-11822D02*
X-34664D01*
X-39964Y-11922D02*
X-34564D01*
X-39964Y-12022D02*
X-34564D01*
X-39864Y-12122D02*
X-34464D01*
X-39864Y-12222D02*
X-34464D01*
X-39864Y-12322D02*
X-34364D01*
X-39764Y-12422D02*
X-34364D01*
X-39764Y-12522D02*
X-34264D01*
X-42264Y-7022D02*
X-32464D01*
X-42164Y-7122D02*
X-32564D01*
X-42164Y-7222D02*
X-32564D01*
X-42164Y-7322D02*
X-32664D01*
X-42064Y-7422D02*
X-32664D01*
X-42064Y-7522D02*
X-32764D01*
X-41964Y-7622D02*
X-32764D01*
X-41964Y-7722D02*
X-32864D01*
X-41864Y-7822D02*
X-32864D01*
X-41864Y-7922D02*
X-32964D01*
X-41764Y-8022D02*
X-32964D01*
X-41764Y-8122D02*
X-33064D01*
X-41664Y-8222D02*
X-33064D01*
X-41664Y-8322D02*
X-33164D01*
X-41564Y-8422D02*
X-33164D01*
X-41564Y-8522D02*
X-33264D01*
X-41564Y-8622D02*
X-33264D01*
X-41464Y-8722D02*
X-33364D01*
X-41464Y-8822D02*
X-33364D01*
X-41364Y-8922D02*
X-33464D01*
X-41364Y-9022D02*
X-33464D01*
X-41264Y-9122D02*
X-33564D01*
X-41264Y-9222D02*
X-33564D01*
X-41164Y-9322D02*
X-33664D01*
X-41164Y-9422D02*
X-33664D01*
X-41064Y-9622D02*
X-33764D01*
X-42864Y-5722D02*
X-31864D01*
X-42764Y-5822D02*
X-31864D01*
X-42764Y-5922D02*
X-31964D01*
X-42764Y-6022D02*
X-31964D01*
X-42664Y-6122D02*
X-32064D01*
X-42664Y-6222D02*
X-32064D01*
X-41064Y-9522D02*
X-33764D01*
X-42564Y-6322D02*
X-32164D01*
X-42564Y-6422D02*
X-32164D01*
X-42464Y-6522D02*
X-32264D01*
X-39664Y-12622D02*
X-34264D01*
X-39664Y-12722D02*
X-34164D01*
X-39564Y-12822D02*
X-34164D01*
X-39564Y-12922D02*
X-34164D01*
X-42464Y-6622D02*
X-32264D01*
X-42364Y-6722D02*
X-32364D01*
X-42364Y-6822D02*
X-32364D01*
X-42264Y-6922D02*
X-32464D01*
X-38864Y-14322D02*
X-33464D01*
X-38864Y-14422D02*
X-33464D01*
X-36364Y-19922D02*
X-30864D01*
X-36264Y-20022D02*
X-30864D01*
X-36264Y-20122D02*
X-30764D01*
X-36164Y-20222D02*
X-30764D01*
X-36164Y-20322D02*
X-30664D01*
X-36064Y-20422D02*
X-30664D01*
X-36064Y-20522D02*
X-30564D01*
X-35964Y-20622D02*
X-30564D01*
X-35964Y-20722D02*
X-30464D01*
X-35864Y-20822D02*
X-30464D01*
X-35864Y-20922D02*
X-30364D01*
X-39364Y-13322D02*
X-33964D01*
X-39264Y-13422D02*
X-33864D01*
X-39264Y-13522D02*
X-33864D01*
X-39264Y-13622D02*
X-33764D01*
X-39164Y-13722D02*
X-33764D01*
X-39164Y-13822D02*
X-33664D01*
X-39064Y-13922D02*
X-33664D01*
X-39064Y-14022D02*
X-33564D01*
X-38964Y-14122D02*
X-33564D01*
X-38964Y-14222D02*
X-33464D01*
X-39464Y-13122D02*
X-34064D01*
X-39364Y-13222D02*
X-33964D01*
X-35764Y-21122D02*
X-30364D01*
X-35764Y-21222D02*
X-30264D01*
X-35664Y-21322D02*
X-30264D01*
X-35664Y-21422D02*
X-30164D01*
X-35564Y-21522D02*
X-30164D01*
X-35564Y-21622D02*
X-30064D01*
X-35464Y-21722D02*
X-30064D01*
X-35464Y-21822D02*
X-29964D01*
X-35364Y-21922D02*
X-29964D01*
X-35364Y-22022D02*
X-29864D01*
X-35264Y-22122D02*
X-29864D01*
X-35264Y-22222D02*
X-29764D01*
X-35164Y-22322D02*
X-29764D01*
X-35164Y-22422D02*
X-29664D01*
X-35164Y-22522D02*
X-29664D01*
X-35064Y-22622D02*
X-29664D01*
X-35064Y-22722D02*
X-29564D01*
X-34964Y-22822D02*
X-29564D01*
X-34964Y-22922D02*
X-29464D01*
X-34864Y-23022D02*
X-29464D01*
X-34864Y-23122D02*
X-29364D01*
X26936Y3278D02*
X44636D01*
X26936Y3178D02*
X44736D01*
X26936Y3078D02*
X44836D01*
X26936Y4678D02*
X43136D01*
X26936Y4578D02*
X43236D01*
X26936Y4478D02*
X43436D01*
X26936Y4378D02*
X43536D01*
X26936Y4278D02*
X43636D01*
X26936Y4178D02*
X43736D01*
X26936Y4078D02*
X43836D01*
X26936Y3978D02*
X44036D01*
X26936Y3878D02*
X44136D01*
X26936Y3778D02*
X44236D01*
X26936Y3678D02*
X44336D01*
X26936Y3578D02*
X44436D01*
X26936Y3478D02*
X44536D01*
X26936Y3378D02*
X44536D01*
X-5464Y-3222D02*
X3236D01*
X-5464Y-3322D02*
X2936D01*
X-5464Y-3422D02*
X2536D01*
X-5464Y-3522D02*
X2036D01*
X-5464Y-3622D02*
X1436D01*
X26936Y1578D02*
X36036D01*
X26936Y1478D02*
X35536D01*
X26936Y1378D02*
X35136D01*
X26936Y1278D02*
X34836D01*
X26936Y1178D02*
X34636D01*
X26936Y1078D02*
X34436D01*
X26936Y978D02*
X34236D01*
X26936Y878D02*
X34036D01*
X26936Y778D02*
X33836D01*
X26936Y678D02*
X33736D01*
X26936Y578D02*
X33536D01*
X26936Y478D02*
X33436D01*
X26936Y378D02*
X33236D01*
X26936Y278D02*
X33136D01*
X26936Y2878D02*
X45036D01*
X26936Y2778D02*
X45036D01*
X26936Y2678D02*
X45136D01*
X26936Y2578D02*
X45236D01*
X26936Y2478D02*
X45336D01*
X26936Y2378D02*
X45336D01*
X26936Y2278D02*
X45436D01*
X26936Y2178D02*
X45536D01*
X26936Y2078D02*
X45536D01*
X26936Y1978D02*
X45636D01*
X26936Y1878D02*
X45736D01*
X26936Y1778D02*
X45736D01*
X26936Y1678D02*
X45836D01*
X26936Y-9822D02*
X45336D01*
X26936Y-9922D02*
X45236D01*
X26936Y-10022D02*
X45136D01*
X26936Y-10122D02*
X45036D01*
X26936Y-10222D02*
X45036D01*
X26936Y-10322D02*
X44936D01*
X26936Y-10422D02*
X44836D01*
X26936Y-10522D02*
X44736D01*
X26936Y-10622D02*
X44636D01*
X26936Y-10722D02*
X44536D01*
X26936Y-10822D02*
X44436D01*
X26936Y-10922D02*
X44336D01*
X26936Y-11022D02*
X44236D01*
X26936Y-11122D02*
X44136D01*
X26936Y-11222D02*
X44036D01*
X26936Y-11322D02*
X43936D01*
X26936Y-11422D02*
X43836D01*
X26936Y-11522D02*
X43736D01*
X26936Y-11622D02*
X43636D01*
X26936Y-11722D02*
X43436D01*
X-4864D02*
X1136D01*
X26936Y-11822D02*
X43336D01*
X-4764D02*
X1136D01*
X-4764Y-11922D02*
X1236D01*
X-4764Y-12022D02*
X1336D01*
X-4664Y-12122D02*
X1336D01*
X-4664Y-12222D02*
X1436D01*
X-4564Y-12322D02*
X1536D01*
X-4564Y-12422D02*
X1536D01*
X-4464Y-12522D02*
X1636D01*
X26936Y-7622D02*
X33136D01*
X26936Y-7722D02*
X33236D01*
X26936Y-7822D02*
X33336D01*
X26936Y-7922D02*
X33436D01*
X26936Y-8022D02*
X33636D01*
X26936Y-8122D02*
X33736D01*
X26936Y-8222D02*
X33936D01*
X26936Y-8322D02*
X34136D01*
X26936Y-8422D02*
X34336D01*
X26936Y-8522D02*
X34536D01*
X26936Y-8622D02*
X34736D01*
X26936Y-8722D02*
X35036D01*
X26936Y-8822D02*
X35436D01*
X26936Y-8922D02*
X35936D01*
X26936Y-9122D02*
X45736D01*
X26936Y-9222D02*
X45636D01*
X26936Y-9322D02*
X45636D01*
X26936Y-9422D02*
X45536D01*
X26936Y-9522D02*
X45536D01*
X26936Y-9622D02*
X45436D01*
X26936Y-9722D02*
X45336D01*
X26936Y-9022D02*
X45836D01*
X-4464Y-12622D02*
X1736D01*
X-4464Y-12722D02*
X1836D01*
X-4364Y-12822D02*
X1836D01*
X-4364Y-12922D02*
X1936D01*
X-3464Y-14422D02*
X3636D01*
X-3464Y-14522D02*
X3736D01*
X-3364Y-14622D02*
X3836D01*
X-3264Y-14722D02*
X4036D01*
X-3264Y-14822D02*
X4236D01*
X-3164Y-14922D02*
X4336D01*
X-3064Y-15022D02*
X4536D01*
X-3064Y-15122D02*
X4736D01*
X-2964Y-15222D02*
X4936D01*
X-2864Y-15322D02*
X5136D01*
X-4164Y-13322D02*
X2336D01*
X-4064Y-13422D02*
X2436D01*
X-4064Y-13522D02*
X2536D01*
X-3964Y-13622D02*
X2636D01*
X-3964Y-13722D02*
X2736D01*
X-3864Y-13822D02*
X2836D01*
X-3764Y-13922D02*
X2936D01*
X-3764Y-14022D02*
X3036D01*
X-3664Y-14122D02*
X3236D01*
X-3664Y-14222D02*
X3336D01*
X-3564Y-14322D02*
X3436D01*
X-4264Y-13122D02*
X2136D01*
X-4164Y-13222D02*
X2236D01*
X-35764Y-21022D02*
X-30364D01*
X-39464Y-13022D02*
X-34064D01*
X-4264D02*
X2036D01*
X26936Y2978D02*
X44936D01*
M02*
