%FSLAX25Y25*%
%MOIN*%
G70*
G01*
G75*
G04 Layer_Color=16711935*
%ADD10R,0.05118X0.07874*%
%ADD11R,0.07874X0.07874*%
%ADD12R,0.07874X0.05118*%
%ADD13R,0.07874X0.07874*%
%ADD14R,0.02756X0.03543*%
%ADD15R,0.03583X0.04803*%
%ADD16R,0.03150X0.03543*%
%ADD17R,0.03543X0.02756*%
%ADD18O,0.05118X0.01772*%
%ADD19O,0.01772X0.05118*%
%ADD20R,0.05709X0.08071*%
%ADD21R,0.08071X0.05709*%
%ADD22R,0.03347X0.02756*%
%ADD23R,0.02756X0.05118*%
%ADD24R,0.03543X0.03150*%
%ADD25R,0.04331X0.10236*%
%ADD26R,0.10630X0.03937*%
%ADD27R,0.10630X0.12992*%
%ADD28C,0.01600*%
%ADD29C,0.01000*%
%ADD30R,0.05906X0.05906*%
%ADD31C,0.05906*%
%ADD32C,0.02500*%
%ADD33C,0.10236*%
%ADD34C,0.00984*%
%ADD35C,0.01575*%
%ADD36C,0.00787*%
%ADD37C,0.00800*%
%ADD38C,0.00606*%
%ADD39R,0.05918X0.08674*%
%ADD40R,0.08674X0.08674*%
%ADD41R,0.08674X0.05918*%
%ADD42R,0.08674X0.08674*%
%ADD43R,0.03556X0.04343*%
%ADD44R,0.04383X0.05603*%
%ADD45R,0.03950X0.04343*%
%ADD46R,0.04343X0.03556*%
%ADD47O,0.05918X0.02572*%
%ADD48O,0.02572X0.05918*%
%ADD49R,0.06509X0.08871*%
%ADD50R,0.08871X0.06509*%
%ADD51R,0.04147X0.03556*%
%ADD52R,0.03556X0.05918*%
%ADD53R,0.04343X0.03950*%
%ADD54R,0.05131X0.11036*%
%ADD55R,0.11430X0.04737*%
%ADD56R,0.11430X0.13792*%
%ADD57R,0.06706X0.06706*%
%ADD58C,0.06706*%
%ADD59C,0.03300*%
%ADD60C,0.11036*%
D57*
X-45276Y-38386D02*
D03*
X45276Y31496D02*
D03*
D58*
X-45276Y-28386D02*
D03*
Y-18386D02*
D03*
Y-8386D02*
D03*
X45276Y41496D02*
D03*
D59*
X9252Y20669D02*
D03*
X31496Y35433D02*
D03*
X-43307Y-52165D02*
D03*
Y-48228D02*
D03*
X13780Y-29528D02*
D03*
X-27559Y-12795D02*
D03*
X-197Y-19685D02*
D03*
X-16732Y-28543D02*
D03*
X-16732Y-64961D02*
D03*
X1969Y-40354D02*
D03*
X-17717Y-35433D02*
D03*
X-16732Y7874D02*
D03*
X22638Y19685D02*
D03*
X21654Y37402D02*
D03*
X-7874Y8858D02*
D03*
X0Y4921D02*
D03*
X15748D02*
D03*
X7874Y-23622D02*
D03*
D60*
X30315Y51181D02*
D03*
X29528Y-51143D02*
D03*
X-59055Y0D02*
D03*
M02*
