%FSLAX44Y44*%
%MOMM*%
G71*
G01*
G75*
G04 Layer_Color=65535*
%ADD10C,0.7620*%
G04:AMPARAMS|DCode=11|XSize=2mm|YSize=1.75mm|CornerRadius=0mm|HoleSize=0mm|Usage=FLASHONLY|Rotation=279.640|XOffset=0mm|YOffset=0mm|HoleType=Round|Shape=Rectangle|*
%AMROTATEDRECTD11*
4,1,4,-1.0301,0.8394,0.6952,1.1324,1.0301,-0.8394,-0.6952,-1.1324,-1.0301,0.8394,0.0*
%
%ADD11ROTATEDRECTD11*%

%ADD12R,2.3000X2.3000*%
%ADD13R,0.8000X0.9000*%
%ADD14O,1.7500X0.3000*%
%ADD15R,0.7000X0.9000*%
%ADD16R,0.9000X0.7000*%
%ADD17R,0.9000X0.8000*%
%ADD18R,0.4900X0.3000*%
%ADD19R,0.5200X0.3000*%
%ADD20R,1.7000X1.1000*%
%ADD21C,0.4000*%
%ADD22R,1.0000X1.0000*%
%ADD23R,0.7000X1.4000*%
%ADD24R,0.5500X0.9500*%
%ADD25O,0.2800X0.8500*%
%ADD26R,2.4000X1.6500*%
%ADD27R,0.7000X0.3000*%
%ADD28R,1.0000X1.6000*%
%ADD29R,0.4500X0.8500*%
%ADD30R,2.4000X1.5000*%
%ADD31R,0.8500X0.7000*%
%ADD32O,0.7000X2.0000*%
%ADD33O,1.3500X0.4500*%
%ADD34R,2.0000X0.4000*%
G04:AMPARAMS|DCode=35|XSize=1.524mm|YSize=2.8448mm|CornerRadius=0mm|HoleSize=0mm|Usage=FLASHONLY|Rotation=82.000|XOffset=0mm|YOffset=0mm|HoleType=Round|Shape=Rectangle|*
%AMROTATEDRECTD35*
4,1,4,1.3025,-0.9525,-1.5146,-0.5566,-1.3025,0.9525,1.5146,0.5566,1.3025,-0.9525,0.0*
%
%ADD35ROTATEDRECTD35*%

G04:AMPARAMS|DCode=36|XSize=1.524mm|YSize=2.8448mm|CornerRadius=0mm|HoleSize=0mm|Usage=FLASHONLY|Rotation=352.000|XOffset=0mm|YOffset=0mm|HoleType=Round|Shape=Rectangle|*
%AMROTATEDRECTD36*
4,1,4,-0.9525,-1.3025,-0.5566,1.5146,0.9525,1.3025,0.5566,-1.5146,-0.9525,-1.3025,0.0*
%
%ADD36ROTATEDRECTD36*%

%ADD37O,0.3000X1.7500*%
%ADD38R,0.2500X0.7000*%
%ADD39R,2.3800X1.6500*%
%ADD40R,0.3000X0.4900*%
%ADD41R,0.3000X0.5200*%
%ADD42C,0.1905*%
%ADD43C,0.4064*%
%ADD44C,0.5080*%
%ADD45C,0.2540*%
%ADD46C,0.3048*%
%ADD47C,0.2032*%
%ADD48C,0.6096*%
%ADD49C,1.0160*%
%ADD50C,0.3556*%
%ADD51C,1.2700*%
%ADD52R,0.7000X0.2800*%
%ADD53R,1.5000X1.5000*%
%ADD54C,1.5000*%
%ADD55C,1.8500*%
%ADD56R,1.8500X1.8500*%
%ADD57R,1.5000X1.5000*%
%ADD58C,1.2700*%
%ADD59R,1.2700X1.2700*%
%ADD60C,1.5240*%
%ADD61C,2.9000*%
%ADD62C,0.6350*%
%ADD63C,0.9000*%
%ADD64C,0.7000*%
%ADD65C,0.5000*%
%ADD66C,0.6350*%
G04:AMPARAMS|DCode=67|XSize=0.65mm|YSize=1.35mm|CornerRadius=0mm|HoleSize=0mm|Usage=FLASHONLY|Rotation=13.600|XOffset=0mm|YOffset=0mm|HoleType=Round|Shape=Rectangle|*
%AMROTATEDRECTD67*
4,1,4,-0.1572,-0.7325,-0.4746,0.5797,0.1572,0.7325,0.4746,-0.5797,-0.1572,-0.7325,0.0*
%
%ADD67ROTATEDRECTD67*%

G04:AMPARAMS|DCode=68|XSize=0.4mm|YSize=1.35mm|CornerRadius=0mm|HoleSize=0mm|Usage=FLASHONLY|Rotation=13.600|XOffset=0mm|YOffset=0mm|HoleType=Round|Shape=Rectangle|*
%AMROTATEDRECTD68*
4,1,4,-0.0357,-0.7031,-0.3531,0.6090,0.0357,0.7031,0.3531,-0.6090,-0.0357,-0.7031,0.0*
%
%ADD68ROTATEDRECTD68*%

G04:AMPARAMS|DCode=69|XSize=0.825mm|YSize=1.15mm|CornerRadius=0mm|HoleSize=0mm|Usage=FLASHONLY|Rotation=13.600|XOffset=0mm|YOffset=0mm|HoleType=Round|Shape=Rectangle|*
%AMROTATEDRECTD69*
4,1,4,-0.2657,-0.6559,-0.5361,0.4619,0.2657,0.6559,0.5361,-0.4619,-0.2657,-0.6559,0.0*
%
%ADD69ROTATEDRECTD69*%

G04:AMPARAMS|DCode=70|XSize=0.775mm|YSize=1.15mm|CornerRadius=0mm|HoleSize=0mm|Usage=FLASHONLY|Rotation=13.600|XOffset=0mm|YOffset=0mm|HoleType=Round|Shape=Rectangle|*
%AMROTATEDRECTD70*
4,1,4,-0.2414,-0.6500,-0.5118,0.4678,0.2414,0.6500,0.5118,-0.4678,-0.2414,-0.6500,0.0*
%
%ADD70ROTATEDRECTD70*%

G04:AMPARAMS|DCode=71|XSize=1.2mm|YSize=1.55mm|CornerRadius=0mm|HoleSize=0mm|Usage=FLASHONLY|Rotation=13.600|XOffset=0mm|YOffset=0mm|HoleType=Round|Shape=Rectangle|*
%AMROTATEDRECTD71*
4,1,4,-0.4009,-0.8943,-0.7654,0.6122,0.4009,0.8943,0.7654,-0.6122,-0.4009,-0.8943,0.0*
%
%ADD71ROTATEDRECTD71*%

G04:AMPARAMS|DCode=72|XSize=2.51mm|YSize=1mm|CornerRadius=0mm|HoleSize=0mm|Usage=FLASHONLY|Rotation=13.600|XOffset=0mm|YOffset=0mm|HoleType=Round|Shape=Rectangle|*
%AMROTATEDRECTD72*
4,1,4,-1.1022,-0.7811,-1.3374,0.1909,1.1022,0.7811,1.3374,-0.1909,-1.1022,-0.7811,0.0*
%
%ADD72ROTATEDRECTD72*%

G04:AMPARAMS|DCode=73|XSize=1.2mm|YSize=2.1mm|CornerRadius=0mm|HoleSize=0mm|Usage=FLASHONLY|Rotation=13.600|XOffset=0mm|YOffset=0mm|HoleType=Round|Shape=Rectangle|*
%AMROTATEDRECTD73*
4,1,4,-0.3363,-1.1617,-0.8301,0.8795,0.3363,1.1617,0.8301,-0.8795,-0.3363,-1.1617,0.0*
%
%ADD73ROTATEDRECTD73*%

%ADD74C,0.0000*%
%ADD75C,0.1000*%
%ADD76C,0.2500*%
%ADD77C,0.6000*%
%ADD78C,0.0127*%
%ADD79C,0.2000*%
%ADD80C,0.1500*%
%ADD81R,0.4572X1.7018*%
%ADD82R,0.5842X0.1651*%
%ADD83R,0.6502X0.1854*%
D45*
X-615238Y182995D02*
X-477162Y241605D01*
X-640245Y241908D02*
X-615238Y182995D01*
X-502169Y300517D02*
X-477162Y241605D01*
X-640245Y241908D02*
X-502169Y300517D01*
X-587060Y167797D02*
X-504214Y202963D01*
X-596828Y190810D02*
X-587060Y167797D01*
X-513592Y225055D02*
X-504214Y202963D01*
X-352425Y-227330D02*
X352425D01*
X-352425D02*
Y227330D01*
X352425D01*
Y-227330D02*
Y227330D01*
X201573Y-14429D02*
X237793Y-19519D01*
X201573Y-14429D02*
X203411Y-1350D01*
X249543Y326894D02*
X249578Y327146D01*
X264209Y338171D01*
X287601Y334884D01*
X443292Y-48400D02*
X445130Y-35321D01*
X407072Y-43310D02*
X443292Y-48400D01*
X456880Y311093D02*
X493100Y306003D01*
X491261Y292923D02*
X493100Y306003D01*
X-387500Y217735D02*
Y202500D01*
X-379883D01*
X-377343Y205039D01*
Y215196D01*
X-379883Y217735D01*
X-387500D01*
X-372265Y202500D02*
X-367187D01*
X-369726D01*
Y217735D01*
X-372265Y215196D01*
X-615445Y237222D02*
X-618067Y238281D01*
X-621747Y236719D01*
X-622807Y234097D01*
X-619682Y226735D01*
X-617060Y225676D01*
X-613379Y227239D01*
X-612320Y229860D01*
X-613882Y233541D01*
X-617563Y231978D01*
X-607858Y229582D02*
X-612545Y240625D01*
X-607024Y242968D01*
X-604402Y241909D01*
X-602840Y238228D01*
X-603899Y235607D01*
X-609421Y233263D01*
X-593360Y246596D02*
X-595982Y247656D01*
X-599662Y246093D01*
X-600722Y243472D01*
X-599940Y241631D01*
X-597319Y240572D01*
X-593638Y242134D01*
X-591016Y241075D01*
X-590235Y239235D01*
X-591294Y236613D01*
X-594975Y235051D01*
X-597597Y236110D01*
X-574731Y243644D02*
X-577855Y251006D01*
X-575737Y256249D01*
X-570494Y254130D01*
X-567369Y246769D01*
X-569713Y252290D01*
X-577074Y249165D01*
X-563688Y248331D02*
X-566813Y255693D01*
X-561292Y258036D01*
X-558670Y256977D01*
X-556326Y251456D01*
X-554711Y263002D02*
X-553930Y261161D01*
X-555770Y260380D01*
X-552090Y261943D01*
X-553930Y261161D01*
X-551586Y255640D01*
X-548965Y254581D01*
X-537922Y259268D02*
X-541603Y257706D01*
X-544225Y258765D01*
X-545787Y262446D01*
X-544728Y265067D01*
X-541047Y266630D01*
X-538425Y265571D01*
X-537644Y263730D01*
X-545006Y260605D01*
X-532401Y261612D02*
X-535526Y268973D01*
X-530005Y271317D01*
X-527383Y270258D01*
X-525039Y264737D01*
X-521359Y266299D02*
X-524483Y273661D01*
X-518962Y276004D01*
X-516341Y274945D01*
X-513997Y269424D01*
X-511600Y279129D02*
X-507920Y280692D01*
X-505298Y279632D01*
X-502954Y274111D01*
X-508476Y271768D01*
X-511097Y272827D01*
X-510038Y275448D01*
X-504517Y277792D01*
X-606007Y194519D02*
X-610694Y205562D01*
X-605173Y207906D01*
X-602551Y206846D01*
X-600989Y203165D01*
X-602048Y200544D01*
X-607569Y198200D01*
X-596527Y202887D02*
X-592846Y204450D01*
X-594686Y203669D01*
X-599374Y214711D01*
X-601214Y213930D01*
X-588609Y214936D02*
X-584928Y216499D01*
X-582307Y215440D01*
X-579963Y209918D01*
X-585484Y207575D01*
X-588106Y208634D01*
X-587047Y211256D01*
X-581525Y213599D01*
X-572046Y221967D02*
X-577567Y219624D01*
X-578626Y217002D01*
X-577063Y213321D01*
X-574442Y212262D01*
X-568921Y214606D01*
X-559719Y218512D02*
X-563399Y216949D01*
X-566021Y218008D01*
X-567583Y221689D01*
X-566524Y224311D01*
X-562843Y225873D01*
X-560222Y224814D01*
X-559441Y222974D01*
X-566802Y219849D01*
X-558885Y231898D02*
X-554197Y220855D01*
X-556541Y226377D01*
X-555482Y228998D01*
X-551801Y230561D01*
X-549179Y229501D01*
X-546836Y223980D01*
X-541314Y226324D02*
X-537634Y227886D01*
X-536574Y230508D01*
X-538137Y234189D01*
X-540759Y235248D01*
X-544439Y233685D01*
X-545499Y231064D01*
X-543936Y227383D01*
X-541314Y226324D01*
X-532112Y230230D02*
X-528432Y231792D01*
X-530272Y231011D01*
X-534959Y242054D01*
X-536800Y241272D01*
X-520236Y248303D02*
X-515549Y237261D01*
X-521070Y234917D01*
X-523691Y235976D01*
X-525254Y239657D01*
X-524195Y242279D01*
X-518674Y244622D01*
X-506347Y241167D02*
X-510027Y239604D01*
X-512649Y240664D01*
X-514211Y244344D01*
X-513152Y246966D01*
X-509471Y248528D01*
X-506850Y247469D01*
X-506069Y245629D01*
X-513430Y242504D01*
X-503950Y250872D02*
X-500825Y243510D01*
X-502388Y247191D01*
X-501329Y249813D01*
X-500269Y252435D01*
X-498429Y253216D01*
X-497840Y-132588D02*
Y-122431D01*
X-492762D01*
X-491069Y-124124D01*
Y-127510D01*
X-492762Y-129202D01*
X-497840D01*
X-494454D02*
X-491069Y-132588D01*
X-480912D02*
X-487683D01*
X-480912Y-125817D01*
Y-124124D01*
X-482605Y-122431D01*
X-485990D01*
X-487683Y-124124D01*
X-477527Y-130895D02*
X-475834Y-132588D01*
X-472448D01*
X-470756Y-130895D01*
Y-124124D01*
X-472448Y-122431D01*
X-475834D01*
X-477527Y-124124D01*
Y-125817D01*
X-475834Y-127510D01*
X-470756D01*
X-416560Y-132588D02*
Y-122431D01*
X-411482D01*
X-409789Y-124124D01*
Y-127510D01*
X-411482Y-129202D01*
X-416560D01*
X-413175D02*
X-409789Y-132588D01*
X-399632D02*
X-406403D01*
X-399632Y-125817D01*
Y-124124D01*
X-401325Y-122431D01*
X-404711D01*
X-406403Y-124124D01*
X-396247D02*
X-394554Y-122431D01*
X-391168D01*
X-389476Y-124124D01*
Y-125817D01*
X-391168Y-127510D01*
X-389476Y-129202D01*
Y-130895D01*
X-391168Y-132588D01*
X-394554D01*
X-396247Y-130895D01*
Y-129202D01*
X-394554Y-127510D01*
X-396247Y-125817D01*
Y-124124D01*
X-394554Y-127510D02*
X-391168D01*
X-457200Y-132588D02*
Y-122431D01*
X-452122D01*
X-450429Y-124124D01*
Y-127510D01*
X-452122Y-129202D01*
X-457200D01*
X-453815D02*
X-450429Y-132588D01*
X-447043D02*
X-443658D01*
X-445350D01*
Y-122431D01*
X-447043Y-124124D01*
X-438579Y-130895D02*
X-436887Y-132588D01*
X-433501D01*
X-431808Y-130895D01*
Y-124124D01*
X-433501Y-122431D01*
X-436887D01*
X-438579Y-124124D01*
Y-125817D01*
X-436887Y-127510D01*
X-431808D01*
X-441960Y4572D02*
Y14729D01*
X-436882D01*
X-435189Y13036D01*
Y9650D01*
X-436882Y7958D01*
X-441960D01*
X-438574D02*
X-435189Y4572D01*
X-431803D02*
X-428418D01*
X-430111D01*
Y14729D01*
X-431803Y13036D01*
X-416568Y14729D02*
X-423339D01*
Y9650D01*
X-419954Y11343D01*
X-418261D01*
X-416568Y9650D01*
Y6265D01*
X-418261Y4572D01*
X-421647D01*
X-423339Y6265D01*
X-404709Y7956D02*
X-406402Y9649D01*
X-409787D01*
X-411480Y7956D01*
Y1185D01*
X-409787Y-508D01*
X-406402D01*
X-404709Y1185D01*
X-394552Y-508D02*
X-401323D01*
X-394552Y6263D01*
Y7956D01*
X-396245Y9649D01*
X-399631D01*
X-401323Y7956D01*
X-386088Y-508D02*
Y9649D01*
X-391167Y4570D01*
X-384395D01*
X-338669Y2876D02*
X-340362Y4569D01*
X-343747D01*
X-345440Y2876D01*
Y-3895D01*
X-343747Y-5588D01*
X-340362D01*
X-338669Y-3895D01*
X-328512Y-5588D02*
X-335283D01*
X-328512Y1183D01*
Y2876D01*
X-330205Y4569D01*
X-333591D01*
X-335283Y2876D01*
X-325127D02*
X-323434Y4569D01*
X-320048D01*
X-318356Y2876D01*
Y1183D01*
X-320048Y-510D01*
X-321741D01*
X-320048D01*
X-318356Y-2202D01*
Y-3895D01*
X-320048Y-5588D01*
X-323434D01*
X-325127Y-3895D01*
X-238760Y192529D02*
Y184065D01*
X-237067Y182372D01*
X-233682D01*
X-231989Y184065D01*
Y192529D01*
X-221832D02*
X-228603D01*
Y187450D01*
X-225218Y189143D01*
X-223525D01*
X-221832Y187450D01*
Y184065D01*
X-223525Y182372D01*
X-226910D01*
X-228603Y184065D01*
X-456156Y264185D02*
Y255721D01*
X-454463Y254028D01*
X-451078D01*
X-449385Y255721D01*
Y264185D01*
X-439228D02*
X-442614Y262492D01*
X-445999Y259106D01*
Y255721D01*
X-444306Y254028D01*
X-440921D01*
X-439228Y255721D01*
Y257414D01*
X-440921Y259106D01*
X-445999D01*
X162560Y-46228D02*
Y-36071D01*
X167638D01*
X169331Y-37764D01*
Y-41150D01*
X167638Y-42842D01*
X162560D01*
X165945D02*
X169331Y-46228D01*
X172717D02*
X176102D01*
X174410D01*
Y-36071D01*
X172717Y-37764D01*
X186259Y-46228D02*
Y-36071D01*
X181181Y-41150D01*
X187952D01*
X157480Y-117348D02*
Y-107191D01*
X162558D01*
X164251Y-108884D01*
Y-112270D01*
X162558Y-113962D01*
X157480D01*
X160865D02*
X164251Y-117348D01*
X167637D02*
X171022D01*
X169329D01*
Y-107191D01*
X167637Y-108884D01*
X176101D02*
X177793Y-107191D01*
X181179D01*
X182872Y-108884D01*
Y-110577D01*
X181179Y-112270D01*
X179486D01*
X181179D01*
X182872Y-113962D01*
Y-115655D01*
X181179Y-117348D01*
X177793D01*
X176101Y-115655D01*
X162560Y-132588D02*
Y-122431D01*
X167638D01*
X169331Y-124124D01*
Y-127510D01*
X167638Y-129202D01*
X162560D01*
X165945D02*
X169331Y-132588D01*
X172717D02*
X176102D01*
X174410D01*
Y-122431D01*
X172717Y-124124D01*
X187952Y-132588D02*
X181181D01*
X187952Y-125817D01*
Y-124124D01*
X186259Y-122431D01*
X182873D01*
X181181Y-124124D01*
X162560Y-61468D02*
Y-51311D01*
X167638D01*
X169331Y-53004D01*
Y-56390D01*
X167638Y-58082D01*
X162560D01*
X165945D02*
X169331Y-61468D01*
X172717D02*
X176102D01*
X174410D01*
Y-51311D01*
X172717Y-53004D01*
X181181Y-61468D02*
X184566D01*
X182873D01*
Y-51311D01*
X181181Y-53004D01*
X-617074Y175437D02*
X-619294Y176334D01*
X-622410Y175011D01*
X-623307Y172791D01*
X-620661Y166558D01*
X-618442Y165661D01*
X-615325Y166984D01*
X-614429Y169204D01*
X-615751Y172320D01*
X-618868Y170998D01*
X-610651Y168969D02*
X-614619Y178318D01*
X-609945Y180302D01*
X-607725Y179405D01*
X-606402Y176289D01*
X-607299Y174069D01*
X-611973Y172085D01*
X-598376Y183374D02*
X-600595Y184271D01*
X-603712Y182948D01*
X-604608Y180728D01*
X-603947Y179170D01*
X-601727Y178273D01*
X-598611Y179596D01*
X-596391Y178699D01*
X-595730Y177141D01*
X-596627Y174921D01*
X-599743Y173598D01*
X-601963Y174495D01*
X-591291Y175347D02*
X-585058Y177993D01*
X-583690Y187768D02*
X-580574Y189091D01*
X-578354Y188195D01*
X-576370Y183520D01*
X-581045Y181536D01*
X-583264Y182432D01*
X-582367Y184652D01*
X-577693Y186636D01*
X-573253Y184843D02*
X-575899Y191076D01*
X-571225Y193060D01*
X-569005Y192163D01*
X-567021Y187488D01*
X-565653Y197264D02*
X-564992Y195706D01*
X-566550Y195044D01*
X-563433Y196367D01*
X-564992Y195706D01*
X-563007Y191031D01*
X-560788Y190134D01*
X-551438Y194103D02*
X-554555Y192780D01*
X-556774Y193677D01*
X-558097Y196793D01*
X-557201Y199013D01*
X-554084Y200336D01*
X-551864Y199439D01*
X-551203Y197880D01*
X-557436Y195235D01*
X-546764Y196087D02*
X-549409Y202320D01*
X-544735Y204304D01*
X-542515Y203407D01*
X-540531Y198733D01*
X-537414Y200056D02*
X-540060Y206288D01*
X-535385Y208273D01*
X-533166Y207376D01*
X-531181Y202701D01*
X-529153Y210918D02*
X-526036Y212241D01*
X-523816Y211344D01*
X-521832Y206670D01*
X-526507Y204685D01*
X-528727Y205582D01*
X-527830Y207802D01*
X-523155Y209786D01*
X-487677Y-41148D02*
X-479213D01*
X-477520Y-39455D01*
Y-36070D01*
X-479213Y-34377D01*
X-487677D01*
X-485984Y-30991D02*
X-487677Y-29299D01*
Y-25913D01*
X-485984Y-24220D01*
X-484291D01*
X-482598Y-25913D01*
Y-27606D01*
Y-25913D01*
X-480906Y-24220D01*
X-479213D01*
X-477520Y-25913D01*
Y-29299D01*
X-479213Y-30991D01*
X-452442Y-51722D02*
Y-41565D01*
X-447364D01*
X-445671Y-43258D01*
Y-46643D01*
X-447364Y-48336D01*
X-452442D01*
X-449057D02*
X-445671Y-51722D01*
X-435514Y-41565D02*
X-438900Y-43258D01*
X-442285Y-46643D01*
Y-50029D01*
X-440593Y-51722D01*
X-437207D01*
X-435514Y-50029D01*
Y-48336D01*
X-437207Y-46643D01*
X-442285D01*
X-480568Y-82804D02*
Y-72647D01*
X-475490D01*
X-473797Y-74340D01*
Y-77726D01*
X-475490Y-79419D01*
X-480568D01*
X-477183D02*
X-473797Y-82804D01*
X-463640Y-72647D02*
X-470411D01*
Y-77726D01*
X-467026Y-76033D01*
X-465333D01*
X-463640Y-77726D01*
Y-81111D01*
X-465333Y-82804D01*
X-468718D01*
X-470411Y-81111D01*
X-501904Y-69596D02*
X-512061D01*
Y-64518D01*
X-510368Y-62825D01*
X-506982D01*
X-505290Y-64518D01*
Y-69596D01*
Y-66210D02*
X-501904Y-62825D01*
Y-54361D02*
X-512061D01*
X-506982Y-59439D01*
Y-52668D01*
X-497840Y-15748D02*
Y-5591D01*
X-492762D01*
X-491069Y-7284D01*
Y-10670D01*
X-492762Y-12363D01*
X-497840D01*
X-494454D02*
X-491069Y-15748D01*
X-480912D02*
X-487683D01*
X-480912Y-8977D01*
Y-7284D01*
X-482605Y-5591D01*
X-485990D01*
X-487683Y-7284D01*
X-465669Y33356D02*
X-467362Y35049D01*
X-470747D01*
X-472440Y33356D01*
Y26585D01*
X-470747Y24892D01*
X-467362D01*
X-465669Y26585D01*
X-455512Y35049D02*
X-462283D01*
Y29970D01*
X-458898Y31663D01*
X-457205D01*
X-455512Y29970D01*
Y26585D01*
X-457205Y24892D01*
X-460591D01*
X-462283Y26585D01*
X-30480Y45209D02*
Y36745D01*
X-28787Y35052D01*
X-25402D01*
X-23709Y36745D01*
Y45209D01*
X-20323Y35052D02*
X-16938D01*
X-18630D01*
Y45209D01*
X-20323Y43516D01*
X571460Y78780D02*
X561303D01*
Y83858D01*
X562996Y85551D01*
X566382D01*
X568074Y83858D01*
Y78780D01*
Y82166D02*
X571460Y85551D01*
X561303Y88937D02*
X571460Y95708D01*
X561303D02*
X571460Y88937D01*
Y99094D02*
X564689Y105865D01*
X561303Y109250D02*
Y116021D01*
Y112636D01*
X571460D01*
X561303Y119407D02*
X571460Y126178D01*
X561303D02*
X571460Y119407D01*
X340360Y127101D02*
Y120330D01*
Y123716D01*
X342053Y125408D01*
X343745Y127101D01*
X345438D01*
X352210Y120330D02*
Y128794D01*
Y125408D01*
X350517D01*
X353902D01*
X352210D01*
Y128794D01*
X353902Y130487D01*
X487680Y146812D02*
Y156969D01*
X492758D01*
X494451Y155276D01*
Y151890D01*
X492758Y150197D01*
X487680D01*
X491065D02*
X494451Y146812D01*
X504608D02*
X497837D01*
X504608Y153583D01*
Y155276D01*
X502915Y156969D01*
X499529D01*
X497837Y155276D01*
X507993Y156969D02*
X514765D01*
Y155276D01*
X507993Y148505D01*
Y146812D01*
X172720Y111252D02*
Y121409D01*
X177798D01*
X179491Y119716D01*
Y116330D01*
X177798Y114637D01*
X172720D01*
X176105D02*
X179491Y111252D01*
X189648D02*
X182877D01*
X189648Y118023D01*
Y119716D01*
X187955Y121409D01*
X184569D01*
X182877Y119716D01*
X199804Y121409D02*
X196419Y119716D01*
X193033Y116330D01*
Y112945D01*
X194726Y111252D01*
X198112D01*
X199804Y112945D01*
Y114637D01*
X198112Y116330D01*
X193033D01*
X447920Y-224028D02*
Y-213871D01*
X452998D01*
X454691Y-215564D01*
Y-218950D01*
X452998Y-220643D01*
X447920D01*
X451306D02*
X454691Y-224028D01*
X464848D02*
X458077D01*
X464848Y-217257D01*
Y-215564D01*
X463155Y-213871D01*
X459770D01*
X458077Y-215564D01*
X475005Y-213871D02*
X468233D01*
Y-218950D01*
X471619Y-217257D01*
X473312D01*
X475005Y-218950D01*
Y-222335D01*
X473312Y-224028D01*
X469926D01*
X468233Y-222335D01*
X180300Y162800D02*
Y172957D01*
X185378D01*
X187071Y171264D01*
Y167878D01*
X185378Y166186D01*
X180300D01*
X183686D02*
X187071Y162800D01*
X190457D02*
X193842D01*
X192150D01*
Y172957D01*
X190457Y171264D01*
X198921D02*
X200613Y172957D01*
X203999D01*
X205692Y171264D01*
Y169571D01*
X203999Y167878D01*
X205692Y166186D01*
Y164493D01*
X203999Y162800D01*
X200613D01*
X198921Y164493D01*
Y166186D01*
X200613Y167878D01*
X198921Y169571D01*
Y171264D01*
X200613Y167878D02*
X203999D01*
X-467500Y225412D02*
Y235569D01*
X-462422D01*
X-460729Y233876D01*
Y230490D01*
X-462422Y228797D01*
X-467500D01*
X-464114D02*
X-460729Y225412D01*
X-457343D02*
X-453958D01*
X-455650D01*
Y235569D01*
X-457343Y233876D01*
X-448879Y235569D02*
X-442108D01*
Y233876D01*
X-448879Y227105D01*
Y225412D01*
X-397500Y222500D02*
X-407657D01*
Y227578D01*
X-405964Y229271D01*
X-402578D01*
X-400886Y227578D01*
Y222500D01*
Y225886D02*
X-397500Y229271D01*
Y232657D02*
Y236042D01*
Y234349D01*
X-407657D01*
X-405964Y232657D01*
X-407657Y247892D02*
X-405964Y244506D01*
X-402578Y241121D01*
X-399193D01*
X-397500Y242813D01*
Y246199D01*
X-399193Y247892D01*
X-400886D01*
X-402578Y246199D01*
Y241121D01*
X-203200Y172212D02*
X-213357D01*
Y177290D01*
X-211664Y178983D01*
X-208278D01*
X-206586Y177290D01*
Y172212D01*
Y175597D02*
X-203200Y178983D01*
Y182369D02*
Y185754D01*
Y184062D01*
X-213357D01*
X-211664Y182369D01*
Y190833D02*
X-213357Y192525D01*
Y195911D01*
X-211664Y197604D01*
X-204893D01*
X-203200Y195911D01*
Y192525D01*
X-204893Y190833D01*
X-211664D01*
X-91440Y197612D02*
Y207769D01*
X-86362D01*
X-84669Y206076D01*
Y202690D01*
X-86362Y200998D01*
X-91440D01*
X-88055D02*
X-84669Y197612D01*
X-81283Y199305D02*
X-79591Y197612D01*
X-76205D01*
X-74512Y199305D01*
Y206076D01*
X-76205Y207769D01*
X-79591D01*
X-81283Y206076D01*
Y204383D01*
X-79591Y202690D01*
X-74512D01*
X-203200Y141732D02*
X-213357D01*
Y146810D01*
X-211664Y148503D01*
X-208278D01*
X-206586Y146810D01*
Y141732D01*
Y145118D02*
X-203200Y148503D01*
X-211664Y151889D02*
X-213357Y153581D01*
Y156967D01*
X-211664Y158660D01*
X-209971D01*
X-208278Y156967D01*
X-206586Y158660D01*
X-204893D01*
X-203200Y156967D01*
Y153581D01*
X-204893Y151889D01*
X-206586D01*
X-208278Y153581D01*
X-209971Y151889D01*
X-211664D01*
X-208278Y153581D02*
Y156967D01*
X-91440Y131572D02*
Y141729D01*
X-86362D01*
X-84669Y140036D01*
Y136650D01*
X-86362Y134958D01*
X-91440D01*
X-88055D02*
X-84669Y131572D01*
X-81283Y141729D02*
X-74512D01*
Y140036D01*
X-81283Y133265D01*
Y131572D01*
X-528320Y-132588D02*
Y-122431D01*
X-523242D01*
X-521549Y-124124D01*
Y-127510D01*
X-523242Y-129202D01*
X-528320D01*
X-524935D02*
X-521549Y-132588D01*
X-518163Y-124124D02*
X-516470Y-122431D01*
X-513085D01*
X-511392Y-124124D01*
Y-125817D01*
X-513085Y-127510D01*
X-514778D01*
X-513085D01*
X-511392Y-129202D01*
Y-130895D01*
X-513085Y-132588D01*
X-516470D01*
X-518163Y-130895D01*
X-264160Y106172D02*
Y116329D01*
X-259082D01*
X-257389Y114636D01*
Y111250D01*
X-259082Y109558D01*
X-264160D01*
X-260774D02*
X-257389Y106172D01*
X-254003D02*
X-250618D01*
X-252311D01*
Y116329D01*
X-254003Y114636D01*
X-223520Y-15751D02*
X-216749Y-25908D01*
Y-15751D02*
X-223520Y-25908D01*
X-206592D02*
X-213363D01*
X-206592Y-19137D01*
Y-17444D01*
X-208285Y-15751D01*
X-211670D01*
X-213363Y-17444D01*
X-342460Y-228638D02*
Y-218481D01*
X-337382D01*
X-335689Y-220174D01*
Y-223559D01*
X-337382Y-225252D01*
X-342460D01*
X-332303Y-228638D02*
Y-218481D01*
X-327225D01*
X-325532Y-220174D01*
Y-223559D01*
X-327225Y-225252D01*
X-332303D01*
X-328918D02*
X-325532Y-228638D01*
X-317068Y-218481D02*
X-320454D01*
X-322147Y-220174D01*
Y-226945D01*
X-320454Y-228638D01*
X-317068D01*
X-315375Y-226945D01*
Y-220174D01*
X-317068Y-218481D01*
X-305219Y-220174D02*
X-306912Y-218481D01*
X-310297D01*
X-311990Y-220174D01*
Y-226945D01*
X-310297Y-228638D01*
X-306912D01*
X-305219Y-226945D01*
Y-223559D01*
X-308604D01*
X-152400Y202689D02*
Y194225D01*
X-150707Y192532D01*
X-147322D01*
X-145629Y194225D01*
Y202689D01*
X-137165Y192532D02*
Y202689D01*
X-142243Y197610D01*
X-135472D01*
X-345440Y24889D02*
Y14732D01*
X-338669D01*
X-335283D02*
X-331898D01*
X-333591D01*
Y24889D01*
X-335283Y23196D01*
X215021Y-34166D02*
X213328Y-32473D01*
X209943D01*
X208250Y-34166D01*
Y-40937D01*
X209943Y-42630D01*
X213328D01*
X215021Y-40937D01*
Y-37552D01*
X211636D01*
X218407Y-42630D02*
Y-32473D01*
X223485D01*
X225178Y-34166D01*
Y-37552D01*
X223485Y-39244D01*
X218407D01*
X235335Y-34166D02*
X233642Y-32473D01*
X230256D01*
X228563Y-34166D01*
Y-35859D01*
X230256Y-37552D01*
X233642D01*
X235335Y-39244D01*
Y-40937D01*
X233642Y-42630D01*
X230256D01*
X228563Y-40937D01*
X417440Y-91951D02*
Y-100415D01*
X419133Y-102108D01*
X422518D01*
X424211Y-100415D01*
Y-91951D01*
X427597D02*
X434368D01*
Y-93644D01*
X427597Y-100415D01*
Y-102108D01*
X189507Y-292460D02*
X179350D01*
Y-299231D01*
X187814Y-302617D02*
X189507Y-304310D01*
Y-307695D01*
X187814Y-309388D01*
X186121D01*
X184428Y-307695D01*
Y-306002D01*
Y-307695D01*
X182736Y-309388D01*
X181043D01*
X179350Y-307695D01*
Y-304310D01*
X181043Y-302617D01*
X-45000Y225157D02*
Y215000D01*
X-39922D01*
X-38229Y216693D01*
Y223464D01*
X-39922Y225157D01*
X-45000D01*
X-34843D02*
X-31458D01*
X-33151D01*
Y215000D01*
X-34843D01*
X-31458D01*
X-19608Y223464D02*
X-21301Y225157D01*
X-24687D01*
X-26379Y223464D01*
Y221771D01*
X-24687Y220078D01*
X-21301D01*
X-19608Y218386D01*
Y216693D01*
X-21301Y215000D01*
X-24687D01*
X-26379Y216693D01*
X-16223Y215000D02*
Y225157D01*
X-11144D01*
X-9452Y223464D01*
Y220078D01*
X-11144Y218386D01*
X-16223D01*
X-6066Y225157D02*
Y215000D01*
X705D01*
X4091D02*
Y221771D01*
X7476Y225157D01*
X10862Y221771D01*
Y215000D01*
Y220078D01*
X4091D01*
X14247Y225157D02*
Y223464D01*
X17633Y220078D01*
X21019Y223464D01*
Y225157D01*
X17633Y220078D02*
Y215000D01*
X-69429Y79076D02*
X-71122Y80769D01*
X-74507D01*
X-76200Y79076D01*
Y72305D01*
X-74507Y70612D01*
X-71122D01*
X-69429Y72305D01*
X-59272Y70612D02*
X-66043D01*
X-59272Y77383D01*
Y79076D01*
X-60965Y80769D01*
X-64351D01*
X-66043Y79076D01*
X-49116Y70612D02*
X-55887D01*
X-49116Y77383D01*
Y79076D01*
X-50808Y80769D01*
X-54194D01*
X-55887Y79076D01*
X-125304Y-130897D02*
X-126997Y-132590D01*
Y-135975D01*
X-125304Y-137668D01*
X-118533D01*
X-116840Y-135975D01*
Y-132590D01*
X-118533Y-130897D01*
X-116840Y-120740D02*
Y-127511D01*
X-123611Y-120740D01*
X-125304D01*
X-126997Y-122433D01*
Y-125819D01*
X-125304Y-127511D01*
X-116840Y-117355D02*
Y-113969D01*
Y-115662D01*
X-126997D01*
X-125304Y-117355D01*
X-44024Y-156297D02*
X-45717Y-157990D01*
Y-161375D01*
X-44024Y-163068D01*
X-37253D01*
X-35560Y-161375D01*
Y-157990D01*
X-37253Y-156297D01*
X-35560Y-146140D02*
Y-152911D01*
X-42331Y-146140D01*
X-44024D01*
X-45717Y-147833D01*
Y-151219D01*
X-44024Y-152911D01*
Y-142755D02*
X-45717Y-141062D01*
Y-137676D01*
X-44024Y-135983D01*
X-37253D01*
X-35560Y-137676D01*
Y-141062D01*
X-37253Y-142755D01*
X-44024D01*
X-155789Y84156D02*
X-157482Y85849D01*
X-160867D01*
X-162560Y84156D01*
Y77385D01*
X-160867Y75692D01*
X-157482D01*
X-155789Y77385D01*
X-152403Y75692D02*
X-149018D01*
X-150710D01*
Y85849D01*
X-152403Y84156D01*
X-143939D02*
X-142247Y85849D01*
X-138861D01*
X-137168Y84156D01*
Y82463D01*
X-138861Y80770D01*
X-137168Y79078D01*
Y77385D01*
X-138861Y75692D01*
X-142247D01*
X-143939Y77385D01*
Y79078D01*
X-142247Y80770D01*
X-143939Y82463D01*
Y84156D01*
X-142247Y80770D02*
X-138861D01*
X173186Y-304539D02*
X171493Y-306232D01*
Y-309617D01*
X173186Y-311310D01*
X179957D01*
X181650Y-309617D01*
Y-306232D01*
X179957Y-304539D01*
X181650Y-301153D02*
Y-297768D01*
Y-299461D01*
X171493D01*
X173186Y-301153D01*
X171493Y-292689D02*
Y-285918D01*
X173186D01*
X179957Y-292689D01*
X181650D01*
X-28784Y-156297D02*
X-30477Y-157990D01*
Y-161375D01*
X-28784Y-163068D01*
X-22013D01*
X-20320Y-161375D01*
Y-157990D01*
X-22013Y-156297D01*
X-20320Y-152911D02*
Y-149526D01*
Y-151219D01*
X-30477D01*
X-28784Y-152911D01*
X-30477Y-137676D02*
X-28784Y-141062D01*
X-25398Y-144447D01*
X-22013D01*
X-20320Y-142755D01*
Y-139369D01*
X-22013Y-137676D01*
X-23706D01*
X-25398Y-139369D01*
Y-144447D01*
X-74504Y-176617D02*
X-76197Y-178310D01*
Y-181695D01*
X-74504Y-183388D01*
X-67733D01*
X-66040Y-181695D01*
Y-178310D01*
X-67733Y-176617D01*
X-66040Y-173231D02*
Y-169846D01*
Y-171539D01*
X-76197D01*
X-74504Y-173231D01*
X-66040Y-159689D02*
X-76197D01*
X-71118Y-164767D01*
Y-157996D01*
X194111Y258236D02*
X192418Y259929D01*
X189033D01*
X187340Y258236D01*
Y251465D01*
X189033Y249772D01*
X192418D01*
X194111Y251465D01*
X197497Y249772D02*
X200882D01*
X199189D01*
Y259929D01*
X197497Y258236D01*
X205961D02*
X207654Y259929D01*
X211039D01*
X212732Y258236D01*
Y256543D01*
X211039Y254850D01*
X209346D01*
X211039D01*
X212732Y253158D01*
Y251465D01*
X211039Y249772D01*
X207654D01*
X205961Y251465D01*
X-94824Y-176617D02*
X-96517Y-178310D01*
Y-181695D01*
X-94824Y-183388D01*
X-88053D01*
X-86360Y-181695D01*
Y-178310D01*
X-88053Y-176617D01*
X-86360Y-173231D02*
Y-169846D01*
Y-171539D01*
X-96517D01*
X-94824Y-173231D01*
X-86360Y-157996D02*
Y-164767D01*
X-93131Y-157996D01*
X-94824D01*
X-96517Y-159689D01*
Y-163075D01*
X-94824Y-164767D01*
X-506304Y-230465D02*
X-507997Y-232158D01*
Y-235543D01*
X-506304Y-237236D01*
X-499533D01*
X-497840Y-235543D01*
Y-232158D01*
X-499533Y-230465D01*
X-497840Y-227079D02*
Y-223694D01*
Y-225387D01*
X-507997D01*
X-506304Y-227079D01*
X-497840Y-218615D02*
Y-215230D01*
Y-216923D01*
X-507997D01*
X-506304Y-218615D01*
X-395729Y283464D02*
X-397422Y285157D01*
X-400807D01*
X-402500Y283464D01*
Y276693D01*
X-400807Y275000D01*
X-397422D01*
X-395729Y276693D01*
X-392343Y275000D02*
X-388958D01*
X-390650D01*
Y285157D01*
X-392343Y283464D01*
X-383879D02*
X-382187Y285157D01*
X-378801D01*
X-377108Y283464D01*
Y276693D01*
X-378801Y275000D01*
X-382187D01*
X-383879Y276693D01*
Y283464D01*
X-413825Y191372D02*
X-415518Y193065D01*
X-418903D01*
X-420596Y191372D01*
Y184601D01*
X-418903Y182908D01*
X-415518D01*
X-413825Y184601D01*
X-410439D02*
X-408746Y182908D01*
X-405361D01*
X-403668Y184601D01*
Y191372D01*
X-405361Y193065D01*
X-408746D01*
X-410439Y191372D01*
Y189679D01*
X-408746Y187986D01*
X-403668D01*
X-444305Y191372D02*
X-445998Y193065D01*
X-449383D01*
X-451076Y191372D01*
Y184601D01*
X-449383Y182908D01*
X-445998D01*
X-444305Y184601D01*
X-440919Y191372D02*
X-439226Y193065D01*
X-435841D01*
X-434148Y191372D01*
Y189679D01*
X-435841Y187986D01*
X-434148Y186294D01*
Y184601D01*
X-435841Y182908D01*
X-439226D01*
X-440919Y184601D01*
Y186294D01*
X-439226Y187986D01*
X-440919Y189679D01*
Y191372D01*
X-439226Y187986D02*
X-435841D01*
X-272629Y170516D02*
X-274322Y172209D01*
X-277707D01*
X-279400Y170516D01*
Y163745D01*
X-277707Y162052D01*
X-274322D01*
X-272629Y163745D01*
X-269243Y172209D02*
X-262472D01*
Y170516D01*
X-269243Y163745D01*
Y162052D01*
X-230044Y338491D02*
X-231737Y336798D01*
Y333413D01*
X-230044Y331720D01*
X-223273D01*
X-221580Y333413D01*
Y336798D01*
X-223273Y338491D01*
X-231737Y348648D02*
X-230044Y345262D01*
X-226658Y341877D01*
X-223273D01*
X-221580Y343569D01*
Y346955D01*
X-223273Y348648D01*
X-224966D01*
X-226658Y346955D01*
Y341877D01*
X-496149Y104476D02*
X-497842Y106169D01*
X-501227D01*
X-502920Y104476D01*
Y97705D01*
X-501227Y96012D01*
X-497842D01*
X-496149Y97705D01*
X-487685Y96012D02*
Y106169D01*
X-492763Y101090D01*
X-485992D01*
X-521549Y-7284D02*
X-523242Y-5591D01*
X-526627D01*
X-528320Y-7284D01*
Y-14055D01*
X-526627Y-15748D01*
X-523242D01*
X-521549Y-14055D01*
X-518163Y-7284D02*
X-516470Y-5591D01*
X-513085D01*
X-511392Y-7284D01*
Y-8977D01*
X-513085Y-10670D01*
X-514778D01*
X-513085D01*
X-511392Y-12363D01*
Y-14055D01*
X-513085Y-15748D01*
X-516470D01*
X-518163Y-14055D01*
X-433157Y42754D02*
X-434850Y44447D01*
X-438235D01*
X-439928Y42754D01*
Y35983D01*
X-438235Y34290D01*
X-434850D01*
X-433157Y35983D01*
X-423000Y34290D02*
X-429771D01*
X-423000Y41061D01*
Y42754D01*
X-424693Y44447D01*
X-428078D01*
X-429771Y42754D01*
X-362115Y76988D02*
X-363808Y78681D01*
X-367193D01*
X-368886Y76988D01*
Y70217D01*
X-367193Y68524D01*
X-363808D01*
X-362115Y70217D01*
X-358729Y68524D02*
X-355344D01*
X-357037D01*
Y78681D01*
X-358729Y76988D01*
X-470408Y-172215D02*
X-463637D01*
X-467023D01*
Y-182372D01*
X-455173D02*
X-458559D01*
X-460251Y-180679D01*
Y-177294D01*
X-458559Y-175601D01*
X-455173D01*
X-453480Y-177294D01*
Y-178986D01*
X-460251D01*
X-450095Y-182372D02*
Y-175601D01*
X-448402D01*
X-446709Y-177294D01*
Y-182372D01*
Y-177294D01*
X-445016Y-175601D01*
X-443324Y-177294D01*
Y-182372D01*
X-439938Y-185758D02*
Y-175601D01*
X-434860D01*
X-433167Y-177294D01*
Y-180679D01*
X-434860Y-182372D01*
X-439938D01*
X-416560Y90929D02*
X-413175D01*
X-414867D01*
Y80772D01*
X-416560D01*
X-413175D01*
X-401325Y89236D02*
X-403018Y90929D01*
X-406403D01*
X-408096Y89236D01*
Y82465D01*
X-406403Y80772D01*
X-403018D01*
X-401325Y82465D01*
X-391168Y80772D02*
X-397939D01*
X-391168Y87543D01*
Y89236D01*
X-392861Y90929D01*
X-396247D01*
X-397939Y89236D01*
X-381000Y-51311D02*
X-377615D01*
X-379307D01*
Y-61468D01*
X-381000D01*
X-377615D01*
X-365765Y-53004D02*
X-367458Y-51311D01*
X-370843D01*
X-372536Y-53004D01*
Y-59775D01*
X-370843Y-61468D01*
X-367458D01*
X-365765Y-59775D01*
X-362379Y-61468D02*
X-358994D01*
X-360687D01*
Y-51311D01*
X-362379Y-53004D01*
X-467360Y96009D02*
Y85852D01*
X-460589D01*
X-450432D02*
X-457203D01*
X-450432Y92623D01*
Y94316D01*
X-452125Y96009D01*
X-455510D01*
X-457203Y94316D01*
X-487677Y40132D02*
X-479213D01*
X-477520Y41825D01*
Y45210D01*
X-479213Y46903D01*
X-487677D01*
X-477520Y57060D02*
Y50289D01*
X-484291Y57060D01*
X-485984D01*
X-487677Y55367D01*
Y51982D01*
X-485984Y50289D01*
X-66040Y-112271D02*
X-59269Y-122428D01*
Y-112271D02*
X-66040Y-122428D01*
X-55883D02*
X-52498D01*
X-54191D01*
Y-112271D01*
X-55883Y-113964D01*
X-580133Y-44196D02*
X-569976D01*
Y-39118D01*
X-571669Y-37425D01*
X-573362D01*
X-575054Y-39118D01*
Y-44196D01*
Y-39118D01*
X-576747Y-37425D01*
X-578440D01*
X-580133Y-39118D01*
Y-44196D01*
Y-34039D02*
Y-27268D01*
Y-30654D01*
X-569976D01*
Y-23883D02*
Y-20497D01*
Y-22190D01*
X-580133D01*
X-578440Y-23883D01*
X-553051Y28948D02*
X-551358Y27255D01*
X-547973D01*
X-546280Y28948D01*
Y30641D01*
X-547973Y32334D01*
X-551358D01*
X-553051Y34026D01*
Y35719D01*
X-551358Y37412D01*
X-547973D01*
X-546280Y35719D01*
X-556437Y37412D02*
X-559822D01*
X-558130D01*
Y27255D01*
X-556437Y28948D01*
X-565912Y-100079D02*
Y-110236D01*
X-560834D01*
X-559141Y-108543D01*
Y-101772D01*
X-560834Y-100079D01*
X-565912D01*
X-548984Y-101772D02*
X-550677Y-100079D01*
X-554062D01*
X-555755Y-101772D01*
Y-103465D01*
X-554062Y-105158D01*
X-550677D01*
X-548984Y-106851D01*
Y-108543D01*
X-550677Y-110236D01*
X-554062D01*
X-555755Y-108543D01*
X-545599Y-110236D02*
X-542213D01*
X-543906D01*
Y-100079D01*
X-545599Y-101772D01*
D47*
X-560593Y-86106D02*
G03*
X-558434Y-88265I2159J0D01*
G01*
Y-73279D02*
G03*
X-560593Y-75438I0J-2159D01*
G01*
X-530718Y-88265D02*
G03*
X-528559Y-86106I0J2159D01*
G01*
Y-75438D02*
G03*
X-530718Y-73279I-2159J0D01*
G01*
X-558434Y-88265D02*
X-530718D01*
X-560593Y-86106D02*
Y-75438D01*
X-558434Y-73279D02*
X-530718D01*
X-528559Y-86106D02*
Y-75438D01*
X-265000Y37500D02*
X-257383D01*
Y33691D01*
X-258652Y32422D01*
X-261191D01*
X-262461Y33691D01*
Y37500D01*
Y34961D02*
X-265000Y32422D01*
Y24804D02*
Y29883D01*
X-259922Y24804D01*
X-258652D01*
X-257383Y26074D01*
Y28613D01*
X-258652Y29883D01*
Y22265D02*
X-257383Y20995D01*
Y18456D01*
X-258652Y17187D01*
X-263730D01*
X-265000Y18456D01*
Y20995D01*
X-263730Y22265D01*
X-258652D01*
X-203520Y62980D02*
Y70598D01*
X-199711D01*
X-198442Y69328D01*
Y66789D01*
X-199711Y65519D01*
X-203520D01*
X-200981D02*
X-198442Y62980D01*
X-195903D02*
X-193363D01*
X-194633D01*
Y70598D01*
X-195903Y69328D01*
X-189555Y62980D02*
X-187015D01*
X-188285D01*
Y70598D01*
X-189555Y69328D01*
X-183207D02*
X-181937Y70598D01*
X-179398D01*
X-178128Y69328D01*
Y64250D01*
X-179398Y62980D01*
X-181937D01*
X-183207Y64250D01*
Y69328D01*
X-231828Y27198D02*
X-233098Y25929D01*
Y23390D01*
X-231828Y22120D01*
X-226750D01*
X-225480Y23390D01*
Y25929D01*
X-226750Y27198D01*
X-225480Y29738D02*
Y32277D01*
Y31007D01*
X-233098D01*
X-231828Y29738D01*
X-226750Y36086D02*
X-225480Y37355D01*
Y39894D01*
X-226750Y41164D01*
X-231828D01*
X-233098Y39894D01*
Y37355D01*
X-231828Y36086D01*
X-230558D01*
X-229289Y37355D01*
Y41164D01*
X-229868Y-510D02*
X-231138Y-1779D01*
Y-4318D01*
X-229868Y-5588D01*
X-224790D01*
X-223520Y-4318D01*
Y-1779D01*
X-224790Y-510D01*
X-223520Y2030D02*
Y4569D01*
Y3299D01*
X-231138D01*
X-229868Y2030D01*
X-231138Y13456D02*
Y8377D01*
X-227329D01*
X-228598Y10917D01*
Y12186D01*
X-227329Y13456D01*
X-224790D01*
X-223520Y12186D01*
Y9647D01*
X-224790Y8377D01*
X-234000Y62980D02*
Y70598D01*
X-230191D01*
X-228922Y69328D01*
Y66789D01*
X-230191Y65519D01*
X-234000D01*
X-231461D02*
X-228922Y62980D01*
X-226383D02*
X-223843D01*
X-225113D01*
Y70598D01*
X-226383Y69328D01*
X-220035Y62980D02*
X-217495D01*
X-218765D01*
Y70598D01*
X-220035Y69328D01*
X-213687Y62980D02*
X-211147D01*
X-212417D01*
Y70598D01*
X-213687Y69328D01*
X-247500Y40000D02*
X-239883D01*
Y36191D01*
X-241152Y34922D01*
X-243691D01*
X-244961Y36191D01*
Y40000D01*
Y37461D02*
X-247500Y34922D01*
Y32383D02*
Y29843D01*
Y31113D01*
X-239883D01*
X-241152Y32383D01*
X-247500Y26035D02*
Y23495D01*
Y24765D01*
X-239883D01*
X-241152Y26035D01*
X-247500Y14608D02*
Y19687D01*
X-242422Y14608D01*
X-241152D01*
X-239883Y15878D01*
Y18417D01*
X-241152Y19687D01*
D74*
X-340730Y281344D02*
G03*
X-338553Y268528I1089J-6408D01*
G01*
X-273485Y279580D02*
G03*
X-275662Y292396I-1089J6408D01*
G01*
X-298402Y378504D02*
X-295053Y358786D01*
X-352234Y349074D02*
X-287166Y360126D01*
X-347696Y370131D02*
X-344347Y350414D01*
X-347696Y370131D02*
X-298402Y378504D01*
X-352234Y349074D02*
X-331134Y224853D01*
X-287166Y360126D02*
X-266066Y235905D01*
X-331134Y224853D02*
X-266066Y235905D01*
D75*
X-233350Y176632D02*
G03*
X-233350Y176632I-500J0D01*
G01*
X-354100Y-9428D02*
G03*
X-354100Y-9428I-500J0D01*
G01*
X-390000Y52572D02*
G03*
X-390000Y52572I-500J0D01*
G01*
X-433000Y-199928D02*
G03*
X-433000Y-199928I-500J0D01*
G01*
X-444000Y-9928D02*
G03*
X-444000Y-9928I-500J0D01*
G01*
X-415676Y258262D02*
G03*
X-415676Y258262I-500J0D01*
G01*
D76*
X-391254Y19542D02*
G03*
X-391254Y19542I-1250J0D01*
G01*
X-548740Y41962D02*
G03*
X-548740Y41962I-1250J0D01*
G01*
X-486000Y61572D02*
G03*
X-486000Y61572I-1250J0D01*
G01*
X-453720Y42068D02*
G03*
X-453720Y42068I-1250J0D01*
G01*
X438200Y-171678D02*
G03*
X438200Y-171678I-1250J0D01*
G01*
X-116500Y151572D02*
G03*
X-116500Y151572I-1250J0D01*
G01*
X-144690Y-89626D02*
G03*
X-144690Y-89626I-1250J0D01*
G01*
D77*
X441500Y-147678D02*
G03*
X441500Y-147678I-3000J0D01*
G01*
X-135500Y164072D02*
G03*
X-135500Y164072I-3000J0D01*
G01*
X-131440Y-66876D02*
G03*
X-131440Y-66876I-3000J0D01*
G01*
D78*
X-47371Y326886D02*
X-40767D01*
X-47371Y326759D02*
X-40767D01*
X-47371Y326632D02*
X-40767D01*
X-47371Y326505D02*
X-40767D01*
X-47371Y326378D02*
X-40767D01*
X-8382D02*
X-5969D01*
X-47371Y326251D02*
X-40767D01*
X-9144D02*
X-5080D01*
X-47371Y326124D02*
X-40767D01*
X-9779D02*
X-4445D01*
X-47371Y325997D02*
X-40767D01*
X-10287D02*
X-3937D01*
X-47371Y325870D02*
X-40767D01*
X-10668D02*
X-3556D01*
X-47371Y325743D02*
X-40767D01*
X-11049D02*
X-8255D01*
X-5969D02*
X-3175D01*
X-47371Y325616D02*
X-40767D01*
X-11430D02*
X-9144D01*
X-5080D02*
X-2794D01*
X-47371Y325489D02*
X-40767D01*
X-11684D02*
X-9652D01*
X-4572D02*
X-2540D01*
X-47371Y325362D02*
X-40767D01*
X-11938D02*
X-10160D01*
X-4064D02*
X-2286D01*
X-47371Y325235D02*
X-40767D01*
X-12192D02*
X-10541D01*
X-3556D02*
X-2032D01*
X-47371Y325108D02*
X-40767D01*
X-12446D02*
X-10922D01*
X-3302D02*
X-1651D01*
X-47371Y324981D02*
X-40767D01*
X-12700D02*
X-11303D01*
X-2921D02*
X-1397D01*
X-47371Y324854D02*
X-40767D01*
X-12954D02*
X-11557D01*
X-2667D02*
X-1270D01*
X-47371Y324727D02*
X-40767D01*
X-13208D02*
X-11811D01*
X-2413D02*
X-1016D01*
X-47371Y324600D02*
X-40767D01*
X-13335D02*
X-12065D01*
X-2159D02*
X-889D01*
X-47371Y324473D02*
X-40767D01*
X-13589D02*
X-12319D01*
X-1905D02*
X-635D01*
X-47371Y324346D02*
X-40767D01*
X-13716D02*
X-12573D01*
X-1651D02*
X-508D01*
X-47371Y324219D02*
X-40767D01*
X-13970D02*
X-12827D01*
X-1397D02*
X-254D01*
X-47371Y324092D02*
X-40767D01*
X-14097D02*
X-12954D01*
X-1270D02*
X-127D01*
X-47371Y323965D02*
X-40767D01*
X-14224D02*
X-13208D01*
X-1016D02*
X127D01*
X-47371Y323838D02*
X-40767D01*
X-14478D02*
X-13335D01*
X-889D02*
X254D01*
X-47371Y323711D02*
X-40767D01*
X-14605D02*
X-13589D01*
X-635D02*
X381D01*
X-47371Y323584D02*
X-40767D01*
X-14732D02*
X-13716D01*
X-508D02*
X508D01*
X-47371Y323457D02*
X-40767D01*
X-14859D02*
X-13843D01*
X-381D02*
X635D01*
X-47371Y323330D02*
X-40767D01*
X-14986D02*
X-14097D01*
X-127D02*
X762D01*
X-47371Y323203D02*
X-40767D01*
X-15113D02*
X-14224D01*
X0D02*
X889D01*
X-47371Y323076D02*
X-40767D01*
X-15240D02*
X-14351D01*
X127D02*
X1143D01*
X-47371Y322949D02*
X-40767D01*
X-15367D02*
X-14478D01*
X254D02*
X1270D01*
X-47371Y322822D02*
X-40767D01*
X-15494D02*
X-14605D01*
X381D02*
X1270D01*
X-47371Y322695D02*
X-40767D01*
X-15621D02*
X-14732D01*
X508D02*
X1397D01*
X-47371Y322568D02*
X-40767D01*
X-15748D02*
X-14859D01*
X762D02*
X1524D01*
X-47371Y322441D02*
X-40767D01*
X-15875D02*
X-14986D01*
X762D02*
X1651D01*
X-47371Y322314D02*
X-40767D01*
X-16002D02*
X-15113D01*
X889D02*
X1778D01*
X-47371Y322187D02*
X-40767D01*
X-16129D02*
X-15240D01*
X1016D02*
X1905D01*
X-47371Y322060D02*
X-40767D01*
X-16256D02*
X-15367D01*
X1143D02*
X2032D01*
X-47371Y321933D02*
X-40767D01*
X-16256D02*
X-15494D01*
X1270D02*
X2032D01*
X-47371Y321806D02*
X-40767D01*
X-16383D02*
X-15621D01*
X1397D02*
X2159D01*
X-47371Y321679D02*
X-40767D01*
X-16510D02*
X-15748D01*
X1524D02*
X2286D01*
X-47371Y321552D02*
X-40767D01*
X-16637D02*
X-15748D01*
X1651D02*
X2413D01*
X-47371Y321425D02*
X-40767D01*
X-16637D02*
X-15875D01*
X1651D02*
X2413D01*
X-47371Y321298D02*
X-40767D01*
X-16764D02*
X-16002D01*
X1778D02*
X2540D01*
X-47371Y321171D02*
X-40767D01*
X-16891D02*
X-16129D01*
X1905D02*
X2667D01*
X-47371Y321044D02*
X-40767D01*
X-16891D02*
X-16129D01*
X-8001D02*
X-6223D01*
X1905D02*
X2667D01*
X-47371Y320917D02*
X-40767D01*
X-17018D02*
X-16256D01*
X-8636D02*
X-5461D01*
X2032D02*
X2794D01*
X-47371Y320790D02*
X-40767D01*
X-17145D02*
X-16383D01*
X-9144D02*
X-4953D01*
X2159D02*
X2921D01*
X-47371Y320663D02*
X-40767D01*
X-17145D02*
X-16383D01*
X-9398D02*
X-4572D01*
X2159D02*
X2921D01*
X-47371Y320536D02*
X-40767D01*
X-17272D02*
X-16510D01*
X-9779D02*
X-4318D01*
X2286D02*
X3048D01*
X-47371Y320409D02*
X-40767D01*
X-17272D02*
X-16637D01*
X-10033D02*
X-7747D01*
X-6223D02*
X-4064D01*
X2413D02*
X3048D01*
X-47371Y320282D02*
X-40767D01*
X-17399D02*
X-16637D01*
X-10287D02*
X-8382D01*
X-5461D02*
X-3810D01*
X2413D02*
X3175D01*
X-47371Y320155D02*
X-40767D01*
X-17526D02*
X-16764D01*
X-10414D02*
X-8890D01*
X-5080D02*
X-3556D01*
X2540D02*
X3302D01*
X-47371Y320028D02*
X-40767D01*
X-17526D02*
X-16764D01*
X-10668D02*
X-9271D01*
X-4699D02*
X-3429D01*
X2540D02*
X3302D01*
X-47371Y319901D02*
X-40767D01*
X-17526D02*
X-16891D01*
X-10795D02*
X-9525D01*
X-4445D02*
X-3175D01*
X2667D02*
X3429D01*
X-47371Y319774D02*
X-40767D01*
X-17653D02*
X-16891D01*
X-11049D02*
X-9779D01*
X-4191D02*
X-3048D01*
X2667D02*
X3429D01*
X-47371Y319647D02*
X-40767D01*
X-17653D02*
X-17018D01*
X-11176D02*
X-10033D01*
X-3937D02*
X-2921D01*
X2794D02*
X3429D01*
X-47371Y319520D02*
X-40767D01*
X-17780D02*
X-17018D01*
X-11303D02*
X-10160D01*
X-3810D02*
X-2794D01*
X2794D02*
X3556D01*
X-47371Y319393D02*
X-40767D01*
X-17780D02*
X-17145D01*
X-11430D02*
X-10414D01*
X-3556D02*
X-2540D01*
X2921D02*
X3556D01*
X-47371Y319266D02*
X-40767D01*
X-17907D02*
X-17145D01*
X-11557D02*
X-10541D01*
X-3429D02*
X-2413D01*
X2921D02*
X3683D01*
X-47371Y319139D02*
X-40767D01*
X-17907D02*
X-17272D01*
X-11684D02*
X-10668D01*
X-3302D02*
X-2286D01*
X3048D02*
X3683D01*
X-47371Y319012D02*
X-40767D01*
X-18034D02*
X-17272D01*
X-11811D02*
X-10795D01*
X-3175D02*
X-2159D01*
X3048D02*
X3810D01*
X-47371Y318885D02*
X-40767D01*
X-18034D02*
X-17399D01*
X-11938D02*
X-11049D01*
X-2921D02*
X-2032D01*
X3175D02*
X3810D01*
X-47371Y318758D02*
X-40767D01*
X-18034D02*
X-17399D01*
X-12065D02*
X-11176D01*
X-2794D02*
X-2032D01*
X3175D02*
X3810D01*
X-47371Y318631D02*
X-40767D01*
X-18161D02*
X-17399D01*
X-12192D02*
X-11303D01*
X-2667D02*
X-1905D01*
X3175D02*
X3937D01*
X-47371Y318504D02*
X-40767D01*
X-18161D02*
X-17526D01*
X-12319D02*
X-11430D01*
X-2540D02*
X-1778D01*
X3302D02*
X3937D01*
X-47371Y318377D02*
X-40767D01*
X-18161D02*
X-17526D01*
X-12319D02*
X-11430D01*
X-2413D02*
X-1651D01*
X3302D02*
X4064D01*
X-47371Y318250D02*
X-40767D01*
X-18288D02*
X-17526D01*
X-12446D02*
X-11557D01*
X-2413D02*
X-1524D01*
X3429D02*
X4064D01*
X-47371Y318123D02*
X-40767D01*
X-18288D02*
X-17653D01*
X-12573D02*
X-11684D01*
X-2286D02*
X-1397D01*
X3429D02*
X4064D01*
X-47371Y317996D02*
X-40767D01*
X-18288D02*
X-17653D01*
X-12573D02*
X-11811D01*
X-2159D02*
X-1397D01*
X3429D02*
X4064D01*
X-47371Y317869D02*
X-40767D01*
X-19050D02*
X-17653D01*
X-12700D02*
X-11938D01*
X-2032D02*
X-1270D01*
X3556D02*
X4191D01*
X-47371Y317742D02*
X-40767D01*
X-20447D02*
X-17780D01*
X-12827D02*
X-11938D01*
X-2032D02*
X-1270D01*
X3556D02*
X4191D01*
X-47371Y317615D02*
X-40767D01*
X-21336D02*
X-17780D01*
X-12827D02*
X-12065D01*
X-1905D02*
X-1143D01*
X3556D02*
X4191D01*
X-47371Y317488D02*
X-40767D01*
X-21971D02*
X-17780D01*
X-12954D02*
X-12192D01*
X-1778D02*
X-1143D01*
X3556D02*
X4191D01*
X-47371Y317361D02*
X-40767D01*
X-22606D02*
X-17780D01*
X-12954D02*
X-12192D01*
X-1778D02*
X-1016D01*
X3683D02*
X4318D01*
X-47371Y317234D02*
X-40767D01*
X-23114D02*
X-17907D01*
X-13081D02*
X-12319D01*
X-1651D02*
X-1016D01*
X3683D02*
X4318D01*
X-47371Y317107D02*
X-40767D01*
X-23622D02*
X-17907D01*
X-13081D02*
X-12319D01*
X-1651D02*
X-889D01*
X3683D02*
X4318D01*
X-47371Y316980D02*
X-40767D01*
X-24003D02*
X-17907D01*
X-13081D02*
X-12446D01*
X-1524D02*
X-889D01*
X3683D02*
X4318D01*
X-47371Y316853D02*
X-40767D01*
X-24384D02*
X-17907D01*
X-13208D02*
X-12446D01*
X-1524D02*
X-762D01*
X3683D02*
X4318D01*
X-47371Y316726D02*
X-40767D01*
X-24765D02*
X-18034D01*
X-13208D02*
X-12573D01*
X-1397D02*
X-762D01*
X3810D02*
X4445D01*
X-47371Y316599D02*
X-40767D01*
X-25019D02*
X-18034D01*
X-13335D02*
X-12573D01*
X-1397D02*
X-762D01*
X3810D02*
X4445D01*
X-47371Y316472D02*
X-40767D01*
X-25400D02*
X-18034D01*
X-13335D02*
X-12573D01*
X-1397D02*
X-635D01*
X3810D02*
X4445D01*
X-47371Y316345D02*
X-40767D01*
X-25654D02*
X-18034D01*
X-13335D02*
X-12700D01*
X-1270D02*
X-635D01*
X3810D02*
X4445D01*
X-47371Y316218D02*
X-40767D01*
X-26035D02*
X-18034D01*
X-13462D02*
X-12700D01*
X-1270D02*
X-635D01*
X3810D02*
X4445D01*
X-47371Y316091D02*
X-40767D01*
X-26289D02*
X-18034D01*
X-13462D02*
X-12700D01*
X-1270D02*
X-635D01*
X3810D02*
X4445D01*
X-47371Y315964D02*
X-40767D01*
X-26543D02*
X-18034D01*
X-13462D02*
X-12700D01*
X-1143D02*
X-508D01*
X3937D02*
X4572D01*
X-56134Y315837D02*
X-52578D01*
X-47371D02*
X-40767D01*
X-26797D02*
X-18161D01*
X-13462D02*
X-12827D01*
X-1143D02*
X-508D01*
X3937D02*
X4572D01*
X20320D02*
X21082D01*
X-56769Y315710D02*
X-51816D01*
X-47371D02*
X-40767D01*
X-27051D02*
X-18161D01*
X-13462D02*
X-12827D01*
X-1143D02*
X-508D01*
X3937D02*
X4572D01*
X18923D02*
X22479D01*
X-57404Y315583D02*
X-51308D01*
X-47371D02*
X-40767D01*
X-27305D02*
X-18161D01*
X-13462D02*
X-12827D01*
X-1143D02*
X-508D01*
X3937D02*
X4572D01*
X18288D02*
X22987D01*
X-57785Y315456D02*
X-50800D01*
X-47371D02*
X-40767D01*
X-27432D02*
X-18161D01*
X-13589D02*
X-12827D01*
X-1143D02*
X-508D01*
X3937D02*
X4572D01*
X17780D02*
X22860D01*
X-58166Y315329D02*
X-50419D01*
X-47371D02*
X-40767D01*
X-27686D02*
X-18161D01*
X-13589D02*
X-12827D01*
X-1016D02*
X-381D01*
X3937D02*
X4572D01*
X7112D02*
X13462D01*
X17399D02*
X22860D01*
X26543D02*
X33782D01*
X47752D02*
X54737D01*
X-58547Y315202D02*
X-50165D01*
X-47371D02*
X-40767D01*
X-27940D02*
X-18161D01*
X-13589D02*
X-12954D01*
X-1016D02*
X-381D01*
X3937D02*
X4572D01*
X7112D02*
X13462D01*
X17018D02*
X22860D01*
X26543D02*
X33909D01*
X47625D02*
X54610D01*
X-58928Y315075D02*
X-49784D01*
X-47371D02*
X-40767D01*
X-28067D02*
X-18161D01*
X-13589D02*
X-12954D01*
X-1016D02*
X-381D01*
X3937D02*
X4572D01*
X7112D02*
X13462D01*
X16637D02*
X22860D01*
X26670D02*
X33909D01*
X47625D02*
X54610D01*
X-59182Y314948D02*
X-49530D01*
X-47371D02*
X-40767D01*
X-28321D02*
X-18161D01*
X-13589D02*
X-12954D01*
X-1016D02*
X-381D01*
X3937D02*
X4572D01*
X7112D02*
X13462D01*
X16383D02*
X22860D01*
X26670D02*
X34036D01*
X47498D02*
X54483D01*
X-59436Y314821D02*
X-49276D01*
X-47371D02*
X-40767D01*
X-28575D02*
X-18161D01*
X-13589D02*
X-12954D01*
X-1016D02*
X-381D01*
X3937D02*
X4572D01*
X7112D02*
X13462D01*
X16129D02*
X22860D01*
X26797D02*
X34036D01*
X47498D02*
X54483D01*
X-59690Y314694D02*
X-49022D01*
X-47371D02*
X-40767D01*
X-28702D02*
X-18161D01*
X-13589D02*
X-12954D01*
X-1016D02*
X-381D01*
X3937D02*
X4572D01*
X7112D02*
X13462D01*
X15875D02*
X22860D01*
X26797D02*
X34163D01*
X47498D02*
X54356D01*
X-59944Y314567D02*
X-48768D01*
X-47371D02*
X-40767D01*
X-28956D02*
X-18161D01*
X-13589D02*
X-12954D01*
X-1016D02*
X-381D01*
X3937D02*
X4572D01*
X7112D02*
X13462D01*
X15621D02*
X22860D01*
X26924D02*
X34163D01*
X47371D02*
X54356D01*
X-60198Y314440D02*
X-48514D01*
X-47371D02*
X-40767D01*
X-29083D02*
X-18161D01*
X-13589D02*
X-12954D01*
X-1016D02*
X-381D01*
X3937D02*
X4572D01*
X7112D02*
X13462D01*
X15367D02*
X22733D01*
X26924D02*
X34290D01*
X47371D02*
X54356D01*
X-60452Y314313D02*
X-48387D01*
X-47371D02*
X-40767D01*
X-29210D02*
X-18161D01*
X-13589D02*
X-12954D01*
X-1016D02*
X-381D01*
X3937D02*
X4572D01*
X7112D02*
X13462D01*
X15113D02*
X22733D01*
X27051D02*
X34290D01*
X47244D02*
X54229D01*
X-60579Y314186D02*
X-48133D01*
X-47371D02*
X-40767D01*
X-29464D02*
X-18161D01*
X-13589D02*
X-12954D01*
X-1016D02*
X-381D01*
X3937D02*
X4572D01*
X7112D02*
X13462D01*
X14986D02*
X22733D01*
X27051D02*
X34417D01*
X47244D02*
X54229D01*
X-60833Y314059D02*
X-48006D01*
X-47371D02*
X-40767D01*
X-29591D02*
X-18161D01*
X-13589D02*
X-12954D01*
X-1016D02*
X-381D01*
X3937D02*
X4572D01*
X7112D02*
X13462D01*
X14859D02*
X22733D01*
X27178D02*
X34417D01*
X47117D02*
X54102D01*
X-60960Y313932D02*
X-47752D01*
X-47371D02*
X-40767D01*
X-29718D02*
X-18161D01*
X-13589D02*
X-12954D01*
X-1016D02*
X-381D01*
X3937D02*
X4572D01*
X7112D02*
X13462D01*
X14605D02*
X22733D01*
X27178D02*
X34544D01*
X47117D02*
X54102D01*
X-61214Y313805D02*
X-47625D01*
X-47371D02*
X-40767D01*
X-29845D02*
X-18161D01*
X-13589D02*
X-12954D01*
X-1016D02*
X-381D01*
X3937D02*
X4572D01*
X7112D02*
X13462D01*
X14478D02*
X22733D01*
X27305D02*
X34544D01*
X46990D02*
X53975D01*
X-61341Y313678D02*
X-40767D01*
X-30099D02*
X-18161D01*
X-13589D02*
X-12827D01*
X-1016D02*
X-381D01*
X3937D02*
X4572D01*
X7112D02*
X13462D01*
X14351D02*
X22733D01*
X27305D02*
X34671D01*
X46990D02*
X53975D01*
X-61468Y313551D02*
X-40767D01*
X-30226D02*
X-18034D01*
X-13462D02*
X-12827D01*
X-1143D02*
X-508D01*
X3937D02*
X4572D01*
X7112D02*
X13462D01*
X14224D02*
X22733D01*
X27432D02*
X34671D01*
X46990D02*
X53848D01*
X-61722Y313424D02*
X-40767D01*
X-30353D02*
X-18034D01*
X-13462D02*
X-12827D01*
X-1143D02*
X-508D01*
X3810D02*
X4445D01*
X7112D02*
X13462D01*
X14097D02*
X22606D01*
X27432D02*
X34671D01*
X46863D02*
X53848D01*
X-61849Y313297D02*
X-40767D01*
X-30480D02*
X-18034D01*
X-13462D02*
X-12827D01*
X-1143D02*
X-508D01*
X3810D02*
X4445D01*
X7112D02*
X13462D01*
X13970D02*
X22606D01*
X27559D02*
X34798D01*
X46863D02*
X53721D01*
X-61976Y313170D02*
X-40767D01*
X-30607D02*
X-18034D01*
X-13462D02*
X-12827D01*
X-1143D02*
X-508D01*
X3810D02*
X4445D01*
X7112D02*
X13462D01*
X13843D02*
X22606D01*
X27559D02*
X34798D01*
X46736D02*
X53721D01*
X-62103Y313043D02*
X-40767D01*
X-30734D02*
X-18034D01*
X-13462D02*
X-12827D01*
X-1143D02*
X-508D01*
X3810D02*
X4445D01*
X7112D02*
X13462D01*
X13716D02*
X22606D01*
X27686D02*
X34925D01*
X46736D02*
X53594D01*
X-62230Y312916D02*
X-40767D01*
X-30861D02*
X-18034D01*
X-13335D02*
X-12700D01*
X-1270D02*
X-635D01*
X3810D02*
X4445D01*
X7112D02*
X13462D01*
X13589D02*
X22606D01*
X27686D02*
X34925D01*
X46609D02*
X53594D01*
X-62484Y312789D02*
X-40767D01*
X-30988D02*
X-18034D01*
X-13335D02*
X-12700D01*
X-1270D02*
X-635D01*
X3810D02*
X4445D01*
X7112D02*
X22606D01*
X27813D02*
X35052D01*
X46609D02*
X53594D01*
X-62611Y312662D02*
X-40767D01*
X-31115D02*
X-17907D01*
X-13335D02*
X-12700D01*
X-1270D02*
X-635D01*
X3683D02*
X4318D01*
X7112D02*
X22606D01*
X27813D02*
X35052D01*
X46482D02*
X53467D01*
X-62738Y312535D02*
X-40767D01*
X-31242D02*
X-17907D01*
X-13335D02*
X-12573D01*
X-1397D02*
X-635D01*
X3683D02*
X4318D01*
X7112D02*
X22606D01*
X27940D02*
X35179D01*
X46482D02*
X53467D01*
X-62865Y312408D02*
X-40767D01*
X-31369D02*
X-17907D01*
X-13208D02*
X-12573D01*
X-1397D02*
X-762D01*
X3683D02*
X4318D01*
X7112D02*
X22479D01*
X27940D02*
X35179D01*
X46355D02*
X53340D01*
X-62992Y312281D02*
X-40767D01*
X-31496D02*
X-17907D01*
X-13208D02*
X-12573D01*
X-1397D02*
X-762D01*
X3683D02*
X4318D01*
X7112D02*
X22479D01*
X28067D02*
X35306D01*
X46355D02*
X53340D01*
X-63119Y312154D02*
X-40767D01*
X-31623D02*
X-17780D01*
X-13208D02*
X-12446D01*
X-1524D02*
X-762D01*
X3683D02*
X4318D01*
X7112D02*
X22479D01*
X28067D02*
X35306D01*
X46355D02*
X53213D01*
X-63119Y312027D02*
X-40767D01*
X-31750D02*
X-17780D01*
X-13081D02*
X-12446D01*
X-1524D02*
X-889D01*
X3556D02*
X4191D01*
X7112D02*
X22479D01*
X28194D02*
X35433D01*
X46228D02*
X53213D01*
X-63246Y311900D02*
X-40767D01*
X-31877D02*
X-17780D01*
X-13081D02*
X-12319D01*
X-1651D02*
X-889D01*
X3556D02*
X4191D01*
X7112D02*
X22479D01*
X28194D02*
X35433D01*
X46228D02*
X53086D01*
X-63373Y311773D02*
X-40767D01*
X-32004D02*
X-17780D01*
X-12954D02*
X-12319D01*
X-1651D02*
X-1016D01*
X3556D02*
X4191D01*
X7112D02*
X22479D01*
X28321D02*
X35560D01*
X46101D02*
X53086D01*
X-63500Y311646D02*
X-40767D01*
X-32131D02*
X-19685D01*
X-18415D02*
X-17653D01*
X-12954D02*
X-12192D01*
X-1778D02*
X-1016D01*
X3556D02*
X4191D01*
X7112D02*
X22479D01*
X28321D02*
X35560D01*
X46101D02*
X52959D01*
X-63627Y311519D02*
X-40767D01*
X-32258D02*
X-20320D01*
X-18288D02*
X-17653D01*
X-12827D02*
X-12192D01*
X-1778D02*
X-1143D01*
X3429D02*
X4064D01*
X7112D02*
X22479D01*
X28448D02*
X35687D01*
X45974D02*
X52959D01*
X-63754Y311392D02*
X-40767D01*
X-32385D02*
X-20955D01*
X-18288D02*
X-17653D01*
X-12827D02*
X-12065D01*
X-1905D02*
X-1143D01*
X3429D02*
X4064D01*
X7112D02*
X22352D01*
X28448D02*
X35687D01*
X45974D02*
X52959D01*
X-63754Y311265D02*
X-40767D01*
X-32385D02*
X-21336D01*
X-18288D02*
X-17526D01*
X-12700D02*
X-11938D01*
X-1905D02*
X-1270D01*
X3429D02*
X4064D01*
X7112D02*
X22352D01*
X28575D02*
X35814D01*
X45847D02*
X52832D01*
X-63881Y311138D02*
X-40767D01*
X-32512D02*
X-21717D01*
X-18161D02*
X-17526D01*
X-12700D02*
X-11938D01*
X-2032D02*
X-1270D01*
X3302D02*
X3937D01*
X7112D02*
X22352D01*
X28575D02*
X35814D01*
X45847D02*
X52832D01*
X-64008Y311011D02*
X-40767D01*
X-32639D02*
X-22098D01*
X-18161D02*
X-17526D01*
X-12573D02*
X-11811D01*
X-2159D02*
X-1397D01*
X3302D02*
X3937D01*
X7112D02*
X22352D01*
X28702D02*
X35941D01*
X45847D02*
X52705D01*
X-64135Y310884D02*
X-40767D01*
X-32766D02*
X-22352D01*
X-18161D02*
X-17399D01*
X-12446D02*
X-11684D01*
X-2286D02*
X-1397D01*
X3175D02*
X3937D01*
X7112D02*
X22352D01*
X28702D02*
X35941D01*
X45720D02*
X52705D01*
X-64135Y310757D02*
X-40767D01*
X-32893D02*
X-22733D01*
X-18034D02*
X-17399D01*
X-12446D02*
X-11557D01*
X-2413D02*
X-1524D01*
X3175D02*
X3810D01*
X7112D02*
X22352D01*
X28829D02*
X36068D01*
X45720D02*
X52578D01*
X-64262Y310630D02*
X-40767D01*
X-32893D02*
X-22987D01*
X-18034D02*
X-17399D01*
X-12319D02*
X-11430D01*
X-2413D02*
X-1651D01*
X3175D02*
X3810D01*
X7112D02*
X22352D01*
X28829D02*
X36068D01*
X45593D02*
X52578D01*
X-64389Y310503D02*
X-40767D01*
X-33020D02*
X-23241D01*
X-18034D02*
X-17272D01*
X-12192D02*
X-11430D01*
X-2540D02*
X-1778D01*
X3048D02*
X3810D01*
X7112D02*
X22352D01*
X28956D02*
X36195D01*
X45593D02*
X52451D01*
X-64389Y310376D02*
X-40767D01*
X-33147D02*
X-23495D01*
X-17907D02*
X-17272D01*
X-12065D02*
X-11303D01*
X-2667D02*
X-1905D01*
X3048D02*
X3683D01*
X7112D02*
X22225D01*
X28956D02*
X36195D01*
X45466D02*
X52451D01*
X-64516Y310249D02*
X-40767D01*
X-33147D02*
X-23622D01*
X-17907D02*
X-17145D01*
X-11938D02*
X-11176D01*
X-2794D02*
X-1905D01*
X2921D02*
X3683D01*
X7112D02*
X22225D01*
X29083D02*
X36322D01*
X45466D02*
X52324D01*
X-64643Y310122D02*
X-40767D01*
X-33274D02*
X-23876D01*
X-17780D02*
X-17145D01*
X-11938D02*
X-11049D01*
X-2921D02*
X-2032D01*
X2921D02*
X3556D01*
X7112D02*
X22225D01*
X29083D02*
X36322D01*
X45339D02*
X52324D01*
X-64643Y309995D02*
X-40767D01*
X-33401D02*
X-24130D01*
X-17780D02*
X-17018D01*
X-11811D02*
X-10922D01*
X-3048D02*
X-2159D01*
X2794D02*
X3556D01*
X7112D02*
X22225D01*
X29210D02*
X36449D01*
X45339D02*
X52197D01*
X-64770Y309868D02*
X-40767D01*
X-33401D02*
X-24257D01*
X-17653D02*
X-17018D01*
X-11684D02*
X-10668D01*
X-3302D02*
X-2286D01*
X2794D02*
X3429D01*
X7112D02*
X22225D01*
X29210D02*
X36449D01*
X45212D02*
X52197D01*
X-64770Y309741D02*
X-54610D01*
X-52324D02*
X-40767D01*
X-33528D02*
X-24511D01*
X-17653D02*
X-16891D01*
X-11557D02*
X-10541D01*
X-3429D02*
X-2413D01*
X2667D02*
X3429D01*
X7112D02*
X22225D01*
X29337D02*
X36576D01*
X45212D02*
X52197D01*
X-64897Y309614D02*
X-55245D01*
X-51689D02*
X-40767D01*
X-33655D02*
X-24638D01*
X-17526D02*
X-16891D01*
X-11430D02*
X-10414D01*
X-3556D02*
X-2540D01*
X2667D02*
X3429D01*
X7112D02*
X18669D01*
X21463D02*
X22225D01*
X29337D02*
X36576D01*
X45212D02*
X52070D01*
X-64897Y309487D02*
X-55626D01*
X-51181D02*
X-40767D01*
X-33655D02*
X-24765D01*
X-17526D02*
X-16764D01*
X-11176D02*
X-10160D01*
X-3683D02*
X-2667D01*
X2540D02*
X3302D01*
X7112D02*
X18034D01*
X29464D02*
X36703D01*
X45085D02*
X52070D01*
X-65024Y309360D02*
X-56007D01*
X-50800D02*
X-40767D01*
X-33782D02*
X-25019D01*
X-17526D02*
X-16764D01*
X-11049D02*
X-10033D01*
X-3937D02*
X-2921D01*
X2540D02*
X3302D01*
X7112D02*
X17653D01*
X29464D02*
X36703D01*
X45085D02*
X51943D01*
X-65151Y309233D02*
X-56261D01*
X-50546D02*
X-40767D01*
X-33909D02*
X-25146D01*
X-17399D02*
X-16637D01*
X-10922D02*
X-9779D01*
X-4191D02*
X-3048D01*
X2413D02*
X3175D01*
X7112D02*
X17399D01*
X29591D02*
X36830D01*
X44958D02*
X51943D01*
X-65151Y309106D02*
X-56515D01*
X-50292D02*
X-40767D01*
X-33909D02*
X-25273D01*
X-17399D02*
X-16637D01*
X-10795D02*
X-9525D01*
X-4445D02*
X-3175D01*
X2413D02*
X3175D01*
X7112D02*
X17018D01*
X29591D02*
X36830D01*
X44958D02*
X51816D01*
X-65151Y308979D02*
X-56769D01*
X-50038D02*
X-40767D01*
X-34036D02*
X-25400D01*
X-17272D02*
X-16510D01*
X-10668D02*
X-9271D01*
X-4699D02*
X-3302D01*
X2286D02*
X3048D01*
X7112D02*
X16764D01*
X29718D02*
X36957D01*
X44831D02*
X51816D01*
X-65278Y308852D02*
X-56896D01*
X-49784D02*
X-40767D01*
X-34036D02*
X-25527D01*
X-17145D02*
X-16383D01*
X-10414D02*
X-8890D01*
X-5080D02*
X-3556D01*
X2159D02*
X2921D01*
X7112D02*
X16510D01*
X29718D02*
X36957D01*
X44831D02*
X51689D01*
X-65278Y308725D02*
X-57150D01*
X-49530D02*
X-40767D01*
X-34163D02*
X-25781D01*
X-17145D02*
X-16383D01*
X-10160D02*
X-8509D01*
X-5461D02*
X-3810D01*
X2159D02*
X2921D01*
X7112D02*
X16383D01*
X29845D02*
X37084D01*
X44704D02*
X51689D01*
X-65405Y308598D02*
X-57277D01*
X-49403D02*
X-40767D01*
X-34163D02*
X-25908D01*
X-17018D02*
X-16256D01*
X-9906D02*
X-7874D01*
X-6096D02*
X-4064D01*
X2032D02*
X2794D01*
X7112D02*
X16129D01*
X29845D02*
X37084D01*
X44704D02*
X51562D01*
X-65405Y308471D02*
X-57404D01*
X-49149D02*
X-40767D01*
X-34290D02*
X-26035D01*
X-16891D02*
X-16129D01*
X-9652D02*
X-4318D01*
X2032D02*
X2794D01*
X7112D02*
X16002D01*
X29972D02*
X37211D01*
X44704D02*
X51562D01*
X-65532Y308344D02*
X-57658D01*
X-49022D02*
X-40767D01*
X-34417D02*
X-26162D01*
X-16891D02*
X-16129D01*
X-9398D02*
X-4572D01*
X1905D02*
X2667D01*
X7112D02*
X15748D01*
X29972D02*
X37211D01*
X44577D02*
X51435D01*
X-65532Y308217D02*
X-57785D01*
X-48768D02*
X-40767D01*
X-34417D02*
X-26289D01*
X-16764D02*
X-16002D01*
X-9017D02*
X-4953D01*
X1778D02*
X2540D01*
X7112D02*
X15621D01*
X30099D02*
X37211D01*
X44577D02*
X51435D01*
X-65659Y308090D02*
X-57912D01*
X-48641D02*
X-40767D01*
X-34544D02*
X-26289D01*
X-16637D02*
X-15875D01*
X-8509D02*
X-5461D01*
X1651D02*
X2540D01*
X7112D02*
X15494D01*
X30099D02*
X37338D01*
X44450D02*
X51435D01*
X-65659Y307963D02*
X-58039D01*
X-48514D02*
X-40767D01*
X-34544D02*
X-26416D01*
X-16637D02*
X-15875D01*
X-7874D02*
X-6096D01*
X1651D02*
X2413D01*
X7112D02*
X15240D01*
X30226D02*
X37338D01*
X44450D02*
X51308D01*
X-65659Y307836D02*
X-58166D01*
X-48387D02*
X-40767D01*
X-34671D02*
X-26543D01*
X-16510D02*
X-15748D01*
X1524D02*
X2286D01*
X7112D02*
X15113D01*
X30226D02*
X37465D01*
X44323D02*
X51308D01*
X-65786Y307709D02*
X-58293D01*
X-48260D02*
X-40767D01*
X-34671D02*
X-26670D01*
X-16383D02*
X-15621D01*
X1397D02*
X2159D01*
X7112D02*
X14986D01*
X30353D02*
X37465D01*
X44323D02*
X51181D01*
X-65786Y307582D02*
X-58293D01*
X-48133D02*
X-40767D01*
X-34798D02*
X-26797D01*
X-16256D02*
X-15494D01*
X1270D02*
X2159D01*
X7112D02*
X14859D01*
X30353D02*
X37592D01*
X44196D02*
X51181D01*
X-65786Y307455D02*
X-58420D01*
X-48006D02*
X-40767D01*
X-34798D02*
X-26924D01*
X-16256D02*
X-15367D01*
X1143D02*
X2032D01*
X7112D02*
X14732D01*
X30480D02*
X37592D01*
X44196D02*
X51054D01*
X-65913Y307328D02*
X-58547D01*
X-47879D02*
X-40767D01*
X-34798D02*
X-27051D01*
X-16129D02*
X-15240D01*
X1016D02*
X1905D01*
X7112D02*
X14605D01*
X30480D02*
X37719D01*
X44069D02*
X51054D01*
X-65913Y307201D02*
X-58674D01*
X-47752D02*
X-40767D01*
X-34925D02*
X-27051D01*
X-16002D02*
X-15113D01*
X889D02*
X1778D01*
X7112D02*
X14478D01*
X30607D02*
X37719D01*
X44069D02*
X50927D01*
X-65913Y307074D02*
X-58674D01*
X-47625D02*
X-40767D01*
X-34925D02*
X-27178D01*
X-15875D02*
X-14986D01*
X889D02*
X1651D01*
X7112D02*
X14351D01*
X30607D02*
X37846D01*
X44069D02*
X50927D01*
X-66040Y306947D02*
X-58801D01*
X-47498D02*
X-40767D01*
X-35052D02*
X-27305D01*
X-15748D02*
X-14986D01*
X762D02*
X1524D01*
X7112D02*
X14351D01*
X30734D02*
X37846D01*
X43942D02*
X50800D01*
X-66040Y306820D02*
X-58928D01*
X-47371D02*
X-40767D01*
X-35052D02*
X-27432D01*
X-15621D02*
X-14732D01*
X635D02*
X1397D01*
X7112D02*
X14224D01*
X30734D02*
X37973D01*
X43942D02*
X50800D01*
X-66040Y306693D02*
X-58928D01*
X-47371D02*
X-40767D01*
X-35179D02*
X-27432D01*
X-15494D02*
X-14605D01*
X381D02*
X1397D01*
X7112D02*
X14097D01*
X30861D02*
X37973D01*
X43815D02*
X50673D01*
X-66040Y306566D02*
X-59055D01*
X-47371D02*
X-40767D01*
X-35179D02*
X-27559D01*
X-15494D02*
X-14478D01*
X254D02*
X1270D01*
X7112D02*
X13970D01*
X30861D02*
X38100D01*
X43815D02*
X50673D01*
X-66167Y306439D02*
X-59055D01*
X-47371D02*
X-40767D01*
X-35179D02*
X-27686D01*
X-15367D02*
X-14351D01*
X127D02*
X1143D01*
X7112D02*
X13970D01*
X30988D02*
X38100D01*
X43688D02*
X50673D01*
X-66167Y306312D02*
X-59182D01*
X-47371D02*
X-40767D01*
X-35306D02*
X-27686D01*
X-15113D02*
X-14224D01*
X0D02*
X1016D01*
X7112D02*
X13843D01*
X30988D02*
X38227D01*
X43688D02*
X50546D01*
X-66167Y306185D02*
X-59182D01*
X-47371D02*
X-40767D01*
X-35306D02*
X-27813D01*
X-14986D02*
X-14097D01*
X-127D02*
X762D01*
X7112D02*
X13716D01*
X31115D02*
X38227D01*
X43561D02*
X50546D01*
X-66167Y306058D02*
X-59309D01*
X-47371D02*
X-40767D01*
X-35306D02*
X-27813D01*
X-14859D02*
X-13843D01*
X-254D02*
X635D01*
X7112D02*
X13716D01*
X31115D02*
X38354D01*
X43561D02*
X50419D01*
X-66294Y305931D02*
X-59309D01*
X-47371D02*
X-40767D01*
X-35433D02*
X-27940D01*
X-14732D02*
X-13716D01*
X-508D02*
X508D01*
X7112D02*
X13716D01*
X31242D02*
X38354D01*
X43561D02*
X50419D01*
X-66294Y305804D02*
X-59436D01*
X-47371D02*
X-40767D01*
X-35433D02*
X-28067D01*
X-14605D02*
X-13589D01*
X-635D02*
X381D01*
X7112D02*
X13716D01*
X31242D02*
X38481D01*
X43434D02*
X50292D01*
X-66294Y305677D02*
X-59436D01*
X-47371D02*
X-40767D01*
X-35560D02*
X-28067D01*
X-14478D02*
X-13335D01*
X-762D02*
X254D01*
X7112D02*
X13716D01*
X31369D02*
X38481D01*
X43434D02*
X50292D01*
X-66294Y305550D02*
X-59436D01*
X-47371D02*
X-40767D01*
X-35560D02*
X-28194D01*
X-14351D02*
X-13208D01*
X-1016D02*
X127D01*
X7112D02*
X13716D01*
X31369D02*
X38608D01*
X43307D02*
X50165D01*
X-66294Y305423D02*
X-59563D01*
X-47371D02*
X-40767D01*
X-35560D02*
X-28194D01*
X-14097D02*
X-12954D01*
X-1270D02*
X-127D01*
X7112D02*
X13716D01*
X31496D02*
X38608D01*
X43307D02*
X50165D01*
X-66294Y305296D02*
X-59563D01*
X-47371D02*
X-40767D01*
X-35560D02*
X-28321D01*
X-13970D02*
X-12827D01*
X-1397D02*
X-127D01*
X7112D02*
X13716D01*
X31496D02*
X38735D01*
X43180D02*
X50038D01*
X-66421Y305169D02*
X-59563D01*
X-47371D02*
X-40767D01*
X-35687D02*
X-28321D01*
X-13716D02*
X-12573D01*
X-1651D02*
X-127D01*
X7112D02*
X13716D01*
X31623D02*
X38735D01*
X43180D02*
X50038D01*
X-66421Y305042D02*
X-59690D01*
X-47371D02*
X-40767D01*
X-35687D02*
X-28448D01*
X-13589D02*
X-12319D01*
X-1778D02*
X0D01*
X7112D02*
X13716D01*
X31623D02*
X38862D01*
X43053D02*
X49911D01*
X-66421Y304915D02*
X-59690D01*
X-47371D02*
X-40767D01*
X-35687D02*
X-28448D01*
X-13335D02*
X-12065D01*
X-2159D02*
X0D01*
X7112D02*
X13716D01*
X31750D02*
X38862D01*
X43053D02*
X49911D01*
X-66421Y304788D02*
X-59690D01*
X-47371D02*
X-40767D01*
X-35814D02*
X-28575D01*
X-13208D02*
X-11811D01*
X-2413D02*
X0D01*
X7112D02*
X13716D01*
X31750D02*
X38989D01*
X42926D02*
X49911D01*
X-66421Y304661D02*
X-59690D01*
X-47371D02*
X-40767D01*
X-35814D02*
X-28575D01*
X-12954D02*
X-11557D01*
X-2667D02*
X127D01*
X7112D02*
X13716D01*
X31877D02*
X38989D01*
X42926D02*
X49784D01*
X-66421Y304534D02*
X-59817D01*
X-47371D02*
X-40767D01*
X-35814D02*
X-28575D01*
X-12827D02*
X-11303D01*
X-2921D02*
X127D01*
X7112D02*
X13716D01*
X31877D02*
X39116D01*
X42926D02*
X49784D01*
X-66421Y304407D02*
X-59817D01*
X-47371D02*
X-40767D01*
X-35814D02*
X-28702D01*
X-12573D02*
X-10922D01*
X-3302D02*
X127D01*
X7112D02*
X13716D01*
X32004D02*
X39116D01*
X42799D02*
X49657D01*
X-66421Y304280D02*
X-59817D01*
X-47371D02*
X-40767D01*
X-35941D02*
X-28702D01*
X-12319D02*
X-10668D01*
X-3556D02*
X127D01*
X7112D02*
X13716D01*
X32004D02*
X39243D01*
X42799D02*
X49657D01*
X-66548Y304153D02*
X-59817D01*
X-47371D02*
X-40767D01*
X-35941D02*
X-28829D01*
X-11938D02*
X-10287D01*
X-3937D02*
X254D01*
X7112D02*
X13716D01*
X32131D02*
X39243D01*
X42672D02*
X49530D01*
X-66548Y304026D02*
X-59817D01*
X-47371D02*
X-40767D01*
X-35941D02*
X-28829D01*
X-11684D02*
X-9779D01*
X-4445D02*
X254D01*
X7112D02*
X13716D01*
X32131D02*
X39370D01*
X42672D02*
X49530D01*
X-66548Y303899D02*
X-59817D01*
X-47371D02*
X-40767D01*
X-35941D02*
X-28829D01*
X-11430D02*
X-9144D01*
X-5080D02*
X254D01*
X7112D02*
X13716D01*
X32258D02*
X39370D01*
X42545D02*
X49403D01*
X-66548Y303772D02*
X-59817D01*
X-47371D02*
X-40767D01*
X-36068D02*
X-28956D01*
X-11049D02*
X-8382D01*
X-5842D02*
X254D01*
X7112D02*
X13716D01*
X32258D02*
X39497D01*
X42545D02*
X49403D01*
X-66548Y303645D02*
X-59944D01*
X-47371D02*
X-40767D01*
X-36068D02*
X-28956D01*
X-10668D02*
X381D01*
X7112D02*
X13716D01*
X32385D02*
X39497D01*
X42418D02*
X49276D01*
X-66548Y303518D02*
X-59944D01*
X-47371D02*
X-40767D01*
X-36068D02*
X-28956D01*
X-10287D02*
X381D01*
X7112D02*
X13716D01*
X32385D02*
X39624D01*
X42418D02*
X49276D01*
X-66548Y303391D02*
X-59944D01*
X-47371D02*
X-40767D01*
X-36068D02*
X-29083D01*
X-9779D02*
X381D01*
X7112D02*
X13716D01*
X32512D02*
X39624D01*
X42418D02*
X49149D01*
X-66548Y303264D02*
X-59944D01*
X-47371D02*
X-40767D01*
X-36195D02*
X-29083D01*
X-9144D02*
X381D01*
X7112D02*
X13716D01*
X32512D02*
X39751D01*
X42291D02*
X49149D01*
X-66548Y303137D02*
X-59944D01*
X-47371D02*
X-40767D01*
X-36195D02*
X-29083D01*
X-8382D02*
X381D01*
X7112D02*
X13716D01*
X32639D02*
X39751D01*
X42291D02*
X49149D01*
X-66548Y303010D02*
X-59944D01*
X-47371D02*
X-40767D01*
X-36195D02*
X-29210D01*
X-6604D02*
X508D01*
X7112D02*
X13716D01*
X32639D02*
X39751D01*
X42164D02*
X49022D01*
X-66548Y302883D02*
X-59944D01*
X-47371D02*
X-40767D01*
X-36195D02*
X-29210D01*
X-6604D02*
X508D01*
X7112D02*
X13716D01*
X32766D02*
X39878D01*
X42164D02*
X49022D01*
X-66548Y302756D02*
X-59944D01*
X-47371D02*
X-40767D01*
X-36195D02*
X-29210D01*
X-6477D02*
X508D01*
X7112D02*
X13716D01*
X32766D02*
X39878D01*
X42037D02*
X48895D01*
X-66548Y302629D02*
X-59944D01*
X-47371D02*
X-40767D01*
X-36195D02*
X-29210D01*
X-6477D02*
X508D01*
X7112D02*
X13716D01*
X32893D02*
X40005D01*
X42037D02*
X48895D01*
X-66548Y302502D02*
X-59944D01*
X-47371D02*
X-40767D01*
X-36322D02*
X-29337D01*
X-6477D02*
X508D01*
X7112D02*
X13716D01*
X32893D02*
X40005D01*
X41910D02*
X48768D01*
X-66548Y302375D02*
X-59944D01*
X-47371D02*
X-40767D01*
X-36322D02*
X-29337D01*
X-6477D02*
X508D01*
X7112D02*
X13716D01*
X33020D02*
X40132D01*
X41910D02*
X48768D01*
X-66548Y302248D02*
X-59817D01*
X-47371D02*
X-40767D01*
X-36322D02*
X-29337D01*
X-6350D02*
X635D01*
X7112D02*
X13716D01*
X33020D02*
X40132D01*
X41783D02*
X48641D01*
X-66548Y302121D02*
X-59817D01*
X-47371D02*
X-40767D01*
X-36322D02*
X-29337D01*
X-6350D02*
X635D01*
X7112D02*
X13716D01*
X33147D02*
X40259D01*
X41783D02*
X48641D01*
X-66548Y301994D02*
X-59817D01*
X-47371D02*
X-40767D01*
X-36322D02*
X-29337D01*
X-6350D02*
X635D01*
X7112D02*
X13716D01*
X33147D02*
X40259D01*
X41783D02*
X48514D01*
X-66421Y301867D02*
X-59817D01*
X-47371D02*
X-40767D01*
X-36322D02*
X-29464D01*
X-6350D02*
X635D01*
X7112D02*
X13716D01*
X33274D02*
X40386D01*
X41656D02*
X48514D01*
X-66421Y301740D02*
X-59817D01*
X-47371D02*
X-40767D01*
X-36322D02*
X-29464D01*
X-6350D02*
X635D01*
X7112D02*
X13716D01*
X33274D02*
X40386D01*
X41656D02*
X48514D01*
X-66421Y301613D02*
X-59817D01*
X-47371D02*
X-40767D01*
X-36322D02*
X-29464D01*
X-6223D02*
X635D01*
X7112D02*
X13716D01*
X33401D02*
X40513D01*
X41529D02*
X48387D01*
X-66421Y301486D02*
X-59690D01*
X-47371D02*
X-40767D01*
X-36449D02*
X-29464D01*
X-6223D02*
X635D01*
X7112D02*
X13716D01*
X33401D02*
X40513D01*
X41529D02*
X48387D01*
X-66421Y301359D02*
X-59690D01*
X-47371D02*
X-40767D01*
X-36449D02*
X-29464D01*
X-6223D02*
X635D01*
X7112D02*
X13716D01*
X33401D02*
X40640D01*
X41402D02*
X48260D01*
X-66421Y301232D02*
X-59690D01*
X-47371D02*
X-40767D01*
X-36449D02*
X-29464D01*
X-6223D02*
X635D01*
X7112D02*
X13716D01*
X33528D02*
X40640D01*
X41402D02*
X48260D01*
X-66421Y301105D02*
X-59690D01*
X-47371D02*
X-40767D01*
X-36449D02*
X-29464D01*
X-6223D02*
X635D01*
X7112D02*
X13716D01*
X33655D02*
X40767D01*
X41275D02*
X48133D01*
X-66421Y300978D02*
X-59563D01*
X-47371D02*
X-40767D01*
X-36449D02*
X-29591D01*
X-6223D02*
X762D01*
X7112D02*
X13716D01*
X33655D02*
X40767D01*
X41275D02*
X48133D01*
X-66294Y300851D02*
X-59563D01*
X-47371D02*
X-40767D01*
X-36449D02*
X-29591D01*
X-6223D02*
X762D01*
X7112D02*
X13716D01*
X33655D02*
X40894D01*
X41275D02*
X48006D01*
X-66294Y300724D02*
X-59563D01*
X-47371D02*
X-40767D01*
X-36449D02*
X-29591D01*
X-6223D02*
X762D01*
X7112D02*
X13716D01*
X33782D02*
X40894D01*
X41148D02*
X48006D01*
X-66294Y300597D02*
X-59563D01*
X-47371D02*
X-40767D01*
X-36449D02*
X-29591D01*
X-6223D02*
X762D01*
X7112D02*
X13716D01*
X33782D02*
X41021D01*
X41148D02*
X47879D01*
X-66294Y300470D02*
X-59436D01*
X-47371D02*
X-40767D01*
X-36449D02*
X-29591D01*
X-6096D02*
X762D01*
X7112D02*
X13716D01*
X33909D02*
X47879D01*
X-66294Y300343D02*
X-59436D01*
X-47371D02*
X-40767D01*
X-36449D02*
X-29591D01*
X-6096D02*
X762D01*
X7112D02*
X13716D01*
X33909D02*
X47752D01*
X-66294Y300216D02*
X-59309D01*
X-47371D02*
X-40767D01*
X-36449D02*
X-29591D01*
X-6096D02*
X762D01*
X7112D02*
X13716D01*
X34036D02*
X47752D01*
X-66167Y300089D02*
X-59309D01*
X-47371D02*
X-40767D01*
X-36449D02*
X-29591D01*
X-6096D02*
X762D01*
X7112D02*
X13716D01*
X34036D02*
X47752D01*
X-66167Y299962D02*
X-59182D01*
X-47371D02*
X-40767D01*
X-36449D02*
X-29591D01*
X-6096D02*
X762D01*
X7112D02*
X13716D01*
X34163D02*
X47625D01*
X-66167Y299835D02*
X-59182D01*
X-47371D02*
X-40767D01*
X-36449D02*
X-29591D01*
X-6096D02*
X762D01*
X7112D02*
X13716D01*
X34163D02*
X47625D01*
X-66167Y299708D02*
X-59055D01*
X-47371D02*
X-40767D01*
X-36449D02*
X-29591D01*
X-6096D02*
X762D01*
X7112D02*
X13716D01*
X34290D02*
X47498D01*
X-66040Y299581D02*
X-59055D01*
X-47371D02*
X-40767D01*
X-36449D02*
X-29591D01*
X-6096D02*
X762D01*
X7112D02*
X13716D01*
X34290D02*
X47498D01*
X-66040Y299454D02*
X-58928D01*
X-47371D02*
X-40767D01*
X-36449D02*
X-29591D01*
X-6096D02*
X762D01*
X7112D02*
X13716D01*
X34417D02*
X47371D01*
X-66040Y299327D02*
X-58928D01*
X-47371D02*
X-40767D01*
X-36449D02*
X-29591D01*
X-6096D02*
X762D01*
X7112D02*
X13716D01*
X34417D02*
X47371D01*
X-66040Y299200D02*
X-58801D01*
X-47498D02*
X-40767D01*
X-36449D02*
X-29591D01*
X-6096D02*
X762D01*
X7112D02*
X13716D01*
X34544D02*
X47244D01*
X-65913Y299073D02*
X-58674D01*
X-47625D02*
X-40767D01*
X-36449D02*
X-29591D01*
X-6096D02*
X762D01*
X7112D02*
X13716D01*
X34544D02*
X47244D01*
X-65913Y298946D02*
X-58674D01*
X-47752D02*
X-40767D01*
X-36449D02*
X-29591D01*
X-6096D02*
X762D01*
X7112D02*
X13716D01*
X34671D02*
X47117D01*
X-65913Y298819D02*
X-58547D01*
X-47879D02*
X-40767D01*
X-36449D02*
X-29591D01*
X-6096D02*
X762D01*
X7112D02*
X13716D01*
X34671D02*
X47117D01*
X-65786Y298692D02*
X-58420D01*
X-47879D02*
X-40767D01*
X-36449D02*
X-29591D01*
X-6096D02*
X762D01*
X7112D02*
X13716D01*
X34798D02*
X46990D01*
X-65786Y298565D02*
X-58293D01*
X-48006D02*
X-40767D01*
X-36449D02*
X-29591D01*
X-6096D02*
X762D01*
X7112D02*
X13716D01*
X34798D02*
X46990D01*
X-65786Y298438D02*
X-58293D01*
X-48133D02*
X-40767D01*
X-36449D02*
X-29591D01*
X-6223D02*
X762D01*
X7112D02*
X13716D01*
X34925D02*
X46990D01*
X-65659Y298311D02*
X-58166D01*
X-48260D02*
X-40767D01*
X-36449D02*
X-29591D01*
X-6223D02*
X762D01*
X7112D02*
X13716D01*
X34925D02*
X46863D01*
X-65659Y298184D02*
X-58039D01*
X-48387D02*
X-40767D01*
X-36449D02*
X-29591D01*
X-6223D02*
X762D01*
X7112D02*
X13716D01*
X35052D02*
X46863D01*
X-65532Y298057D02*
X-57912D01*
X-48641D02*
X-40767D01*
X-36449D02*
X-29591D01*
X-6223D02*
X762D01*
X7112D02*
X13716D01*
X35052D02*
X46736D01*
X-65532Y297930D02*
X-57785D01*
X-48768D02*
X-40767D01*
X-36449D02*
X-29464D01*
X-6223D02*
X635D01*
X7112D02*
X13716D01*
X35179D02*
X46736D01*
X-65532Y297803D02*
X-57531D01*
X-48895D02*
X-40767D01*
X-36449D02*
X-29464D01*
X-6223D02*
X635D01*
X7112D02*
X13716D01*
X35179D02*
X46609D01*
X-65405Y297676D02*
X-57404D01*
X-49022D02*
X-40767D01*
X-36449D02*
X-29464D01*
X-6223D02*
X635D01*
X7112D02*
X13716D01*
X35306D02*
X46609D01*
X-65405Y297549D02*
X-57277D01*
X-49276D02*
X-40767D01*
X-36449D02*
X-29464D01*
X-6223D02*
X635D01*
X7112D02*
X13716D01*
X35306D02*
X46482D01*
X-65278Y297422D02*
X-57023D01*
X-49403D02*
X-40767D01*
X-36322D02*
X-29464D01*
X-6223D02*
X635D01*
X7112D02*
X13716D01*
X35433D02*
X46482D01*
X-65278Y297295D02*
X-56896D01*
X-49657D02*
X-40767D01*
X-36322D02*
X-29464D01*
X-6350D02*
X635D01*
X7112D02*
X13716D01*
X35433D02*
X46355D01*
X-65151Y297168D02*
X-56642D01*
X-49911D02*
X-40767D01*
X-36322D02*
X-29464D01*
X-6350D02*
X635D01*
X7112D02*
X13716D01*
X35560D02*
X46355D01*
X-65151Y297041D02*
X-56388D01*
X-50165D02*
X-40767D01*
X-36322D02*
X-29337D01*
X-6350D02*
X635D01*
X7112D02*
X13716D01*
X35560D02*
X46228D01*
X-65024Y296914D02*
X-56134D01*
X-50419D02*
X-40767D01*
X-36322D02*
X-29337D01*
X-6350D02*
X635D01*
X7112D02*
X13716D01*
X35687D02*
X46228D01*
X-65024Y296787D02*
X-55880D01*
X-50673D02*
X-40767D01*
X-36322D02*
X-29337D01*
X-6350D02*
X508D01*
X7112D02*
X13716D01*
X35687D02*
X46228D01*
X-64897Y296660D02*
X-55499D01*
X-51054D02*
X-40767D01*
X-36322D02*
X-29337D01*
X-6477D02*
X508D01*
X7112D02*
X13716D01*
X35814D02*
X46101D01*
X-64897Y296533D02*
X-55118D01*
X-51562D02*
X-40767D01*
X-36322D02*
X-29337D01*
X-6477D02*
X508D01*
X7112D02*
X13716D01*
X35814D02*
X46101D01*
X-64770Y296406D02*
X-54610D01*
X-52197D02*
X-40767D01*
X-36195D02*
X-29210D01*
X-6477D02*
X508D01*
X7112D02*
X13716D01*
X35941D02*
X45974D01*
X-64770Y296279D02*
X-40767D01*
X-36195D02*
X-29210D01*
X-6477D02*
X508D01*
X7112D02*
X13716D01*
X35941D02*
X45974D01*
X-64643Y296152D02*
X-40767D01*
X-36195D02*
X-29210D01*
X-6604D02*
X508D01*
X7112D02*
X13716D01*
X36068D02*
X45847D01*
X-64516Y296025D02*
X-40767D01*
X-36195D02*
X-29083D01*
X-6604D02*
X508D01*
X7112D02*
X13716D01*
X36068D02*
X45847D01*
X-64516Y295898D02*
X-40767D01*
X-36195D02*
X-29083D01*
X-6604D02*
X381D01*
X7112D02*
X13716D01*
X36195D02*
X45720D01*
X-64389Y295771D02*
X-40767D01*
X-36068D02*
X-29083D01*
X-6604D02*
X381D01*
X7112D02*
X13716D01*
X36195D02*
X45720D01*
X-64389Y295644D02*
X-40767D01*
X-36068D02*
X-29083D01*
X-6731D02*
X381D01*
X7112D02*
X13716D01*
X36322D02*
X45593D01*
X-64262Y295517D02*
X-40767D01*
X-36068D02*
X-28956D01*
X-6731D02*
X381D01*
X7112D02*
X13716D01*
X36322D02*
X45593D01*
X-64135Y295390D02*
X-40767D01*
X-36068D02*
X-28956D01*
X-6731D02*
X381D01*
X7112D02*
X13716D01*
X36449D02*
X45593D01*
X-64135Y295263D02*
X-40767D01*
X-36068D02*
X-28956D01*
X-6858D02*
X254D01*
X7112D02*
X13716D01*
X36449D02*
X45466D01*
X-64008Y295136D02*
X-40767D01*
X-35941D02*
X-28829D01*
X-6858D02*
X254D01*
X7112D02*
X13716D01*
X36576D02*
X45466D01*
X-63881Y295009D02*
X-40767D01*
X-35941D02*
X-28829D01*
X-6858D02*
X254D01*
X7112D02*
X13716D01*
X36576D02*
X45339D01*
X-63754Y294882D02*
X-40767D01*
X-35941D02*
X-28829D01*
X-6985D02*
X254D01*
X7112D02*
X13716D01*
X36703D02*
X45339D01*
X-63754Y294755D02*
X-40767D01*
X-35941D02*
X-28702D01*
X-6985D02*
X127D01*
X7112D02*
X13716D01*
X36703D02*
X45212D01*
X-63627Y294628D02*
X-40767D01*
X-35814D02*
X-28702D01*
X-7112D02*
X127D01*
X7112D02*
X13716D01*
X36830D02*
X45212D01*
X-63500Y294501D02*
X-40767D01*
X-35814D02*
X-28575D01*
X-7112D02*
X127D01*
X7112D02*
X13716D01*
X36830D02*
X45085D01*
X-63373Y294374D02*
X-40767D01*
X-35814D02*
X-28575D01*
X-7112D02*
X127D01*
X7112D02*
X13716D01*
X36957D02*
X45085D01*
X-63246Y294247D02*
X-40767D01*
X-35814D02*
X-28448D01*
X-7239D02*
X0D01*
X7112D02*
X13716D01*
X36957D02*
X44958D01*
X-63119Y294120D02*
X-40767D01*
X-35687D02*
X-28448D01*
X-7239D02*
X0D01*
X7112D02*
X13716D01*
X37084D02*
X44958D01*
X-62992Y293993D02*
X-40767D01*
X-35687D02*
X-28448D01*
X-7366D02*
X0D01*
X7112D02*
X13716D01*
X37084D02*
X44831D01*
X-62865Y293866D02*
X-40767D01*
X-35687D02*
X-28321D01*
X-7366D02*
X-127D01*
X7112D02*
X13716D01*
X37211D02*
X44831D01*
X-62738Y293739D02*
X-40767D01*
X-35560D02*
X-28321D01*
X-7493D02*
X-127D01*
X7112D02*
X13716D01*
X37211D02*
X44831D01*
X-62611Y293612D02*
X-40767D01*
X-35560D02*
X-28194D01*
X-7493D02*
X-127D01*
X7112D02*
X13716D01*
X37338D02*
X44704D01*
X-62484Y293485D02*
X-40767D01*
X-35560D02*
X-28194D01*
X-7620D02*
X-254D01*
X7112D02*
X13716D01*
X37338D02*
X44704D01*
X-62357Y293358D02*
X-40767D01*
X-35433D02*
X-28067D01*
X-7620D02*
X-254D01*
X7112D02*
X13716D01*
X37465D02*
X44577D01*
X-62230Y293231D02*
X-40767D01*
X-35433D02*
X-27940D01*
X-7747D02*
X-254D01*
X7112D02*
X13716D01*
X37465D02*
X44577D01*
X-62103Y293104D02*
X-40767D01*
X-35433D02*
X-27940D01*
X-7747D02*
X-381D01*
X7112D02*
X13716D01*
X37592D02*
X44450D01*
X-61976Y292977D02*
X-40767D01*
X-35306D02*
X-27813D01*
X-7874D02*
X-381D01*
X7112D02*
X13716D01*
X37592D02*
X44450D01*
X-61722Y292850D02*
X-40767D01*
X-35306D02*
X-27813D01*
X-8001D02*
X-381D01*
X7112D02*
X13716D01*
X37465D02*
X44323D01*
X-61595Y292723D02*
X-40767D01*
X-35306D02*
X-27686D01*
X-8001D02*
X-508D01*
X7112D02*
X13716D01*
X37465D02*
X44323D01*
X-61468Y292596D02*
X-47244D01*
X-47117D02*
X-40767D01*
X-35179D02*
X-27559D01*
X-8128D02*
X-508D01*
X7112D02*
X13716D01*
X37338D02*
X44196D01*
X-61214Y292469D02*
X-47371D01*
X-47117D02*
X-40767D01*
X-35179D02*
X-27559D01*
X-8255D02*
X-508D01*
X7112D02*
X13716D01*
X37338D02*
X44196D01*
X-61087Y292342D02*
X-47625D01*
X-47117D02*
X-40767D01*
X-35179D02*
X-27432D01*
X-8255D02*
X-635D01*
X7112D02*
X13716D01*
X37211D02*
X44069D01*
X-60833Y292215D02*
X-47752D01*
X-47117D02*
X-40767D01*
X-35052D02*
X-27305D01*
X-8382D02*
X-635D01*
X7112D02*
X13716D01*
X37211D02*
X44069D01*
X-60706Y292088D02*
X-47879D01*
X-47117D02*
X-40767D01*
X-35052D02*
X-27305D01*
X-8509D02*
X-762D01*
X7112D02*
X13716D01*
X37084D02*
X44069D01*
X-60452Y291961D02*
X-48133D01*
X-47117D02*
X-40767D01*
X-34925D02*
X-27178D01*
X-8509D02*
X-762D01*
X7112D02*
X13716D01*
X37084D02*
X43942D01*
X-60325Y291834D02*
X-48260D01*
X-47117D02*
X-40767D01*
X-34925D02*
X-27051D01*
X-8636D02*
X-889D01*
X7112D02*
X13716D01*
X36957D02*
X43942D01*
X-60071Y291707D02*
X-48514D01*
X-47117D02*
X-40767D01*
X-34798D02*
X-26924D01*
X-8763D02*
X-889D01*
X7112D02*
X13716D01*
X36957D02*
X43815D01*
X-59817Y291580D02*
X-48768D01*
X-47117D02*
X-40767D01*
X-34798D02*
X-26924D01*
X-8890D02*
X-889D01*
X7112D02*
X13716D01*
X36830D02*
X43815D01*
X-59563Y291453D02*
X-48895D01*
X-47117D02*
X-40767D01*
X-34671D02*
X-26797D01*
X-8890D02*
X-1016D01*
X7112D02*
X13716D01*
X36830D02*
X43688D01*
X-59309Y291326D02*
X-49149D01*
X-47117D02*
X-40767D01*
X-34671D02*
X-26670D01*
X-9017D02*
X-1016D01*
X7112D02*
X13716D01*
X36830D02*
X43688D01*
X-58928Y291199D02*
X-49403D01*
X-47117D02*
X-40767D01*
X-34671D02*
X-26543D01*
X-9144D02*
X-1143D01*
X7112D02*
X13716D01*
X36703D02*
X43561D01*
X-58674Y291072D02*
X-49657D01*
X-47117D02*
X-40767D01*
X-34544D02*
X-26416D01*
X-9271D02*
X-1143D01*
X7112D02*
X13716D01*
X36703D02*
X43561D01*
X-58293Y290945D02*
X-50038D01*
X-47117D02*
X-40767D01*
X-34544D02*
X-26289D01*
X-9398D02*
X-1270D01*
X7112D02*
X13716D01*
X36576D02*
X43434D01*
X-57912Y290818D02*
X-50292D01*
X-47117D02*
X-40767D01*
X-34417D02*
X-26162D01*
X-9525D02*
X-1270D01*
X7112D02*
X13716D01*
X36576D02*
X43434D01*
X-57531Y290691D02*
X-50673D01*
X-47117D02*
X-40767D01*
X-34290D02*
X-26035D01*
X-9652D02*
X-1397D01*
X7112D02*
X13716D01*
X36449D02*
X43307D01*
X-57023Y290564D02*
X-51181D01*
X-34290D02*
X-25908D01*
X-9779D02*
X-1397D01*
X36449D02*
X43307D01*
X-56515Y290437D02*
X-51689D01*
X-34163D02*
X-25781D01*
X-9906D02*
X-1524D01*
X36322D02*
X43307D01*
X-55753Y290310D02*
X-52324D01*
X-34163D02*
X-25654D01*
X-10033D02*
X-1524D01*
X36322D02*
X43180D01*
X-34036Y290183D02*
X-25527D01*
X-10160D02*
X-1651D01*
X36195D02*
X43180D01*
X-34036Y290056D02*
X-25400D01*
X-10287D02*
X-1778D01*
X36195D02*
X43053D01*
X-33909Y289929D02*
X-25273D01*
X-10414D02*
X-1778D01*
X36068D02*
X43053D01*
X-33909Y289802D02*
X-25146D01*
X-10668D02*
X-1905D01*
X36068D02*
X42926D01*
X-33782Y289675D02*
X-24892D01*
X-10795D02*
X-1905D01*
X35941D02*
X42926D01*
X-33655Y289548D02*
X-24765D01*
X-10922D02*
X-2032D01*
X35941D02*
X42799D01*
X-33655Y289421D02*
X-24638D01*
X-11176D02*
X-2159D01*
X35941D02*
X42799D01*
X-33528Y289294D02*
X-24384D01*
X-11303D02*
X-2159D01*
X35814D02*
X42672D01*
X-33401Y289167D02*
X-24257D01*
X-11430D02*
X-2286D01*
X35814D02*
X42672D01*
X-33401Y289040D02*
X-24003D01*
X-11684D02*
X-2413D01*
X35687D02*
X42545D01*
X-33274Y288913D02*
X-23876D01*
X-11938D02*
X-2413D01*
X35687D02*
X42545D01*
X-33147Y288786D02*
X-23622D01*
X-12065D02*
X-2540D01*
X35560D02*
X42545D01*
X-33147Y288659D02*
X-23368D01*
X-12319D02*
X-2667D01*
X35560D02*
X42418D01*
X-33020Y288532D02*
X-23114D01*
X-12573D02*
X-2667D01*
X35433D02*
X42418D01*
X-32893Y288405D02*
X-22860D01*
X-12827D02*
X-2794D01*
X35433D02*
X42291D01*
X-32766Y288278D02*
X-22606D01*
X-13081D02*
X-2921D01*
X35306D02*
X42291D01*
X-32766Y288151D02*
X-22352D01*
X-13335D02*
X-3048D01*
X35306D02*
X42164D01*
X-32639Y288024D02*
X-21971D01*
X-13716D02*
X-3048D01*
X35179D02*
X42164D01*
X-32512Y287897D02*
X-21717D01*
X-14097D02*
X-3175D01*
X35179D02*
X42037D01*
X-32385Y287770D02*
X-21336D01*
X-14478D02*
X-3302D01*
X35179D02*
X42037D01*
X-32258Y287643D02*
X-20828D01*
X-14859D02*
X-3429D01*
X35052D02*
X41910D01*
X-32258Y287516D02*
X-20320D01*
X-15494D02*
X-3556D01*
X35052D02*
X41910D01*
X-32131Y287389D02*
X-19558D01*
X-16129D02*
X-3683D01*
X34925D02*
X41910D01*
X-32004Y287262D02*
X-3683D01*
X34925D02*
X41783D01*
X-31877Y287135D02*
X-3810D01*
X34798D02*
X41783D01*
X-31750Y287008D02*
X-3937D01*
X34798D02*
X41656D01*
X-31623Y286881D02*
X-4064D01*
X34671D02*
X41656D01*
X-31496Y286754D02*
X-4191D01*
X34671D02*
X41529D01*
X-31369Y286627D02*
X-4318D01*
X34544D02*
X41529D01*
X-31242Y286500D02*
X-4445D01*
X34544D02*
X41402D01*
X-31115Y286373D02*
X-4572D01*
X34417D02*
X41402D01*
X-30988Y286246D02*
X-4699D01*
X34417D02*
X41275D01*
X-30861Y286119D02*
X-4826D01*
X34290D02*
X41275D01*
X-30734Y285992D02*
X-4953D01*
X34290D02*
X41148D01*
X-30607Y285865D02*
X-5080D01*
X34290D02*
X41148D01*
X-30480Y285738D02*
X-5207D01*
X34163D02*
X41148D01*
X-30353Y285611D02*
X-5334D01*
X34163D02*
X41021D01*
X-30226Y285484D02*
X-5588D01*
X34036D02*
X41021D01*
X-30099Y285357D02*
X-5715D01*
X34036D02*
X40894D01*
X-29845Y285230D02*
X-5842D01*
X33909D02*
X40894D01*
X-29718Y285103D02*
X-5969D01*
X33909D02*
X40767D01*
X-29591Y284976D02*
X-6223D01*
X33782D02*
X40767D01*
X-29337Y284849D02*
X-6350D01*
X33782D02*
X40640D01*
X-29210Y284722D02*
X-6477D01*
X33655D02*
X40640D01*
X-29083Y284595D02*
X-6731D01*
X33655D02*
X40513D01*
X-28829Y284468D02*
X-6858D01*
X33528D02*
X40513D01*
X-28702Y284341D02*
X-6985D01*
X33528D02*
X40386D01*
X-28448Y284214D02*
X-7239D01*
X33528D02*
X40386D01*
X-28321Y284087D02*
X-7493D01*
X33401D02*
X40386D01*
X-28067Y283960D02*
X-7620D01*
X33401D02*
X40259D01*
X-27940Y283833D02*
X-7874D01*
X33274D02*
X40259D01*
X-27686Y283706D02*
X-8001D01*
X33274D02*
X40132D01*
X-27432Y283579D02*
X-8255D01*
X33147D02*
X40132D01*
X-27178Y283452D02*
X-8509D01*
X33147D02*
X40005D01*
X-27051Y283325D02*
X-8763D01*
X33020D02*
X40005D01*
X-26797Y283198D02*
X-9017D01*
X33020D02*
X39878D01*
X-26543Y283071D02*
X-9271D01*
X32893D02*
X39878D01*
X-26289Y282944D02*
X-9525D01*
X32893D02*
X39751D01*
X-25908Y282817D02*
X-9779D01*
X32766D02*
X39751D01*
X-25654Y282690D02*
X-10033D01*
X32766D02*
X39624D01*
X-25400Y282563D02*
X-10414D01*
X32766D02*
X39624D01*
X-25019Y282436D02*
X-10668D01*
X32639D02*
X39624D01*
X-24638Y282309D02*
X-11049D01*
X32639D02*
X39497D01*
X-24384Y282182D02*
X-11430D01*
X32512D02*
X39497D01*
X-23876Y282055D02*
X-11811D01*
X32512D02*
X39370D01*
X-23495Y281928D02*
X-12192D01*
X32385D02*
X39370D01*
X-22987Y281801D02*
X-12700D01*
X32385D02*
X39243D01*
X-22479Y281674D02*
X-13208D01*
X32258D02*
X39243D01*
X-21971Y281547D02*
X-13843D01*
X32258D02*
X39116D01*
X-21209Y281420D02*
X-14478D01*
X32131D02*
X39116D01*
X-20320Y281293D02*
X-15367D01*
X32131D02*
X38989D01*
X-18669Y281166D02*
X-17145D01*
X32004D02*
X38989D01*
X32004Y281039D02*
X38862D01*
X32004Y280912D02*
X38862D01*
X31877Y280785D02*
X38862D01*
X31877Y280658D02*
X38735D01*
X31750Y280531D02*
X38735D01*
X31750Y280404D02*
X38608D01*
X31623Y280277D02*
X38608D01*
X31623Y280150D02*
X38481D01*
X31496Y280023D02*
X38481D01*
X31496Y279896D02*
X38354D01*
X31369Y279769D02*
X38354D01*
X31369Y279642D02*
X38227D01*
X31242Y279515D02*
X38227D01*
X31242Y279388D02*
X38100D01*
X31115Y279261D02*
X38100D01*
X31115Y279134D02*
X38100D01*
X31115Y279007D02*
X37973D01*
X30988Y278880D02*
X37973D01*
X30988Y278753D02*
X37846D01*
X30861Y278626D02*
X37846D01*
X30861Y278499D02*
X37719D01*
X30734Y278372D02*
X37719D01*
D79*
X-395500Y173500D02*
X-391000Y169000D01*
X-395500Y173500D02*
Y198000D01*
X-391000Y169000D02*
X-369000D01*
X-395500Y222000D02*
Y248000D01*
X-369000Y169000D02*
X-364500Y173500D01*
Y198000D01*
X-395500Y248000D02*
X-364500D01*
Y222000D02*
Y248000D01*
X-259048Y94544D02*
X-255048D01*
X-259048Y101544D02*
X-255048D01*
X-263500Y53000D02*
Y57000D01*
X-256500Y53000D02*
Y57000D01*
X-222000Y56000D02*
X-218000D01*
X-222000Y49000D02*
X-218000D01*
X-192000D02*
X-188000D01*
X-192000Y56000D02*
X-188000D01*
X143288Y-128976D02*
X147288D01*
X143288Y-121976D02*
X147288D01*
X138208Y-113736D02*
X142208D01*
X138208Y-106736D02*
X142208D01*
X142272Y-51872D02*
X146272D01*
X142272Y-58872D02*
X146272D01*
X142272Y-35616D02*
X146272D01*
X142272Y-42616D02*
X146272D01*
X459128Y-202240D02*
X463128D01*
X459128Y-209240D02*
X463128D01*
X495840Y131120D02*
X499840D01*
X495840Y138120D02*
X499840D01*
X-81500Y152572D02*
Y156572D01*
X-88500Y152572D02*
Y156572D01*
X-88500Y182572D02*
Y186572D01*
X-81500Y182572D02*
Y186572D01*
X-198500Y182572D02*
Y186572D01*
X-191500Y182572D02*
Y186572D01*
X-191500Y152572D02*
Y156572D01*
X-198500Y152572D02*
Y156572D01*
X-413032Y225612D02*
Y229612D01*
X-420032Y225612D02*
Y229612D01*
X-413900Y-29908D02*
Y-21908D01*
X-398900Y-29908D02*
Y-21908D01*
X-434284Y-19780D02*
Y-15780D01*
X-427284Y-19780D02*
Y-15780D01*
X-520644Y-107156D02*
Y-103156D01*
X-513644Y-107156D02*
Y-103156D01*
X-406500Y-107428D02*
Y-103428D01*
X-413500Y-107428D02*
Y-103428D01*
X-446500Y-107428D02*
Y-103428D01*
X-453500Y-107428D02*
Y-103428D01*
X-486500Y-107428D02*
Y-103428D01*
X-493500Y-107428D02*
Y-103428D01*
X-474500Y-68928D02*
X-470500D01*
X-474500Y-61928D02*
X-470500D01*
X-498800Y-60928D02*
Y-56928D01*
X-491800Y-60928D02*
Y-56928D01*
X-430304Y225612D02*
Y229612D01*
X-437304Y225612D02*
Y229612D01*
X190500Y158500D02*
X194500D01*
X190500Y151500D02*
X194500D01*
X183500Y92572D02*
Y96572D01*
X176500Y92572D02*
Y96572D01*
X-498500Y-32428D02*
Y-28428D01*
X-491500Y-32428D02*
Y-28428D01*
X-444500Y-68928D02*
X-440500D01*
X-444500Y-61928D02*
X-440500D01*
X-562700Y46772D02*
X-537300D01*
X-562700D02*
Y132372D01*
X-537300D01*
Y46772D02*
Y132372D01*
X-562700Y-55828D02*
Y-5028D01*
X-537300D01*
X-562700Y-55828D02*
X-537300D01*
Y-5028D01*
X-81000Y-121428D02*
X-79000D01*
X-81000Y-109428D02*
X-79000D01*
X-520000Y46072D02*
Y53072D01*
Y46072D02*
X-490000D01*
X-520000Y53072D02*
X-490000D01*
Y46072D02*
Y53072D01*
X-241500Y53000D02*
Y57000D01*
X-248500Y53000D02*
Y57000D01*
X-387000Y-47428D02*
Y-41928D01*
X-387000Y-47428D02*
X-385400D01*
X-387000Y-18928D02*
Y-13428D01*
X-387000D02*
X-385400D01*
X-354600Y-47428D02*
X-353000D01*
Y-47428D02*
Y-41928D01*
Y-18928D02*
Y-13428D01*
X-354600D02*
X-353000D01*
X-415500Y52572D02*
X-413000D01*
X-415500Y76572D02*
X-413000D01*
X-397000Y52572D02*
X-394500D01*
X-397000Y76572D02*
X-394500D01*
X-466500Y-236928D02*
Y-231828D01*
Y-236928D02*
X-466250D01*
X-466500Y-203928D02*
X-466250D01*
X-466500Y-209028D02*
Y-203928D01*
X-433750Y-236928D02*
X-433500D01*
Y-231828D01*
X-433750Y-203928D02*
X-433500D01*
Y-209028D02*
Y-203928D01*
X428500Y-157678D02*
Y-113178D01*
X501500D01*
X428500Y-157678D02*
X501500D01*
Y-113178D01*
X-151500Y154072D02*
Y185072D01*
X-128500D01*
X-151500Y154072D02*
X-128500D01*
Y185072D01*
X-343900Y-262700D02*
Y-237300D01*
Y-262700D02*
X-242300D01*
X-343900Y-237300D02*
X-242300D01*
Y-262700D02*
Y-237300D01*
X-204000Y-16428D02*
Y-3928D01*
X-204000Y-66928D02*
Y-54428D01*
Y-66928D02*
X-186000D01*
X-204000Y-3928D02*
X-186000D01*
X-186000Y-66928D02*
Y-54428D01*
X-186000Y-16428D02*
Y-3928D01*
X529800Y74800D02*
Y125600D01*
X555200D01*
X529800Y74800D02*
X555200D01*
Y125600D01*
X-144440Y-76876D02*
Y29124D01*
Y-76876D02*
X-38440D01*
X-144440Y29124D02*
X-38440D01*
Y-76876D02*
Y29124D01*
X-341764Y-31940D02*
Y-23940D01*
X-326764Y-31940D02*
Y-23940D01*
D80*
X-550022Y6272D02*
Y-1392D01*
X-546190Y2440D02*
X-553854D01*
D81*
X-562019Y-80765D02*
D03*
D82*
X-559479Y-88449D02*
D03*
D83*
X-559149Y-73183D02*
D03*
M02*
