G75*
%MOIN*%
%OFA0B0*%
%FSLAX25Y25*%
%IPPOS*%
%LPD*%
%AMOC8*
5,1,8,0,0,1.08239X$1,22.5*
%
%ADD10C,0.00100*%
%ADD11C,0.01100*%
%ADD12C,0.00600*%
%ADD13R,0.14000X0.00100*%
%ADD14R,0.14600X0.00100*%
%ADD15R,0.15200X0.00100*%
%ADD16R,0.15700X0.00100*%
%ADD17R,0.16000X0.00100*%
%ADD18R,0.16300X0.00100*%
%ADD19R,0.16400X0.00100*%
%ADD20R,0.16700X0.00100*%
%ADD21R,0.16800X0.00100*%
%ADD22R,0.01700X0.00100*%
%ADD23R,0.15000X0.00100*%
%ADD24R,0.01400X0.00100*%
%ADD25R,0.01200X0.00100*%
%ADD26R,0.01100X0.00100*%
%ADD27R,0.01000X0.00100*%
%ADD28R,0.00900X0.00100*%
%ADD29R,0.00400X0.00100*%
%ADD30R,0.00300X0.00100*%
%ADD31R,0.02700X0.00100*%
%ADD32R,0.00700X0.00100*%
%ADD33R,0.00500X0.00100*%
%ADD34R,0.01300X0.00100*%
%ADD35R,0.00600X0.00100*%
%ADD36R,0.02800X0.00100*%
%ADD37R,0.02300X0.00100*%
%ADD38R,0.00800X0.00100*%
%ADD39R,0.02600X0.00100*%
%ADD40R,0.02100X0.00100*%
%ADD41R,0.01900X0.00100*%
%ADD42R,0.02400X0.00100*%
%ADD43R,0.03200X0.00100*%
%ADD44R,0.02200X0.00100*%
%ADD45R,0.02500X0.00100*%
%ADD46R,0.03300X0.00100*%
%ADD47R,0.01500X0.00100*%
%ADD48R,0.00200X0.00100*%
%ADD49R,0.00100X0.00100*%
%ADD50R,0.01600X0.00100*%
%ADD51R,0.01800X0.00100*%
%ADD52R,0.03500X0.00100*%
%ADD53R,0.03000X0.00100*%
%ADD54R,0.02900X0.00100*%
%ADD55R,0.02000X0.00100*%
%ADD56R,0.03800X0.00100*%
%ADD57R,0.03600X0.00100*%
%ADD58R,0.03100X0.00100*%
%ADD59R,0.16600X0.00100*%
%ADD60R,0.16500X0.00100*%
%ADD61R,0.16200X0.00100*%
%ADD62R,0.16100X0.00100*%
%ADD63R,0.15800X0.00100*%
%ADD64R,0.15400X0.00100*%
%ADD65R,0.14900X0.00100*%
%ADD66R,0.14200X0.00100*%
%ADD67R,0.03248X0.00059*%
%ADD68R,0.03189X0.00059*%
%ADD69R,0.00709X0.00059*%
%ADD70R,0.02303X0.00059*%
%ADD71R,0.03130X0.00059*%
%ADD72R,0.03780X0.00059*%
%ADD73R,0.04311X0.00059*%
%ADD74R,0.04783X0.00059*%
%ADD75R,0.05256X0.00059*%
%ADD76R,0.05610X0.00059*%
%ADD77R,0.06024X0.00059*%
%ADD78R,0.06319X0.00059*%
%ADD79R,0.06673X0.00059*%
%ADD80R,0.06969X0.00059*%
%ADD81R,0.07264X0.00059*%
%ADD82R,0.07500X0.00059*%
%ADD83R,0.07795X0.00059*%
%ADD84R,0.08031X0.00059*%
%ADD85R,0.08268X0.00059*%
%ADD86R,0.08504X0.00059*%
%ADD87R,0.08681X0.00059*%
%ADD88R,0.08917X0.00059*%
%ADD89R,0.09154X0.00059*%
%ADD90R,0.09331X0.00059*%
%ADD91R,0.09508X0.00059*%
%ADD92R,0.09685X0.00059*%
%ADD93R,0.09862X0.00059*%
%ADD94R,0.10098X0.00059*%
%ADD95R,0.10217X0.00059*%
%ADD96R,0.10394X0.00059*%
%ADD97R,0.10571X0.00059*%
%ADD98R,0.10689X0.00059*%
%ADD99R,0.10866X0.00059*%
%ADD100R,0.11043X0.00059*%
%ADD101R,0.11161X0.00059*%
%ADD102R,0.11339X0.00059*%
%ADD103R,0.11457X0.00059*%
%ADD104R,0.11634X0.00059*%
%ADD105R,0.11752X0.00059*%
%ADD106R,0.11870X0.00059*%
%ADD107R,0.11988X0.00059*%
%ADD108R,0.12106X0.00059*%
%ADD109R,0.12224X0.00059*%
%ADD110R,0.12343X0.00059*%
%ADD111R,0.12461X0.00059*%
%ADD112R,0.12579X0.00059*%
%ADD113R,0.12697X0.00059*%
%ADD114R,0.12815X0.00059*%
%ADD115R,0.12933X0.00059*%
%ADD116R,0.13051X0.00059*%
%ADD117R,0.13169X0.00059*%
%ADD118R,0.05846X0.00059*%
%ADD119R,0.05787X0.00059*%
%ADD120R,0.05551X0.00059*%
%ADD121R,0.05315X0.00059*%
%ADD122R,0.05138X0.00059*%
%ADD123R,0.05197X0.00059*%
%ADD124R,0.05020X0.00059*%
%ADD125R,0.05079X0.00059*%
%ADD126R,0.04961X0.00059*%
%ADD127R,0.04843X0.00059*%
%ADD128R,0.04724X0.00059*%
%ADD129R,0.04665X0.00059*%
%ADD130R,0.04606X0.00059*%
%ADD131R,0.04547X0.00059*%
%ADD132R,0.04488X0.00059*%
%ADD133R,0.04429X0.00059*%
%ADD134R,0.04370X0.00059*%
%ADD135R,0.04252X0.00059*%
%ADD136R,0.04193X0.00059*%
%ADD137R,0.04134X0.00059*%
%ADD138R,0.04075X0.00059*%
%ADD139R,0.04016X0.00059*%
%ADD140R,0.03957X0.00059*%
%ADD141R,0.01594X0.00059*%
%ADD142R,0.02244X0.00059*%
%ADD143R,0.03898X0.00059*%
%ADD144R,0.02717X0.00059*%
%ADD145R,0.02953X0.00059*%
%ADD146R,0.03839X0.00059*%
%ADD147R,0.03071X0.00059*%
%ADD148R,0.03543X0.00059*%
%ADD149R,0.03720X0.00059*%
%ADD150R,0.03661X0.00059*%
%ADD151R,0.05374X0.00059*%
%ADD152R,0.03602X0.00059*%
%ADD153R,0.05728X0.00059*%
%ADD154R,0.05965X0.00059*%
%ADD155R,0.06083X0.00059*%
%ADD156R,0.06260X0.00059*%
%ADD157R,0.06437X0.00059*%
%ADD158R,0.06614X0.00059*%
%ADD159R,0.03484X0.00059*%
%ADD160R,0.09744X0.00059*%
%ADD161R,0.09921X0.00059*%
%ADD162R,0.03425X0.00059*%
%ADD163R,0.09980X0.00059*%
%ADD164R,0.03307X0.00059*%
%ADD165R,0.10039X0.00059*%
%ADD166R,0.10157X0.00059*%
%ADD167R,0.03366X0.00059*%
%ADD168R,0.10276X0.00059*%
%ADD169R,0.10335X0.00059*%
%ADD170R,0.10453X0.00059*%
%ADD171R,0.10512X0.00059*%
%ADD172R,0.10630X0.00059*%
%ADD173R,0.10748X0.00059*%
%ADD174R,0.10807X0.00059*%
%ADD175R,0.10925X0.00059*%
%ADD176R,0.10984X0.00059*%
%ADD177R,0.11102X0.00059*%
%ADD178R,0.04902X0.00059*%
%ADD179R,0.05433X0.00059*%
%ADD180R,0.05492X0.00059*%
%ADD181R,0.05669X0.00059*%
%ADD182R,0.05906X0.00059*%
%ADD183R,0.06142X0.00059*%
%ADD184R,0.06378X0.00059*%
%ADD185R,0.06496X0.00059*%
%ADD186R,0.01240X0.00059*%
%ADD187R,0.02835X0.00059*%
%ADD188R,0.01063X0.00059*%
%ADD189R,0.02480X0.00059*%
%ADD190R,0.00886X0.00059*%
%ADD191R,0.02185X0.00059*%
%ADD192R,0.00768X0.00059*%
%ADD193R,0.01949X0.00059*%
%ADD194R,0.01713X0.00059*%
%ADD195R,0.01417X0.00059*%
%ADD196R,0.00650X0.00059*%
%ADD197R,0.01299X0.00059*%
%ADD198R,0.01122X0.00059*%
%ADD199R,0.00591X0.00059*%
%ADD200R,0.01004X0.00059*%
%ADD201R,0.00827X0.00059*%
%ADD202R,0.00531X0.00059*%
%ADD203R,0.00472X0.00059*%
%ADD204R,0.00413X0.00059*%
%ADD205R,0.00354X0.00059*%
%ADD206R,0.01890X0.00059*%
%ADD207R,0.00945X0.00059*%
%ADD208R,0.00295X0.00059*%
%ADD209R,0.07028X0.00059*%
%ADD210R,0.07087X0.00059*%
%ADD211R,0.07146X0.00059*%
%ADD212R,0.06555X0.00059*%
%ADD213R,0.06201X0.00059*%
%ADD214R,0.07205X0.00059*%
%ADD215R,0.09803X0.00059*%
%ADD216R,0.09626X0.00059*%
%ADD217R,0.09567X0.00059*%
%ADD218R,0.03012X0.00059*%
%ADD219R,0.02894X0.00059*%
%ADD220R,0.02539X0.00059*%
%ADD221R,0.02362X0.00059*%
%ADD222R,0.01654X0.00059*%
%ADD223R,0.02657X0.00059*%
%ADD224R,0.02421X0.00059*%
%ADD225R,0.01476X0.00059*%
%ADD226C,0.00000*%
%ADD227R,0.00050X0.00050*%
%ADD228R,0.00350X0.00050*%
%ADD229R,0.00250X0.00050*%
%ADD230R,0.00600X0.00050*%
%ADD231R,0.00900X0.00050*%
%ADD232R,0.00850X0.00050*%
%ADD233R,0.01100X0.00050*%
%ADD234R,0.01150X0.00050*%
%ADD235R,0.01200X0.00050*%
%ADD236R,0.01250X0.00050*%
%ADD237R,0.01500X0.00050*%
%ADD238R,0.01450X0.00050*%
%ADD239R,0.01550X0.00050*%
%ADD240R,0.01600X0.00050*%
%ADD241R,0.01700X0.00050*%
%ADD242R,0.01750X0.00050*%
%ADD243R,0.01800X0.00050*%
%ADD244R,0.01950X0.00050*%
%ADD245R,0.01900X0.00050*%
%ADD246R,0.02000X0.00050*%
%ADD247R,0.02050X0.00050*%
%ADD248R,0.00100X0.00050*%
%ADD249R,0.02200X0.00050*%
%ADD250R,0.02250X0.00050*%
%ADD251R,0.02300X0.00050*%
%ADD252R,0.02350X0.00050*%
%ADD253R,0.02450X0.00050*%
%ADD254R,0.02400X0.00050*%
%ADD255R,0.02500X0.00050*%
%ADD256R,0.00150X0.00050*%
%ADD257R,0.02550X0.00050*%
%ADD258R,0.02600X0.00050*%
%ADD259R,0.00200X0.00050*%
%ADD260R,0.02700X0.00050*%
%ADD261R,0.00300X0.00050*%
%ADD262R,0.02650X0.00050*%
%ADD263R,0.02750X0.00050*%
%ADD264R,0.00400X0.00050*%
%ADD265R,0.00450X0.00050*%
%ADD266R,0.02800X0.00050*%
%ADD267R,0.00500X0.00050*%
%ADD268R,0.00550X0.00050*%
%ADD269R,0.00650X0.00050*%
%ADD270R,0.02850X0.00050*%
%ADD271R,0.00700X0.00050*%
%ADD272R,0.02900X0.00050*%
%ADD273R,0.00750X0.00050*%
%ADD274R,0.02950X0.00050*%
%ADD275R,0.00800X0.00050*%
%ADD276R,0.00950X0.00050*%
%ADD277R,0.01000X0.00050*%
%ADD278R,0.01050X0.00050*%
%ADD279R,0.03000X0.00050*%
%ADD280R,0.01300X0.00050*%
%ADD281R,0.03050X0.00050*%
%ADD282R,0.01350X0.00050*%
%ADD283R,0.01400X0.00050*%
%ADD284R,0.01650X0.00050*%
%ADD285R,0.01850X0.00050*%
%ADD286R,0.02100X0.00050*%
%ADD287R,0.02150X0.00050*%
%ADD288C,0.00800*%
%ADD289C,0.00400*%
%ADD290R,0.00984X0.00984*%
D10*
X0091780Y0019562D02*
X0091780Y0219467D01*
X0091794Y0219705D01*
X0091814Y0219942D01*
X0091839Y0220179D01*
X0091871Y0220416D01*
X0091907Y0220651D01*
X0091950Y0220886D01*
X0091998Y0221119D01*
X0092052Y0221352D01*
X0092112Y0221582D01*
X0092177Y0221812D01*
X0092248Y0222040D01*
X0092324Y0222266D01*
X0092405Y0222490D01*
X0092492Y0222712D01*
X0092584Y0222932D01*
X0092682Y0223149D01*
X0092785Y0223364D01*
X0092893Y0223577D01*
X0093006Y0223787D01*
X0093124Y0223994D01*
X0093247Y0224198D01*
X0093375Y0224399D01*
X0093508Y0224597D01*
X0093645Y0224792D01*
X0093787Y0224984D01*
X0093934Y0225172D01*
X0094085Y0225356D01*
X0094241Y0225536D01*
X0094401Y0225713D01*
X0094565Y0225886D01*
X0094734Y0226055D01*
X0094906Y0226220D01*
X0095082Y0226380D01*
X0095263Y0226536D01*
X0095446Y0226688D01*
X0095634Y0226836D01*
X0095825Y0226978D01*
X0096019Y0227116D01*
X0096217Y0227250D01*
X0096418Y0227378D01*
X0096622Y0227502D01*
X0096828Y0227621D01*
X0097038Y0227734D01*
X0097250Y0227843D01*
X0097465Y0227946D01*
X0097683Y0228044D01*
X0097902Y0228137D01*
X0098124Y0228225D01*
X0098348Y0228307D01*
X0098573Y0228384D01*
X0098801Y0228455D01*
X0099030Y0228521D01*
X0099261Y0228581D01*
X0099493Y0228635D01*
X0099726Y0228684D01*
X0099961Y0228728D01*
X0100196Y0228765D01*
X0100433Y0228797D01*
X0100670Y0228824D01*
X0100907Y0228844D01*
X0101145Y0228859D01*
X0101383Y0228868D01*
X0101622Y0228871D01*
X0101860Y0228868D01*
X0102099Y0228860D01*
X0102098Y0228861D02*
X0476594Y0228861D01*
X0476836Y0228858D01*
X0477077Y0228849D01*
X0477318Y0228835D01*
X0477559Y0228814D01*
X0477799Y0228788D01*
X0478039Y0228756D01*
X0478278Y0228718D01*
X0478515Y0228675D01*
X0478752Y0228625D01*
X0478987Y0228570D01*
X0479221Y0228510D01*
X0479453Y0228443D01*
X0479684Y0228372D01*
X0479913Y0228294D01*
X0480140Y0228211D01*
X0480365Y0228123D01*
X0480588Y0228029D01*
X0480808Y0227930D01*
X0481026Y0227825D01*
X0481241Y0227716D01*
X0481454Y0227601D01*
X0481664Y0227481D01*
X0481870Y0227356D01*
X0482074Y0227226D01*
X0482275Y0227091D01*
X0482472Y0226951D01*
X0482666Y0226807D01*
X0482856Y0226658D01*
X0483042Y0226504D01*
X0483225Y0226346D01*
X0483404Y0226184D01*
X0483579Y0226017D01*
X0483750Y0225846D01*
X0483917Y0225671D01*
X0484079Y0225492D01*
X0484237Y0225309D01*
X0484391Y0225123D01*
X0484540Y0224933D01*
X0484684Y0224739D01*
X0484824Y0224542D01*
X0484959Y0224341D01*
X0485089Y0224137D01*
X0485214Y0223931D01*
X0485334Y0223721D01*
X0485449Y0223508D01*
X0485558Y0223293D01*
X0485663Y0223075D01*
X0485762Y0222855D01*
X0485856Y0222632D01*
X0485944Y0222407D01*
X0486027Y0222180D01*
X0486105Y0221951D01*
X0486176Y0221720D01*
X0486243Y0221488D01*
X0486303Y0221254D01*
X0486358Y0221019D01*
X0486408Y0220782D01*
X0486451Y0220545D01*
X0486489Y0220306D01*
X0486521Y0220066D01*
X0486547Y0219826D01*
X0486568Y0219585D01*
X0486582Y0219344D01*
X0486591Y0219103D01*
X0486594Y0218861D01*
X0486594Y0017955D01*
X0486591Y0017713D01*
X0486582Y0017472D01*
X0486568Y0017231D01*
X0486547Y0016990D01*
X0486521Y0016750D01*
X0486489Y0016510D01*
X0486451Y0016271D01*
X0486408Y0016034D01*
X0486358Y0015797D01*
X0486303Y0015562D01*
X0486243Y0015328D01*
X0486176Y0015096D01*
X0486105Y0014865D01*
X0486027Y0014636D01*
X0485944Y0014409D01*
X0485856Y0014184D01*
X0485762Y0013961D01*
X0485663Y0013741D01*
X0485558Y0013523D01*
X0485449Y0013308D01*
X0485334Y0013095D01*
X0485214Y0012885D01*
X0485089Y0012679D01*
X0484959Y0012475D01*
X0484824Y0012274D01*
X0484684Y0012077D01*
X0484540Y0011883D01*
X0484391Y0011693D01*
X0484237Y0011507D01*
X0484079Y0011324D01*
X0483917Y0011145D01*
X0483750Y0010970D01*
X0483579Y0010799D01*
X0483404Y0010632D01*
X0483225Y0010470D01*
X0483042Y0010312D01*
X0482856Y0010158D01*
X0482666Y0010009D01*
X0482472Y0009865D01*
X0482275Y0009725D01*
X0482074Y0009590D01*
X0481870Y0009460D01*
X0481664Y0009335D01*
X0481454Y0009215D01*
X0481241Y0009100D01*
X0481026Y0008991D01*
X0480808Y0008886D01*
X0480588Y0008787D01*
X0480365Y0008693D01*
X0480140Y0008605D01*
X0479913Y0008522D01*
X0479684Y0008444D01*
X0479453Y0008373D01*
X0479221Y0008306D01*
X0478987Y0008246D01*
X0478752Y0008191D01*
X0478515Y0008141D01*
X0478278Y0008098D01*
X0478039Y0008060D01*
X0477799Y0008028D01*
X0477559Y0008002D01*
X0477318Y0007981D01*
X0477077Y0007967D01*
X0476836Y0007958D01*
X0476594Y0007955D01*
X0395677Y0007562D01*
X0396496Y0007562D01*
X0395677Y0007562D02*
X0212150Y0007562D01*
X0107780Y0007562D01*
X0107441Y0007518D01*
X0107101Y0007482D01*
X0106761Y0007454D01*
X0106419Y0007434D01*
X0106078Y0007423D01*
X0105736Y0007420D01*
X0105394Y0007425D01*
X0105053Y0007439D01*
X0104712Y0007460D01*
X0104371Y0007490D01*
X0104032Y0007528D01*
X0103693Y0007575D01*
X0103356Y0007629D01*
X0103020Y0007692D01*
X0102686Y0007763D01*
X0102353Y0007841D01*
X0102023Y0007928D01*
X0101694Y0008023D01*
X0101368Y0008126D01*
X0101045Y0008236D01*
X0100724Y0008355D01*
X0100407Y0008481D01*
X0100092Y0008614D01*
X0099781Y0008756D01*
X0099473Y0008904D01*
X0099169Y0009060D01*
X0098869Y0009224D01*
X0098573Y0009394D01*
X0098281Y0009572D01*
X0097993Y0009757D01*
X0097710Y0009948D01*
X0097432Y0010147D01*
X0097159Y0010352D01*
X0096890Y0010563D01*
X0096627Y0010781D01*
X0096369Y0011006D01*
X0096117Y0011236D01*
X0095870Y0011473D01*
X0095629Y0011715D01*
X0095394Y0011963D01*
X0095166Y0012217D01*
X0094943Y0012476D01*
X0094726Y0012741D01*
X0094517Y0013010D01*
X0094313Y0013285D01*
X0094117Y0013565D01*
X0093927Y0013849D01*
X0093744Y0014137D01*
X0093568Y0014430D01*
X0093399Y0014728D01*
X0093238Y0015029D01*
X0093083Y0015334D01*
X0092937Y0015642D01*
X0092797Y0015954D01*
X0092666Y0016270D01*
X0092542Y0016588D01*
X0092425Y0016910D01*
X0092317Y0017234D01*
X0092216Y0017560D01*
X0092123Y0017889D01*
X0092039Y0018220D01*
X0091962Y0018553D01*
X0091893Y0018888D01*
X0091833Y0019224D01*
X0091780Y0019562D01*
X0431008Y0029924D02*
X0438966Y0029886D01*
X0431008Y0029924D02*
X0431008Y0122424D01*
X0439008Y0122424D01*
X0439148Y0122421D01*
X0439288Y0122414D01*
X0439428Y0122403D01*
X0439567Y0122388D01*
X0439706Y0122369D01*
X0439844Y0122347D01*
X0439982Y0122320D01*
X0440119Y0122290D01*
X0440255Y0122255D01*
X0440390Y0122218D01*
X0440524Y0122176D01*
X0440656Y0122130D01*
X0440787Y0122081D01*
X0440917Y0122028D01*
X0441046Y0121972D01*
X0441172Y0121912D01*
X0441297Y0121848D01*
X0441420Y0121781D01*
X0441542Y0121711D01*
X0441661Y0121637D01*
X0441778Y0121559D01*
X0441893Y0121479D01*
X0442005Y0121395D01*
X0442115Y0121309D01*
X0442223Y0121219D01*
X0442328Y0121126D01*
X0442430Y0121030D01*
X0442530Y0120932D01*
X0442627Y0120831D01*
X0442721Y0120727D01*
X0442812Y0120620D01*
X0442900Y0120511D01*
X0442985Y0120400D01*
X0443067Y0120286D01*
X0443146Y0120170D01*
X0443221Y0120051D01*
X0443293Y0119931D01*
X0443361Y0119809D01*
X0443427Y0119685D01*
X0443488Y0119559D01*
X0443546Y0119431D01*
X0443601Y0119302D01*
X0443651Y0119171D01*
X0443699Y0119039D01*
X0443742Y0118906D01*
X0443782Y0118771D01*
X0443817Y0118636D01*
X0443849Y0118499D01*
X0443878Y0118362D01*
X0443902Y0118224D01*
X0443922Y0118085D01*
X0443939Y0117946D01*
X0443951Y0117806D01*
X0443960Y0117667D01*
X0443965Y0117526D01*
X0443966Y0117386D01*
X0443966Y0034886D01*
X0443964Y0034746D01*
X0443958Y0034606D01*
X0443948Y0034466D01*
X0443935Y0034326D01*
X0443917Y0034187D01*
X0443895Y0034048D01*
X0443870Y0033911D01*
X0443841Y0033773D01*
X0443808Y0033637D01*
X0443771Y0033502D01*
X0443730Y0033368D01*
X0443685Y0033235D01*
X0443637Y0033103D01*
X0443585Y0032973D01*
X0443530Y0032844D01*
X0443471Y0032717D01*
X0443408Y0032591D01*
X0443342Y0032467D01*
X0443273Y0032346D01*
X0443200Y0032226D01*
X0443123Y0032108D01*
X0443044Y0031993D01*
X0442961Y0031879D01*
X0442875Y0031769D01*
X0442786Y0031660D01*
X0442694Y0031554D01*
X0442599Y0031451D01*
X0442502Y0031350D01*
X0442401Y0031253D01*
X0442298Y0031158D01*
X0442192Y0031066D01*
X0442083Y0030977D01*
X0441973Y0030891D01*
X0441859Y0030808D01*
X0441744Y0030729D01*
X0441626Y0030652D01*
X0441506Y0030579D01*
X0441385Y0030510D01*
X0441261Y0030444D01*
X0441135Y0030381D01*
X0441008Y0030322D01*
X0440879Y0030267D01*
X0440749Y0030215D01*
X0440617Y0030167D01*
X0440484Y0030122D01*
X0440350Y0030081D01*
X0440215Y0030044D01*
X0440079Y0030011D01*
X0439941Y0029982D01*
X0439804Y0029957D01*
X0439665Y0029935D01*
X0439526Y0029917D01*
X0439386Y0029904D01*
X0439246Y0029894D01*
X0439106Y0029888D01*
X0438966Y0029886D01*
D11*
X0321379Y0166143D02*
X0321379Y0172048D01*
X0318426Y0172048D01*
X0317442Y0171064D01*
X0317442Y0169096D01*
X0318426Y0168112D01*
X0321379Y0168112D01*
X0323887Y0168112D02*
X0323887Y0171064D01*
X0324872Y0172048D01*
X0326840Y0172048D01*
X0326840Y0170080D02*
X0323887Y0170080D01*
X0323887Y0168112D02*
X0326840Y0168112D01*
X0327824Y0169096D01*
X0326840Y0170080D01*
X0330333Y0171064D02*
X0330333Y0173032D01*
X0331317Y0174017D01*
X0334270Y0174017D01*
X0334270Y0168112D01*
X0334270Y0170080D02*
X0331317Y0170080D01*
X0330333Y0171064D01*
X0336778Y0171064D02*
X0340715Y0171064D01*
X0343224Y0171064D02*
X0343224Y0170080D01*
X0347161Y0170080D01*
X0347161Y0171064D02*
X0346176Y0172048D01*
X0344208Y0172048D01*
X0343224Y0171064D01*
X0344208Y0168112D02*
X0346176Y0168112D01*
X0347161Y0169096D01*
X0347161Y0171064D01*
X0355935Y0168112D02*
X0357903Y0168112D01*
X0356919Y0168112D02*
X0356919Y0174017D01*
X0357903Y0174017D01*
X0361216Y0174017D02*
X0361216Y0168112D01*
X0362200Y0168112D02*
X0360232Y0168112D01*
X0364709Y0168112D02*
X0364709Y0171064D01*
X0365693Y0172048D01*
X0367661Y0172048D01*
X0367661Y0170080D02*
X0364709Y0170080D01*
X0364709Y0168112D02*
X0367661Y0168112D01*
X0368646Y0169096D01*
X0367661Y0170080D01*
X0371154Y0171064D02*
X0371154Y0168112D01*
X0373123Y0168112D02*
X0373123Y0171064D01*
X0372139Y0172048D01*
X0371154Y0171064D01*
X0373123Y0171064D02*
X0374107Y0172048D01*
X0375091Y0172048D01*
X0375091Y0168112D01*
X0377600Y0169096D02*
X0377600Y0170080D01*
X0378584Y0171064D01*
X0380552Y0171064D01*
X0381537Y0172048D01*
X0381537Y0173032D01*
X0380552Y0174017D01*
X0378584Y0174017D01*
X0377600Y0173032D01*
X0377600Y0169096D02*
X0378584Y0168112D01*
X0380552Y0168112D01*
X0381537Y0169096D01*
X0362200Y0174017D02*
X0361216Y0174017D01*
X0314933Y0171064D02*
X0314933Y0169096D01*
X0313949Y0168112D01*
X0311981Y0168112D01*
X0310996Y0170080D02*
X0314933Y0170080D01*
X0314933Y0171064D02*
X0313949Y0172048D01*
X0311981Y0172048D01*
X0310996Y0171064D01*
X0310996Y0170080D01*
X0308488Y0170080D02*
X0306519Y0172048D01*
X0305535Y0172048D01*
X0308488Y0172048D02*
X0308488Y0168112D01*
X0296671Y0169096D02*
X0295687Y0168112D01*
X0293718Y0168112D01*
X0292734Y0169096D01*
X0292734Y0170080D01*
X0293718Y0171064D01*
X0295687Y0171064D01*
X0296671Y0172048D01*
X0296671Y0173032D01*
X0295687Y0174017D01*
X0293718Y0174017D01*
X0292734Y0173032D01*
X0290225Y0174017D02*
X0290225Y0168112D01*
X0290225Y0171064D02*
X0289241Y0172048D01*
X0287273Y0172048D01*
X0286289Y0171064D01*
X0286289Y0168112D01*
X0283780Y0168112D02*
X0281812Y0168112D01*
X0282796Y0168112D02*
X0282796Y0172048D01*
X0283780Y0172048D01*
X0282796Y0174017D02*
X0282796Y0175001D01*
X0279483Y0171064D02*
X0278499Y0172048D01*
X0276530Y0172048D01*
X0275546Y0171064D01*
X0275546Y0170080D01*
X0279483Y0170080D01*
X0279483Y0169096D02*
X0279483Y0171064D01*
X0279483Y0169096D02*
X0278499Y0168112D01*
X0276530Y0168112D01*
X0273037Y0168112D02*
X0271069Y0168112D01*
X0272053Y0168112D02*
X0272053Y0174017D01*
X0273037Y0174017D01*
X0268740Y0171064D02*
X0267756Y0172048D01*
X0264804Y0172048D01*
X0264804Y0174017D02*
X0264804Y0168112D01*
X0267756Y0168112D01*
X0268740Y0169096D01*
X0268740Y0171064D01*
D12*
X0280634Y0162265D02*
X0283570Y0162265D01*
X0283570Y0160063D01*
X0282102Y0160797D01*
X0281368Y0160797D01*
X0280634Y0160063D01*
X0280634Y0158596D01*
X0281368Y0157862D01*
X0282836Y0157862D01*
X0283570Y0158596D01*
X0285238Y0157862D02*
X0288173Y0157862D01*
X0286706Y0157862D02*
X0286706Y0162265D01*
X0288173Y0160797D01*
X0289842Y0161531D02*
X0292777Y0158596D01*
X0292043Y0157862D01*
X0290576Y0157862D01*
X0289842Y0158596D01*
X0289842Y0161531D01*
X0290576Y0162265D01*
X0292043Y0162265D01*
X0292777Y0161531D01*
X0292777Y0158596D01*
X0294445Y0157862D02*
X0297381Y0157862D01*
X0294445Y0160797D01*
X0294445Y0161531D01*
X0295179Y0162265D01*
X0296647Y0162265D01*
X0297381Y0161531D01*
X0299049Y0162265D02*
X0301985Y0157862D01*
X0303653Y0158596D02*
X0304387Y0157862D01*
X0305855Y0157862D01*
X0306589Y0158596D01*
X0306589Y0160063D02*
X0305121Y0160797D01*
X0304387Y0160797D01*
X0303653Y0160063D01*
X0303653Y0158596D01*
X0306589Y0160063D02*
X0306589Y0162265D01*
X0303653Y0162265D01*
X0308257Y0161531D02*
X0311193Y0158596D01*
X0310459Y0157862D01*
X0308991Y0157862D01*
X0308257Y0158596D01*
X0308257Y0161531D01*
X0308991Y0162265D01*
X0310459Y0162265D01*
X0311193Y0161531D01*
X0311193Y0158596D01*
X0312861Y0162265D02*
X0315797Y0157862D01*
X0317465Y0157862D02*
X0320401Y0157862D01*
X0317465Y0160797D01*
X0317465Y0161531D01*
X0318199Y0162265D01*
X0319667Y0162265D01*
X0320401Y0161531D01*
X0322069Y0161531D02*
X0322803Y0162265D01*
X0324271Y0162265D01*
X0325005Y0161531D01*
X0322069Y0161531D02*
X0322069Y0160797D01*
X0325005Y0157862D01*
X0322069Y0157862D01*
X0322803Y0153297D02*
X0322069Y0152563D01*
X0322069Y0151096D01*
X0322803Y0150362D01*
X0324271Y0150362D01*
X0325005Y0151096D01*
X0325005Y0152563D01*
X0324271Y0153297D01*
X0322803Y0153297D01*
X0327340Y0153297D02*
X0327340Y0150362D01*
X0328074Y0150362D02*
X0326606Y0150362D01*
X0325038Y0147999D02*
X0325038Y0147265D01*
X0325038Y0145797D02*
X0325038Y0142862D01*
X0325772Y0142862D02*
X0324304Y0142862D01*
X0322703Y0143596D02*
X0321969Y0142862D01*
X0320501Y0142862D01*
X0319767Y0143596D01*
X0319767Y0145063D01*
X0320501Y0145797D01*
X0321969Y0145797D01*
X0322703Y0145063D01*
X0322703Y0143596D01*
X0325038Y0145797D02*
X0325772Y0145797D01*
X0327440Y0145797D02*
X0329642Y0145797D01*
X0330376Y0145063D01*
X0330376Y0143596D01*
X0329642Y0142862D01*
X0327440Y0142862D01*
X0327440Y0147265D01*
X0329742Y0150362D02*
X0331944Y0150362D01*
X0332678Y0151096D01*
X0332678Y0152563D01*
X0331944Y0153297D01*
X0329742Y0153297D01*
X0329742Y0154765D02*
X0329742Y0150362D01*
X0328074Y0153297D02*
X0327340Y0153297D01*
X0327340Y0154765D02*
X0327340Y0155499D01*
X0331277Y0157128D02*
X0332011Y0156394D01*
X0332745Y0156394D01*
X0333479Y0157862D02*
X0331277Y0157862D01*
X0331277Y0157128D02*
X0331277Y0160797D01*
X0334213Y0160797D02*
X0334213Y0158596D01*
X0333479Y0157862D01*
X0336581Y0160797D02*
X0338049Y0159329D01*
X0338049Y0157862D02*
X0338049Y0160797D01*
X0336581Y0160797D02*
X0335847Y0160797D01*
X0339717Y0161531D02*
X0339717Y0158596D01*
X0340451Y0157862D01*
X0341919Y0157862D01*
X0342653Y0158596D01*
X0342653Y0161531D01*
X0341919Y0162265D01*
X0340451Y0162265D01*
X0339717Y0161531D01*
X0344321Y0160797D02*
X0346523Y0160797D01*
X0347257Y0160063D01*
X0347257Y0158596D01*
X0346523Y0157862D01*
X0344321Y0157862D01*
X0344321Y0162265D01*
X0353529Y0160063D02*
X0353529Y0157862D01*
X0353529Y0160063D02*
X0354263Y0160797D01*
X0356465Y0160797D01*
X0356465Y0157862D01*
X0358133Y0158596D02*
X0358867Y0157862D01*
X0360335Y0157862D01*
X0361069Y0158596D01*
X0361069Y0160063D01*
X0360335Y0160797D01*
X0358867Y0160797D01*
X0358133Y0160063D01*
X0358133Y0158596D01*
X0362670Y0157862D02*
X0364138Y0157862D01*
X0363404Y0157862D02*
X0363404Y0160797D01*
X0364138Y0160797D01*
X0363404Y0162265D02*
X0363404Y0162999D01*
X0365806Y0160797D02*
X0368008Y0160797D01*
X0368742Y0160063D01*
X0368008Y0159329D01*
X0366540Y0159329D01*
X0365806Y0158596D01*
X0366540Y0157862D01*
X0368742Y0157862D01*
X0371111Y0160797D02*
X0372579Y0159329D01*
X0372579Y0157862D02*
X0372579Y0160797D01*
X0371111Y0160797D02*
X0370377Y0160797D01*
X0374247Y0160063D02*
X0374247Y0159329D01*
X0377183Y0159329D01*
X0377183Y0158596D02*
X0377183Y0160063D01*
X0376449Y0160797D01*
X0374981Y0160797D01*
X0374247Y0160063D01*
X0374981Y0157862D02*
X0376449Y0157862D01*
X0377183Y0158596D01*
X0378851Y0160797D02*
X0380319Y0157862D01*
X0381787Y0160797D01*
X0381787Y0154765D02*
X0381787Y0150362D01*
X0379585Y0150362D01*
X0378851Y0151096D01*
X0378851Y0152563D01*
X0379585Y0153297D01*
X0381787Y0153297D01*
X0377183Y0153297D02*
X0377183Y0151096D01*
X0376449Y0150362D01*
X0374247Y0150362D01*
X0374247Y0149628D02*
X0374981Y0148894D01*
X0375715Y0148894D01*
X0374247Y0149628D02*
X0374247Y0153297D01*
X0367975Y0152563D02*
X0367241Y0153297D01*
X0365039Y0153297D01*
X0365773Y0151829D02*
X0367241Y0151829D01*
X0367975Y0152563D01*
X0367975Y0150362D02*
X0365773Y0150362D01*
X0365039Y0151096D01*
X0365773Y0151829D01*
X0363371Y0151829D02*
X0360435Y0151829D01*
X0360435Y0152563D01*
X0361169Y0153297D01*
X0362637Y0153297D01*
X0363371Y0152563D01*
X0363371Y0151096D01*
X0362637Y0150362D01*
X0361169Y0150362D01*
X0358767Y0151096D02*
X0358767Y0152563D01*
X0358033Y0153297D01*
X0356565Y0153297D01*
X0355831Y0152563D01*
X0355831Y0151829D01*
X0358767Y0151829D01*
X0358767Y0151096D02*
X0358033Y0150362D01*
X0356565Y0150362D01*
X0354163Y0151096D02*
X0354163Y0152563D01*
X0353429Y0153297D01*
X0351961Y0153297D01*
X0351227Y0152563D01*
X0351227Y0151829D01*
X0354163Y0151829D01*
X0354163Y0151096D02*
X0353429Y0150362D01*
X0351961Y0150362D01*
X0349559Y0151096D02*
X0349559Y0152563D01*
X0348825Y0153297D01*
X0346623Y0153297D01*
X0346623Y0154765D02*
X0346623Y0150362D01*
X0348825Y0150362D01*
X0349559Y0151096D01*
X0344955Y0150362D02*
X0342753Y0150362D01*
X0342019Y0151096D01*
X0342753Y0151829D01*
X0344221Y0151829D01*
X0344955Y0152563D01*
X0344221Y0153297D01*
X0342019Y0153297D01*
X0340351Y0153297D02*
X0338883Y0153297D01*
X0339617Y0154031D02*
X0339617Y0151096D01*
X0338883Y0150362D01*
X0337282Y0151096D02*
X0336548Y0150362D01*
X0334346Y0150362D01*
X0334346Y0153297D01*
X0337282Y0153297D02*
X0337282Y0151096D01*
X0344321Y0147265D02*
X0344321Y0142862D01*
X0346523Y0142862D01*
X0347257Y0143596D01*
X0347257Y0145063D01*
X0346523Y0145797D01*
X0344321Y0145797D01*
X0342653Y0145063D02*
X0341919Y0145797D01*
X0339717Y0145797D01*
X0340451Y0144329D02*
X0341919Y0144329D01*
X0342653Y0145063D01*
X0342653Y0142862D02*
X0340451Y0142862D01*
X0339717Y0143596D01*
X0340451Y0144329D01*
X0338049Y0145797D02*
X0336581Y0145797D01*
X0337315Y0146531D02*
X0337315Y0143596D01*
X0336581Y0142862D01*
X0334980Y0143596D02*
X0334246Y0142862D01*
X0332044Y0142862D01*
X0332044Y0145797D01*
X0334980Y0145797D02*
X0334980Y0143596D01*
X0335881Y0139765D02*
X0335881Y0135362D01*
X0338083Y0135362D01*
X0338817Y0136096D01*
X0338817Y0137563D01*
X0338083Y0138297D01*
X0335881Y0138297D01*
X0334213Y0139031D02*
X0334213Y0136096D01*
X0333479Y0135362D01*
X0332011Y0135362D01*
X0331277Y0136096D01*
X0331277Y0139031D01*
X0332011Y0139765D01*
X0333479Y0139765D01*
X0334213Y0139031D01*
X0329609Y0138297D02*
X0329609Y0135362D01*
X0329609Y0136829D02*
X0328141Y0138297D01*
X0327407Y0138297D01*
X0325772Y0138297D02*
X0325772Y0136096D01*
X0325038Y0135362D01*
X0322836Y0135362D01*
X0322836Y0134628D02*
X0323570Y0133894D01*
X0324304Y0133894D01*
X0322836Y0134628D02*
X0322836Y0138297D01*
X0318099Y0142862D02*
X0317365Y0142862D01*
X0317365Y0143596D01*
X0318099Y0143596D01*
X0318099Y0142862D01*
X0315797Y0143596D02*
X0315797Y0145063D01*
X0315063Y0145797D01*
X0312861Y0145797D01*
X0311193Y0145063D02*
X0311193Y0143596D01*
X0310459Y0142862D01*
X0308991Y0142862D01*
X0308257Y0143596D01*
X0308257Y0145063D01*
X0308991Y0145797D01*
X0310459Y0145797D01*
X0311193Y0145063D01*
X0312861Y0142862D02*
X0315063Y0142862D01*
X0315797Y0143596D01*
X0306589Y0142862D02*
X0306589Y0145797D01*
X0305855Y0145797D01*
X0305121Y0145063D01*
X0304387Y0145797D01*
X0303653Y0145063D01*
X0303653Y0142862D01*
X0305121Y0142862D02*
X0305121Y0145063D01*
X0345089Y0138297D02*
X0345089Y0134628D01*
X0345823Y0133894D01*
X0346557Y0133894D01*
X0347291Y0135362D02*
X0345089Y0135362D01*
X0347291Y0135362D02*
X0348025Y0136096D01*
X0348025Y0138297D01*
X0349693Y0137563D02*
X0350427Y0138297D01*
X0352628Y0138297D01*
X0352628Y0139765D02*
X0352628Y0135362D01*
X0350427Y0135362D01*
X0349693Y0136096D01*
X0349693Y0137563D01*
X0349659Y0142862D02*
X0351127Y0142862D01*
X0351861Y0143596D01*
X0351861Y0145063D01*
X0351127Y0145797D01*
X0349659Y0145797D01*
X0348925Y0145063D01*
X0348925Y0144329D01*
X0351861Y0144329D01*
X0353529Y0144329D02*
X0356465Y0144329D01*
X0356465Y0143596D02*
X0356465Y0145063D01*
X0355731Y0145797D01*
X0354263Y0145797D01*
X0353529Y0145063D01*
X0353529Y0144329D01*
X0354263Y0142862D02*
X0355731Y0142862D01*
X0356465Y0143596D01*
X0358133Y0144329D02*
X0361069Y0144329D01*
X0361069Y0143596D02*
X0361069Y0145063D01*
X0360335Y0145797D01*
X0358867Y0145797D01*
X0358133Y0145063D01*
X0358133Y0144329D01*
X0358867Y0142862D02*
X0360335Y0142862D01*
X0361069Y0143596D01*
X0362737Y0143596D02*
X0363471Y0144329D01*
X0364939Y0144329D01*
X0365673Y0145063D01*
X0364939Y0145797D01*
X0362737Y0145797D01*
X0362737Y0143596D02*
X0363471Y0142862D01*
X0365673Y0142862D01*
X0367241Y0142862D02*
X0367975Y0142862D01*
X0367975Y0143596D01*
X0367241Y0143596D01*
X0367241Y0142862D01*
X0369643Y0143596D02*
X0369643Y0145797D01*
X0369643Y0143596D02*
X0370377Y0142862D01*
X0371111Y0143596D01*
X0371845Y0142862D01*
X0372579Y0143596D01*
X0372579Y0145797D01*
X0374247Y0145797D02*
X0374247Y0143596D01*
X0374981Y0142862D01*
X0375715Y0143596D01*
X0376449Y0142862D01*
X0377183Y0143596D01*
X0377183Y0145797D01*
X0378851Y0145797D02*
X0378851Y0143596D01*
X0379585Y0142862D01*
X0380319Y0143596D01*
X0381053Y0142862D01*
X0381787Y0143596D01*
X0381787Y0145797D01*
X0374247Y0139765D02*
X0374247Y0135362D01*
X0376449Y0135362D01*
X0377183Y0136096D01*
X0377183Y0137563D01*
X0376449Y0138297D01*
X0374247Y0138297D01*
X0372579Y0138297D02*
X0371845Y0138297D01*
X0371845Y0135362D01*
X0372579Y0135362D02*
X0371111Y0135362D01*
X0368776Y0136096D02*
X0368776Y0139031D01*
X0369509Y0138297D02*
X0368042Y0138297D01*
X0366440Y0137563D02*
X0365706Y0138297D01*
X0364238Y0138297D01*
X0363504Y0137563D01*
X0363504Y0136829D01*
X0366440Y0136829D01*
X0366440Y0136096D02*
X0366440Y0137563D01*
X0366440Y0136096D02*
X0365706Y0135362D01*
X0364238Y0135362D01*
X0361836Y0136096D02*
X0361836Y0137563D01*
X0361102Y0138297D01*
X0358900Y0138297D01*
X0358900Y0139765D02*
X0358900Y0135362D01*
X0361102Y0135362D01*
X0361836Y0136096D01*
X0368042Y0135362D02*
X0368776Y0136096D01*
X0371845Y0139765D02*
X0371845Y0140499D01*
X0378851Y0137563D02*
X0378851Y0136829D01*
X0381787Y0136829D01*
X0381787Y0136096D02*
X0381787Y0137563D01*
X0381053Y0138297D01*
X0379585Y0138297D01*
X0378851Y0137563D01*
X0379585Y0135362D02*
X0381053Y0135362D01*
X0381787Y0136096D01*
X0427558Y0121924D02*
X0427558Y0205174D01*
X0150258Y0205174D01*
X0150258Y0024874D01*
X0427558Y0024874D01*
X0427558Y0121924D01*
X0370408Y0180024D02*
X0372208Y0181924D01*
X0370608Y0184324D01*
X0370231Y0184319D02*
X0366060Y0184319D01*
X0366284Y0183721D02*
X0370590Y0183721D01*
X0370949Y0183122D02*
X0366509Y0183122D01*
X0366733Y0182524D02*
X0371308Y0182524D01*
X0371608Y0182024D02*
X0370108Y0184524D01*
X0371108Y0187024D01*
X0374108Y0188024D01*
X0374108Y0187524D01*
X0374108Y0190024D01*
X0371108Y0190524D01*
X0370108Y0193524D01*
X0372108Y0195524D01*
X0370608Y0197024D01*
X0367608Y0195524D01*
X0364608Y0197024D01*
X0365108Y0197024D01*
X0364608Y0199524D01*
X0362108Y0199524D01*
X0362108Y0196524D01*
X0359108Y0195524D01*
X0356608Y0197024D01*
X0355108Y0196024D01*
X0356608Y0193024D01*
X0355608Y0190524D01*
X0352608Y0190024D01*
X0352608Y0187524D01*
X0355608Y0187524D01*
X0356608Y0184024D01*
X0355108Y0182024D01*
X0356608Y0180524D01*
X0358608Y0182024D01*
X0359608Y0181524D01*
X0361608Y0185524D01*
X0359608Y0187524D01*
X0359608Y0190024D01*
X0361108Y0192524D01*
X0363608Y0193024D01*
X0366608Y0192024D01*
X0366108Y0192024D01*
X0367608Y0189524D01*
X0366608Y0186524D01*
X0365608Y0185524D01*
X0367108Y0181524D01*
X0368108Y0182024D01*
X0370108Y0180524D01*
X0371608Y0182024D01*
X0371509Y0181925D02*
X0368239Y0181925D01*
X0368008Y0181724D02*
X0370408Y0180024D01*
X0370312Y0180728D02*
X0369836Y0180728D01*
X0369037Y0181327D02*
X0370911Y0181327D01*
X0368008Y0181724D02*
X0367008Y0181124D01*
X0365008Y0185624D01*
X0365611Y0185516D02*
X0370505Y0185516D01*
X0370265Y0184918D02*
X0365835Y0184918D01*
X0366199Y0186115D02*
X0370744Y0186115D01*
X0370984Y0186713D02*
X0366671Y0186713D01*
X0366871Y0187312D02*
X0371972Y0187312D01*
X0371608Y0187024D02*
X0374608Y0187524D01*
X0374608Y0190124D01*
X0371608Y0190724D01*
X0370982Y0190903D02*
X0366780Y0190903D01*
X0366421Y0191501D02*
X0370782Y0191501D01*
X0370583Y0192100D02*
X0366380Y0192100D01*
X0364584Y0192698D02*
X0370383Y0192698D01*
X0370508Y0193224D02*
X0372308Y0195824D01*
X0370408Y0197624D01*
X0367808Y0195824D01*
X0367942Y0195691D02*
X0371941Y0195691D01*
X0371676Y0195092D02*
X0355574Y0195092D01*
X0355873Y0194494D02*
X0371078Y0194494D01*
X0370479Y0193895D02*
X0356172Y0193895D01*
X0356471Y0193297D02*
X0370184Y0193297D01*
X0369139Y0196289D02*
X0371342Y0196289D01*
X0370744Y0196888D02*
X0370336Y0196888D01*
X0367274Y0195691D02*
X0359609Y0195691D01*
X0359108Y0195824D02*
X0356508Y0197624D01*
X0354608Y0195824D01*
X0356408Y0193224D01*
X0356478Y0192698D02*
X0361980Y0192698D01*
X0360853Y0192100D02*
X0356238Y0192100D01*
X0355999Y0191501D02*
X0360494Y0191501D01*
X0360135Y0190903D02*
X0355759Y0190903D01*
X0355308Y0190724D02*
X0352308Y0190124D01*
X0352308Y0187524D01*
X0355308Y0187024D01*
X0355668Y0187312D02*
X0359820Y0187312D01*
X0359608Y0187910D02*
X0352608Y0187910D01*
X0352608Y0188509D02*
X0359608Y0188509D01*
X0359608Y0189107D02*
X0352608Y0189107D01*
X0352608Y0189706D02*
X0359608Y0189706D01*
X0359776Y0190304D02*
X0354291Y0190304D01*
X0355839Y0186713D02*
X0360418Y0186713D01*
X0361017Y0186115D02*
X0356010Y0186115D01*
X0356181Y0185516D02*
X0361604Y0185516D01*
X0361808Y0185624D02*
X0359908Y0181124D01*
X0358908Y0181724D01*
X0356508Y0180024D01*
X0354608Y0181924D01*
X0356308Y0184324D01*
X0356523Y0184319D02*
X0361006Y0184319D01*
X0361305Y0184918D02*
X0356352Y0184918D01*
X0356380Y0183721D02*
X0360706Y0183721D01*
X0360407Y0183122D02*
X0355932Y0183122D01*
X0355483Y0182524D02*
X0360108Y0182524D01*
X0359809Y0181925D02*
X0358805Y0181925D01*
X0358476Y0181925D02*
X0355207Y0181925D01*
X0355805Y0181327D02*
X0357678Y0181327D01*
X0356880Y0180728D02*
X0356404Y0180728D01*
X0366957Y0181925D02*
X0367910Y0181925D01*
X0367070Y0187910D02*
X0373767Y0187910D01*
X0374108Y0188509D02*
X0367270Y0188509D01*
X0367469Y0189107D02*
X0374108Y0189107D01*
X0374108Y0189706D02*
X0367499Y0189706D01*
X0367140Y0190304D02*
X0372425Y0190304D01*
X0367774Y0195860D02*
X0367602Y0195960D01*
X0367427Y0196057D01*
X0367251Y0196149D01*
X0367072Y0196237D01*
X0366891Y0196321D01*
X0366708Y0196400D01*
X0366524Y0196475D01*
X0366337Y0196546D01*
X0366149Y0196612D01*
X0365960Y0196673D01*
X0365769Y0196730D01*
X0365576Y0196783D01*
X0365383Y0196830D01*
X0365308Y0196824D02*
X0364808Y0200024D01*
X0362108Y0200024D01*
X0361608Y0196824D01*
X0362108Y0196888D02*
X0364880Y0196888D01*
X0365015Y0197486D02*
X0362108Y0197486D01*
X0362108Y0198085D02*
X0364896Y0198085D01*
X0364776Y0198683D02*
X0362108Y0198683D01*
X0362108Y0199282D02*
X0364656Y0199282D01*
X0366077Y0196289D02*
X0361405Y0196289D01*
X0358829Y0195691D02*
X0355274Y0195691D01*
X0355506Y0196289D02*
X0357832Y0196289D01*
X0356834Y0196888D02*
X0356404Y0196888D01*
X0361808Y0185724D02*
X0361701Y0185779D01*
X0361595Y0185836D01*
X0361492Y0185898D01*
X0361390Y0185962D01*
X0361291Y0186030D01*
X0361194Y0186101D01*
X0361099Y0186175D01*
X0361007Y0186252D01*
X0360917Y0186333D01*
X0360830Y0186416D01*
X0360746Y0186502D01*
X0360665Y0186590D01*
X0360587Y0186682D01*
X0360511Y0186776D01*
X0360439Y0186872D01*
X0360370Y0186970D01*
X0360304Y0187071D01*
X0360242Y0187174D01*
X0360183Y0187279D01*
X0360127Y0187385D01*
X0360075Y0187494D01*
X0360027Y0187604D01*
X0359982Y0187716D01*
X0359941Y0187829D01*
X0359904Y0187943D01*
X0359870Y0188059D01*
X0359841Y0188175D01*
X0359815Y0188293D01*
X0359793Y0188411D01*
X0359774Y0188530D01*
X0359760Y0188649D01*
X0359750Y0188769D01*
X0359743Y0188889D01*
X0359741Y0189010D01*
X0359743Y0189130D01*
X0359748Y0189250D01*
X0359757Y0189370D01*
X0359771Y0189490D01*
X0359788Y0189609D01*
X0359809Y0189727D01*
X0359834Y0189845D01*
X0359863Y0189962D01*
X0359896Y0190077D01*
X0359932Y0190192D01*
X0359972Y0190305D01*
X0360016Y0190417D01*
X0360064Y0190528D01*
X0360115Y0190637D01*
X0360169Y0190744D01*
X0360228Y0190849D01*
X0360289Y0190953D01*
X0360354Y0191054D01*
X0360422Y0191153D01*
X0360494Y0191250D01*
X0360568Y0191344D01*
X0360646Y0191436D01*
X0360726Y0191525D01*
X0360810Y0191612D01*
X0360896Y0191696D01*
X0360985Y0191777D01*
X0361077Y0191855D01*
X0361171Y0191930D01*
X0361267Y0192001D01*
X0361366Y0192070D01*
X0361467Y0192135D01*
X0361570Y0192197D01*
X0361675Y0192256D01*
X0361782Y0192311D01*
X0361891Y0192363D01*
X0362001Y0192410D01*
X0362113Y0192455D01*
X0362226Y0192495D01*
X0362341Y0192532D01*
X0362457Y0192565D01*
X0362573Y0192595D01*
X0362691Y0192620D01*
X0362809Y0192642D01*
X0362928Y0192659D01*
X0363048Y0192673D01*
X0363168Y0192683D01*
X0363288Y0192689D01*
X0363408Y0192691D01*
X0363528Y0192689D01*
X0363648Y0192683D01*
X0363768Y0192673D01*
X0363888Y0192659D01*
X0364007Y0192642D01*
X0364125Y0192620D01*
X0364243Y0192595D01*
X0364359Y0192565D01*
X0364475Y0192532D01*
X0364590Y0192495D01*
X0364703Y0192455D01*
X0364815Y0192410D01*
X0364925Y0192363D01*
X0365034Y0192311D01*
X0365141Y0192256D01*
X0365246Y0192197D01*
X0365349Y0192135D01*
X0365450Y0192070D01*
X0365549Y0192001D01*
X0365645Y0191930D01*
X0365739Y0191855D01*
X0365831Y0191777D01*
X0365920Y0191696D01*
X0366006Y0191612D01*
X0366090Y0191525D01*
X0366170Y0191436D01*
X0366248Y0191344D01*
X0366322Y0191250D01*
X0366394Y0191153D01*
X0366462Y0191054D01*
X0366527Y0190953D01*
X0366588Y0190849D01*
X0366647Y0190744D01*
X0366701Y0190637D01*
X0366752Y0190528D01*
X0366800Y0190417D01*
X0366844Y0190305D01*
X0366884Y0190192D01*
X0366920Y0190077D01*
X0366953Y0189962D01*
X0366982Y0189845D01*
X0367007Y0189727D01*
X0367028Y0189609D01*
X0367045Y0189490D01*
X0367059Y0189370D01*
X0367068Y0189250D01*
X0367073Y0189130D01*
X0367075Y0189010D01*
X0367073Y0188889D01*
X0367066Y0188769D01*
X0367056Y0188649D01*
X0367042Y0188530D01*
X0367023Y0188411D01*
X0367001Y0188293D01*
X0366975Y0188175D01*
X0366946Y0188059D01*
X0366912Y0187943D01*
X0366875Y0187829D01*
X0366834Y0187716D01*
X0366789Y0187604D01*
X0366741Y0187494D01*
X0366689Y0187385D01*
X0366633Y0187279D01*
X0366574Y0187174D01*
X0366512Y0187071D01*
X0366446Y0186970D01*
X0366377Y0186872D01*
X0366305Y0186776D01*
X0366229Y0186682D01*
X0366151Y0186590D01*
X0366070Y0186502D01*
X0365986Y0186416D01*
X0365899Y0186333D01*
X0365809Y0186252D01*
X0365717Y0186175D01*
X0365622Y0186101D01*
X0365525Y0186030D01*
X0365426Y0185962D01*
X0365324Y0185898D01*
X0365221Y0185836D01*
X0365115Y0185779D01*
X0365008Y0185724D01*
X0356307Y0184319D02*
X0356211Y0184485D01*
X0356118Y0184652D01*
X0356030Y0184822D01*
X0355946Y0184994D01*
X0355866Y0185167D01*
X0355790Y0185343D01*
X0355718Y0185520D01*
X0355651Y0185699D01*
X0355587Y0185880D01*
X0355528Y0186062D01*
X0355474Y0186245D01*
X0355423Y0186430D01*
X0355377Y0186615D01*
X0355336Y0186802D01*
X0355299Y0186990D01*
X0355318Y0190724D02*
X0355368Y0190912D01*
X0355423Y0191099D01*
X0355482Y0191285D01*
X0355546Y0191469D01*
X0355614Y0191652D01*
X0355687Y0191833D01*
X0355764Y0192012D01*
X0355845Y0192189D01*
X0355931Y0192365D01*
X0356020Y0192538D01*
X0356114Y0192709D01*
X0356212Y0192877D01*
X0356314Y0193044D01*
X0356419Y0193207D01*
X0359071Y0195841D02*
X0359236Y0195939D01*
X0359404Y0196033D01*
X0359574Y0196123D01*
X0359746Y0196210D01*
X0359919Y0196292D01*
X0360095Y0196371D01*
X0360272Y0196445D01*
X0360451Y0196515D01*
X0360632Y0196581D01*
X0360814Y0196643D01*
X0360997Y0196701D01*
X0361182Y0196755D01*
X0361368Y0196804D01*
X0361555Y0196849D01*
X0370499Y0193170D02*
X0370599Y0193008D01*
X0370696Y0192843D01*
X0370789Y0192676D01*
X0370877Y0192507D01*
X0370962Y0192337D01*
X0371043Y0192164D01*
X0371120Y0191989D01*
X0371193Y0191813D01*
X0371262Y0191635D01*
X0371327Y0191455D01*
X0371388Y0191275D01*
X0371444Y0191092D01*
X0371497Y0190909D01*
X0371545Y0190724D01*
X0371602Y0187008D02*
X0371559Y0186808D01*
X0371512Y0186610D01*
X0371460Y0186413D01*
X0371402Y0186217D01*
X0371341Y0186022D01*
X0371274Y0185829D01*
X0371203Y0185638D01*
X0371127Y0185448D01*
X0371046Y0185261D01*
X0370961Y0185075D01*
X0370871Y0184892D01*
X0370777Y0184711D01*
X0370678Y0184532D01*
X0370575Y0184356D01*
D13*
X0280237Y0184762D03*
D14*
X0280237Y0184862D03*
D15*
X0280237Y0184962D03*
D16*
X0280187Y0185062D03*
D17*
X0280237Y0185162D03*
D18*
X0280187Y0185262D03*
D19*
X0280237Y0185362D03*
D20*
X0280187Y0185462D03*
D21*
X0280237Y0185562D03*
X0280237Y0192862D03*
D22*
X0284887Y0188262D03*
X0284887Y0188062D03*
X0287787Y0185662D03*
X0287887Y0185762D03*
X0291387Y0186762D03*
X0291687Y0189862D03*
X0290887Y0191662D03*
X0295087Y0190362D03*
X0295087Y0190262D03*
X0298787Y0188162D03*
X0298787Y0188062D03*
X0272587Y0185762D03*
X0269387Y0189362D03*
X0250387Y0189262D03*
D23*
X0279337Y0185662D03*
D24*
X0284837Y0187762D03*
X0284937Y0187662D03*
X0285737Y0189662D03*
X0285937Y0190162D03*
X0286137Y0190762D03*
X0286237Y0191062D03*
X0286337Y0191262D03*
X0286337Y0191462D03*
X0286437Y0191662D03*
X0290237Y0188562D03*
X0293537Y0187062D03*
X0295037Y0190662D03*
X0298837Y0187662D03*
X0298837Y0187562D03*
X0301637Y0186762D03*
X0301737Y0186962D03*
X0301837Y0187162D03*
X0302437Y0188162D03*
X0300237Y0191162D03*
X0300337Y0191362D03*
X0300437Y0191562D03*
X0309737Y0191262D03*
X0309837Y0189362D03*
X0288037Y0185862D03*
X0272537Y0192762D03*
X0269737Y0189562D03*
X0269737Y0186762D03*
X0250937Y0189562D03*
D25*
X0251137Y0189662D03*
X0251237Y0189762D03*
X0249737Y0188862D03*
X0257937Y0190762D03*
X0268737Y0188962D03*
X0272237Y0192362D03*
X0272237Y0192462D03*
X0272337Y0192562D03*
X0272337Y0192662D03*
X0281537Y0191062D03*
X0281537Y0189662D03*
X0285237Y0188362D03*
X0285437Y0188862D03*
X0285537Y0189162D03*
X0285637Y0189362D03*
X0285837Y0189862D03*
X0286037Y0190462D03*
X0286137Y0190562D03*
X0286237Y0190962D03*
X0286337Y0191162D03*
X0288137Y0192562D03*
X0294437Y0189362D03*
X0294337Y0189062D03*
X0294037Y0188162D03*
X0293937Y0188062D03*
X0293837Y0187762D03*
X0293737Y0187562D03*
X0290137Y0188362D03*
X0288237Y0186062D03*
X0284937Y0187362D03*
X0284837Y0187462D03*
X0272337Y0185862D03*
X0272237Y0186062D03*
X0299237Y0188562D03*
X0299337Y0188862D03*
X0299437Y0188962D03*
X0299537Y0189262D03*
X0299537Y0189362D03*
X0299637Y0189462D03*
X0299637Y0189562D03*
X0299737Y0189762D03*
X0299737Y0189862D03*
X0299837Y0189962D03*
X0299837Y0190062D03*
X0299837Y0190162D03*
X0300037Y0190462D03*
X0300037Y0190562D03*
X0300037Y0190662D03*
X0300237Y0191262D03*
X0302637Y0189362D03*
X0302837Y0188762D03*
X0302737Y0188562D03*
X0302637Y0188462D03*
X0302537Y0188262D03*
X0302137Y0187562D03*
X0301837Y0187062D03*
X0304137Y0187162D03*
X0304137Y0187362D03*
X0304137Y0187562D03*
X0304137Y0187762D03*
X0304137Y0187962D03*
X0304137Y0188162D03*
X0304137Y0188362D03*
X0304137Y0188562D03*
X0304137Y0188762D03*
X0304137Y0189462D03*
X0304137Y0189662D03*
X0304137Y0189862D03*
X0304137Y0190062D03*
X0304137Y0190262D03*
X0304137Y0190462D03*
X0304137Y0190662D03*
X0304137Y0190862D03*
X0304137Y0191062D03*
X0304137Y0191262D03*
X0309337Y0190462D03*
X0309437Y0190562D03*
X0309437Y0190762D03*
X0309437Y0190862D03*
X0309537Y0190962D03*
X0309537Y0191062D03*
X0309637Y0191162D03*
X0309337Y0190262D03*
X0309337Y0190062D03*
X0309537Y0189662D03*
X0309637Y0189562D03*
X0311537Y0189662D03*
X0311537Y0189762D03*
X0311537Y0189862D03*
X0311537Y0190062D03*
X0311537Y0190162D03*
X0311537Y0190262D03*
X0311537Y0190462D03*
X0311537Y0190562D03*
X0311537Y0190662D03*
X0311537Y0190862D03*
X0311537Y0190962D03*
X0311537Y0191062D03*
X0311537Y0191262D03*
X0311537Y0189462D03*
X0311537Y0189362D03*
X0311537Y0188862D03*
X0311537Y0188762D03*
X0311537Y0188662D03*
X0311537Y0188462D03*
X0311537Y0188362D03*
X0311537Y0188262D03*
X0311537Y0188062D03*
X0311537Y0187962D03*
X0311537Y0187862D03*
X0311537Y0187662D03*
X0311537Y0187562D03*
X0311537Y0187462D03*
X0311537Y0187262D03*
X0311537Y0187162D03*
X0311537Y0187062D03*
X0311537Y0186862D03*
X0311537Y0186762D03*
X0304137Y0186762D03*
X0304137Y0186962D03*
D26*
X0304187Y0187062D03*
X0304187Y0187262D03*
X0304187Y0187462D03*
X0304187Y0187662D03*
X0304187Y0187862D03*
X0304187Y0188062D03*
X0304187Y0188262D03*
X0304187Y0188462D03*
X0304187Y0188662D03*
X0304187Y0189362D03*
X0304187Y0189562D03*
X0304187Y0189762D03*
X0304187Y0189962D03*
X0304187Y0190162D03*
X0304187Y0190362D03*
X0304187Y0190562D03*
X0304187Y0190762D03*
X0304187Y0190962D03*
X0304187Y0191162D03*
X0302087Y0191062D03*
X0301987Y0190962D03*
X0301987Y0190862D03*
X0301987Y0190762D03*
X0301987Y0190662D03*
X0301987Y0190562D03*
X0301987Y0190462D03*
X0301987Y0190362D03*
X0301987Y0190262D03*
X0301987Y0190162D03*
X0301987Y0190062D03*
X0302087Y0189862D03*
X0302087Y0189762D03*
X0302187Y0189662D03*
X0302287Y0189562D03*
X0302387Y0189462D03*
X0299687Y0189662D03*
X0299487Y0189162D03*
X0299487Y0189062D03*
X0299287Y0188662D03*
X0299187Y0188362D03*
X0298887Y0187362D03*
X0298787Y0187262D03*
X0294287Y0188862D03*
X0294287Y0188962D03*
X0294387Y0189162D03*
X0294387Y0189262D03*
X0294487Y0189462D03*
X0294487Y0189562D03*
X0294587Y0189662D03*
X0294587Y0189762D03*
X0294587Y0189862D03*
X0294687Y0189962D03*
X0294687Y0190062D03*
X0295087Y0190962D03*
X0295087Y0191062D03*
X0294187Y0188762D03*
X0293887Y0187862D03*
X0291987Y0187162D03*
X0290087Y0188262D03*
X0291987Y0190162D03*
X0291987Y0190262D03*
X0288287Y0192262D03*
X0288287Y0192362D03*
X0284887Y0187262D03*
X0281587Y0187362D03*
X0281587Y0187462D03*
X0281587Y0187562D03*
X0281587Y0187662D03*
X0281587Y0187762D03*
X0281587Y0187862D03*
X0281587Y0187962D03*
X0281587Y0188062D03*
X0281587Y0188162D03*
X0281587Y0188262D03*
X0281587Y0188362D03*
X0281587Y0188462D03*
X0281587Y0188562D03*
X0281587Y0188662D03*
X0281587Y0188762D03*
X0281587Y0188862D03*
X0281587Y0188962D03*
X0281587Y0189762D03*
X0281587Y0189862D03*
X0281587Y0189962D03*
X0281587Y0190062D03*
X0281587Y0190162D03*
X0281587Y0190262D03*
X0281587Y0190362D03*
X0281587Y0190462D03*
X0281587Y0190562D03*
X0281587Y0190662D03*
X0281587Y0190762D03*
X0281587Y0190862D03*
X0281587Y0190962D03*
X0274787Y0187162D03*
X0272187Y0186162D03*
X0270087Y0189762D03*
X0272187Y0192262D03*
X0264987Y0189362D03*
X0254387Y0189162D03*
X0254287Y0189262D03*
X0249687Y0188762D03*
X0250387Y0191762D03*
X0288187Y0185962D03*
X0288287Y0186162D03*
X0304187Y0186862D03*
X0307687Y0187362D03*
X0307687Y0187462D03*
X0307687Y0187562D03*
X0307687Y0187662D03*
X0307687Y0187762D03*
X0307687Y0187862D03*
X0307687Y0187962D03*
X0307687Y0188062D03*
X0307687Y0188162D03*
X0307687Y0188262D03*
X0307687Y0188362D03*
X0307687Y0188462D03*
X0307687Y0188562D03*
X0307687Y0188662D03*
X0307687Y0188762D03*
X0307687Y0188862D03*
X0307687Y0188962D03*
X0307687Y0189062D03*
X0307687Y0189662D03*
X0307687Y0189762D03*
X0307687Y0189862D03*
X0307687Y0189962D03*
X0307687Y0190062D03*
X0307687Y0190162D03*
X0307687Y0190262D03*
X0307687Y0190362D03*
X0307687Y0190462D03*
X0307687Y0190562D03*
X0307687Y0190662D03*
X0307687Y0190762D03*
X0307687Y0190862D03*
X0307687Y0190962D03*
X0307687Y0191062D03*
X0309387Y0190362D03*
X0309387Y0190162D03*
X0309387Y0189962D03*
X0309487Y0189862D03*
X0311587Y0189962D03*
X0311587Y0190362D03*
X0311587Y0190762D03*
X0311587Y0191162D03*
X0311587Y0189562D03*
X0311587Y0188562D03*
X0311587Y0188162D03*
X0311587Y0187762D03*
X0311587Y0187362D03*
X0311587Y0186962D03*
D27*
X0302037Y0189962D03*
X0298837Y0187162D03*
X0298837Y0187062D03*
X0295037Y0191162D03*
X0295037Y0191262D03*
X0292037Y0190462D03*
X0292037Y0190362D03*
X0291737Y0191262D03*
X0290937Y0191762D03*
X0290037Y0188162D03*
X0290037Y0188062D03*
X0290137Y0187462D03*
X0290437Y0187162D03*
X0284837Y0187162D03*
X0274437Y0191262D03*
X0269237Y0191762D03*
X0268637Y0188862D03*
X0270437Y0187062D03*
X0272237Y0186262D03*
X0272237Y0185962D03*
X0264837Y0189462D03*
X0264737Y0191362D03*
X0257937Y0190962D03*
X0257937Y0190862D03*
X0251537Y0187062D03*
D28*
X0249987Y0187062D03*
X0249587Y0188662D03*
X0251387Y0189862D03*
X0249787Y0191462D03*
X0254287Y0189062D03*
X0254887Y0189862D03*
X0255387Y0190862D03*
X0255487Y0191062D03*
X0264587Y0191262D03*
X0268487Y0188762D03*
X0270187Y0189862D03*
X0270287Y0189962D03*
X0273587Y0190062D03*
X0273587Y0189662D03*
X0273587Y0189262D03*
X0273587Y0188862D03*
X0274487Y0187362D03*
X0274087Y0191062D03*
X0274287Y0191162D03*
X0284887Y0187062D03*
X0288187Y0186262D03*
X0288287Y0186762D03*
X0288287Y0186862D03*
X0288287Y0186962D03*
X0288287Y0187062D03*
X0288287Y0187162D03*
X0288287Y0187262D03*
X0288287Y0187362D03*
X0288287Y0187462D03*
X0288287Y0187562D03*
X0288287Y0187662D03*
X0288287Y0187762D03*
X0288287Y0187862D03*
X0288287Y0187962D03*
X0288287Y0188062D03*
X0288287Y0188162D03*
X0288287Y0188262D03*
X0288287Y0188362D03*
X0288287Y0188462D03*
X0288287Y0188562D03*
X0288287Y0188662D03*
X0288287Y0188762D03*
X0288287Y0188862D03*
X0288287Y0188962D03*
X0288287Y0189062D03*
X0288287Y0189162D03*
X0288287Y0189262D03*
X0288287Y0189362D03*
X0288287Y0189462D03*
X0288287Y0189562D03*
X0288287Y0189662D03*
X0288287Y0189762D03*
X0288287Y0189862D03*
X0288287Y0189962D03*
X0288287Y0190062D03*
X0288287Y0190162D03*
X0288287Y0190262D03*
X0288287Y0190362D03*
X0288287Y0190462D03*
X0288287Y0190562D03*
X0288287Y0190662D03*
X0288287Y0190762D03*
X0288287Y0190862D03*
X0288287Y0190962D03*
X0288287Y0191062D03*
X0288287Y0191162D03*
X0288287Y0191262D03*
X0288287Y0191362D03*
X0288287Y0191462D03*
X0288287Y0191562D03*
X0288287Y0191662D03*
X0290187Y0191262D03*
X0291887Y0191162D03*
X0292087Y0190762D03*
X0292087Y0190662D03*
X0292087Y0190562D03*
X0295087Y0191362D03*
X0298787Y0186862D03*
X0290287Y0187262D03*
X0290087Y0187562D03*
X0289987Y0187762D03*
X0289987Y0187862D03*
X0289987Y0187962D03*
D29*
X0291437Y0186662D03*
X0292237Y0187462D03*
X0292237Y0187562D03*
X0290037Y0190962D03*
X0290037Y0191062D03*
X0270637Y0187462D03*
X0269737Y0186662D03*
X0268437Y0191162D03*
X0259237Y0188562D03*
X0259237Y0188462D03*
X0259337Y0188362D03*
X0259337Y0188262D03*
X0259437Y0188062D03*
X0259037Y0189062D03*
X0258937Y0189162D03*
X0258937Y0189262D03*
X0258837Y0189362D03*
X0258837Y0189462D03*
X0258837Y0189562D03*
X0258737Y0189662D03*
X0258737Y0189762D03*
X0258637Y0189862D03*
X0258637Y0189962D03*
X0258537Y0190062D03*
X0258537Y0190162D03*
X0258437Y0190362D03*
X0258437Y0190462D03*
X0258337Y0190662D03*
X0257937Y0191562D03*
X0253837Y0189462D03*
X0253737Y0189662D03*
X0253637Y0189762D03*
X0253537Y0189962D03*
X0253437Y0190062D03*
X0253437Y0190162D03*
X0253337Y0190262D03*
X0253237Y0190462D03*
D30*
X0251787Y0187462D03*
X0250887Y0186662D03*
X0258487Y0190262D03*
X0257987Y0191662D03*
X0249587Y0191062D03*
X0268387Y0191062D03*
X0270687Y0187662D03*
X0290087Y0190862D03*
X0292287Y0187762D03*
X0292287Y0187662D03*
D31*
X0306887Y0187262D03*
X0306887Y0187162D03*
X0306887Y0187062D03*
X0306887Y0186962D03*
X0306887Y0186862D03*
X0306887Y0186762D03*
X0306887Y0189162D03*
X0306887Y0189262D03*
X0306887Y0189362D03*
X0306887Y0189462D03*
X0306887Y0189562D03*
X0306887Y0191162D03*
X0306887Y0191262D03*
X0306887Y0191362D03*
X0306887Y0191462D03*
X0306887Y0191562D03*
X0306887Y0191662D03*
X0310787Y0191562D03*
X0310787Y0189162D03*
D32*
X0298787Y0186762D03*
X0296987Y0186862D03*
X0296987Y0186962D03*
X0296887Y0187162D03*
X0296887Y0187262D03*
X0296787Y0187362D03*
X0296787Y0187462D03*
X0296687Y0187662D03*
X0296687Y0187762D03*
X0296587Y0187962D03*
X0296487Y0188162D03*
X0296287Y0188762D03*
X0296187Y0188862D03*
X0296087Y0189262D03*
X0295987Y0189362D03*
X0295887Y0189562D03*
X0295787Y0189862D03*
X0295787Y0190062D03*
X0297187Y0190862D03*
X0297087Y0191162D03*
X0296987Y0191362D03*
X0296987Y0191462D03*
X0296887Y0191562D03*
X0296887Y0191662D03*
X0297387Y0190362D03*
X0297387Y0190262D03*
X0297987Y0188862D03*
X0298087Y0188562D03*
X0295087Y0191562D03*
X0284887Y0186862D03*
X0283587Y0189962D03*
X0283487Y0190262D03*
X0283387Y0190462D03*
X0283387Y0190562D03*
X0283287Y0190662D03*
X0283187Y0190962D03*
X0283187Y0191062D03*
X0283087Y0191262D03*
X0282987Y0191462D03*
X0282887Y0191662D03*
X0277387Y0191262D03*
X0277387Y0191162D03*
X0277387Y0191062D03*
X0277387Y0190862D03*
X0277387Y0190762D03*
X0277387Y0190662D03*
X0277387Y0190462D03*
X0277387Y0190362D03*
X0277387Y0190262D03*
X0277387Y0190062D03*
X0277387Y0189962D03*
X0277387Y0189862D03*
X0277387Y0189662D03*
X0277387Y0189562D03*
X0277387Y0189462D03*
X0277387Y0189262D03*
X0277387Y0189162D03*
X0277387Y0189062D03*
X0277387Y0188862D03*
X0277387Y0188762D03*
X0277387Y0188662D03*
X0277387Y0188462D03*
X0277387Y0188362D03*
X0277387Y0188262D03*
X0277387Y0188062D03*
X0277387Y0187962D03*
X0277387Y0187862D03*
X0277387Y0187662D03*
X0277387Y0187562D03*
X0277387Y0187462D03*
X0277387Y0187262D03*
X0277387Y0187162D03*
X0274087Y0187662D03*
X0273887Y0187862D03*
X0273887Y0187962D03*
X0273787Y0188162D03*
X0273687Y0188462D03*
X0273787Y0190562D03*
X0270487Y0190662D03*
X0270487Y0190762D03*
X0270487Y0190462D03*
X0270387Y0190162D03*
X0270287Y0191162D03*
X0270087Y0191362D03*
X0266787Y0191362D03*
X0266787Y0191262D03*
X0266787Y0191162D03*
X0266787Y0191062D03*
X0266787Y0190962D03*
X0266787Y0190862D03*
X0266787Y0190762D03*
X0266787Y0190662D03*
X0266787Y0190562D03*
X0266787Y0190462D03*
X0266787Y0190362D03*
X0266787Y0190262D03*
X0266787Y0190162D03*
X0266787Y0190062D03*
X0266787Y0189962D03*
X0266787Y0189862D03*
X0266787Y0189762D03*
X0266787Y0189662D03*
X0266787Y0189562D03*
X0266787Y0189462D03*
X0266787Y0189362D03*
X0266787Y0188962D03*
X0266787Y0188862D03*
X0266787Y0188762D03*
X0266787Y0188662D03*
X0266787Y0188562D03*
X0266787Y0188462D03*
X0266787Y0188362D03*
X0266787Y0188262D03*
X0266787Y0188162D03*
X0266787Y0188062D03*
X0266787Y0187962D03*
X0266787Y0187862D03*
X0266787Y0187762D03*
X0266787Y0187662D03*
X0266787Y0187562D03*
X0266787Y0187462D03*
X0266787Y0187362D03*
X0266787Y0187262D03*
X0266787Y0187162D03*
X0266787Y0187062D03*
X0266787Y0186962D03*
X0266787Y0186862D03*
X0266787Y0186762D03*
X0268287Y0187762D03*
X0268187Y0188162D03*
X0268287Y0188262D03*
X0268287Y0188462D03*
X0268687Y0187162D03*
X0270587Y0187262D03*
X0264587Y0189562D03*
X0264487Y0189662D03*
X0264487Y0189762D03*
X0264387Y0189862D03*
X0264387Y0189962D03*
X0264387Y0190062D03*
X0264287Y0190362D03*
X0264287Y0190462D03*
X0264287Y0190562D03*
X0264287Y0190662D03*
X0264387Y0190962D03*
X0264487Y0191162D03*
X0262987Y0191162D03*
X0262987Y0191362D03*
X0262987Y0191562D03*
X0262987Y0190962D03*
X0262987Y0190762D03*
X0262987Y0190562D03*
X0262987Y0190362D03*
X0262987Y0190162D03*
X0262987Y0189962D03*
X0262987Y0189762D03*
X0262987Y0189562D03*
X0262987Y0189362D03*
X0262987Y0189162D03*
X0262987Y0188962D03*
X0262987Y0188762D03*
X0262987Y0188562D03*
X0262987Y0188362D03*
X0262987Y0188162D03*
X0262987Y0187962D03*
X0262987Y0187762D03*
X0262987Y0187562D03*
X0262987Y0187362D03*
X0259887Y0186962D03*
X0256787Y0188462D03*
X0256587Y0188062D03*
X0256587Y0187962D03*
X0256487Y0187762D03*
X0256387Y0187462D03*
X0256287Y0187262D03*
X0256187Y0187062D03*
X0256187Y0186962D03*
X0256087Y0186762D03*
X0254287Y0186762D03*
X0254287Y0186862D03*
X0254287Y0186962D03*
X0254287Y0187062D03*
X0254287Y0187162D03*
X0254287Y0187262D03*
X0254287Y0187362D03*
X0254287Y0187462D03*
X0254287Y0187562D03*
X0254287Y0187662D03*
X0254287Y0187762D03*
X0254287Y0187862D03*
X0254287Y0187962D03*
X0254287Y0188062D03*
X0254287Y0188162D03*
X0254287Y0188262D03*
X0254287Y0188362D03*
X0254287Y0188462D03*
X0254287Y0188562D03*
X0254287Y0188662D03*
X0254287Y0188762D03*
X0254287Y0188862D03*
X0254587Y0189462D03*
X0254687Y0189662D03*
X0254787Y0189762D03*
X0254987Y0190062D03*
X0255687Y0191262D03*
X0257487Y0190262D03*
X0257587Y0190362D03*
X0257587Y0190462D03*
X0257687Y0190662D03*
X0257987Y0191162D03*
X0257487Y0190062D03*
X0257387Y0189962D03*
X0257387Y0189862D03*
X0257287Y0189762D03*
X0257187Y0189562D03*
X0256987Y0189062D03*
X0252687Y0191462D03*
X0252587Y0191562D03*
X0252587Y0191662D03*
X0251187Y0191462D03*
X0251587Y0190262D03*
X0251587Y0190162D03*
X0249687Y0191362D03*
X0249387Y0188262D03*
X0249487Y0187762D03*
X0251687Y0187162D03*
D33*
X0251787Y0187262D03*
X0251787Y0187362D03*
X0249687Y0187362D03*
X0249387Y0187962D03*
X0249387Y0188062D03*
X0253087Y0190662D03*
X0253087Y0190762D03*
X0252987Y0190962D03*
X0252887Y0191062D03*
X0252787Y0191362D03*
X0253187Y0190562D03*
X0253287Y0190362D03*
X0253587Y0189862D03*
X0253787Y0189562D03*
X0253887Y0189362D03*
X0251587Y0190962D03*
X0249587Y0191162D03*
X0258387Y0190562D03*
X0259387Y0188162D03*
X0259487Y0187962D03*
X0259487Y0187862D03*
X0259587Y0187762D03*
X0259587Y0187662D03*
X0259687Y0187562D03*
X0259687Y0187362D03*
X0259687Y0187262D03*
X0259787Y0187062D03*
X0259887Y0186862D03*
X0268287Y0187662D03*
X0268387Y0187562D03*
X0268487Y0187362D03*
X0268287Y0187862D03*
X0268287Y0187962D03*
X0270587Y0187362D03*
X0270487Y0190862D03*
X0270187Y0191262D03*
X0268487Y0191262D03*
X0283587Y0190062D03*
X0283787Y0189562D03*
X0283887Y0189262D03*
X0283987Y0189062D03*
X0284187Y0188562D03*
X0297087Y0186762D03*
X0298087Y0188462D03*
X0297987Y0188762D03*
X0297787Y0189262D03*
X0297687Y0189462D03*
D34*
X0299287Y0188762D03*
X0299187Y0188462D03*
X0298787Y0187462D03*
X0301687Y0186862D03*
X0301987Y0187262D03*
X0301987Y0187362D03*
X0302187Y0187662D03*
X0302187Y0187762D03*
X0302287Y0187862D03*
X0302387Y0187962D03*
X0302387Y0188062D03*
X0302587Y0188362D03*
X0302787Y0188662D03*
X0302187Y0191162D03*
X0300387Y0191662D03*
X0300287Y0191462D03*
X0300187Y0191062D03*
X0300187Y0190962D03*
X0300087Y0190862D03*
X0300087Y0190762D03*
X0299887Y0190362D03*
X0299887Y0190262D03*
X0295087Y0190862D03*
X0291887Y0190062D03*
X0290187Y0188462D03*
X0293587Y0187262D03*
X0293587Y0187162D03*
X0293687Y0187362D03*
X0293687Y0187462D03*
X0293787Y0187662D03*
X0293887Y0187962D03*
X0293487Y0186962D03*
X0293487Y0186862D03*
X0293387Y0186762D03*
X0288187Y0192462D03*
X0286487Y0191562D03*
X0286387Y0191362D03*
X0286187Y0190862D03*
X0286087Y0190662D03*
X0285987Y0190362D03*
X0285987Y0190262D03*
X0285887Y0190062D03*
X0285887Y0189962D03*
X0285787Y0189762D03*
X0285687Y0189562D03*
X0285687Y0189462D03*
X0285587Y0189262D03*
X0285487Y0189062D03*
X0285487Y0188962D03*
X0285387Y0188762D03*
X0285387Y0188662D03*
X0285287Y0188562D03*
X0285287Y0188462D03*
X0284887Y0187562D03*
X0269987Y0189662D03*
X0250887Y0186762D03*
X0249887Y0188962D03*
X0309387Y0190662D03*
X0309487Y0189762D03*
X0309687Y0189462D03*
D35*
X0298137Y0188362D03*
X0298037Y0188662D03*
X0297937Y0188962D03*
X0297837Y0189062D03*
X0297837Y0189162D03*
X0297737Y0189362D03*
X0297637Y0189562D03*
X0297637Y0189662D03*
X0297637Y0189762D03*
X0297537Y0189862D03*
X0297537Y0189962D03*
X0297437Y0190062D03*
X0297437Y0190162D03*
X0297337Y0190462D03*
X0297337Y0190562D03*
X0297237Y0190662D03*
X0297237Y0190762D03*
X0297137Y0190962D03*
X0297137Y0191062D03*
X0297037Y0191262D03*
X0295737Y0189962D03*
X0295937Y0189762D03*
X0295837Y0189662D03*
X0296037Y0189462D03*
X0296137Y0189162D03*
X0296237Y0188962D03*
X0296537Y0188062D03*
X0296637Y0187862D03*
X0296737Y0187562D03*
X0292237Y0187362D03*
X0284837Y0186762D03*
X0284237Y0188362D03*
X0284237Y0188462D03*
X0284137Y0188662D03*
X0284137Y0188762D03*
X0284037Y0188862D03*
X0284037Y0188962D03*
X0283937Y0189162D03*
X0283837Y0189362D03*
X0283837Y0189462D03*
X0283737Y0189662D03*
X0283737Y0189762D03*
X0283637Y0189862D03*
X0283537Y0190162D03*
X0283437Y0190362D03*
X0283337Y0190762D03*
X0283237Y0190862D03*
X0290137Y0191162D03*
X0295037Y0191662D03*
X0270537Y0190562D03*
X0270437Y0190962D03*
X0270337Y0191062D03*
X0268537Y0191362D03*
X0268237Y0188062D03*
X0268437Y0187462D03*
X0268537Y0187262D03*
X0259937Y0186762D03*
X0259837Y0187162D03*
X0259737Y0187462D03*
X0257037Y0189162D03*
X0257137Y0189362D03*
X0257437Y0190162D03*
X0257937Y0191362D03*
X0257937Y0191462D03*
X0253037Y0190862D03*
X0252837Y0191162D03*
X0252737Y0191262D03*
X0251637Y0190862D03*
X0251637Y0190762D03*
X0251637Y0190662D03*
X0251637Y0190562D03*
X0251637Y0190462D03*
X0251637Y0190362D03*
X0251537Y0191062D03*
X0251437Y0191162D03*
X0251437Y0191262D03*
X0251337Y0191362D03*
X0249637Y0191262D03*
X0249437Y0188162D03*
X0249437Y0187862D03*
X0249437Y0187662D03*
X0249537Y0187562D03*
X0249537Y0187462D03*
X0249737Y0187262D03*
D36*
X0257937Y0188762D03*
X0257937Y0188862D03*
X0265737Y0191462D03*
X0276337Y0186862D03*
X0280737Y0186862D03*
X0280737Y0186962D03*
X0280737Y0187062D03*
X0280737Y0187162D03*
X0280737Y0187262D03*
X0280737Y0186762D03*
X0280737Y0189062D03*
X0280737Y0189162D03*
X0280737Y0189262D03*
X0280737Y0189362D03*
X0280737Y0189462D03*
X0280737Y0189562D03*
X0280737Y0191162D03*
X0280737Y0191262D03*
X0280737Y0191362D03*
X0280737Y0191462D03*
X0280737Y0191562D03*
X0280737Y0191662D03*
X0303337Y0191562D03*
D37*
X0303587Y0189162D03*
X0303587Y0189062D03*
X0310987Y0191662D03*
X0291087Y0189362D03*
X0290987Y0189262D03*
X0290887Y0189162D03*
X0290887Y0191462D03*
X0276587Y0186762D03*
D38*
X0277437Y0187362D03*
X0277437Y0187762D03*
X0277437Y0188162D03*
X0277437Y0188562D03*
X0277437Y0188962D03*
X0277437Y0189362D03*
X0277437Y0189762D03*
X0277437Y0190162D03*
X0277437Y0190562D03*
X0277437Y0190962D03*
X0274037Y0190962D03*
X0273937Y0190862D03*
X0273937Y0190762D03*
X0273837Y0190662D03*
X0273737Y0190462D03*
X0273737Y0190362D03*
X0273737Y0190262D03*
X0273637Y0190162D03*
X0273637Y0189962D03*
X0273637Y0189862D03*
X0273637Y0189762D03*
X0273637Y0189562D03*
X0273637Y0189462D03*
X0273637Y0189362D03*
X0273637Y0189162D03*
X0273637Y0189062D03*
X0273637Y0188962D03*
X0273637Y0188762D03*
X0273637Y0188662D03*
X0273637Y0188562D03*
X0273737Y0188362D03*
X0273737Y0188262D03*
X0273837Y0188062D03*
X0274037Y0187762D03*
X0274237Y0187562D03*
X0274237Y0187462D03*
X0274537Y0187262D03*
X0272137Y0187262D03*
X0272137Y0187362D03*
X0272137Y0187462D03*
X0272137Y0187562D03*
X0272137Y0187662D03*
X0272137Y0187762D03*
X0272137Y0187862D03*
X0272137Y0187962D03*
X0272137Y0188062D03*
X0272137Y0188162D03*
X0272137Y0188262D03*
X0272137Y0188362D03*
X0272137Y0188462D03*
X0272137Y0188562D03*
X0272137Y0188662D03*
X0272137Y0188762D03*
X0272137Y0188862D03*
X0272137Y0188962D03*
X0272137Y0189062D03*
X0272137Y0189162D03*
X0272137Y0189262D03*
X0272137Y0189362D03*
X0272137Y0189462D03*
X0272137Y0189562D03*
X0272137Y0189662D03*
X0272137Y0189762D03*
X0272137Y0189862D03*
X0272137Y0189962D03*
X0272137Y0190062D03*
X0272137Y0190162D03*
X0272137Y0190262D03*
X0272137Y0190362D03*
X0272137Y0190462D03*
X0272137Y0190562D03*
X0272137Y0190662D03*
X0272137Y0190762D03*
X0272137Y0190862D03*
X0272137Y0190962D03*
X0272137Y0191062D03*
X0272137Y0191162D03*
X0272137Y0191262D03*
X0272137Y0191362D03*
X0272137Y0191462D03*
X0272137Y0191562D03*
X0270437Y0190362D03*
X0270437Y0190262D03*
X0270337Y0190062D03*
X0269937Y0191462D03*
X0268637Y0191462D03*
X0268437Y0188662D03*
X0268337Y0188562D03*
X0268237Y0188362D03*
X0268837Y0187062D03*
X0270537Y0187162D03*
X0272137Y0187162D03*
X0272137Y0187062D03*
X0272137Y0186962D03*
X0272137Y0186862D03*
X0272137Y0186762D03*
X0264337Y0190162D03*
X0264337Y0190262D03*
X0264337Y0190762D03*
X0264337Y0190862D03*
X0264437Y0191062D03*
X0262937Y0191062D03*
X0262937Y0191262D03*
X0262937Y0191462D03*
X0262937Y0191662D03*
X0262937Y0190862D03*
X0262937Y0190662D03*
X0262937Y0190462D03*
X0262937Y0190262D03*
X0262937Y0190062D03*
X0262937Y0189862D03*
X0262937Y0189662D03*
X0262937Y0189462D03*
X0262937Y0189262D03*
X0262937Y0189062D03*
X0262937Y0188862D03*
X0262937Y0188662D03*
X0262937Y0188462D03*
X0262937Y0188262D03*
X0262937Y0188062D03*
X0262937Y0187862D03*
X0262937Y0187662D03*
X0262937Y0187462D03*
X0262937Y0187262D03*
X0257237Y0189462D03*
X0257237Y0189662D03*
X0257137Y0189262D03*
X0256837Y0188562D03*
X0256737Y0188362D03*
X0256637Y0188262D03*
X0256637Y0188162D03*
X0256537Y0187862D03*
X0256437Y0187662D03*
X0256437Y0187562D03*
X0256337Y0187362D03*
X0256237Y0187162D03*
X0256137Y0186862D03*
X0254237Y0188962D03*
X0254637Y0189362D03*
X0254737Y0189562D03*
X0254937Y0189962D03*
X0255037Y0190162D03*
X0255037Y0190262D03*
X0255137Y0190362D03*
X0255237Y0190462D03*
X0255237Y0190562D03*
X0255337Y0190662D03*
X0255437Y0190762D03*
X0255537Y0190962D03*
X0255637Y0191162D03*
X0255737Y0191362D03*
X0255837Y0191462D03*
X0255837Y0191562D03*
X0255937Y0191662D03*
X0257637Y0190562D03*
X0257937Y0191062D03*
X0257937Y0191262D03*
X0251537Y0190062D03*
X0251437Y0189962D03*
X0249537Y0188562D03*
X0249437Y0188462D03*
X0249437Y0188362D03*
X0249837Y0187162D03*
X0282937Y0191562D03*
X0283037Y0191362D03*
X0283137Y0191162D03*
X0291937Y0191062D03*
X0292037Y0190962D03*
X0292037Y0190862D03*
X0295037Y0191462D03*
X0296137Y0189062D03*
X0296937Y0187062D03*
X0298837Y0186962D03*
X0292137Y0187262D03*
X0290137Y0187362D03*
X0290037Y0187662D03*
X0284837Y0186962D03*
D39*
X0303437Y0189262D03*
X0265837Y0191562D03*
X0262037Y0187162D03*
X0262037Y0187062D03*
X0262037Y0186962D03*
X0262037Y0186862D03*
X0262037Y0186762D03*
X0257937Y0188962D03*
D40*
X0250887Y0186962D03*
X0290687Y0188962D03*
X0291387Y0186862D03*
X0290887Y0191562D03*
D41*
X0290587Y0188862D03*
X0269687Y0186862D03*
X0269187Y0191562D03*
X0250387Y0191562D03*
X0250787Y0186862D03*
D42*
X0265937Y0189162D03*
X0290937Y0191362D03*
X0291337Y0186962D03*
X0303537Y0188962D03*
D43*
X0295137Y0188562D03*
X0295137Y0188462D03*
X0276237Y0186962D03*
D44*
X0269737Y0186962D03*
X0266037Y0191662D03*
X0290837Y0189062D03*
X0291237Y0189462D03*
X0291337Y0189562D03*
X0311037Y0188962D03*
D45*
X0310887Y0189062D03*
X0303487Y0188862D03*
X0303487Y0191662D03*
X0291287Y0187062D03*
X0265887Y0189262D03*
D46*
X0276087Y0187062D03*
X0276087Y0191562D03*
X0295087Y0188362D03*
D47*
X0295087Y0190562D03*
X0295087Y0190762D03*
X0291787Y0189962D03*
X0287987Y0192662D03*
X0287887Y0192762D03*
X0284887Y0187862D03*
X0298787Y0187862D03*
X0298787Y0187762D03*
X0301987Y0187462D03*
X0268987Y0189062D03*
X0269187Y0191662D03*
X0250087Y0189062D03*
D48*
X0249537Y0190962D03*
X0257937Y0191762D03*
X0251837Y0187662D03*
X0251837Y0187562D03*
X0268437Y0190962D03*
X0270737Y0187562D03*
X0273437Y0192762D03*
X0273737Y0192762D03*
X0274037Y0192762D03*
X0274337Y0192762D03*
X0274637Y0192762D03*
X0274937Y0192762D03*
X0275237Y0192762D03*
X0275537Y0192762D03*
X0275837Y0192762D03*
X0276137Y0192762D03*
X0276437Y0192762D03*
X0276737Y0192762D03*
X0277037Y0192762D03*
X0277337Y0192762D03*
X0277637Y0192762D03*
X0277937Y0192762D03*
X0278237Y0192762D03*
X0278537Y0192762D03*
X0278837Y0192762D03*
X0279137Y0192762D03*
X0279437Y0192762D03*
X0279737Y0192762D03*
X0280037Y0192762D03*
X0280337Y0192762D03*
X0280637Y0192762D03*
X0280937Y0192762D03*
X0281237Y0192762D03*
X0281537Y0192762D03*
X0281837Y0192762D03*
X0282137Y0192762D03*
X0282437Y0192762D03*
X0282737Y0192762D03*
X0283037Y0192762D03*
X0283337Y0192762D03*
X0283637Y0192762D03*
X0283937Y0192762D03*
X0284237Y0192762D03*
X0284537Y0192762D03*
X0284837Y0192762D03*
X0285137Y0192762D03*
X0285437Y0192762D03*
X0285737Y0192762D03*
X0286037Y0192762D03*
X0286337Y0192762D03*
X0286637Y0192762D03*
X0286937Y0192762D03*
D49*
X0292187Y0187862D03*
X0292387Y0187862D03*
X0294887Y0188162D03*
X0295087Y0188162D03*
X0295387Y0188162D03*
X0295587Y0188162D03*
X0295787Y0188162D03*
X0295987Y0188162D03*
X0274387Y0187862D03*
X0273087Y0192662D03*
X0251887Y0187762D03*
D50*
X0250737Y0189462D03*
X0250237Y0189162D03*
X0250337Y0191662D03*
X0269037Y0189162D03*
X0269237Y0189262D03*
X0269637Y0189462D03*
X0284937Y0187962D03*
X0290337Y0188662D03*
X0295037Y0190462D03*
X0298837Y0187962D03*
X0302437Y0191262D03*
D51*
X0295137Y0190162D03*
X0291537Y0189762D03*
X0290437Y0188762D03*
X0284937Y0188162D03*
X0298837Y0188262D03*
X0250537Y0189362D03*
D52*
X0295087Y0188262D03*
D53*
X0295137Y0188662D03*
X0303237Y0191362D03*
X0310637Y0191362D03*
D54*
X0310687Y0191462D03*
X0310687Y0189262D03*
X0303287Y0191462D03*
X0257987Y0188662D03*
D55*
X0266137Y0189062D03*
X0291437Y0189662D03*
D56*
X0275937Y0191362D03*
D57*
X0275937Y0191462D03*
D58*
X0276187Y0191662D03*
D59*
X0280237Y0192962D03*
D60*
X0280187Y0193062D03*
D61*
X0280237Y0193162D03*
D62*
X0280187Y0193262D03*
D63*
X0280237Y0193362D03*
D64*
X0280237Y0193462D03*
D65*
X0280187Y0193562D03*
D66*
X0280237Y0193662D03*
D67*
X0327287Y0125006D03*
X0327346Y0124947D03*
X0327346Y0124888D03*
X0327406Y0124829D03*
X0327406Y0124770D03*
X0327465Y0124652D03*
X0327465Y0124593D03*
X0327524Y0124534D03*
X0327524Y0124475D03*
X0327583Y0124416D03*
X0327583Y0124357D03*
X0327642Y0124298D03*
X0327642Y0124239D03*
X0327701Y0124121D03*
X0327760Y0124002D03*
X0327819Y0123884D03*
X0327819Y0123825D03*
X0327878Y0123766D03*
X0327878Y0123707D03*
X0327937Y0123648D03*
X0327937Y0123589D03*
X0327996Y0123471D03*
X0328055Y0123353D03*
X0328114Y0123235D03*
X0328114Y0123176D03*
X0328173Y0123117D03*
X0328173Y0123058D03*
X0328232Y0122940D03*
X0328291Y0122821D03*
X0328350Y0122703D03*
X0328409Y0122585D03*
X0328469Y0122467D03*
X0328469Y0122408D03*
X0328528Y0122290D03*
X0328587Y0122172D03*
X0328646Y0122054D03*
X0328705Y0121936D03*
X0328823Y0121640D03*
X0328882Y0121522D03*
X0328941Y0121404D03*
X0329000Y0121286D03*
X0329177Y0120873D03*
X0329236Y0120754D03*
X0329531Y0120105D03*
X0332248Y0114199D03*
X0332307Y0114081D03*
X0332366Y0113963D03*
X0332602Y0113432D03*
X0332661Y0113314D03*
X0332720Y0113195D03*
X0332780Y0113077D03*
X0332957Y0112664D03*
X0333016Y0112546D03*
X0333075Y0112428D03*
X0333134Y0112310D03*
X0333252Y0112014D03*
X0333311Y0111896D03*
X0333370Y0111778D03*
X0333429Y0111660D03*
X0333488Y0111542D03*
X0333547Y0111424D03*
X0333606Y0111247D03*
X0333665Y0111128D03*
X0333724Y0111010D03*
X0333783Y0110892D03*
X0333843Y0110774D03*
X0333902Y0110656D03*
X0333961Y0110479D03*
X0334020Y0110361D03*
X0334079Y0110243D03*
X0334138Y0110125D03*
X0334197Y0110006D03*
X0334256Y0109888D03*
X0334315Y0109711D03*
X0334374Y0109593D03*
X0334433Y0109475D03*
X0334492Y0109357D03*
X0334551Y0109239D03*
X0334610Y0109121D03*
X0334669Y0108943D03*
X0334728Y0108825D03*
X0334787Y0108707D03*
X0334846Y0108589D03*
X0334906Y0108471D03*
X0334965Y0108353D03*
X0335024Y0108235D03*
X0335024Y0108176D03*
X0335083Y0108058D03*
X0335142Y0107940D03*
X0335201Y0107821D03*
X0352563Y0115912D03*
X0352563Y0115971D03*
X0352504Y0116148D03*
X0352504Y0116207D03*
X0352504Y0116266D03*
X0352504Y0116325D03*
X0352445Y0116443D03*
X0352445Y0116502D03*
X0352445Y0116562D03*
X0352445Y0116621D03*
X0352386Y0116975D03*
X0352386Y0117034D03*
X0352386Y0117093D03*
X0352386Y0117152D03*
X0352386Y0118156D03*
X0352386Y0118215D03*
X0352386Y0118274D03*
X0352386Y0118333D03*
X0352445Y0118688D03*
X0352445Y0118747D03*
X0352445Y0118806D03*
X0352445Y0118865D03*
X0352445Y0118924D03*
X0352504Y0118983D03*
X0352504Y0119042D03*
X0352504Y0119101D03*
X0352504Y0119160D03*
X0346185Y0120991D03*
X0342110Y0124711D03*
X0361126Y0125597D03*
X0366264Y0119455D03*
X0366323Y0119278D03*
X0366323Y0119219D03*
X0366323Y0119160D03*
X0366323Y0119101D03*
X0366382Y0119042D03*
X0366382Y0118983D03*
X0366382Y0118924D03*
X0366382Y0118865D03*
X0366382Y0118806D03*
X0366441Y0118569D03*
X0366441Y0118510D03*
X0366441Y0118451D03*
X0366441Y0118392D03*
X0366441Y0116916D03*
X0366441Y0116857D03*
X0366441Y0116798D03*
X0366441Y0116739D03*
X0366382Y0116502D03*
X0366382Y0116443D03*
X0366382Y0116384D03*
X0366382Y0116325D03*
X0366382Y0116266D03*
X0366323Y0116207D03*
X0366323Y0116148D03*
X0366323Y0116089D03*
X0366264Y0115912D03*
X0366264Y0115853D03*
X0371697Y0117388D03*
X0380201Y0117684D03*
X0380260Y0117802D03*
X0380260Y0117861D03*
X0380319Y0117979D03*
X0380319Y0120636D03*
X0380260Y0120754D03*
X0380260Y0120814D03*
X0380201Y0120932D03*
X0371697Y0121227D03*
X0376362Y0125065D03*
D68*
X0371667Y0121168D03*
X0366411Y0118747D03*
X0366411Y0118688D03*
X0366411Y0118628D03*
X0366470Y0118333D03*
X0366470Y0118274D03*
X0366470Y0118215D03*
X0366470Y0118156D03*
X0366470Y0118097D03*
X0366470Y0118038D03*
X0366470Y0117979D03*
X0366470Y0117920D03*
X0366470Y0117861D03*
X0366470Y0117802D03*
X0366470Y0117743D03*
X0366470Y0117684D03*
X0366470Y0117625D03*
X0366470Y0117565D03*
X0366470Y0117506D03*
X0366470Y0117447D03*
X0366470Y0117388D03*
X0366470Y0117329D03*
X0366470Y0117270D03*
X0366470Y0117211D03*
X0366470Y0117152D03*
X0366470Y0117093D03*
X0366470Y0117034D03*
X0366470Y0116975D03*
X0366411Y0116680D03*
X0366411Y0116621D03*
X0366411Y0116562D03*
X0371667Y0117447D03*
X0380289Y0117920D03*
X0380348Y0118038D03*
X0380348Y0118097D03*
X0380407Y0118333D03*
X0380407Y0120282D03*
X0380348Y0120459D03*
X0380348Y0120518D03*
X0380348Y0120577D03*
X0380289Y0120695D03*
X0376274Y0113550D03*
X0352474Y0116384D03*
X0352415Y0116680D03*
X0352415Y0116739D03*
X0352415Y0116798D03*
X0352415Y0116857D03*
X0352415Y0116916D03*
X0352356Y0117211D03*
X0352356Y0117270D03*
X0352356Y0117329D03*
X0352356Y0117388D03*
X0352356Y0117447D03*
X0352356Y0117506D03*
X0352356Y0117565D03*
X0352356Y0117625D03*
X0352356Y0117684D03*
X0352356Y0117743D03*
X0352356Y0117802D03*
X0352356Y0117861D03*
X0352356Y0117920D03*
X0352356Y0117979D03*
X0352356Y0118038D03*
X0352356Y0118097D03*
X0352415Y0118392D03*
X0352415Y0118451D03*
X0352415Y0118510D03*
X0352415Y0118569D03*
X0352415Y0118628D03*
X0346215Y0120873D03*
X0346215Y0120932D03*
X0332219Y0114317D03*
X0332219Y0114258D03*
X0332278Y0114140D03*
X0332337Y0114022D03*
X0332396Y0113904D03*
X0332396Y0113845D03*
X0332455Y0113786D03*
X0332455Y0113727D03*
X0332514Y0113668D03*
X0332514Y0113609D03*
X0332573Y0113550D03*
X0332573Y0113491D03*
X0332632Y0113373D03*
X0332691Y0113254D03*
X0332750Y0113136D03*
X0332809Y0113018D03*
X0332809Y0112959D03*
X0332868Y0112900D03*
X0332868Y0112841D03*
X0332927Y0112782D03*
X0332927Y0112723D03*
X0332986Y0112605D03*
X0333045Y0112487D03*
X0333104Y0112369D03*
X0333163Y0112251D03*
X0333163Y0112191D03*
X0333222Y0112132D03*
X0333222Y0112073D03*
X0333281Y0111955D03*
X0333341Y0111837D03*
X0333400Y0111719D03*
X0333459Y0111601D03*
X0333518Y0111483D03*
X0333577Y0111365D03*
X0333577Y0111306D03*
X0333636Y0111188D03*
X0333695Y0111069D03*
X0333754Y0110951D03*
X0333813Y0110833D03*
X0333872Y0110715D03*
X0333931Y0110597D03*
X0333931Y0110538D03*
X0333990Y0110420D03*
X0334049Y0110302D03*
X0334108Y0110184D03*
X0334167Y0110065D03*
X0334226Y0109947D03*
X0334285Y0109829D03*
X0334285Y0109770D03*
X0334344Y0109652D03*
X0334404Y0109534D03*
X0334463Y0109416D03*
X0334522Y0109298D03*
X0334581Y0109180D03*
X0334640Y0109062D03*
X0334640Y0109002D03*
X0334699Y0108884D03*
X0334758Y0108766D03*
X0334817Y0108648D03*
X0334876Y0108530D03*
X0334935Y0108412D03*
X0334994Y0108294D03*
X0335053Y0108117D03*
X0335112Y0107999D03*
X0335171Y0107880D03*
X0332159Y0114377D03*
X0332159Y0114436D03*
X0332100Y0114495D03*
X0332100Y0114554D03*
X0332041Y0114613D03*
X0332041Y0114672D03*
X0330388Y0118215D03*
X0330329Y0118333D03*
X0330329Y0118392D03*
X0330270Y0118451D03*
X0330270Y0118510D03*
X0330211Y0118569D03*
X0330211Y0118628D03*
X0330152Y0118688D03*
X0330152Y0118747D03*
X0330093Y0118865D03*
X0330093Y0118924D03*
X0330033Y0118983D03*
X0330033Y0119042D03*
X0329974Y0119101D03*
X0329974Y0119160D03*
X0329915Y0119219D03*
X0329915Y0119278D03*
X0329856Y0119337D03*
X0329856Y0119396D03*
X0329797Y0119514D03*
X0329797Y0119573D03*
X0329738Y0119632D03*
X0329738Y0119691D03*
X0329679Y0119751D03*
X0329679Y0119810D03*
X0329620Y0119869D03*
X0329620Y0119928D03*
X0329561Y0119987D03*
X0329561Y0120046D03*
X0329502Y0120164D03*
X0329502Y0120223D03*
X0329443Y0120282D03*
X0329443Y0120341D03*
X0329384Y0120400D03*
X0329384Y0120459D03*
X0329325Y0120518D03*
X0329325Y0120577D03*
X0329266Y0120636D03*
X0329266Y0120695D03*
X0329207Y0120814D03*
X0329148Y0120932D03*
X0329148Y0120991D03*
X0329089Y0121050D03*
X0329089Y0121109D03*
X0329030Y0121168D03*
X0329030Y0121227D03*
X0328970Y0121345D03*
X0328911Y0121463D03*
X0328852Y0121581D03*
X0328793Y0121699D03*
X0328793Y0121758D03*
X0328734Y0121817D03*
X0328734Y0121877D03*
X0328675Y0121995D03*
X0328616Y0122113D03*
X0328557Y0122231D03*
X0328498Y0122349D03*
X0328439Y0122526D03*
X0328380Y0122644D03*
X0328321Y0122762D03*
X0328262Y0122880D03*
X0328203Y0122999D03*
X0328085Y0123294D03*
X0328026Y0123412D03*
X0327967Y0123530D03*
X0327789Y0123943D03*
X0327730Y0124062D03*
X0327671Y0124180D03*
X0327435Y0124711D03*
D69*
X0351530Y0120282D03*
X0353124Y0121995D03*
X0355604Y0121995D03*
X0356726Y0119987D03*
X0355604Y0127251D03*
X0353124Y0127251D03*
X0352120Y0129495D03*
X0352415Y0129613D03*
X0356549Y0129554D03*
X0359443Y0109121D03*
D70*
X0359413Y0109180D03*
X0376362Y0125184D03*
D71*
X0371638Y0121109D03*
X0380378Y0120400D03*
X0380378Y0120341D03*
X0380437Y0120223D03*
X0380437Y0120164D03*
X0380437Y0120105D03*
X0380437Y0120046D03*
X0380496Y0119810D03*
X0380496Y0119751D03*
X0380496Y0119691D03*
X0380496Y0119632D03*
X0380496Y0118924D03*
X0380496Y0118865D03*
X0380496Y0118806D03*
X0380437Y0118569D03*
X0380437Y0118510D03*
X0380437Y0118451D03*
X0380437Y0118392D03*
X0380378Y0118274D03*
X0380378Y0118215D03*
X0380378Y0118156D03*
X0371638Y0117506D03*
X0361067Y0125656D03*
X0346244Y0120814D03*
X0342051Y0124770D03*
X0329827Y0119455D03*
X0330122Y0118806D03*
X0330358Y0118274D03*
X0330417Y0118156D03*
X0359413Y0109239D03*
D72*
X0359443Y0109298D03*
X0353596Y0113668D03*
X0353537Y0113727D03*
X0365289Y0113727D03*
X0365348Y0113786D03*
X0371963Y0116857D03*
X0379640Y0116739D03*
X0379640Y0121877D03*
X0379581Y0121936D03*
X0365348Y0121522D03*
X0365289Y0121581D03*
X0365230Y0121699D03*
X0345919Y0121581D03*
X0342435Y0124357D03*
X0332041Y0115262D03*
D73*
X0332071Y0115794D03*
X0332071Y0115853D03*
X0345654Y0121936D03*
X0354394Y0112782D03*
X0359413Y0109357D03*
X0364492Y0122526D03*
X0361717Y0125065D03*
X0372228Y0122054D03*
X0379138Y0122290D03*
D74*
X0372465Y0116325D03*
X0359413Y0109416D03*
X0354925Y0112369D03*
X0345417Y0122172D03*
X0332071Y0116325D03*
X0332071Y0116266D03*
D75*
X0332071Y0116798D03*
X0359413Y0109475D03*
X0362189Y0124475D03*
D76*
X0376421Y0124534D03*
X0376362Y0114081D03*
X0359413Y0109534D03*
X0332071Y0117152D03*
D77*
X0332100Y0117565D03*
X0332100Y0117625D03*
X0359443Y0109593D03*
X0362514Y0123825D03*
D78*
X0362602Y0123589D03*
X0376421Y0124298D03*
X0359413Y0109652D03*
D79*
X0359413Y0109711D03*
D80*
X0359443Y0109770D03*
D81*
X0359413Y0109829D03*
D82*
X0359413Y0109888D03*
D83*
X0359443Y0109947D03*
D84*
X0359443Y0110006D03*
D85*
X0359443Y0110065D03*
D86*
X0359443Y0110125D03*
D87*
X0359413Y0110184D03*
D88*
X0359413Y0110243D03*
D89*
X0359413Y0110302D03*
D90*
X0359443Y0110361D03*
D91*
X0359413Y0110420D03*
D92*
X0359443Y0110479D03*
X0374915Y0114495D03*
D93*
X0375004Y0114613D03*
X0359413Y0110538D03*
X0375004Y0124002D03*
D94*
X0375122Y0123825D03*
X0375122Y0114849D03*
X0359413Y0110597D03*
D95*
X0359413Y0110656D03*
X0375181Y0114967D03*
X0375181Y0123707D03*
D96*
X0375270Y0123530D03*
X0375270Y0123471D03*
X0375270Y0115144D03*
X0359443Y0110715D03*
D97*
X0359413Y0110774D03*
X0375358Y0115321D03*
X0375358Y0123294D03*
D98*
X0375417Y0123176D03*
X0375417Y0123117D03*
X0375417Y0115499D03*
X0375417Y0115440D03*
X0359413Y0110833D03*
D99*
X0359443Y0110892D03*
X0375506Y0115676D03*
X0375506Y0115735D03*
X0375506Y0122880D03*
X0375506Y0122940D03*
D100*
X0375594Y0122644D03*
X0375594Y0116030D03*
X0375594Y0115971D03*
X0359413Y0110951D03*
D101*
X0359413Y0111010D03*
X0375654Y0116148D03*
X0375654Y0122467D03*
D102*
X0359443Y0111069D03*
D103*
X0359443Y0111128D03*
D104*
X0359413Y0111188D03*
D105*
X0359413Y0111247D03*
D106*
X0359413Y0111306D03*
D107*
X0359413Y0111365D03*
D108*
X0359413Y0111424D03*
D109*
X0359413Y0111483D03*
D110*
X0359413Y0111542D03*
D111*
X0359413Y0111601D03*
D112*
X0359413Y0111660D03*
D113*
X0359413Y0111719D03*
D114*
X0359413Y0111778D03*
D115*
X0359413Y0111837D03*
D116*
X0359413Y0111896D03*
D117*
X0359413Y0111955D03*
D118*
X0363134Y0112014D03*
X0362425Y0124002D03*
D119*
X0362396Y0124062D03*
X0363163Y0123294D03*
X0376392Y0124475D03*
X0355722Y0112014D03*
X0332100Y0117329D03*
X0332100Y0117388D03*
D120*
X0332100Y0117093D03*
X0355545Y0112073D03*
X0363341Y0112073D03*
X0363341Y0123235D03*
X0362337Y0124239D03*
D121*
X0362219Y0124416D03*
X0363518Y0123176D03*
X0372730Y0116207D03*
X0363459Y0112132D03*
X0355368Y0112132D03*
X0332100Y0116857D03*
D122*
X0332071Y0116680D03*
X0353508Y0119573D03*
X0362130Y0124534D03*
X0363606Y0123117D03*
X0363606Y0112191D03*
X0376362Y0113963D03*
D123*
X0376392Y0124652D03*
X0355250Y0112191D03*
X0332100Y0116739D03*
D124*
X0332071Y0116562D03*
X0362071Y0124652D03*
X0363724Y0123058D03*
X0372583Y0116266D03*
X0363724Y0112251D03*
D125*
X0355132Y0112251D03*
X0345270Y0122290D03*
X0332100Y0116621D03*
X0362100Y0124593D03*
X0372612Y0122349D03*
D126*
X0376392Y0124711D03*
X0376333Y0113904D03*
X0363813Y0112310D03*
X0355014Y0112310D03*
X0353419Y0119514D03*
X0332100Y0116502D03*
D127*
X0361982Y0124770D03*
X0363931Y0122940D03*
X0372494Y0122290D03*
X0363931Y0112369D03*
D128*
X0363990Y0112428D03*
X0354837Y0112428D03*
X0353301Y0119455D03*
X0361923Y0124829D03*
X0364049Y0122880D03*
X0376392Y0124770D03*
X0378872Y0122408D03*
X0378872Y0116207D03*
X0376333Y0113845D03*
D129*
X0364079Y0112487D03*
X0354748Y0112487D03*
X0372406Y0122231D03*
X0332071Y0116207D03*
X0332071Y0116148D03*
D130*
X0345506Y0122113D03*
X0354659Y0112546D03*
X0364167Y0112546D03*
X0372376Y0116384D03*
X0364108Y0122821D03*
X0361864Y0124888D03*
D131*
X0361835Y0124947D03*
X0364197Y0122762D03*
X0372346Y0122172D03*
X0379020Y0116266D03*
X0364256Y0112605D03*
X0332071Y0116030D03*
X0332071Y0116089D03*
D132*
X0345565Y0122054D03*
X0354600Y0112605D03*
X0364285Y0122703D03*
X0372317Y0116443D03*
X0379049Y0122349D03*
X0376392Y0124829D03*
D133*
X0372287Y0122113D03*
X0364315Y0122644D03*
X0361776Y0125006D03*
X0353154Y0119396D03*
X0354453Y0112723D03*
X0354512Y0112664D03*
X0364315Y0112664D03*
X0376303Y0113786D03*
X0332071Y0115912D03*
X0332071Y0115971D03*
D134*
X0345624Y0121995D03*
X0364404Y0122585D03*
X0372258Y0116502D03*
X0379108Y0116325D03*
X0364463Y0112782D03*
X0364404Y0112723D03*
D135*
X0364522Y0112841D03*
X0364581Y0112900D03*
X0372199Y0116562D03*
X0379226Y0116384D03*
X0376392Y0124888D03*
X0364522Y0122467D03*
X0361687Y0125125D03*
X0354246Y0112900D03*
X0354305Y0112841D03*
X0332041Y0115735D03*
D136*
X0332071Y0115676D03*
X0345713Y0121877D03*
X0342701Y0123884D03*
X0364610Y0122408D03*
X0364669Y0122349D03*
X0372169Y0121995D03*
X0379256Y0122231D03*
X0376303Y0113727D03*
X0364669Y0112959D03*
X0354217Y0112959D03*
D137*
X0354128Y0113018D03*
X0354069Y0113077D03*
X0364699Y0113018D03*
X0364758Y0113077D03*
X0372140Y0116621D03*
X0379285Y0116443D03*
X0379344Y0122172D03*
X0364699Y0122290D03*
X0361628Y0125184D03*
X0345742Y0121817D03*
X0342671Y0123943D03*
X0332041Y0115617D03*
D138*
X0332071Y0115558D03*
X0342642Y0124002D03*
X0352976Y0119337D03*
X0364787Y0122231D03*
X0364846Y0122172D03*
X0372110Y0121936D03*
X0379374Y0116502D03*
X0364846Y0113136D03*
X0354039Y0113136D03*
D139*
X0353951Y0113195D03*
X0364876Y0113195D03*
X0364935Y0113254D03*
X0372081Y0116680D03*
X0372081Y0121877D03*
X0379404Y0122113D03*
X0364935Y0122054D03*
X0364876Y0122113D03*
X0361569Y0125243D03*
X0345801Y0121758D03*
X0342612Y0124062D03*
X0332041Y0115499D03*
D140*
X0332071Y0115440D03*
X0345831Y0121699D03*
X0342583Y0124121D03*
X0342524Y0124180D03*
X0361480Y0125302D03*
X0364965Y0121995D03*
X0372051Y0116739D03*
X0379433Y0116562D03*
X0365024Y0113373D03*
X0364965Y0113314D03*
X0353921Y0113254D03*
X0353862Y0113314D03*
X0353803Y0113373D03*
D141*
X0351854Y0119928D03*
X0376244Y0113373D03*
D142*
X0376274Y0113432D03*
X0354364Y0121758D03*
X0354364Y0127487D03*
X0360506Y0125951D03*
D143*
X0365053Y0121936D03*
X0372022Y0121817D03*
X0376392Y0124947D03*
X0379463Y0122054D03*
X0379522Y0121995D03*
X0379522Y0116621D03*
X0365112Y0113491D03*
X0365053Y0113432D03*
X0353774Y0113432D03*
X0353715Y0113491D03*
X0345860Y0121640D03*
X0342494Y0124239D03*
X0332041Y0115380D03*
D144*
X0341844Y0124947D03*
X0376274Y0113491D03*
D145*
X0371549Y0113550D03*
X0371549Y0113609D03*
X0371549Y0113668D03*
X0371549Y0113727D03*
X0371549Y0113786D03*
X0371549Y0113845D03*
X0371549Y0113904D03*
X0371549Y0113963D03*
X0371549Y0114022D03*
X0371549Y0114081D03*
X0371549Y0114140D03*
X0371549Y0114199D03*
X0371549Y0114258D03*
X0371549Y0114317D03*
X0371549Y0114377D03*
X0371549Y0114436D03*
X0354423Y0129967D03*
X0346333Y0125006D03*
X0346333Y0124947D03*
X0346333Y0124888D03*
X0346333Y0124829D03*
X0346333Y0124770D03*
X0346333Y0124711D03*
X0346333Y0124652D03*
X0346333Y0124593D03*
X0346333Y0124534D03*
X0346333Y0124475D03*
X0346333Y0124416D03*
X0346333Y0124357D03*
X0346333Y0124298D03*
X0346333Y0124239D03*
X0346333Y0124180D03*
X0346333Y0124121D03*
X0346333Y0124062D03*
X0346333Y0124002D03*
X0346333Y0123943D03*
X0346333Y0123884D03*
D146*
X0342465Y0124298D03*
X0332071Y0115321D03*
X0353626Y0113609D03*
X0353685Y0113550D03*
X0365142Y0113550D03*
X0365201Y0113609D03*
X0365260Y0113668D03*
X0371992Y0116798D03*
X0379551Y0116680D03*
X0376303Y0113668D03*
X0371992Y0121758D03*
X0365260Y0121640D03*
X0365201Y0121758D03*
X0365142Y0121817D03*
X0365083Y0121877D03*
X0361421Y0125361D03*
D147*
X0371608Y0125361D03*
X0371608Y0125420D03*
X0371608Y0125479D03*
X0371608Y0125538D03*
X0371608Y0125597D03*
X0371608Y0125656D03*
X0371608Y0125715D03*
X0371608Y0125774D03*
X0371608Y0125833D03*
X0371608Y0125892D03*
X0371608Y0125951D03*
X0371608Y0126010D03*
X0371608Y0126069D03*
X0371608Y0126128D03*
X0371608Y0126188D03*
X0371608Y0126247D03*
X0371608Y0126306D03*
X0371608Y0126365D03*
X0371608Y0126424D03*
X0371608Y0126483D03*
X0371608Y0126542D03*
X0371608Y0126601D03*
X0371608Y0126660D03*
X0371608Y0126719D03*
X0371608Y0126778D03*
X0371608Y0126837D03*
X0371608Y0126896D03*
X0371608Y0126955D03*
X0371608Y0127014D03*
X0371608Y0127073D03*
X0371608Y0127132D03*
X0371608Y0127191D03*
X0371608Y0127251D03*
X0371608Y0127310D03*
X0371608Y0127369D03*
X0371608Y0127428D03*
X0371608Y0127487D03*
X0371608Y0127546D03*
X0371608Y0127605D03*
X0371608Y0127664D03*
X0371608Y0127723D03*
X0371608Y0127782D03*
X0371608Y0127841D03*
X0371608Y0127900D03*
X0371608Y0127959D03*
X0371608Y0128018D03*
X0371608Y0128077D03*
X0371608Y0128136D03*
X0371608Y0128195D03*
X0371608Y0128254D03*
X0371608Y0128314D03*
X0371608Y0128373D03*
X0371608Y0128432D03*
X0371608Y0128491D03*
X0371608Y0128550D03*
X0371608Y0128609D03*
X0371608Y0128668D03*
X0371608Y0128727D03*
X0371608Y0128786D03*
X0371608Y0128845D03*
X0371608Y0128904D03*
X0371608Y0128963D03*
X0371608Y0129022D03*
X0371608Y0129081D03*
X0371608Y0129140D03*
X0371608Y0129199D03*
X0371608Y0129258D03*
X0371608Y0129317D03*
X0371608Y0129377D03*
X0371608Y0129436D03*
X0371608Y0129495D03*
X0371608Y0129554D03*
X0371608Y0129613D03*
X0371608Y0129672D03*
X0371608Y0129731D03*
X0371608Y0129790D03*
X0371608Y0129849D03*
X0371608Y0129908D03*
X0371608Y0129967D03*
X0371608Y0130026D03*
X0371608Y0130085D03*
X0371608Y0130144D03*
X0371608Y0130203D03*
X0371608Y0130262D03*
X0371608Y0130321D03*
X0371608Y0130380D03*
X0371608Y0125302D03*
X0371608Y0125243D03*
X0371608Y0125184D03*
X0371608Y0125125D03*
X0371608Y0125065D03*
X0371608Y0125006D03*
X0371608Y0124947D03*
X0371608Y0124888D03*
X0371608Y0124829D03*
X0371608Y0124770D03*
X0371608Y0124711D03*
X0371608Y0124652D03*
X0371608Y0124593D03*
X0371608Y0124534D03*
X0371608Y0124475D03*
X0371608Y0124416D03*
X0371608Y0124357D03*
X0371608Y0124298D03*
X0371608Y0121050D03*
X0371608Y0120991D03*
X0371608Y0120932D03*
X0371608Y0120873D03*
X0371608Y0120814D03*
X0371608Y0120754D03*
X0371608Y0120695D03*
X0371608Y0120636D03*
X0371608Y0120577D03*
X0371608Y0120518D03*
X0371608Y0120459D03*
X0371608Y0120400D03*
X0371608Y0120341D03*
X0371608Y0120282D03*
X0371608Y0120223D03*
X0371608Y0120164D03*
X0371608Y0120105D03*
X0371608Y0120046D03*
X0371608Y0119987D03*
X0371608Y0119928D03*
X0371608Y0119869D03*
X0371608Y0119810D03*
X0371608Y0119751D03*
X0371608Y0119691D03*
X0371608Y0119632D03*
X0371608Y0119573D03*
X0371608Y0119514D03*
X0371608Y0119455D03*
X0371608Y0119396D03*
X0371608Y0119337D03*
X0371608Y0119278D03*
X0371608Y0119219D03*
X0371608Y0119160D03*
X0371608Y0119101D03*
X0371608Y0119042D03*
X0371608Y0118983D03*
X0371608Y0118924D03*
X0371608Y0118865D03*
X0371608Y0118806D03*
X0371608Y0118747D03*
X0371608Y0118688D03*
X0371608Y0118628D03*
X0371608Y0118569D03*
X0371608Y0118510D03*
X0371608Y0118451D03*
X0371608Y0118392D03*
X0371608Y0118333D03*
X0371608Y0118274D03*
X0371608Y0118215D03*
X0371608Y0118156D03*
X0371608Y0118097D03*
X0371608Y0118038D03*
X0371608Y0117979D03*
X0371608Y0117920D03*
X0371608Y0117861D03*
X0371608Y0117802D03*
X0371608Y0117743D03*
X0371608Y0117684D03*
X0371608Y0117625D03*
X0371608Y0117565D03*
X0380467Y0118628D03*
X0380467Y0118688D03*
X0380467Y0118747D03*
X0380526Y0118983D03*
X0380526Y0119042D03*
X0380526Y0119101D03*
X0380526Y0119160D03*
X0380526Y0119219D03*
X0380526Y0119278D03*
X0380526Y0119337D03*
X0380526Y0119396D03*
X0380526Y0119455D03*
X0380526Y0119514D03*
X0380526Y0119573D03*
X0380467Y0119869D03*
X0380467Y0119928D03*
X0380467Y0119987D03*
X0346274Y0119987D03*
X0346274Y0120046D03*
X0346274Y0120105D03*
X0346274Y0120164D03*
X0346274Y0120223D03*
X0346274Y0120282D03*
X0346274Y0120341D03*
X0346274Y0120400D03*
X0346274Y0120459D03*
X0346274Y0120518D03*
X0346274Y0120577D03*
X0346274Y0120636D03*
X0346274Y0120695D03*
X0346274Y0120754D03*
X0346274Y0119928D03*
X0346274Y0119869D03*
X0346274Y0119810D03*
X0346274Y0119751D03*
X0346274Y0119691D03*
X0346274Y0119632D03*
X0346274Y0119573D03*
X0346274Y0119514D03*
X0346274Y0119455D03*
X0346274Y0119396D03*
X0346274Y0119337D03*
X0346274Y0119278D03*
X0346274Y0119219D03*
X0346274Y0119160D03*
X0346274Y0119101D03*
X0346274Y0119042D03*
X0346274Y0118983D03*
X0346274Y0118924D03*
X0346274Y0118865D03*
X0346274Y0118806D03*
X0346274Y0118747D03*
X0346274Y0118688D03*
X0346274Y0118628D03*
X0346274Y0118569D03*
X0346274Y0118510D03*
X0346274Y0118451D03*
X0346274Y0118392D03*
X0346274Y0118333D03*
X0346274Y0118274D03*
X0346274Y0118215D03*
X0346274Y0118156D03*
X0346274Y0118097D03*
X0346274Y0118038D03*
X0346274Y0117979D03*
X0346274Y0117920D03*
X0346274Y0117861D03*
X0346274Y0117802D03*
X0346274Y0117743D03*
X0346274Y0117684D03*
X0346274Y0117625D03*
X0346274Y0117565D03*
X0346274Y0117506D03*
X0346274Y0117447D03*
X0346274Y0117388D03*
X0346274Y0117329D03*
X0346274Y0117270D03*
X0346274Y0117211D03*
X0346274Y0117152D03*
X0346274Y0117093D03*
X0346274Y0117034D03*
X0346274Y0116975D03*
X0346274Y0116916D03*
X0346274Y0116857D03*
X0346274Y0116798D03*
X0346274Y0116739D03*
X0346274Y0116680D03*
X0346274Y0116621D03*
X0346274Y0116562D03*
X0346274Y0116502D03*
X0346274Y0116443D03*
X0346274Y0116384D03*
X0346274Y0116325D03*
X0346274Y0116266D03*
X0346274Y0116207D03*
X0346274Y0116148D03*
X0346274Y0116089D03*
X0346274Y0116030D03*
X0346274Y0115971D03*
X0346274Y0115912D03*
X0346274Y0115853D03*
X0346274Y0115794D03*
X0346274Y0115735D03*
X0346274Y0115676D03*
X0346274Y0115617D03*
X0346274Y0115558D03*
X0346274Y0115499D03*
X0346274Y0115440D03*
X0346274Y0115380D03*
X0346274Y0115321D03*
X0346274Y0115262D03*
X0346274Y0115203D03*
X0346274Y0115144D03*
X0346274Y0115085D03*
X0346274Y0115026D03*
X0346274Y0114967D03*
X0346274Y0114908D03*
X0346274Y0114849D03*
X0346274Y0114790D03*
X0346274Y0114731D03*
X0346274Y0114672D03*
X0346274Y0114613D03*
X0346274Y0114554D03*
X0346274Y0114495D03*
X0346274Y0114436D03*
X0346274Y0114377D03*
X0346274Y0114317D03*
X0346274Y0114258D03*
X0346274Y0114199D03*
X0346274Y0114140D03*
X0346274Y0114081D03*
X0346274Y0114022D03*
X0346274Y0113963D03*
X0346274Y0113904D03*
X0346274Y0113845D03*
X0346274Y0113786D03*
X0346274Y0113727D03*
X0346274Y0113668D03*
X0346274Y0113609D03*
X0346274Y0113550D03*
D148*
X0353065Y0114554D03*
X0353124Y0114436D03*
X0353183Y0114317D03*
X0365703Y0114377D03*
X0365703Y0114436D03*
X0365762Y0114495D03*
X0365762Y0120814D03*
X0365703Y0120932D03*
X0365644Y0121050D03*
X0361274Y0125479D03*
X0371844Y0121522D03*
X0379876Y0121581D03*
X0379876Y0117034D03*
X0379817Y0116975D03*
X0371844Y0117034D03*
X0376274Y0113609D03*
X0346037Y0121345D03*
X0342317Y0124534D03*
X0332041Y0115026D03*
X0332041Y0114967D03*
D149*
X0332071Y0115203D03*
X0345949Y0121522D03*
X0353390Y0113963D03*
X0353449Y0113845D03*
X0353508Y0113786D03*
X0365378Y0113845D03*
X0371933Y0116916D03*
X0379669Y0116798D03*
X0379728Y0116857D03*
X0379669Y0121817D03*
X0371933Y0121699D03*
X0365437Y0121404D03*
X0365378Y0121463D03*
X0361362Y0125420D03*
D150*
X0365467Y0121345D03*
X0365526Y0121227D03*
X0371904Y0121640D03*
X0379758Y0121758D03*
X0371904Y0116975D03*
X0365526Y0114081D03*
X0365467Y0114022D03*
X0365467Y0113963D03*
X0365407Y0113904D03*
X0353419Y0113904D03*
X0353360Y0114022D03*
X0345978Y0121463D03*
X0342376Y0124416D03*
X0332041Y0115144D03*
D151*
X0332071Y0116916D03*
X0345122Y0122349D03*
X0362248Y0124357D03*
X0372760Y0122408D03*
X0376362Y0114022D03*
D152*
X0379787Y0116916D03*
X0379846Y0121640D03*
X0379787Y0121699D03*
X0376362Y0125006D03*
X0371874Y0121581D03*
X0365673Y0120991D03*
X0365614Y0121109D03*
X0365555Y0121168D03*
X0365496Y0121286D03*
X0365673Y0114317D03*
X0365614Y0114258D03*
X0365614Y0114199D03*
X0365555Y0114140D03*
X0353331Y0114081D03*
X0353272Y0114140D03*
X0353272Y0114199D03*
X0353213Y0114258D03*
X0353154Y0114377D03*
X0346008Y0121404D03*
X0342346Y0124475D03*
X0332071Y0115085D03*
D153*
X0362366Y0124121D03*
X0376362Y0114140D03*
D154*
X0376362Y0114199D03*
X0376421Y0124416D03*
X0362484Y0123884D03*
D155*
X0376362Y0114258D03*
D156*
X0376392Y0114317D03*
X0362573Y0123648D03*
X0332100Y0117861D03*
X0332100Y0117802D03*
D157*
X0332130Y0118038D03*
X0362602Y0123530D03*
X0376362Y0114377D03*
D158*
X0376392Y0114436D03*
X0362691Y0123353D03*
D159*
X0365732Y0120873D03*
X0365791Y0120754D03*
X0365791Y0120695D03*
X0365850Y0120636D03*
X0365909Y0120518D03*
X0365850Y0114731D03*
X0365850Y0114672D03*
X0365791Y0114613D03*
X0365791Y0114554D03*
X0371815Y0117093D03*
X0379906Y0117093D03*
X0379965Y0117152D03*
X0379965Y0117211D03*
X0379965Y0121404D03*
X0379965Y0121463D03*
X0379906Y0121522D03*
X0371815Y0121463D03*
X0353094Y0114495D03*
X0353035Y0114613D03*
X0352976Y0114731D03*
X0346067Y0121286D03*
D160*
X0374945Y0124121D03*
X0374945Y0114554D03*
D161*
X0375033Y0114672D03*
X0375033Y0123943D03*
D162*
X0371785Y0121404D03*
X0379994Y0121345D03*
X0380053Y0121286D03*
X0380053Y0117329D03*
X0379994Y0117270D03*
X0371785Y0117152D03*
X0366057Y0115203D03*
X0365998Y0115026D03*
X0365939Y0114908D03*
X0365939Y0114849D03*
X0365880Y0114790D03*
X0365998Y0120282D03*
X0365939Y0120400D03*
X0365939Y0120459D03*
X0365880Y0120577D03*
X0361215Y0125538D03*
X0352829Y0115085D03*
X0352888Y0114967D03*
X0352888Y0114908D03*
X0352947Y0114849D03*
X0352947Y0114790D03*
X0353006Y0114672D03*
X0346096Y0121227D03*
X0342258Y0124593D03*
X0337061Y0124947D03*
X0337002Y0124829D03*
X0336943Y0124711D03*
X0336884Y0124593D03*
X0336825Y0124475D03*
X0336766Y0124357D03*
X0336707Y0124239D03*
X0332041Y0114908D03*
X0332041Y0114849D03*
D163*
X0375063Y0114731D03*
X0375063Y0123884D03*
D164*
X0371726Y0121286D03*
X0366234Y0119632D03*
X0366234Y0119573D03*
X0366234Y0119514D03*
X0366293Y0119396D03*
X0366293Y0119337D03*
X0366175Y0119691D03*
X0366175Y0119751D03*
X0366175Y0119810D03*
X0366116Y0119928D03*
X0371726Y0117329D03*
X0371726Y0117270D03*
X0366293Y0116030D03*
X0366293Y0115971D03*
X0366234Y0115794D03*
X0366234Y0115735D03*
X0366234Y0115676D03*
X0366175Y0115617D03*
X0366175Y0115558D03*
X0366175Y0115499D03*
X0366116Y0115380D03*
X0380171Y0117565D03*
X0380171Y0117625D03*
X0380230Y0117743D03*
X0380230Y0120873D03*
X0380171Y0120991D03*
X0380171Y0121050D03*
X0354423Y0129908D03*
X0346156Y0121050D03*
X0352533Y0119278D03*
X0352533Y0119219D03*
X0352533Y0116089D03*
X0352533Y0116030D03*
X0352593Y0115853D03*
X0352593Y0115794D03*
X0352593Y0115735D03*
X0352652Y0115676D03*
X0352652Y0115617D03*
X0352652Y0115558D03*
X0352711Y0115440D03*
X0335467Y0121699D03*
X0335407Y0121581D03*
X0335348Y0121463D03*
X0335289Y0121345D03*
X0335230Y0121227D03*
X0335171Y0121109D03*
X0335112Y0120991D03*
X0335053Y0120873D03*
X0334994Y0120754D03*
X0334935Y0120636D03*
X0334876Y0120518D03*
X0334817Y0120400D03*
X0334758Y0120282D03*
X0334699Y0120164D03*
X0334640Y0120046D03*
X0334581Y0119928D03*
X0334522Y0119810D03*
X0334463Y0119691D03*
X0334404Y0119573D03*
X0334344Y0119455D03*
X0334285Y0119337D03*
X0334285Y0119278D03*
X0334226Y0119219D03*
X0334226Y0119160D03*
X0334167Y0119101D03*
X0334167Y0119042D03*
X0334108Y0118983D03*
X0334108Y0118924D03*
X0334049Y0118865D03*
X0334049Y0118806D03*
X0333990Y0118747D03*
X0333990Y0118688D03*
X0333931Y0118628D03*
X0333931Y0118569D03*
X0333872Y0118451D03*
X0333813Y0118392D03*
X0333813Y0118333D03*
X0333754Y0118215D03*
X0332041Y0114790D03*
X0332041Y0114731D03*
D165*
X0375093Y0114790D03*
D166*
X0375152Y0114908D03*
X0375152Y0123766D03*
D167*
X0371756Y0121345D03*
X0366146Y0119869D03*
X0366087Y0119987D03*
X0366087Y0120046D03*
X0366087Y0120105D03*
X0366028Y0120164D03*
X0366028Y0120223D03*
X0365969Y0120341D03*
X0366146Y0115440D03*
X0366087Y0115321D03*
X0366087Y0115262D03*
X0366028Y0115144D03*
X0366028Y0115085D03*
X0365969Y0114967D03*
X0371756Y0117211D03*
X0380083Y0117388D03*
X0380083Y0117447D03*
X0380142Y0117506D03*
X0380142Y0121109D03*
X0380083Y0121168D03*
X0380083Y0121227D03*
X0352858Y0115026D03*
X0352799Y0115144D03*
X0352799Y0115203D03*
X0352740Y0115262D03*
X0352740Y0115321D03*
X0352740Y0115380D03*
X0352681Y0115499D03*
X0346126Y0121109D03*
X0346126Y0121168D03*
X0342169Y0124652D03*
X0337091Y0125006D03*
X0337031Y0124888D03*
X0336972Y0124770D03*
X0336913Y0124652D03*
X0336854Y0124534D03*
X0336795Y0124416D03*
X0336736Y0124298D03*
X0336677Y0124180D03*
X0336677Y0124121D03*
X0336618Y0124062D03*
X0336618Y0124002D03*
X0336559Y0123943D03*
X0336559Y0123884D03*
X0336500Y0123825D03*
X0336500Y0123766D03*
X0336441Y0123707D03*
X0336441Y0123648D03*
X0336382Y0123589D03*
X0336382Y0123530D03*
X0336323Y0123471D03*
X0336323Y0123412D03*
X0336264Y0123353D03*
X0336264Y0123294D03*
X0336205Y0123235D03*
X0336205Y0123176D03*
X0336146Y0123117D03*
X0336146Y0123058D03*
X0336087Y0122999D03*
X0336087Y0122940D03*
X0336028Y0122880D03*
X0336028Y0122821D03*
X0335969Y0122762D03*
X0335969Y0122703D03*
X0335909Y0122644D03*
X0335909Y0122585D03*
X0335850Y0122526D03*
X0335850Y0122467D03*
X0335791Y0122408D03*
X0335791Y0122349D03*
X0335732Y0122290D03*
X0335732Y0122231D03*
X0335673Y0122172D03*
X0335673Y0122113D03*
X0335614Y0122054D03*
X0335614Y0121995D03*
X0335555Y0121936D03*
X0335555Y0121877D03*
X0335496Y0121817D03*
X0335496Y0121758D03*
X0335437Y0121640D03*
X0335378Y0121522D03*
X0335319Y0121404D03*
X0335260Y0121286D03*
X0335201Y0121168D03*
X0335142Y0121050D03*
X0335083Y0120932D03*
X0335024Y0120814D03*
X0334965Y0120695D03*
X0334906Y0120577D03*
X0334846Y0120459D03*
X0334787Y0120341D03*
X0334728Y0120223D03*
X0334669Y0120105D03*
X0334610Y0119987D03*
X0334551Y0119869D03*
X0334492Y0119751D03*
X0334433Y0119632D03*
X0334374Y0119514D03*
X0334315Y0119396D03*
X0333902Y0118510D03*
X0333783Y0118274D03*
X0333724Y0118156D03*
D168*
X0375211Y0115026D03*
X0375211Y0123648D03*
D169*
X0375240Y0123589D03*
X0375240Y0115085D03*
D170*
X0375299Y0115203D03*
X0375299Y0123412D03*
D171*
X0375329Y0123353D03*
X0375329Y0115262D03*
D172*
X0375388Y0115380D03*
X0375388Y0123235D03*
D173*
X0375447Y0123058D03*
X0375447Y0115558D03*
D174*
X0375476Y0115617D03*
X0375476Y0122999D03*
D175*
X0375535Y0122821D03*
X0375535Y0115794D03*
D176*
X0375565Y0115853D03*
X0375565Y0115912D03*
X0375565Y0122703D03*
X0375565Y0122762D03*
D177*
X0375624Y0122585D03*
X0375624Y0122526D03*
X0375624Y0116089D03*
D178*
X0363843Y0122999D03*
X0362012Y0124711D03*
X0345358Y0122231D03*
X0332071Y0116443D03*
X0332071Y0116384D03*
D179*
X0332100Y0116975D03*
X0362278Y0124298D03*
X0376392Y0124593D03*
D180*
X0332071Y0117034D03*
D181*
X0332100Y0117211D03*
X0332100Y0117270D03*
X0362337Y0124180D03*
D182*
X0362455Y0123943D03*
X0332100Y0117506D03*
X0332100Y0117447D03*
D183*
X0332100Y0117684D03*
X0332100Y0117743D03*
X0362514Y0123766D03*
X0376392Y0124357D03*
D184*
X0332100Y0117979D03*
X0332100Y0117920D03*
D185*
X0332100Y0118097D03*
X0362632Y0123471D03*
D186*
X0360004Y0126128D03*
X0355634Y0119632D03*
D187*
X0352415Y0119632D03*
X0360860Y0125774D03*
X0376392Y0125125D03*
D188*
X0355900Y0129790D03*
X0355250Y0127369D03*
X0352947Y0129790D03*
X0355900Y0119691D03*
D189*
X0354364Y0121817D03*
X0352238Y0119691D03*
X0354423Y0130026D03*
D190*
X0355457Y0127310D03*
X0356106Y0119751D03*
D191*
X0352091Y0119751D03*
X0341520Y0125125D03*
D192*
X0352268Y0129554D03*
X0353272Y0127310D03*
X0356402Y0129613D03*
X0355457Y0121936D03*
X0353272Y0121936D03*
X0356283Y0119810D03*
X0356461Y0119869D03*
X0356579Y0119928D03*
D193*
X0351972Y0119810D03*
X0354394Y0127546D03*
X0360358Y0126010D03*
D194*
X0351913Y0119869D03*
D195*
X0351766Y0119987D03*
X0354364Y0121640D03*
D196*
X0352976Y0122054D03*
X0355752Y0122054D03*
X0356815Y0120046D03*
X0356933Y0120105D03*
X0359650Y0126188D03*
X0355752Y0127191D03*
X0356815Y0129436D03*
X0356697Y0129495D03*
X0356933Y0129377D03*
X0352031Y0129436D03*
X0351913Y0129377D03*
D197*
X0353242Y0129849D03*
X0355604Y0129849D03*
X0351707Y0120046D03*
D198*
X0351677Y0120105D03*
X0354453Y0130144D03*
D199*
X0357022Y0129317D03*
X0357140Y0129258D03*
X0355959Y0127073D03*
X0355841Y0127132D03*
X0353006Y0127191D03*
X0352888Y0127132D03*
X0351825Y0129317D03*
X0351707Y0129258D03*
X0352888Y0122113D03*
X0351470Y0120341D03*
X0355841Y0122113D03*
X0357022Y0120164D03*
X0357140Y0120223D03*
D200*
X0351618Y0120164D03*
X0353508Y0127369D03*
D201*
X0354423Y0127664D03*
X0352593Y0129672D03*
X0356254Y0129672D03*
X0354364Y0121581D03*
X0351530Y0120223D03*
D202*
X0351441Y0120400D03*
X0351323Y0120459D03*
X0352799Y0122172D03*
X0355929Y0122172D03*
X0357228Y0120282D03*
X0357346Y0120341D03*
X0357406Y0120400D03*
X0357524Y0120459D03*
X0357583Y0120518D03*
X0356106Y0126955D03*
X0356047Y0127014D03*
X0357406Y0129081D03*
X0357346Y0129140D03*
X0357228Y0129199D03*
X0357583Y0128963D03*
X0352799Y0127073D03*
X0351441Y0129081D03*
X0351500Y0129140D03*
X0351618Y0129199D03*
X0351323Y0129022D03*
X0351264Y0128963D03*
D203*
X0351175Y0128904D03*
X0351116Y0128845D03*
X0351057Y0128786D03*
X0350821Y0128609D03*
X0350762Y0128550D03*
X0352474Y0126837D03*
X0352415Y0126778D03*
X0352356Y0126719D03*
X0352533Y0126896D03*
X0352652Y0126955D03*
X0352711Y0127014D03*
X0356195Y0126896D03*
X0356254Y0126837D03*
X0356313Y0126778D03*
X0356372Y0126719D03*
X0357789Y0128786D03*
X0357730Y0128845D03*
X0357671Y0128904D03*
X0357494Y0129022D03*
X0356313Y0122467D03*
X0356254Y0122408D03*
X0356195Y0122349D03*
X0356077Y0122290D03*
X0356018Y0122231D03*
X0357671Y0120577D03*
X0357730Y0120636D03*
X0357789Y0120695D03*
X0358026Y0120873D03*
X0358085Y0120932D03*
X0352711Y0122231D03*
X0352593Y0122290D03*
X0352533Y0122349D03*
X0352474Y0122408D03*
X0352415Y0122467D03*
X0351116Y0120636D03*
X0351175Y0120577D03*
X0351234Y0120518D03*
X0350880Y0120814D03*
X0350821Y0120873D03*
X0350762Y0120932D03*
X0350703Y0120991D03*
D204*
X0350496Y0121227D03*
X0350437Y0121286D03*
X0350378Y0121345D03*
X0350319Y0121404D03*
X0350142Y0121640D03*
X0350969Y0120754D03*
X0351028Y0120695D03*
X0352327Y0122526D03*
X0352268Y0122585D03*
X0352209Y0122644D03*
X0352031Y0122880D03*
X0351972Y0122940D03*
X0356402Y0122526D03*
X0356461Y0122585D03*
X0356638Y0122821D03*
X0356697Y0122880D03*
X0358350Y0121227D03*
X0358291Y0121168D03*
X0358173Y0121050D03*
X0358114Y0120991D03*
X0357937Y0120814D03*
X0357878Y0120754D03*
X0358409Y0121286D03*
X0358469Y0121345D03*
X0356874Y0126128D03*
X0356756Y0126306D03*
X0356697Y0126365D03*
X0356638Y0126424D03*
X0356638Y0126483D03*
X0356579Y0126542D03*
X0356520Y0126601D03*
X0356461Y0126660D03*
X0358232Y0128373D03*
X0358173Y0128432D03*
X0358114Y0128491D03*
X0358055Y0128550D03*
X0357996Y0128609D03*
X0357937Y0128668D03*
X0357878Y0128727D03*
X0358291Y0128314D03*
X0358350Y0128254D03*
X0358409Y0128195D03*
X0358469Y0128136D03*
X0358646Y0127900D03*
X0352268Y0126660D03*
X0352031Y0126365D03*
X0351972Y0126306D03*
X0350378Y0128136D03*
X0350437Y0128195D03*
X0350496Y0128254D03*
X0350555Y0128314D03*
X0350673Y0128432D03*
X0350732Y0128491D03*
X0350909Y0128668D03*
X0350969Y0128727D03*
D205*
X0350585Y0128373D03*
X0350348Y0128077D03*
X0350289Y0128018D03*
X0350230Y0127959D03*
X0350171Y0127900D03*
X0350171Y0127841D03*
X0350112Y0127782D03*
X0350053Y0127723D03*
X0350053Y0127664D03*
X0349994Y0127605D03*
X0349935Y0127546D03*
X0349935Y0127487D03*
X0349876Y0127428D03*
X0349817Y0127310D03*
X0349758Y0127251D03*
X0349758Y0127191D03*
X0349699Y0127132D03*
X0349699Y0127073D03*
X0349640Y0126955D03*
X0349581Y0126837D03*
X0349522Y0126719D03*
X0349463Y0126542D03*
X0349404Y0126424D03*
X0351648Y0125715D03*
X0351707Y0125833D03*
X0351766Y0125951D03*
X0351825Y0126069D03*
X0351884Y0126128D03*
X0351884Y0126188D03*
X0351943Y0126247D03*
X0352061Y0126424D03*
X0352120Y0126483D03*
X0352179Y0126542D03*
X0352238Y0126601D03*
X0351589Y0125538D03*
X0351589Y0123707D03*
X0351648Y0123530D03*
X0351707Y0123412D03*
X0351766Y0123294D03*
X0351825Y0123176D03*
X0351884Y0123058D03*
X0351943Y0122999D03*
X0352061Y0122821D03*
X0352120Y0122762D03*
X0352179Y0122703D03*
X0350585Y0121109D03*
X0350644Y0121050D03*
X0350526Y0121168D03*
X0350289Y0121463D03*
X0350230Y0121522D03*
X0350171Y0121581D03*
X0350112Y0121699D03*
X0350053Y0121758D03*
X0349994Y0121817D03*
X0349994Y0121877D03*
X0349935Y0121936D03*
X0349935Y0121995D03*
X0349876Y0122054D03*
X0349817Y0122113D03*
X0349817Y0122172D03*
X0349758Y0122231D03*
X0349758Y0122290D03*
X0349699Y0122349D03*
X0349699Y0122408D03*
X0349640Y0122526D03*
X0349581Y0122644D03*
X0349522Y0122762D03*
X0349463Y0122940D03*
X0356490Y0122644D03*
X0356549Y0122703D03*
X0356608Y0122762D03*
X0356726Y0122940D03*
X0356785Y0122999D03*
X0356844Y0123058D03*
X0356844Y0123117D03*
X0356904Y0123176D03*
X0356963Y0123294D03*
X0357022Y0123412D03*
X0357081Y0123530D03*
X0357140Y0123707D03*
X0357258Y0124239D03*
X0357258Y0125006D03*
X0357258Y0125065D03*
X0357199Y0125302D03*
X0357199Y0125361D03*
X0357199Y0125420D03*
X0357140Y0125538D03*
X0357140Y0125597D03*
X0357081Y0125715D03*
X0357022Y0125833D03*
X0357022Y0125892D03*
X0356963Y0125951D03*
X0356963Y0126010D03*
X0356904Y0126069D03*
X0356844Y0126188D03*
X0356785Y0126247D03*
X0358793Y0127664D03*
X0358793Y0127723D03*
X0358734Y0127782D03*
X0358675Y0127841D03*
X0358616Y0127959D03*
X0358557Y0128018D03*
X0358498Y0128077D03*
X0358852Y0127605D03*
X0358911Y0127546D03*
X0358911Y0127487D03*
X0358970Y0127428D03*
X0359030Y0127310D03*
X0359089Y0127251D03*
X0359089Y0127191D03*
X0359148Y0127073D03*
X0359207Y0126955D03*
X0359266Y0126837D03*
X0359325Y0126719D03*
X0359384Y0126542D03*
X0359443Y0126365D03*
X0359502Y0123294D03*
X0359443Y0123117D03*
X0359384Y0122940D03*
X0359325Y0122762D03*
X0359266Y0122644D03*
X0359207Y0122526D03*
X0359148Y0122408D03*
X0359089Y0122290D03*
X0359089Y0122231D03*
X0359030Y0122172D03*
X0359030Y0122113D03*
X0358970Y0122054D03*
X0358911Y0121995D03*
X0358911Y0121936D03*
X0358852Y0121877D03*
X0358793Y0121817D03*
X0358793Y0121758D03*
X0358734Y0121699D03*
X0358675Y0121640D03*
X0358675Y0121581D03*
X0358616Y0121522D03*
X0358557Y0121463D03*
X0358498Y0121404D03*
X0358262Y0121109D03*
X0341490Y0125243D03*
X0340959Y0122349D03*
D206*
X0354364Y0121699D03*
X0354423Y0130085D03*
D207*
X0352770Y0129731D03*
X0356077Y0129731D03*
X0355250Y0121877D03*
X0353478Y0121877D03*
D208*
X0351854Y0123117D03*
X0351795Y0123235D03*
X0351736Y0123353D03*
X0351677Y0123471D03*
X0351618Y0123589D03*
X0351618Y0123648D03*
X0351559Y0123766D03*
X0351559Y0123825D03*
X0351559Y0123884D03*
X0351500Y0123943D03*
X0351500Y0124002D03*
X0351500Y0124062D03*
X0351500Y0124121D03*
X0351500Y0124180D03*
X0351441Y0124239D03*
X0351441Y0124298D03*
X0351441Y0124357D03*
X0351441Y0124416D03*
X0351441Y0124475D03*
X0351441Y0124534D03*
X0351441Y0124593D03*
X0351441Y0124652D03*
X0351441Y0124711D03*
X0351441Y0124770D03*
X0351441Y0124829D03*
X0351441Y0124888D03*
X0351441Y0124947D03*
X0351441Y0125006D03*
X0351500Y0125065D03*
X0351500Y0125125D03*
X0351500Y0125184D03*
X0351500Y0125243D03*
X0351500Y0125302D03*
X0351559Y0125361D03*
X0351559Y0125420D03*
X0351559Y0125479D03*
X0351618Y0125597D03*
X0351618Y0125656D03*
X0351677Y0125774D03*
X0351736Y0125892D03*
X0351795Y0126010D03*
X0349669Y0127014D03*
X0349610Y0126896D03*
X0349551Y0126778D03*
X0349492Y0126660D03*
X0349492Y0126601D03*
X0349433Y0126483D03*
X0349374Y0126365D03*
X0349374Y0126306D03*
X0349374Y0126247D03*
X0349315Y0126188D03*
X0349315Y0126128D03*
X0349315Y0126069D03*
X0349315Y0126010D03*
X0349256Y0125951D03*
X0349256Y0125892D03*
X0349256Y0125833D03*
X0349256Y0125774D03*
X0349256Y0125715D03*
X0349197Y0125656D03*
X0349197Y0125597D03*
X0349197Y0125538D03*
X0349197Y0125479D03*
X0349197Y0125420D03*
X0349197Y0125361D03*
X0349138Y0125302D03*
X0349138Y0125243D03*
X0349138Y0125184D03*
X0349138Y0125125D03*
X0349138Y0125065D03*
X0349138Y0125006D03*
X0349138Y0124947D03*
X0349138Y0124888D03*
X0349138Y0124829D03*
X0349138Y0124770D03*
X0349138Y0124711D03*
X0349138Y0124652D03*
X0349138Y0124593D03*
X0349138Y0124534D03*
X0349138Y0124475D03*
X0349138Y0124416D03*
X0349138Y0124357D03*
X0349138Y0124298D03*
X0349138Y0124239D03*
X0349138Y0124180D03*
X0349197Y0124121D03*
X0349197Y0124062D03*
X0349197Y0124002D03*
X0349197Y0123943D03*
X0349197Y0123884D03*
X0349197Y0123825D03*
X0349256Y0123766D03*
X0349256Y0123707D03*
X0349256Y0123648D03*
X0349256Y0123589D03*
X0349256Y0123530D03*
X0349315Y0123471D03*
X0349315Y0123412D03*
X0349315Y0123353D03*
X0349315Y0123294D03*
X0349374Y0123235D03*
X0349374Y0123176D03*
X0349374Y0123117D03*
X0349433Y0123058D03*
X0349433Y0122999D03*
X0349492Y0122880D03*
X0349492Y0122821D03*
X0349551Y0122703D03*
X0349610Y0122585D03*
X0349669Y0122467D03*
X0349846Y0127369D03*
X0357051Y0125774D03*
X0357110Y0125656D03*
X0357169Y0125479D03*
X0357228Y0125243D03*
X0357228Y0125184D03*
X0357228Y0125125D03*
X0357287Y0124947D03*
X0357287Y0124888D03*
X0357287Y0124829D03*
X0357287Y0124770D03*
X0357287Y0124711D03*
X0357287Y0124652D03*
X0357287Y0124593D03*
X0357287Y0124534D03*
X0357287Y0124475D03*
X0357287Y0124416D03*
X0357287Y0124357D03*
X0357287Y0124298D03*
X0357228Y0124180D03*
X0357228Y0124121D03*
X0357228Y0124062D03*
X0357228Y0124002D03*
X0357228Y0123943D03*
X0357169Y0123884D03*
X0357169Y0123825D03*
X0357169Y0123766D03*
X0357110Y0123648D03*
X0357110Y0123589D03*
X0357051Y0123471D03*
X0356992Y0123353D03*
X0356933Y0123235D03*
X0359118Y0122349D03*
X0359177Y0122467D03*
X0359236Y0122585D03*
X0359295Y0122703D03*
X0359354Y0122821D03*
X0359354Y0122880D03*
X0359413Y0122999D03*
X0359413Y0123058D03*
X0359472Y0123176D03*
X0359472Y0123235D03*
X0359472Y0126247D03*
X0359472Y0126306D03*
X0359413Y0126424D03*
X0359413Y0126483D03*
X0359354Y0126601D03*
X0359354Y0126660D03*
X0359295Y0126778D03*
X0359236Y0126896D03*
X0359177Y0127014D03*
X0359118Y0127132D03*
X0359000Y0127369D03*
D209*
X0344295Y0122703D03*
X0344295Y0122644D03*
X0344295Y0122585D03*
X0344295Y0122526D03*
X0344295Y0122467D03*
X0344295Y0122408D03*
D210*
X0344266Y0122762D03*
X0344266Y0122821D03*
X0344266Y0122880D03*
X0344266Y0122940D03*
X0344266Y0122999D03*
X0344266Y0123058D03*
X0344266Y0123117D03*
X0344266Y0123176D03*
D211*
X0344236Y0123235D03*
X0344236Y0123294D03*
X0344236Y0123353D03*
X0344236Y0123412D03*
X0344236Y0123471D03*
X0344236Y0123530D03*
X0344236Y0123589D03*
X0344236Y0123648D03*
D212*
X0362661Y0123412D03*
D213*
X0362543Y0123707D03*
D214*
X0344207Y0123707D03*
X0344207Y0123766D03*
X0344207Y0123825D03*
D215*
X0374974Y0124062D03*
D216*
X0374886Y0124180D03*
D217*
X0374856Y0124239D03*
D218*
X0360949Y0125715D03*
X0341992Y0124829D03*
D219*
X0341933Y0124888D03*
D220*
X0341756Y0125006D03*
X0354394Y0127428D03*
D221*
X0341667Y0125065D03*
D222*
X0341490Y0125184D03*
X0360211Y0126069D03*
X0376392Y0125243D03*
D223*
X0360772Y0125833D03*
D224*
X0360654Y0125892D03*
D225*
X0354394Y0127605D03*
D226*
X0165944Y0087760D02*
X0165946Y0087843D01*
X0165952Y0087926D01*
X0165962Y0088009D01*
X0165976Y0088091D01*
X0165993Y0088173D01*
X0166015Y0088253D01*
X0166040Y0088332D01*
X0166069Y0088410D01*
X0166102Y0088487D01*
X0166139Y0088562D01*
X0166178Y0088635D01*
X0166222Y0088706D01*
X0166268Y0088775D01*
X0166318Y0088842D01*
X0166371Y0088906D01*
X0166427Y0088968D01*
X0166486Y0089027D01*
X0166548Y0089083D01*
X0166612Y0089136D01*
X0166679Y0089186D01*
X0166748Y0089232D01*
X0166819Y0089276D01*
X0166892Y0089315D01*
X0166967Y0089352D01*
X0167044Y0089385D01*
X0167122Y0089414D01*
X0167201Y0089439D01*
X0167281Y0089461D01*
X0167363Y0089478D01*
X0167445Y0089492D01*
X0167528Y0089502D01*
X0167611Y0089508D01*
X0167694Y0089510D01*
X0167777Y0089508D01*
X0167860Y0089502D01*
X0167943Y0089492D01*
X0168025Y0089478D01*
X0168107Y0089461D01*
X0168187Y0089439D01*
X0168266Y0089414D01*
X0168344Y0089385D01*
X0168421Y0089352D01*
X0168496Y0089315D01*
X0168569Y0089276D01*
X0168640Y0089232D01*
X0168709Y0089186D01*
X0168776Y0089136D01*
X0168840Y0089083D01*
X0168902Y0089027D01*
X0168961Y0088968D01*
X0169017Y0088906D01*
X0169070Y0088842D01*
X0169120Y0088775D01*
X0169166Y0088706D01*
X0169210Y0088635D01*
X0169249Y0088562D01*
X0169286Y0088487D01*
X0169319Y0088410D01*
X0169348Y0088332D01*
X0169373Y0088253D01*
X0169395Y0088173D01*
X0169412Y0088091D01*
X0169426Y0088009D01*
X0169436Y0087926D01*
X0169442Y0087843D01*
X0169444Y0087760D01*
X0169442Y0087677D01*
X0169436Y0087594D01*
X0169426Y0087511D01*
X0169412Y0087429D01*
X0169395Y0087347D01*
X0169373Y0087267D01*
X0169348Y0087188D01*
X0169319Y0087110D01*
X0169286Y0087033D01*
X0169249Y0086958D01*
X0169210Y0086885D01*
X0169166Y0086814D01*
X0169120Y0086745D01*
X0169070Y0086678D01*
X0169017Y0086614D01*
X0168961Y0086552D01*
X0168902Y0086493D01*
X0168840Y0086437D01*
X0168776Y0086384D01*
X0168709Y0086334D01*
X0168640Y0086288D01*
X0168569Y0086244D01*
X0168496Y0086205D01*
X0168421Y0086168D01*
X0168344Y0086135D01*
X0168266Y0086106D01*
X0168187Y0086081D01*
X0168107Y0086059D01*
X0168025Y0086042D01*
X0167943Y0086028D01*
X0167860Y0086018D01*
X0167777Y0086012D01*
X0167694Y0086010D01*
X0167611Y0086012D01*
X0167528Y0086018D01*
X0167445Y0086028D01*
X0167363Y0086042D01*
X0167281Y0086059D01*
X0167201Y0086081D01*
X0167122Y0086106D01*
X0167044Y0086135D01*
X0166967Y0086168D01*
X0166892Y0086205D01*
X0166819Y0086244D01*
X0166748Y0086288D01*
X0166679Y0086334D01*
X0166612Y0086384D01*
X0166548Y0086437D01*
X0166486Y0086493D01*
X0166427Y0086552D01*
X0166371Y0086614D01*
X0166318Y0086678D01*
X0166268Y0086745D01*
X0166222Y0086814D01*
X0166178Y0086885D01*
X0166139Y0086958D01*
X0166102Y0087033D01*
X0166069Y0087110D01*
X0166040Y0087188D01*
X0166015Y0087267D01*
X0165993Y0087347D01*
X0165976Y0087429D01*
X0165962Y0087511D01*
X0165952Y0087594D01*
X0165946Y0087677D01*
X0165944Y0087760D01*
X0165944Y0056264D02*
X0165946Y0056347D01*
X0165952Y0056430D01*
X0165962Y0056513D01*
X0165976Y0056595D01*
X0165993Y0056677D01*
X0166015Y0056757D01*
X0166040Y0056836D01*
X0166069Y0056914D01*
X0166102Y0056991D01*
X0166139Y0057066D01*
X0166178Y0057139D01*
X0166222Y0057210D01*
X0166268Y0057279D01*
X0166318Y0057346D01*
X0166371Y0057410D01*
X0166427Y0057472D01*
X0166486Y0057531D01*
X0166548Y0057587D01*
X0166612Y0057640D01*
X0166679Y0057690D01*
X0166748Y0057736D01*
X0166819Y0057780D01*
X0166892Y0057819D01*
X0166967Y0057856D01*
X0167044Y0057889D01*
X0167122Y0057918D01*
X0167201Y0057943D01*
X0167281Y0057965D01*
X0167363Y0057982D01*
X0167445Y0057996D01*
X0167528Y0058006D01*
X0167611Y0058012D01*
X0167694Y0058014D01*
X0167777Y0058012D01*
X0167860Y0058006D01*
X0167943Y0057996D01*
X0168025Y0057982D01*
X0168107Y0057965D01*
X0168187Y0057943D01*
X0168266Y0057918D01*
X0168344Y0057889D01*
X0168421Y0057856D01*
X0168496Y0057819D01*
X0168569Y0057780D01*
X0168640Y0057736D01*
X0168709Y0057690D01*
X0168776Y0057640D01*
X0168840Y0057587D01*
X0168902Y0057531D01*
X0168961Y0057472D01*
X0169017Y0057410D01*
X0169070Y0057346D01*
X0169120Y0057279D01*
X0169166Y0057210D01*
X0169210Y0057139D01*
X0169249Y0057066D01*
X0169286Y0056991D01*
X0169319Y0056914D01*
X0169348Y0056836D01*
X0169373Y0056757D01*
X0169395Y0056677D01*
X0169412Y0056595D01*
X0169426Y0056513D01*
X0169436Y0056430D01*
X0169442Y0056347D01*
X0169444Y0056264D01*
X0169442Y0056181D01*
X0169436Y0056098D01*
X0169426Y0056015D01*
X0169412Y0055933D01*
X0169395Y0055851D01*
X0169373Y0055771D01*
X0169348Y0055692D01*
X0169319Y0055614D01*
X0169286Y0055537D01*
X0169249Y0055462D01*
X0169210Y0055389D01*
X0169166Y0055318D01*
X0169120Y0055249D01*
X0169070Y0055182D01*
X0169017Y0055118D01*
X0168961Y0055056D01*
X0168902Y0054997D01*
X0168840Y0054941D01*
X0168776Y0054888D01*
X0168709Y0054838D01*
X0168640Y0054792D01*
X0168569Y0054748D01*
X0168496Y0054709D01*
X0168421Y0054672D01*
X0168344Y0054639D01*
X0168266Y0054610D01*
X0168187Y0054585D01*
X0168107Y0054563D01*
X0168025Y0054546D01*
X0167943Y0054532D01*
X0167860Y0054522D01*
X0167777Y0054516D01*
X0167694Y0054514D01*
X0167611Y0054516D01*
X0167528Y0054522D01*
X0167445Y0054532D01*
X0167363Y0054546D01*
X0167281Y0054563D01*
X0167201Y0054585D01*
X0167122Y0054610D01*
X0167044Y0054639D01*
X0166967Y0054672D01*
X0166892Y0054709D01*
X0166819Y0054748D01*
X0166748Y0054792D01*
X0166679Y0054838D01*
X0166612Y0054888D01*
X0166548Y0054941D01*
X0166486Y0054997D01*
X0166427Y0055056D01*
X0166371Y0055118D01*
X0166318Y0055182D01*
X0166268Y0055249D01*
X0166222Y0055318D01*
X0166178Y0055389D01*
X0166139Y0055462D01*
X0166102Y0055537D01*
X0166069Y0055614D01*
X0166040Y0055692D01*
X0166015Y0055771D01*
X0165993Y0055851D01*
X0165976Y0055933D01*
X0165962Y0056015D01*
X0165952Y0056098D01*
X0165946Y0056181D01*
X0165944Y0056264D01*
D227*
X0328458Y0181374D03*
X0329408Y0181124D03*
X0330758Y0180924D03*
X0331608Y0181924D03*
X0331508Y0182024D03*
X0332558Y0181924D03*
X0333408Y0180924D03*
X0334658Y0181124D03*
X0336008Y0181474D03*
X0336108Y0181524D03*
X0336208Y0181574D03*
X0326858Y0181974D03*
X0326558Y0182124D03*
X0320658Y0195924D03*
X0343458Y0195874D03*
X0343458Y0195824D03*
D228*
X0343508Y0195224D03*
X0343508Y0195174D03*
X0343508Y0195124D03*
X0343508Y0195074D03*
X0334358Y0199474D03*
X0334308Y0199524D03*
X0329858Y0199524D03*
X0320558Y0195074D03*
X0331208Y0182324D03*
X0332958Y0182324D03*
X0333158Y0180924D03*
D229*
X0332858Y0182224D03*
X0330958Y0180924D03*
X0343508Y0195274D03*
X0343508Y0195324D03*
X0343508Y0195374D03*
X0343508Y0195424D03*
X0334258Y0199574D03*
X0334258Y0199624D03*
D230*
X0334583Y0199124D03*
X0334633Y0199074D03*
X0334633Y0199024D03*
X0334683Y0198974D03*
X0329583Y0199124D03*
X0329533Y0199024D03*
X0329483Y0198974D03*
X0320583Y0194574D03*
X0320583Y0194524D03*
X0320533Y0194674D03*
X0330933Y0182624D03*
X0330683Y0180974D03*
X0333383Y0180974D03*
X0343533Y0194524D03*
D231*
X0343483Y0193774D03*
X0343483Y0193724D03*
X0335083Y0198324D03*
X0335033Y0198374D03*
X0334983Y0198424D03*
X0334983Y0198474D03*
X0329183Y0198424D03*
X0329133Y0198374D03*
X0330433Y0183224D03*
X0330483Y0183174D03*
X0333683Y0183174D03*
X0333683Y0183124D03*
X0333783Y0183274D03*
X0333583Y0181024D03*
D232*
X0333608Y0183024D03*
X0333608Y0183074D03*
X0330558Y0183074D03*
X0330508Y0183124D03*
X0330508Y0181024D03*
X0320608Y0193774D03*
X0320608Y0193824D03*
X0320608Y0193874D03*
X0320608Y0193974D03*
X0329208Y0198474D03*
X0329208Y0198524D03*
X0329258Y0198574D03*
X0334908Y0198574D03*
X0334958Y0198524D03*
X0343458Y0193974D03*
X0343508Y0194024D03*
X0343508Y0193924D03*
X0343508Y0193824D03*
D233*
X0343433Y0193274D03*
X0343433Y0193174D03*
X0343433Y0193124D03*
X0335283Y0197924D03*
X0335233Y0198024D03*
X0328983Y0198074D03*
X0320633Y0193324D03*
X0320633Y0193274D03*
X0320633Y0193224D03*
X0320633Y0193174D03*
X0330133Y0183624D03*
X0333983Y0183574D03*
X0334083Y0183674D03*
X0333783Y0181074D03*
D234*
X0334058Y0183624D03*
X0330058Y0183674D03*
X0330058Y0183724D03*
X0330258Y0181074D03*
X0320658Y0192974D03*
X0320658Y0193074D03*
X0320658Y0193124D03*
X0328808Y0197724D03*
X0328858Y0197824D03*
X0328858Y0197874D03*
X0328908Y0197924D03*
X0335308Y0197874D03*
X0335358Y0197824D03*
X0343458Y0193224D03*
X0343408Y0193074D03*
X0343408Y0192974D03*
D235*
X0343433Y0193024D03*
X0343383Y0192874D03*
X0335383Y0197624D03*
X0335383Y0197674D03*
X0335383Y0197724D03*
X0335333Y0197774D03*
X0328833Y0197774D03*
X0328783Y0197674D03*
X0328733Y0197574D03*
X0320683Y0193024D03*
X0320683Y0192924D03*
X0320683Y0192874D03*
X0329983Y0183824D03*
X0330033Y0183774D03*
X0334133Y0183774D03*
X0334133Y0183724D03*
X0334233Y0183824D03*
X0334233Y0183874D03*
X0333983Y0181124D03*
D236*
X0330108Y0181124D03*
X0329958Y0183874D03*
X0329858Y0183974D03*
X0334308Y0183924D03*
X0343358Y0192774D03*
X0343408Y0192824D03*
X0343408Y0192924D03*
X0335508Y0197474D03*
X0335458Y0197524D03*
X0335458Y0197574D03*
X0328758Y0197624D03*
X0328708Y0197524D03*
X0320708Y0192774D03*
D237*
X0320783Y0192174D03*
X0320783Y0192074D03*
X0320833Y0192024D03*
X0320833Y0191924D03*
X0328383Y0196724D03*
X0328383Y0196774D03*
X0328433Y0196824D03*
X0328433Y0196874D03*
X0335733Y0196874D03*
X0335783Y0196824D03*
X0335833Y0196724D03*
X0343283Y0192124D03*
X0343233Y0191974D03*
X0343233Y0191874D03*
X0334783Y0184724D03*
X0334733Y0184624D03*
X0334683Y0184574D03*
X0334633Y0184474D03*
X0329533Y0184474D03*
X0329483Y0184624D03*
X0329433Y0184674D03*
X0329333Y0184824D03*
X0334183Y0181174D03*
D238*
X0329908Y0181174D03*
X0329608Y0184374D03*
X0329558Y0184424D03*
X0329508Y0184524D03*
X0334508Y0184274D03*
X0334558Y0184374D03*
X0334608Y0184424D03*
X0334658Y0184524D03*
X0343258Y0192074D03*
X0343308Y0192224D03*
X0343308Y0192324D03*
X0335708Y0196924D03*
X0335708Y0196974D03*
X0335658Y0197074D03*
X0328508Y0197074D03*
X0328508Y0197024D03*
X0328458Y0196974D03*
X0328458Y0196924D03*
X0320758Y0192324D03*
X0320808Y0192124D03*
D239*
X0320858Y0191974D03*
X0320858Y0191874D03*
X0320858Y0191774D03*
X0328358Y0196674D03*
X0335758Y0196774D03*
X0335858Y0196674D03*
X0343258Y0192024D03*
X0343258Y0191924D03*
X0343208Y0191774D03*
X0343208Y0191724D03*
X0343158Y0191574D03*
X0334858Y0184824D03*
X0334808Y0184774D03*
X0334758Y0184674D03*
X0329508Y0184574D03*
X0329408Y0184724D03*
X0334308Y0181224D03*
D240*
X0334433Y0181274D03*
X0329783Y0181224D03*
X0329383Y0184774D03*
X0329333Y0184874D03*
X0329283Y0184924D03*
X0329233Y0185024D03*
X0334833Y0184874D03*
X0334933Y0184974D03*
X0343183Y0191624D03*
X0343183Y0191674D03*
X0343233Y0191824D03*
X0335933Y0196374D03*
X0335883Y0196524D03*
X0335833Y0196624D03*
X0328333Y0196624D03*
X0328333Y0196574D03*
X0328283Y0196524D03*
X0328283Y0196424D03*
X0328233Y0196374D03*
X0328233Y0196324D03*
X0320883Y0191824D03*
X0320883Y0191724D03*
X0320883Y0191674D03*
X0320933Y0191524D03*
D241*
X0320933Y0191574D03*
X0320933Y0191474D03*
X0320933Y0191424D03*
X0320983Y0191324D03*
X0320983Y0191274D03*
X0328083Y0195974D03*
X0328133Y0196024D03*
X0328133Y0196074D03*
X0335983Y0196224D03*
X0336033Y0196124D03*
X0336033Y0196074D03*
X0336083Y0196024D03*
X0336083Y0195924D03*
X0343133Y0191474D03*
X0343133Y0191424D03*
X0343133Y0191374D03*
X0335133Y0185374D03*
X0334983Y0185124D03*
X0334983Y0185074D03*
X0329183Y0185074D03*
X0329183Y0185124D03*
X0329133Y0185174D03*
X0329133Y0185224D03*
X0329633Y0181274D03*
D242*
X0329558Y0181324D03*
X0334558Y0181324D03*
X0335058Y0185174D03*
X0335108Y0185324D03*
X0335158Y0185424D03*
X0335208Y0185524D03*
X0329108Y0185274D03*
X0329058Y0185324D03*
X0329008Y0185424D03*
X0321008Y0191174D03*
X0321008Y0191224D03*
X0328058Y0195824D03*
X0328108Y0195924D03*
X0328158Y0196124D03*
X0336058Y0195974D03*
X0336108Y0195824D03*
X0336158Y0195724D03*
X0343058Y0191274D03*
X0343108Y0191324D03*
X0343108Y0191224D03*
X0343058Y0191174D03*
D243*
X0343083Y0191124D03*
X0343033Y0191074D03*
X0343033Y0191024D03*
X0343033Y0190974D03*
X0342983Y0190874D03*
X0336183Y0195624D03*
X0336133Y0195774D03*
X0336083Y0195874D03*
X0328083Y0195874D03*
X0328033Y0195774D03*
X0328033Y0195724D03*
X0327983Y0195624D03*
X0327983Y0195574D03*
X0321033Y0191124D03*
X0321033Y0191074D03*
X0321083Y0191024D03*
X0321083Y0190974D03*
X0321083Y0190924D03*
X0321083Y0190874D03*
X0328833Y0185774D03*
X0328883Y0185674D03*
X0328933Y0185574D03*
X0328933Y0185524D03*
X0328983Y0185474D03*
X0329033Y0185374D03*
X0335083Y0185274D03*
X0335183Y0185474D03*
X0335233Y0185574D03*
X0335283Y0185624D03*
X0335283Y0185674D03*
X0334683Y0181374D03*
X0329433Y0181374D03*
D244*
X0334808Y0181424D03*
X0334908Y0181474D03*
X0328758Y0186024D03*
X0328658Y0186174D03*
X0328658Y0186224D03*
X0328608Y0186274D03*
X0328608Y0186324D03*
X0335558Y0186274D03*
X0335608Y0186324D03*
X0342858Y0190424D03*
X0342858Y0190474D03*
X0342908Y0190524D03*
X0342908Y0190574D03*
X0342908Y0190624D03*
X0342958Y0190724D03*
X0336408Y0194774D03*
X0336358Y0194824D03*
X0336358Y0194874D03*
X0336358Y0194924D03*
X0336358Y0194974D03*
X0327808Y0194974D03*
X0327808Y0194924D03*
X0327808Y0194874D03*
X0327808Y0194824D03*
X0321208Y0190524D03*
X0321208Y0190474D03*
X0321208Y0190424D03*
X0321258Y0190324D03*
X0321158Y0190574D03*
D245*
X0321183Y0190624D03*
X0321133Y0190674D03*
X0321183Y0190724D03*
X0327833Y0195024D03*
X0327883Y0195074D03*
X0327883Y0195174D03*
X0327883Y0195224D03*
X0327933Y0195374D03*
X0327933Y0195424D03*
X0336233Y0195424D03*
X0336233Y0195374D03*
X0336283Y0195324D03*
X0336283Y0195224D03*
X0336283Y0195174D03*
X0336333Y0195124D03*
X0336333Y0195074D03*
X0336333Y0195024D03*
X0342933Y0190674D03*
X0335533Y0186174D03*
X0335483Y0186124D03*
X0335483Y0186074D03*
X0335433Y0186024D03*
X0335433Y0185974D03*
X0335383Y0185924D03*
X0328833Y0185824D03*
X0328783Y0185874D03*
X0328733Y0185974D03*
X0328683Y0186074D03*
X0328683Y0186124D03*
X0329283Y0181424D03*
D246*
X0329183Y0181474D03*
X0328983Y0181574D03*
X0335033Y0181524D03*
X0335533Y0186224D03*
X0335583Y0186374D03*
X0335633Y0186424D03*
X0335633Y0186474D03*
X0335683Y0186524D03*
X0335683Y0186574D03*
X0328583Y0186374D03*
X0328533Y0186424D03*
X0328533Y0186474D03*
X0328483Y0186524D03*
X0328483Y0186624D03*
X0328433Y0186724D03*
X0321333Y0190124D03*
X0321283Y0190224D03*
X0321283Y0190274D03*
X0321233Y0190374D03*
X0327733Y0194474D03*
X0327733Y0194524D03*
X0327733Y0194574D03*
X0327783Y0194674D03*
X0327783Y0194724D03*
X0327783Y0194774D03*
X0336383Y0194724D03*
X0336433Y0194624D03*
X0336433Y0194574D03*
X0342833Y0190374D03*
X0342833Y0190324D03*
D247*
X0342808Y0190274D03*
X0342808Y0190224D03*
X0342758Y0190174D03*
X0342758Y0190124D03*
X0342708Y0190074D03*
X0342658Y0189824D03*
X0335858Y0187024D03*
X0335808Y0186924D03*
X0335808Y0186824D03*
X0335758Y0186774D03*
X0335758Y0186724D03*
X0335708Y0186674D03*
X0335708Y0186624D03*
X0328508Y0186574D03*
X0328458Y0186674D03*
X0328408Y0186774D03*
X0328408Y0186824D03*
X0328358Y0186924D03*
X0328308Y0187074D03*
X0329058Y0181524D03*
X0335108Y0181574D03*
X0321358Y0190074D03*
X0321308Y0190174D03*
X0327658Y0194124D03*
X0327658Y0194274D03*
X0327708Y0194324D03*
X0327708Y0194374D03*
X0327708Y0194424D03*
X0327758Y0194624D03*
X0336408Y0194674D03*
X0336458Y0194524D03*
X0336458Y0194474D03*
X0336458Y0194424D03*
X0336458Y0194324D03*
X0336508Y0194224D03*
X0336508Y0194174D03*
X0336508Y0194124D03*
D248*
X0334083Y0199824D03*
X0334033Y0199874D03*
X0330133Y0199874D03*
X0330083Y0199824D03*
X0320633Y0195874D03*
X0320633Y0195824D03*
X0320633Y0195774D03*
X0320633Y0195724D03*
X0343483Y0195724D03*
X0343483Y0195774D03*
X0343483Y0195674D03*
X0343483Y0195624D03*
X0343483Y0195574D03*
X0332683Y0182024D03*
X0331583Y0181974D03*
X0327883Y0181574D03*
D249*
X0328783Y0181624D03*
X0335283Y0181624D03*
X0336033Y0187574D03*
X0336083Y0187674D03*
X0336083Y0187724D03*
X0336133Y0187774D03*
X0336133Y0187824D03*
X0336133Y0187874D03*
X0336133Y0187924D03*
X0336133Y0187974D03*
X0336183Y0188024D03*
X0336183Y0188124D03*
X0336233Y0188274D03*
X0328133Y0187574D03*
X0328083Y0187674D03*
X0328083Y0187724D03*
X0328083Y0187774D03*
X0328083Y0187824D03*
X0328033Y0187874D03*
X0328033Y0187924D03*
X0328033Y0187974D03*
X0327983Y0188074D03*
X0327983Y0188124D03*
X0327933Y0188324D03*
X0327833Y0188674D03*
X0327533Y0192824D03*
X0327533Y0192874D03*
X0327533Y0192924D03*
X0327533Y0192974D03*
X0327533Y0193024D03*
X0327583Y0193324D03*
X0327583Y0193374D03*
X0327583Y0193424D03*
X0327583Y0193474D03*
X0327583Y0193524D03*
X0327633Y0193874D03*
X0336583Y0193674D03*
X0336583Y0193574D03*
X0336583Y0193524D03*
X0336583Y0193424D03*
X0336583Y0193374D03*
X0336633Y0193324D03*
X0336633Y0193174D03*
X0336633Y0193124D03*
X0336633Y0193074D03*
X0336633Y0192974D03*
X0336633Y0192874D03*
X0342583Y0189674D03*
X0342533Y0189524D03*
X0342533Y0189474D03*
X0342483Y0189424D03*
X0342483Y0189374D03*
X0321633Y0189374D03*
X0321583Y0189424D03*
X0321533Y0189524D03*
X0321483Y0189724D03*
D250*
X0321558Y0189474D03*
X0321608Y0189324D03*
X0321658Y0189274D03*
X0327758Y0189024D03*
X0327808Y0188774D03*
X0327858Y0188574D03*
X0327908Y0188524D03*
X0327858Y0188474D03*
X0327908Y0188424D03*
X0327908Y0188374D03*
X0327958Y0188274D03*
X0327958Y0188224D03*
X0327958Y0188174D03*
X0328008Y0188024D03*
X0336158Y0188074D03*
X0336208Y0188174D03*
X0336208Y0188224D03*
X0336258Y0188324D03*
X0336258Y0188374D03*
X0336308Y0188424D03*
X0336308Y0188474D03*
X0336308Y0188524D03*
X0336308Y0188574D03*
X0336358Y0188674D03*
X0336358Y0188724D03*
X0336358Y0188824D03*
X0336408Y0188924D03*
X0336658Y0192474D03*
X0336658Y0192524D03*
X0336658Y0192574D03*
X0336658Y0192624D03*
X0336658Y0192674D03*
X0336658Y0192724D03*
X0336658Y0192774D03*
X0336658Y0192824D03*
X0336658Y0192924D03*
X0336658Y0193024D03*
X0336608Y0193224D03*
X0336608Y0193274D03*
X0327558Y0193274D03*
X0327558Y0193174D03*
X0327558Y0193074D03*
X0327508Y0192774D03*
X0327508Y0192724D03*
X0327508Y0192674D03*
X0327508Y0192624D03*
X0327508Y0192574D03*
X0327508Y0192524D03*
X0327508Y0192474D03*
X0327508Y0192424D03*
X0327508Y0192324D03*
X0342408Y0189274D03*
X0342408Y0189224D03*
X0342458Y0189324D03*
X0342558Y0189624D03*
X0335408Y0181674D03*
X0328658Y0181674D03*
D251*
X0328633Y0181724D03*
X0328533Y0181774D03*
X0328433Y0181824D03*
X0335483Y0181724D03*
X0335583Y0181774D03*
X0336333Y0188624D03*
X0336383Y0188874D03*
X0336383Y0188974D03*
X0336433Y0189024D03*
X0336433Y0189074D03*
X0336433Y0189124D03*
X0336433Y0189174D03*
X0336483Y0189274D03*
X0336483Y0189324D03*
X0336483Y0189474D03*
X0336533Y0189524D03*
X0336533Y0189574D03*
X0336533Y0189624D03*
X0336533Y0189674D03*
X0336533Y0189724D03*
X0336583Y0189874D03*
X0336583Y0189924D03*
X0336583Y0190074D03*
X0336583Y0190174D03*
X0336583Y0190274D03*
X0336633Y0190424D03*
X0336633Y0190524D03*
X0336633Y0190574D03*
X0336633Y0190624D03*
X0336633Y0190674D03*
X0336683Y0190924D03*
X0336683Y0191074D03*
X0336683Y0191224D03*
X0336683Y0191424D03*
X0336683Y0191474D03*
X0336683Y0191524D03*
X0336683Y0191574D03*
X0336683Y0191624D03*
X0336683Y0191674D03*
X0336683Y0191724D03*
X0336683Y0191774D03*
X0336683Y0191824D03*
X0336683Y0191874D03*
X0336683Y0191924D03*
X0336683Y0191974D03*
X0336683Y0192024D03*
X0336683Y0192074D03*
X0336683Y0192124D03*
X0336683Y0192174D03*
X0336683Y0192224D03*
X0336683Y0192274D03*
X0336683Y0192324D03*
X0336683Y0192374D03*
X0336683Y0192424D03*
X0327483Y0192374D03*
X0327483Y0192274D03*
X0327483Y0192224D03*
X0327483Y0192174D03*
X0327483Y0192124D03*
X0327483Y0192074D03*
X0327483Y0192024D03*
X0327483Y0191974D03*
X0327483Y0191924D03*
X0327483Y0191874D03*
X0327483Y0191824D03*
X0327483Y0191774D03*
X0327483Y0191724D03*
X0327483Y0191674D03*
X0327483Y0191574D03*
X0327483Y0191524D03*
X0327483Y0191474D03*
X0327533Y0190574D03*
X0327583Y0190274D03*
X0327583Y0190224D03*
X0327583Y0190174D03*
X0327583Y0190124D03*
X0327633Y0189974D03*
X0327633Y0189874D03*
X0327633Y0189674D03*
X0327633Y0189624D03*
X0327633Y0189574D03*
X0327683Y0189524D03*
X0327683Y0189424D03*
X0327683Y0189374D03*
X0327683Y0189324D03*
X0327733Y0189274D03*
X0327733Y0189174D03*
X0327733Y0189124D03*
X0327733Y0189074D03*
X0327783Y0188974D03*
X0327783Y0188924D03*
X0327783Y0188874D03*
X0327833Y0188824D03*
X0327833Y0188724D03*
X0327833Y0188624D03*
X0321833Y0188874D03*
X0321783Y0188974D03*
X0321733Y0189074D03*
X0321733Y0189124D03*
X0321683Y0189174D03*
X0321683Y0189224D03*
X0342333Y0189074D03*
X0342333Y0189024D03*
X0342333Y0188974D03*
X0342383Y0189124D03*
X0342383Y0189174D03*
D252*
X0342258Y0188924D03*
X0342258Y0188874D03*
X0336558Y0189774D03*
X0336558Y0189824D03*
X0336558Y0189974D03*
X0336608Y0190124D03*
X0336608Y0190224D03*
X0336608Y0190324D03*
X0336608Y0190374D03*
X0336608Y0190474D03*
X0336658Y0190724D03*
X0336658Y0190774D03*
X0336658Y0190824D03*
X0336658Y0190874D03*
X0336658Y0190974D03*
X0336658Y0191024D03*
X0336658Y0191124D03*
X0336658Y0191174D03*
X0336658Y0191274D03*
X0336658Y0191324D03*
X0336658Y0191374D03*
X0336508Y0189424D03*
X0336508Y0189374D03*
X0336458Y0189224D03*
X0336358Y0188774D03*
X0327708Y0189224D03*
X0327658Y0189474D03*
X0327658Y0189724D03*
X0327658Y0189774D03*
X0327608Y0189824D03*
X0327608Y0189924D03*
X0327608Y0190024D03*
X0327608Y0190074D03*
X0327558Y0190324D03*
X0327558Y0190374D03*
X0327558Y0190424D03*
X0327558Y0190474D03*
X0327558Y0190524D03*
X0327558Y0190624D03*
X0327558Y0190674D03*
X0327508Y0190724D03*
X0327558Y0190774D03*
X0327508Y0190874D03*
X0327508Y0190924D03*
X0327508Y0190974D03*
X0327508Y0191024D03*
X0327508Y0191074D03*
X0327508Y0191124D03*
X0327508Y0191174D03*
X0327508Y0191224D03*
X0327508Y0191274D03*
X0327508Y0191324D03*
X0327508Y0191374D03*
X0327508Y0191424D03*
X0327508Y0191624D03*
X0321858Y0188824D03*
X0321858Y0188774D03*
X0321808Y0188924D03*
X0321758Y0189024D03*
X0335658Y0181824D03*
X0335758Y0181874D03*
D253*
X0335908Y0181924D03*
X0328308Y0181874D03*
X0328158Y0181974D03*
X0322058Y0188374D03*
X0322008Y0188474D03*
X0321958Y0188524D03*
X0341958Y0188224D03*
X0342008Y0188324D03*
X0342008Y0188374D03*
X0342058Y0188424D03*
X0342058Y0188474D03*
X0342108Y0188524D03*
X0342108Y0188574D03*
X0342158Y0188624D03*
D254*
X0342183Y0188674D03*
X0342183Y0188724D03*
X0342233Y0188774D03*
X0342233Y0188824D03*
X0336583Y0190024D03*
X0327533Y0190824D03*
X0321983Y0188574D03*
X0321933Y0188624D03*
X0321933Y0188674D03*
X0321883Y0188724D03*
X0328233Y0181924D03*
D255*
X0335933Y0181974D03*
X0336033Y0182024D03*
X0341833Y0188024D03*
X0341883Y0188074D03*
X0341933Y0188124D03*
X0341933Y0188174D03*
X0341983Y0188274D03*
X0322233Y0188024D03*
X0322183Y0188124D03*
X0322183Y0188174D03*
X0322133Y0188224D03*
X0322133Y0188274D03*
X0322083Y0188324D03*
X0322033Y0188424D03*
D256*
X0331358Y0182174D03*
X0331458Y0182074D03*
X0332608Y0181974D03*
X0332708Y0182074D03*
X0320608Y0195524D03*
X0320608Y0195674D03*
X0330058Y0199774D03*
X0334108Y0199774D03*
X0334158Y0199724D03*
D257*
X0341808Y0187974D03*
X0341758Y0187874D03*
X0341708Y0187774D03*
X0336108Y0182074D03*
X0328008Y0182024D03*
X0327908Y0182124D03*
X0322358Y0187774D03*
X0322358Y0187824D03*
X0322308Y0187874D03*
X0322308Y0187924D03*
X0322258Y0187974D03*
X0322208Y0188074D03*
D258*
X0322433Y0187724D03*
X0322433Y0187674D03*
X0322483Y0187574D03*
X0322533Y0187474D03*
X0327733Y0182224D03*
X0327783Y0182174D03*
X0327933Y0182074D03*
X0336233Y0182124D03*
X0336333Y0182174D03*
X0341533Y0187474D03*
X0341583Y0187574D03*
X0341633Y0187624D03*
X0341633Y0187674D03*
X0341683Y0187724D03*
X0341733Y0187824D03*
X0341783Y0187924D03*
D259*
X0332833Y0182174D03*
X0332783Y0182124D03*
X0331433Y0182124D03*
X0320583Y0195424D03*
X0320583Y0195474D03*
X0320583Y0195574D03*
X0320633Y0195624D03*
X0329983Y0199674D03*
X0330033Y0199724D03*
X0334183Y0199674D03*
X0343483Y0195524D03*
X0343483Y0195474D03*
D260*
X0341483Y0187374D03*
X0341383Y0187224D03*
X0341333Y0187124D03*
X0341283Y0187074D03*
X0341283Y0187024D03*
X0341233Y0186974D03*
X0341183Y0186874D03*
X0336933Y0182574D03*
X0336733Y0182424D03*
X0336383Y0182224D03*
X0327583Y0182324D03*
X0327433Y0182374D03*
X0322833Y0187024D03*
X0322783Y0187074D03*
X0322733Y0187124D03*
X0322733Y0187174D03*
X0322683Y0187224D03*
D261*
X0331283Y0182274D03*
X0331333Y0182224D03*
X0332883Y0182274D03*
X0320583Y0195224D03*
X0320583Y0195274D03*
X0320583Y0195324D03*
X0320583Y0195374D03*
X0329883Y0199574D03*
X0329933Y0199624D03*
D262*
X0322458Y0187624D03*
X0322508Y0187524D03*
X0322558Y0187424D03*
X0322608Y0187374D03*
X0322608Y0187324D03*
X0322658Y0187274D03*
X0327608Y0182274D03*
X0336458Y0182274D03*
X0336508Y0182324D03*
X0341358Y0187174D03*
X0341408Y0187274D03*
X0341458Y0187324D03*
X0341508Y0187424D03*
X0341558Y0187524D03*
D263*
X0341208Y0186924D03*
X0341158Y0186824D03*
X0341108Y0186774D03*
X0341058Y0186674D03*
X0340958Y0186574D03*
X0336808Y0182474D03*
X0336658Y0182374D03*
X0327358Y0182424D03*
X0327308Y0182474D03*
X0327208Y0182524D03*
X0323008Y0186774D03*
X0322958Y0186824D03*
X0322908Y0186874D03*
X0322908Y0186924D03*
X0322858Y0186974D03*
D264*
X0331133Y0182374D03*
X0333033Y0182374D03*
X0320583Y0195024D03*
X0320583Y0195124D03*
X0320583Y0195174D03*
X0329783Y0199374D03*
X0329783Y0199424D03*
X0329833Y0199474D03*
X0334383Y0199424D03*
X0334433Y0199374D03*
D265*
X0334458Y0199324D03*
X0343508Y0195024D03*
X0343508Y0194974D03*
X0343508Y0194924D03*
X0333108Y0182474D03*
X0333058Y0182424D03*
X0331108Y0182424D03*
X0331058Y0182474D03*
X0320558Y0194824D03*
X0320558Y0194874D03*
X0320558Y0194924D03*
X0320558Y0194974D03*
D266*
X0323033Y0186724D03*
X0323033Y0186674D03*
X0323083Y0186624D03*
X0323133Y0186574D03*
X0323133Y0186524D03*
X0323183Y0186474D03*
X0323483Y0186074D03*
X0326683Y0182874D03*
X0326783Y0182824D03*
X0326833Y0182774D03*
X0326933Y0182724D03*
X0326983Y0182674D03*
X0327033Y0182624D03*
X0327133Y0182574D03*
X0336883Y0182524D03*
X0337033Y0182624D03*
X0337083Y0182674D03*
X0340883Y0186424D03*
X0340883Y0186474D03*
X0340933Y0186524D03*
X0340983Y0186624D03*
X0341083Y0186724D03*
D267*
X0333183Y0182524D03*
X0343533Y0194724D03*
X0343483Y0194824D03*
X0343533Y0194874D03*
X0334533Y0199224D03*
X0334483Y0199274D03*
X0329733Y0199324D03*
X0329683Y0199274D03*
X0329633Y0199224D03*
X0320583Y0194724D03*
D268*
X0320558Y0194774D03*
X0320558Y0194624D03*
X0329558Y0199074D03*
X0329608Y0199174D03*
X0334558Y0199174D03*
X0343508Y0194774D03*
X0343508Y0194674D03*
X0343508Y0194624D03*
X0333258Y0182624D03*
X0333208Y0182574D03*
X0331008Y0182524D03*
X0330958Y0182574D03*
D269*
X0330858Y0182674D03*
X0330858Y0182724D03*
X0330758Y0182824D03*
X0333308Y0182674D03*
X0333358Y0182724D03*
X0343508Y0194374D03*
X0343508Y0194424D03*
X0343508Y0194474D03*
X0343508Y0194574D03*
X0334758Y0198874D03*
X0334708Y0198924D03*
X0329458Y0198924D03*
X0329408Y0198874D03*
X0320558Y0194474D03*
X0320558Y0194424D03*
X0320608Y0194374D03*
D270*
X0323208Y0186424D03*
X0323258Y0186374D03*
X0323308Y0186324D03*
X0323308Y0186274D03*
X0323358Y0186224D03*
X0323408Y0186174D03*
X0323408Y0186124D03*
X0323558Y0185974D03*
X0323608Y0185874D03*
X0326558Y0182974D03*
X0326658Y0182924D03*
X0337158Y0182724D03*
X0337208Y0182774D03*
X0337308Y0182824D03*
X0337508Y0182974D03*
X0337708Y0183124D03*
X0337758Y0183174D03*
X0340458Y0185874D03*
X0340658Y0186124D03*
X0340708Y0186224D03*
X0340758Y0186274D03*
X0340808Y0186324D03*
X0340808Y0186374D03*
D271*
X0333483Y0182874D03*
X0333433Y0182824D03*
X0333383Y0182774D03*
X0330783Y0182774D03*
X0320583Y0194224D03*
X0320583Y0194324D03*
X0334783Y0198824D03*
X0343533Y0194324D03*
D272*
X0340683Y0186174D03*
X0340633Y0186074D03*
X0340583Y0186024D03*
X0340533Y0185974D03*
X0340433Y0185824D03*
X0340383Y0185774D03*
X0340333Y0185724D03*
X0340283Y0185674D03*
X0340283Y0185624D03*
X0340233Y0185574D03*
X0340133Y0185474D03*
X0340083Y0185424D03*
X0340033Y0185324D03*
X0339933Y0185224D03*
X0338033Y0183374D03*
X0337983Y0183324D03*
X0337833Y0183224D03*
X0337633Y0183074D03*
X0337583Y0183024D03*
X0337383Y0182874D03*
X0326533Y0183024D03*
X0326433Y0183074D03*
X0326383Y0183124D03*
X0326133Y0183324D03*
X0325933Y0183474D03*
X0324083Y0185324D03*
X0323833Y0185624D03*
X0323783Y0185674D03*
X0323733Y0185724D03*
X0323683Y0185774D03*
X0323683Y0185824D03*
X0323583Y0185924D03*
X0323483Y0186024D03*
D273*
X0330608Y0182974D03*
X0330658Y0182924D03*
X0330708Y0182874D03*
X0333558Y0182924D03*
X0333558Y0182974D03*
X0343508Y0194224D03*
X0343508Y0194274D03*
X0334908Y0198624D03*
X0334858Y0198674D03*
X0334858Y0198724D03*
X0334808Y0198774D03*
X0329408Y0198824D03*
X0329358Y0198774D03*
X0329358Y0198724D03*
X0329308Y0198674D03*
X0320558Y0194274D03*
X0320608Y0194174D03*
X0320608Y0194074D03*
D274*
X0323858Y0185574D03*
X0323908Y0185524D03*
X0323958Y0185474D03*
X0324008Y0185424D03*
X0324008Y0185374D03*
X0324158Y0185224D03*
X0324208Y0185174D03*
X0324258Y0185124D03*
X0324258Y0185074D03*
X0324358Y0184974D03*
X0324558Y0184774D03*
X0325208Y0184124D03*
X0325508Y0183824D03*
X0325758Y0183624D03*
X0325908Y0183524D03*
X0326008Y0183424D03*
X0326058Y0183374D03*
X0326158Y0183274D03*
X0326258Y0183224D03*
X0326308Y0183174D03*
X0337458Y0182924D03*
X0337908Y0183274D03*
X0338108Y0183424D03*
X0338158Y0183474D03*
X0338208Y0183524D03*
X0338258Y0183574D03*
X0338358Y0183624D03*
X0338458Y0183724D03*
X0338708Y0183974D03*
X0338808Y0184074D03*
X0338958Y0184174D03*
X0339408Y0184624D03*
X0339408Y0184674D03*
X0339508Y0184774D03*
X0339658Y0184874D03*
X0339708Y0184974D03*
X0339758Y0185024D03*
X0339858Y0185124D03*
X0339908Y0185174D03*
X0339958Y0185274D03*
X0340058Y0185374D03*
X0340208Y0185524D03*
X0340508Y0185924D03*
D275*
X0330583Y0183024D03*
X0320583Y0193924D03*
X0320583Y0194024D03*
X0320583Y0194124D03*
X0329283Y0198624D03*
X0343483Y0194074D03*
X0343533Y0194124D03*
X0343533Y0194174D03*
D276*
X0343508Y0193874D03*
X0343458Y0193674D03*
X0343508Y0193574D03*
X0343458Y0193524D03*
X0335058Y0198274D03*
X0329108Y0198274D03*
X0329108Y0198324D03*
X0320608Y0193724D03*
X0320608Y0193674D03*
X0320608Y0193624D03*
X0320608Y0193574D03*
X0330308Y0183374D03*
X0330358Y0183324D03*
X0330408Y0183274D03*
X0333758Y0183224D03*
X0333858Y0183374D03*
D277*
X0333833Y0183324D03*
X0330283Y0183424D03*
X0320633Y0193374D03*
X0320633Y0193474D03*
X0320633Y0193524D03*
X0329033Y0198174D03*
X0329083Y0198224D03*
X0335133Y0198174D03*
X0335183Y0198124D03*
X0343483Y0193624D03*
X0343483Y0193424D03*
D278*
X0343458Y0193474D03*
X0343458Y0193374D03*
X0343458Y0193324D03*
X0335258Y0197974D03*
X0335208Y0198074D03*
X0335108Y0198224D03*
X0329008Y0198124D03*
X0328958Y0198024D03*
X0328908Y0197974D03*
X0320658Y0193424D03*
X0330158Y0183574D03*
X0330208Y0183524D03*
X0330208Y0183474D03*
X0333908Y0183424D03*
X0333958Y0183474D03*
X0334008Y0183524D03*
D279*
X0338383Y0183674D03*
X0338483Y0183774D03*
X0338583Y0183824D03*
X0338583Y0183874D03*
X0338683Y0183924D03*
X0338783Y0184024D03*
X0338883Y0184124D03*
X0338983Y0184224D03*
X0339033Y0184274D03*
X0339083Y0184324D03*
X0339133Y0184374D03*
X0339233Y0184424D03*
X0339233Y0184474D03*
X0339283Y0184524D03*
X0339333Y0184574D03*
X0339483Y0184724D03*
X0339583Y0184824D03*
X0339683Y0184924D03*
X0339783Y0185074D03*
X0325833Y0183574D03*
X0325733Y0183674D03*
X0325633Y0183724D03*
X0325583Y0183774D03*
X0325483Y0183874D03*
X0325433Y0183924D03*
X0325383Y0183974D03*
X0325083Y0184224D03*
X0324683Y0184624D03*
X0324633Y0184674D03*
X0324583Y0184724D03*
X0324533Y0184824D03*
X0324483Y0184874D03*
X0324433Y0184924D03*
X0324333Y0185024D03*
X0324133Y0185274D03*
D280*
X0329783Y0184124D03*
X0329833Y0184024D03*
X0329883Y0183924D03*
X0334283Y0183974D03*
X0334333Y0184024D03*
X0343333Y0192474D03*
X0343333Y0192574D03*
X0343383Y0192624D03*
X0343333Y0192674D03*
X0343383Y0192724D03*
X0335583Y0197324D03*
X0335533Y0197374D03*
X0335533Y0197424D03*
X0328683Y0197474D03*
X0328633Y0197374D03*
X0328583Y0197324D03*
X0320683Y0192824D03*
X0320683Y0192724D03*
X0320733Y0192674D03*
X0320733Y0192574D03*
D281*
X0324758Y0184574D03*
X0324808Y0184524D03*
X0324858Y0184474D03*
X0324908Y0184424D03*
X0324958Y0184374D03*
X0325008Y0184324D03*
X0325058Y0184274D03*
X0325158Y0184174D03*
X0325258Y0184074D03*
X0325308Y0184024D03*
D282*
X0329708Y0184224D03*
X0329808Y0184074D03*
X0334358Y0184074D03*
X0334408Y0184124D03*
X0343308Y0192274D03*
X0343308Y0192374D03*
X0343358Y0192524D03*
X0335658Y0197124D03*
X0335608Y0197224D03*
X0335608Y0197274D03*
X0328658Y0197424D03*
X0328608Y0197274D03*
X0328558Y0197224D03*
X0320708Y0192624D03*
X0320758Y0192524D03*
X0320758Y0192474D03*
X0320758Y0192374D03*
D283*
X0320733Y0192424D03*
X0320783Y0192274D03*
X0320783Y0192224D03*
X0328533Y0197124D03*
X0328533Y0197174D03*
X0335633Y0197174D03*
X0335683Y0197024D03*
X0343333Y0192424D03*
X0343283Y0192174D03*
X0334533Y0184324D03*
X0334483Y0184224D03*
X0334433Y0184174D03*
X0329733Y0184174D03*
X0329683Y0184274D03*
X0329633Y0184324D03*
D284*
X0329258Y0184974D03*
X0334908Y0184924D03*
X0334958Y0185024D03*
X0335058Y0185224D03*
X0343158Y0191524D03*
X0336008Y0196174D03*
X0335958Y0196274D03*
X0335958Y0196324D03*
X0335908Y0196424D03*
X0335908Y0196474D03*
X0335858Y0196574D03*
X0328258Y0196474D03*
X0328208Y0196274D03*
X0328208Y0196224D03*
X0328158Y0196174D03*
X0320908Y0191624D03*
X0320958Y0191374D03*
D285*
X0321108Y0190824D03*
X0321158Y0190774D03*
X0327858Y0195124D03*
X0327908Y0195274D03*
X0327908Y0195324D03*
X0327958Y0195474D03*
X0327958Y0195524D03*
X0328008Y0195674D03*
X0336158Y0195674D03*
X0336208Y0195574D03*
X0336208Y0195524D03*
X0336208Y0195474D03*
X0336258Y0195274D03*
X0343008Y0190924D03*
X0343008Y0190824D03*
X0342958Y0190774D03*
X0335408Y0185874D03*
X0335358Y0185824D03*
X0335358Y0185774D03*
X0335308Y0185724D03*
X0328908Y0185624D03*
X0328858Y0185724D03*
X0328758Y0185924D03*
D286*
X0328383Y0186874D03*
X0328333Y0186974D03*
X0328333Y0187024D03*
X0328283Y0187124D03*
X0328233Y0187224D03*
X0328233Y0187274D03*
X0328183Y0187324D03*
X0328183Y0187424D03*
X0335783Y0186874D03*
X0335833Y0186974D03*
X0335883Y0187074D03*
X0335883Y0187124D03*
X0335933Y0187224D03*
X0335933Y0187274D03*
X0335983Y0187324D03*
X0335983Y0187374D03*
X0335983Y0187424D03*
X0336033Y0187474D03*
X0342683Y0189874D03*
X0342683Y0189974D03*
X0342733Y0190024D03*
X0336583Y0193624D03*
X0336583Y0193724D03*
X0336533Y0193974D03*
X0336533Y0194024D03*
X0336533Y0194074D03*
X0336483Y0194274D03*
X0336483Y0194374D03*
X0327683Y0194224D03*
X0327683Y0194174D03*
X0327633Y0193974D03*
X0327633Y0193774D03*
X0321383Y0189974D03*
X0321433Y0189824D03*
X0321483Y0189674D03*
D287*
X0321508Y0189624D03*
X0321508Y0189574D03*
X0321458Y0189774D03*
X0321408Y0189874D03*
X0321408Y0189924D03*
X0321358Y0190024D03*
X0327558Y0193124D03*
X0327558Y0193224D03*
X0327608Y0193574D03*
X0327608Y0193624D03*
X0327608Y0193674D03*
X0327608Y0193724D03*
X0327608Y0193824D03*
X0327658Y0193924D03*
X0327658Y0194024D03*
X0327658Y0194074D03*
X0336558Y0193924D03*
X0336558Y0193874D03*
X0336558Y0193824D03*
X0336558Y0193774D03*
X0336608Y0193474D03*
X0342708Y0189924D03*
X0342658Y0189774D03*
X0342608Y0189724D03*
X0342558Y0189574D03*
X0336058Y0187624D03*
X0336008Y0187524D03*
X0335908Y0187174D03*
X0328258Y0187174D03*
X0328208Y0187374D03*
X0328158Y0187474D03*
X0328158Y0187524D03*
X0328108Y0187624D03*
D288*
X0458654Y0153002D02*
X0458654Y0131349D01*
X0466921Y0129971D02*
X0474795Y0129971D01*
X0483063Y0131349D02*
X0483063Y0153002D01*
X0474795Y0154380D02*
X0466921Y0154380D01*
X0463968Y0142176D02*
X0463970Y0142345D01*
X0463976Y0142514D01*
X0463987Y0142683D01*
X0464001Y0142851D01*
X0464020Y0143019D01*
X0464043Y0143187D01*
X0464069Y0143354D01*
X0464100Y0143520D01*
X0464135Y0143686D01*
X0464174Y0143850D01*
X0464218Y0144014D01*
X0464265Y0144176D01*
X0464316Y0144337D01*
X0464371Y0144497D01*
X0464430Y0144656D01*
X0464492Y0144813D01*
X0464559Y0144968D01*
X0464630Y0145122D01*
X0464704Y0145274D01*
X0464782Y0145424D01*
X0464863Y0145572D01*
X0464948Y0145718D01*
X0465037Y0145862D01*
X0465129Y0146004D01*
X0465225Y0146143D01*
X0465324Y0146280D01*
X0465426Y0146415D01*
X0465532Y0146547D01*
X0465641Y0146676D01*
X0465753Y0146803D01*
X0465868Y0146927D01*
X0465986Y0147048D01*
X0466107Y0147166D01*
X0466231Y0147281D01*
X0466358Y0147393D01*
X0466487Y0147502D01*
X0466619Y0147608D01*
X0466754Y0147710D01*
X0466891Y0147809D01*
X0467030Y0147905D01*
X0467172Y0147997D01*
X0467316Y0148086D01*
X0467462Y0148171D01*
X0467610Y0148252D01*
X0467760Y0148330D01*
X0467912Y0148404D01*
X0468066Y0148475D01*
X0468221Y0148542D01*
X0468378Y0148604D01*
X0468537Y0148663D01*
X0468697Y0148718D01*
X0468858Y0148769D01*
X0469020Y0148816D01*
X0469184Y0148860D01*
X0469348Y0148899D01*
X0469514Y0148934D01*
X0469680Y0148965D01*
X0469847Y0148991D01*
X0470015Y0149014D01*
X0470183Y0149033D01*
X0470351Y0149047D01*
X0470520Y0149058D01*
X0470689Y0149064D01*
X0470858Y0149066D01*
X0471027Y0149064D01*
X0471196Y0149058D01*
X0471365Y0149047D01*
X0471533Y0149033D01*
X0471701Y0149014D01*
X0471869Y0148991D01*
X0472036Y0148965D01*
X0472202Y0148934D01*
X0472368Y0148899D01*
X0472532Y0148860D01*
X0472696Y0148816D01*
X0472858Y0148769D01*
X0473019Y0148718D01*
X0473179Y0148663D01*
X0473338Y0148604D01*
X0473495Y0148542D01*
X0473650Y0148475D01*
X0473804Y0148404D01*
X0473956Y0148330D01*
X0474106Y0148252D01*
X0474254Y0148171D01*
X0474400Y0148086D01*
X0474544Y0147997D01*
X0474686Y0147905D01*
X0474825Y0147809D01*
X0474962Y0147710D01*
X0475097Y0147608D01*
X0475229Y0147502D01*
X0475358Y0147393D01*
X0475485Y0147281D01*
X0475609Y0147166D01*
X0475730Y0147048D01*
X0475848Y0146927D01*
X0475963Y0146803D01*
X0476075Y0146676D01*
X0476184Y0146547D01*
X0476290Y0146415D01*
X0476392Y0146280D01*
X0476491Y0146143D01*
X0476587Y0146004D01*
X0476679Y0145862D01*
X0476768Y0145718D01*
X0476853Y0145572D01*
X0476934Y0145424D01*
X0477012Y0145274D01*
X0477086Y0145122D01*
X0477157Y0144968D01*
X0477224Y0144813D01*
X0477286Y0144656D01*
X0477345Y0144497D01*
X0477400Y0144337D01*
X0477451Y0144176D01*
X0477498Y0144014D01*
X0477542Y0143850D01*
X0477581Y0143686D01*
X0477616Y0143520D01*
X0477647Y0143354D01*
X0477673Y0143187D01*
X0477696Y0143019D01*
X0477715Y0142851D01*
X0477729Y0142683D01*
X0477740Y0142514D01*
X0477746Y0142345D01*
X0477748Y0142176D01*
X0477746Y0142007D01*
X0477740Y0141838D01*
X0477729Y0141669D01*
X0477715Y0141501D01*
X0477696Y0141333D01*
X0477673Y0141165D01*
X0477647Y0140998D01*
X0477616Y0140832D01*
X0477581Y0140666D01*
X0477542Y0140502D01*
X0477498Y0140338D01*
X0477451Y0140176D01*
X0477400Y0140015D01*
X0477345Y0139855D01*
X0477286Y0139696D01*
X0477224Y0139539D01*
X0477157Y0139384D01*
X0477086Y0139230D01*
X0477012Y0139078D01*
X0476934Y0138928D01*
X0476853Y0138780D01*
X0476768Y0138634D01*
X0476679Y0138490D01*
X0476587Y0138348D01*
X0476491Y0138209D01*
X0476392Y0138072D01*
X0476290Y0137937D01*
X0476184Y0137805D01*
X0476075Y0137676D01*
X0475963Y0137549D01*
X0475848Y0137425D01*
X0475730Y0137304D01*
X0475609Y0137186D01*
X0475485Y0137071D01*
X0475358Y0136959D01*
X0475229Y0136850D01*
X0475097Y0136744D01*
X0474962Y0136642D01*
X0474825Y0136543D01*
X0474686Y0136447D01*
X0474544Y0136355D01*
X0474400Y0136266D01*
X0474254Y0136181D01*
X0474106Y0136100D01*
X0473956Y0136022D01*
X0473804Y0135948D01*
X0473650Y0135877D01*
X0473495Y0135810D01*
X0473338Y0135748D01*
X0473179Y0135689D01*
X0473019Y0135634D01*
X0472858Y0135583D01*
X0472696Y0135536D01*
X0472532Y0135492D01*
X0472368Y0135453D01*
X0472202Y0135418D01*
X0472036Y0135387D01*
X0471869Y0135361D01*
X0471701Y0135338D01*
X0471533Y0135319D01*
X0471365Y0135305D01*
X0471196Y0135294D01*
X0471027Y0135288D01*
X0470858Y0135286D01*
X0470689Y0135288D01*
X0470520Y0135294D01*
X0470351Y0135305D01*
X0470183Y0135319D01*
X0470015Y0135338D01*
X0469847Y0135361D01*
X0469680Y0135387D01*
X0469514Y0135418D01*
X0469348Y0135453D01*
X0469184Y0135492D01*
X0469020Y0135536D01*
X0468858Y0135583D01*
X0468697Y0135634D01*
X0468537Y0135689D01*
X0468378Y0135748D01*
X0468221Y0135810D01*
X0468066Y0135877D01*
X0467912Y0135948D01*
X0467760Y0136022D01*
X0467610Y0136100D01*
X0467462Y0136181D01*
X0467316Y0136266D01*
X0467172Y0136355D01*
X0467030Y0136447D01*
X0466891Y0136543D01*
X0466754Y0136642D01*
X0466619Y0136744D01*
X0466487Y0136850D01*
X0466358Y0136959D01*
X0466231Y0137071D01*
X0466107Y0137186D01*
X0465986Y0137304D01*
X0465868Y0137425D01*
X0465753Y0137549D01*
X0465641Y0137676D01*
X0465532Y0137805D01*
X0465426Y0137937D01*
X0465324Y0138072D01*
X0465225Y0138209D01*
X0465129Y0138348D01*
X0465037Y0138490D01*
X0464948Y0138634D01*
X0464863Y0138780D01*
X0464782Y0138928D01*
X0464704Y0139078D01*
X0464630Y0139230D01*
X0464559Y0139384D01*
X0464492Y0139539D01*
X0464430Y0139696D01*
X0464371Y0139855D01*
X0464316Y0140015D01*
X0464265Y0140176D01*
X0464218Y0140338D01*
X0464174Y0140502D01*
X0464135Y0140666D01*
X0464100Y0140832D01*
X0464069Y0140998D01*
X0464043Y0141165D01*
X0464020Y0141333D01*
X0464001Y0141501D01*
X0463987Y0141669D01*
X0463976Y0141838D01*
X0463970Y0142007D01*
X0463968Y0142176D01*
X0466945Y0096191D02*
X0459071Y0096191D01*
X0450803Y0094814D02*
X0450803Y0073160D01*
X0459071Y0071782D02*
X0466945Y0071782D01*
X0475213Y0073160D02*
X0475213Y0094814D01*
X0456118Y0083987D02*
X0456120Y0084156D01*
X0456126Y0084325D01*
X0456137Y0084494D01*
X0456151Y0084662D01*
X0456170Y0084830D01*
X0456193Y0084998D01*
X0456219Y0085165D01*
X0456250Y0085331D01*
X0456285Y0085497D01*
X0456324Y0085661D01*
X0456368Y0085825D01*
X0456415Y0085987D01*
X0456466Y0086148D01*
X0456521Y0086308D01*
X0456580Y0086467D01*
X0456642Y0086624D01*
X0456709Y0086779D01*
X0456780Y0086933D01*
X0456854Y0087085D01*
X0456932Y0087235D01*
X0457013Y0087383D01*
X0457098Y0087529D01*
X0457187Y0087673D01*
X0457279Y0087815D01*
X0457375Y0087954D01*
X0457474Y0088091D01*
X0457576Y0088226D01*
X0457682Y0088358D01*
X0457791Y0088487D01*
X0457903Y0088614D01*
X0458018Y0088738D01*
X0458136Y0088859D01*
X0458257Y0088977D01*
X0458381Y0089092D01*
X0458508Y0089204D01*
X0458637Y0089313D01*
X0458769Y0089419D01*
X0458904Y0089521D01*
X0459041Y0089620D01*
X0459180Y0089716D01*
X0459322Y0089808D01*
X0459466Y0089897D01*
X0459612Y0089982D01*
X0459760Y0090063D01*
X0459910Y0090141D01*
X0460062Y0090215D01*
X0460216Y0090286D01*
X0460371Y0090353D01*
X0460528Y0090415D01*
X0460687Y0090474D01*
X0460847Y0090529D01*
X0461008Y0090580D01*
X0461170Y0090627D01*
X0461334Y0090671D01*
X0461498Y0090710D01*
X0461664Y0090745D01*
X0461830Y0090776D01*
X0461997Y0090802D01*
X0462165Y0090825D01*
X0462333Y0090844D01*
X0462501Y0090858D01*
X0462670Y0090869D01*
X0462839Y0090875D01*
X0463008Y0090877D01*
X0463177Y0090875D01*
X0463346Y0090869D01*
X0463515Y0090858D01*
X0463683Y0090844D01*
X0463851Y0090825D01*
X0464019Y0090802D01*
X0464186Y0090776D01*
X0464352Y0090745D01*
X0464518Y0090710D01*
X0464682Y0090671D01*
X0464846Y0090627D01*
X0465008Y0090580D01*
X0465169Y0090529D01*
X0465329Y0090474D01*
X0465488Y0090415D01*
X0465645Y0090353D01*
X0465800Y0090286D01*
X0465954Y0090215D01*
X0466106Y0090141D01*
X0466256Y0090063D01*
X0466404Y0089982D01*
X0466550Y0089897D01*
X0466694Y0089808D01*
X0466836Y0089716D01*
X0466975Y0089620D01*
X0467112Y0089521D01*
X0467247Y0089419D01*
X0467379Y0089313D01*
X0467508Y0089204D01*
X0467635Y0089092D01*
X0467759Y0088977D01*
X0467880Y0088859D01*
X0467998Y0088738D01*
X0468113Y0088614D01*
X0468225Y0088487D01*
X0468334Y0088358D01*
X0468440Y0088226D01*
X0468542Y0088091D01*
X0468641Y0087954D01*
X0468737Y0087815D01*
X0468829Y0087673D01*
X0468918Y0087529D01*
X0469003Y0087383D01*
X0469084Y0087235D01*
X0469162Y0087085D01*
X0469236Y0086933D01*
X0469307Y0086779D01*
X0469374Y0086624D01*
X0469436Y0086467D01*
X0469495Y0086308D01*
X0469550Y0086148D01*
X0469601Y0085987D01*
X0469648Y0085825D01*
X0469692Y0085661D01*
X0469731Y0085497D01*
X0469766Y0085331D01*
X0469797Y0085165D01*
X0469823Y0084998D01*
X0469846Y0084830D01*
X0469865Y0084662D01*
X0469879Y0084494D01*
X0469890Y0084325D01*
X0469896Y0084156D01*
X0469898Y0083987D01*
X0469896Y0083818D01*
X0469890Y0083649D01*
X0469879Y0083480D01*
X0469865Y0083312D01*
X0469846Y0083144D01*
X0469823Y0082976D01*
X0469797Y0082809D01*
X0469766Y0082643D01*
X0469731Y0082477D01*
X0469692Y0082313D01*
X0469648Y0082149D01*
X0469601Y0081987D01*
X0469550Y0081826D01*
X0469495Y0081666D01*
X0469436Y0081507D01*
X0469374Y0081350D01*
X0469307Y0081195D01*
X0469236Y0081041D01*
X0469162Y0080889D01*
X0469084Y0080739D01*
X0469003Y0080591D01*
X0468918Y0080445D01*
X0468829Y0080301D01*
X0468737Y0080159D01*
X0468641Y0080020D01*
X0468542Y0079883D01*
X0468440Y0079748D01*
X0468334Y0079616D01*
X0468225Y0079487D01*
X0468113Y0079360D01*
X0467998Y0079236D01*
X0467880Y0079115D01*
X0467759Y0078997D01*
X0467635Y0078882D01*
X0467508Y0078770D01*
X0467379Y0078661D01*
X0467247Y0078555D01*
X0467112Y0078453D01*
X0466975Y0078354D01*
X0466836Y0078258D01*
X0466694Y0078166D01*
X0466550Y0078077D01*
X0466404Y0077992D01*
X0466256Y0077911D01*
X0466106Y0077833D01*
X0465954Y0077759D01*
X0465800Y0077688D01*
X0465645Y0077621D01*
X0465488Y0077559D01*
X0465329Y0077500D01*
X0465169Y0077445D01*
X0465008Y0077394D01*
X0464846Y0077347D01*
X0464682Y0077303D01*
X0464518Y0077264D01*
X0464352Y0077229D01*
X0464186Y0077198D01*
X0464019Y0077172D01*
X0463851Y0077149D01*
X0463683Y0077130D01*
X0463515Y0077116D01*
X0463346Y0077105D01*
X0463177Y0077099D01*
X0463008Y0077097D01*
X0462839Y0077099D01*
X0462670Y0077105D01*
X0462501Y0077116D01*
X0462333Y0077130D01*
X0462165Y0077149D01*
X0461997Y0077172D01*
X0461830Y0077198D01*
X0461664Y0077229D01*
X0461498Y0077264D01*
X0461334Y0077303D01*
X0461170Y0077347D01*
X0461008Y0077394D01*
X0460847Y0077445D01*
X0460687Y0077500D01*
X0460528Y0077559D01*
X0460371Y0077621D01*
X0460216Y0077688D01*
X0460062Y0077759D01*
X0459910Y0077833D01*
X0459760Y0077911D01*
X0459612Y0077992D01*
X0459466Y0078077D01*
X0459322Y0078166D01*
X0459180Y0078258D01*
X0459041Y0078354D01*
X0458904Y0078453D01*
X0458769Y0078555D01*
X0458637Y0078661D01*
X0458508Y0078770D01*
X0458381Y0078882D01*
X0458257Y0078997D01*
X0458136Y0079115D01*
X0458018Y0079236D01*
X0457903Y0079360D01*
X0457791Y0079487D01*
X0457682Y0079616D01*
X0457576Y0079748D01*
X0457474Y0079883D01*
X0457375Y0080020D01*
X0457279Y0080159D01*
X0457187Y0080301D01*
X0457098Y0080445D01*
X0457013Y0080591D01*
X0456932Y0080739D01*
X0456854Y0080889D01*
X0456780Y0081041D01*
X0456709Y0081195D01*
X0456642Y0081350D01*
X0456580Y0081507D01*
X0456521Y0081666D01*
X0456466Y0081826D01*
X0456415Y0081987D01*
X0456368Y0082149D01*
X0456324Y0082313D01*
X0456285Y0082477D01*
X0456250Y0082643D01*
X0456219Y0082809D01*
X0456193Y0082976D01*
X0456170Y0083144D01*
X0456151Y0083312D01*
X0456137Y0083480D01*
X0456126Y0083649D01*
X0456120Y0083818D01*
X0456118Y0083987D01*
X0130953Y0094802D02*
X0130953Y0073148D01*
X0122685Y0071770D02*
X0114811Y0071770D01*
X0106543Y0073148D02*
X0106543Y0094802D01*
X0114811Y0096180D02*
X0122685Y0096180D01*
X0111858Y0083975D02*
X0111860Y0084144D01*
X0111866Y0084313D01*
X0111877Y0084482D01*
X0111891Y0084650D01*
X0111910Y0084818D01*
X0111933Y0084986D01*
X0111959Y0085153D01*
X0111990Y0085319D01*
X0112025Y0085485D01*
X0112064Y0085649D01*
X0112108Y0085813D01*
X0112155Y0085975D01*
X0112206Y0086136D01*
X0112261Y0086296D01*
X0112320Y0086455D01*
X0112382Y0086612D01*
X0112449Y0086767D01*
X0112520Y0086921D01*
X0112594Y0087073D01*
X0112672Y0087223D01*
X0112753Y0087371D01*
X0112838Y0087517D01*
X0112927Y0087661D01*
X0113019Y0087803D01*
X0113115Y0087942D01*
X0113214Y0088079D01*
X0113316Y0088214D01*
X0113422Y0088346D01*
X0113531Y0088475D01*
X0113643Y0088602D01*
X0113758Y0088726D01*
X0113876Y0088847D01*
X0113997Y0088965D01*
X0114121Y0089080D01*
X0114248Y0089192D01*
X0114377Y0089301D01*
X0114509Y0089407D01*
X0114644Y0089509D01*
X0114781Y0089608D01*
X0114920Y0089704D01*
X0115062Y0089796D01*
X0115206Y0089885D01*
X0115352Y0089970D01*
X0115500Y0090051D01*
X0115650Y0090129D01*
X0115802Y0090203D01*
X0115956Y0090274D01*
X0116111Y0090341D01*
X0116268Y0090403D01*
X0116427Y0090462D01*
X0116587Y0090517D01*
X0116748Y0090568D01*
X0116910Y0090615D01*
X0117074Y0090659D01*
X0117238Y0090698D01*
X0117404Y0090733D01*
X0117570Y0090764D01*
X0117737Y0090790D01*
X0117905Y0090813D01*
X0118073Y0090832D01*
X0118241Y0090846D01*
X0118410Y0090857D01*
X0118579Y0090863D01*
X0118748Y0090865D01*
X0118917Y0090863D01*
X0119086Y0090857D01*
X0119255Y0090846D01*
X0119423Y0090832D01*
X0119591Y0090813D01*
X0119759Y0090790D01*
X0119926Y0090764D01*
X0120092Y0090733D01*
X0120258Y0090698D01*
X0120422Y0090659D01*
X0120586Y0090615D01*
X0120748Y0090568D01*
X0120909Y0090517D01*
X0121069Y0090462D01*
X0121228Y0090403D01*
X0121385Y0090341D01*
X0121540Y0090274D01*
X0121694Y0090203D01*
X0121846Y0090129D01*
X0121996Y0090051D01*
X0122144Y0089970D01*
X0122290Y0089885D01*
X0122434Y0089796D01*
X0122576Y0089704D01*
X0122715Y0089608D01*
X0122852Y0089509D01*
X0122987Y0089407D01*
X0123119Y0089301D01*
X0123248Y0089192D01*
X0123375Y0089080D01*
X0123499Y0088965D01*
X0123620Y0088847D01*
X0123738Y0088726D01*
X0123853Y0088602D01*
X0123965Y0088475D01*
X0124074Y0088346D01*
X0124180Y0088214D01*
X0124282Y0088079D01*
X0124381Y0087942D01*
X0124477Y0087803D01*
X0124569Y0087661D01*
X0124658Y0087517D01*
X0124743Y0087371D01*
X0124824Y0087223D01*
X0124902Y0087073D01*
X0124976Y0086921D01*
X0125047Y0086767D01*
X0125114Y0086612D01*
X0125176Y0086455D01*
X0125235Y0086296D01*
X0125290Y0086136D01*
X0125341Y0085975D01*
X0125388Y0085813D01*
X0125432Y0085649D01*
X0125471Y0085485D01*
X0125506Y0085319D01*
X0125537Y0085153D01*
X0125563Y0084986D01*
X0125586Y0084818D01*
X0125605Y0084650D01*
X0125619Y0084482D01*
X0125630Y0084313D01*
X0125636Y0084144D01*
X0125638Y0083975D01*
X0125636Y0083806D01*
X0125630Y0083637D01*
X0125619Y0083468D01*
X0125605Y0083300D01*
X0125586Y0083132D01*
X0125563Y0082964D01*
X0125537Y0082797D01*
X0125506Y0082631D01*
X0125471Y0082465D01*
X0125432Y0082301D01*
X0125388Y0082137D01*
X0125341Y0081975D01*
X0125290Y0081814D01*
X0125235Y0081654D01*
X0125176Y0081495D01*
X0125114Y0081338D01*
X0125047Y0081183D01*
X0124976Y0081029D01*
X0124902Y0080877D01*
X0124824Y0080727D01*
X0124743Y0080579D01*
X0124658Y0080433D01*
X0124569Y0080289D01*
X0124477Y0080147D01*
X0124381Y0080008D01*
X0124282Y0079871D01*
X0124180Y0079736D01*
X0124074Y0079604D01*
X0123965Y0079475D01*
X0123853Y0079348D01*
X0123738Y0079224D01*
X0123620Y0079103D01*
X0123499Y0078985D01*
X0123375Y0078870D01*
X0123248Y0078758D01*
X0123119Y0078649D01*
X0122987Y0078543D01*
X0122852Y0078441D01*
X0122715Y0078342D01*
X0122576Y0078246D01*
X0122434Y0078154D01*
X0122290Y0078065D01*
X0122144Y0077980D01*
X0121996Y0077899D01*
X0121846Y0077821D01*
X0121694Y0077747D01*
X0121540Y0077676D01*
X0121385Y0077609D01*
X0121228Y0077547D01*
X0121069Y0077488D01*
X0120909Y0077433D01*
X0120748Y0077382D01*
X0120586Y0077335D01*
X0120422Y0077291D01*
X0120258Y0077252D01*
X0120092Y0077217D01*
X0119926Y0077186D01*
X0119759Y0077160D01*
X0119591Y0077137D01*
X0119423Y0077118D01*
X0119255Y0077104D01*
X0119086Y0077093D01*
X0118917Y0077087D01*
X0118748Y0077085D01*
X0118579Y0077087D01*
X0118410Y0077093D01*
X0118241Y0077104D01*
X0118073Y0077118D01*
X0117905Y0077137D01*
X0117737Y0077160D01*
X0117570Y0077186D01*
X0117404Y0077217D01*
X0117238Y0077252D01*
X0117074Y0077291D01*
X0116910Y0077335D01*
X0116748Y0077382D01*
X0116587Y0077433D01*
X0116427Y0077488D01*
X0116268Y0077547D01*
X0116111Y0077609D01*
X0115956Y0077676D01*
X0115802Y0077747D01*
X0115650Y0077821D01*
X0115500Y0077899D01*
X0115352Y0077980D01*
X0115206Y0078065D01*
X0115062Y0078154D01*
X0114920Y0078246D01*
X0114781Y0078342D01*
X0114644Y0078441D01*
X0114509Y0078543D01*
X0114377Y0078649D01*
X0114248Y0078758D01*
X0114121Y0078870D01*
X0113997Y0078985D01*
X0113876Y0079103D01*
X0113758Y0079224D01*
X0113643Y0079348D01*
X0113531Y0079475D01*
X0113422Y0079604D01*
X0113316Y0079736D01*
X0113214Y0079871D01*
X0113115Y0080008D01*
X0113019Y0080147D01*
X0112927Y0080289D01*
X0112838Y0080433D01*
X0112753Y0080579D01*
X0112672Y0080727D01*
X0112594Y0080877D01*
X0112520Y0081029D01*
X0112449Y0081183D01*
X0112382Y0081338D01*
X0112320Y0081495D01*
X0112261Y0081654D01*
X0112206Y0081814D01*
X0112155Y0081975D01*
X0112108Y0082137D01*
X0112064Y0082301D01*
X0112025Y0082465D01*
X0111990Y0082631D01*
X0111959Y0082797D01*
X0111933Y0082964D01*
X0111910Y0083132D01*
X0111891Y0083300D01*
X0111877Y0083468D01*
X0111866Y0083637D01*
X0111860Y0083806D01*
X0111858Y0083975D01*
X0114813Y0129988D02*
X0106939Y0129988D01*
X0098671Y0131365D02*
X0098671Y0153019D01*
X0106939Y0154397D02*
X0114813Y0154397D01*
X0123080Y0153019D02*
X0123080Y0131365D01*
X0103986Y0142192D02*
X0103988Y0142361D01*
X0103994Y0142530D01*
X0104005Y0142699D01*
X0104019Y0142867D01*
X0104038Y0143035D01*
X0104061Y0143203D01*
X0104087Y0143370D01*
X0104118Y0143536D01*
X0104153Y0143702D01*
X0104192Y0143866D01*
X0104236Y0144030D01*
X0104283Y0144192D01*
X0104334Y0144353D01*
X0104389Y0144513D01*
X0104448Y0144672D01*
X0104510Y0144829D01*
X0104577Y0144984D01*
X0104648Y0145138D01*
X0104722Y0145290D01*
X0104800Y0145440D01*
X0104881Y0145588D01*
X0104966Y0145734D01*
X0105055Y0145878D01*
X0105147Y0146020D01*
X0105243Y0146159D01*
X0105342Y0146296D01*
X0105444Y0146431D01*
X0105550Y0146563D01*
X0105659Y0146692D01*
X0105771Y0146819D01*
X0105886Y0146943D01*
X0106004Y0147064D01*
X0106125Y0147182D01*
X0106249Y0147297D01*
X0106376Y0147409D01*
X0106505Y0147518D01*
X0106637Y0147624D01*
X0106772Y0147726D01*
X0106909Y0147825D01*
X0107048Y0147921D01*
X0107190Y0148013D01*
X0107334Y0148102D01*
X0107480Y0148187D01*
X0107628Y0148268D01*
X0107778Y0148346D01*
X0107930Y0148420D01*
X0108084Y0148491D01*
X0108239Y0148558D01*
X0108396Y0148620D01*
X0108555Y0148679D01*
X0108715Y0148734D01*
X0108876Y0148785D01*
X0109038Y0148832D01*
X0109202Y0148876D01*
X0109366Y0148915D01*
X0109532Y0148950D01*
X0109698Y0148981D01*
X0109865Y0149007D01*
X0110033Y0149030D01*
X0110201Y0149049D01*
X0110369Y0149063D01*
X0110538Y0149074D01*
X0110707Y0149080D01*
X0110876Y0149082D01*
X0111045Y0149080D01*
X0111214Y0149074D01*
X0111383Y0149063D01*
X0111551Y0149049D01*
X0111719Y0149030D01*
X0111887Y0149007D01*
X0112054Y0148981D01*
X0112220Y0148950D01*
X0112386Y0148915D01*
X0112550Y0148876D01*
X0112714Y0148832D01*
X0112876Y0148785D01*
X0113037Y0148734D01*
X0113197Y0148679D01*
X0113356Y0148620D01*
X0113513Y0148558D01*
X0113668Y0148491D01*
X0113822Y0148420D01*
X0113974Y0148346D01*
X0114124Y0148268D01*
X0114272Y0148187D01*
X0114418Y0148102D01*
X0114562Y0148013D01*
X0114704Y0147921D01*
X0114843Y0147825D01*
X0114980Y0147726D01*
X0115115Y0147624D01*
X0115247Y0147518D01*
X0115376Y0147409D01*
X0115503Y0147297D01*
X0115627Y0147182D01*
X0115748Y0147064D01*
X0115866Y0146943D01*
X0115981Y0146819D01*
X0116093Y0146692D01*
X0116202Y0146563D01*
X0116308Y0146431D01*
X0116410Y0146296D01*
X0116509Y0146159D01*
X0116605Y0146020D01*
X0116697Y0145878D01*
X0116786Y0145734D01*
X0116871Y0145588D01*
X0116952Y0145440D01*
X0117030Y0145290D01*
X0117104Y0145138D01*
X0117175Y0144984D01*
X0117242Y0144829D01*
X0117304Y0144672D01*
X0117363Y0144513D01*
X0117418Y0144353D01*
X0117469Y0144192D01*
X0117516Y0144030D01*
X0117560Y0143866D01*
X0117599Y0143702D01*
X0117634Y0143536D01*
X0117665Y0143370D01*
X0117691Y0143203D01*
X0117714Y0143035D01*
X0117733Y0142867D01*
X0117747Y0142699D01*
X0117758Y0142530D01*
X0117764Y0142361D01*
X0117766Y0142192D01*
X0117764Y0142023D01*
X0117758Y0141854D01*
X0117747Y0141685D01*
X0117733Y0141517D01*
X0117714Y0141349D01*
X0117691Y0141181D01*
X0117665Y0141014D01*
X0117634Y0140848D01*
X0117599Y0140682D01*
X0117560Y0140518D01*
X0117516Y0140354D01*
X0117469Y0140192D01*
X0117418Y0140031D01*
X0117363Y0139871D01*
X0117304Y0139712D01*
X0117242Y0139555D01*
X0117175Y0139400D01*
X0117104Y0139246D01*
X0117030Y0139094D01*
X0116952Y0138944D01*
X0116871Y0138796D01*
X0116786Y0138650D01*
X0116697Y0138506D01*
X0116605Y0138364D01*
X0116509Y0138225D01*
X0116410Y0138088D01*
X0116308Y0137953D01*
X0116202Y0137821D01*
X0116093Y0137692D01*
X0115981Y0137565D01*
X0115866Y0137441D01*
X0115748Y0137320D01*
X0115627Y0137202D01*
X0115503Y0137087D01*
X0115376Y0136975D01*
X0115247Y0136866D01*
X0115115Y0136760D01*
X0114980Y0136658D01*
X0114843Y0136559D01*
X0114704Y0136463D01*
X0114562Y0136371D01*
X0114418Y0136282D01*
X0114272Y0136197D01*
X0114124Y0136116D01*
X0113974Y0136038D01*
X0113822Y0135964D01*
X0113668Y0135893D01*
X0113513Y0135826D01*
X0113356Y0135764D01*
X0113197Y0135705D01*
X0113037Y0135650D01*
X0112876Y0135599D01*
X0112714Y0135552D01*
X0112550Y0135508D01*
X0112386Y0135469D01*
X0112220Y0135434D01*
X0112054Y0135403D01*
X0111887Y0135377D01*
X0111719Y0135354D01*
X0111551Y0135335D01*
X0111383Y0135321D01*
X0111214Y0135310D01*
X0111045Y0135304D01*
X0110876Y0135302D01*
X0110707Y0135304D01*
X0110538Y0135310D01*
X0110369Y0135321D01*
X0110201Y0135335D01*
X0110033Y0135354D01*
X0109865Y0135377D01*
X0109698Y0135403D01*
X0109532Y0135434D01*
X0109366Y0135469D01*
X0109202Y0135508D01*
X0109038Y0135552D01*
X0108876Y0135599D01*
X0108715Y0135650D01*
X0108555Y0135705D01*
X0108396Y0135764D01*
X0108239Y0135826D01*
X0108084Y0135893D01*
X0107930Y0135964D01*
X0107778Y0136038D01*
X0107628Y0136116D01*
X0107480Y0136197D01*
X0107334Y0136282D01*
X0107190Y0136371D01*
X0107048Y0136463D01*
X0106909Y0136559D01*
X0106772Y0136658D01*
X0106637Y0136760D01*
X0106505Y0136866D01*
X0106376Y0136975D01*
X0106249Y0137087D01*
X0106125Y0137202D01*
X0106004Y0137320D01*
X0105886Y0137441D01*
X0105771Y0137565D01*
X0105659Y0137692D01*
X0105550Y0137821D01*
X0105444Y0137953D01*
X0105342Y0138088D01*
X0105243Y0138225D01*
X0105147Y0138364D01*
X0105055Y0138506D01*
X0104966Y0138650D01*
X0104881Y0138796D01*
X0104800Y0138944D01*
X0104722Y0139094D01*
X0104648Y0139246D01*
X0104577Y0139400D01*
X0104510Y0139555D01*
X0104448Y0139712D01*
X0104389Y0139871D01*
X0104334Y0140031D01*
X0104283Y0140192D01*
X0104236Y0140354D01*
X0104192Y0140518D01*
X0104153Y0140682D01*
X0104118Y0140848D01*
X0104087Y0141014D01*
X0104061Y0141181D01*
X0104038Y0141349D01*
X0104019Y0141517D01*
X0104005Y0141685D01*
X0103994Y0141854D01*
X0103988Y0142023D01*
X0103986Y0142192D01*
D289*
X0126076Y0139298D02*
X0126076Y0137763D01*
X0126843Y0136996D01*
X0127610Y0136996D01*
X0128378Y0137763D01*
X0128378Y0139298D01*
X0127610Y0140065D01*
X0126843Y0140065D01*
X0126076Y0139298D01*
X0128378Y0139298D02*
X0129145Y0140065D01*
X0129912Y0140065D01*
X0130680Y0139298D01*
X0130680Y0137763D01*
X0129912Y0136996D01*
X0129145Y0136996D01*
X0128378Y0137763D01*
X0127610Y0135462D02*
X0126843Y0135462D01*
X0126076Y0134694D01*
X0126076Y0133160D01*
X0126843Y0132392D01*
X0128378Y0133160D02*
X0128378Y0134694D01*
X0127610Y0135462D01*
X0129912Y0135462D02*
X0130680Y0134694D01*
X0130680Y0133160D01*
X0129912Y0132392D01*
X0129145Y0132392D01*
X0128378Y0133160D01*
X0103552Y0092640D02*
X0102785Y0091106D01*
X0101250Y0089571D01*
X0101250Y0091873D01*
X0100483Y0092640D01*
X0099715Y0092640D01*
X0098948Y0091873D01*
X0098948Y0090338D01*
X0099715Y0089571D01*
X0101250Y0089571D01*
X0100483Y0088036D02*
X0099715Y0088036D01*
X0098948Y0087269D01*
X0098948Y0085734D01*
X0099715Y0084967D01*
X0101250Y0085734D02*
X0101250Y0087269D01*
X0100483Y0088036D01*
X0102785Y0088036D02*
X0103552Y0087269D01*
X0103552Y0085734D01*
X0102785Y0084967D01*
X0102017Y0084967D01*
X0101250Y0085734D01*
X0268658Y0214391D02*
X0269425Y0213624D01*
X0270959Y0213624D01*
X0271727Y0214391D01*
X0268658Y0217460D01*
X0268658Y0214391D01*
X0271727Y0214391D02*
X0271727Y0217460D01*
X0270959Y0218228D01*
X0269425Y0218228D01*
X0268658Y0217460D01*
X0273261Y0217460D02*
X0274029Y0218228D01*
X0276331Y0218228D01*
X0276331Y0213624D01*
X0274029Y0213624D01*
X0273261Y0214391D01*
X0273261Y0217460D01*
X0277865Y0218228D02*
X0280935Y0218228D01*
X0280935Y0213624D01*
X0277865Y0213624D01*
X0279400Y0215926D02*
X0280935Y0215926D01*
X0282469Y0213624D02*
X0285539Y0213624D01*
X0285539Y0218228D01*
X0301827Y0213608D02*
X0304896Y0213608D01*
X0303361Y0213608D02*
X0303361Y0218212D01*
X0304896Y0216677D01*
X0306431Y0217445D02*
X0307198Y0218212D01*
X0309500Y0218212D01*
X0309500Y0213608D01*
X0307198Y0213608D01*
X0306431Y0214375D01*
X0306431Y0217445D01*
X0311035Y0218212D02*
X0314104Y0218212D01*
X0314104Y0213608D01*
X0311035Y0213608D01*
X0312569Y0215910D02*
X0314104Y0215910D01*
X0315639Y0213608D02*
X0318708Y0213608D01*
X0318708Y0218212D01*
X0451826Y0138323D02*
X0454895Y0141392D01*
X0455662Y0141392D01*
X0455662Y0138323D01*
X0454895Y0136788D02*
X0455662Y0136021D01*
X0455662Y0134486D01*
X0454895Y0133719D01*
X0454128Y0133719D01*
X0453360Y0134486D01*
X0453360Y0136021D01*
X0452593Y0136788D01*
X0451826Y0136788D01*
X0451058Y0136021D01*
X0451058Y0134486D01*
X0451826Y0133719D01*
X0451826Y0138323D02*
X0451058Y0138323D01*
X0477833Y0087140D02*
X0477066Y0086373D01*
X0477066Y0084838D01*
X0477833Y0084071D01*
X0477833Y0082536D02*
X0477066Y0081769D01*
X0477066Y0080234D01*
X0477833Y0079467D01*
X0479368Y0080234D02*
X0479368Y0081769D01*
X0478601Y0082536D01*
X0477833Y0082536D01*
X0479368Y0084071D02*
X0480135Y0085606D01*
X0480135Y0086373D01*
X0479368Y0087140D01*
X0477833Y0087140D01*
X0479368Y0084071D02*
X0481670Y0084071D01*
X0481670Y0087140D01*
X0480903Y0082536D02*
X0481670Y0081769D01*
X0481670Y0080234D01*
X0480903Y0079467D01*
X0480135Y0079467D01*
X0479368Y0080234D01*
D290*
X0305984Y0220908D03*
X0272815Y0220924D03*
M02*
