G75*
%MOIN*%
%OFA0B0*%
%FSLAX25Y25*%
%IPPOS*%
%LPD*%
%AMOC8*
5,1,8,0,0,1.08239X$1,22.5*
%
%ADD10C,0.00100*%
%ADD11R,0.02400X0.04400*%
%ADD12R,0.04900X0.04400*%
%ADD13C,0.00975*%
%ADD14C,0.03900*%
%ADD15C,0.10000*%
%ADD16R,0.09400X0.04900*%
%ADD17R,0.01975X0.05124*%
%ADD18R,0.06400X0.03400*%
%ADD19R,0.06400X0.04400*%
%ADD20R,0.08400X0.06400*%
%ADD21R,0.06400X0.06400*%
%ADD22C,0.00000*%
%ADD23C,0.01100*%
%ADD24R,0.03400X0.02400*%
%ADD25R,0.05900X0.05900*%
%ADD26R,0.02762X0.01975*%
%ADD27R,0.02762X0.02369*%
%ADD28C,0.03200*%
%ADD29R,0.06400X0.12400*%
%ADD30R,0.12400X0.06400*%
%ADD31R,0.05512X0.01575*%
%ADD32R,0.09252X0.07480*%
%ADD33R,0.04337X0.04731*%
%ADD34C,0.07800*%
D10*
X0091780Y0019562D02*
X0091780Y0219467D01*
X0091794Y0219705D01*
X0091814Y0219942D01*
X0091839Y0220179D01*
X0091871Y0220416D01*
X0091907Y0220651D01*
X0091950Y0220886D01*
X0091998Y0221119D01*
X0092052Y0221352D01*
X0092112Y0221582D01*
X0092177Y0221812D01*
X0092248Y0222040D01*
X0092324Y0222266D01*
X0092405Y0222490D01*
X0092492Y0222712D01*
X0092584Y0222932D01*
X0092682Y0223149D01*
X0092785Y0223364D01*
X0092893Y0223577D01*
X0093006Y0223787D01*
X0093124Y0223994D01*
X0093247Y0224198D01*
X0093375Y0224399D01*
X0093508Y0224597D01*
X0093645Y0224792D01*
X0093787Y0224984D01*
X0093934Y0225172D01*
X0094085Y0225356D01*
X0094241Y0225536D01*
X0094401Y0225713D01*
X0094565Y0225886D01*
X0094734Y0226055D01*
X0094906Y0226220D01*
X0095082Y0226380D01*
X0095263Y0226536D01*
X0095446Y0226688D01*
X0095634Y0226836D01*
X0095825Y0226978D01*
X0096019Y0227116D01*
X0096217Y0227250D01*
X0096418Y0227378D01*
X0096622Y0227502D01*
X0096828Y0227621D01*
X0097038Y0227734D01*
X0097250Y0227843D01*
X0097465Y0227946D01*
X0097683Y0228044D01*
X0097902Y0228137D01*
X0098124Y0228225D01*
X0098348Y0228307D01*
X0098573Y0228384D01*
X0098801Y0228455D01*
X0099030Y0228521D01*
X0099261Y0228581D01*
X0099493Y0228635D01*
X0099726Y0228684D01*
X0099961Y0228728D01*
X0100196Y0228765D01*
X0100433Y0228797D01*
X0100670Y0228824D01*
X0100907Y0228844D01*
X0101145Y0228859D01*
X0101383Y0228868D01*
X0101622Y0228871D01*
X0101860Y0228868D01*
X0102099Y0228860D01*
X0102098Y0228861D02*
X0476594Y0228861D01*
X0476836Y0228858D01*
X0477077Y0228849D01*
X0477318Y0228835D01*
X0477559Y0228814D01*
X0477799Y0228788D01*
X0478039Y0228756D01*
X0478278Y0228718D01*
X0478515Y0228675D01*
X0478752Y0228625D01*
X0478987Y0228570D01*
X0479221Y0228510D01*
X0479453Y0228443D01*
X0479684Y0228372D01*
X0479913Y0228294D01*
X0480140Y0228211D01*
X0480365Y0228123D01*
X0480588Y0228029D01*
X0480808Y0227930D01*
X0481026Y0227825D01*
X0481241Y0227716D01*
X0481454Y0227601D01*
X0481664Y0227481D01*
X0481870Y0227356D01*
X0482074Y0227226D01*
X0482275Y0227091D01*
X0482472Y0226951D01*
X0482666Y0226807D01*
X0482856Y0226658D01*
X0483042Y0226504D01*
X0483225Y0226346D01*
X0483404Y0226184D01*
X0483579Y0226017D01*
X0483750Y0225846D01*
X0483917Y0225671D01*
X0484079Y0225492D01*
X0484237Y0225309D01*
X0484391Y0225123D01*
X0484540Y0224933D01*
X0484684Y0224739D01*
X0484824Y0224542D01*
X0484959Y0224341D01*
X0485089Y0224137D01*
X0485214Y0223931D01*
X0485334Y0223721D01*
X0485449Y0223508D01*
X0485558Y0223293D01*
X0485663Y0223075D01*
X0485762Y0222855D01*
X0485856Y0222632D01*
X0485944Y0222407D01*
X0486027Y0222180D01*
X0486105Y0221951D01*
X0486176Y0221720D01*
X0486243Y0221488D01*
X0486303Y0221254D01*
X0486358Y0221019D01*
X0486408Y0220782D01*
X0486451Y0220545D01*
X0486489Y0220306D01*
X0486521Y0220066D01*
X0486547Y0219826D01*
X0486568Y0219585D01*
X0486582Y0219344D01*
X0486591Y0219103D01*
X0486594Y0218861D01*
X0486594Y0017955D01*
X0486591Y0017713D01*
X0486582Y0017472D01*
X0486568Y0017231D01*
X0486547Y0016990D01*
X0486521Y0016750D01*
X0486489Y0016510D01*
X0486451Y0016271D01*
X0486408Y0016034D01*
X0486358Y0015797D01*
X0486303Y0015562D01*
X0486243Y0015328D01*
X0486176Y0015096D01*
X0486105Y0014865D01*
X0486027Y0014636D01*
X0485944Y0014409D01*
X0485856Y0014184D01*
X0485762Y0013961D01*
X0485663Y0013741D01*
X0485558Y0013523D01*
X0485449Y0013308D01*
X0485334Y0013095D01*
X0485214Y0012885D01*
X0485089Y0012679D01*
X0484959Y0012475D01*
X0484824Y0012274D01*
X0484684Y0012077D01*
X0484540Y0011883D01*
X0484391Y0011693D01*
X0484237Y0011507D01*
X0484079Y0011324D01*
X0483917Y0011145D01*
X0483750Y0010970D01*
X0483579Y0010799D01*
X0483404Y0010632D01*
X0483225Y0010470D01*
X0483042Y0010312D01*
X0482856Y0010158D01*
X0482666Y0010009D01*
X0482472Y0009865D01*
X0482275Y0009725D01*
X0482074Y0009590D01*
X0481870Y0009460D01*
X0481664Y0009335D01*
X0481454Y0009215D01*
X0481241Y0009100D01*
X0481026Y0008991D01*
X0480808Y0008886D01*
X0480588Y0008787D01*
X0480365Y0008693D01*
X0480140Y0008605D01*
X0479913Y0008522D01*
X0479684Y0008444D01*
X0479453Y0008373D01*
X0479221Y0008306D01*
X0478987Y0008246D01*
X0478752Y0008191D01*
X0478515Y0008141D01*
X0478278Y0008098D01*
X0478039Y0008060D01*
X0477799Y0008028D01*
X0477559Y0008002D01*
X0477318Y0007981D01*
X0477077Y0007967D01*
X0476836Y0007958D01*
X0476594Y0007955D01*
X0395677Y0007562D01*
X0396496Y0007562D01*
X0395677Y0007562D02*
X0212150Y0007562D01*
X0107780Y0007562D01*
X0107441Y0007518D01*
X0107101Y0007482D01*
X0106761Y0007454D01*
X0106419Y0007434D01*
X0106078Y0007423D01*
X0105736Y0007420D01*
X0105394Y0007425D01*
X0105053Y0007439D01*
X0104712Y0007460D01*
X0104371Y0007490D01*
X0104032Y0007528D01*
X0103693Y0007575D01*
X0103356Y0007629D01*
X0103020Y0007692D01*
X0102686Y0007763D01*
X0102353Y0007841D01*
X0102023Y0007928D01*
X0101694Y0008023D01*
X0101368Y0008126D01*
X0101045Y0008236D01*
X0100724Y0008355D01*
X0100407Y0008481D01*
X0100092Y0008614D01*
X0099781Y0008756D01*
X0099473Y0008904D01*
X0099169Y0009060D01*
X0098869Y0009224D01*
X0098573Y0009394D01*
X0098281Y0009572D01*
X0097993Y0009757D01*
X0097710Y0009948D01*
X0097432Y0010147D01*
X0097159Y0010352D01*
X0096890Y0010563D01*
X0096627Y0010781D01*
X0096369Y0011006D01*
X0096117Y0011236D01*
X0095870Y0011473D01*
X0095629Y0011715D01*
X0095394Y0011963D01*
X0095166Y0012217D01*
X0094943Y0012476D01*
X0094726Y0012741D01*
X0094517Y0013010D01*
X0094313Y0013285D01*
X0094117Y0013565D01*
X0093927Y0013849D01*
X0093744Y0014137D01*
X0093568Y0014430D01*
X0093399Y0014728D01*
X0093238Y0015029D01*
X0093083Y0015334D01*
X0092937Y0015642D01*
X0092797Y0015954D01*
X0092666Y0016270D01*
X0092542Y0016588D01*
X0092425Y0016910D01*
X0092317Y0017234D01*
X0092216Y0017560D01*
X0092123Y0017889D01*
X0092039Y0018220D01*
X0091962Y0018553D01*
X0091893Y0018888D01*
X0091833Y0019224D01*
X0091780Y0019562D01*
X0431008Y0029924D02*
X0438966Y0029886D01*
X0431008Y0029924D02*
X0431008Y0122424D01*
X0439008Y0122424D01*
X0439148Y0122421D01*
X0439288Y0122414D01*
X0439428Y0122403D01*
X0439567Y0122388D01*
X0439706Y0122369D01*
X0439844Y0122347D01*
X0439982Y0122320D01*
X0440119Y0122290D01*
X0440255Y0122255D01*
X0440390Y0122218D01*
X0440524Y0122176D01*
X0440656Y0122130D01*
X0440787Y0122081D01*
X0440917Y0122028D01*
X0441046Y0121972D01*
X0441172Y0121912D01*
X0441297Y0121848D01*
X0441420Y0121781D01*
X0441542Y0121711D01*
X0441661Y0121637D01*
X0441778Y0121559D01*
X0441893Y0121479D01*
X0442005Y0121395D01*
X0442115Y0121309D01*
X0442223Y0121219D01*
X0442328Y0121126D01*
X0442430Y0121030D01*
X0442530Y0120932D01*
X0442627Y0120831D01*
X0442721Y0120727D01*
X0442812Y0120620D01*
X0442900Y0120511D01*
X0442985Y0120400D01*
X0443067Y0120286D01*
X0443146Y0120170D01*
X0443221Y0120051D01*
X0443293Y0119931D01*
X0443361Y0119809D01*
X0443427Y0119685D01*
X0443488Y0119559D01*
X0443546Y0119431D01*
X0443601Y0119302D01*
X0443651Y0119171D01*
X0443699Y0119039D01*
X0443742Y0118906D01*
X0443782Y0118771D01*
X0443817Y0118636D01*
X0443849Y0118499D01*
X0443878Y0118362D01*
X0443902Y0118224D01*
X0443922Y0118085D01*
X0443939Y0117946D01*
X0443951Y0117806D01*
X0443960Y0117667D01*
X0443965Y0117526D01*
X0443966Y0117386D01*
X0443966Y0034886D01*
X0443964Y0034746D01*
X0443958Y0034606D01*
X0443948Y0034466D01*
X0443935Y0034326D01*
X0443917Y0034187D01*
X0443895Y0034048D01*
X0443870Y0033911D01*
X0443841Y0033773D01*
X0443808Y0033637D01*
X0443771Y0033502D01*
X0443730Y0033368D01*
X0443685Y0033235D01*
X0443637Y0033103D01*
X0443585Y0032973D01*
X0443530Y0032844D01*
X0443471Y0032717D01*
X0443408Y0032591D01*
X0443342Y0032467D01*
X0443273Y0032346D01*
X0443200Y0032226D01*
X0443123Y0032108D01*
X0443044Y0031993D01*
X0442961Y0031879D01*
X0442875Y0031769D01*
X0442786Y0031660D01*
X0442694Y0031554D01*
X0442599Y0031451D01*
X0442502Y0031350D01*
X0442401Y0031253D01*
X0442298Y0031158D01*
X0442192Y0031066D01*
X0442083Y0030977D01*
X0441973Y0030891D01*
X0441859Y0030808D01*
X0441744Y0030729D01*
X0441626Y0030652D01*
X0441506Y0030579D01*
X0441385Y0030510D01*
X0441261Y0030444D01*
X0441135Y0030381D01*
X0441008Y0030322D01*
X0440879Y0030267D01*
X0440749Y0030215D01*
X0440617Y0030167D01*
X0440484Y0030122D01*
X0440350Y0030081D01*
X0440215Y0030044D01*
X0440079Y0030011D01*
X0439941Y0029982D01*
X0439804Y0029957D01*
X0439665Y0029935D01*
X0439526Y0029917D01*
X0439386Y0029904D01*
X0439246Y0029894D01*
X0439106Y0029888D01*
X0438966Y0029886D01*
D11*
X0270848Y0161524D03*
X0267108Y0161524D03*
X0263368Y0161524D03*
X0263368Y0170524D03*
X0267108Y0170524D03*
X0270848Y0170524D03*
D12*
X0330608Y0173524D03*
X0338608Y0170024D03*
X0345608Y0174024D03*
X0353608Y0177524D03*
X0360608Y0181024D03*
X0368608Y0177524D03*
X0360608Y0174024D03*
X0345608Y0181024D03*
X0338608Y0185024D03*
X0330608Y0188524D03*
X0330608Y0181524D03*
X0330608Y0166524D03*
X0368108Y0156024D03*
X0376108Y0152524D03*
X0368108Y0149024D03*
X0368108Y0141024D03*
X0376108Y0137524D03*
X0368108Y0134024D03*
X0273608Y0073524D03*
X0281608Y0070024D03*
X0273608Y0066524D03*
X0256608Y0056024D03*
X0264608Y0052524D03*
X0256608Y0049024D03*
X0305108Y0047524D03*
X0313108Y0051024D03*
X0305108Y0054524D03*
D13*
X0300071Y0053561D02*
X0297145Y0053561D01*
X0297145Y0056487D01*
X0300071Y0056487D01*
X0300071Y0053561D01*
X0300071Y0054535D02*
X0297145Y0054535D01*
X0297145Y0055509D02*
X0300071Y0055509D01*
X0300071Y0056483D02*
X0297145Y0056483D01*
X0294071Y0053561D02*
X0291145Y0053561D01*
X0291145Y0056487D01*
X0294071Y0056487D01*
X0294071Y0053561D01*
X0294071Y0054535D02*
X0291145Y0054535D01*
X0291145Y0055509D02*
X0294071Y0055509D01*
X0294071Y0056483D02*
X0291145Y0056483D01*
X0282571Y0056487D02*
X0279645Y0056487D01*
X0282571Y0056487D02*
X0282571Y0053561D01*
X0279645Y0053561D01*
X0279645Y0056487D01*
X0279645Y0054535D02*
X0282571Y0054535D01*
X0282571Y0055509D02*
X0279645Y0055509D01*
X0279645Y0056483D02*
X0282571Y0056483D01*
X0276571Y0056487D02*
X0273645Y0056487D01*
X0276571Y0056487D02*
X0276571Y0053561D01*
X0273645Y0053561D01*
X0273645Y0056487D01*
X0273645Y0054535D02*
X0276571Y0054535D01*
X0276571Y0055509D02*
X0273645Y0055509D01*
X0273645Y0056483D02*
X0276571Y0056483D01*
X0268571Y0065561D02*
X0268571Y0068487D01*
X0268571Y0065561D02*
X0265645Y0065561D01*
X0265645Y0068487D01*
X0268571Y0068487D01*
X0268571Y0066535D02*
X0265645Y0066535D01*
X0265645Y0067509D02*
X0268571Y0067509D01*
X0268571Y0068483D02*
X0265645Y0068483D01*
X0262071Y0068487D02*
X0262071Y0065561D01*
X0259145Y0065561D01*
X0259145Y0068487D01*
X0262071Y0068487D01*
X0262071Y0066535D02*
X0259145Y0066535D01*
X0259145Y0067509D02*
X0262071Y0067509D01*
X0262071Y0068483D02*
X0259145Y0068483D01*
X0262071Y0071561D02*
X0262071Y0074487D01*
X0262071Y0071561D02*
X0259145Y0071561D01*
X0259145Y0074487D01*
X0262071Y0074487D01*
X0262071Y0072535D02*
X0259145Y0072535D01*
X0259145Y0073509D02*
X0262071Y0073509D01*
X0262071Y0074483D02*
X0259145Y0074483D01*
X0268571Y0074487D02*
X0268571Y0071561D01*
X0265645Y0071561D01*
X0265645Y0074487D01*
X0268571Y0074487D01*
X0268571Y0072535D02*
X0265645Y0072535D01*
X0265645Y0073509D02*
X0268571Y0073509D01*
X0268571Y0074483D02*
X0265645Y0074483D01*
X0246071Y0074487D02*
X0246071Y0071561D01*
X0243145Y0071561D01*
X0243145Y0074487D01*
X0246071Y0074487D01*
X0246071Y0072535D02*
X0243145Y0072535D01*
X0243145Y0073509D02*
X0246071Y0073509D01*
X0246071Y0074483D02*
X0243145Y0074483D01*
X0239571Y0074487D02*
X0239571Y0071561D01*
X0236645Y0071561D01*
X0236645Y0074487D01*
X0239571Y0074487D01*
X0239571Y0072535D02*
X0236645Y0072535D01*
X0236645Y0073509D02*
X0239571Y0073509D01*
X0239571Y0074483D02*
X0236645Y0074483D01*
X0229145Y0074487D02*
X0229145Y0071561D01*
X0229145Y0074487D02*
X0232071Y0074487D01*
X0232071Y0071561D01*
X0229145Y0071561D01*
X0229145Y0072535D02*
X0232071Y0072535D01*
X0232071Y0073509D02*
X0229145Y0073509D01*
X0229145Y0074483D02*
X0232071Y0074483D01*
X0224571Y0074487D02*
X0224571Y0071561D01*
X0221645Y0071561D01*
X0221645Y0074487D01*
X0224571Y0074487D01*
X0224571Y0072535D02*
X0221645Y0072535D01*
X0221645Y0073509D02*
X0224571Y0073509D01*
X0224571Y0074483D02*
X0221645Y0074483D01*
X0224571Y0068487D02*
X0224571Y0065561D01*
X0221645Y0065561D01*
X0221645Y0068487D01*
X0224571Y0068487D01*
X0224571Y0066535D02*
X0221645Y0066535D01*
X0221645Y0067509D02*
X0224571Y0067509D01*
X0224571Y0068483D02*
X0221645Y0068483D01*
X0229145Y0068487D02*
X0229145Y0065561D01*
X0229145Y0068487D02*
X0232071Y0068487D01*
X0232071Y0065561D01*
X0229145Y0065561D01*
X0229145Y0066535D02*
X0232071Y0066535D01*
X0232071Y0067509D02*
X0229145Y0067509D01*
X0229145Y0068483D02*
X0232071Y0068483D01*
X0239571Y0068487D02*
X0239571Y0065561D01*
X0236645Y0065561D01*
X0236645Y0068487D01*
X0239571Y0068487D01*
X0239571Y0066535D02*
X0236645Y0066535D01*
X0236645Y0067509D02*
X0239571Y0067509D01*
X0239571Y0068483D02*
X0236645Y0068483D01*
X0246071Y0068487D02*
X0246071Y0065561D01*
X0243145Y0065561D01*
X0243145Y0068487D01*
X0246071Y0068487D01*
X0246071Y0066535D02*
X0243145Y0066535D01*
X0243145Y0067509D02*
X0246071Y0067509D01*
X0246071Y0068483D02*
X0243145Y0068483D01*
X0236645Y0056987D02*
X0236645Y0054061D01*
X0236645Y0056987D02*
X0239571Y0056987D01*
X0239571Y0054061D01*
X0236645Y0054061D01*
X0236645Y0055035D02*
X0239571Y0055035D01*
X0239571Y0056009D02*
X0236645Y0056009D01*
X0236645Y0056983D02*
X0239571Y0056983D01*
X0236645Y0050987D02*
X0236645Y0048061D01*
X0236645Y0050987D02*
X0239571Y0050987D01*
X0239571Y0048061D01*
X0236645Y0048061D01*
X0236645Y0049035D02*
X0239571Y0049035D01*
X0239571Y0050009D02*
X0236645Y0050009D01*
X0236645Y0050983D02*
X0239571Y0050983D01*
X0289571Y0065561D02*
X0289571Y0068487D01*
X0289571Y0065561D02*
X0286645Y0065561D01*
X0286645Y0068487D01*
X0289571Y0068487D01*
X0289571Y0066535D02*
X0286645Y0066535D01*
X0286645Y0067509D02*
X0289571Y0067509D01*
X0289571Y0068483D02*
X0286645Y0068483D01*
X0289571Y0071561D02*
X0289571Y0074487D01*
X0289571Y0071561D02*
X0286645Y0071561D01*
X0286645Y0074487D01*
X0289571Y0074487D01*
X0289571Y0072535D02*
X0286645Y0072535D01*
X0286645Y0073509D02*
X0289571Y0073509D01*
X0289571Y0074483D02*
X0286645Y0074483D01*
X0300071Y0100561D02*
X0300071Y0103487D01*
X0300071Y0100561D02*
X0297145Y0100561D01*
X0297145Y0103487D01*
X0300071Y0103487D01*
X0300071Y0101535D02*
X0297145Y0101535D01*
X0297145Y0102509D02*
X0300071Y0102509D01*
X0300071Y0103483D02*
X0297145Y0103483D01*
X0300071Y0106561D02*
X0300071Y0109487D01*
X0300071Y0106561D02*
X0297145Y0106561D01*
X0297145Y0109487D01*
X0300071Y0109487D01*
X0300071Y0107535D02*
X0297145Y0107535D01*
X0297145Y0108509D02*
X0300071Y0108509D01*
X0300071Y0109483D02*
X0297145Y0109483D01*
X0304645Y0109487D02*
X0304645Y0106561D01*
X0304645Y0109487D02*
X0307571Y0109487D01*
X0307571Y0106561D01*
X0304645Y0106561D01*
X0304645Y0107535D02*
X0307571Y0107535D01*
X0307571Y0108509D02*
X0304645Y0108509D01*
X0304645Y0109483D02*
X0307571Y0109483D01*
X0315071Y0109487D02*
X0315071Y0106561D01*
X0312145Y0106561D01*
X0312145Y0109487D01*
X0315071Y0109487D01*
X0315071Y0107535D02*
X0312145Y0107535D01*
X0312145Y0108509D02*
X0315071Y0108509D01*
X0315071Y0109483D02*
X0312145Y0109483D01*
X0315071Y0103487D02*
X0315071Y0100561D01*
X0312145Y0100561D01*
X0312145Y0103487D01*
X0315071Y0103487D01*
X0315071Y0101535D02*
X0312145Y0101535D01*
X0312145Y0102509D02*
X0315071Y0102509D01*
X0315071Y0103483D02*
X0312145Y0103483D01*
X0304645Y0103487D02*
X0304645Y0100561D01*
X0304645Y0103487D02*
X0307571Y0103487D01*
X0307571Y0100561D01*
X0304645Y0100561D01*
X0304645Y0101535D02*
X0307571Y0101535D01*
X0307571Y0102509D02*
X0304645Y0102509D01*
X0304645Y0103483D02*
X0307571Y0103483D01*
X0303445Y0118361D02*
X0303445Y0121287D01*
X0306371Y0121287D01*
X0306371Y0118361D01*
X0303445Y0118361D01*
X0303445Y0119335D02*
X0306371Y0119335D01*
X0306371Y0120309D02*
X0303445Y0120309D01*
X0303445Y0121283D02*
X0306371Y0121283D01*
X0309445Y0121287D02*
X0309445Y0118361D01*
X0309445Y0121287D02*
X0312371Y0121287D01*
X0312371Y0118361D01*
X0309445Y0118361D01*
X0309445Y0119335D02*
X0312371Y0119335D01*
X0312371Y0120309D02*
X0309445Y0120309D01*
X0309445Y0121283D02*
X0312371Y0121283D01*
X0309445Y0124361D02*
X0309445Y0127287D01*
X0312371Y0127287D01*
X0312371Y0124361D01*
X0309445Y0124361D01*
X0309445Y0125335D02*
X0312371Y0125335D01*
X0312371Y0126309D02*
X0309445Y0126309D01*
X0309445Y0127283D02*
X0312371Y0127283D01*
X0303445Y0127287D02*
X0303445Y0124361D01*
X0303445Y0127287D02*
X0306371Y0127287D01*
X0306371Y0124361D01*
X0303445Y0124361D01*
X0303445Y0125335D02*
X0306371Y0125335D01*
X0306371Y0126309D02*
X0303445Y0126309D01*
X0303445Y0127283D02*
X0306371Y0127283D01*
X0307645Y0141061D02*
X0310571Y0141061D01*
X0307645Y0141061D02*
X0307645Y0143987D01*
X0310571Y0143987D01*
X0310571Y0141061D01*
X0310571Y0142035D02*
X0307645Y0142035D01*
X0307645Y0143009D02*
X0310571Y0143009D01*
X0310571Y0143983D02*
X0307645Y0143983D01*
X0313645Y0141061D02*
X0316571Y0141061D01*
X0313645Y0141061D02*
X0313645Y0143987D01*
X0316571Y0143987D01*
X0316571Y0141061D01*
X0316571Y0142035D02*
X0313645Y0142035D01*
X0313645Y0143009D02*
X0316571Y0143009D01*
X0316571Y0143983D02*
X0313645Y0143983D01*
X0276571Y0143987D02*
X0273645Y0143987D01*
X0276571Y0143987D02*
X0276571Y0141061D01*
X0273645Y0141061D01*
X0273645Y0143987D01*
X0273645Y0142035D02*
X0276571Y0142035D01*
X0276571Y0143009D02*
X0273645Y0143009D01*
X0273645Y0143983D02*
X0276571Y0143983D01*
X0270571Y0143987D02*
X0267645Y0143987D01*
X0270571Y0143987D02*
X0270571Y0141061D01*
X0267645Y0141061D01*
X0267645Y0143987D01*
X0267645Y0142035D02*
X0270571Y0142035D01*
X0270571Y0143009D02*
X0267645Y0143009D01*
X0267645Y0143983D02*
X0270571Y0143983D01*
X0259071Y0143987D02*
X0256145Y0143987D01*
X0259071Y0143987D02*
X0259071Y0141061D01*
X0256145Y0141061D01*
X0256145Y0143987D01*
X0256145Y0142035D02*
X0259071Y0142035D01*
X0259071Y0143009D02*
X0256145Y0143009D01*
X0256145Y0143983D02*
X0259071Y0143983D01*
X0253071Y0143987D02*
X0250145Y0143987D01*
X0253071Y0143987D02*
X0253071Y0141061D01*
X0250145Y0141061D01*
X0250145Y0143987D01*
X0250145Y0142035D02*
X0253071Y0142035D01*
X0253071Y0143009D02*
X0250145Y0143009D01*
X0250145Y0143983D02*
X0253071Y0143983D01*
X0243071Y0146061D02*
X0240145Y0146061D01*
X0240145Y0148987D01*
X0243071Y0148987D01*
X0243071Y0146061D01*
X0243071Y0147035D02*
X0240145Y0147035D01*
X0240145Y0148009D02*
X0243071Y0148009D01*
X0243071Y0148983D02*
X0240145Y0148983D01*
X0237071Y0146061D02*
X0234145Y0146061D01*
X0234145Y0148987D01*
X0237071Y0148987D01*
X0237071Y0146061D01*
X0237071Y0147035D02*
X0234145Y0147035D01*
X0234145Y0148009D02*
X0237071Y0148009D01*
X0237071Y0148983D02*
X0234145Y0148983D01*
X0227571Y0148987D02*
X0224645Y0148987D01*
X0227571Y0148987D02*
X0227571Y0146061D01*
X0224645Y0146061D01*
X0224645Y0148987D01*
X0224645Y0147035D02*
X0227571Y0147035D01*
X0227571Y0148009D02*
X0224645Y0148009D01*
X0224645Y0148983D02*
X0227571Y0148983D01*
X0221571Y0148987D02*
X0218645Y0148987D01*
X0221571Y0148987D02*
X0221571Y0146061D01*
X0218645Y0146061D01*
X0218645Y0148987D01*
X0218645Y0147035D02*
X0221571Y0147035D01*
X0221571Y0148009D02*
X0218645Y0148009D01*
X0218645Y0148983D02*
X0221571Y0148983D01*
X0246645Y0161061D02*
X0249571Y0161061D01*
X0246645Y0161061D02*
X0246645Y0163987D01*
X0249571Y0163987D01*
X0249571Y0161061D01*
X0249571Y0162035D02*
X0246645Y0162035D01*
X0246645Y0163009D02*
X0249571Y0163009D01*
X0249571Y0163983D02*
X0246645Y0163983D01*
X0252645Y0161061D02*
X0255571Y0161061D01*
X0252645Y0161061D02*
X0252645Y0163987D01*
X0255571Y0163987D01*
X0255571Y0161061D01*
X0255571Y0162035D02*
X0252645Y0162035D01*
X0252645Y0163009D02*
X0255571Y0163009D01*
X0255571Y0163983D02*
X0252645Y0163983D01*
X0252645Y0168561D02*
X0255571Y0168561D01*
X0252645Y0168561D02*
X0252645Y0171487D01*
X0255571Y0171487D01*
X0255571Y0168561D01*
X0255571Y0169535D02*
X0252645Y0169535D01*
X0252645Y0170509D02*
X0255571Y0170509D01*
X0255571Y0171483D02*
X0252645Y0171483D01*
X0249571Y0168561D02*
X0246645Y0168561D01*
X0246645Y0171487D01*
X0249571Y0171487D01*
X0249571Y0168561D01*
X0249571Y0169535D02*
X0246645Y0169535D01*
X0246645Y0170509D02*
X0249571Y0170509D01*
X0249571Y0171483D02*
X0246645Y0171483D01*
X0243571Y0185561D02*
X0243571Y0188487D01*
X0243571Y0185561D02*
X0240645Y0185561D01*
X0240645Y0188487D01*
X0243571Y0188487D01*
X0243571Y0186535D02*
X0240645Y0186535D01*
X0240645Y0187509D02*
X0243571Y0187509D01*
X0243571Y0188483D02*
X0240645Y0188483D01*
X0243571Y0191561D02*
X0243571Y0194487D01*
X0243571Y0191561D02*
X0240645Y0191561D01*
X0240645Y0194487D01*
X0243571Y0194487D01*
X0243571Y0192535D02*
X0240645Y0192535D01*
X0240645Y0193509D02*
X0243571Y0193509D01*
X0243571Y0194483D02*
X0240645Y0194483D01*
X0237071Y0194487D02*
X0237071Y0191561D01*
X0234145Y0191561D01*
X0234145Y0194487D01*
X0237071Y0194487D01*
X0237071Y0192535D02*
X0234145Y0192535D01*
X0234145Y0193509D02*
X0237071Y0193509D01*
X0237071Y0194483D02*
X0234145Y0194483D01*
X0230571Y0194487D02*
X0230571Y0191561D01*
X0227645Y0191561D01*
X0227645Y0194487D01*
X0230571Y0194487D01*
X0230571Y0192535D02*
X0227645Y0192535D01*
X0227645Y0193509D02*
X0230571Y0193509D01*
X0230571Y0194483D02*
X0227645Y0194483D01*
X0221145Y0194487D02*
X0221145Y0191561D01*
X0221145Y0194487D02*
X0224071Y0194487D01*
X0224071Y0191561D01*
X0221145Y0191561D01*
X0221145Y0192535D02*
X0224071Y0192535D01*
X0224071Y0193509D02*
X0221145Y0193509D01*
X0221145Y0194483D02*
X0224071Y0194483D01*
X0221145Y0188487D02*
X0221145Y0185561D01*
X0221145Y0188487D02*
X0224071Y0188487D01*
X0224071Y0185561D01*
X0221145Y0185561D01*
X0221145Y0186535D02*
X0224071Y0186535D01*
X0224071Y0187509D02*
X0221145Y0187509D01*
X0221145Y0188483D02*
X0224071Y0188483D01*
X0230571Y0188487D02*
X0230571Y0185561D01*
X0227645Y0185561D01*
X0227645Y0188487D01*
X0230571Y0188487D01*
X0230571Y0186535D02*
X0227645Y0186535D01*
X0227645Y0187509D02*
X0230571Y0187509D01*
X0230571Y0188483D02*
X0227645Y0188483D01*
X0237071Y0188487D02*
X0237071Y0185561D01*
X0234145Y0185561D01*
X0234145Y0188487D01*
X0237071Y0188487D01*
X0237071Y0186535D02*
X0234145Y0186535D01*
X0234145Y0187509D02*
X0237071Y0187509D01*
X0237071Y0188483D02*
X0234145Y0188483D01*
X0277645Y0171487D02*
X0280571Y0171487D01*
X0280571Y0168561D01*
X0277645Y0168561D01*
X0277645Y0171487D01*
X0277645Y0169535D02*
X0280571Y0169535D01*
X0280571Y0170509D02*
X0277645Y0170509D01*
X0277645Y0171483D02*
X0280571Y0171483D01*
X0283645Y0171487D02*
X0286571Y0171487D01*
X0286571Y0168561D01*
X0283645Y0168561D01*
X0283645Y0171487D01*
X0283645Y0169535D02*
X0286571Y0169535D01*
X0286571Y0170509D02*
X0283645Y0170509D01*
X0283645Y0171483D02*
X0286571Y0171483D01*
X0286571Y0162061D02*
X0283645Y0162061D01*
X0283645Y0164987D01*
X0286571Y0164987D01*
X0286571Y0162061D01*
X0286571Y0163035D02*
X0283645Y0163035D01*
X0283645Y0164009D02*
X0286571Y0164009D01*
X0286571Y0164983D02*
X0283645Y0164983D01*
X0280571Y0162061D02*
X0277645Y0162061D01*
X0277645Y0164987D01*
X0280571Y0164987D01*
X0280571Y0162061D01*
X0280571Y0163035D02*
X0277645Y0163035D01*
X0277645Y0164009D02*
X0280571Y0164009D01*
X0280571Y0164983D02*
X0277645Y0164983D01*
X0312645Y0182061D02*
X0315571Y0182061D01*
X0312645Y0182061D02*
X0312645Y0184987D01*
X0315571Y0184987D01*
X0315571Y0182061D01*
X0315571Y0183035D02*
X0312645Y0183035D01*
X0312645Y0184009D02*
X0315571Y0184009D01*
X0315571Y0184983D02*
X0312645Y0184983D01*
X0318645Y0182061D02*
X0321571Y0182061D01*
X0318645Y0182061D02*
X0318645Y0184987D01*
X0321571Y0184987D01*
X0321571Y0182061D01*
X0321571Y0183035D02*
X0318645Y0183035D01*
X0318645Y0184009D02*
X0321571Y0184009D01*
X0321571Y0184983D02*
X0318645Y0184983D01*
X0318645Y0188061D02*
X0321571Y0188061D01*
X0318645Y0188061D02*
X0318645Y0190987D01*
X0321571Y0190987D01*
X0321571Y0188061D01*
X0321571Y0189035D02*
X0318645Y0189035D01*
X0318645Y0190009D02*
X0321571Y0190009D01*
X0321571Y0190983D02*
X0318645Y0190983D01*
X0315571Y0188061D02*
X0312645Y0188061D01*
X0312645Y0190987D01*
X0315571Y0190987D01*
X0315571Y0188061D01*
X0315571Y0189035D02*
X0312645Y0189035D01*
X0312645Y0190009D02*
X0315571Y0190009D01*
X0315571Y0190983D02*
X0312645Y0190983D01*
X0345145Y0191487D02*
X0348071Y0191487D01*
X0348071Y0188561D01*
X0345145Y0188561D01*
X0345145Y0191487D01*
X0345145Y0189535D02*
X0348071Y0189535D01*
X0348071Y0190509D02*
X0345145Y0190509D01*
X0345145Y0191483D02*
X0348071Y0191483D01*
X0351145Y0191487D02*
X0354071Y0191487D01*
X0354071Y0188561D01*
X0351145Y0188561D01*
X0351145Y0191487D01*
X0351145Y0189535D02*
X0354071Y0189535D01*
X0354071Y0190509D02*
X0351145Y0190509D01*
X0351145Y0191483D02*
X0354071Y0191483D01*
X0357645Y0191487D02*
X0360571Y0191487D01*
X0360571Y0188561D01*
X0357645Y0188561D01*
X0357645Y0191487D01*
X0357645Y0189535D02*
X0360571Y0189535D01*
X0360571Y0190509D02*
X0357645Y0190509D01*
X0357645Y0191483D02*
X0360571Y0191483D01*
X0363645Y0191487D02*
X0366571Y0191487D01*
X0366571Y0188561D01*
X0363645Y0188561D01*
X0363645Y0191487D01*
X0363645Y0189535D02*
X0366571Y0189535D01*
X0366571Y0190509D02*
X0363645Y0190509D01*
X0363645Y0191483D02*
X0366571Y0191483D01*
X0354071Y0168987D02*
X0351145Y0168987D01*
X0354071Y0168987D02*
X0354071Y0166061D01*
X0351145Y0166061D01*
X0351145Y0168987D01*
X0351145Y0167035D02*
X0354071Y0167035D01*
X0354071Y0168009D02*
X0351145Y0168009D01*
X0351145Y0168983D02*
X0354071Y0168983D01*
X0348071Y0168987D02*
X0345145Y0168987D01*
X0348071Y0168987D02*
X0348071Y0166061D01*
X0345145Y0166061D01*
X0345145Y0168987D01*
X0345145Y0167035D02*
X0348071Y0167035D01*
X0348071Y0168009D02*
X0345145Y0168009D01*
X0345145Y0168983D02*
X0348071Y0168983D01*
X0353571Y0156987D02*
X0353571Y0154061D01*
X0350645Y0154061D01*
X0350645Y0156987D01*
X0353571Y0156987D01*
X0353571Y0155035D02*
X0350645Y0155035D01*
X0350645Y0156009D02*
X0353571Y0156009D01*
X0353571Y0156983D02*
X0350645Y0156983D01*
X0361071Y0156987D02*
X0361071Y0154061D01*
X0358145Y0154061D01*
X0358145Y0156987D01*
X0361071Y0156987D01*
X0361071Y0155035D02*
X0358145Y0155035D01*
X0358145Y0156009D02*
X0361071Y0156009D01*
X0361071Y0156983D02*
X0358145Y0156983D01*
X0361071Y0150987D02*
X0361071Y0148061D01*
X0358145Y0148061D01*
X0358145Y0150987D01*
X0361071Y0150987D01*
X0361071Y0149035D02*
X0358145Y0149035D01*
X0358145Y0150009D02*
X0361071Y0150009D01*
X0361071Y0150983D02*
X0358145Y0150983D01*
X0353571Y0150987D02*
X0353571Y0148061D01*
X0350645Y0148061D01*
X0350645Y0150987D01*
X0353571Y0150987D01*
X0353571Y0149035D02*
X0350645Y0149035D01*
X0350645Y0150009D02*
X0353571Y0150009D01*
X0353571Y0150983D02*
X0350645Y0150983D01*
X0350645Y0141987D02*
X0350645Y0139061D01*
X0350645Y0141987D02*
X0353571Y0141987D01*
X0353571Y0139061D01*
X0350645Y0139061D01*
X0350645Y0140035D02*
X0353571Y0140035D01*
X0353571Y0141009D02*
X0350645Y0141009D01*
X0350645Y0141983D02*
X0353571Y0141983D01*
X0361071Y0141987D02*
X0361071Y0139061D01*
X0358145Y0139061D01*
X0358145Y0141987D01*
X0361071Y0141987D01*
X0361071Y0140035D02*
X0358145Y0140035D01*
X0358145Y0141009D02*
X0361071Y0141009D01*
X0361071Y0141983D02*
X0358145Y0141983D01*
X0361071Y0135987D02*
X0361071Y0133061D01*
X0358145Y0133061D01*
X0358145Y0135987D01*
X0361071Y0135987D01*
X0361071Y0134035D02*
X0358145Y0134035D01*
X0358145Y0135009D02*
X0361071Y0135009D01*
X0361071Y0135983D02*
X0358145Y0135983D01*
X0350645Y0135987D02*
X0350645Y0133061D01*
X0350645Y0135987D02*
X0353571Y0135987D01*
X0353571Y0133061D01*
X0350645Y0133061D01*
X0350645Y0134035D02*
X0353571Y0134035D01*
X0353571Y0135009D02*
X0350645Y0135009D01*
X0350645Y0135983D02*
X0353571Y0135983D01*
X0376345Y0117061D02*
X0379271Y0117061D01*
X0376345Y0117061D02*
X0376345Y0119987D01*
X0379271Y0119987D01*
X0379271Y0117061D01*
X0379271Y0118035D02*
X0376345Y0118035D01*
X0376345Y0119009D02*
X0379271Y0119009D01*
X0379271Y0119983D02*
X0376345Y0119983D01*
X0382345Y0117061D02*
X0385271Y0117061D01*
X0382345Y0117061D02*
X0382345Y0119987D01*
X0385271Y0119987D01*
X0385271Y0117061D01*
X0385271Y0118035D02*
X0382345Y0118035D01*
X0382345Y0119009D02*
X0385271Y0119009D01*
X0385271Y0119983D02*
X0382345Y0119983D01*
X0350971Y0056487D02*
X0348045Y0056487D01*
X0350971Y0056487D02*
X0350971Y0053561D01*
X0348045Y0053561D01*
X0348045Y0056487D01*
X0348045Y0054535D02*
X0350971Y0054535D01*
X0350971Y0055509D02*
X0348045Y0055509D01*
X0348045Y0056483D02*
X0350971Y0056483D01*
X0344971Y0056487D02*
X0342045Y0056487D01*
X0344971Y0056487D02*
X0344971Y0053561D01*
X0342045Y0053561D01*
X0342045Y0056487D01*
X0342045Y0054535D02*
X0344971Y0054535D01*
X0344971Y0055509D02*
X0342045Y0055509D01*
X0342045Y0056483D02*
X0344971Y0056483D01*
X0344971Y0047061D02*
X0342045Y0047061D01*
X0342045Y0049987D01*
X0344971Y0049987D01*
X0344971Y0047061D01*
X0344971Y0048035D02*
X0342045Y0048035D01*
X0342045Y0049009D02*
X0344971Y0049009D01*
X0344971Y0049983D02*
X0342045Y0049983D01*
X0348045Y0047061D02*
X0350971Y0047061D01*
X0348045Y0047061D02*
X0348045Y0049987D01*
X0350971Y0049987D01*
X0350971Y0047061D01*
X0350971Y0048035D02*
X0348045Y0048035D01*
X0348045Y0049009D02*
X0350971Y0049009D01*
X0350971Y0049983D02*
X0348045Y0049983D01*
X0300071Y0048987D02*
X0297145Y0048987D01*
X0300071Y0048987D02*
X0300071Y0046061D01*
X0297145Y0046061D01*
X0297145Y0048987D01*
X0297145Y0047035D02*
X0300071Y0047035D01*
X0300071Y0048009D02*
X0297145Y0048009D01*
X0297145Y0048983D02*
X0300071Y0048983D01*
X0294071Y0048987D02*
X0291145Y0048987D01*
X0294071Y0048987D02*
X0294071Y0046061D01*
X0291145Y0046061D01*
X0291145Y0048987D01*
X0291145Y0047035D02*
X0294071Y0047035D01*
X0294071Y0048009D02*
X0291145Y0048009D01*
X0291145Y0048983D02*
X0294071Y0048983D01*
X0434771Y0022387D02*
X0434771Y0019461D01*
X0431845Y0019461D01*
X0431845Y0022387D01*
X0434771Y0022387D01*
X0434771Y0020435D02*
X0431845Y0020435D01*
X0431845Y0021409D02*
X0434771Y0021409D01*
X0434771Y0022383D02*
X0431845Y0022383D01*
X0441271Y0022387D02*
X0441271Y0019461D01*
X0438345Y0019461D01*
X0438345Y0022387D01*
X0441271Y0022387D01*
X0441271Y0020435D02*
X0438345Y0020435D01*
X0438345Y0021409D02*
X0441271Y0021409D01*
X0441271Y0022383D02*
X0438345Y0022383D01*
X0441271Y0016387D02*
X0441271Y0013461D01*
X0438345Y0013461D01*
X0438345Y0016387D01*
X0441271Y0016387D01*
X0441271Y0014435D02*
X0438345Y0014435D01*
X0438345Y0015409D02*
X0441271Y0015409D01*
X0441271Y0016383D02*
X0438345Y0016383D01*
X0434771Y0016387D02*
X0434771Y0013461D01*
X0431845Y0013461D01*
X0431845Y0016387D01*
X0434771Y0016387D01*
X0434771Y0014435D02*
X0431845Y0014435D01*
X0431845Y0015409D02*
X0434771Y0015409D01*
X0434771Y0016383D02*
X0431845Y0016383D01*
X0431671Y0183261D02*
X0431671Y0186187D01*
X0431671Y0183261D02*
X0428745Y0183261D01*
X0428745Y0186187D01*
X0431671Y0186187D01*
X0431671Y0184235D02*
X0428745Y0184235D01*
X0428745Y0185209D02*
X0431671Y0185209D01*
X0431671Y0186183D02*
X0428745Y0186183D01*
X0431671Y0189261D02*
X0431671Y0192187D01*
X0431671Y0189261D02*
X0428745Y0189261D01*
X0428745Y0192187D01*
X0431671Y0192187D01*
X0431671Y0190235D02*
X0428745Y0190235D01*
X0428745Y0191209D02*
X0431671Y0191209D01*
X0431671Y0192183D02*
X0428745Y0192183D01*
X0445871Y0192187D02*
X0445871Y0189261D01*
X0442945Y0189261D01*
X0442945Y0192187D01*
X0445871Y0192187D01*
X0445871Y0190235D02*
X0442945Y0190235D01*
X0442945Y0191209D02*
X0445871Y0191209D01*
X0445871Y0192183D02*
X0442945Y0192183D01*
X0445871Y0186187D02*
X0445871Y0183261D01*
X0442945Y0183261D01*
X0442945Y0186187D01*
X0445871Y0186187D01*
X0445871Y0184235D02*
X0442945Y0184235D01*
X0442945Y0185209D02*
X0445871Y0185209D01*
X0445871Y0186183D02*
X0442945Y0186183D01*
X0460071Y0186187D02*
X0460071Y0183261D01*
X0457145Y0183261D01*
X0457145Y0186187D01*
X0460071Y0186187D01*
X0460071Y0184235D02*
X0457145Y0184235D01*
X0457145Y0185209D02*
X0460071Y0185209D01*
X0460071Y0186183D02*
X0457145Y0186183D01*
X0460071Y0189261D02*
X0460071Y0192187D01*
X0460071Y0189261D02*
X0457145Y0189261D01*
X0457145Y0192187D01*
X0460071Y0192187D01*
X0460071Y0190235D02*
X0457145Y0190235D01*
X0457145Y0191209D02*
X0460071Y0191209D01*
X0460071Y0192183D02*
X0457145Y0192183D01*
X0474271Y0192187D02*
X0474271Y0189261D01*
X0471345Y0189261D01*
X0471345Y0192187D01*
X0474271Y0192187D01*
X0474271Y0190235D02*
X0471345Y0190235D01*
X0471345Y0191209D02*
X0474271Y0191209D01*
X0474271Y0192183D02*
X0471345Y0192183D01*
X0474271Y0186187D02*
X0474271Y0183261D01*
X0471345Y0183261D01*
X0471345Y0186187D01*
X0474271Y0186187D01*
X0474271Y0184235D02*
X0471345Y0184235D01*
X0471345Y0185209D02*
X0474271Y0185209D01*
X0474271Y0186183D02*
X0471345Y0186183D01*
D14*
X0402108Y0162524D03*
X0392108Y0162524D03*
X0392108Y0152524D03*
X0402108Y0152524D03*
X0402108Y0142524D03*
X0392108Y0142524D03*
X0392108Y0132524D03*
X0402108Y0132524D03*
X0247608Y0152024D03*
X0167694Y0087760D03*
X0167694Y0056264D03*
D15*
X0479608Y0017524D03*
X0217108Y0212524D03*
D16*
X0227608Y0058274D03*
X0227608Y0046774D03*
D17*
X0269234Y0111008D03*
X0271990Y0111008D03*
X0274549Y0111008D03*
X0277108Y0111008D03*
X0279667Y0111008D03*
X0282226Y0111008D03*
X0284982Y0111008D03*
X0284982Y0134040D03*
X0282226Y0134040D03*
X0279667Y0134040D03*
X0277108Y0134040D03*
X0274549Y0134040D03*
X0271990Y0134040D03*
X0269234Y0134040D03*
X0239982Y0156008D03*
X0237226Y0156008D03*
X0234667Y0156008D03*
X0232108Y0156008D03*
X0229549Y0156008D03*
X0226990Y0156008D03*
X0224234Y0156008D03*
X0224234Y0179040D03*
X0226990Y0179040D03*
X0229549Y0179040D03*
X0232108Y0179040D03*
X0234667Y0179040D03*
X0237226Y0179040D03*
X0239982Y0179040D03*
D18*
X0210608Y0094847D03*
X0210608Y0090516D03*
X0210608Y0086185D03*
X0210608Y0081854D03*
X0210608Y0077524D03*
X0210608Y0073193D03*
X0210608Y0068862D03*
X0210608Y0064532D03*
X0210608Y0060201D03*
D19*
X0208246Y0100146D03*
D20*
X0169769Y0098784D03*
X0169769Y0038154D03*
D21*
X0209065Y0041378D03*
D22*
X0165944Y0056264D02*
X0165946Y0056347D01*
X0165952Y0056430D01*
X0165962Y0056513D01*
X0165976Y0056595D01*
X0165993Y0056677D01*
X0166015Y0056757D01*
X0166040Y0056836D01*
X0166069Y0056914D01*
X0166102Y0056991D01*
X0166139Y0057066D01*
X0166178Y0057139D01*
X0166222Y0057210D01*
X0166268Y0057279D01*
X0166318Y0057346D01*
X0166371Y0057410D01*
X0166427Y0057472D01*
X0166486Y0057531D01*
X0166548Y0057587D01*
X0166612Y0057640D01*
X0166679Y0057690D01*
X0166748Y0057736D01*
X0166819Y0057780D01*
X0166892Y0057819D01*
X0166967Y0057856D01*
X0167044Y0057889D01*
X0167122Y0057918D01*
X0167201Y0057943D01*
X0167281Y0057965D01*
X0167363Y0057982D01*
X0167445Y0057996D01*
X0167528Y0058006D01*
X0167611Y0058012D01*
X0167694Y0058014D01*
X0167777Y0058012D01*
X0167860Y0058006D01*
X0167943Y0057996D01*
X0168025Y0057982D01*
X0168107Y0057965D01*
X0168187Y0057943D01*
X0168266Y0057918D01*
X0168344Y0057889D01*
X0168421Y0057856D01*
X0168496Y0057819D01*
X0168569Y0057780D01*
X0168640Y0057736D01*
X0168709Y0057690D01*
X0168776Y0057640D01*
X0168840Y0057587D01*
X0168902Y0057531D01*
X0168961Y0057472D01*
X0169017Y0057410D01*
X0169070Y0057346D01*
X0169120Y0057279D01*
X0169166Y0057210D01*
X0169210Y0057139D01*
X0169249Y0057066D01*
X0169286Y0056991D01*
X0169319Y0056914D01*
X0169348Y0056836D01*
X0169373Y0056757D01*
X0169395Y0056677D01*
X0169412Y0056595D01*
X0169426Y0056513D01*
X0169436Y0056430D01*
X0169442Y0056347D01*
X0169444Y0056264D01*
X0169442Y0056181D01*
X0169436Y0056098D01*
X0169426Y0056015D01*
X0169412Y0055933D01*
X0169395Y0055851D01*
X0169373Y0055771D01*
X0169348Y0055692D01*
X0169319Y0055614D01*
X0169286Y0055537D01*
X0169249Y0055462D01*
X0169210Y0055389D01*
X0169166Y0055318D01*
X0169120Y0055249D01*
X0169070Y0055182D01*
X0169017Y0055118D01*
X0168961Y0055056D01*
X0168902Y0054997D01*
X0168840Y0054941D01*
X0168776Y0054888D01*
X0168709Y0054838D01*
X0168640Y0054792D01*
X0168569Y0054748D01*
X0168496Y0054709D01*
X0168421Y0054672D01*
X0168344Y0054639D01*
X0168266Y0054610D01*
X0168187Y0054585D01*
X0168107Y0054563D01*
X0168025Y0054546D01*
X0167943Y0054532D01*
X0167860Y0054522D01*
X0167777Y0054516D01*
X0167694Y0054514D01*
X0167611Y0054516D01*
X0167528Y0054522D01*
X0167445Y0054532D01*
X0167363Y0054546D01*
X0167281Y0054563D01*
X0167201Y0054585D01*
X0167122Y0054610D01*
X0167044Y0054639D01*
X0166967Y0054672D01*
X0166892Y0054709D01*
X0166819Y0054748D01*
X0166748Y0054792D01*
X0166679Y0054838D01*
X0166612Y0054888D01*
X0166548Y0054941D01*
X0166486Y0054997D01*
X0166427Y0055056D01*
X0166371Y0055118D01*
X0166318Y0055182D01*
X0166268Y0055249D01*
X0166222Y0055318D01*
X0166178Y0055389D01*
X0166139Y0055462D01*
X0166102Y0055537D01*
X0166069Y0055614D01*
X0166040Y0055692D01*
X0166015Y0055771D01*
X0165993Y0055851D01*
X0165976Y0055933D01*
X0165962Y0056015D01*
X0165952Y0056098D01*
X0165946Y0056181D01*
X0165944Y0056264D01*
X0165944Y0087760D02*
X0165946Y0087843D01*
X0165952Y0087926D01*
X0165962Y0088009D01*
X0165976Y0088091D01*
X0165993Y0088173D01*
X0166015Y0088253D01*
X0166040Y0088332D01*
X0166069Y0088410D01*
X0166102Y0088487D01*
X0166139Y0088562D01*
X0166178Y0088635D01*
X0166222Y0088706D01*
X0166268Y0088775D01*
X0166318Y0088842D01*
X0166371Y0088906D01*
X0166427Y0088968D01*
X0166486Y0089027D01*
X0166548Y0089083D01*
X0166612Y0089136D01*
X0166679Y0089186D01*
X0166748Y0089232D01*
X0166819Y0089276D01*
X0166892Y0089315D01*
X0166967Y0089352D01*
X0167044Y0089385D01*
X0167122Y0089414D01*
X0167201Y0089439D01*
X0167281Y0089461D01*
X0167363Y0089478D01*
X0167445Y0089492D01*
X0167528Y0089502D01*
X0167611Y0089508D01*
X0167694Y0089510D01*
X0167777Y0089508D01*
X0167860Y0089502D01*
X0167943Y0089492D01*
X0168025Y0089478D01*
X0168107Y0089461D01*
X0168187Y0089439D01*
X0168266Y0089414D01*
X0168344Y0089385D01*
X0168421Y0089352D01*
X0168496Y0089315D01*
X0168569Y0089276D01*
X0168640Y0089232D01*
X0168709Y0089186D01*
X0168776Y0089136D01*
X0168840Y0089083D01*
X0168902Y0089027D01*
X0168961Y0088968D01*
X0169017Y0088906D01*
X0169070Y0088842D01*
X0169120Y0088775D01*
X0169166Y0088706D01*
X0169210Y0088635D01*
X0169249Y0088562D01*
X0169286Y0088487D01*
X0169319Y0088410D01*
X0169348Y0088332D01*
X0169373Y0088253D01*
X0169395Y0088173D01*
X0169412Y0088091D01*
X0169426Y0088009D01*
X0169436Y0087926D01*
X0169442Y0087843D01*
X0169444Y0087760D01*
X0169442Y0087677D01*
X0169436Y0087594D01*
X0169426Y0087511D01*
X0169412Y0087429D01*
X0169395Y0087347D01*
X0169373Y0087267D01*
X0169348Y0087188D01*
X0169319Y0087110D01*
X0169286Y0087033D01*
X0169249Y0086958D01*
X0169210Y0086885D01*
X0169166Y0086814D01*
X0169120Y0086745D01*
X0169070Y0086678D01*
X0169017Y0086614D01*
X0168961Y0086552D01*
X0168902Y0086493D01*
X0168840Y0086437D01*
X0168776Y0086384D01*
X0168709Y0086334D01*
X0168640Y0086288D01*
X0168569Y0086244D01*
X0168496Y0086205D01*
X0168421Y0086168D01*
X0168344Y0086135D01*
X0168266Y0086106D01*
X0168187Y0086081D01*
X0168107Y0086059D01*
X0168025Y0086042D01*
X0167943Y0086028D01*
X0167860Y0086018D01*
X0167777Y0086012D01*
X0167694Y0086010D01*
X0167611Y0086012D01*
X0167528Y0086018D01*
X0167445Y0086028D01*
X0167363Y0086042D01*
X0167281Y0086059D01*
X0167201Y0086081D01*
X0167122Y0086106D01*
X0167044Y0086135D01*
X0166967Y0086168D01*
X0166892Y0086205D01*
X0166819Y0086244D01*
X0166748Y0086288D01*
X0166679Y0086334D01*
X0166612Y0086384D01*
X0166548Y0086437D01*
X0166486Y0086493D01*
X0166427Y0086552D01*
X0166371Y0086614D01*
X0166318Y0086678D01*
X0166268Y0086745D01*
X0166222Y0086814D01*
X0166178Y0086885D01*
X0166139Y0086958D01*
X0166102Y0087033D01*
X0166069Y0087110D01*
X0166040Y0087188D01*
X0166015Y0087267D01*
X0165993Y0087347D01*
X0165976Y0087429D01*
X0165962Y0087511D01*
X0165952Y0087594D01*
X0165946Y0087677D01*
X0165944Y0087760D01*
D23*
X0250508Y0057674D02*
X0250508Y0054374D01*
X0245708Y0054374D01*
X0245708Y0057674D01*
X0250508Y0057674D01*
X0250508Y0055473D02*
X0245708Y0055473D01*
X0245708Y0056572D02*
X0250508Y0056572D01*
X0250508Y0057671D02*
X0245708Y0057671D01*
X0250508Y0050674D02*
X0250508Y0047374D01*
X0245708Y0047374D01*
X0245708Y0050674D01*
X0250508Y0050674D01*
X0250508Y0048473D02*
X0245708Y0048473D01*
X0245708Y0049572D02*
X0250508Y0049572D01*
X0250508Y0050671D02*
X0245708Y0050671D01*
X0298008Y0064874D02*
X0298008Y0068174D01*
X0298008Y0064874D02*
X0293208Y0064874D01*
X0293208Y0068174D01*
X0298008Y0068174D01*
X0298008Y0065973D02*
X0293208Y0065973D01*
X0293208Y0067072D02*
X0298008Y0067072D01*
X0298008Y0068171D02*
X0293208Y0068171D01*
X0298008Y0071874D02*
X0298008Y0075174D01*
X0298008Y0071874D02*
X0293208Y0071874D01*
X0293208Y0075174D01*
X0298008Y0075174D01*
X0298008Y0072973D02*
X0293208Y0072973D01*
X0293208Y0074072D02*
X0298008Y0074072D01*
X0298008Y0075171D02*
X0293208Y0075171D01*
X0318708Y0075174D02*
X0318708Y0071874D01*
X0318708Y0075174D02*
X0323508Y0075174D01*
X0323508Y0071874D01*
X0318708Y0071874D01*
X0318708Y0072973D02*
X0323508Y0072973D01*
X0323508Y0074072D02*
X0318708Y0074072D01*
X0318708Y0075171D02*
X0323508Y0075171D01*
X0318708Y0068174D02*
X0318708Y0064874D01*
X0318708Y0068174D02*
X0323508Y0068174D01*
X0323508Y0064874D01*
X0318708Y0064874D01*
X0318708Y0065973D02*
X0323508Y0065973D01*
X0323508Y0067072D02*
X0318708Y0067072D01*
X0318708Y0068171D02*
X0323508Y0068171D01*
X0341858Y0060624D02*
X0345158Y0060624D01*
X0341858Y0060624D02*
X0341858Y0065424D01*
X0345158Y0065424D01*
X0345158Y0060624D01*
X0345158Y0061723D02*
X0341858Y0061723D01*
X0341858Y0062822D02*
X0345158Y0062822D01*
X0345158Y0063921D02*
X0341858Y0063921D01*
X0341858Y0065020D02*
X0345158Y0065020D01*
X0348858Y0060624D02*
X0352158Y0060624D01*
X0348858Y0060624D02*
X0348858Y0065424D01*
X0352158Y0065424D01*
X0352158Y0060624D01*
X0352158Y0061723D02*
X0348858Y0061723D01*
X0348858Y0062822D02*
X0352158Y0062822D01*
X0352158Y0063921D02*
X0348858Y0063921D01*
X0348858Y0065020D02*
X0352158Y0065020D01*
X0375658Y0071524D02*
X0378958Y0071524D01*
X0378958Y0066724D01*
X0375658Y0066724D01*
X0375658Y0071524D01*
X0375658Y0067823D02*
X0378958Y0067823D01*
X0378958Y0068922D02*
X0375658Y0068922D01*
X0375658Y0070021D02*
X0378958Y0070021D01*
X0378958Y0071120D02*
X0375658Y0071120D01*
X0382658Y0071524D02*
X0385958Y0071524D01*
X0385958Y0066724D01*
X0382658Y0066724D01*
X0382658Y0071524D01*
X0382658Y0067823D02*
X0385958Y0067823D01*
X0385958Y0068922D02*
X0382658Y0068922D01*
X0382658Y0070021D02*
X0385958Y0070021D01*
X0385958Y0071120D02*
X0382658Y0071120D01*
X0382658Y0079524D02*
X0385958Y0079524D01*
X0385958Y0074724D01*
X0382658Y0074724D01*
X0382658Y0079524D01*
X0382658Y0075823D02*
X0385958Y0075823D01*
X0385958Y0076922D02*
X0382658Y0076922D01*
X0382658Y0078021D02*
X0385958Y0078021D01*
X0385958Y0079120D02*
X0382658Y0079120D01*
X0378958Y0079524D02*
X0375658Y0079524D01*
X0378958Y0079524D02*
X0378958Y0074724D01*
X0375658Y0074724D01*
X0375658Y0079524D01*
X0375658Y0075823D02*
X0378958Y0075823D01*
X0378958Y0076922D02*
X0375658Y0076922D01*
X0375658Y0078021D02*
X0378958Y0078021D01*
X0378958Y0079120D02*
X0375658Y0079120D01*
X0375658Y0089524D02*
X0378958Y0089524D01*
X0378958Y0084724D01*
X0375658Y0084724D01*
X0375658Y0089524D01*
X0375658Y0085823D02*
X0378958Y0085823D01*
X0378958Y0086922D02*
X0375658Y0086922D01*
X0375658Y0088021D02*
X0378958Y0088021D01*
X0378958Y0089120D02*
X0375658Y0089120D01*
X0382658Y0089524D02*
X0385958Y0089524D01*
X0385958Y0084724D01*
X0382658Y0084724D01*
X0382658Y0089524D01*
X0382658Y0085823D02*
X0385958Y0085823D01*
X0385958Y0086922D02*
X0382658Y0086922D01*
X0382658Y0088021D02*
X0385958Y0088021D01*
X0385958Y0089120D02*
X0382658Y0089120D01*
X0382658Y0095224D02*
X0385958Y0095224D01*
X0382658Y0095224D02*
X0382658Y0100024D01*
X0385958Y0100024D01*
X0385958Y0095224D01*
X0385958Y0096323D02*
X0382658Y0096323D01*
X0382658Y0097422D02*
X0385958Y0097422D01*
X0385958Y0098521D02*
X0382658Y0098521D01*
X0382658Y0099620D02*
X0385958Y0099620D01*
X0378958Y0095224D02*
X0375658Y0095224D01*
X0375658Y0100024D01*
X0378958Y0100024D01*
X0378958Y0095224D01*
X0378958Y0096323D02*
X0375658Y0096323D01*
X0375658Y0097422D02*
X0378958Y0097422D01*
X0378958Y0098521D02*
X0375658Y0098521D01*
X0375658Y0099620D02*
X0378958Y0099620D01*
X0378958Y0106824D02*
X0375658Y0106824D01*
X0375658Y0111624D01*
X0378958Y0111624D01*
X0378958Y0106824D01*
X0378958Y0107923D02*
X0375658Y0107923D01*
X0375658Y0109022D02*
X0378958Y0109022D01*
X0378958Y0110121D02*
X0375658Y0110121D01*
X0375658Y0111220D02*
X0378958Y0111220D01*
X0382658Y0106824D02*
X0385958Y0106824D01*
X0382658Y0106824D02*
X0382658Y0111624D01*
X0385958Y0111624D01*
X0385958Y0106824D01*
X0385958Y0107923D02*
X0382658Y0107923D01*
X0382658Y0109022D02*
X0385958Y0109022D01*
X0385958Y0110121D02*
X0382658Y0110121D01*
X0382658Y0111220D02*
X0385958Y0111220D01*
X0352658Y0112924D02*
X0349358Y0112924D01*
X0349358Y0117724D01*
X0352658Y0117724D01*
X0352658Y0112924D01*
X0352658Y0114023D02*
X0349358Y0114023D01*
X0349358Y0115122D02*
X0352658Y0115122D01*
X0352658Y0116221D02*
X0349358Y0116221D01*
X0349358Y0117320D02*
X0352658Y0117320D01*
X0345658Y0112924D02*
X0342358Y0112924D01*
X0342358Y0117724D01*
X0345658Y0117724D01*
X0345658Y0112924D01*
X0345658Y0114023D02*
X0342358Y0114023D01*
X0342358Y0115122D02*
X0345658Y0115122D01*
X0345658Y0116221D02*
X0342358Y0116221D01*
X0342358Y0117320D02*
X0345658Y0117320D01*
X0345658Y0109424D02*
X0342358Y0109424D01*
X0345658Y0109424D02*
X0345658Y0104624D01*
X0342358Y0104624D01*
X0342358Y0109424D01*
X0342358Y0105723D02*
X0345658Y0105723D01*
X0345658Y0106822D02*
X0342358Y0106822D01*
X0342358Y0107921D02*
X0345658Y0107921D01*
X0345658Y0109020D02*
X0342358Y0109020D01*
X0349358Y0109424D02*
X0352658Y0109424D01*
X0352658Y0104624D01*
X0349358Y0104624D01*
X0349358Y0109424D01*
X0349358Y0105723D02*
X0352658Y0105723D01*
X0352658Y0106822D02*
X0349358Y0106822D01*
X0349358Y0107921D02*
X0352658Y0107921D01*
X0352658Y0109020D02*
X0349358Y0109020D01*
X0349358Y0100424D02*
X0352658Y0100424D01*
X0352658Y0095624D01*
X0349358Y0095624D01*
X0349358Y0100424D01*
X0349358Y0096723D02*
X0352658Y0096723D01*
X0352658Y0097822D02*
X0349358Y0097822D01*
X0349358Y0098921D02*
X0352658Y0098921D01*
X0352658Y0100020D02*
X0349358Y0100020D01*
X0345658Y0100424D02*
X0342358Y0100424D01*
X0345658Y0100424D02*
X0345658Y0095624D01*
X0342358Y0095624D01*
X0342358Y0100424D01*
X0342358Y0096723D02*
X0345658Y0096723D01*
X0345658Y0097822D02*
X0342358Y0097822D01*
X0342358Y0098921D02*
X0345658Y0098921D01*
X0345658Y0100020D02*
X0342358Y0100020D01*
X0342358Y0091224D02*
X0345658Y0091224D01*
X0345658Y0086424D01*
X0342358Y0086424D01*
X0342358Y0091224D01*
X0342358Y0087523D02*
X0345658Y0087523D01*
X0345658Y0088622D02*
X0342358Y0088622D01*
X0342358Y0089721D02*
X0345658Y0089721D01*
X0345658Y0090820D02*
X0342358Y0090820D01*
X0349358Y0091224D02*
X0352658Y0091224D01*
X0352658Y0086424D01*
X0349358Y0086424D01*
X0349358Y0091224D01*
X0349358Y0087523D02*
X0352658Y0087523D01*
X0352658Y0088622D02*
X0349358Y0088622D01*
X0349358Y0089721D02*
X0352658Y0089721D01*
X0352658Y0090820D02*
X0349358Y0090820D01*
X0349358Y0081724D02*
X0352658Y0081724D01*
X0352658Y0076924D01*
X0349358Y0076924D01*
X0349358Y0081724D01*
X0349358Y0078023D02*
X0352658Y0078023D01*
X0352658Y0079122D02*
X0349358Y0079122D01*
X0349358Y0080221D02*
X0352658Y0080221D01*
X0352658Y0081320D02*
X0349358Y0081320D01*
X0345658Y0081724D02*
X0342358Y0081724D01*
X0345658Y0081724D02*
X0345658Y0076924D01*
X0342358Y0076924D01*
X0342358Y0081724D01*
X0342358Y0078023D02*
X0345658Y0078023D01*
X0345658Y0079122D02*
X0342358Y0079122D01*
X0342358Y0080221D02*
X0345658Y0080221D01*
X0345658Y0081320D02*
X0342358Y0081320D01*
X0318708Y0099874D02*
X0318708Y0103174D01*
X0323508Y0103174D01*
X0323508Y0099874D01*
X0318708Y0099874D01*
X0318708Y0100973D02*
X0323508Y0100973D01*
X0323508Y0102072D02*
X0318708Y0102072D01*
X0318708Y0103171D02*
X0323508Y0103171D01*
X0318708Y0106874D02*
X0318708Y0110174D01*
X0323508Y0110174D01*
X0323508Y0106874D01*
X0318708Y0106874D01*
X0318708Y0107973D02*
X0323508Y0107973D01*
X0323508Y0109072D02*
X0318708Y0109072D01*
X0318708Y0110171D02*
X0323508Y0110171D01*
X0375658Y0052724D02*
X0378958Y0052724D01*
X0375658Y0052724D02*
X0375658Y0057524D01*
X0378958Y0057524D01*
X0378958Y0052724D01*
X0378958Y0053823D02*
X0375658Y0053823D01*
X0375658Y0054922D02*
X0378958Y0054922D01*
X0378958Y0056021D02*
X0375658Y0056021D01*
X0375658Y0057120D02*
X0378958Y0057120D01*
X0382658Y0052724D02*
X0385958Y0052724D01*
X0382658Y0052724D02*
X0382658Y0057524D01*
X0385958Y0057524D01*
X0385958Y0052724D01*
X0385958Y0053823D02*
X0382658Y0053823D01*
X0382658Y0054922D02*
X0385958Y0054922D01*
X0385958Y0056021D02*
X0382658Y0056021D01*
X0382658Y0057120D02*
X0385958Y0057120D01*
X0385958Y0044224D02*
X0382658Y0044224D01*
X0382658Y0049024D01*
X0385958Y0049024D01*
X0385958Y0044224D01*
X0385958Y0045323D02*
X0382658Y0045323D01*
X0382658Y0046422D02*
X0385958Y0046422D01*
X0385958Y0047521D02*
X0382658Y0047521D01*
X0382658Y0048620D02*
X0385958Y0048620D01*
X0378958Y0044224D02*
X0375658Y0044224D01*
X0375658Y0049024D01*
X0378958Y0049024D01*
X0378958Y0044224D01*
X0378958Y0045323D02*
X0375658Y0045323D01*
X0375658Y0046422D02*
X0378958Y0046422D01*
X0378958Y0047521D02*
X0375658Y0047521D01*
X0375658Y0048620D02*
X0378958Y0048620D01*
X0378958Y0035724D02*
X0375658Y0035724D01*
X0375658Y0040524D01*
X0378958Y0040524D01*
X0378958Y0035724D01*
X0378958Y0036823D02*
X0375658Y0036823D01*
X0375658Y0037922D02*
X0378958Y0037922D01*
X0378958Y0039021D02*
X0375658Y0039021D01*
X0375658Y0040120D02*
X0378958Y0040120D01*
X0382658Y0035724D02*
X0385958Y0035724D01*
X0382658Y0035724D02*
X0382658Y0040524D01*
X0385958Y0040524D01*
X0385958Y0035724D01*
X0385958Y0036823D02*
X0382658Y0036823D01*
X0382658Y0037922D02*
X0385958Y0037922D01*
X0385958Y0039021D02*
X0382658Y0039021D01*
X0382658Y0040120D02*
X0385958Y0040120D01*
X0385958Y0027224D02*
X0382658Y0027224D01*
X0382658Y0032024D01*
X0385958Y0032024D01*
X0385958Y0027224D01*
X0385958Y0028323D02*
X0382658Y0028323D01*
X0382658Y0029422D02*
X0385958Y0029422D01*
X0385958Y0030521D02*
X0382658Y0030521D01*
X0382658Y0031620D02*
X0385958Y0031620D01*
X0378958Y0027224D02*
X0375658Y0027224D01*
X0375658Y0032024D01*
X0378958Y0032024D01*
X0378958Y0027224D01*
X0378958Y0028323D02*
X0375658Y0028323D01*
X0375658Y0029422D02*
X0378958Y0029422D01*
X0378958Y0030521D02*
X0375658Y0030521D01*
X0375658Y0031620D02*
X0378958Y0031620D01*
X0352158Y0042924D02*
X0348858Y0042924D01*
X0352158Y0042924D02*
X0352158Y0038124D01*
X0348858Y0038124D01*
X0348858Y0042924D01*
X0348858Y0039223D02*
X0352158Y0039223D01*
X0352158Y0040322D02*
X0348858Y0040322D01*
X0348858Y0041421D02*
X0352158Y0041421D01*
X0352158Y0042520D02*
X0348858Y0042520D01*
X0345158Y0042924D02*
X0341858Y0042924D01*
X0345158Y0042924D02*
X0345158Y0038124D01*
X0341858Y0038124D01*
X0341858Y0042924D01*
X0341858Y0039223D02*
X0345158Y0039223D01*
X0345158Y0040322D02*
X0341858Y0040322D01*
X0341858Y0041421D02*
X0345158Y0041421D01*
X0345158Y0042520D02*
X0341858Y0042520D01*
D24*
X0257608Y0110274D03*
X0257608Y0113524D03*
X0251608Y0113524D03*
X0251608Y0110274D03*
X0251608Y0116524D03*
X0251608Y0119774D03*
X0257608Y0119774D03*
X0257608Y0116524D03*
X0257608Y0125274D03*
X0251608Y0125274D03*
X0251608Y0128524D03*
X0251608Y0131524D03*
X0251608Y0134774D03*
X0257608Y0134774D03*
X0257608Y0131524D03*
X0257608Y0128524D03*
X0314108Y0165274D03*
X0314108Y0168524D03*
X0314108Y0171524D03*
X0320108Y0171524D03*
X0320108Y0168524D03*
X0320108Y0165274D03*
X0320108Y0174774D03*
X0314108Y0174774D03*
D25*
X0288608Y0155024D03*
X0275608Y0155024D03*
X0252608Y0076524D03*
X0252608Y0063524D03*
X0271608Y0047524D03*
X0284608Y0047524D03*
X0304108Y0063524D03*
X0312608Y0063524D03*
X0312608Y0076524D03*
X0304108Y0076524D03*
D26*
X0316274Y0120265D03*
X0316274Y0125383D03*
X0324542Y0120265D03*
D27*
X0324542Y0125186D03*
D28*
X0239208Y0131624D02*
X0230008Y0131624D01*
X0239208Y0131624D02*
X0239208Y0128424D01*
X0230008Y0128424D01*
X0230008Y0131624D01*
X0230008Y0131623D02*
X0239208Y0131623D01*
X0239208Y0121624D02*
X0230008Y0121624D01*
X0239208Y0121624D02*
X0239208Y0118424D01*
X0230008Y0118424D01*
X0230008Y0121624D01*
X0230008Y0121623D02*
X0239208Y0121623D01*
X0239208Y0111624D02*
X0230008Y0111624D01*
X0239208Y0111624D02*
X0239208Y0108424D01*
X0230008Y0108424D01*
X0230008Y0111624D01*
X0230008Y0111623D02*
X0239208Y0111623D01*
X0219208Y0108424D02*
X0210008Y0108424D01*
X0210008Y0111624D01*
X0219208Y0111624D01*
X0219208Y0108424D01*
X0219208Y0111623D02*
X0210008Y0111623D01*
X0210008Y0118424D02*
X0219208Y0118424D01*
X0210008Y0118424D02*
X0210008Y0121624D01*
X0219208Y0121624D01*
X0219208Y0118424D01*
X0219208Y0121623D02*
X0210008Y0121623D01*
X0241208Y0200424D02*
X0241208Y0209624D01*
X0241208Y0200424D02*
X0238008Y0200424D01*
X0238008Y0209624D01*
X0241208Y0209624D01*
X0241208Y0203623D02*
X0238008Y0203623D01*
X0238008Y0206822D02*
X0241208Y0206822D01*
X0251208Y0210424D02*
X0251208Y0219624D01*
X0251208Y0210424D02*
X0248008Y0210424D01*
X0248008Y0219624D01*
X0251208Y0219624D01*
X0251208Y0213623D02*
X0248008Y0213623D01*
X0248008Y0216822D02*
X0251208Y0216822D01*
X0271208Y0219624D02*
X0271208Y0210424D01*
X0268008Y0210424D01*
X0268008Y0219624D01*
X0271208Y0219624D01*
X0271208Y0213623D02*
X0268008Y0213623D01*
X0268008Y0216822D02*
X0271208Y0216822D01*
X0291208Y0219624D02*
X0291208Y0210424D01*
X0288008Y0210424D01*
X0288008Y0219624D01*
X0291208Y0219624D01*
X0291208Y0213623D02*
X0288008Y0213623D01*
X0288008Y0216822D02*
X0291208Y0216822D01*
X0301208Y0209624D02*
X0301208Y0200424D01*
X0298008Y0200424D01*
X0298008Y0209624D01*
X0301208Y0209624D01*
X0301208Y0203623D02*
X0298008Y0203623D01*
X0298008Y0206822D02*
X0301208Y0206822D01*
X0281208Y0209624D02*
X0281208Y0200424D01*
X0278008Y0200424D01*
X0278008Y0209624D01*
X0281208Y0209624D01*
X0281208Y0203623D02*
X0278008Y0203623D01*
X0278008Y0206822D02*
X0281208Y0206822D01*
X0261208Y0209624D02*
X0261208Y0200424D01*
X0258008Y0200424D01*
X0258008Y0209624D01*
X0261208Y0209624D01*
X0261208Y0203623D02*
X0258008Y0203623D01*
X0258008Y0206822D02*
X0261208Y0206822D01*
X0327108Y0209624D02*
X0327108Y0200424D01*
X0323908Y0200424D01*
X0323908Y0209624D01*
X0327108Y0209624D01*
X0327108Y0203623D02*
X0323908Y0203623D01*
X0323908Y0206822D02*
X0327108Y0206822D01*
X0337108Y0210424D02*
X0337108Y0219624D01*
X0337108Y0210424D02*
X0333908Y0210424D01*
X0333908Y0219624D01*
X0337108Y0219624D01*
X0337108Y0213623D02*
X0333908Y0213623D01*
X0333908Y0216822D02*
X0337108Y0216822D01*
X0341208Y0029624D02*
X0341208Y0020424D01*
X0338008Y0020424D01*
X0338008Y0029624D01*
X0341208Y0029624D01*
X0341208Y0023623D02*
X0338008Y0023623D01*
X0338008Y0026822D02*
X0341208Y0026822D01*
X0321208Y0029624D02*
X0321208Y0020424D01*
X0318008Y0020424D01*
X0318008Y0029624D01*
X0321208Y0029624D01*
X0321208Y0023623D02*
X0318008Y0023623D01*
X0318008Y0026822D02*
X0321208Y0026822D01*
X0331208Y0019624D02*
X0331208Y0010424D01*
X0328008Y0010424D01*
X0328008Y0019624D01*
X0331208Y0019624D01*
X0331208Y0013623D02*
X0328008Y0013623D01*
X0328008Y0016822D02*
X0331208Y0016822D01*
X0351208Y0019624D02*
X0351208Y0010424D01*
X0348008Y0010424D01*
X0348008Y0019624D01*
X0351208Y0019624D01*
X0351208Y0013623D02*
X0348008Y0013623D01*
X0348008Y0016822D02*
X0351208Y0016822D01*
X0311208Y0019624D02*
X0311208Y0010424D01*
X0308008Y0010424D01*
X0308008Y0019624D01*
X0311208Y0019624D01*
X0311208Y0013623D02*
X0308008Y0013623D01*
X0308008Y0016822D02*
X0311208Y0016822D01*
X0268008Y0020424D02*
X0268008Y0029624D01*
X0271208Y0029624D01*
X0271208Y0020424D01*
X0268008Y0020424D01*
X0268008Y0023623D02*
X0271208Y0023623D01*
X0271208Y0026822D02*
X0268008Y0026822D01*
X0248008Y0029624D02*
X0248008Y0020424D01*
X0248008Y0029624D02*
X0251208Y0029624D01*
X0251208Y0020424D01*
X0248008Y0020424D01*
X0248008Y0023623D02*
X0251208Y0023623D01*
X0251208Y0026822D02*
X0248008Y0026822D01*
X0228008Y0029624D02*
X0228008Y0020424D01*
X0228008Y0029624D02*
X0231208Y0029624D01*
X0231208Y0020424D01*
X0228008Y0020424D01*
X0228008Y0023623D02*
X0231208Y0023623D01*
X0231208Y0026822D02*
X0228008Y0026822D01*
X0238008Y0019624D02*
X0238008Y0010424D01*
X0238008Y0019624D02*
X0241208Y0019624D01*
X0241208Y0010424D01*
X0238008Y0010424D01*
X0238008Y0013623D02*
X0241208Y0013623D01*
X0241208Y0016822D02*
X0238008Y0016822D01*
X0258008Y0019624D02*
X0258008Y0010424D01*
X0258008Y0019624D02*
X0261208Y0019624D01*
X0261208Y0010424D01*
X0258008Y0010424D01*
X0258008Y0013623D02*
X0261208Y0013623D01*
X0261208Y0016822D02*
X0258008Y0016822D01*
D29*
X0279608Y0015024D03*
X0299608Y0025024D03*
X0315508Y0215024D03*
X0229608Y0215024D03*
D30*
X0214608Y0130024D03*
D31*
X0405913Y0119910D03*
X0405913Y0117941D03*
X0405913Y0115973D03*
X0405913Y0114004D03*
X0405913Y0112036D03*
X0405913Y0110067D03*
X0405913Y0108099D03*
X0405913Y0106130D03*
X0405913Y0104162D03*
X0405913Y0102193D03*
X0405913Y0100225D03*
X0405913Y0098256D03*
X0405913Y0096288D03*
X0405913Y0094319D03*
X0405913Y0092351D03*
X0405913Y0090382D03*
X0405913Y0088414D03*
X0405913Y0086445D03*
X0405913Y0084477D03*
X0405913Y0082508D03*
X0405913Y0080540D03*
X0405913Y0078571D03*
X0405913Y0076602D03*
X0405913Y0074634D03*
X0405913Y0072665D03*
X0405913Y0070697D03*
X0405913Y0068728D03*
X0405913Y0066760D03*
X0405913Y0064791D03*
X0405913Y0062823D03*
X0405913Y0060854D03*
X0405913Y0058886D03*
X0405913Y0056917D03*
X0405913Y0054949D03*
X0405913Y0052980D03*
X0405913Y0051012D03*
X0405913Y0049043D03*
X0405913Y0047075D03*
X0405913Y0045106D03*
X0405913Y0043138D03*
D32*
X0418708Y0035658D03*
X0418708Y0127390D03*
D33*
X0204354Y0205424D03*
X0197661Y0205424D03*
X0197661Y0215424D03*
X0204354Y0215424D03*
D34*
X0432740Y0214651D02*
X0432740Y0207251D01*
X0442740Y0207251D02*
X0442740Y0214651D01*
X0452740Y0214651D02*
X0452740Y0207251D01*
X0462740Y0207251D02*
X0462740Y0214651D01*
X0472740Y0214651D02*
X0472740Y0207251D01*
M02*
