G75*
%MOIN*%
%OFA0B0*%
%FSLAX25Y25*%
%IPPOS*%
%LPD*%
%AMOC8*
5,1,8,0,0,1.08239X$1,22.5*
%
%ADD10C,0.00100*%
%ADD11C,0.00400*%
%ADD12C,0.00500*%
%ADD13C,0.00394*%
%ADD14C,0.00000*%
%ADD15C,0.00300*%
%ADD16C,0.00800*%
D10*
X0091780Y0019562D02*
X0091780Y0219467D01*
X0091794Y0219705D01*
X0091814Y0219942D01*
X0091839Y0220179D01*
X0091871Y0220416D01*
X0091907Y0220651D01*
X0091950Y0220886D01*
X0091998Y0221119D01*
X0092052Y0221352D01*
X0092112Y0221582D01*
X0092177Y0221812D01*
X0092248Y0222040D01*
X0092324Y0222266D01*
X0092405Y0222490D01*
X0092492Y0222712D01*
X0092584Y0222932D01*
X0092682Y0223149D01*
X0092785Y0223364D01*
X0092893Y0223577D01*
X0093006Y0223787D01*
X0093124Y0223994D01*
X0093247Y0224198D01*
X0093375Y0224399D01*
X0093508Y0224597D01*
X0093645Y0224792D01*
X0093787Y0224984D01*
X0093934Y0225172D01*
X0094085Y0225356D01*
X0094241Y0225536D01*
X0094401Y0225713D01*
X0094565Y0225886D01*
X0094734Y0226055D01*
X0094906Y0226220D01*
X0095082Y0226380D01*
X0095263Y0226536D01*
X0095446Y0226688D01*
X0095634Y0226836D01*
X0095825Y0226978D01*
X0096019Y0227116D01*
X0096217Y0227250D01*
X0096418Y0227378D01*
X0096622Y0227502D01*
X0096828Y0227621D01*
X0097038Y0227734D01*
X0097250Y0227843D01*
X0097465Y0227946D01*
X0097683Y0228044D01*
X0097902Y0228137D01*
X0098124Y0228225D01*
X0098348Y0228307D01*
X0098573Y0228384D01*
X0098801Y0228455D01*
X0099030Y0228521D01*
X0099261Y0228581D01*
X0099493Y0228635D01*
X0099726Y0228684D01*
X0099961Y0228728D01*
X0100196Y0228765D01*
X0100433Y0228797D01*
X0100670Y0228824D01*
X0100907Y0228844D01*
X0101145Y0228859D01*
X0101383Y0228868D01*
X0101622Y0228871D01*
X0101860Y0228868D01*
X0102099Y0228860D01*
X0102098Y0228861D02*
X0476594Y0228861D01*
X0476836Y0228858D01*
X0477077Y0228849D01*
X0477318Y0228835D01*
X0477559Y0228814D01*
X0477799Y0228788D01*
X0478039Y0228756D01*
X0478278Y0228718D01*
X0478515Y0228675D01*
X0478752Y0228625D01*
X0478987Y0228570D01*
X0479221Y0228510D01*
X0479453Y0228443D01*
X0479684Y0228372D01*
X0479913Y0228294D01*
X0480140Y0228211D01*
X0480365Y0228123D01*
X0480588Y0228029D01*
X0480808Y0227930D01*
X0481026Y0227825D01*
X0481241Y0227716D01*
X0481454Y0227601D01*
X0481664Y0227481D01*
X0481870Y0227356D01*
X0482074Y0227226D01*
X0482275Y0227091D01*
X0482472Y0226951D01*
X0482666Y0226807D01*
X0482856Y0226658D01*
X0483042Y0226504D01*
X0483225Y0226346D01*
X0483404Y0226184D01*
X0483579Y0226017D01*
X0483750Y0225846D01*
X0483917Y0225671D01*
X0484079Y0225492D01*
X0484237Y0225309D01*
X0484391Y0225123D01*
X0484540Y0224933D01*
X0484684Y0224739D01*
X0484824Y0224542D01*
X0484959Y0224341D01*
X0485089Y0224137D01*
X0485214Y0223931D01*
X0485334Y0223721D01*
X0485449Y0223508D01*
X0485558Y0223293D01*
X0485663Y0223075D01*
X0485762Y0222855D01*
X0485856Y0222632D01*
X0485944Y0222407D01*
X0486027Y0222180D01*
X0486105Y0221951D01*
X0486176Y0221720D01*
X0486243Y0221488D01*
X0486303Y0221254D01*
X0486358Y0221019D01*
X0486408Y0220782D01*
X0486451Y0220545D01*
X0486489Y0220306D01*
X0486521Y0220066D01*
X0486547Y0219826D01*
X0486568Y0219585D01*
X0486582Y0219344D01*
X0486591Y0219103D01*
X0486594Y0218861D01*
X0486594Y0017955D01*
X0486591Y0017713D01*
X0486582Y0017472D01*
X0486568Y0017231D01*
X0486547Y0016990D01*
X0486521Y0016750D01*
X0486489Y0016510D01*
X0486451Y0016271D01*
X0486408Y0016034D01*
X0486358Y0015797D01*
X0486303Y0015562D01*
X0486243Y0015328D01*
X0486176Y0015096D01*
X0486105Y0014865D01*
X0486027Y0014636D01*
X0485944Y0014409D01*
X0485856Y0014184D01*
X0485762Y0013961D01*
X0485663Y0013741D01*
X0485558Y0013523D01*
X0485449Y0013308D01*
X0485334Y0013095D01*
X0485214Y0012885D01*
X0485089Y0012679D01*
X0484959Y0012475D01*
X0484824Y0012274D01*
X0484684Y0012077D01*
X0484540Y0011883D01*
X0484391Y0011693D01*
X0484237Y0011507D01*
X0484079Y0011324D01*
X0483917Y0011145D01*
X0483750Y0010970D01*
X0483579Y0010799D01*
X0483404Y0010632D01*
X0483225Y0010470D01*
X0483042Y0010312D01*
X0482856Y0010158D01*
X0482666Y0010009D01*
X0482472Y0009865D01*
X0482275Y0009725D01*
X0482074Y0009590D01*
X0481870Y0009460D01*
X0481664Y0009335D01*
X0481454Y0009215D01*
X0481241Y0009100D01*
X0481026Y0008991D01*
X0480808Y0008886D01*
X0480588Y0008787D01*
X0480365Y0008693D01*
X0480140Y0008605D01*
X0479913Y0008522D01*
X0479684Y0008444D01*
X0479453Y0008373D01*
X0479221Y0008306D01*
X0478987Y0008246D01*
X0478752Y0008191D01*
X0478515Y0008141D01*
X0478278Y0008098D01*
X0478039Y0008060D01*
X0477799Y0008028D01*
X0477559Y0008002D01*
X0477318Y0007981D01*
X0477077Y0007967D01*
X0476836Y0007958D01*
X0476594Y0007955D01*
X0395677Y0007562D01*
X0396496Y0007562D01*
X0395677Y0007562D02*
X0212150Y0007562D01*
X0107780Y0007562D01*
X0107441Y0007518D01*
X0107101Y0007482D01*
X0106761Y0007454D01*
X0106419Y0007434D01*
X0106078Y0007423D01*
X0105736Y0007420D01*
X0105394Y0007425D01*
X0105053Y0007439D01*
X0104712Y0007460D01*
X0104371Y0007490D01*
X0104032Y0007528D01*
X0103693Y0007575D01*
X0103356Y0007629D01*
X0103020Y0007692D01*
X0102686Y0007763D01*
X0102353Y0007841D01*
X0102023Y0007928D01*
X0101694Y0008023D01*
X0101368Y0008126D01*
X0101045Y0008236D01*
X0100724Y0008355D01*
X0100407Y0008481D01*
X0100092Y0008614D01*
X0099781Y0008756D01*
X0099473Y0008904D01*
X0099169Y0009060D01*
X0098869Y0009224D01*
X0098573Y0009394D01*
X0098281Y0009572D01*
X0097993Y0009757D01*
X0097710Y0009948D01*
X0097432Y0010147D01*
X0097159Y0010352D01*
X0096890Y0010563D01*
X0096627Y0010781D01*
X0096369Y0011006D01*
X0096117Y0011236D01*
X0095870Y0011473D01*
X0095629Y0011715D01*
X0095394Y0011963D01*
X0095166Y0012217D01*
X0094943Y0012476D01*
X0094726Y0012741D01*
X0094517Y0013010D01*
X0094313Y0013285D01*
X0094117Y0013565D01*
X0093927Y0013849D01*
X0093744Y0014137D01*
X0093568Y0014430D01*
X0093399Y0014728D01*
X0093238Y0015029D01*
X0093083Y0015334D01*
X0092937Y0015642D01*
X0092797Y0015954D01*
X0092666Y0016270D01*
X0092542Y0016588D01*
X0092425Y0016910D01*
X0092317Y0017234D01*
X0092216Y0017560D01*
X0092123Y0017889D01*
X0092039Y0018220D01*
X0091962Y0018553D01*
X0091893Y0018888D01*
X0091833Y0019224D01*
X0091780Y0019562D01*
X0431008Y0029924D02*
X0438966Y0029886D01*
X0431008Y0029924D02*
X0431008Y0122424D01*
X0439008Y0122424D01*
X0439148Y0122421D01*
X0439288Y0122414D01*
X0439428Y0122403D01*
X0439567Y0122388D01*
X0439706Y0122369D01*
X0439844Y0122347D01*
X0439982Y0122320D01*
X0440119Y0122290D01*
X0440255Y0122255D01*
X0440390Y0122218D01*
X0440524Y0122176D01*
X0440656Y0122130D01*
X0440787Y0122081D01*
X0440917Y0122028D01*
X0441046Y0121972D01*
X0441172Y0121912D01*
X0441297Y0121848D01*
X0441420Y0121781D01*
X0441542Y0121711D01*
X0441661Y0121637D01*
X0441778Y0121559D01*
X0441893Y0121479D01*
X0442005Y0121395D01*
X0442115Y0121309D01*
X0442223Y0121219D01*
X0442328Y0121126D01*
X0442430Y0121030D01*
X0442530Y0120932D01*
X0442627Y0120831D01*
X0442721Y0120727D01*
X0442812Y0120620D01*
X0442900Y0120511D01*
X0442985Y0120400D01*
X0443067Y0120286D01*
X0443146Y0120170D01*
X0443221Y0120051D01*
X0443293Y0119931D01*
X0443361Y0119809D01*
X0443427Y0119685D01*
X0443488Y0119559D01*
X0443546Y0119431D01*
X0443601Y0119302D01*
X0443651Y0119171D01*
X0443699Y0119039D01*
X0443742Y0118906D01*
X0443782Y0118771D01*
X0443817Y0118636D01*
X0443849Y0118499D01*
X0443878Y0118362D01*
X0443902Y0118224D01*
X0443922Y0118085D01*
X0443939Y0117946D01*
X0443951Y0117806D01*
X0443960Y0117667D01*
X0443965Y0117526D01*
X0443966Y0117386D01*
X0443966Y0034886D01*
X0443964Y0034746D01*
X0443958Y0034606D01*
X0443948Y0034466D01*
X0443935Y0034326D01*
X0443917Y0034187D01*
X0443895Y0034048D01*
X0443870Y0033911D01*
X0443841Y0033773D01*
X0443808Y0033637D01*
X0443771Y0033502D01*
X0443730Y0033368D01*
X0443685Y0033235D01*
X0443637Y0033103D01*
X0443585Y0032973D01*
X0443530Y0032844D01*
X0443471Y0032717D01*
X0443408Y0032591D01*
X0443342Y0032467D01*
X0443273Y0032346D01*
X0443200Y0032226D01*
X0443123Y0032108D01*
X0443044Y0031993D01*
X0442961Y0031879D01*
X0442875Y0031769D01*
X0442786Y0031660D01*
X0442694Y0031554D01*
X0442599Y0031451D01*
X0442502Y0031350D01*
X0442401Y0031253D01*
X0442298Y0031158D01*
X0442192Y0031066D01*
X0442083Y0030977D01*
X0441973Y0030891D01*
X0441859Y0030808D01*
X0441744Y0030729D01*
X0441626Y0030652D01*
X0441506Y0030579D01*
X0441385Y0030510D01*
X0441261Y0030444D01*
X0441135Y0030381D01*
X0441008Y0030322D01*
X0440879Y0030267D01*
X0440749Y0030215D01*
X0440617Y0030167D01*
X0440484Y0030122D01*
X0440350Y0030081D01*
X0440215Y0030044D01*
X0440079Y0030011D01*
X0439941Y0029982D01*
X0439804Y0029957D01*
X0439665Y0029935D01*
X0439526Y0029917D01*
X0439386Y0029904D01*
X0439246Y0029894D01*
X0439106Y0029888D01*
X0438966Y0029886D01*
D11*
X0447407Y0021327D02*
X0447407Y0019258D01*
X0447407Y0020292D02*
X0444304Y0020292D01*
X0445339Y0019258D01*
X0445856Y0018104D02*
X0446890Y0018104D01*
X0447407Y0017587D01*
X0447407Y0016553D01*
X0446890Y0016035D01*
X0445856Y0016035D02*
X0445339Y0017070D01*
X0445339Y0017587D01*
X0445856Y0018104D01*
X0444304Y0018104D02*
X0444304Y0016035D01*
X0445856Y0016035D01*
X0446890Y0014881D02*
X0447407Y0014364D01*
X0447407Y0013330D01*
X0446890Y0012813D01*
X0444822Y0012813D01*
X0444304Y0013330D01*
X0444304Y0014364D01*
X0444822Y0014881D01*
X0428809Y0015151D02*
X0428292Y0015669D01*
X0428809Y0015151D02*
X0428809Y0014117D01*
X0428292Y0013600D01*
X0426223Y0013600D01*
X0425706Y0014117D01*
X0425706Y0015151D01*
X0426223Y0015669D01*
X0425706Y0016823D02*
X0427257Y0016823D01*
X0426740Y0017857D01*
X0426740Y0018374D01*
X0427257Y0018891D01*
X0428292Y0018891D01*
X0428809Y0018374D01*
X0428809Y0017340D01*
X0428292Y0016823D01*
X0425706Y0016823D02*
X0425706Y0018891D01*
X0426223Y0020046D02*
X0425706Y0020563D01*
X0425706Y0021597D01*
X0426223Y0022114D01*
X0428292Y0020046D01*
X0428809Y0020563D01*
X0428809Y0021597D01*
X0428292Y0022114D01*
X0426223Y0022114D01*
X0426223Y0020046D02*
X0428292Y0020046D01*
X0402386Y0036654D02*
X0397782Y0039724D01*
X0399317Y0041258D02*
X0397782Y0042793D01*
X0402386Y0042793D01*
X0402386Y0041258D02*
X0402386Y0044328D01*
X0402386Y0039724D02*
X0397782Y0036654D01*
X0373022Y0037341D02*
X0372505Y0036824D01*
X0371470Y0036824D01*
X0370953Y0037341D01*
X0371470Y0038375D02*
X0373022Y0038375D01*
X0373022Y0037341D02*
X0373022Y0039409D01*
X0372505Y0039926D01*
X0371470Y0039926D01*
X0370953Y0039409D01*
X0370953Y0038892D01*
X0371470Y0038375D01*
X0369799Y0036824D02*
X0367731Y0036824D01*
X0368765Y0036824D02*
X0368765Y0039926D01*
X0367731Y0038892D01*
X0366576Y0039409D02*
X0366059Y0039926D01*
X0365025Y0039926D01*
X0364508Y0039409D01*
X0364508Y0037341D01*
X0365025Y0036824D01*
X0366059Y0036824D01*
X0366576Y0037341D01*
X0363222Y0038224D02*
X0361153Y0038224D01*
X0362188Y0038224D02*
X0362188Y0041326D01*
X0361153Y0040292D01*
X0359999Y0040292D02*
X0359999Y0040809D01*
X0359482Y0041326D01*
X0358448Y0041326D01*
X0357931Y0040809D01*
X0356776Y0040809D02*
X0356259Y0041326D01*
X0355225Y0041326D01*
X0354708Y0040809D01*
X0354708Y0038741D01*
X0355225Y0038224D01*
X0356259Y0038224D01*
X0356776Y0038741D01*
X0357931Y0038224D02*
X0359999Y0040292D01*
X0359999Y0038224D02*
X0357931Y0038224D01*
X0357678Y0030864D02*
X0359746Y0030864D01*
X0358712Y0030864D02*
X0358712Y0027762D01*
X0356523Y0027762D02*
X0354455Y0027762D01*
X0354455Y0030864D01*
X0356523Y0030864D01*
X0355489Y0029313D02*
X0354455Y0029313D01*
X0353301Y0028796D02*
X0353301Y0028279D01*
X0352783Y0027762D01*
X0351749Y0027762D01*
X0351232Y0028279D01*
X0351749Y0029313D02*
X0351232Y0029830D01*
X0351232Y0030347D01*
X0351749Y0030864D01*
X0352783Y0030864D01*
X0353301Y0030347D01*
X0352783Y0029313D02*
X0353301Y0028796D01*
X0352783Y0029313D02*
X0351749Y0029313D01*
X0350078Y0030864D02*
X0348009Y0030864D01*
X0348009Y0027762D01*
X0350078Y0027762D01*
X0349044Y0029313D02*
X0348009Y0029313D01*
X0346855Y0029313D02*
X0346338Y0028796D01*
X0344787Y0028796D01*
X0345821Y0028796D02*
X0346855Y0027762D01*
X0346855Y0029313D02*
X0346855Y0030347D01*
X0346338Y0030864D01*
X0344787Y0030864D01*
X0344787Y0027762D01*
X0332578Y0028796D02*
X0332578Y0030864D01*
X0332578Y0028796D02*
X0331544Y0027762D01*
X0330509Y0028796D01*
X0330509Y0030864D01*
X0329355Y0030864D02*
X0327287Y0030864D01*
X0327287Y0029313D01*
X0328321Y0029830D01*
X0328838Y0029830D01*
X0329355Y0029313D01*
X0329355Y0028279D01*
X0328838Y0027762D01*
X0327804Y0027762D01*
X0327287Y0028279D01*
X0313301Y0028279D02*
X0312783Y0027762D01*
X0311232Y0027762D01*
X0311232Y0030864D01*
X0312783Y0030864D01*
X0313301Y0030347D01*
X0313301Y0028279D01*
X0310078Y0027762D02*
X0310078Y0030864D01*
X0308009Y0030864D02*
X0310078Y0027762D01*
X0308009Y0027762D02*
X0308009Y0030864D01*
X0306855Y0030347D02*
X0306338Y0030864D01*
X0305304Y0030864D01*
X0304787Y0030347D01*
X0304787Y0028279D01*
X0305304Y0027762D01*
X0306338Y0027762D01*
X0306855Y0028279D01*
X0306855Y0029313D01*
X0305821Y0029313D01*
X0298805Y0035224D02*
X0298805Y0038326D01*
X0297253Y0036775D01*
X0299322Y0036775D01*
X0296099Y0035224D02*
X0294031Y0035224D01*
X0295065Y0035224D02*
X0295065Y0038326D01*
X0294031Y0037292D01*
X0292876Y0037809D02*
X0292876Y0036775D01*
X0292359Y0036258D01*
X0290808Y0036258D01*
X0291842Y0036258D02*
X0292876Y0035224D01*
X0290808Y0035224D02*
X0290808Y0038326D01*
X0292359Y0038326D01*
X0292876Y0037809D01*
X0292876Y0040224D02*
X0291842Y0041258D01*
X0292359Y0041258D02*
X0290808Y0041258D01*
X0290808Y0040224D02*
X0290808Y0043326D01*
X0292359Y0043326D01*
X0292876Y0042809D01*
X0292876Y0041775D01*
X0292359Y0041258D01*
X0294031Y0042292D02*
X0295065Y0043326D01*
X0295065Y0040224D01*
X0294031Y0040224D02*
X0296099Y0040224D01*
X0297253Y0040741D02*
X0297770Y0040224D01*
X0298805Y0040224D01*
X0299322Y0040741D01*
X0299322Y0042809D01*
X0298805Y0043326D01*
X0297770Y0043326D01*
X0297253Y0042809D01*
X0297253Y0042292D01*
X0297770Y0041775D01*
X0299322Y0041775D01*
X0307305Y0040947D02*
X0307305Y0043015D01*
X0308339Y0042498D02*
X0308857Y0043015D01*
X0309891Y0043015D01*
X0310408Y0042498D01*
X0310408Y0041464D01*
X0309891Y0040947D01*
X0308857Y0040947D02*
X0308339Y0041981D01*
X0308339Y0042498D01*
X0308857Y0040947D02*
X0307305Y0040947D01*
X0307822Y0039792D02*
X0307305Y0039275D01*
X0307305Y0038241D01*
X0307822Y0037724D01*
X0309891Y0037724D01*
X0310408Y0038241D01*
X0310408Y0039275D01*
X0309891Y0039792D01*
X0307822Y0039792D01*
X0309374Y0038758D02*
X0310408Y0039792D01*
X0281099Y0039792D02*
X0280582Y0039275D01*
X0281099Y0038758D01*
X0281099Y0038241D01*
X0280582Y0037724D01*
X0279548Y0037724D01*
X0279031Y0038241D01*
X0277876Y0038241D02*
X0277876Y0040309D01*
X0277359Y0040826D01*
X0275808Y0040826D01*
X0275808Y0037724D01*
X0277359Y0037724D01*
X0277876Y0038241D01*
X0279031Y0040309D02*
X0279548Y0040826D01*
X0280582Y0040826D01*
X0281099Y0040309D01*
X0281099Y0039792D01*
X0280582Y0039275D02*
X0280065Y0039275D01*
X0281026Y0029864D02*
X0282061Y0029864D01*
X0282578Y0029347D01*
X0280509Y0027279D01*
X0281026Y0026762D01*
X0282061Y0026762D01*
X0282578Y0027279D01*
X0282578Y0029347D01*
X0281026Y0029864D02*
X0280509Y0029347D01*
X0280509Y0027279D01*
X0279355Y0026762D02*
X0279355Y0028830D01*
X0278321Y0029864D01*
X0277287Y0028830D01*
X0277287Y0026762D01*
X0277287Y0028313D02*
X0279355Y0028313D01*
X0260408Y0040241D02*
X0260408Y0041275D01*
X0259891Y0041792D01*
X0257305Y0041792D01*
X0257822Y0042947D02*
X0257305Y0043464D01*
X0257305Y0044498D01*
X0257822Y0045015D01*
X0258339Y0045015D01*
X0260408Y0042947D01*
X0260408Y0045015D01*
X0260408Y0040241D02*
X0259891Y0039724D01*
X0257305Y0039724D01*
X0247908Y0039464D02*
X0247391Y0038947D01*
X0247908Y0039464D02*
X0247908Y0040498D01*
X0247391Y0041015D01*
X0246357Y0041015D01*
X0245839Y0040498D01*
X0245839Y0039981D01*
X0246357Y0038947D01*
X0244805Y0038947D01*
X0244805Y0041015D01*
X0246357Y0042169D02*
X0246357Y0044238D01*
X0247908Y0043721D02*
X0244805Y0043721D01*
X0246357Y0042169D01*
X0240408Y0041998D02*
X0237305Y0041998D01*
X0238857Y0040447D01*
X0238857Y0042515D01*
X0239891Y0043669D02*
X0237822Y0043669D01*
X0237305Y0044186D01*
X0237305Y0045221D01*
X0237822Y0045738D01*
X0239891Y0043669D01*
X0240408Y0044186D01*
X0240408Y0045221D01*
X0239891Y0045738D01*
X0237822Y0045738D01*
X0233108Y0043774D02*
X0222108Y0043774D01*
X0222108Y0061274D01*
X0233108Y0061274D01*
X0233108Y0043774D01*
X0230408Y0041721D02*
X0229891Y0042238D01*
X0227822Y0042238D01*
X0227305Y0041721D01*
X0227305Y0040686D01*
X0227822Y0040169D01*
X0228339Y0040169D01*
X0228857Y0040686D01*
X0228857Y0042238D01*
X0230408Y0041721D02*
X0230408Y0040686D01*
X0229891Y0040169D01*
X0230408Y0039015D02*
X0230408Y0036947D01*
X0228339Y0039015D01*
X0227822Y0039015D01*
X0227305Y0038498D01*
X0227305Y0037464D01*
X0227822Y0036947D01*
X0227822Y0035792D02*
X0227305Y0035275D01*
X0227305Y0034241D01*
X0227822Y0033724D01*
X0229891Y0033724D01*
X0230408Y0034241D01*
X0230408Y0035275D01*
X0229891Y0035792D01*
X0237305Y0037224D02*
X0237305Y0038775D01*
X0237822Y0039292D01*
X0238857Y0039292D01*
X0239374Y0038775D01*
X0239374Y0037224D01*
X0240408Y0037224D02*
X0237305Y0037224D01*
X0239374Y0038258D02*
X0240408Y0039292D01*
X0244805Y0037275D02*
X0244805Y0036241D01*
X0245322Y0035724D01*
X0247391Y0035724D01*
X0247908Y0036241D01*
X0247908Y0037275D01*
X0247391Y0037792D01*
X0245322Y0037792D02*
X0244805Y0037275D01*
X0215408Y0048241D02*
X0215408Y0048758D01*
X0214891Y0049275D01*
X0212305Y0049275D01*
X0212305Y0048758D02*
X0212305Y0049792D01*
X0212822Y0050947D02*
X0212305Y0051464D01*
X0212305Y0052498D01*
X0212822Y0053015D01*
X0213339Y0053015D01*
X0215408Y0050947D01*
X0215408Y0053015D01*
X0215408Y0048241D02*
X0214891Y0047724D01*
X0218805Y0023015D02*
X0218805Y0020947D01*
X0220357Y0020947D01*
X0219839Y0021981D01*
X0219839Y0022498D01*
X0220357Y0023015D01*
X0221391Y0023015D01*
X0221908Y0022498D01*
X0221908Y0021464D01*
X0221391Y0020947D01*
X0221391Y0019275D02*
X0218805Y0019275D01*
X0218805Y0018758D02*
X0218805Y0019792D01*
X0221391Y0019275D02*
X0221908Y0018758D01*
X0221908Y0018241D01*
X0221391Y0017724D01*
X0227287Y0012330D02*
X0228321Y0013364D01*
X0229355Y0012330D01*
X0229355Y0010262D01*
X0230509Y0010779D02*
X0231026Y0010262D01*
X0232061Y0010262D01*
X0232578Y0010779D01*
X0232578Y0011813D01*
X0232061Y0012330D01*
X0231544Y0012330D01*
X0230509Y0011813D01*
X0230509Y0013364D01*
X0232578Y0013364D01*
X0229355Y0011813D02*
X0227287Y0011813D01*
X0227287Y0012330D02*
X0227287Y0010262D01*
X0294787Y0011296D02*
X0295821Y0010262D01*
X0296855Y0011296D01*
X0296855Y0013364D01*
X0298009Y0013364D02*
X0299044Y0013364D01*
X0298526Y0013364D02*
X0298526Y0010262D01*
X0298009Y0010262D02*
X0299044Y0010262D01*
X0300158Y0010262D02*
X0300158Y0013364D01*
X0302226Y0010262D01*
X0302226Y0013364D01*
X0294787Y0013364D02*
X0294787Y0011296D01*
X0314787Y0010779D02*
X0315304Y0010262D01*
X0316338Y0010262D01*
X0316855Y0010779D01*
X0316855Y0011813D01*
X0315821Y0011813D01*
X0316855Y0012847D02*
X0316338Y0013364D01*
X0315304Y0013364D01*
X0314787Y0012847D01*
X0314787Y0010779D01*
X0318009Y0010262D02*
X0318009Y0013364D01*
X0320078Y0010262D01*
X0320078Y0013364D01*
X0321232Y0013364D02*
X0322783Y0013364D01*
X0323301Y0012847D01*
X0323301Y0010779D01*
X0322783Y0010262D01*
X0321232Y0010262D01*
X0321232Y0013364D01*
X0334787Y0012847D02*
X0335304Y0013364D01*
X0336338Y0013364D01*
X0336855Y0012847D01*
X0336855Y0012330D01*
X0336338Y0011813D01*
X0336855Y0011296D01*
X0336855Y0010779D01*
X0336338Y0010262D01*
X0335304Y0010262D01*
X0334787Y0010779D01*
X0335821Y0011813D02*
X0336338Y0011813D01*
X0338009Y0011296D02*
X0339044Y0010262D01*
X0340078Y0011296D01*
X0340078Y0013364D01*
X0341232Y0012847D02*
X0341749Y0013364D01*
X0342783Y0013364D01*
X0343301Y0012847D01*
X0343301Y0012330D01*
X0342783Y0011813D01*
X0343301Y0011296D01*
X0343301Y0010779D01*
X0342783Y0010262D01*
X0341749Y0010262D01*
X0341232Y0010779D01*
X0342266Y0011813D02*
X0342783Y0011813D01*
X0338009Y0011296D02*
X0338009Y0013364D01*
X0356305Y0018758D02*
X0356305Y0019792D01*
X0356305Y0019275D02*
X0358891Y0019275D01*
X0359408Y0018758D01*
X0359408Y0018241D01*
X0358891Y0017724D01*
X0358891Y0020947D02*
X0359408Y0021464D01*
X0359408Y0022498D01*
X0358891Y0023015D01*
X0358374Y0023015D01*
X0357857Y0022498D01*
X0357857Y0020947D01*
X0358891Y0020947D01*
X0357857Y0020947D02*
X0356822Y0021981D01*
X0356305Y0023015D01*
X0364508Y0028841D02*
X0365025Y0028324D01*
X0366059Y0028324D01*
X0366576Y0028841D01*
X0367731Y0028324D02*
X0369799Y0030392D01*
X0369799Y0030909D01*
X0369282Y0031426D01*
X0368248Y0031426D01*
X0367731Y0030909D01*
X0366576Y0030909D02*
X0366059Y0031426D01*
X0365025Y0031426D01*
X0364508Y0030909D01*
X0364508Y0028841D01*
X0367731Y0028324D02*
X0369799Y0028324D01*
X0370953Y0028841D02*
X0373022Y0030909D01*
X0373022Y0028841D01*
X0372505Y0028324D01*
X0371470Y0028324D01*
X0370953Y0028841D01*
X0370953Y0030909D01*
X0371470Y0031426D01*
X0372505Y0031426D01*
X0373022Y0030909D01*
X0372505Y0044824D02*
X0371470Y0044824D01*
X0370953Y0045341D01*
X0370953Y0045858D01*
X0371470Y0046375D01*
X0372505Y0046375D01*
X0373022Y0045858D01*
X0373022Y0045341D01*
X0372505Y0044824D01*
X0372505Y0046375D02*
X0373022Y0046892D01*
X0373022Y0047409D01*
X0372505Y0047926D01*
X0371470Y0047926D01*
X0370953Y0047409D01*
X0370953Y0046892D01*
X0371470Y0046375D01*
X0369799Y0044824D02*
X0367731Y0044824D01*
X0368765Y0044824D02*
X0368765Y0047926D01*
X0367731Y0046892D01*
X0366576Y0047409D02*
X0366059Y0047926D01*
X0365025Y0047926D01*
X0364508Y0047409D01*
X0364508Y0045341D01*
X0365025Y0044824D01*
X0366059Y0044824D01*
X0366576Y0045341D01*
X0363222Y0045724D02*
X0361153Y0045724D01*
X0363222Y0047792D01*
X0363222Y0048309D01*
X0362705Y0048826D01*
X0361670Y0048826D01*
X0361153Y0048309D01*
X0359999Y0048309D02*
X0359999Y0047792D01*
X0359482Y0047275D01*
X0359999Y0046758D01*
X0359999Y0046241D01*
X0359482Y0045724D01*
X0358448Y0045724D01*
X0357931Y0046241D01*
X0356776Y0045724D02*
X0355742Y0046758D01*
X0356259Y0046758D02*
X0354708Y0046758D01*
X0354708Y0045724D02*
X0354708Y0048826D01*
X0356259Y0048826D01*
X0356776Y0048309D01*
X0356776Y0047275D01*
X0356259Y0046758D01*
X0357931Y0048309D02*
X0358448Y0048826D01*
X0359482Y0048826D01*
X0359999Y0048309D01*
X0359482Y0047275D02*
X0358965Y0047275D01*
X0359482Y0053224D02*
X0358448Y0053224D01*
X0357931Y0053741D01*
X0356776Y0053224D02*
X0355742Y0054258D01*
X0356259Y0054258D02*
X0354708Y0054258D01*
X0354708Y0053224D02*
X0354708Y0056326D01*
X0356259Y0056326D01*
X0356776Y0055809D01*
X0356776Y0054775D01*
X0356259Y0054258D01*
X0357931Y0055809D02*
X0358448Y0056326D01*
X0359482Y0056326D01*
X0359999Y0055809D01*
X0359999Y0055292D01*
X0359482Y0054775D01*
X0359999Y0054258D01*
X0359999Y0053741D01*
X0359482Y0053224D01*
X0359482Y0054775D02*
X0358965Y0054775D01*
X0361153Y0055292D02*
X0362188Y0056326D01*
X0362188Y0053224D01*
X0363222Y0053224D02*
X0361153Y0053224D01*
X0364508Y0053841D02*
X0365025Y0053324D01*
X0366059Y0053324D01*
X0366576Y0053841D01*
X0367731Y0053324D02*
X0369799Y0053324D01*
X0368765Y0053324D02*
X0368765Y0056426D01*
X0367731Y0055392D01*
X0366576Y0055909D02*
X0366059Y0056426D01*
X0365025Y0056426D01*
X0364508Y0055909D01*
X0364508Y0053841D01*
X0370953Y0053841D02*
X0370953Y0053324D01*
X0370953Y0053841D02*
X0373022Y0055909D01*
X0373022Y0056426D01*
X0370953Y0056426D01*
X0362705Y0060724D02*
X0362705Y0063826D01*
X0361153Y0062275D01*
X0363222Y0062275D01*
X0359999Y0060724D02*
X0357931Y0060724D01*
X0358965Y0060724D02*
X0358965Y0063826D01*
X0357931Y0062792D01*
X0356776Y0063309D02*
X0356259Y0063826D01*
X0355225Y0063826D01*
X0354708Y0063309D01*
X0354708Y0061241D01*
X0355225Y0060724D01*
X0356259Y0060724D01*
X0356776Y0061241D01*
X0364508Y0067841D02*
X0365025Y0067324D01*
X0366059Y0067324D01*
X0366576Y0067841D01*
X0367731Y0067324D02*
X0369799Y0067324D01*
X0368765Y0067324D02*
X0368765Y0070426D01*
X0367731Y0069392D01*
X0366576Y0069909D02*
X0366059Y0070426D01*
X0365025Y0070426D01*
X0364508Y0069909D01*
X0364508Y0067841D01*
X0370953Y0067841D02*
X0371470Y0067324D01*
X0372505Y0067324D01*
X0373022Y0067841D01*
X0373022Y0068358D01*
X0372505Y0068875D01*
X0371988Y0068875D01*
X0372505Y0068875D02*
X0373022Y0069392D01*
X0373022Y0069909D01*
X0372505Y0070426D01*
X0371470Y0070426D01*
X0370953Y0069909D01*
X0370953Y0075324D02*
X0373022Y0075324D01*
X0371988Y0075324D02*
X0371988Y0078426D01*
X0370953Y0077392D01*
X0369799Y0075324D02*
X0367731Y0075324D01*
X0368765Y0075324D02*
X0368765Y0078426D01*
X0367731Y0077392D01*
X0366576Y0077909D02*
X0366059Y0078426D01*
X0365025Y0078426D01*
X0364508Y0077909D01*
X0364508Y0075841D01*
X0365025Y0075324D01*
X0366059Y0075324D01*
X0366576Y0075841D01*
X0366059Y0085324D02*
X0366576Y0085841D01*
X0366059Y0085324D02*
X0365025Y0085324D01*
X0364508Y0085841D01*
X0364508Y0087909D01*
X0365025Y0088426D01*
X0366059Y0088426D01*
X0366576Y0087909D01*
X0367731Y0087909D02*
X0368248Y0088426D01*
X0369282Y0088426D01*
X0369799Y0087909D01*
X0369799Y0087392D01*
X0369282Y0086875D01*
X0369799Y0086358D01*
X0369799Y0085841D01*
X0369282Y0085324D01*
X0368248Y0085324D01*
X0367731Y0085841D01*
X0368765Y0086875D02*
X0369282Y0086875D01*
X0370953Y0085841D02*
X0370953Y0085324D01*
X0370953Y0085841D02*
X0373022Y0087909D01*
X0373022Y0088426D01*
X0370953Y0088426D01*
X0363554Y0089041D02*
X0363036Y0088524D01*
X0362002Y0088524D01*
X0361485Y0089041D01*
X0363554Y0091109D01*
X0363554Y0089041D01*
X0363554Y0091109D02*
X0363036Y0091626D01*
X0362002Y0091626D01*
X0361485Y0091109D01*
X0361485Y0089041D01*
X0360331Y0088524D02*
X0358262Y0088524D01*
X0359297Y0088524D02*
X0359297Y0091626D01*
X0358262Y0090592D01*
X0357108Y0091109D02*
X0356591Y0091626D01*
X0355557Y0091626D01*
X0355040Y0091109D01*
X0355040Y0089041D01*
X0355557Y0088524D01*
X0356591Y0088524D01*
X0357108Y0089041D01*
X0364508Y0096341D02*
X0365025Y0095824D01*
X0366059Y0095824D01*
X0366576Y0096341D01*
X0367731Y0096341D02*
X0368248Y0095824D01*
X0369282Y0095824D01*
X0369799Y0096341D01*
X0369799Y0096858D01*
X0369282Y0097375D01*
X0368765Y0097375D01*
X0369282Y0097375D02*
X0369799Y0097892D01*
X0369799Y0098409D01*
X0369282Y0098926D01*
X0368248Y0098926D01*
X0367731Y0098409D01*
X0366576Y0098409D02*
X0366059Y0098926D01*
X0365025Y0098926D01*
X0364508Y0098409D01*
X0364508Y0096341D01*
X0363722Y0098724D02*
X0361653Y0098724D01*
X0363722Y0100792D01*
X0363722Y0101309D01*
X0363205Y0101826D01*
X0362170Y0101826D01*
X0361653Y0101309D01*
X0360499Y0101309D02*
X0360499Y0100792D01*
X0359982Y0100275D01*
X0360499Y0099758D01*
X0360499Y0099241D01*
X0359982Y0098724D01*
X0358948Y0098724D01*
X0358431Y0099241D01*
X0357276Y0099241D02*
X0356759Y0098724D01*
X0355725Y0098724D01*
X0355208Y0099241D01*
X0355208Y0101309D01*
X0355725Y0101826D01*
X0356759Y0101826D01*
X0357276Y0101309D01*
X0358431Y0101309D02*
X0358948Y0101826D01*
X0359982Y0101826D01*
X0360499Y0101309D01*
X0359982Y0100275D02*
X0359465Y0100275D01*
X0359982Y0106224D02*
X0358948Y0106224D01*
X0358431Y0106741D01*
X0357276Y0106741D02*
X0356759Y0106224D01*
X0355725Y0106224D01*
X0355208Y0106741D01*
X0355208Y0108809D01*
X0355725Y0109326D01*
X0356759Y0109326D01*
X0357276Y0108809D01*
X0358431Y0108809D02*
X0358948Y0109326D01*
X0359982Y0109326D01*
X0360499Y0108809D01*
X0360499Y0108292D01*
X0359982Y0107775D01*
X0360499Y0107258D01*
X0360499Y0106741D01*
X0359982Y0106224D01*
X0359982Y0107775D02*
X0359465Y0107775D01*
X0361653Y0108292D02*
X0362170Y0107775D01*
X0363722Y0107775D01*
X0364508Y0107941D02*
X0365025Y0107424D01*
X0366059Y0107424D01*
X0366576Y0107941D01*
X0367731Y0107941D02*
X0368248Y0107424D01*
X0369282Y0107424D01*
X0369799Y0107941D01*
X0369799Y0108458D01*
X0369282Y0108975D01*
X0368765Y0108975D01*
X0369282Y0108975D02*
X0369799Y0109492D01*
X0369799Y0110009D01*
X0369282Y0110526D01*
X0368248Y0110526D01*
X0367731Y0110009D01*
X0366576Y0110009D02*
X0366059Y0110526D01*
X0365025Y0110526D01*
X0364508Y0110009D01*
X0364508Y0107941D01*
X0363722Y0108809D02*
X0363205Y0109326D01*
X0362170Y0109326D01*
X0361653Y0108809D01*
X0361653Y0108292D01*
X0361653Y0106741D02*
X0362170Y0106224D01*
X0363205Y0106224D01*
X0363722Y0106741D01*
X0363722Y0108809D01*
X0363536Y0113524D02*
X0362502Y0113524D01*
X0361985Y0114041D01*
X0360831Y0113524D02*
X0358762Y0113524D01*
X0360831Y0115592D01*
X0360831Y0116109D01*
X0360314Y0116626D01*
X0359279Y0116626D01*
X0358762Y0116109D01*
X0357608Y0116109D02*
X0357091Y0116626D01*
X0356057Y0116626D01*
X0355540Y0116109D01*
X0355540Y0114041D01*
X0356057Y0113524D01*
X0357091Y0113524D01*
X0357608Y0114041D01*
X0361985Y0116109D02*
X0362502Y0116626D01*
X0363536Y0116626D01*
X0364054Y0116109D01*
X0364054Y0115592D01*
X0363536Y0115075D01*
X0364054Y0114558D01*
X0364054Y0114041D01*
X0363536Y0113524D01*
X0363536Y0115075D02*
X0363019Y0115075D01*
X0368508Y0116724D02*
X0368508Y0119826D01*
X0370059Y0119826D01*
X0370576Y0119309D01*
X0370576Y0118275D01*
X0370059Y0117758D01*
X0368508Y0117758D01*
X0369542Y0117758D02*
X0370576Y0116724D01*
X0371731Y0116724D02*
X0371731Y0117241D01*
X0373799Y0119309D01*
X0373799Y0119826D01*
X0371731Y0119826D01*
X0372505Y0110526D02*
X0370953Y0108975D01*
X0373022Y0108975D01*
X0372505Y0107424D02*
X0372505Y0110526D01*
X0373022Y0098926D02*
X0370953Y0098926D01*
X0370953Y0097375D01*
X0371988Y0097892D01*
X0372505Y0097892D01*
X0373022Y0097375D01*
X0373022Y0096341D01*
X0372505Y0095824D01*
X0371470Y0095824D01*
X0370953Y0096341D01*
X0339054Y0083109D02*
X0338536Y0083626D01*
X0337502Y0083626D01*
X0336985Y0083109D01*
X0339054Y0083109D02*
X0339054Y0082592D01*
X0336985Y0080524D01*
X0339054Y0080524D01*
X0335831Y0080524D02*
X0333762Y0080524D01*
X0334797Y0080524D02*
X0334797Y0083626D01*
X0333762Y0082592D01*
X0332608Y0083109D02*
X0332091Y0083626D01*
X0331057Y0083626D01*
X0330540Y0083109D01*
X0330540Y0081041D01*
X0331057Y0080524D01*
X0332091Y0080524D01*
X0332608Y0081041D01*
X0322908Y0081447D02*
X0322908Y0083515D01*
X0322908Y0082481D02*
X0319805Y0082481D01*
X0320839Y0081447D01*
X0320322Y0080292D02*
X0319805Y0079775D01*
X0319805Y0078741D01*
X0320322Y0078224D01*
X0322391Y0078224D01*
X0322908Y0078741D01*
X0322908Y0079775D01*
X0322391Y0080292D01*
X0322391Y0084669D02*
X0321357Y0084669D01*
X0321357Y0086221D01*
X0321874Y0086738D01*
X0322391Y0086738D01*
X0322908Y0086221D01*
X0322908Y0085186D01*
X0322391Y0084669D01*
X0321357Y0084669D02*
X0320322Y0085703D01*
X0319805Y0086738D01*
X0321322Y0088724D02*
X0323391Y0088724D01*
X0323908Y0089241D01*
X0323908Y0090275D01*
X0323391Y0090792D01*
X0323391Y0091947D02*
X0323908Y0092464D01*
X0323908Y0093498D01*
X0323391Y0094015D01*
X0322357Y0094015D01*
X0321839Y0093498D01*
X0321839Y0092981D01*
X0322357Y0091947D01*
X0320805Y0091947D01*
X0320805Y0094015D01*
X0320805Y0095169D02*
X0322357Y0095169D01*
X0321839Y0096203D01*
X0321839Y0096721D01*
X0322357Y0097238D01*
X0323391Y0097238D01*
X0323908Y0096721D01*
X0323908Y0095686D01*
X0323391Y0095169D01*
X0320805Y0095169D02*
X0320805Y0097238D01*
X0316408Y0097238D02*
X0316408Y0095169D01*
X0314339Y0097238D01*
X0313822Y0097238D01*
X0313305Y0096721D01*
X0313305Y0095686D01*
X0313822Y0095169D01*
X0313822Y0094015D02*
X0313305Y0093498D01*
X0313305Y0092464D01*
X0313822Y0091947D01*
X0313822Y0090792D02*
X0314857Y0090792D01*
X0315374Y0090275D01*
X0315374Y0088724D01*
X0316408Y0088724D02*
X0313305Y0088724D01*
X0313305Y0090275D01*
X0313822Y0090792D01*
X0315374Y0089758D02*
X0316408Y0090792D01*
X0316408Y0091947D02*
X0314339Y0094015D01*
X0313822Y0094015D01*
X0316408Y0094015D02*
X0316408Y0091947D01*
X0320805Y0090275D02*
X0320805Y0089241D01*
X0321322Y0088724D01*
X0320805Y0090275D02*
X0321322Y0090792D01*
X0308908Y0090275D02*
X0308391Y0090792D01*
X0308908Y0090275D02*
X0308908Y0089241D01*
X0308391Y0088724D01*
X0306322Y0088724D01*
X0305805Y0089241D01*
X0305805Y0090275D01*
X0306322Y0090792D01*
X0307357Y0091947D02*
X0307357Y0094015D01*
X0307874Y0095169D02*
X0307357Y0095686D01*
X0307357Y0096721D01*
X0307874Y0097238D01*
X0308391Y0097238D01*
X0308908Y0096721D01*
X0308908Y0095686D01*
X0308391Y0095169D01*
X0307874Y0095169D01*
X0307357Y0095686D02*
X0306839Y0095169D01*
X0306322Y0095169D01*
X0305805Y0095686D01*
X0305805Y0096721D01*
X0306322Y0097238D01*
X0306839Y0097238D01*
X0307357Y0096721D01*
X0308908Y0093498D02*
X0305805Y0093498D01*
X0307357Y0091947D01*
X0301408Y0093498D02*
X0298305Y0093498D01*
X0299857Y0091947D01*
X0299857Y0094015D01*
X0299857Y0095169D02*
X0299857Y0096721D01*
X0300374Y0097238D01*
X0300891Y0097238D01*
X0301408Y0096721D01*
X0301408Y0095686D01*
X0300891Y0095169D01*
X0299857Y0095169D01*
X0298822Y0096203D01*
X0298305Y0097238D01*
X0298822Y0090792D02*
X0298305Y0090275D01*
X0298305Y0089241D01*
X0298822Y0088724D01*
X0300891Y0088724D01*
X0301408Y0089241D01*
X0301408Y0090275D01*
X0300891Y0090792D01*
X0297391Y0086238D02*
X0297908Y0085721D01*
X0297908Y0084686D01*
X0297391Y0084169D01*
X0296357Y0084169D02*
X0295839Y0085203D01*
X0295839Y0085721D01*
X0296357Y0086238D01*
X0297391Y0086238D01*
X0296357Y0084169D02*
X0294805Y0084169D01*
X0294805Y0086238D01*
X0290408Y0085221D02*
X0289891Y0085738D01*
X0289374Y0085738D01*
X0288857Y0085221D01*
X0288857Y0083669D01*
X0289891Y0083669D01*
X0290408Y0084186D01*
X0290408Y0085221D01*
X0288857Y0083669D02*
X0287822Y0084703D01*
X0287305Y0085738D01*
X0287822Y0082515D02*
X0287305Y0081998D01*
X0287305Y0080964D01*
X0287822Y0080447D01*
X0287822Y0079292D02*
X0288857Y0079292D01*
X0289374Y0078775D01*
X0289374Y0077224D01*
X0290408Y0077224D02*
X0287305Y0077224D01*
X0287305Y0078775D01*
X0287822Y0079292D01*
X0289374Y0078258D02*
X0290408Y0079292D01*
X0290408Y0080447D02*
X0288339Y0082515D01*
X0287822Y0082515D01*
X0290408Y0082515D02*
X0290408Y0080447D01*
X0294805Y0079275D02*
X0294805Y0078241D01*
X0295322Y0077724D01*
X0297391Y0077724D01*
X0297908Y0078241D01*
X0297908Y0079275D01*
X0297391Y0079792D01*
X0297908Y0080947D02*
X0297908Y0083015D01*
X0297908Y0081981D02*
X0294805Y0081981D01*
X0295839Y0080947D01*
X0295322Y0079792D02*
X0294805Y0079275D01*
X0302305Y0080724D02*
X0302305Y0082275D01*
X0302822Y0082792D01*
X0304891Y0082792D01*
X0305408Y0082275D01*
X0305408Y0080724D01*
X0302305Y0080724D01*
X0303857Y0083947D02*
X0303857Y0085498D01*
X0304374Y0086015D01*
X0304891Y0086015D01*
X0305408Y0085498D01*
X0305408Y0084464D01*
X0304891Y0083947D01*
X0303857Y0083947D01*
X0302822Y0084981D01*
X0302305Y0086015D01*
X0310805Y0086015D02*
X0310805Y0083947D01*
X0312357Y0083947D01*
X0311839Y0084981D01*
X0311839Y0085498D01*
X0312357Y0086015D01*
X0313391Y0086015D01*
X0313908Y0085498D01*
X0313908Y0084464D01*
X0313391Y0083947D01*
X0313391Y0082792D02*
X0311322Y0082792D01*
X0310805Y0082275D01*
X0310805Y0080724D01*
X0313908Y0080724D01*
X0313908Y0082275D01*
X0313391Y0082792D01*
X0277408Y0080447D02*
X0276891Y0080447D01*
X0274822Y0082515D01*
X0274305Y0082515D01*
X0274305Y0080447D01*
X0274822Y0079292D02*
X0276891Y0079292D01*
X0277408Y0078775D01*
X0277408Y0077741D01*
X0276891Y0077224D01*
X0274822Y0077224D01*
X0274305Y0077741D01*
X0274305Y0078775D01*
X0274822Y0079292D01*
X0276374Y0078258D02*
X0277408Y0079292D01*
X0269408Y0079292D02*
X0268374Y0078258D01*
X0268374Y0078775D02*
X0268374Y0077224D01*
X0269408Y0077224D02*
X0266305Y0077224D01*
X0266305Y0078775D01*
X0266822Y0079292D01*
X0267857Y0079292D01*
X0268374Y0078775D01*
X0269408Y0080447D02*
X0267339Y0082515D01*
X0266822Y0082515D01*
X0266305Y0081998D01*
X0266305Y0080964D01*
X0266822Y0080447D01*
X0269408Y0080447D02*
X0269408Y0082515D01*
X0268891Y0083669D02*
X0269408Y0084186D01*
X0269408Y0085221D01*
X0268891Y0085738D01*
X0266822Y0085738D01*
X0266305Y0085221D01*
X0266305Y0084186D01*
X0266822Y0083669D01*
X0267339Y0083669D01*
X0267857Y0084186D01*
X0267857Y0085738D01*
X0262908Y0085221D02*
X0262908Y0084186D01*
X0262391Y0083669D01*
X0260322Y0085738D01*
X0262391Y0085738D01*
X0262908Y0085221D01*
X0262391Y0083669D02*
X0260322Y0083669D01*
X0259805Y0084186D01*
X0259805Y0085221D01*
X0260322Y0085738D01*
X0260322Y0082515D02*
X0260839Y0082515D01*
X0261357Y0081998D01*
X0261874Y0082515D01*
X0262391Y0082515D01*
X0262908Y0081998D01*
X0262908Y0080964D01*
X0262391Y0080447D01*
X0262908Y0079292D02*
X0261874Y0078258D01*
X0261874Y0078775D02*
X0261874Y0077224D01*
X0262908Y0077224D02*
X0259805Y0077224D01*
X0259805Y0078775D01*
X0260322Y0079292D01*
X0261357Y0079292D01*
X0261874Y0078775D01*
X0260322Y0080447D02*
X0259805Y0080964D01*
X0259805Y0081998D01*
X0260322Y0082515D01*
X0261357Y0081998D02*
X0261357Y0081481D01*
X0255408Y0080724D02*
X0255408Y0082275D01*
X0254891Y0082792D01*
X0252822Y0082792D01*
X0252305Y0082275D01*
X0252305Y0080724D01*
X0255408Y0080724D01*
X0255408Y0083947D02*
X0254891Y0083947D01*
X0252822Y0086015D01*
X0252305Y0086015D01*
X0252305Y0083947D01*
X0246908Y0084186D02*
X0246391Y0083669D01*
X0246908Y0084186D02*
X0246908Y0085221D01*
X0246391Y0085738D01*
X0244322Y0085738D01*
X0243805Y0085221D01*
X0243805Y0084186D01*
X0244322Y0083669D01*
X0244839Y0083669D01*
X0245357Y0084186D01*
X0245357Y0085738D01*
X0245357Y0082515D02*
X0245357Y0080447D01*
X0243805Y0081998D01*
X0246908Y0081998D01*
X0246391Y0079292D02*
X0246908Y0078775D01*
X0246908Y0077741D01*
X0246391Y0077224D01*
X0244322Y0077224D01*
X0243805Y0077741D01*
X0243805Y0078775D01*
X0244322Y0079292D01*
X0240408Y0078775D02*
X0239891Y0079292D01*
X0240408Y0078775D02*
X0240408Y0077741D01*
X0239891Y0077224D01*
X0237822Y0077224D01*
X0237305Y0077741D01*
X0237305Y0078775D01*
X0237822Y0079292D01*
X0238857Y0080447D02*
X0238857Y0082515D01*
X0238857Y0083669D02*
X0238339Y0084703D01*
X0238339Y0085221D01*
X0238857Y0085738D01*
X0239891Y0085738D01*
X0240408Y0085221D01*
X0240408Y0084186D01*
X0239891Y0083669D01*
X0238857Y0083669D02*
X0237305Y0083669D01*
X0237305Y0085738D01*
X0237305Y0081998D02*
X0238857Y0080447D01*
X0240408Y0081998D02*
X0237305Y0081998D01*
X0232908Y0082515D02*
X0232908Y0080447D01*
X0230839Y0082515D01*
X0230322Y0082515D01*
X0229805Y0081998D01*
X0229805Y0080964D01*
X0230322Y0080447D01*
X0230322Y0079292D02*
X0229805Y0078775D01*
X0229805Y0077741D01*
X0230322Y0077224D01*
X0232391Y0077224D01*
X0232908Y0077741D01*
X0232908Y0078775D01*
X0232391Y0079292D01*
X0232391Y0083669D02*
X0231874Y0083669D01*
X0231357Y0084186D01*
X0231357Y0085221D01*
X0231874Y0085738D01*
X0232391Y0085738D01*
X0232908Y0085221D01*
X0232908Y0084186D01*
X0232391Y0083669D01*
X0231357Y0084186D02*
X0230839Y0083669D01*
X0230322Y0083669D01*
X0229805Y0084186D01*
X0229805Y0085221D01*
X0230322Y0085738D01*
X0230839Y0085738D01*
X0231357Y0085221D01*
X0225408Y0085221D02*
X0222305Y0085221D01*
X0223857Y0083669D01*
X0223857Y0085738D01*
X0223857Y0082515D02*
X0223857Y0080447D01*
X0222305Y0081998D01*
X0225408Y0081998D01*
X0224891Y0079292D02*
X0225408Y0078775D01*
X0225408Y0077741D01*
X0224891Y0077224D01*
X0222822Y0077224D01*
X0222305Y0077741D01*
X0222305Y0078775D01*
X0222822Y0079292D01*
X0187531Y0102224D02*
X0187531Y0102741D01*
X0189599Y0104809D01*
X0189599Y0105326D01*
X0187531Y0105326D01*
X0186376Y0105326D02*
X0185342Y0105326D01*
X0185859Y0105326D02*
X0185859Y0102741D01*
X0185342Y0102224D01*
X0184825Y0102224D01*
X0184308Y0102741D01*
X0204284Y0104779D02*
X0204801Y0104262D01*
X0206870Y0104262D01*
X0207387Y0104779D01*
X0207387Y0105813D01*
X0206870Y0106330D01*
X0205835Y0106330D01*
X0205835Y0105296D01*
X0204801Y0106330D02*
X0204284Y0105813D01*
X0204284Y0104779D01*
X0204284Y0107484D02*
X0207387Y0109553D01*
X0204284Y0109553D01*
X0204284Y0110707D02*
X0204284Y0112258D01*
X0204801Y0112775D01*
X0206870Y0112775D01*
X0207387Y0112258D01*
X0207387Y0110707D01*
X0204284Y0110707D01*
X0204284Y0107484D02*
X0207387Y0107484D01*
X0207387Y0115262D02*
X0204284Y0115262D01*
X0205318Y0116296D01*
X0204284Y0117330D01*
X0207387Y0117330D01*
X0206870Y0118484D02*
X0207387Y0119001D01*
X0207387Y0120036D01*
X0206870Y0120553D01*
X0204801Y0120553D01*
X0204284Y0120036D01*
X0204284Y0119001D01*
X0204801Y0118484D01*
X0206870Y0118484D01*
X0206870Y0121707D02*
X0207387Y0122224D01*
X0207387Y0123258D01*
X0206870Y0123775D01*
X0206352Y0123775D01*
X0205835Y0123258D01*
X0205835Y0122224D01*
X0205318Y0121707D01*
X0204801Y0121707D01*
X0204284Y0122224D01*
X0204284Y0123258D01*
X0204801Y0123775D01*
X0204284Y0124930D02*
X0204284Y0125964D01*
X0204284Y0125447D02*
X0207387Y0125447D01*
X0207387Y0124930D02*
X0207387Y0125964D01*
X0207387Y0128762D02*
X0204284Y0128762D01*
X0207387Y0130830D01*
X0204284Y0130830D01*
X0204801Y0131984D02*
X0206870Y0131984D01*
X0207387Y0132501D01*
X0207387Y0133536D01*
X0206870Y0134053D01*
X0204801Y0134053D02*
X0204284Y0133536D01*
X0204284Y0132501D01*
X0204801Y0131984D01*
X0224808Y0140724D02*
X0224808Y0143826D01*
X0226359Y0143826D01*
X0226876Y0143309D01*
X0226876Y0142275D01*
X0226359Y0141758D01*
X0224808Y0141758D01*
X0225842Y0141758D02*
X0226876Y0140724D01*
X0228031Y0141241D02*
X0228548Y0140724D01*
X0229582Y0140724D01*
X0230099Y0141241D01*
X0230099Y0141758D01*
X0229582Y0142275D01*
X0229065Y0142275D01*
X0229582Y0142275D02*
X0230099Y0142792D01*
X0230099Y0143309D01*
X0229582Y0143826D01*
X0228548Y0143826D01*
X0228031Y0143309D01*
X0234808Y0143826D02*
X0234808Y0140724D01*
X0234808Y0141758D02*
X0236359Y0141758D01*
X0236876Y0142275D01*
X0236876Y0143309D01*
X0236359Y0143826D01*
X0234808Y0143826D01*
X0235842Y0141758D02*
X0236876Y0140724D01*
X0238031Y0141241D02*
X0238548Y0140724D01*
X0239582Y0140724D01*
X0240099Y0141241D01*
X0240099Y0141758D01*
X0239582Y0142275D01*
X0239065Y0142275D01*
X0239582Y0142275D02*
X0240099Y0142792D01*
X0240099Y0143309D01*
X0239582Y0143826D01*
X0238548Y0143826D01*
X0238031Y0143309D01*
X0241253Y0143826D02*
X0243322Y0143826D01*
X0243322Y0143309D01*
X0241253Y0141241D01*
X0241253Y0140724D01*
X0242301Y0136924D02*
X0241784Y0136407D01*
X0241784Y0135373D01*
X0242301Y0134856D01*
X0244370Y0134856D01*
X0244887Y0135373D01*
X0244887Y0136407D01*
X0244370Y0136924D01*
X0242301Y0136924D01*
X0242301Y0133701D02*
X0241784Y0133184D01*
X0241784Y0132150D01*
X0242301Y0131633D01*
X0242818Y0131633D01*
X0243335Y0132150D01*
X0243335Y0133184D01*
X0243852Y0133701D01*
X0244370Y0133701D01*
X0244887Y0133184D01*
X0244887Y0132150D01*
X0244370Y0131633D01*
X0244887Y0130519D02*
X0244887Y0129484D01*
X0244887Y0130001D02*
X0241784Y0130001D01*
X0241784Y0129484D02*
X0241784Y0130519D01*
X0241784Y0128330D02*
X0244887Y0128330D01*
X0244887Y0126262D02*
X0241784Y0126262D01*
X0242818Y0127296D01*
X0241784Y0128330D01*
X0241784Y0124275D02*
X0243852Y0122207D01*
X0243335Y0122724D02*
X0244887Y0124275D01*
X0244887Y0122207D02*
X0241784Y0122207D01*
X0242301Y0121053D02*
X0241784Y0120536D01*
X0241784Y0119501D01*
X0242301Y0118984D01*
X0244370Y0118984D01*
X0244887Y0119501D01*
X0244887Y0120536D01*
X0244370Y0121053D01*
X0244370Y0117830D02*
X0243852Y0117830D01*
X0243335Y0117313D01*
X0243335Y0116279D01*
X0242818Y0115762D01*
X0242301Y0115762D01*
X0241784Y0116279D01*
X0241784Y0117313D01*
X0242301Y0117830D01*
X0244370Y0117830D02*
X0244887Y0117313D01*
X0244887Y0116279D01*
X0244370Y0115762D01*
X0244370Y0113053D02*
X0244887Y0112536D01*
X0244887Y0111501D01*
X0244370Y0110984D01*
X0242301Y0110984D01*
X0241784Y0111501D01*
X0241784Y0112536D01*
X0242301Y0113053D01*
X0241784Y0109830D02*
X0244887Y0109830D01*
X0241784Y0107762D01*
X0244887Y0107762D01*
X0247308Y0106826D02*
X0248859Y0106826D01*
X0249376Y0106309D01*
X0249376Y0105275D01*
X0248859Y0104758D01*
X0247308Y0104758D01*
X0248342Y0104758D02*
X0249376Y0103724D01*
X0250531Y0103724D02*
X0252599Y0105792D01*
X0252599Y0106309D01*
X0252082Y0106826D01*
X0251048Y0106826D01*
X0250531Y0106309D01*
X0250531Y0103724D02*
X0252599Y0103724D01*
X0253753Y0104241D02*
X0255822Y0106309D01*
X0255822Y0104241D01*
X0255305Y0103724D01*
X0254270Y0103724D01*
X0253753Y0104241D01*
X0253753Y0106309D01*
X0254270Y0106826D01*
X0255305Y0106826D01*
X0255822Y0106309D01*
X0247308Y0106826D02*
X0247308Y0103724D01*
X0262305Y0117724D02*
X0264891Y0117724D01*
X0265408Y0118241D01*
X0265408Y0119275D01*
X0264891Y0119792D01*
X0262305Y0119792D01*
X0263857Y0120947D02*
X0262305Y0122498D01*
X0265408Y0122498D01*
X0263857Y0123015D02*
X0263857Y0120947D01*
X0263374Y0126224D02*
X0263374Y0127775D01*
X0262857Y0128292D01*
X0261822Y0128292D01*
X0261305Y0127775D01*
X0261305Y0126224D01*
X0264408Y0126224D01*
X0263374Y0127258D02*
X0264408Y0128292D01*
X0264408Y0129447D02*
X0264408Y0131515D01*
X0264408Y0130481D02*
X0261305Y0130481D01*
X0262339Y0129447D01*
X0261822Y0132669D02*
X0261305Y0133186D01*
X0261305Y0134221D01*
X0261822Y0134738D01*
X0262339Y0134738D01*
X0264408Y0132669D01*
X0264408Y0134738D01*
X0258305Y0146224D02*
X0258305Y0149326D01*
X0256753Y0147775D01*
X0258822Y0147775D01*
X0255599Y0148292D02*
X0255599Y0148809D01*
X0255082Y0149326D01*
X0254048Y0149326D01*
X0253531Y0148809D01*
X0252376Y0148809D02*
X0252376Y0147775D01*
X0251859Y0147258D01*
X0250308Y0147258D01*
X0251342Y0147258D02*
X0252376Y0146224D01*
X0253531Y0146224D02*
X0255599Y0148292D01*
X0255599Y0146224D02*
X0253531Y0146224D01*
X0252376Y0148809D02*
X0251859Y0149326D01*
X0250308Y0149326D01*
X0250308Y0146224D01*
X0267308Y0147241D02*
X0267825Y0146724D01*
X0268859Y0146724D01*
X0269376Y0147241D01*
X0270531Y0146724D02*
X0272599Y0148792D01*
X0272599Y0149309D01*
X0272082Y0149826D01*
X0271048Y0149826D01*
X0270531Y0149309D01*
X0269376Y0149309D02*
X0268859Y0149826D01*
X0267825Y0149826D01*
X0267308Y0149309D01*
X0267308Y0147241D01*
X0270531Y0146724D02*
X0272599Y0146724D01*
X0273753Y0146724D02*
X0275822Y0148792D01*
X0275822Y0149309D01*
X0275305Y0149826D01*
X0274270Y0149826D01*
X0273753Y0149309D01*
X0273753Y0146724D02*
X0275822Y0146724D01*
X0267082Y0155224D02*
X0266048Y0155224D01*
X0265531Y0155741D01*
X0265531Y0156775D02*
X0266565Y0157292D01*
X0267082Y0157292D01*
X0267599Y0156775D01*
X0267599Y0155741D01*
X0267082Y0155224D01*
X0265531Y0156775D02*
X0265531Y0158326D01*
X0267599Y0158326D01*
X0264376Y0158326D02*
X0264376Y0155741D01*
X0263859Y0155224D01*
X0262825Y0155224D01*
X0262308Y0155741D01*
X0262308Y0158326D01*
X0255822Y0158309D02*
X0255822Y0156241D01*
X0255305Y0155724D01*
X0254270Y0155724D01*
X0253753Y0156241D01*
X0255822Y0158309D01*
X0255305Y0158826D01*
X0254270Y0158826D01*
X0253753Y0158309D01*
X0253753Y0156241D01*
X0252599Y0155724D02*
X0250531Y0155724D01*
X0251565Y0155724D02*
X0251565Y0158826D01*
X0250531Y0157792D01*
X0249376Y0157275D02*
X0248859Y0156758D01*
X0247308Y0156758D01*
X0248342Y0156758D02*
X0249376Y0155724D01*
X0249376Y0157275D02*
X0249376Y0158309D01*
X0248859Y0158826D01*
X0247308Y0158826D01*
X0247308Y0155724D01*
X0219408Y0163241D02*
X0218891Y0162724D01*
X0216305Y0162724D01*
X0216305Y0164792D02*
X0218891Y0164792D01*
X0219408Y0164275D01*
X0219408Y0163241D01*
X0218891Y0165947D02*
X0219408Y0166464D01*
X0219408Y0167498D01*
X0218891Y0168015D01*
X0218374Y0168015D01*
X0217857Y0167498D01*
X0217857Y0166981D01*
X0217857Y0167498D02*
X0217339Y0168015D01*
X0216822Y0168015D01*
X0216305Y0167498D01*
X0216305Y0166464D01*
X0216822Y0165947D01*
X0248808Y0174224D02*
X0248808Y0177326D01*
X0250359Y0177326D01*
X0250876Y0176809D01*
X0250876Y0175775D01*
X0250359Y0175258D01*
X0248808Y0175258D01*
X0249842Y0175258D02*
X0250876Y0174224D01*
X0252031Y0174741D02*
X0252548Y0174224D01*
X0253582Y0174224D01*
X0254099Y0174741D01*
X0254099Y0175258D01*
X0253582Y0175775D01*
X0252548Y0175775D01*
X0252031Y0176292D01*
X0252031Y0176809D01*
X0252548Y0177326D01*
X0253582Y0177326D01*
X0254099Y0176809D01*
X0254099Y0176292D01*
X0253582Y0175775D01*
X0252548Y0175775D02*
X0252031Y0175258D01*
X0252031Y0174741D01*
X0251305Y0187724D02*
X0251305Y0189275D01*
X0251822Y0189792D01*
X0252857Y0189792D01*
X0253374Y0189275D01*
X0253374Y0187724D01*
X0254408Y0187724D02*
X0251305Y0187724D01*
X0249408Y0187724D02*
X0246305Y0187724D01*
X0246305Y0189275D01*
X0246822Y0189792D01*
X0247857Y0189792D01*
X0248374Y0189275D01*
X0248374Y0187724D01*
X0248374Y0188758D02*
X0249408Y0189792D01*
X0247857Y0190947D02*
X0247857Y0193015D01*
X0249408Y0192498D02*
X0246305Y0192498D01*
X0247857Y0190947D01*
X0251305Y0191464D02*
X0251822Y0190947D01*
X0252339Y0190947D01*
X0252857Y0191464D01*
X0252857Y0193015D01*
X0253891Y0193015D02*
X0251822Y0193015D01*
X0251305Y0192498D01*
X0251305Y0191464D01*
X0253891Y0190947D02*
X0254408Y0191464D01*
X0254408Y0192498D01*
X0253891Y0193015D01*
X0254408Y0189792D02*
X0253374Y0188758D01*
X0232578Y0200779D02*
X0232061Y0200262D01*
X0231026Y0200262D01*
X0230509Y0200779D01*
X0232578Y0202847D01*
X0232578Y0200779D01*
X0232578Y0202847D02*
X0232061Y0203364D01*
X0231026Y0203364D01*
X0230509Y0202847D01*
X0230509Y0200779D01*
X0229355Y0200779D02*
X0229355Y0202847D01*
X0228838Y0203364D01*
X0227287Y0203364D01*
X0227287Y0200262D01*
X0228838Y0200262D01*
X0229355Y0200779D01*
X0218408Y0193738D02*
X0218408Y0191669D01*
X0218408Y0192703D02*
X0215305Y0192703D01*
X0216339Y0191669D01*
X0218408Y0190515D02*
X0218408Y0188447D01*
X0218408Y0189481D02*
X0215305Y0189481D01*
X0216339Y0188447D01*
X0215822Y0187292D02*
X0216857Y0187292D01*
X0217374Y0186775D01*
X0217374Y0185224D01*
X0218408Y0185224D02*
X0215305Y0185224D01*
X0215305Y0186775D01*
X0215822Y0187292D01*
X0217374Y0186258D02*
X0218408Y0187292D01*
X0213408Y0186775D02*
X0213408Y0185741D01*
X0212891Y0185224D01*
X0210822Y0185224D01*
X0210305Y0185741D01*
X0210305Y0186775D01*
X0210822Y0187292D01*
X0211857Y0188447D02*
X0211857Y0190515D01*
X0212891Y0191669D02*
X0210822Y0193738D01*
X0212891Y0193738D01*
X0213408Y0193221D01*
X0213408Y0192186D01*
X0212891Y0191669D01*
X0210822Y0191669D01*
X0210305Y0192186D01*
X0210305Y0193221D01*
X0210822Y0193738D01*
X0210305Y0189998D02*
X0211857Y0188447D01*
X0212891Y0187292D02*
X0213408Y0186775D01*
X0213408Y0189998D02*
X0210305Y0189998D01*
X0206381Y0208124D02*
X0203312Y0208124D01*
X0204846Y0208124D02*
X0204846Y0212728D01*
X0203312Y0211193D01*
X0201777Y0210426D02*
X0201010Y0209658D01*
X0198708Y0209658D01*
X0198708Y0208124D02*
X0198708Y0212728D01*
X0201010Y0212728D01*
X0201777Y0211960D01*
X0201777Y0210426D01*
X0200243Y0209658D02*
X0201777Y0208124D01*
X0201777Y0218124D02*
X0200243Y0219658D01*
X0201010Y0219658D02*
X0198708Y0219658D01*
X0198708Y0218124D02*
X0198708Y0222728D01*
X0201010Y0222728D01*
X0201777Y0221960D01*
X0201777Y0220426D01*
X0201010Y0219658D01*
X0203312Y0218124D02*
X0206381Y0221193D01*
X0206381Y0221960D01*
X0205614Y0222728D01*
X0204079Y0222728D01*
X0203312Y0221960D01*
X0203312Y0218124D02*
X0206381Y0218124D01*
X0262892Y0215254D02*
X0263409Y0215771D01*
X0263926Y0215771D01*
X0264443Y0215254D01*
X0264960Y0215771D01*
X0265477Y0215771D01*
X0265994Y0215254D01*
X0265994Y0214220D01*
X0265477Y0213702D01*
X0264443Y0214737D02*
X0264443Y0215254D01*
X0262892Y0215254D02*
X0262892Y0214220D01*
X0263409Y0213702D01*
X0262892Y0212548D02*
X0262892Y0211514D01*
X0262892Y0212031D02*
X0265477Y0212031D01*
X0265994Y0211514D01*
X0265994Y0210997D01*
X0265477Y0210480D01*
X0297287Y0216762D02*
X0298838Y0216762D01*
X0299355Y0217279D01*
X0299355Y0219347D01*
X0298838Y0219864D01*
X0297287Y0219864D01*
X0297287Y0216762D01*
X0300509Y0216762D02*
X0300509Y0217279D01*
X0302578Y0219347D01*
X0302578Y0219864D01*
X0300509Y0219864D01*
X0312287Y0203364D02*
X0313838Y0203364D01*
X0314355Y0202847D01*
X0314355Y0200779D01*
X0313838Y0200262D01*
X0312287Y0200262D01*
X0312287Y0203364D01*
X0315509Y0202847D02*
X0315509Y0202330D01*
X0316026Y0201813D01*
X0317061Y0201813D01*
X0317578Y0201296D01*
X0317578Y0200779D01*
X0317061Y0200262D01*
X0316026Y0200262D01*
X0315509Y0200779D01*
X0315509Y0201296D01*
X0316026Y0201813D01*
X0317061Y0201813D02*
X0317578Y0202330D01*
X0317578Y0202847D01*
X0317061Y0203364D01*
X0316026Y0203364D01*
X0315509Y0202847D01*
X0329808Y0195309D02*
X0330325Y0195826D01*
X0331359Y0195826D01*
X0331876Y0195309D01*
X0331876Y0193241D01*
X0331359Y0192724D01*
X0330325Y0192724D01*
X0329808Y0193241D01*
X0329808Y0195309D01*
X0330842Y0193758D02*
X0331876Y0192724D01*
X0333031Y0192724D02*
X0335099Y0192724D01*
X0334065Y0192724D02*
X0334065Y0195826D01*
X0333031Y0194792D01*
X0336253Y0195309D02*
X0336770Y0195826D01*
X0337805Y0195826D01*
X0338322Y0195309D01*
X0336253Y0193241D01*
X0336770Y0192724D01*
X0337805Y0192724D01*
X0338322Y0193241D01*
X0338322Y0195309D01*
X0336253Y0195309D02*
X0336253Y0193241D01*
X0345308Y0193724D02*
X0345308Y0196826D01*
X0346859Y0196826D01*
X0347376Y0196309D01*
X0347376Y0195275D01*
X0346859Y0194758D01*
X0345308Y0194758D01*
X0346342Y0194758D02*
X0347376Y0193724D01*
X0348531Y0195275D02*
X0350599Y0195275D01*
X0351753Y0196309D02*
X0352270Y0196826D01*
X0353305Y0196826D01*
X0353822Y0196309D01*
X0353822Y0195792D01*
X0351753Y0193724D01*
X0353822Y0193724D01*
X0350082Y0193724D02*
X0350082Y0196826D01*
X0348531Y0195275D01*
X0357808Y0194758D02*
X0359359Y0194758D01*
X0359876Y0195275D01*
X0359876Y0196309D01*
X0359359Y0196826D01*
X0357808Y0196826D01*
X0357808Y0193724D01*
X0358842Y0194758D02*
X0359876Y0193724D01*
X0361031Y0194241D02*
X0361548Y0193724D01*
X0362582Y0193724D01*
X0363099Y0194241D01*
X0363099Y0194758D01*
X0362582Y0195275D01*
X0362065Y0195275D01*
X0362582Y0195275D02*
X0363099Y0195792D01*
X0363099Y0196309D01*
X0362582Y0196826D01*
X0361548Y0196826D01*
X0361031Y0196309D01*
X0364253Y0196309D02*
X0364253Y0195792D01*
X0364770Y0195275D01*
X0366322Y0195275D01*
X0366322Y0194241D02*
X0366322Y0196309D01*
X0365805Y0196826D01*
X0364770Y0196826D01*
X0364253Y0196309D01*
X0364253Y0194241D02*
X0364770Y0193724D01*
X0365805Y0193724D01*
X0366322Y0194241D01*
X0375808Y0195826D02*
X0377876Y0195826D01*
X0376842Y0195826D02*
X0376842Y0192724D01*
X0379031Y0192207D02*
X0381099Y0192207D01*
X0382253Y0193758D02*
X0383288Y0192724D01*
X0384322Y0193758D01*
X0384322Y0195826D01*
X0385476Y0195826D02*
X0387027Y0195826D01*
X0387545Y0195309D01*
X0387545Y0193241D01*
X0387027Y0192724D01*
X0385476Y0192724D01*
X0385476Y0195826D01*
X0382253Y0195826D02*
X0382253Y0193758D01*
X0388699Y0192724D02*
X0390767Y0192724D01*
X0388699Y0192724D02*
X0388699Y0195826D01*
X0394808Y0195826D02*
X0396876Y0195826D01*
X0395842Y0195826D02*
X0395842Y0192724D01*
X0398031Y0192207D02*
X0400099Y0192207D01*
X0401253Y0193758D02*
X0402288Y0192724D01*
X0403322Y0193758D01*
X0403322Y0195826D01*
X0404476Y0195309D02*
X0404993Y0195826D01*
X0406027Y0195826D01*
X0406545Y0195309D01*
X0406545Y0194275D02*
X0405510Y0194275D01*
X0406545Y0194275D02*
X0406545Y0193241D01*
X0406027Y0192724D01*
X0404993Y0192724D01*
X0404476Y0193241D01*
X0404476Y0195309D01*
X0401253Y0195826D02*
X0401253Y0193758D01*
X0407699Y0192724D02*
X0409767Y0192724D01*
X0407699Y0192724D02*
X0407699Y0195826D01*
X0407699Y0188326D02*
X0407699Y0185224D01*
X0406545Y0185741D02*
X0406545Y0187809D01*
X0406027Y0188326D01*
X0404476Y0188326D01*
X0404476Y0185224D01*
X0406027Y0185224D01*
X0406545Y0185741D01*
X0407699Y0186775D02*
X0409767Y0186775D01*
X0409767Y0188326D02*
X0409767Y0185224D01*
X0403322Y0186258D02*
X0403322Y0188326D01*
X0403322Y0186258D02*
X0402288Y0185224D01*
X0401253Y0186258D01*
X0401253Y0188326D01*
X0400099Y0184707D02*
X0398031Y0184707D01*
X0395842Y0185224D02*
X0395842Y0188326D01*
X0394808Y0188326D02*
X0396876Y0188326D01*
X0390767Y0188326D02*
X0390767Y0185224D01*
X0390767Y0186775D02*
X0388699Y0186775D01*
X0387545Y0186775D02*
X0386510Y0186775D01*
X0387545Y0186775D02*
X0387545Y0185741D01*
X0387027Y0185224D01*
X0385993Y0185224D01*
X0385476Y0185741D01*
X0385476Y0187809D01*
X0385993Y0188326D01*
X0387027Y0188326D01*
X0387545Y0187809D01*
X0388699Y0188326D02*
X0388699Y0185224D01*
X0384322Y0186258D02*
X0384322Y0188326D01*
X0384322Y0186258D02*
X0383288Y0185224D01*
X0382253Y0186258D01*
X0382253Y0188326D01*
X0381099Y0184707D02*
X0379031Y0184707D01*
X0376842Y0185224D02*
X0376842Y0188326D01*
X0375808Y0188326D02*
X0377876Y0188326D01*
X0371908Y0185498D02*
X0371908Y0184464D01*
X0371391Y0183947D01*
X0370874Y0183947D01*
X0370357Y0184464D01*
X0370357Y0185498D01*
X0370874Y0186015D01*
X0371391Y0186015D01*
X0371908Y0185498D01*
X0370357Y0185498D02*
X0369839Y0186015D01*
X0369322Y0186015D01*
X0368805Y0185498D01*
X0368805Y0184464D01*
X0369322Y0183947D01*
X0369839Y0183947D01*
X0370357Y0184464D01*
X0371391Y0182792D02*
X0369322Y0182792D01*
X0368805Y0182275D01*
X0368805Y0181241D01*
X0369322Y0180724D01*
X0371391Y0180724D01*
X0371908Y0181241D01*
X0371908Y0182275D01*
X0371391Y0182792D01*
X0371908Y0182792D02*
X0370874Y0181758D01*
X0375808Y0180826D02*
X0377876Y0180826D01*
X0376842Y0180826D02*
X0376842Y0177724D01*
X0379031Y0177207D02*
X0381099Y0177207D01*
X0382253Y0178241D02*
X0382770Y0177724D01*
X0383805Y0177724D01*
X0384322Y0178241D01*
X0384322Y0178758D01*
X0383805Y0179275D01*
X0383288Y0179275D01*
X0383805Y0179275D02*
X0384322Y0179792D01*
X0384322Y0180309D01*
X0383805Y0180826D01*
X0382770Y0180826D01*
X0382253Y0180309D01*
X0385476Y0180826D02*
X0385476Y0178758D01*
X0386510Y0177724D01*
X0387545Y0178758D01*
X0387545Y0180826D01*
X0388699Y0180309D02*
X0389216Y0180826D01*
X0390250Y0180826D01*
X0390767Y0180309D01*
X0390767Y0179792D01*
X0390250Y0179275D01*
X0390767Y0178758D01*
X0390767Y0178241D01*
X0390250Y0177724D01*
X0389216Y0177724D01*
X0388699Y0178241D01*
X0389733Y0179275D02*
X0390250Y0179275D01*
X0397287Y0178279D02*
X0397804Y0177762D01*
X0398838Y0177762D01*
X0399355Y0178279D01*
X0399355Y0179313D01*
X0398321Y0179313D01*
X0399355Y0180347D02*
X0398838Y0180864D01*
X0397804Y0180864D01*
X0397287Y0180347D01*
X0397287Y0178279D01*
X0400509Y0177762D02*
X0400509Y0180864D01*
X0402578Y0177762D01*
X0402578Y0180864D01*
X0403732Y0180864D02*
X0405283Y0180864D01*
X0405801Y0180347D01*
X0405801Y0178279D01*
X0405283Y0177762D01*
X0403732Y0177762D01*
X0403732Y0180864D01*
X0392490Y0172809D02*
X0392490Y0172292D01*
X0391973Y0171775D01*
X0392490Y0171258D01*
X0392490Y0170741D01*
X0391973Y0170224D01*
X0390939Y0170224D01*
X0390422Y0170741D01*
X0389267Y0171258D02*
X0389267Y0173326D01*
X0390422Y0172809D02*
X0390939Y0173326D01*
X0391973Y0173326D01*
X0392490Y0172809D01*
X0391973Y0171775D02*
X0391456Y0171775D01*
X0389267Y0171258D02*
X0388233Y0170224D01*
X0387199Y0171258D01*
X0387199Y0173326D01*
X0386045Y0172809D02*
X0386045Y0172292D01*
X0385527Y0171775D01*
X0386045Y0171258D01*
X0386045Y0170741D01*
X0385527Y0170224D01*
X0384493Y0170224D01*
X0383976Y0170741D01*
X0382822Y0170224D02*
X0380753Y0170224D01*
X0380753Y0173326D01*
X0382822Y0173326D01*
X0383976Y0172809D02*
X0384493Y0173326D01*
X0385527Y0173326D01*
X0386045Y0172809D01*
X0385527Y0171775D02*
X0385010Y0171775D01*
X0381788Y0171775D02*
X0380753Y0171775D01*
X0379599Y0169707D02*
X0377531Y0169707D01*
X0375342Y0170224D02*
X0375342Y0173326D01*
X0374308Y0173326D02*
X0376376Y0173326D01*
X0356908Y0181241D02*
X0356908Y0182275D01*
X0356391Y0182792D01*
X0354322Y0182792D01*
X0353805Y0182275D01*
X0353805Y0181241D01*
X0354322Y0180724D01*
X0356391Y0180724D01*
X0356908Y0181241D01*
X0355874Y0181758D02*
X0356908Y0182792D01*
X0356391Y0183947D02*
X0356908Y0184464D01*
X0356908Y0185498D01*
X0356391Y0186015D01*
X0354322Y0186015D01*
X0353805Y0185498D01*
X0353805Y0184464D01*
X0354322Y0183947D01*
X0354839Y0183947D01*
X0355357Y0184464D01*
X0355357Y0186015D01*
X0345014Y0205333D02*
X0345531Y0205851D01*
X0345531Y0206885D01*
X0345014Y0207402D01*
X0342428Y0207402D01*
X0342945Y0208556D02*
X0342428Y0209073D01*
X0342428Y0210108D01*
X0342945Y0210625D01*
X0343979Y0210108D02*
X0343979Y0209073D01*
X0343462Y0208556D01*
X0342945Y0208556D01*
X0341911Y0209590D02*
X0346048Y0209590D01*
X0345531Y0209073D02*
X0345531Y0210108D01*
X0345014Y0210625D01*
X0344496Y0210625D01*
X0343979Y0210108D01*
X0343462Y0211779D02*
X0342428Y0212813D01*
X0345531Y0212813D01*
X0345531Y0211779D02*
X0345531Y0213847D01*
X0345531Y0209073D02*
X0345014Y0208556D01*
X0345014Y0205333D02*
X0342428Y0205333D01*
X0309822Y0190326D02*
X0308788Y0189809D01*
X0307753Y0188775D01*
X0309305Y0188775D01*
X0309822Y0188258D01*
X0309822Y0187741D01*
X0309305Y0187224D01*
X0308270Y0187224D01*
X0307753Y0187741D01*
X0307753Y0188775D01*
X0306599Y0188258D02*
X0306599Y0187741D01*
X0306082Y0187224D01*
X0305048Y0187224D01*
X0304531Y0187741D01*
X0303376Y0187224D02*
X0302342Y0188258D01*
X0302859Y0188258D02*
X0301308Y0188258D01*
X0301308Y0187224D02*
X0301308Y0190326D01*
X0302859Y0190326D01*
X0303376Y0189809D01*
X0303376Y0188775D01*
X0302859Y0188258D01*
X0304531Y0189809D02*
X0305048Y0190326D01*
X0306082Y0190326D01*
X0306599Y0189809D01*
X0306599Y0189292D01*
X0306082Y0188775D01*
X0306599Y0188258D01*
X0306082Y0188775D02*
X0305565Y0188775D01*
X0306082Y0184826D02*
X0304531Y0183275D01*
X0306599Y0183275D01*
X0307753Y0182241D02*
X0308270Y0181724D01*
X0309305Y0181724D01*
X0309822Y0182241D01*
X0309822Y0182758D01*
X0309305Y0183275D01*
X0308788Y0183275D01*
X0309305Y0183275D02*
X0309822Y0183792D01*
X0309822Y0184309D01*
X0309305Y0184826D01*
X0308270Y0184826D01*
X0307753Y0184309D01*
X0306082Y0184826D02*
X0306082Y0181724D01*
X0303376Y0182241D02*
X0302859Y0181724D01*
X0301825Y0181724D01*
X0301308Y0182241D01*
X0301308Y0184309D01*
X0301825Y0184826D01*
X0302859Y0184826D01*
X0303376Y0184309D01*
X0297805Y0170826D02*
X0296770Y0170826D01*
X0296253Y0170309D01*
X0295099Y0169275D02*
X0293031Y0169275D01*
X0294582Y0170826D01*
X0294582Y0167724D01*
X0296253Y0167724D02*
X0298322Y0169792D01*
X0298322Y0170309D01*
X0297805Y0170826D01*
X0298322Y0167724D02*
X0296253Y0167724D01*
X0291876Y0168241D02*
X0291359Y0167724D01*
X0290325Y0167724D01*
X0289808Y0168241D01*
X0289808Y0170309D01*
X0290325Y0170826D01*
X0291359Y0170826D01*
X0291876Y0170309D01*
X0291359Y0164326D02*
X0291876Y0163809D01*
X0291876Y0162775D01*
X0291359Y0162258D01*
X0289808Y0162258D01*
X0290842Y0162258D02*
X0291876Y0161224D01*
X0293031Y0161224D02*
X0295099Y0161224D01*
X0294065Y0161224D02*
X0294065Y0164326D01*
X0293031Y0163292D01*
X0291359Y0164326D02*
X0289808Y0164326D01*
X0289808Y0161224D01*
X0296253Y0161741D02*
X0296770Y0161224D01*
X0297805Y0161224D01*
X0298322Y0161741D01*
X0298322Y0162258D01*
X0297805Y0162775D01*
X0297288Y0162775D01*
X0297805Y0162775D02*
X0298322Y0163292D01*
X0298322Y0163809D01*
X0297805Y0164326D01*
X0296770Y0164326D01*
X0296253Y0163809D01*
X0294859Y0155826D02*
X0293308Y0155826D01*
X0293308Y0152724D01*
X0294859Y0152724D01*
X0295376Y0153241D01*
X0295376Y0155309D01*
X0294859Y0155826D01*
X0296531Y0154275D02*
X0298599Y0154275D01*
X0298082Y0152724D02*
X0298082Y0155826D01*
X0296531Y0154275D01*
X0307308Y0149309D02*
X0307308Y0147241D01*
X0307825Y0146724D01*
X0308859Y0146724D01*
X0309376Y0147241D01*
X0310531Y0148275D02*
X0312599Y0148275D01*
X0313753Y0147241D02*
X0313753Y0146724D01*
X0313753Y0147241D02*
X0315822Y0149309D01*
X0315822Y0149826D01*
X0313753Y0149826D01*
X0312082Y0149826D02*
X0310531Y0148275D01*
X0309376Y0149309D02*
X0308859Y0149826D01*
X0307825Y0149826D01*
X0307308Y0149309D01*
X0312082Y0149826D02*
X0312082Y0146724D01*
X0312191Y0138369D02*
X0312708Y0137852D01*
X0312708Y0136818D01*
X0312191Y0136301D01*
X0312708Y0135147D02*
X0312708Y0133078D01*
X0310639Y0135147D01*
X0310122Y0135147D01*
X0309605Y0134630D01*
X0309605Y0133595D01*
X0310122Y0133078D01*
X0310122Y0131924D02*
X0311157Y0131924D01*
X0311674Y0131407D01*
X0311674Y0129855D01*
X0312708Y0129855D02*
X0309605Y0129855D01*
X0309605Y0131407D01*
X0310122Y0131924D01*
X0311674Y0130890D02*
X0312708Y0131924D01*
X0319105Y0131647D02*
X0321691Y0131647D01*
X0322208Y0131130D01*
X0322208Y0130095D01*
X0321691Y0129578D01*
X0319105Y0129578D01*
X0319622Y0132801D02*
X0320139Y0132801D01*
X0320657Y0133318D01*
X0320657Y0134869D01*
X0321691Y0134869D02*
X0319622Y0134869D01*
X0319105Y0134352D01*
X0319105Y0133318D01*
X0319622Y0132801D01*
X0321691Y0132801D02*
X0322208Y0133318D01*
X0322208Y0134352D01*
X0321691Y0134869D01*
X0312191Y0138369D02*
X0311674Y0138369D01*
X0311157Y0137852D01*
X0311157Y0137335D01*
X0311157Y0137852D02*
X0310639Y0138369D01*
X0310122Y0138369D01*
X0309605Y0137852D01*
X0309605Y0136818D01*
X0310122Y0136301D01*
X0306208Y0136818D02*
X0306208Y0137852D01*
X0305691Y0138369D01*
X0305174Y0138369D01*
X0304657Y0137852D01*
X0304657Y0136301D01*
X0305691Y0136301D01*
X0306208Y0136818D01*
X0304657Y0136301D02*
X0303622Y0137335D01*
X0303105Y0138369D01*
X0303105Y0135147D02*
X0303105Y0133078D01*
X0304657Y0133078D01*
X0304139Y0134112D01*
X0304139Y0134630D01*
X0304657Y0135147D01*
X0305691Y0135147D01*
X0306208Y0134630D01*
X0306208Y0133595D01*
X0305691Y0133078D01*
X0305691Y0131924D02*
X0306208Y0131407D01*
X0306208Y0130373D01*
X0305691Y0129855D01*
X0303622Y0129855D01*
X0303105Y0130373D01*
X0303105Y0131407D01*
X0303622Y0131924D01*
X0339805Y0133741D02*
X0340322Y0133224D01*
X0342391Y0133224D01*
X0342908Y0133741D01*
X0342908Y0134775D01*
X0342391Y0135292D01*
X0341357Y0136447D02*
X0341357Y0138515D01*
X0340839Y0139669D02*
X0339805Y0140703D01*
X0342908Y0140703D01*
X0342908Y0139669D02*
X0342908Y0141738D01*
X0344805Y0141738D02*
X0344805Y0139669D01*
X0346357Y0139669D01*
X0345839Y0140703D01*
X0345839Y0141221D01*
X0346357Y0141738D01*
X0347391Y0141738D01*
X0347908Y0141221D01*
X0347908Y0140186D01*
X0347391Y0139669D01*
X0347908Y0138515D02*
X0347908Y0136447D01*
X0345839Y0138515D01*
X0345322Y0138515D01*
X0344805Y0137998D01*
X0344805Y0136964D01*
X0345322Y0136447D01*
X0345322Y0135292D02*
X0346357Y0135292D01*
X0346874Y0134775D01*
X0346874Y0133224D01*
X0347908Y0133224D02*
X0344805Y0133224D01*
X0344805Y0134775D01*
X0345322Y0135292D01*
X0346874Y0134258D02*
X0347908Y0135292D01*
X0342908Y0137998D02*
X0339805Y0137998D01*
X0341357Y0136447D01*
X0340322Y0135292D02*
X0339805Y0134775D01*
X0339805Y0133741D01*
X0339805Y0147724D02*
X0339805Y0149275D01*
X0340322Y0149792D01*
X0341357Y0149792D01*
X0341874Y0149275D01*
X0341874Y0147724D01*
X0342908Y0147724D02*
X0339805Y0147724D01*
X0341874Y0148758D02*
X0342908Y0149792D01*
X0342908Y0150947D02*
X0340839Y0153015D01*
X0340322Y0153015D01*
X0339805Y0152498D01*
X0339805Y0151464D01*
X0340322Y0150947D01*
X0342908Y0150947D02*
X0342908Y0153015D01*
X0342908Y0154169D02*
X0342391Y0154169D01*
X0340322Y0156238D01*
X0339805Y0156238D01*
X0339805Y0154169D01*
X0344805Y0154686D02*
X0344805Y0155721D01*
X0345322Y0156238D01*
X0345839Y0156238D01*
X0346357Y0155721D01*
X0346357Y0154686D01*
X0345839Y0154169D01*
X0345322Y0154169D01*
X0344805Y0154686D01*
X0346357Y0154686D02*
X0346874Y0154169D01*
X0347391Y0154169D01*
X0347908Y0154686D01*
X0347908Y0155721D01*
X0347391Y0156238D01*
X0346874Y0156238D01*
X0346357Y0155721D01*
X0345839Y0153015D02*
X0345322Y0153015D01*
X0344805Y0152498D01*
X0344805Y0151464D01*
X0345322Y0150947D01*
X0345322Y0149792D02*
X0346357Y0149792D01*
X0346874Y0149275D01*
X0346874Y0147724D01*
X0347908Y0147724D02*
X0344805Y0147724D01*
X0344805Y0149275D01*
X0345322Y0149792D01*
X0346874Y0148758D02*
X0347908Y0149792D01*
X0347908Y0150947D02*
X0345839Y0153015D01*
X0347908Y0153015D02*
X0347908Y0150947D01*
X0348031Y0160224D02*
X0350099Y0160224D01*
X0349065Y0160224D02*
X0349065Y0163326D01*
X0348031Y0162292D01*
X0346876Y0161775D02*
X0346359Y0161258D01*
X0344808Y0161258D01*
X0345842Y0161258D02*
X0346876Y0160224D01*
X0346876Y0161775D02*
X0346876Y0162809D01*
X0346359Y0163326D01*
X0344808Y0163326D01*
X0344808Y0160224D01*
X0351253Y0160741D02*
X0351253Y0161258D01*
X0351770Y0161775D01*
X0352805Y0161775D01*
X0353322Y0161258D01*
X0353322Y0160741D01*
X0352805Y0160224D01*
X0351770Y0160224D01*
X0351253Y0160741D01*
X0351770Y0161775D02*
X0351253Y0162292D01*
X0351253Y0162809D01*
X0351770Y0163326D01*
X0352805Y0163326D01*
X0353322Y0162809D01*
X0353322Y0162292D01*
X0352805Y0161775D01*
X0338322Y0159724D02*
X0336253Y0159724D01*
X0337288Y0159724D02*
X0337288Y0162826D01*
X0336253Y0161792D01*
X0335099Y0159724D02*
X0333031Y0159724D01*
X0334065Y0159724D02*
X0334065Y0162826D01*
X0333031Y0161792D01*
X0331876Y0162309D02*
X0331876Y0160241D01*
X0331359Y0159724D01*
X0330325Y0159724D01*
X0329808Y0160241D01*
X0329808Y0162309D01*
X0330325Y0162826D01*
X0331359Y0162826D01*
X0331876Y0162309D01*
X0330842Y0160758D02*
X0331876Y0159724D01*
X0321322Y0159741D02*
X0321322Y0160258D01*
X0320805Y0160775D01*
X0319253Y0160775D01*
X0319253Y0159741D01*
X0319770Y0159224D01*
X0320805Y0159224D01*
X0321322Y0159741D01*
X0320288Y0161809D02*
X0319253Y0160775D01*
X0320288Y0161809D02*
X0321322Y0162326D01*
X0317065Y0162326D02*
X0317065Y0159224D01*
X0316031Y0159224D02*
X0318099Y0159224D01*
X0316031Y0161292D02*
X0317065Y0162326D01*
X0314876Y0161809D02*
X0314876Y0160775D01*
X0314359Y0160258D01*
X0312808Y0160258D01*
X0313842Y0160258D02*
X0314876Y0159224D01*
X0312808Y0159224D02*
X0312808Y0162326D01*
X0314359Y0162326D01*
X0314876Y0161809D01*
X0379018Y0144329D02*
X0379018Y0143294D01*
X0379535Y0142777D01*
X0379535Y0141623D02*
X0381603Y0141623D01*
X0382120Y0141106D01*
X0382120Y0140072D01*
X0381603Y0139554D01*
X0379535Y0139554D01*
X0379018Y0140072D01*
X0379018Y0141106D01*
X0379535Y0141623D01*
X0381086Y0140589D02*
X0382120Y0141623D01*
X0381603Y0142777D02*
X0382120Y0143294D01*
X0382120Y0144329D01*
X0381603Y0144846D01*
X0381086Y0144846D01*
X0380569Y0144329D01*
X0380569Y0143811D01*
X0380569Y0144329D02*
X0380052Y0144846D01*
X0379535Y0144846D01*
X0379018Y0144329D01*
X0282822Y0061309D02*
X0280753Y0059241D01*
X0281270Y0058724D01*
X0282305Y0058724D01*
X0282822Y0059241D01*
X0282822Y0061309D01*
X0282305Y0061826D01*
X0281270Y0061826D01*
X0280753Y0061309D01*
X0280753Y0059241D01*
X0279599Y0059241D02*
X0279082Y0058724D01*
X0278048Y0058724D01*
X0277531Y0059241D01*
X0276376Y0059241D02*
X0275859Y0058724D01*
X0274825Y0058724D01*
X0274308Y0059241D01*
X0274308Y0061309D01*
X0274825Y0061826D01*
X0275859Y0061826D01*
X0276376Y0061309D01*
X0277531Y0061309D02*
X0278048Y0061826D01*
X0279082Y0061826D01*
X0279599Y0061309D01*
X0279599Y0060792D01*
X0279082Y0060275D01*
X0279599Y0059758D01*
X0279599Y0059241D01*
X0279082Y0060275D02*
X0278565Y0060275D01*
D12*
X0283608Y0057524D02*
X0283608Y0052524D01*
X0272608Y0052524D01*
X0272608Y0057524D01*
X0283608Y0057524D01*
X0290108Y0057524D02*
X0290108Y0052524D01*
X0301108Y0052524D01*
X0301108Y0057524D01*
X0290108Y0057524D01*
X0292108Y0063524D02*
X0292108Y0076524D01*
X0299108Y0076524D01*
X0299108Y0063524D01*
X0292108Y0063524D01*
X0290608Y0064524D02*
X0285608Y0064524D01*
X0285608Y0075524D01*
X0290608Y0075524D01*
X0290608Y0064524D01*
X0300608Y0065524D02*
X0300608Y0074524D01*
X0301608Y0071524D02*
X0302108Y0071524D01*
X0306108Y0071024D01*
X0304108Y0069024D01*
X0302608Y0071524D01*
X0305608Y0071024D01*
X0304108Y0069524D01*
X0303108Y0071024D01*
X0303608Y0071024D01*
X0304608Y0070524D01*
X0304108Y0070524D01*
X0304608Y0070524D02*
X0304108Y0070024D01*
X0303608Y0071024D01*
X0305108Y0071024D01*
X0304608Y0070524D01*
X0304108Y0068524D02*
X0306608Y0071524D01*
X0302608Y0071524D01*
X0302108Y0071524D01*
X0304108Y0068524D01*
X0301608Y0071524D01*
X0307608Y0074524D02*
X0307608Y0065524D01*
X0309108Y0065524D02*
X0309108Y0074524D01*
X0316108Y0074524D02*
X0316108Y0065524D01*
X0317608Y0063524D02*
X0317608Y0076524D01*
X0324608Y0076524D01*
X0324608Y0063524D01*
X0317608Y0063524D01*
X0315108Y0068524D02*
X0314608Y0068524D01*
X0310608Y0069024D01*
X0312608Y0071024D01*
X0314108Y0068524D01*
X0311108Y0069024D01*
X0312608Y0070524D01*
X0313608Y0069024D01*
X0313108Y0069024D01*
X0312108Y0069524D01*
X0312608Y0069524D01*
X0312608Y0070024D02*
X0313108Y0069024D01*
X0311608Y0069024D01*
X0312108Y0069524D01*
X0312608Y0070024D01*
X0312608Y0071524D02*
X0314608Y0068524D01*
X0314108Y0068524D01*
X0310108Y0068524D01*
X0312608Y0071524D01*
X0315108Y0068524D01*
X0311608Y0056774D02*
X0308108Y0056774D01*
X0311608Y0056774D02*
X0311608Y0053774D01*
X0306608Y0051774D02*
X0306608Y0050274D01*
X0311608Y0048274D02*
X0311608Y0045274D01*
X0308108Y0045274D01*
X0301108Y0045024D02*
X0301108Y0050024D01*
X0290108Y0050024D01*
X0290108Y0045024D01*
X0301108Y0045024D01*
X0282608Y0044024D02*
X0273608Y0044024D01*
X0276608Y0047524D02*
X0279608Y0045024D01*
X0279608Y0049024D01*
X0279108Y0046024D01*
X0277608Y0047524D01*
X0279108Y0048524D01*
X0279108Y0048024D01*
X0278608Y0047024D01*
X0278608Y0047524D01*
X0278108Y0047524D02*
X0279108Y0048024D01*
X0279108Y0046524D01*
X0278608Y0047024D01*
X0278108Y0047524D01*
X0277108Y0047524D02*
X0279608Y0049024D01*
X0279608Y0049524D01*
X0279108Y0045524D01*
X0277108Y0047524D01*
X0276608Y0047524D02*
X0279608Y0049524D01*
X0279608Y0050024D01*
X0276608Y0047524D01*
X0273608Y0051024D02*
X0282608Y0051024D01*
X0263108Y0049774D02*
X0263108Y0046774D01*
X0259608Y0046774D01*
X0258108Y0051774D02*
X0258108Y0053274D01*
X0263108Y0055274D02*
X0263108Y0058274D01*
X0259608Y0058274D01*
X0258108Y0064524D02*
X0263108Y0064524D01*
X0263108Y0075524D01*
X0258108Y0075524D01*
X0258108Y0064524D01*
X0256108Y0065524D02*
X0256108Y0074524D01*
X0249108Y0074524D02*
X0249108Y0065524D01*
X0247108Y0064524D02*
X0242108Y0064524D01*
X0242108Y0075524D01*
X0247108Y0075524D01*
X0247108Y0064524D01*
X0240608Y0064524D02*
X0235608Y0064524D01*
X0235608Y0075524D01*
X0240608Y0075524D01*
X0240608Y0064524D01*
X0244608Y0059024D02*
X0244608Y0046024D01*
X0251608Y0046024D01*
X0251608Y0059024D01*
X0244608Y0059024D01*
X0240608Y0058024D02*
X0235608Y0058024D01*
X0235608Y0047024D01*
X0240608Y0047024D01*
X0240608Y0058024D01*
X0233108Y0064524D02*
X0228108Y0064524D01*
X0228108Y0075524D01*
X0233108Y0075524D01*
X0233108Y0064524D01*
X0225608Y0064524D02*
X0220608Y0064524D01*
X0220608Y0075524D01*
X0225608Y0075524D01*
X0225608Y0064524D01*
X0227608Y0055274D02*
X0227608Y0053274D01*
X0226608Y0054274D02*
X0228608Y0054274D01*
X0210608Y0044524D02*
X0206108Y0044524D01*
X0206108Y0039024D01*
X0151608Y0039024D01*
X0151608Y0048989D01*
X0151611Y0049257D01*
X0151621Y0049525D01*
X0151637Y0049793D01*
X0151660Y0050060D01*
X0151689Y0050327D01*
X0151725Y0050593D01*
X0151767Y0050858D01*
X0151816Y0051122D01*
X0151871Y0051385D01*
X0151932Y0051646D01*
X0152000Y0051905D01*
X0152073Y0052163D01*
X0152154Y0052419D01*
X0152240Y0052673D01*
X0152332Y0052925D01*
X0155608Y0070725D02*
X0155608Y0098024D01*
X0210608Y0098024D01*
X0210608Y0044524D01*
X0224608Y0025024D02*
X0284608Y0025024D01*
X0284608Y0015024D01*
X0224608Y0015024D01*
X0224608Y0025024D01*
X0294608Y0025024D02*
X0294608Y0015024D01*
X0354608Y0015024D01*
X0354608Y0025024D01*
X0294608Y0025024D01*
X0340508Y0037024D02*
X0353508Y0037024D01*
X0353508Y0044024D01*
X0340508Y0044024D01*
X0340508Y0037024D01*
X0341008Y0046024D02*
X0341008Y0051024D01*
X0352008Y0051024D01*
X0352008Y0046024D01*
X0341008Y0046024D01*
X0341008Y0052524D02*
X0341008Y0057524D01*
X0352008Y0057524D01*
X0352008Y0052524D01*
X0341008Y0052524D01*
X0340508Y0059524D02*
X0340508Y0066524D01*
X0353508Y0066524D01*
X0353508Y0059524D01*
X0340508Y0059524D01*
X0341008Y0075824D02*
X0354008Y0075824D01*
X0354008Y0082824D01*
X0341008Y0082824D01*
X0341008Y0075824D01*
X0341008Y0085324D02*
X0354008Y0085324D01*
X0354008Y0092324D01*
X0341008Y0092324D01*
X0341008Y0085324D01*
X0341008Y0094524D02*
X0354008Y0094524D01*
X0354008Y0101524D01*
X0341008Y0101524D01*
X0341008Y0094524D01*
X0324608Y0098524D02*
X0324608Y0111524D01*
X0317608Y0111524D01*
X0317608Y0098524D01*
X0324608Y0098524D01*
X0316108Y0099524D02*
X0311108Y0099524D01*
X0311108Y0110524D01*
X0316108Y0110524D01*
X0316108Y0099524D01*
X0308608Y0099524D02*
X0303608Y0099524D01*
X0303608Y0110524D01*
X0308608Y0110524D01*
X0308608Y0099524D01*
X0301108Y0099524D02*
X0296108Y0099524D01*
X0296108Y0110524D01*
X0301108Y0110524D01*
X0301108Y0099524D01*
X0286950Y0113862D02*
X0268765Y0113862D01*
X0267265Y0115362D01*
X0267265Y0131185D01*
X0286950Y0131185D01*
X0286950Y0113862D01*
X0302408Y0117324D02*
X0302408Y0128324D01*
X0307408Y0128324D01*
X0307408Y0117324D01*
X0302408Y0117324D01*
X0308408Y0117324D02*
X0308408Y0128324D01*
X0313408Y0128324D01*
X0313408Y0117324D01*
X0308408Y0117324D01*
X0317947Y0118887D02*
X0321527Y0118887D01*
X0322869Y0120229D01*
X0322869Y0126761D01*
X0317947Y0126761D01*
X0317947Y0118887D01*
X0322108Y0117824D02*
X0322110Y0117880D01*
X0322116Y0117937D01*
X0322126Y0117992D01*
X0322140Y0118047D01*
X0322157Y0118101D01*
X0322179Y0118153D01*
X0322204Y0118203D01*
X0322232Y0118252D01*
X0322264Y0118299D01*
X0322299Y0118343D01*
X0322337Y0118385D01*
X0322378Y0118424D01*
X0322422Y0118459D01*
X0322468Y0118492D01*
X0322516Y0118521D01*
X0322566Y0118547D01*
X0322618Y0118570D01*
X0322672Y0118588D01*
X0322726Y0118603D01*
X0322781Y0118614D01*
X0322837Y0118621D01*
X0322894Y0118624D01*
X0322950Y0118623D01*
X0323007Y0118618D01*
X0323062Y0118609D01*
X0323117Y0118596D01*
X0323171Y0118579D01*
X0323224Y0118559D01*
X0323275Y0118535D01*
X0323324Y0118507D01*
X0323371Y0118476D01*
X0323416Y0118442D01*
X0323459Y0118404D01*
X0323498Y0118364D01*
X0323535Y0118321D01*
X0323568Y0118276D01*
X0323598Y0118228D01*
X0323625Y0118178D01*
X0323648Y0118127D01*
X0323668Y0118074D01*
X0323684Y0118020D01*
X0323696Y0117964D01*
X0323704Y0117909D01*
X0323708Y0117852D01*
X0323708Y0117796D01*
X0323704Y0117739D01*
X0323696Y0117684D01*
X0323684Y0117628D01*
X0323668Y0117574D01*
X0323648Y0117521D01*
X0323625Y0117470D01*
X0323598Y0117420D01*
X0323568Y0117372D01*
X0323535Y0117327D01*
X0323498Y0117284D01*
X0323459Y0117244D01*
X0323416Y0117206D01*
X0323371Y0117172D01*
X0323324Y0117141D01*
X0323275Y0117113D01*
X0323224Y0117089D01*
X0323171Y0117069D01*
X0323117Y0117052D01*
X0323062Y0117039D01*
X0323007Y0117030D01*
X0322950Y0117025D01*
X0322894Y0117024D01*
X0322837Y0117027D01*
X0322781Y0117034D01*
X0322726Y0117045D01*
X0322672Y0117060D01*
X0322618Y0117078D01*
X0322566Y0117101D01*
X0322516Y0117127D01*
X0322468Y0117156D01*
X0322422Y0117189D01*
X0322378Y0117224D01*
X0322337Y0117263D01*
X0322299Y0117305D01*
X0322264Y0117349D01*
X0322232Y0117396D01*
X0322204Y0117445D01*
X0322179Y0117495D01*
X0322157Y0117547D01*
X0322140Y0117601D01*
X0322126Y0117656D01*
X0322116Y0117711D01*
X0322110Y0117768D01*
X0322108Y0117824D01*
X0341008Y0118824D02*
X0341008Y0111824D01*
X0354008Y0111824D01*
X0354008Y0118824D01*
X0341008Y0118824D01*
X0341008Y0110524D02*
X0354008Y0110524D01*
X0354008Y0103524D01*
X0341008Y0103524D01*
X0341008Y0110524D01*
X0374308Y0112724D02*
X0374308Y0105724D01*
X0387308Y0105724D01*
X0387308Y0112724D01*
X0374308Y0112724D01*
X0375308Y0116024D02*
X0375308Y0121024D01*
X0386308Y0121024D01*
X0386308Y0116024D01*
X0375308Y0116024D01*
X0374308Y0101124D02*
X0387308Y0101124D01*
X0387308Y0094124D01*
X0374308Y0094124D01*
X0374308Y0101124D01*
X0374308Y0090624D02*
X0387308Y0090624D01*
X0387308Y0083624D01*
X0374308Y0083624D01*
X0374308Y0090624D01*
X0374308Y0080624D02*
X0387308Y0080624D01*
X0387308Y0073624D01*
X0374308Y0073624D01*
X0374308Y0080624D01*
X0374308Y0072624D02*
X0387308Y0072624D01*
X0387308Y0065624D01*
X0374308Y0065624D01*
X0374308Y0072624D01*
X0374308Y0058624D02*
X0387308Y0058624D01*
X0387308Y0051624D01*
X0374308Y0051624D01*
X0374308Y0058624D01*
X0374308Y0050124D02*
X0387308Y0050124D01*
X0387308Y0043124D01*
X0374308Y0043124D01*
X0374308Y0050124D01*
X0374308Y0041624D02*
X0387308Y0041624D01*
X0387308Y0034624D01*
X0374308Y0034624D01*
X0374308Y0041624D01*
X0374308Y0033124D02*
X0387308Y0033124D01*
X0387308Y0026124D01*
X0374308Y0026124D01*
X0374308Y0033124D01*
X0430808Y0023424D02*
X0430808Y0012424D01*
X0435808Y0012424D01*
X0435808Y0023424D01*
X0430808Y0023424D01*
X0437308Y0023424D02*
X0442308Y0023424D01*
X0442308Y0012424D01*
X0437308Y0012424D01*
X0437308Y0023424D01*
X0280108Y0064274D02*
X0280108Y0067274D01*
X0280108Y0064274D02*
X0276608Y0064274D01*
X0269608Y0064524D02*
X0264608Y0064524D01*
X0264608Y0075524D01*
X0269608Y0075524D01*
X0269608Y0064524D01*
X0275108Y0069274D02*
X0275108Y0070774D01*
X0280108Y0072774D02*
X0280108Y0075774D01*
X0276608Y0075774D01*
X0255108Y0071524D02*
X0252608Y0068524D01*
X0250608Y0071524D01*
X0254608Y0071024D01*
X0252608Y0069024D01*
X0251108Y0071524D01*
X0254108Y0071024D01*
X0252608Y0069524D01*
X0251608Y0071024D01*
X0252108Y0071024D01*
X0253108Y0070524D01*
X0252608Y0070524D01*
X0253108Y0070524D02*
X0252608Y0070024D01*
X0252108Y0071024D01*
X0253608Y0071024D01*
X0253108Y0070524D01*
X0252608Y0068524D02*
X0250108Y0071524D01*
X0250608Y0071524D01*
X0251108Y0071524D01*
X0255108Y0071524D01*
X0234608Y0105024D02*
X0214608Y0105024D01*
X0214608Y0135024D01*
X0234608Y0135024D01*
X0234608Y0105024D01*
X0249608Y0108524D02*
X0249608Y0121524D01*
X0259608Y0121524D01*
X0259608Y0108524D01*
X0249608Y0108524D01*
X0249608Y0123524D02*
X0259608Y0123524D01*
X0259608Y0136524D01*
X0249608Y0136524D01*
X0249608Y0123524D01*
X0249108Y0140024D02*
X0249108Y0145024D01*
X0260108Y0145024D01*
X0260108Y0140024D01*
X0249108Y0140024D01*
X0244108Y0145024D02*
X0233108Y0145024D01*
X0233108Y0150024D01*
X0244108Y0150024D01*
X0244108Y0145024D01*
X0245108Y0152024D02*
X0245110Y0152123D01*
X0245116Y0152223D01*
X0245126Y0152322D01*
X0245140Y0152420D01*
X0245157Y0152518D01*
X0245179Y0152615D01*
X0245204Y0152711D01*
X0245233Y0152806D01*
X0245266Y0152900D01*
X0245303Y0152992D01*
X0245343Y0153083D01*
X0245387Y0153172D01*
X0245435Y0153260D01*
X0245486Y0153345D01*
X0245540Y0153428D01*
X0245597Y0153510D01*
X0245658Y0153588D01*
X0245722Y0153665D01*
X0245788Y0153738D01*
X0245858Y0153809D01*
X0245930Y0153877D01*
X0246005Y0153943D01*
X0246083Y0154005D01*
X0246163Y0154064D01*
X0246245Y0154120D01*
X0246329Y0154172D01*
X0246416Y0154221D01*
X0246504Y0154267D01*
X0246594Y0154309D01*
X0246686Y0154348D01*
X0246779Y0154383D01*
X0246873Y0154414D01*
X0246969Y0154441D01*
X0247066Y0154464D01*
X0247163Y0154484D01*
X0247261Y0154500D01*
X0247360Y0154512D01*
X0247459Y0154520D01*
X0247558Y0154524D01*
X0247658Y0154524D01*
X0247757Y0154520D01*
X0247856Y0154512D01*
X0247955Y0154500D01*
X0248053Y0154484D01*
X0248150Y0154464D01*
X0248247Y0154441D01*
X0248343Y0154414D01*
X0248437Y0154383D01*
X0248530Y0154348D01*
X0248622Y0154309D01*
X0248712Y0154267D01*
X0248800Y0154221D01*
X0248887Y0154172D01*
X0248971Y0154120D01*
X0249053Y0154064D01*
X0249133Y0154005D01*
X0249211Y0153943D01*
X0249286Y0153877D01*
X0249358Y0153809D01*
X0249428Y0153738D01*
X0249494Y0153665D01*
X0249558Y0153588D01*
X0249619Y0153510D01*
X0249676Y0153428D01*
X0249730Y0153345D01*
X0249781Y0153260D01*
X0249829Y0153172D01*
X0249873Y0153083D01*
X0249913Y0152992D01*
X0249950Y0152900D01*
X0249983Y0152806D01*
X0250012Y0152711D01*
X0250037Y0152615D01*
X0250059Y0152518D01*
X0250076Y0152420D01*
X0250090Y0152322D01*
X0250100Y0152223D01*
X0250106Y0152123D01*
X0250108Y0152024D01*
X0250106Y0151925D01*
X0250100Y0151825D01*
X0250090Y0151726D01*
X0250076Y0151628D01*
X0250059Y0151530D01*
X0250037Y0151433D01*
X0250012Y0151337D01*
X0249983Y0151242D01*
X0249950Y0151148D01*
X0249913Y0151056D01*
X0249873Y0150965D01*
X0249829Y0150876D01*
X0249781Y0150788D01*
X0249730Y0150703D01*
X0249676Y0150620D01*
X0249619Y0150538D01*
X0249558Y0150460D01*
X0249494Y0150383D01*
X0249428Y0150310D01*
X0249358Y0150239D01*
X0249286Y0150171D01*
X0249211Y0150105D01*
X0249133Y0150043D01*
X0249053Y0149984D01*
X0248971Y0149928D01*
X0248887Y0149876D01*
X0248800Y0149827D01*
X0248712Y0149781D01*
X0248622Y0149739D01*
X0248530Y0149700D01*
X0248437Y0149665D01*
X0248343Y0149634D01*
X0248247Y0149607D01*
X0248150Y0149584D01*
X0248053Y0149564D01*
X0247955Y0149548D01*
X0247856Y0149536D01*
X0247757Y0149528D01*
X0247658Y0149524D01*
X0247558Y0149524D01*
X0247459Y0149528D01*
X0247360Y0149536D01*
X0247261Y0149548D01*
X0247163Y0149564D01*
X0247066Y0149584D01*
X0246969Y0149607D01*
X0246873Y0149634D01*
X0246779Y0149665D01*
X0246686Y0149700D01*
X0246594Y0149739D01*
X0246504Y0149781D01*
X0246416Y0149827D01*
X0246329Y0149876D01*
X0246245Y0149928D01*
X0246163Y0149984D01*
X0246083Y0150043D01*
X0246005Y0150105D01*
X0245930Y0150171D01*
X0245858Y0150239D01*
X0245788Y0150310D01*
X0245722Y0150383D01*
X0245658Y0150460D01*
X0245597Y0150538D01*
X0245540Y0150620D01*
X0245486Y0150703D01*
X0245435Y0150788D01*
X0245387Y0150876D01*
X0245343Y0150965D01*
X0245303Y0151056D01*
X0245266Y0151148D01*
X0245233Y0151242D01*
X0245204Y0151337D01*
X0245179Y0151433D01*
X0245157Y0151530D01*
X0245140Y0151628D01*
X0245126Y0151726D01*
X0245116Y0151825D01*
X0245110Y0151925D01*
X0245108Y0152024D01*
X0241950Y0158862D02*
X0223765Y0158862D01*
X0222265Y0160362D01*
X0222265Y0176185D01*
X0241950Y0176185D01*
X0241950Y0158862D01*
X0245608Y0160024D02*
X0245608Y0165024D01*
X0256608Y0165024D01*
X0256608Y0160024D01*
X0245608Y0160024D01*
X0245608Y0167524D02*
X0245608Y0172524D01*
X0256608Y0172524D01*
X0256608Y0167524D01*
X0245608Y0167524D01*
X0261508Y0169214D02*
X0261508Y0163206D01*
X0261881Y0162833D01*
X0259608Y0161524D02*
X0259610Y0161587D01*
X0259616Y0161649D01*
X0259626Y0161711D01*
X0259639Y0161773D01*
X0259657Y0161833D01*
X0259678Y0161892D01*
X0259703Y0161950D01*
X0259732Y0162006D01*
X0259764Y0162060D01*
X0259799Y0162112D01*
X0259837Y0162161D01*
X0259879Y0162209D01*
X0259923Y0162253D01*
X0259971Y0162295D01*
X0260020Y0162333D01*
X0260072Y0162368D01*
X0260126Y0162400D01*
X0260182Y0162429D01*
X0260240Y0162454D01*
X0260299Y0162475D01*
X0260359Y0162493D01*
X0260421Y0162506D01*
X0260483Y0162516D01*
X0260545Y0162522D01*
X0260608Y0162524D01*
X0260671Y0162522D01*
X0260733Y0162516D01*
X0260795Y0162506D01*
X0260857Y0162493D01*
X0260917Y0162475D01*
X0260976Y0162454D01*
X0261034Y0162429D01*
X0261090Y0162400D01*
X0261144Y0162368D01*
X0261196Y0162333D01*
X0261245Y0162295D01*
X0261293Y0162253D01*
X0261337Y0162209D01*
X0261379Y0162161D01*
X0261417Y0162112D01*
X0261452Y0162060D01*
X0261484Y0162006D01*
X0261513Y0161950D01*
X0261538Y0161892D01*
X0261559Y0161833D01*
X0261577Y0161773D01*
X0261590Y0161711D01*
X0261600Y0161649D01*
X0261606Y0161587D01*
X0261608Y0161524D01*
X0261606Y0161461D01*
X0261600Y0161399D01*
X0261590Y0161337D01*
X0261577Y0161275D01*
X0261559Y0161215D01*
X0261538Y0161156D01*
X0261513Y0161098D01*
X0261484Y0161042D01*
X0261452Y0160988D01*
X0261417Y0160936D01*
X0261379Y0160887D01*
X0261337Y0160839D01*
X0261293Y0160795D01*
X0261245Y0160753D01*
X0261196Y0160715D01*
X0261144Y0160680D01*
X0261090Y0160648D01*
X0261034Y0160619D01*
X0260976Y0160594D01*
X0260917Y0160573D01*
X0260857Y0160555D01*
X0260795Y0160542D01*
X0260733Y0160532D01*
X0260671Y0160526D01*
X0260608Y0160524D01*
X0260545Y0160526D01*
X0260483Y0160532D01*
X0260421Y0160542D01*
X0260359Y0160555D01*
X0260299Y0160573D01*
X0260240Y0160594D01*
X0260182Y0160619D01*
X0260126Y0160648D01*
X0260072Y0160680D01*
X0260020Y0160715D01*
X0259971Y0160753D01*
X0259923Y0160795D01*
X0259879Y0160839D01*
X0259837Y0160887D01*
X0259799Y0160936D01*
X0259764Y0160988D01*
X0259732Y0161042D01*
X0259703Y0161098D01*
X0259678Y0161156D01*
X0259657Y0161215D01*
X0259639Y0161275D01*
X0259626Y0161337D01*
X0259616Y0161399D01*
X0259610Y0161461D01*
X0259608Y0161524D01*
X0265051Y0162833D02*
X0265424Y0162833D01*
X0268791Y0162833D02*
X0269165Y0162833D01*
X0272335Y0162833D02*
X0272708Y0162833D01*
X0272708Y0169214D01*
X0272335Y0169214D01*
X0269165Y0169214D02*
X0268791Y0169214D01*
X0265424Y0169214D02*
X0265051Y0169214D01*
X0261881Y0169214D02*
X0261508Y0169214D01*
X0276608Y0167524D02*
X0276608Y0172524D01*
X0287608Y0172524D01*
X0287608Y0167524D01*
X0276608Y0167524D01*
X0276608Y0166024D02*
X0276608Y0161024D01*
X0287608Y0161024D01*
X0287608Y0166024D01*
X0276608Y0166024D01*
X0277608Y0158524D02*
X0286608Y0158524D01*
X0283608Y0155024D02*
X0280608Y0157524D01*
X0280608Y0153524D01*
X0281108Y0156524D01*
X0282608Y0155024D01*
X0281108Y0154024D01*
X0281108Y0154524D01*
X0281608Y0155524D01*
X0281608Y0155024D01*
X0281608Y0155524D02*
X0282108Y0155024D01*
X0281108Y0154524D01*
X0281108Y0156024D01*
X0281608Y0155524D01*
X0281108Y0157024D02*
X0280608Y0153024D01*
X0283608Y0155024D01*
X0280608Y0152524D01*
X0280608Y0153024D01*
X0280608Y0153524D01*
X0283108Y0155024D01*
X0281108Y0157024D01*
X0277608Y0151524D02*
X0286608Y0151524D01*
X0277608Y0145024D02*
X0277608Y0140024D01*
X0266608Y0140024D01*
X0266608Y0145024D01*
X0277608Y0145024D01*
X0306608Y0145024D02*
X0306608Y0140024D01*
X0317608Y0140024D01*
X0317608Y0145024D01*
X0306608Y0145024D01*
X0312108Y0163524D02*
X0312108Y0176524D01*
X0322108Y0176524D01*
X0322108Y0163524D01*
X0312108Y0163524D01*
X0332108Y0169274D02*
X0332108Y0170774D01*
X0337108Y0172774D02*
X0337108Y0175774D01*
X0333608Y0175774D01*
X0333608Y0179274D02*
X0337108Y0179274D01*
X0337108Y0182274D01*
X0332108Y0184274D02*
X0332108Y0185774D01*
X0337108Y0187774D02*
X0337108Y0190774D01*
X0333608Y0190774D01*
X0344108Y0192524D02*
X0344108Y0187524D01*
X0355108Y0187524D01*
X0355108Y0192524D01*
X0344108Y0192524D01*
X0356608Y0192524D02*
X0356608Y0187524D01*
X0367608Y0187524D01*
X0367608Y0192524D01*
X0356608Y0192524D01*
X0373087Y0190062D02*
X0410587Y0190062D01*
X0410587Y0182562D01*
X0373087Y0182562D01*
X0373087Y0190062D01*
X0373087Y0197562D01*
X0393337Y0197562D01*
X0393337Y0167562D01*
X0373087Y0167562D01*
X0373087Y0175062D01*
X0410587Y0175062D01*
X0410587Y0167562D01*
X0393337Y0167562D01*
X0389608Y0162524D02*
X0389610Y0162623D01*
X0389616Y0162723D01*
X0389626Y0162822D01*
X0389640Y0162920D01*
X0389657Y0163018D01*
X0389679Y0163115D01*
X0389704Y0163211D01*
X0389733Y0163306D01*
X0389766Y0163400D01*
X0389803Y0163492D01*
X0389843Y0163583D01*
X0389887Y0163672D01*
X0389935Y0163760D01*
X0389986Y0163845D01*
X0390040Y0163928D01*
X0390097Y0164010D01*
X0390158Y0164088D01*
X0390222Y0164165D01*
X0390288Y0164238D01*
X0390358Y0164309D01*
X0390430Y0164377D01*
X0390505Y0164443D01*
X0390583Y0164505D01*
X0390663Y0164564D01*
X0390745Y0164620D01*
X0390829Y0164672D01*
X0390916Y0164721D01*
X0391004Y0164767D01*
X0391094Y0164809D01*
X0391186Y0164848D01*
X0391279Y0164883D01*
X0391373Y0164914D01*
X0391469Y0164941D01*
X0391566Y0164964D01*
X0391663Y0164984D01*
X0391761Y0165000D01*
X0391860Y0165012D01*
X0391959Y0165020D01*
X0392058Y0165024D01*
X0392158Y0165024D01*
X0392257Y0165020D01*
X0392356Y0165012D01*
X0392455Y0165000D01*
X0392553Y0164984D01*
X0392650Y0164964D01*
X0392747Y0164941D01*
X0392843Y0164914D01*
X0392937Y0164883D01*
X0393030Y0164848D01*
X0393122Y0164809D01*
X0393212Y0164767D01*
X0393300Y0164721D01*
X0393387Y0164672D01*
X0393471Y0164620D01*
X0393553Y0164564D01*
X0393633Y0164505D01*
X0393711Y0164443D01*
X0393786Y0164377D01*
X0393858Y0164309D01*
X0393928Y0164238D01*
X0393994Y0164165D01*
X0394058Y0164088D01*
X0394119Y0164010D01*
X0394176Y0163928D01*
X0394230Y0163845D01*
X0394281Y0163760D01*
X0394329Y0163672D01*
X0394373Y0163583D01*
X0394413Y0163492D01*
X0394450Y0163400D01*
X0394483Y0163306D01*
X0394512Y0163211D01*
X0394537Y0163115D01*
X0394559Y0163018D01*
X0394576Y0162920D01*
X0394590Y0162822D01*
X0394600Y0162723D01*
X0394606Y0162623D01*
X0394608Y0162524D01*
X0394606Y0162425D01*
X0394600Y0162325D01*
X0394590Y0162226D01*
X0394576Y0162128D01*
X0394559Y0162030D01*
X0394537Y0161933D01*
X0394512Y0161837D01*
X0394483Y0161742D01*
X0394450Y0161648D01*
X0394413Y0161556D01*
X0394373Y0161465D01*
X0394329Y0161376D01*
X0394281Y0161288D01*
X0394230Y0161203D01*
X0394176Y0161120D01*
X0394119Y0161038D01*
X0394058Y0160960D01*
X0393994Y0160883D01*
X0393928Y0160810D01*
X0393858Y0160739D01*
X0393786Y0160671D01*
X0393711Y0160605D01*
X0393633Y0160543D01*
X0393553Y0160484D01*
X0393471Y0160428D01*
X0393387Y0160376D01*
X0393300Y0160327D01*
X0393212Y0160281D01*
X0393122Y0160239D01*
X0393030Y0160200D01*
X0392937Y0160165D01*
X0392843Y0160134D01*
X0392747Y0160107D01*
X0392650Y0160084D01*
X0392553Y0160064D01*
X0392455Y0160048D01*
X0392356Y0160036D01*
X0392257Y0160028D01*
X0392158Y0160024D01*
X0392058Y0160024D01*
X0391959Y0160028D01*
X0391860Y0160036D01*
X0391761Y0160048D01*
X0391663Y0160064D01*
X0391566Y0160084D01*
X0391469Y0160107D01*
X0391373Y0160134D01*
X0391279Y0160165D01*
X0391186Y0160200D01*
X0391094Y0160239D01*
X0391004Y0160281D01*
X0390916Y0160327D01*
X0390829Y0160376D01*
X0390745Y0160428D01*
X0390663Y0160484D01*
X0390583Y0160543D01*
X0390505Y0160605D01*
X0390430Y0160671D01*
X0390358Y0160739D01*
X0390288Y0160810D01*
X0390222Y0160883D01*
X0390158Y0160960D01*
X0390097Y0161038D01*
X0390040Y0161120D01*
X0389986Y0161203D01*
X0389935Y0161288D01*
X0389887Y0161376D01*
X0389843Y0161465D01*
X0389803Y0161556D01*
X0389766Y0161648D01*
X0389733Y0161742D01*
X0389704Y0161837D01*
X0389679Y0161933D01*
X0389657Y0162030D01*
X0389640Y0162128D01*
X0389626Y0162226D01*
X0389616Y0162325D01*
X0389610Y0162425D01*
X0389608Y0162524D01*
X0399608Y0162524D02*
X0399610Y0162623D01*
X0399616Y0162723D01*
X0399626Y0162822D01*
X0399640Y0162920D01*
X0399657Y0163018D01*
X0399679Y0163115D01*
X0399704Y0163211D01*
X0399733Y0163306D01*
X0399766Y0163400D01*
X0399803Y0163492D01*
X0399843Y0163583D01*
X0399887Y0163672D01*
X0399935Y0163760D01*
X0399986Y0163845D01*
X0400040Y0163928D01*
X0400097Y0164010D01*
X0400158Y0164088D01*
X0400222Y0164165D01*
X0400288Y0164238D01*
X0400358Y0164309D01*
X0400430Y0164377D01*
X0400505Y0164443D01*
X0400583Y0164505D01*
X0400663Y0164564D01*
X0400745Y0164620D01*
X0400829Y0164672D01*
X0400916Y0164721D01*
X0401004Y0164767D01*
X0401094Y0164809D01*
X0401186Y0164848D01*
X0401279Y0164883D01*
X0401373Y0164914D01*
X0401469Y0164941D01*
X0401566Y0164964D01*
X0401663Y0164984D01*
X0401761Y0165000D01*
X0401860Y0165012D01*
X0401959Y0165020D01*
X0402058Y0165024D01*
X0402158Y0165024D01*
X0402257Y0165020D01*
X0402356Y0165012D01*
X0402455Y0165000D01*
X0402553Y0164984D01*
X0402650Y0164964D01*
X0402747Y0164941D01*
X0402843Y0164914D01*
X0402937Y0164883D01*
X0403030Y0164848D01*
X0403122Y0164809D01*
X0403212Y0164767D01*
X0403300Y0164721D01*
X0403387Y0164672D01*
X0403471Y0164620D01*
X0403553Y0164564D01*
X0403633Y0164505D01*
X0403711Y0164443D01*
X0403786Y0164377D01*
X0403858Y0164309D01*
X0403928Y0164238D01*
X0403994Y0164165D01*
X0404058Y0164088D01*
X0404119Y0164010D01*
X0404176Y0163928D01*
X0404230Y0163845D01*
X0404281Y0163760D01*
X0404329Y0163672D01*
X0404373Y0163583D01*
X0404413Y0163492D01*
X0404450Y0163400D01*
X0404483Y0163306D01*
X0404512Y0163211D01*
X0404537Y0163115D01*
X0404559Y0163018D01*
X0404576Y0162920D01*
X0404590Y0162822D01*
X0404600Y0162723D01*
X0404606Y0162623D01*
X0404608Y0162524D01*
X0404606Y0162425D01*
X0404600Y0162325D01*
X0404590Y0162226D01*
X0404576Y0162128D01*
X0404559Y0162030D01*
X0404537Y0161933D01*
X0404512Y0161837D01*
X0404483Y0161742D01*
X0404450Y0161648D01*
X0404413Y0161556D01*
X0404373Y0161465D01*
X0404329Y0161376D01*
X0404281Y0161288D01*
X0404230Y0161203D01*
X0404176Y0161120D01*
X0404119Y0161038D01*
X0404058Y0160960D01*
X0403994Y0160883D01*
X0403928Y0160810D01*
X0403858Y0160739D01*
X0403786Y0160671D01*
X0403711Y0160605D01*
X0403633Y0160543D01*
X0403553Y0160484D01*
X0403471Y0160428D01*
X0403387Y0160376D01*
X0403300Y0160327D01*
X0403212Y0160281D01*
X0403122Y0160239D01*
X0403030Y0160200D01*
X0402937Y0160165D01*
X0402843Y0160134D01*
X0402747Y0160107D01*
X0402650Y0160084D01*
X0402553Y0160064D01*
X0402455Y0160048D01*
X0402356Y0160036D01*
X0402257Y0160028D01*
X0402158Y0160024D01*
X0402058Y0160024D01*
X0401959Y0160028D01*
X0401860Y0160036D01*
X0401761Y0160048D01*
X0401663Y0160064D01*
X0401566Y0160084D01*
X0401469Y0160107D01*
X0401373Y0160134D01*
X0401279Y0160165D01*
X0401186Y0160200D01*
X0401094Y0160239D01*
X0401004Y0160281D01*
X0400916Y0160327D01*
X0400829Y0160376D01*
X0400745Y0160428D01*
X0400663Y0160484D01*
X0400583Y0160543D01*
X0400505Y0160605D01*
X0400430Y0160671D01*
X0400358Y0160739D01*
X0400288Y0160810D01*
X0400222Y0160883D01*
X0400158Y0160960D01*
X0400097Y0161038D01*
X0400040Y0161120D01*
X0399986Y0161203D01*
X0399935Y0161288D01*
X0399887Y0161376D01*
X0399843Y0161465D01*
X0399803Y0161556D01*
X0399766Y0161648D01*
X0399733Y0161742D01*
X0399704Y0161837D01*
X0399679Y0161933D01*
X0399657Y0162030D01*
X0399640Y0162128D01*
X0399626Y0162226D01*
X0399616Y0162325D01*
X0399610Y0162425D01*
X0399608Y0162524D01*
X0399608Y0152524D02*
X0399610Y0152623D01*
X0399616Y0152723D01*
X0399626Y0152822D01*
X0399640Y0152920D01*
X0399657Y0153018D01*
X0399679Y0153115D01*
X0399704Y0153211D01*
X0399733Y0153306D01*
X0399766Y0153400D01*
X0399803Y0153492D01*
X0399843Y0153583D01*
X0399887Y0153672D01*
X0399935Y0153760D01*
X0399986Y0153845D01*
X0400040Y0153928D01*
X0400097Y0154010D01*
X0400158Y0154088D01*
X0400222Y0154165D01*
X0400288Y0154238D01*
X0400358Y0154309D01*
X0400430Y0154377D01*
X0400505Y0154443D01*
X0400583Y0154505D01*
X0400663Y0154564D01*
X0400745Y0154620D01*
X0400829Y0154672D01*
X0400916Y0154721D01*
X0401004Y0154767D01*
X0401094Y0154809D01*
X0401186Y0154848D01*
X0401279Y0154883D01*
X0401373Y0154914D01*
X0401469Y0154941D01*
X0401566Y0154964D01*
X0401663Y0154984D01*
X0401761Y0155000D01*
X0401860Y0155012D01*
X0401959Y0155020D01*
X0402058Y0155024D01*
X0402158Y0155024D01*
X0402257Y0155020D01*
X0402356Y0155012D01*
X0402455Y0155000D01*
X0402553Y0154984D01*
X0402650Y0154964D01*
X0402747Y0154941D01*
X0402843Y0154914D01*
X0402937Y0154883D01*
X0403030Y0154848D01*
X0403122Y0154809D01*
X0403212Y0154767D01*
X0403300Y0154721D01*
X0403387Y0154672D01*
X0403471Y0154620D01*
X0403553Y0154564D01*
X0403633Y0154505D01*
X0403711Y0154443D01*
X0403786Y0154377D01*
X0403858Y0154309D01*
X0403928Y0154238D01*
X0403994Y0154165D01*
X0404058Y0154088D01*
X0404119Y0154010D01*
X0404176Y0153928D01*
X0404230Y0153845D01*
X0404281Y0153760D01*
X0404329Y0153672D01*
X0404373Y0153583D01*
X0404413Y0153492D01*
X0404450Y0153400D01*
X0404483Y0153306D01*
X0404512Y0153211D01*
X0404537Y0153115D01*
X0404559Y0153018D01*
X0404576Y0152920D01*
X0404590Y0152822D01*
X0404600Y0152723D01*
X0404606Y0152623D01*
X0404608Y0152524D01*
X0404606Y0152425D01*
X0404600Y0152325D01*
X0404590Y0152226D01*
X0404576Y0152128D01*
X0404559Y0152030D01*
X0404537Y0151933D01*
X0404512Y0151837D01*
X0404483Y0151742D01*
X0404450Y0151648D01*
X0404413Y0151556D01*
X0404373Y0151465D01*
X0404329Y0151376D01*
X0404281Y0151288D01*
X0404230Y0151203D01*
X0404176Y0151120D01*
X0404119Y0151038D01*
X0404058Y0150960D01*
X0403994Y0150883D01*
X0403928Y0150810D01*
X0403858Y0150739D01*
X0403786Y0150671D01*
X0403711Y0150605D01*
X0403633Y0150543D01*
X0403553Y0150484D01*
X0403471Y0150428D01*
X0403387Y0150376D01*
X0403300Y0150327D01*
X0403212Y0150281D01*
X0403122Y0150239D01*
X0403030Y0150200D01*
X0402937Y0150165D01*
X0402843Y0150134D01*
X0402747Y0150107D01*
X0402650Y0150084D01*
X0402553Y0150064D01*
X0402455Y0150048D01*
X0402356Y0150036D01*
X0402257Y0150028D01*
X0402158Y0150024D01*
X0402058Y0150024D01*
X0401959Y0150028D01*
X0401860Y0150036D01*
X0401761Y0150048D01*
X0401663Y0150064D01*
X0401566Y0150084D01*
X0401469Y0150107D01*
X0401373Y0150134D01*
X0401279Y0150165D01*
X0401186Y0150200D01*
X0401094Y0150239D01*
X0401004Y0150281D01*
X0400916Y0150327D01*
X0400829Y0150376D01*
X0400745Y0150428D01*
X0400663Y0150484D01*
X0400583Y0150543D01*
X0400505Y0150605D01*
X0400430Y0150671D01*
X0400358Y0150739D01*
X0400288Y0150810D01*
X0400222Y0150883D01*
X0400158Y0150960D01*
X0400097Y0151038D01*
X0400040Y0151120D01*
X0399986Y0151203D01*
X0399935Y0151288D01*
X0399887Y0151376D01*
X0399843Y0151465D01*
X0399803Y0151556D01*
X0399766Y0151648D01*
X0399733Y0151742D01*
X0399704Y0151837D01*
X0399679Y0151933D01*
X0399657Y0152030D01*
X0399640Y0152128D01*
X0399626Y0152226D01*
X0399616Y0152325D01*
X0399610Y0152425D01*
X0399608Y0152524D01*
X0389608Y0152524D02*
X0389610Y0152623D01*
X0389616Y0152723D01*
X0389626Y0152822D01*
X0389640Y0152920D01*
X0389657Y0153018D01*
X0389679Y0153115D01*
X0389704Y0153211D01*
X0389733Y0153306D01*
X0389766Y0153400D01*
X0389803Y0153492D01*
X0389843Y0153583D01*
X0389887Y0153672D01*
X0389935Y0153760D01*
X0389986Y0153845D01*
X0390040Y0153928D01*
X0390097Y0154010D01*
X0390158Y0154088D01*
X0390222Y0154165D01*
X0390288Y0154238D01*
X0390358Y0154309D01*
X0390430Y0154377D01*
X0390505Y0154443D01*
X0390583Y0154505D01*
X0390663Y0154564D01*
X0390745Y0154620D01*
X0390829Y0154672D01*
X0390916Y0154721D01*
X0391004Y0154767D01*
X0391094Y0154809D01*
X0391186Y0154848D01*
X0391279Y0154883D01*
X0391373Y0154914D01*
X0391469Y0154941D01*
X0391566Y0154964D01*
X0391663Y0154984D01*
X0391761Y0155000D01*
X0391860Y0155012D01*
X0391959Y0155020D01*
X0392058Y0155024D01*
X0392158Y0155024D01*
X0392257Y0155020D01*
X0392356Y0155012D01*
X0392455Y0155000D01*
X0392553Y0154984D01*
X0392650Y0154964D01*
X0392747Y0154941D01*
X0392843Y0154914D01*
X0392937Y0154883D01*
X0393030Y0154848D01*
X0393122Y0154809D01*
X0393212Y0154767D01*
X0393300Y0154721D01*
X0393387Y0154672D01*
X0393471Y0154620D01*
X0393553Y0154564D01*
X0393633Y0154505D01*
X0393711Y0154443D01*
X0393786Y0154377D01*
X0393858Y0154309D01*
X0393928Y0154238D01*
X0393994Y0154165D01*
X0394058Y0154088D01*
X0394119Y0154010D01*
X0394176Y0153928D01*
X0394230Y0153845D01*
X0394281Y0153760D01*
X0394329Y0153672D01*
X0394373Y0153583D01*
X0394413Y0153492D01*
X0394450Y0153400D01*
X0394483Y0153306D01*
X0394512Y0153211D01*
X0394537Y0153115D01*
X0394559Y0153018D01*
X0394576Y0152920D01*
X0394590Y0152822D01*
X0394600Y0152723D01*
X0394606Y0152623D01*
X0394608Y0152524D01*
X0394606Y0152425D01*
X0394600Y0152325D01*
X0394590Y0152226D01*
X0394576Y0152128D01*
X0394559Y0152030D01*
X0394537Y0151933D01*
X0394512Y0151837D01*
X0394483Y0151742D01*
X0394450Y0151648D01*
X0394413Y0151556D01*
X0394373Y0151465D01*
X0394329Y0151376D01*
X0394281Y0151288D01*
X0394230Y0151203D01*
X0394176Y0151120D01*
X0394119Y0151038D01*
X0394058Y0150960D01*
X0393994Y0150883D01*
X0393928Y0150810D01*
X0393858Y0150739D01*
X0393786Y0150671D01*
X0393711Y0150605D01*
X0393633Y0150543D01*
X0393553Y0150484D01*
X0393471Y0150428D01*
X0393387Y0150376D01*
X0393300Y0150327D01*
X0393212Y0150281D01*
X0393122Y0150239D01*
X0393030Y0150200D01*
X0392937Y0150165D01*
X0392843Y0150134D01*
X0392747Y0150107D01*
X0392650Y0150084D01*
X0392553Y0150064D01*
X0392455Y0150048D01*
X0392356Y0150036D01*
X0392257Y0150028D01*
X0392158Y0150024D01*
X0392058Y0150024D01*
X0391959Y0150028D01*
X0391860Y0150036D01*
X0391761Y0150048D01*
X0391663Y0150064D01*
X0391566Y0150084D01*
X0391469Y0150107D01*
X0391373Y0150134D01*
X0391279Y0150165D01*
X0391186Y0150200D01*
X0391094Y0150239D01*
X0391004Y0150281D01*
X0390916Y0150327D01*
X0390829Y0150376D01*
X0390745Y0150428D01*
X0390663Y0150484D01*
X0390583Y0150543D01*
X0390505Y0150605D01*
X0390430Y0150671D01*
X0390358Y0150739D01*
X0390288Y0150810D01*
X0390222Y0150883D01*
X0390158Y0150960D01*
X0390097Y0151038D01*
X0390040Y0151120D01*
X0389986Y0151203D01*
X0389935Y0151288D01*
X0389887Y0151376D01*
X0389843Y0151465D01*
X0389803Y0151556D01*
X0389766Y0151648D01*
X0389733Y0151742D01*
X0389704Y0151837D01*
X0389679Y0151933D01*
X0389657Y0152030D01*
X0389640Y0152128D01*
X0389626Y0152226D01*
X0389616Y0152325D01*
X0389610Y0152425D01*
X0389608Y0152524D01*
X0374608Y0155274D02*
X0374608Y0158274D01*
X0371108Y0158274D01*
X0362108Y0158024D02*
X0362108Y0147024D01*
X0357108Y0147024D01*
X0357108Y0158024D01*
X0362108Y0158024D01*
X0354608Y0158024D02*
X0354608Y0147024D01*
X0349608Y0147024D01*
X0349608Y0158024D01*
X0354608Y0158024D01*
X0355108Y0165024D02*
X0344108Y0165024D01*
X0344108Y0170024D01*
X0355108Y0170024D01*
X0355108Y0165024D01*
X0352108Y0171774D02*
X0348608Y0171774D01*
X0352108Y0171774D02*
X0352108Y0174774D01*
X0347108Y0176774D02*
X0347108Y0178274D01*
X0352108Y0180274D02*
X0352108Y0183274D01*
X0348608Y0183274D01*
X0362108Y0178274D02*
X0362108Y0176774D01*
X0367108Y0174774D02*
X0367108Y0171774D01*
X0363608Y0171774D01*
X0373087Y0175062D02*
X0373087Y0182562D01*
X0367108Y0183274D02*
X0367108Y0180274D01*
X0367108Y0183274D02*
X0363608Y0183274D01*
X0393337Y0197562D02*
X0410587Y0197562D01*
X0410587Y0190062D01*
X0410587Y0182562D02*
X0410587Y0175062D01*
X0427708Y0182224D02*
X0432708Y0182224D01*
X0432708Y0193224D01*
X0427708Y0193224D01*
X0427708Y0182224D01*
X0441908Y0182224D02*
X0446908Y0182224D01*
X0446908Y0193224D01*
X0441908Y0193224D01*
X0441908Y0182224D01*
X0456108Y0182224D02*
X0461108Y0182224D01*
X0461108Y0193224D01*
X0456108Y0193224D01*
X0456108Y0182224D01*
X0470308Y0182224D02*
X0475308Y0182224D01*
X0475308Y0193224D01*
X0470308Y0193224D01*
X0470308Y0182224D01*
X0439901Y0218401D02*
X0436898Y0218401D01*
X0438399Y0218401D02*
X0438399Y0222905D01*
X0436898Y0221404D01*
X0435297Y0222155D02*
X0435297Y0220653D01*
X0434546Y0219903D01*
X0432294Y0219903D01*
X0432294Y0218401D02*
X0432294Y0222905D01*
X0434546Y0222905D01*
X0435297Y0222155D01*
X0430693Y0222905D02*
X0429191Y0222905D01*
X0429942Y0222905D02*
X0429942Y0219152D01*
X0429191Y0218401D01*
X0428441Y0218401D01*
X0427690Y0219152D01*
X0340508Y0215024D02*
X0340508Y0205024D01*
X0310508Y0205024D01*
X0310508Y0215024D01*
X0340508Y0215024D01*
X0304608Y0215024D02*
X0304608Y0205024D01*
X0224608Y0205024D01*
X0224608Y0215024D01*
X0304608Y0215024D01*
X0311608Y0192024D02*
X0311608Y0187024D01*
X0322608Y0187024D01*
X0322608Y0192024D01*
X0311608Y0192024D01*
X0311608Y0186024D02*
X0311608Y0181024D01*
X0322608Y0181024D01*
X0322608Y0186024D01*
X0311608Y0186024D01*
X0337108Y0167274D02*
X0337108Y0164274D01*
X0333608Y0164274D01*
X0369608Y0153274D02*
X0369608Y0151774D01*
X0374608Y0149774D02*
X0374608Y0146774D01*
X0371108Y0146774D01*
X0371108Y0143274D02*
X0374608Y0143274D01*
X0374608Y0140274D01*
X0369608Y0138274D02*
X0369608Y0136774D01*
X0374608Y0134774D02*
X0374608Y0131774D01*
X0371108Y0131774D01*
X0362108Y0132024D02*
X0357108Y0132024D01*
X0357108Y0143024D01*
X0362108Y0143024D01*
X0362108Y0132024D01*
X0354608Y0132024D02*
X0349608Y0132024D01*
X0349608Y0143024D01*
X0354608Y0143024D01*
X0354608Y0132024D01*
X0389608Y0132524D02*
X0389610Y0132623D01*
X0389616Y0132723D01*
X0389626Y0132822D01*
X0389640Y0132920D01*
X0389657Y0133018D01*
X0389679Y0133115D01*
X0389704Y0133211D01*
X0389733Y0133306D01*
X0389766Y0133400D01*
X0389803Y0133492D01*
X0389843Y0133583D01*
X0389887Y0133672D01*
X0389935Y0133760D01*
X0389986Y0133845D01*
X0390040Y0133928D01*
X0390097Y0134010D01*
X0390158Y0134088D01*
X0390222Y0134165D01*
X0390288Y0134238D01*
X0390358Y0134309D01*
X0390430Y0134377D01*
X0390505Y0134443D01*
X0390583Y0134505D01*
X0390663Y0134564D01*
X0390745Y0134620D01*
X0390829Y0134672D01*
X0390916Y0134721D01*
X0391004Y0134767D01*
X0391094Y0134809D01*
X0391186Y0134848D01*
X0391279Y0134883D01*
X0391373Y0134914D01*
X0391469Y0134941D01*
X0391566Y0134964D01*
X0391663Y0134984D01*
X0391761Y0135000D01*
X0391860Y0135012D01*
X0391959Y0135020D01*
X0392058Y0135024D01*
X0392158Y0135024D01*
X0392257Y0135020D01*
X0392356Y0135012D01*
X0392455Y0135000D01*
X0392553Y0134984D01*
X0392650Y0134964D01*
X0392747Y0134941D01*
X0392843Y0134914D01*
X0392937Y0134883D01*
X0393030Y0134848D01*
X0393122Y0134809D01*
X0393212Y0134767D01*
X0393300Y0134721D01*
X0393387Y0134672D01*
X0393471Y0134620D01*
X0393553Y0134564D01*
X0393633Y0134505D01*
X0393711Y0134443D01*
X0393786Y0134377D01*
X0393858Y0134309D01*
X0393928Y0134238D01*
X0393994Y0134165D01*
X0394058Y0134088D01*
X0394119Y0134010D01*
X0394176Y0133928D01*
X0394230Y0133845D01*
X0394281Y0133760D01*
X0394329Y0133672D01*
X0394373Y0133583D01*
X0394413Y0133492D01*
X0394450Y0133400D01*
X0394483Y0133306D01*
X0394512Y0133211D01*
X0394537Y0133115D01*
X0394559Y0133018D01*
X0394576Y0132920D01*
X0394590Y0132822D01*
X0394600Y0132723D01*
X0394606Y0132623D01*
X0394608Y0132524D01*
X0394606Y0132425D01*
X0394600Y0132325D01*
X0394590Y0132226D01*
X0394576Y0132128D01*
X0394559Y0132030D01*
X0394537Y0131933D01*
X0394512Y0131837D01*
X0394483Y0131742D01*
X0394450Y0131648D01*
X0394413Y0131556D01*
X0394373Y0131465D01*
X0394329Y0131376D01*
X0394281Y0131288D01*
X0394230Y0131203D01*
X0394176Y0131120D01*
X0394119Y0131038D01*
X0394058Y0130960D01*
X0393994Y0130883D01*
X0393928Y0130810D01*
X0393858Y0130739D01*
X0393786Y0130671D01*
X0393711Y0130605D01*
X0393633Y0130543D01*
X0393553Y0130484D01*
X0393471Y0130428D01*
X0393387Y0130376D01*
X0393300Y0130327D01*
X0393212Y0130281D01*
X0393122Y0130239D01*
X0393030Y0130200D01*
X0392937Y0130165D01*
X0392843Y0130134D01*
X0392747Y0130107D01*
X0392650Y0130084D01*
X0392553Y0130064D01*
X0392455Y0130048D01*
X0392356Y0130036D01*
X0392257Y0130028D01*
X0392158Y0130024D01*
X0392058Y0130024D01*
X0391959Y0130028D01*
X0391860Y0130036D01*
X0391761Y0130048D01*
X0391663Y0130064D01*
X0391566Y0130084D01*
X0391469Y0130107D01*
X0391373Y0130134D01*
X0391279Y0130165D01*
X0391186Y0130200D01*
X0391094Y0130239D01*
X0391004Y0130281D01*
X0390916Y0130327D01*
X0390829Y0130376D01*
X0390745Y0130428D01*
X0390663Y0130484D01*
X0390583Y0130543D01*
X0390505Y0130605D01*
X0390430Y0130671D01*
X0390358Y0130739D01*
X0390288Y0130810D01*
X0390222Y0130883D01*
X0390158Y0130960D01*
X0390097Y0131038D01*
X0390040Y0131120D01*
X0389986Y0131203D01*
X0389935Y0131288D01*
X0389887Y0131376D01*
X0389843Y0131465D01*
X0389803Y0131556D01*
X0389766Y0131648D01*
X0389733Y0131742D01*
X0389704Y0131837D01*
X0389679Y0131933D01*
X0389657Y0132030D01*
X0389640Y0132128D01*
X0389626Y0132226D01*
X0389616Y0132325D01*
X0389610Y0132425D01*
X0389608Y0132524D01*
X0399608Y0132524D02*
X0399610Y0132623D01*
X0399616Y0132723D01*
X0399626Y0132822D01*
X0399640Y0132920D01*
X0399657Y0133018D01*
X0399679Y0133115D01*
X0399704Y0133211D01*
X0399733Y0133306D01*
X0399766Y0133400D01*
X0399803Y0133492D01*
X0399843Y0133583D01*
X0399887Y0133672D01*
X0399935Y0133760D01*
X0399986Y0133845D01*
X0400040Y0133928D01*
X0400097Y0134010D01*
X0400158Y0134088D01*
X0400222Y0134165D01*
X0400288Y0134238D01*
X0400358Y0134309D01*
X0400430Y0134377D01*
X0400505Y0134443D01*
X0400583Y0134505D01*
X0400663Y0134564D01*
X0400745Y0134620D01*
X0400829Y0134672D01*
X0400916Y0134721D01*
X0401004Y0134767D01*
X0401094Y0134809D01*
X0401186Y0134848D01*
X0401279Y0134883D01*
X0401373Y0134914D01*
X0401469Y0134941D01*
X0401566Y0134964D01*
X0401663Y0134984D01*
X0401761Y0135000D01*
X0401860Y0135012D01*
X0401959Y0135020D01*
X0402058Y0135024D01*
X0402158Y0135024D01*
X0402257Y0135020D01*
X0402356Y0135012D01*
X0402455Y0135000D01*
X0402553Y0134984D01*
X0402650Y0134964D01*
X0402747Y0134941D01*
X0402843Y0134914D01*
X0402937Y0134883D01*
X0403030Y0134848D01*
X0403122Y0134809D01*
X0403212Y0134767D01*
X0403300Y0134721D01*
X0403387Y0134672D01*
X0403471Y0134620D01*
X0403553Y0134564D01*
X0403633Y0134505D01*
X0403711Y0134443D01*
X0403786Y0134377D01*
X0403858Y0134309D01*
X0403928Y0134238D01*
X0403994Y0134165D01*
X0404058Y0134088D01*
X0404119Y0134010D01*
X0404176Y0133928D01*
X0404230Y0133845D01*
X0404281Y0133760D01*
X0404329Y0133672D01*
X0404373Y0133583D01*
X0404413Y0133492D01*
X0404450Y0133400D01*
X0404483Y0133306D01*
X0404512Y0133211D01*
X0404537Y0133115D01*
X0404559Y0133018D01*
X0404576Y0132920D01*
X0404590Y0132822D01*
X0404600Y0132723D01*
X0404606Y0132623D01*
X0404608Y0132524D01*
X0404606Y0132425D01*
X0404600Y0132325D01*
X0404590Y0132226D01*
X0404576Y0132128D01*
X0404559Y0132030D01*
X0404537Y0131933D01*
X0404512Y0131837D01*
X0404483Y0131742D01*
X0404450Y0131648D01*
X0404413Y0131556D01*
X0404373Y0131465D01*
X0404329Y0131376D01*
X0404281Y0131288D01*
X0404230Y0131203D01*
X0404176Y0131120D01*
X0404119Y0131038D01*
X0404058Y0130960D01*
X0403994Y0130883D01*
X0403928Y0130810D01*
X0403858Y0130739D01*
X0403786Y0130671D01*
X0403711Y0130605D01*
X0403633Y0130543D01*
X0403553Y0130484D01*
X0403471Y0130428D01*
X0403387Y0130376D01*
X0403300Y0130327D01*
X0403212Y0130281D01*
X0403122Y0130239D01*
X0403030Y0130200D01*
X0402937Y0130165D01*
X0402843Y0130134D01*
X0402747Y0130107D01*
X0402650Y0130084D01*
X0402553Y0130064D01*
X0402455Y0130048D01*
X0402356Y0130036D01*
X0402257Y0130028D01*
X0402158Y0130024D01*
X0402058Y0130024D01*
X0401959Y0130028D01*
X0401860Y0130036D01*
X0401761Y0130048D01*
X0401663Y0130064D01*
X0401566Y0130084D01*
X0401469Y0130107D01*
X0401373Y0130134D01*
X0401279Y0130165D01*
X0401186Y0130200D01*
X0401094Y0130239D01*
X0401004Y0130281D01*
X0400916Y0130327D01*
X0400829Y0130376D01*
X0400745Y0130428D01*
X0400663Y0130484D01*
X0400583Y0130543D01*
X0400505Y0130605D01*
X0400430Y0130671D01*
X0400358Y0130739D01*
X0400288Y0130810D01*
X0400222Y0130883D01*
X0400158Y0130960D01*
X0400097Y0131038D01*
X0400040Y0131120D01*
X0399986Y0131203D01*
X0399935Y0131288D01*
X0399887Y0131376D01*
X0399843Y0131465D01*
X0399803Y0131556D01*
X0399766Y0131648D01*
X0399733Y0131742D01*
X0399704Y0131837D01*
X0399679Y0131933D01*
X0399657Y0132030D01*
X0399640Y0132128D01*
X0399626Y0132226D01*
X0399616Y0132325D01*
X0399610Y0132425D01*
X0399608Y0132524D01*
X0399608Y0142524D02*
X0399610Y0142623D01*
X0399616Y0142723D01*
X0399626Y0142822D01*
X0399640Y0142920D01*
X0399657Y0143018D01*
X0399679Y0143115D01*
X0399704Y0143211D01*
X0399733Y0143306D01*
X0399766Y0143400D01*
X0399803Y0143492D01*
X0399843Y0143583D01*
X0399887Y0143672D01*
X0399935Y0143760D01*
X0399986Y0143845D01*
X0400040Y0143928D01*
X0400097Y0144010D01*
X0400158Y0144088D01*
X0400222Y0144165D01*
X0400288Y0144238D01*
X0400358Y0144309D01*
X0400430Y0144377D01*
X0400505Y0144443D01*
X0400583Y0144505D01*
X0400663Y0144564D01*
X0400745Y0144620D01*
X0400829Y0144672D01*
X0400916Y0144721D01*
X0401004Y0144767D01*
X0401094Y0144809D01*
X0401186Y0144848D01*
X0401279Y0144883D01*
X0401373Y0144914D01*
X0401469Y0144941D01*
X0401566Y0144964D01*
X0401663Y0144984D01*
X0401761Y0145000D01*
X0401860Y0145012D01*
X0401959Y0145020D01*
X0402058Y0145024D01*
X0402158Y0145024D01*
X0402257Y0145020D01*
X0402356Y0145012D01*
X0402455Y0145000D01*
X0402553Y0144984D01*
X0402650Y0144964D01*
X0402747Y0144941D01*
X0402843Y0144914D01*
X0402937Y0144883D01*
X0403030Y0144848D01*
X0403122Y0144809D01*
X0403212Y0144767D01*
X0403300Y0144721D01*
X0403387Y0144672D01*
X0403471Y0144620D01*
X0403553Y0144564D01*
X0403633Y0144505D01*
X0403711Y0144443D01*
X0403786Y0144377D01*
X0403858Y0144309D01*
X0403928Y0144238D01*
X0403994Y0144165D01*
X0404058Y0144088D01*
X0404119Y0144010D01*
X0404176Y0143928D01*
X0404230Y0143845D01*
X0404281Y0143760D01*
X0404329Y0143672D01*
X0404373Y0143583D01*
X0404413Y0143492D01*
X0404450Y0143400D01*
X0404483Y0143306D01*
X0404512Y0143211D01*
X0404537Y0143115D01*
X0404559Y0143018D01*
X0404576Y0142920D01*
X0404590Y0142822D01*
X0404600Y0142723D01*
X0404606Y0142623D01*
X0404608Y0142524D01*
X0404606Y0142425D01*
X0404600Y0142325D01*
X0404590Y0142226D01*
X0404576Y0142128D01*
X0404559Y0142030D01*
X0404537Y0141933D01*
X0404512Y0141837D01*
X0404483Y0141742D01*
X0404450Y0141648D01*
X0404413Y0141556D01*
X0404373Y0141465D01*
X0404329Y0141376D01*
X0404281Y0141288D01*
X0404230Y0141203D01*
X0404176Y0141120D01*
X0404119Y0141038D01*
X0404058Y0140960D01*
X0403994Y0140883D01*
X0403928Y0140810D01*
X0403858Y0140739D01*
X0403786Y0140671D01*
X0403711Y0140605D01*
X0403633Y0140543D01*
X0403553Y0140484D01*
X0403471Y0140428D01*
X0403387Y0140376D01*
X0403300Y0140327D01*
X0403212Y0140281D01*
X0403122Y0140239D01*
X0403030Y0140200D01*
X0402937Y0140165D01*
X0402843Y0140134D01*
X0402747Y0140107D01*
X0402650Y0140084D01*
X0402553Y0140064D01*
X0402455Y0140048D01*
X0402356Y0140036D01*
X0402257Y0140028D01*
X0402158Y0140024D01*
X0402058Y0140024D01*
X0401959Y0140028D01*
X0401860Y0140036D01*
X0401761Y0140048D01*
X0401663Y0140064D01*
X0401566Y0140084D01*
X0401469Y0140107D01*
X0401373Y0140134D01*
X0401279Y0140165D01*
X0401186Y0140200D01*
X0401094Y0140239D01*
X0401004Y0140281D01*
X0400916Y0140327D01*
X0400829Y0140376D01*
X0400745Y0140428D01*
X0400663Y0140484D01*
X0400583Y0140543D01*
X0400505Y0140605D01*
X0400430Y0140671D01*
X0400358Y0140739D01*
X0400288Y0140810D01*
X0400222Y0140883D01*
X0400158Y0140960D01*
X0400097Y0141038D01*
X0400040Y0141120D01*
X0399986Y0141203D01*
X0399935Y0141288D01*
X0399887Y0141376D01*
X0399843Y0141465D01*
X0399803Y0141556D01*
X0399766Y0141648D01*
X0399733Y0141742D01*
X0399704Y0141837D01*
X0399679Y0141933D01*
X0399657Y0142030D01*
X0399640Y0142128D01*
X0399626Y0142226D01*
X0399616Y0142325D01*
X0399610Y0142425D01*
X0399608Y0142524D01*
X0389608Y0142524D02*
X0389610Y0142623D01*
X0389616Y0142723D01*
X0389626Y0142822D01*
X0389640Y0142920D01*
X0389657Y0143018D01*
X0389679Y0143115D01*
X0389704Y0143211D01*
X0389733Y0143306D01*
X0389766Y0143400D01*
X0389803Y0143492D01*
X0389843Y0143583D01*
X0389887Y0143672D01*
X0389935Y0143760D01*
X0389986Y0143845D01*
X0390040Y0143928D01*
X0390097Y0144010D01*
X0390158Y0144088D01*
X0390222Y0144165D01*
X0390288Y0144238D01*
X0390358Y0144309D01*
X0390430Y0144377D01*
X0390505Y0144443D01*
X0390583Y0144505D01*
X0390663Y0144564D01*
X0390745Y0144620D01*
X0390829Y0144672D01*
X0390916Y0144721D01*
X0391004Y0144767D01*
X0391094Y0144809D01*
X0391186Y0144848D01*
X0391279Y0144883D01*
X0391373Y0144914D01*
X0391469Y0144941D01*
X0391566Y0144964D01*
X0391663Y0144984D01*
X0391761Y0145000D01*
X0391860Y0145012D01*
X0391959Y0145020D01*
X0392058Y0145024D01*
X0392158Y0145024D01*
X0392257Y0145020D01*
X0392356Y0145012D01*
X0392455Y0145000D01*
X0392553Y0144984D01*
X0392650Y0144964D01*
X0392747Y0144941D01*
X0392843Y0144914D01*
X0392937Y0144883D01*
X0393030Y0144848D01*
X0393122Y0144809D01*
X0393212Y0144767D01*
X0393300Y0144721D01*
X0393387Y0144672D01*
X0393471Y0144620D01*
X0393553Y0144564D01*
X0393633Y0144505D01*
X0393711Y0144443D01*
X0393786Y0144377D01*
X0393858Y0144309D01*
X0393928Y0144238D01*
X0393994Y0144165D01*
X0394058Y0144088D01*
X0394119Y0144010D01*
X0394176Y0143928D01*
X0394230Y0143845D01*
X0394281Y0143760D01*
X0394329Y0143672D01*
X0394373Y0143583D01*
X0394413Y0143492D01*
X0394450Y0143400D01*
X0394483Y0143306D01*
X0394512Y0143211D01*
X0394537Y0143115D01*
X0394559Y0143018D01*
X0394576Y0142920D01*
X0394590Y0142822D01*
X0394600Y0142723D01*
X0394606Y0142623D01*
X0394608Y0142524D01*
X0394606Y0142425D01*
X0394600Y0142325D01*
X0394590Y0142226D01*
X0394576Y0142128D01*
X0394559Y0142030D01*
X0394537Y0141933D01*
X0394512Y0141837D01*
X0394483Y0141742D01*
X0394450Y0141648D01*
X0394413Y0141556D01*
X0394373Y0141465D01*
X0394329Y0141376D01*
X0394281Y0141288D01*
X0394230Y0141203D01*
X0394176Y0141120D01*
X0394119Y0141038D01*
X0394058Y0140960D01*
X0393994Y0140883D01*
X0393928Y0140810D01*
X0393858Y0140739D01*
X0393786Y0140671D01*
X0393711Y0140605D01*
X0393633Y0140543D01*
X0393553Y0140484D01*
X0393471Y0140428D01*
X0393387Y0140376D01*
X0393300Y0140327D01*
X0393212Y0140281D01*
X0393122Y0140239D01*
X0393030Y0140200D01*
X0392937Y0140165D01*
X0392843Y0140134D01*
X0392747Y0140107D01*
X0392650Y0140084D01*
X0392553Y0140064D01*
X0392455Y0140048D01*
X0392356Y0140036D01*
X0392257Y0140028D01*
X0392158Y0140024D01*
X0392058Y0140024D01*
X0391959Y0140028D01*
X0391860Y0140036D01*
X0391761Y0140048D01*
X0391663Y0140064D01*
X0391566Y0140084D01*
X0391469Y0140107D01*
X0391373Y0140134D01*
X0391279Y0140165D01*
X0391186Y0140200D01*
X0391094Y0140239D01*
X0391004Y0140281D01*
X0390916Y0140327D01*
X0390829Y0140376D01*
X0390745Y0140428D01*
X0390663Y0140484D01*
X0390583Y0140543D01*
X0390505Y0140605D01*
X0390430Y0140671D01*
X0390358Y0140739D01*
X0390288Y0140810D01*
X0390222Y0140883D01*
X0390158Y0140960D01*
X0390097Y0141038D01*
X0390040Y0141120D01*
X0389986Y0141203D01*
X0389935Y0141288D01*
X0389887Y0141376D01*
X0389843Y0141465D01*
X0389803Y0141556D01*
X0389766Y0141648D01*
X0389733Y0141742D01*
X0389704Y0141837D01*
X0389679Y0141933D01*
X0389657Y0142030D01*
X0389640Y0142128D01*
X0389626Y0142226D01*
X0389616Y0142325D01*
X0389610Y0142425D01*
X0389608Y0142524D01*
X0244608Y0184524D02*
X0239608Y0184524D01*
X0239608Y0195524D01*
X0244608Y0195524D01*
X0244608Y0184524D01*
X0238108Y0184524D02*
X0233108Y0184524D01*
X0233108Y0195524D01*
X0238108Y0195524D01*
X0238108Y0184524D01*
X0231608Y0184524D02*
X0226608Y0184524D01*
X0226608Y0195524D01*
X0231608Y0195524D01*
X0231608Y0184524D01*
X0225108Y0184524D02*
X0220108Y0184524D01*
X0220108Y0195524D01*
X0225108Y0195524D01*
X0225108Y0184524D01*
X0228608Y0150024D02*
X0217608Y0150024D01*
X0217608Y0145024D01*
X0228608Y0145024D01*
X0228608Y0150024D01*
X0155608Y0070725D02*
X0155593Y0069512D01*
X0155549Y0068299D01*
X0155476Y0067088D01*
X0155373Y0065880D01*
X0155240Y0064674D01*
X0155079Y0063471D01*
X0154888Y0062273D01*
X0154669Y0061080D01*
X0154420Y0059892D01*
X0154143Y0058711D01*
X0153837Y0057537D01*
X0153503Y0056371D01*
X0153141Y0055213D01*
X0152751Y0054064D01*
X0152332Y0052925D01*
D13*
X0264927Y0113024D02*
X0264929Y0113093D01*
X0264935Y0113161D01*
X0264945Y0113229D01*
X0264959Y0113296D01*
X0264977Y0113363D01*
X0264998Y0113428D01*
X0265024Y0113492D01*
X0265053Y0113554D01*
X0265085Y0113614D01*
X0265121Y0113673D01*
X0265161Y0113729D01*
X0265203Y0113783D01*
X0265249Y0113834D01*
X0265298Y0113883D01*
X0265349Y0113929D01*
X0265403Y0113971D01*
X0265459Y0114011D01*
X0265517Y0114047D01*
X0265578Y0114079D01*
X0265640Y0114108D01*
X0265704Y0114134D01*
X0265769Y0114155D01*
X0265836Y0114173D01*
X0265903Y0114187D01*
X0265971Y0114197D01*
X0266039Y0114203D01*
X0266108Y0114205D01*
X0266177Y0114203D01*
X0266245Y0114197D01*
X0266313Y0114187D01*
X0266380Y0114173D01*
X0266447Y0114155D01*
X0266512Y0114134D01*
X0266576Y0114108D01*
X0266638Y0114079D01*
X0266698Y0114047D01*
X0266757Y0114011D01*
X0266813Y0113971D01*
X0266867Y0113929D01*
X0266918Y0113883D01*
X0266967Y0113834D01*
X0267013Y0113783D01*
X0267055Y0113729D01*
X0267095Y0113673D01*
X0267131Y0113614D01*
X0267163Y0113554D01*
X0267192Y0113492D01*
X0267218Y0113428D01*
X0267239Y0113363D01*
X0267257Y0113296D01*
X0267271Y0113229D01*
X0267281Y0113161D01*
X0267287Y0113093D01*
X0267289Y0113024D01*
X0267287Y0112955D01*
X0267281Y0112887D01*
X0267271Y0112819D01*
X0267257Y0112752D01*
X0267239Y0112685D01*
X0267218Y0112620D01*
X0267192Y0112556D01*
X0267163Y0112494D01*
X0267131Y0112433D01*
X0267095Y0112375D01*
X0267055Y0112319D01*
X0267013Y0112265D01*
X0266967Y0112214D01*
X0266918Y0112165D01*
X0266867Y0112119D01*
X0266813Y0112077D01*
X0266757Y0112037D01*
X0266699Y0112001D01*
X0266638Y0111969D01*
X0266576Y0111940D01*
X0266512Y0111914D01*
X0266447Y0111893D01*
X0266380Y0111875D01*
X0266313Y0111861D01*
X0266245Y0111851D01*
X0266177Y0111845D01*
X0266108Y0111843D01*
X0266039Y0111845D01*
X0265971Y0111851D01*
X0265903Y0111861D01*
X0265836Y0111875D01*
X0265769Y0111893D01*
X0265704Y0111914D01*
X0265640Y0111940D01*
X0265578Y0111969D01*
X0265517Y0112001D01*
X0265459Y0112037D01*
X0265403Y0112077D01*
X0265349Y0112119D01*
X0265298Y0112165D01*
X0265249Y0112214D01*
X0265203Y0112265D01*
X0265161Y0112319D01*
X0265121Y0112375D01*
X0265085Y0112433D01*
X0265053Y0112494D01*
X0265024Y0112556D01*
X0264998Y0112620D01*
X0264977Y0112685D01*
X0264959Y0112752D01*
X0264945Y0112819D01*
X0264935Y0112887D01*
X0264929Y0112955D01*
X0264927Y0113024D01*
X0219927Y0158024D02*
X0219929Y0158093D01*
X0219935Y0158161D01*
X0219945Y0158229D01*
X0219959Y0158296D01*
X0219977Y0158363D01*
X0219998Y0158428D01*
X0220024Y0158492D01*
X0220053Y0158554D01*
X0220085Y0158614D01*
X0220121Y0158673D01*
X0220161Y0158729D01*
X0220203Y0158783D01*
X0220249Y0158834D01*
X0220298Y0158883D01*
X0220349Y0158929D01*
X0220403Y0158971D01*
X0220459Y0159011D01*
X0220517Y0159047D01*
X0220578Y0159079D01*
X0220640Y0159108D01*
X0220704Y0159134D01*
X0220769Y0159155D01*
X0220836Y0159173D01*
X0220903Y0159187D01*
X0220971Y0159197D01*
X0221039Y0159203D01*
X0221108Y0159205D01*
X0221177Y0159203D01*
X0221245Y0159197D01*
X0221313Y0159187D01*
X0221380Y0159173D01*
X0221447Y0159155D01*
X0221512Y0159134D01*
X0221576Y0159108D01*
X0221638Y0159079D01*
X0221698Y0159047D01*
X0221757Y0159011D01*
X0221813Y0158971D01*
X0221867Y0158929D01*
X0221918Y0158883D01*
X0221967Y0158834D01*
X0222013Y0158783D01*
X0222055Y0158729D01*
X0222095Y0158673D01*
X0222131Y0158614D01*
X0222163Y0158554D01*
X0222192Y0158492D01*
X0222218Y0158428D01*
X0222239Y0158363D01*
X0222257Y0158296D01*
X0222271Y0158229D01*
X0222281Y0158161D01*
X0222287Y0158093D01*
X0222289Y0158024D01*
X0222287Y0157955D01*
X0222281Y0157887D01*
X0222271Y0157819D01*
X0222257Y0157752D01*
X0222239Y0157685D01*
X0222218Y0157620D01*
X0222192Y0157556D01*
X0222163Y0157494D01*
X0222131Y0157433D01*
X0222095Y0157375D01*
X0222055Y0157319D01*
X0222013Y0157265D01*
X0221967Y0157214D01*
X0221918Y0157165D01*
X0221867Y0157119D01*
X0221813Y0157077D01*
X0221757Y0157037D01*
X0221699Y0157001D01*
X0221638Y0156969D01*
X0221576Y0156940D01*
X0221512Y0156914D01*
X0221447Y0156893D01*
X0221380Y0156875D01*
X0221313Y0156861D01*
X0221245Y0156851D01*
X0221177Y0156845D01*
X0221108Y0156843D01*
X0221039Y0156845D01*
X0220971Y0156851D01*
X0220903Y0156861D01*
X0220836Y0156875D01*
X0220769Y0156893D01*
X0220704Y0156914D01*
X0220640Y0156940D01*
X0220578Y0156969D01*
X0220517Y0157001D01*
X0220459Y0157037D01*
X0220403Y0157077D01*
X0220349Y0157119D01*
X0220298Y0157165D01*
X0220249Y0157214D01*
X0220203Y0157265D01*
X0220161Y0157319D01*
X0220121Y0157375D01*
X0220085Y0157433D01*
X0220053Y0157494D01*
X0220024Y0157556D01*
X0219998Y0157620D01*
X0219977Y0157685D01*
X0219959Y0157752D01*
X0219945Y0157819D01*
X0219935Y0157887D01*
X0219929Y0157955D01*
X0219927Y0158024D01*
D14*
X0165944Y0087760D02*
X0165946Y0087843D01*
X0165952Y0087926D01*
X0165962Y0088009D01*
X0165976Y0088091D01*
X0165993Y0088173D01*
X0166015Y0088253D01*
X0166040Y0088332D01*
X0166069Y0088410D01*
X0166102Y0088487D01*
X0166139Y0088562D01*
X0166178Y0088635D01*
X0166222Y0088706D01*
X0166268Y0088775D01*
X0166318Y0088842D01*
X0166371Y0088906D01*
X0166427Y0088968D01*
X0166486Y0089027D01*
X0166548Y0089083D01*
X0166612Y0089136D01*
X0166679Y0089186D01*
X0166748Y0089232D01*
X0166819Y0089276D01*
X0166892Y0089315D01*
X0166967Y0089352D01*
X0167044Y0089385D01*
X0167122Y0089414D01*
X0167201Y0089439D01*
X0167281Y0089461D01*
X0167363Y0089478D01*
X0167445Y0089492D01*
X0167528Y0089502D01*
X0167611Y0089508D01*
X0167694Y0089510D01*
X0167777Y0089508D01*
X0167860Y0089502D01*
X0167943Y0089492D01*
X0168025Y0089478D01*
X0168107Y0089461D01*
X0168187Y0089439D01*
X0168266Y0089414D01*
X0168344Y0089385D01*
X0168421Y0089352D01*
X0168496Y0089315D01*
X0168569Y0089276D01*
X0168640Y0089232D01*
X0168709Y0089186D01*
X0168776Y0089136D01*
X0168840Y0089083D01*
X0168902Y0089027D01*
X0168961Y0088968D01*
X0169017Y0088906D01*
X0169070Y0088842D01*
X0169120Y0088775D01*
X0169166Y0088706D01*
X0169210Y0088635D01*
X0169249Y0088562D01*
X0169286Y0088487D01*
X0169319Y0088410D01*
X0169348Y0088332D01*
X0169373Y0088253D01*
X0169395Y0088173D01*
X0169412Y0088091D01*
X0169426Y0088009D01*
X0169436Y0087926D01*
X0169442Y0087843D01*
X0169444Y0087760D01*
X0169442Y0087677D01*
X0169436Y0087594D01*
X0169426Y0087511D01*
X0169412Y0087429D01*
X0169395Y0087347D01*
X0169373Y0087267D01*
X0169348Y0087188D01*
X0169319Y0087110D01*
X0169286Y0087033D01*
X0169249Y0086958D01*
X0169210Y0086885D01*
X0169166Y0086814D01*
X0169120Y0086745D01*
X0169070Y0086678D01*
X0169017Y0086614D01*
X0168961Y0086552D01*
X0168902Y0086493D01*
X0168840Y0086437D01*
X0168776Y0086384D01*
X0168709Y0086334D01*
X0168640Y0086288D01*
X0168569Y0086244D01*
X0168496Y0086205D01*
X0168421Y0086168D01*
X0168344Y0086135D01*
X0168266Y0086106D01*
X0168187Y0086081D01*
X0168107Y0086059D01*
X0168025Y0086042D01*
X0167943Y0086028D01*
X0167860Y0086018D01*
X0167777Y0086012D01*
X0167694Y0086010D01*
X0167611Y0086012D01*
X0167528Y0086018D01*
X0167445Y0086028D01*
X0167363Y0086042D01*
X0167281Y0086059D01*
X0167201Y0086081D01*
X0167122Y0086106D01*
X0167044Y0086135D01*
X0166967Y0086168D01*
X0166892Y0086205D01*
X0166819Y0086244D01*
X0166748Y0086288D01*
X0166679Y0086334D01*
X0166612Y0086384D01*
X0166548Y0086437D01*
X0166486Y0086493D01*
X0166427Y0086552D01*
X0166371Y0086614D01*
X0166318Y0086678D01*
X0166268Y0086745D01*
X0166222Y0086814D01*
X0166178Y0086885D01*
X0166139Y0086958D01*
X0166102Y0087033D01*
X0166069Y0087110D01*
X0166040Y0087188D01*
X0166015Y0087267D01*
X0165993Y0087347D01*
X0165976Y0087429D01*
X0165962Y0087511D01*
X0165952Y0087594D01*
X0165946Y0087677D01*
X0165944Y0087760D01*
X0165944Y0056264D02*
X0165946Y0056347D01*
X0165952Y0056430D01*
X0165962Y0056513D01*
X0165976Y0056595D01*
X0165993Y0056677D01*
X0166015Y0056757D01*
X0166040Y0056836D01*
X0166069Y0056914D01*
X0166102Y0056991D01*
X0166139Y0057066D01*
X0166178Y0057139D01*
X0166222Y0057210D01*
X0166268Y0057279D01*
X0166318Y0057346D01*
X0166371Y0057410D01*
X0166427Y0057472D01*
X0166486Y0057531D01*
X0166548Y0057587D01*
X0166612Y0057640D01*
X0166679Y0057690D01*
X0166748Y0057736D01*
X0166819Y0057780D01*
X0166892Y0057819D01*
X0166967Y0057856D01*
X0167044Y0057889D01*
X0167122Y0057918D01*
X0167201Y0057943D01*
X0167281Y0057965D01*
X0167363Y0057982D01*
X0167445Y0057996D01*
X0167528Y0058006D01*
X0167611Y0058012D01*
X0167694Y0058014D01*
X0167777Y0058012D01*
X0167860Y0058006D01*
X0167943Y0057996D01*
X0168025Y0057982D01*
X0168107Y0057965D01*
X0168187Y0057943D01*
X0168266Y0057918D01*
X0168344Y0057889D01*
X0168421Y0057856D01*
X0168496Y0057819D01*
X0168569Y0057780D01*
X0168640Y0057736D01*
X0168709Y0057690D01*
X0168776Y0057640D01*
X0168840Y0057587D01*
X0168902Y0057531D01*
X0168961Y0057472D01*
X0169017Y0057410D01*
X0169070Y0057346D01*
X0169120Y0057279D01*
X0169166Y0057210D01*
X0169210Y0057139D01*
X0169249Y0057066D01*
X0169286Y0056991D01*
X0169319Y0056914D01*
X0169348Y0056836D01*
X0169373Y0056757D01*
X0169395Y0056677D01*
X0169412Y0056595D01*
X0169426Y0056513D01*
X0169436Y0056430D01*
X0169442Y0056347D01*
X0169444Y0056264D01*
X0169442Y0056181D01*
X0169436Y0056098D01*
X0169426Y0056015D01*
X0169412Y0055933D01*
X0169395Y0055851D01*
X0169373Y0055771D01*
X0169348Y0055692D01*
X0169319Y0055614D01*
X0169286Y0055537D01*
X0169249Y0055462D01*
X0169210Y0055389D01*
X0169166Y0055318D01*
X0169120Y0055249D01*
X0169070Y0055182D01*
X0169017Y0055118D01*
X0168961Y0055056D01*
X0168902Y0054997D01*
X0168840Y0054941D01*
X0168776Y0054888D01*
X0168709Y0054838D01*
X0168640Y0054792D01*
X0168569Y0054748D01*
X0168496Y0054709D01*
X0168421Y0054672D01*
X0168344Y0054639D01*
X0168266Y0054610D01*
X0168187Y0054585D01*
X0168107Y0054563D01*
X0168025Y0054546D01*
X0167943Y0054532D01*
X0167860Y0054522D01*
X0167777Y0054516D01*
X0167694Y0054514D01*
X0167611Y0054516D01*
X0167528Y0054522D01*
X0167445Y0054532D01*
X0167363Y0054546D01*
X0167281Y0054563D01*
X0167201Y0054585D01*
X0167122Y0054610D01*
X0167044Y0054639D01*
X0166967Y0054672D01*
X0166892Y0054709D01*
X0166819Y0054748D01*
X0166748Y0054792D01*
X0166679Y0054838D01*
X0166612Y0054888D01*
X0166548Y0054941D01*
X0166486Y0054997D01*
X0166427Y0055056D01*
X0166371Y0055118D01*
X0166318Y0055182D01*
X0166268Y0055249D01*
X0166222Y0055318D01*
X0166178Y0055389D01*
X0166139Y0055462D01*
X0166102Y0055537D01*
X0166069Y0055614D01*
X0166040Y0055692D01*
X0166015Y0055771D01*
X0165993Y0055851D01*
X0165976Y0055933D01*
X0165962Y0056015D01*
X0165952Y0056098D01*
X0165946Y0056181D01*
X0165944Y0056264D01*
D15*
X0380055Y0150657D02*
X0380055Y0151625D01*
X0380539Y0152109D01*
X0382474Y0152109D01*
X0382958Y0151625D01*
X0382958Y0150657D01*
X0382474Y0150174D01*
X0380539Y0150174D01*
X0380055Y0150657D01*
X0381990Y0151141D02*
X0382958Y0152109D01*
X0382958Y0153120D02*
X0381023Y0155055D01*
X0380539Y0155055D01*
X0380055Y0154572D01*
X0380055Y0153604D01*
X0380539Y0153120D01*
X0382958Y0153120D02*
X0382958Y0155055D01*
X0397742Y0170174D02*
X0398709Y0170174D01*
X0399193Y0170657D01*
X0399193Y0171625D01*
X0398225Y0171625D01*
X0397258Y0172592D02*
X0397258Y0170657D01*
X0397742Y0170174D01*
X0400204Y0170174D02*
X0400204Y0173076D01*
X0402139Y0170174D01*
X0402139Y0173076D01*
X0403151Y0173076D02*
X0404602Y0173076D01*
X0405086Y0172592D01*
X0405086Y0170657D01*
X0404602Y0170174D01*
X0403151Y0170174D01*
X0403151Y0173076D01*
X0399193Y0172592D02*
X0398709Y0173076D01*
X0397742Y0173076D01*
X0397258Y0172592D01*
X0424856Y0182374D02*
X0424856Y0183475D01*
X0425223Y0183842D01*
X0425957Y0183842D01*
X0426324Y0183475D01*
X0426324Y0182374D01*
X0426324Y0183108D02*
X0427058Y0183842D01*
X0426691Y0184676D02*
X0427058Y0185043D01*
X0427058Y0185777D01*
X0426691Y0186144D01*
X0425957Y0186144D01*
X0425590Y0185777D01*
X0425590Y0185410D01*
X0425957Y0184676D01*
X0424856Y0184676D01*
X0424856Y0186144D01*
X0424856Y0182374D02*
X0427058Y0182374D01*
X0439056Y0182374D02*
X0439056Y0183475D01*
X0439423Y0183842D01*
X0440157Y0183842D01*
X0440524Y0183475D01*
X0440524Y0182374D01*
X0440524Y0183108D02*
X0441258Y0183842D01*
X0440891Y0184676D02*
X0441258Y0185043D01*
X0441258Y0185777D01*
X0440891Y0186144D01*
X0440524Y0186144D01*
X0440157Y0185777D01*
X0440157Y0184676D01*
X0440891Y0184676D01*
X0440157Y0184676D02*
X0439423Y0185410D01*
X0439056Y0186144D01*
X0439056Y0182374D02*
X0441258Y0182374D01*
X0453256Y0182374D02*
X0453256Y0183475D01*
X0453623Y0183842D01*
X0454357Y0183842D01*
X0454724Y0183475D01*
X0454724Y0182374D01*
X0454724Y0183108D02*
X0455458Y0183842D01*
X0455458Y0184676D02*
X0455458Y0186144D01*
X0455458Y0185410D02*
X0453256Y0185410D01*
X0453990Y0184676D01*
X0454357Y0186978D02*
X0453256Y0186978D01*
X0453256Y0188446D01*
X0453990Y0188079D02*
X0454357Y0188446D01*
X0455091Y0188446D01*
X0455458Y0188079D01*
X0455458Y0187345D01*
X0455091Y0186978D01*
X0454357Y0186978D02*
X0453990Y0187712D01*
X0453990Y0188079D01*
X0453256Y0182374D02*
X0455458Y0182374D01*
X0467456Y0182374D02*
X0467456Y0183475D01*
X0467823Y0183842D01*
X0468557Y0183842D01*
X0468924Y0183475D01*
X0468924Y0182374D01*
X0468924Y0183108D02*
X0469658Y0183842D01*
X0469658Y0184676D02*
X0469658Y0186144D01*
X0469658Y0185410D02*
X0467456Y0185410D01*
X0468190Y0184676D01*
X0467456Y0186978D02*
X0467456Y0188446D01*
X0467823Y0188446D01*
X0469291Y0186978D01*
X0469658Y0186978D01*
X0469658Y0182374D02*
X0467456Y0182374D01*
D16*
X0477740Y0208451D02*
X0477740Y0213451D01*
X0427740Y0213451D02*
X0427740Y0208451D01*
X0427369Y0126602D02*
X0427369Y0125421D01*
X0426188Y0125421D01*
X0426188Y0037626D01*
X0427369Y0037626D01*
X0427369Y0036445D01*
X0430125Y0036445D01*
X0430125Y0126602D01*
X0427369Y0126602D01*
X0426188Y0126602D02*
X0424613Y0126602D01*
X0426188Y0126602D02*
X0426188Y0125421D01*
X0412802Y0126602D02*
X0408865Y0126602D01*
X0408865Y0121878D01*
X0427369Y0043925D02*
X0427369Y0042351D01*
X0428944Y0043138D01*
X0427369Y0043925D01*
X0427369Y0043708D02*
X0427805Y0043708D01*
X0427369Y0042909D02*
X0428486Y0042909D01*
X0426188Y0037626D02*
X0426188Y0036445D01*
X0424613Y0036445D01*
X0412802Y0036445D02*
X0408865Y0036445D01*
X0408865Y0041169D01*
M02*
