G75*
%MOIN*%
%OFA0B0*%
%FSLAX25Y25*%
%IPPOS*%
%LPD*%
%AMOC8*
5,1,8,0,0,1.08239X$1,22.5*
%
%ADD10R,0.02000X0.04000*%
%ADD11R,0.04500X0.04000*%
%ADD12C,0.00875*%
%ADD13R,0.09000X0.04500*%
%ADD14R,0.01575X0.04724*%
%ADD15R,0.06000X0.03000*%
%ADD16R,0.06000X0.04000*%
%ADD17R,0.08000X0.06000*%
%ADD18R,0.06000X0.06000*%
%ADD19C,0.01000*%
%ADD20R,0.03000X0.02000*%
%ADD21R,0.05500X0.05500*%
%ADD22R,0.02362X0.01575*%
%ADD23R,0.02362X0.01969*%
%ADD24C,0.03000*%
%ADD25R,0.06000X0.12000*%
%ADD26R,0.12000X0.06000*%
%ADD27R,0.04921X0.00984*%
%ADD28R,0.08071X0.06496*%
%ADD29R,0.03937X0.04331*%
D10*
X0263368Y0161524D03*
X0267108Y0161524D03*
X0270848Y0161524D03*
X0270848Y0170524D03*
X0267108Y0170524D03*
X0263368Y0170524D03*
D11*
X0330608Y0173524D03*
X0338608Y0170024D03*
X0345608Y0174024D03*
X0353608Y0177524D03*
X0360608Y0181024D03*
X0368608Y0177524D03*
X0360608Y0174024D03*
X0345608Y0181024D03*
X0338608Y0185024D03*
X0330608Y0188524D03*
X0330608Y0181524D03*
X0330608Y0166524D03*
X0368108Y0156024D03*
X0376108Y0152524D03*
X0368108Y0149024D03*
X0368108Y0141024D03*
X0376108Y0137524D03*
X0368108Y0134024D03*
X0273608Y0073524D03*
X0281608Y0070024D03*
X0273608Y0066524D03*
X0256608Y0056024D03*
X0264608Y0052524D03*
X0256608Y0049024D03*
X0305108Y0047524D03*
X0313108Y0051024D03*
X0305108Y0054524D03*
D12*
X0299921Y0053711D02*
X0297295Y0053711D01*
X0297295Y0056337D01*
X0299921Y0056337D01*
X0299921Y0053711D01*
X0299921Y0054585D02*
X0297295Y0054585D01*
X0297295Y0055459D02*
X0299921Y0055459D01*
X0299921Y0056333D02*
X0297295Y0056333D01*
X0293921Y0053711D02*
X0291295Y0053711D01*
X0291295Y0056337D01*
X0293921Y0056337D01*
X0293921Y0053711D01*
X0293921Y0054585D02*
X0291295Y0054585D01*
X0291295Y0055459D02*
X0293921Y0055459D01*
X0293921Y0056333D02*
X0291295Y0056333D01*
X0282421Y0056337D02*
X0279795Y0056337D01*
X0282421Y0056337D02*
X0282421Y0053711D01*
X0279795Y0053711D01*
X0279795Y0056337D01*
X0279795Y0054585D02*
X0282421Y0054585D01*
X0282421Y0055459D02*
X0279795Y0055459D01*
X0279795Y0056333D02*
X0282421Y0056333D01*
X0276421Y0056337D02*
X0273795Y0056337D01*
X0276421Y0056337D02*
X0276421Y0053711D01*
X0273795Y0053711D01*
X0273795Y0056337D01*
X0273795Y0054585D02*
X0276421Y0054585D01*
X0276421Y0055459D02*
X0273795Y0055459D01*
X0273795Y0056333D02*
X0276421Y0056333D01*
X0268421Y0065711D02*
X0268421Y0068337D01*
X0268421Y0065711D02*
X0265795Y0065711D01*
X0265795Y0068337D01*
X0268421Y0068337D01*
X0268421Y0066585D02*
X0265795Y0066585D01*
X0265795Y0067459D02*
X0268421Y0067459D01*
X0268421Y0068333D02*
X0265795Y0068333D01*
X0261921Y0068337D02*
X0261921Y0065711D01*
X0259295Y0065711D01*
X0259295Y0068337D01*
X0261921Y0068337D01*
X0261921Y0066585D02*
X0259295Y0066585D01*
X0259295Y0067459D02*
X0261921Y0067459D01*
X0261921Y0068333D02*
X0259295Y0068333D01*
X0261921Y0071711D02*
X0261921Y0074337D01*
X0261921Y0071711D02*
X0259295Y0071711D01*
X0259295Y0074337D01*
X0261921Y0074337D01*
X0261921Y0072585D02*
X0259295Y0072585D01*
X0259295Y0073459D02*
X0261921Y0073459D01*
X0261921Y0074333D02*
X0259295Y0074333D01*
X0268421Y0074337D02*
X0268421Y0071711D01*
X0265795Y0071711D01*
X0265795Y0074337D01*
X0268421Y0074337D01*
X0268421Y0072585D02*
X0265795Y0072585D01*
X0265795Y0073459D02*
X0268421Y0073459D01*
X0268421Y0074333D02*
X0265795Y0074333D01*
X0245921Y0074337D02*
X0245921Y0071711D01*
X0243295Y0071711D01*
X0243295Y0074337D01*
X0245921Y0074337D01*
X0245921Y0072585D02*
X0243295Y0072585D01*
X0243295Y0073459D02*
X0245921Y0073459D01*
X0245921Y0074333D02*
X0243295Y0074333D01*
X0239421Y0074337D02*
X0239421Y0071711D01*
X0236795Y0071711D01*
X0236795Y0074337D01*
X0239421Y0074337D01*
X0239421Y0072585D02*
X0236795Y0072585D01*
X0236795Y0073459D02*
X0239421Y0073459D01*
X0239421Y0074333D02*
X0236795Y0074333D01*
X0229295Y0074337D02*
X0229295Y0071711D01*
X0229295Y0074337D02*
X0231921Y0074337D01*
X0231921Y0071711D01*
X0229295Y0071711D01*
X0229295Y0072585D02*
X0231921Y0072585D01*
X0231921Y0073459D02*
X0229295Y0073459D01*
X0229295Y0074333D02*
X0231921Y0074333D01*
X0224421Y0074337D02*
X0224421Y0071711D01*
X0221795Y0071711D01*
X0221795Y0074337D01*
X0224421Y0074337D01*
X0224421Y0072585D02*
X0221795Y0072585D01*
X0221795Y0073459D02*
X0224421Y0073459D01*
X0224421Y0074333D02*
X0221795Y0074333D01*
X0224421Y0068337D02*
X0224421Y0065711D01*
X0221795Y0065711D01*
X0221795Y0068337D01*
X0224421Y0068337D01*
X0224421Y0066585D02*
X0221795Y0066585D01*
X0221795Y0067459D02*
X0224421Y0067459D01*
X0224421Y0068333D02*
X0221795Y0068333D01*
X0229295Y0068337D02*
X0229295Y0065711D01*
X0229295Y0068337D02*
X0231921Y0068337D01*
X0231921Y0065711D01*
X0229295Y0065711D01*
X0229295Y0066585D02*
X0231921Y0066585D01*
X0231921Y0067459D02*
X0229295Y0067459D01*
X0229295Y0068333D02*
X0231921Y0068333D01*
X0239421Y0068337D02*
X0239421Y0065711D01*
X0236795Y0065711D01*
X0236795Y0068337D01*
X0239421Y0068337D01*
X0239421Y0066585D02*
X0236795Y0066585D01*
X0236795Y0067459D02*
X0239421Y0067459D01*
X0239421Y0068333D02*
X0236795Y0068333D01*
X0245921Y0068337D02*
X0245921Y0065711D01*
X0243295Y0065711D01*
X0243295Y0068337D01*
X0245921Y0068337D01*
X0245921Y0066585D02*
X0243295Y0066585D01*
X0243295Y0067459D02*
X0245921Y0067459D01*
X0245921Y0068333D02*
X0243295Y0068333D01*
X0236795Y0056837D02*
X0236795Y0054211D01*
X0236795Y0056837D02*
X0239421Y0056837D01*
X0239421Y0054211D01*
X0236795Y0054211D01*
X0236795Y0055085D02*
X0239421Y0055085D01*
X0239421Y0055959D02*
X0236795Y0055959D01*
X0236795Y0056833D02*
X0239421Y0056833D01*
X0236795Y0050837D02*
X0236795Y0048211D01*
X0236795Y0050837D02*
X0239421Y0050837D01*
X0239421Y0048211D01*
X0236795Y0048211D01*
X0236795Y0049085D02*
X0239421Y0049085D01*
X0239421Y0049959D02*
X0236795Y0049959D01*
X0236795Y0050833D02*
X0239421Y0050833D01*
X0289421Y0065711D02*
X0289421Y0068337D01*
X0289421Y0065711D02*
X0286795Y0065711D01*
X0286795Y0068337D01*
X0289421Y0068337D01*
X0289421Y0066585D02*
X0286795Y0066585D01*
X0286795Y0067459D02*
X0289421Y0067459D01*
X0289421Y0068333D02*
X0286795Y0068333D01*
X0289421Y0071711D02*
X0289421Y0074337D01*
X0289421Y0071711D02*
X0286795Y0071711D01*
X0286795Y0074337D01*
X0289421Y0074337D01*
X0289421Y0072585D02*
X0286795Y0072585D01*
X0286795Y0073459D02*
X0289421Y0073459D01*
X0289421Y0074333D02*
X0286795Y0074333D01*
X0291295Y0048837D02*
X0293921Y0048837D01*
X0293921Y0046211D01*
X0291295Y0046211D01*
X0291295Y0048837D01*
X0291295Y0047085D02*
X0293921Y0047085D01*
X0293921Y0047959D02*
X0291295Y0047959D01*
X0291295Y0048833D02*
X0293921Y0048833D01*
X0297295Y0048837D02*
X0299921Y0048837D01*
X0299921Y0046211D01*
X0297295Y0046211D01*
X0297295Y0048837D01*
X0297295Y0047085D02*
X0299921Y0047085D01*
X0299921Y0047959D02*
X0297295Y0047959D01*
X0297295Y0048833D02*
X0299921Y0048833D01*
X0342195Y0047211D02*
X0344821Y0047211D01*
X0342195Y0047211D02*
X0342195Y0049837D01*
X0344821Y0049837D01*
X0344821Y0047211D01*
X0344821Y0048085D02*
X0342195Y0048085D01*
X0342195Y0048959D02*
X0344821Y0048959D01*
X0344821Y0049833D02*
X0342195Y0049833D01*
X0348195Y0047211D02*
X0350821Y0047211D01*
X0348195Y0047211D02*
X0348195Y0049837D01*
X0350821Y0049837D01*
X0350821Y0047211D01*
X0350821Y0048085D02*
X0348195Y0048085D01*
X0348195Y0048959D02*
X0350821Y0048959D01*
X0350821Y0049833D02*
X0348195Y0049833D01*
X0348195Y0056337D02*
X0350821Y0056337D01*
X0350821Y0053711D01*
X0348195Y0053711D01*
X0348195Y0056337D01*
X0348195Y0054585D02*
X0350821Y0054585D01*
X0350821Y0055459D02*
X0348195Y0055459D01*
X0348195Y0056333D02*
X0350821Y0056333D01*
X0344821Y0056337D02*
X0342195Y0056337D01*
X0344821Y0056337D02*
X0344821Y0053711D01*
X0342195Y0053711D01*
X0342195Y0056337D01*
X0342195Y0054585D02*
X0344821Y0054585D01*
X0344821Y0055459D02*
X0342195Y0055459D01*
X0342195Y0056333D02*
X0344821Y0056333D01*
X0434621Y0022237D02*
X0434621Y0019611D01*
X0431995Y0019611D01*
X0431995Y0022237D01*
X0434621Y0022237D01*
X0434621Y0020485D02*
X0431995Y0020485D01*
X0431995Y0021359D02*
X0434621Y0021359D01*
X0434621Y0022233D02*
X0431995Y0022233D01*
X0441121Y0022237D02*
X0441121Y0019611D01*
X0438495Y0019611D01*
X0438495Y0022237D01*
X0441121Y0022237D01*
X0441121Y0020485D02*
X0438495Y0020485D01*
X0438495Y0021359D02*
X0441121Y0021359D01*
X0441121Y0022233D02*
X0438495Y0022233D01*
X0441121Y0016237D02*
X0441121Y0013611D01*
X0438495Y0013611D01*
X0438495Y0016237D01*
X0441121Y0016237D01*
X0441121Y0014485D02*
X0438495Y0014485D01*
X0438495Y0015359D02*
X0441121Y0015359D01*
X0441121Y0016233D02*
X0438495Y0016233D01*
X0434621Y0016237D02*
X0434621Y0013611D01*
X0431995Y0013611D01*
X0431995Y0016237D01*
X0434621Y0016237D01*
X0434621Y0014485D02*
X0431995Y0014485D01*
X0431995Y0015359D02*
X0434621Y0015359D01*
X0434621Y0016233D02*
X0431995Y0016233D01*
X0314921Y0100711D02*
X0314921Y0103337D01*
X0314921Y0100711D02*
X0312295Y0100711D01*
X0312295Y0103337D01*
X0314921Y0103337D01*
X0314921Y0101585D02*
X0312295Y0101585D01*
X0312295Y0102459D02*
X0314921Y0102459D01*
X0314921Y0103333D02*
X0312295Y0103333D01*
X0304795Y0103337D02*
X0304795Y0100711D01*
X0304795Y0103337D02*
X0307421Y0103337D01*
X0307421Y0100711D01*
X0304795Y0100711D01*
X0304795Y0101585D02*
X0307421Y0101585D01*
X0307421Y0102459D02*
X0304795Y0102459D01*
X0304795Y0103333D02*
X0307421Y0103333D01*
X0299921Y0103337D02*
X0299921Y0100711D01*
X0297295Y0100711D01*
X0297295Y0103337D01*
X0299921Y0103337D01*
X0299921Y0101585D02*
X0297295Y0101585D01*
X0297295Y0102459D02*
X0299921Y0102459D01*
X0299921Y0103333D02*
X0297295Y0103333D01*
X0299921Y0106711D02*
X0299921Y0109337D01*
X0299921Y0106711D02*
X0297295Y0106711D01*
X0297295Y0109337D01*
X0299921Y0109337D01*
X0299921Y0107585D02*
X0297295Y0107585D01*
X0297295Y0108459D02*
X0299921Y0108459D01*
X0299921Y0109333D02*
X0297295Y0109333D01*
X0304795Y0109337D02*
X0304795Y0106711D01*
X0304795Y0109337D02*
X0307421Y0109337D01*
X0307421Y0106711D01*
X0304795Y0106711D01*
X0304795Y0107585D02*
X0307421Y0107585D01*
X0307421Y0108459D02*
X0304795Y0108459D01*
X0304795Y0109333D02*
X0307421Y0109333D01*
X0314921Y0109337D02*
X0314921Y0106711D01*
X0312295Y0106711D01*
X0312295Y0109337D01*
X0314921Y0109337D01*
X0314921Y0107585D02*
X0312295Y0107585D01*
X0312295Y0108459D02*
X0314921Y0108459D01*
X0314921Y0109333D02*
X0312295Y0109333D01*
X0309595Y0118511D02*
X0309595Y0121137D01*
X0312221Y0121137D01*
X0312221Y0118511D01*
X0309595Y0118511D01*
X0309595Y0119385D02*
X0312221Y0119385D01*
X0312221Y0120259D02*
X0309595Y0120259D01*
X0309595Y0121133D02*
X0312221Y0121133D01*
X0303595Y0121137D02*
X0303595Y0118511D01*
X0303595Y0121137D02*
X0306221Y0121137D01*
X0306221Y0118511D01*
X0303595Y0118511D01*
X0303595Y0119385D02*
X0306221Y0119385D01*
X0306221Y0120259D02*
X0303595Y0120259D01*
X0303595Y0121133D02*
X0306221Y0121133D01*
X0303595Y0124511D02*
X0303595Y0127137D01*
X0306221Y0127137D01*
X0306221Y0124511D01*
X0303595Y0124511D01*
X0303595Y0125385D02*
X0306221Y0125385D01*
X0306221Y0126259D02*
X0303595Y0126259D01*
X0303595Y0127133D02*
X0306221Y0127133D01*
X0309595Y0127137D02*
X0309595Y0124511D01*
X0309595Y0127137D02*
X0312221Y0127137D01*
X0312221Y0124511D01*
X0309595Y0124511D01*
X0309595Y0125385D02*
X0312221Y0125385D01*
X0312221Y0126259D02*
X0309595Y0126259D01*
X0309595Y0127133D02*
X0312221Y0127133D01*
X0313795Y0141211D02*
X0316421Y0141211D01*
X0313795Y0141211D02*
X0313795Y0143837D01*
X0316421Y0143837D01*
X0316421Y0141211D01*
X0316421Y0142085D02*
X0313795Y0142085D01*
X0313795Y0142959D02*
X0316421Y0142959D01*
X0316421Y0143833D02*
X0313795Y0143833D01*
X0310421Y0141211D02*
X0307795Y0141211D01*
X0307795Y0143837D01*
X0310421Y0143837D01*
X0310421Y0141211D01*
X0310421Y0142085D02*
X0307795Y0142085D01*
X0307795Y0142959D02*
X0310421Y0142959D01*
X0310421Y0143833D02*
X0307795Y0143833D01*
X0276421Y0143837D02*
X0273795Y0143837D01*
X0276421Y0143837D02*
X0276421Y0141211D01*
X0273795Y0141211D01*
X0273795Y0143837D01*
X0273795Y0142085D02*
X0276421Y0142085D01*
X0276421Y0142959D02*
X0273795Y0142959D01*
X0273795Y0143833D02*
X0276421Y0143833D01*
X0270421Y0143837D02*
X0267795Y0143837D01*
X0270421Y0143837D02*
X0270421Y0141211D01*
X0267795Y0141211D01*
X0267795Y0143837D01*
X0267795Y0142085D02*
X0270421Y0142085D01*
X0270421Y0142959D02*
X0267795Y0142959D01*
X0267795Y0143833D02*
X0270421Y0143833D01*
X0258921Y0143837D02*
X0256295Y0143837D01*
X0258921Y0143837D02*
X0258921Y0141211D01*
X0256295Y0141211D01*
X0256295Y0143837D01*
X0256295Y0142085D02*
X0258921Y0142085D01*
X0258921Y0142959D02*
X0256295Y0142959D01*
X0256295Y0143833D02*
X0258921Y0143833D01*
X0252921Y0143837D02*
X0250295Y0143837D01*
X0252921Y0143837D02*
X0252921Y0141211D01*
X0250295Y0141211D01*
X0250295Y0143837D01*
X0250295Y0142085D02*
X0252921Y0142085D01*
X0252921Y0142959D02*
X0250295Y0142959D01*
X0250295Y0143833D02*
X0252921Y0143833D01*
X0242921Y0146211D02*
X0240295Y0146211D01*
X0240295Y0148837D01*
X0242921Y0148837D01*
X0242921Y0146211D01*
X0242921Y0147085D02*
X0240295Y0147085D01*
X0240295Y0147959D02*
X0242921Y0147959D01*
X0242921Y0148833D02*
X0240295Y0148833D01*
X0236921Y0146211D02*
X0234295Y0146211D01*
X0234295Y0148837D01*
X0236921Y0148837D01*
X0236921Y0146211D01*
X0236921Y0147085D02*
X0234295Y0147085D01*
X0234295Y0147959D02*
X0236921Y0147959D01*
X0236921Y0148833D02*
X0234295Y0148833D01*
X0227421Y0148837D02*
X0224795Y0148837D01*
X0227421Y0148837D02*
X0227421Y0146211D01*
X0224795Y0146211D01*
X0224795Y0148837D01*
X0224795Y0147085D02*
X0227421Y0147085D01*
X0227421Y0147959D02*
X0224795Y0147959D01*
X0224795Y0148833D02*
X0227421Y0148833D01*
X0221421Y0148837D02*
X0218795Y0148837D01*
X0221421Y0148837D02*
X0221421Y0146211D01*
X0218795Y0146211D01*
X0218795Y0148837D01*
X0218795Y0147085D02*
X0221421Y0147085D01*
X0221421Y0147959D02*
X0218795Y0147959D01*
X0218795Y0148833D02*
X0221421Y0148833D01*
X0246795Y0161211D02*
X0249421Y0161211D01*
X0246795Y0161211D02*
X0246795Y0163837D01*
X0249421Y0163837D01*
X0249421Y0161211D01*
X0249421Y0162085D02*
X0246795Y0162085D01*
X0246795Y0162959D02*
X0249421Y0162959D01*
X0249421Y0163833D02*
X0246795Y0163833D01*
X0252795Y0161211D02*
X0255421Y0161211D01*
X0252795Y0161211D02*
X0252795Y0163837D01*
X0255421Y0163837D01*
X0255421Y0161211D01*
X0255421Y0162085D02*
X0252795Y0162085D01*
X0252795Y0162959D02*
X0255421Y0162959D01*
X0255421Y0163833D02*
X0252795Y0163833D01*
X0252795Y0168711D02*
X0255421Y0168711D01*
X0252795Y0168711D02*
X0252795Y0171337D01*
X0255421Y0171337D01*
X0255421Y0168711D01*
X0255421Y0169585D02*
X0252795Y0169585D01*
X0252795Y0170459D02*
X0255421Y0170459D01*
X0255421Y0171333D02*
X0252795Y0171333D01*
X0249421Y0168711D02*
X0246795Y0168711D01*
X0246795Y0171337D01*
X0249421Y0171337D01*
X0249421Y0168711D01*
X0249421Y0169585D02*
X0246795Y0169585D01*
X0246795Y0170459D02*
X0249421Y0170459D01*
X0249421Y0171333D02*
X0246795Y0171333D01*
X0243421Y0185711D02*
X0243421Y0188337D01*
X0243421Y0185711D02*
X0240795Y0185711D01*
X0240795Y0188337D01*
X0243421Y0188337D01*
X0243421Y0186585D02*
X0240795Y0186585D01*
X0240795Y0187459D02*
X0243421Y0187459D01*
X0243421Y0188333D02*
X0240795Y0188333D01*
X0236921Y0188337D02*
X0236921Y0185711D01*
X0234295Y0185711D01*
X0234295Y0188337D01*
X0236921Y0188337D01*
X0236921Y0186585D02*
X0234295Y0186585D01*
X0234295Y0187459D02*
X0236921Y0187459D01*
X0236921Y0188333D02*
X0234295Y0188333D01*
X0236921Y0191711D02*
X0236921Y0194337D01*
X0236921Y0191711D02*
X0234295Y0191711D01*
X0234295Y0194337D01*
X0236921Y0194337D01*
X0236921Y0192585D02*
X0234295Y0192585D01*
X0234295Y0193459D02*
X0236921Y0193459D01*
X0236921Y0194333D02*
X0234295Y0194333D01*
X0243421Y0194337D02*
X0243421Y0191711D01*
X0240795Y0191711D01*
X0240795Y0194337D01*
X0243421Y0194337D01*
X0243421Y0192585D02*
X0240795Y0192585D01*
X0240795Y0193459D02*
X0243421Y0193459D01*
X0243421Y0194333D02*
X0240795Y0194333D01*
X0230421Y0194337D02*
X0230421Y0191711D01*
X0227795Y0191711D01*
X0227795Y0194337D01*
X0230421Y0194337D01*
X0230421Y0192585D02*
X0227795Y0192585D01*
X0227795Y0193459D02*
X0230421Y0193459D01*
X0230421Y0194333D02*
X0227795Y0194333D01*
X0221295Y0194337D02*
X0221295Y0191711D01*
X0221295Y0194337D02*
X0223921Y0194337D01*
X0223921Y0191711D01*
X0221295Y0191711D01*
X0221295Y0192585D02*
X0223921Y0192585D01*
X0223921Y0193459D02*
X0221295Y0193459D01*
X0221295Y0194333D02*
X0223921Y0194333D01*
X0221295Y0188337D02*
X0221295Y0185711D01*
X0221295Y0188337D02*
X0223921Y0188337D01*
X0223921Y0185711D01*
X0221295Y0185711D01*
X0221295Y0186585D02*
X0223921Y0186585D01*
X0223921Y0187459D02*
X0221295Y0187459D01*
X0221295Y0188333D02*
X0223921Y0188333D01*
X0230421Y0188337D02*
X0230421Y0185711D01*
X0227795Y0185711D01*
X0227795Y0188337D01*
X0230421Y0188337D01*
X0230421Y0186585D02*
X0227795Y0186585D01*
X0227795Y0187459D02*
X0230421Y0187459D01*
X0230421Y0188333D02*
X0227795Y0188333D01*
X0277795Y0171337D02*
X0280421Y0171337D01*
X0280421Y0168711D01*
X0277795Y0168711D01*
X0277795Y0171337D01*
X0277795Y0169585D02*
X0280421Y0169585D01*
X0280421Y0170459D02*
X0277795Y0170459D01*
X0277795Y0171333D02*
X0280421Y0171333D01*
X0283795Y0171337D02*
X0286421Y0171337D01*
X0286421Y0168711D01*
X0283795Y0168711D01*
X0283795Y0171337D01*
X0283795Y0169585D02*
X0286421Y0169585D01*
X0286421Y0170459D02*
X0283795Y0170459D01*
X0283795Y0171333D02*
X0286421Y0171333D01*
X0286421Y0162211D02*
X0283795Y0162211D01*
X0283795Y0164837D01*
X0286421Y0164837D01*
X0286421Y0162211D01*
X0286421Y0163085D02*
X0283795Y0163085D01*
X0283795Y0163959D02*
X0286421Y0163959D01*
X0286421Y0164833D02*
X0283795Y0164833D01*
X0280421Y0162211D02*
X0277795Y0162211D01*
X0277795Y0164837D01*
X0280421Y0164837D01*
X0280421Y0162211D01*
X0280421Y0163085D02*
X0277795Y0163085D01*
X0277795Y0163959D02*
X0280421Y0163959D01*
X0280421Y0164833D02*
X0277795Y0164833D01*
X0312795Y0182211D02*
X0315421Y0182211D01*
X0312795Y0182211D02*
X0312795Y0184837D01*
X0315421Y0184837D01*
X0315421Y0182211D01*
X0315421Y0183085D02*
X0312795Y0183085D01*
X0312795Y0183959D02*
X0315421Y0183959D01*
X0315421Y0184833D02*
X0312795Y0184833D01*
X0318795Y0182211D02*
X0321421Y0182211D01*
X0318795Y0182211D02*
X0318795Y0184837D01*
X0321421Y0184837D01*
X0321421Y0182211D01*
X0321421Y0183085D02*
X0318795Y0183085D01*
X0318795Y0183959D02*
X0321421Y0183959D01*
X0321421Y0184833D02*
X0318795Y0184833D01*
X0318795Y0188211D02*
X0321421Y0188211D01*
X0318795Y0188211D02*
X0318795Y0190837D01*
X0321421Y0190837D01*
X0321421Y0188211D01*
X0321421Y0189085D02*
X0318795Y0189085D01*
X0318795Y0189959D02*
X0321421Y0189959D01*
X0321421Y0190833D02*
X0318795Y0190833D01*
X0315421Y0188211D02*
X0312795Y0188211D01*
X0312795Y0190837D01*
X0315421Y0190837D01*
X0315421Y0188211D01*
X0315421Y0189085D02*
X0312795Y0189085D01*
X0312795Y0189959D02*
X0315421Y0189959D01*
X0315421Y0190833D02*
X0312795Y0190833D01*
X0345295Y0191337D02*
X0347921Y0191337D01*
X0347921Y0188711D01*
X0345295Y0188711D01*
X0345295Y0191337D01*
X0345295Y0189585D02*
X0347921Y0189585D01*
X0347921Y0190459D02*
X0345295Y0190459D01*
X0345295Y0191333D02*
X0347921Y0191333D01*
X0351295Y0191337D02*
X0353921Y0191337D01*
X0353921Y0188711D01*
X0351295Y0188711D01*
X0351295Y0191337D01*
X0351295Y0189585D02*
X0353921Y0189585D01*
X0353921Y0190459D02*
X0351295Y0190459D01*
X0351295Y0191333D02*
X0353921Y0191333D01*
X0357795Y0191337D02*
X0360421Y0191337D01*
X0360421Y0188711D01*
X0357795Y0188711D01*
X0357795Y0191337D01*
X0357795Y0189585D02*
X0360421Y0189585D01*
X0360421Y0190459D02*
X0357795Y0190459D01*
X0357795Y0191333D02*
X0360421Y0191333D01*
X0363795Y0191337D02*
X0366421Y0191337D01*
X0366421Y0188711D01*
X0363795Y0188711D01*
X0363795Y0191337D01*
X0363795Y0189585D02*
X0366421Y0189585D01*
X0366421Y0190459D02*
X0363795Y0190459D01*
X0363795Y0191333D02*
X0366421Y0191333D01*
X0353921Y0168837D02*
X0351295Y0168837D01*
X0353921Y0168837D02*
X0353921Y0166211D01*
X0351295Y0166211D01*
X0351295Y0168837D01*
X0351295Y0167085D02*
X0353921Y0167085D01*
X0353921Y0167959D02*
X0351295Y0167959D01*
X0351295Y0168833D02*
X0353921Y0168833D01*
X0347921Y0168837D02*
X0345295Y0168837D01*
X0347921Y0168837D02*
X0347921Y0166211D01*
X0345295Y0166211D01*
X0345295Y0168837D01*
X0345295Y0167085D02*
X0347921Y0167085D01*
X0347921Y0167959D02*
X0345295Y0167959D01*
X0345295Y0168833D02*
X0347921Y0168833D01*
X0353421Y0156837D02*
X0353421Y0154211D01*
X0350795Y0154211D01*
X0350795Y0156837D01*
X0353421Y0156837D01*
X0353421Y0155085D02*
X0350795Y0155085D01*
X0350795Y0155959D02*
X0353421Y0155959D01*
X0353421Y0156833D02*
X0350795Y0156833D01*
X0360921Y0156837D02*
X0360921Y0154211D01*
X0358295Y0154211D01*
X0358295Y0156837D01*
X0360921Y0156837D01*
X0360921Y0155085D02*
X0358295Y0155085D01*
X0358295Y0155959D02*
X0360921Y0155959D01*
X0360921Y0156833D02*
X0358295Y0156833D01*
X0360921Y0150837D02*
X0360921Y0148211D01*
X0358295Y0148211D01*
X0358295Y0150837D01*
X0360921Y0150837D01*
X0360921Y0149085D02*
X0358295Y0149085D01*
X0358295Y0149959D02*
X0360921Y0149959D01*
X0360921Y0150833D02*
X0358295Y0150833D01*
X0353421Y0150837D02*
X0353421Y0148211D01*
X0350795Y0148211D01*
X0350795Y0150837D01*
X0353421Y0150837D01*
X0353421Y0149085D02*
X0350795Y0149085D01*
X0350795Y0149959D02*
X0353421Y0149959D01*
X0353421Y0150833D02*
X0350795Y0150833D01*
X0350795Y0141837D02*
X0350795Y0139211D01*
X0350795Y0141837D02*
X0353421Y0141837D01*
X0353421Y0139211D01*
X0350795Y0139211D01*
X0350795Y0140085D02*
X0353421Y0140085D01*
X0353421Y0140959D02*
X0350795Y0140959D01*
X0350795Y0141833D02*
X0353421Y0141833D01*
X0360921Y0141837D02*
X0360921Y0139211D01*
X0358295Y0139211D01*
X0358295Y0141837D01*
X0360921Y0141837D01*
X0360921Y0140085D02*
X0358295Y0140085D01*
X0358295Y0140959D02*
X0360921Y0140959D01*
X0360921Y0141833D02*
X0358295Y0141833D01*
X0360921Y0135837D02*
X0360921Y0133211D01*
X0358295Y0133211D01*
X0358295Y0135837D01*
X0360921Y0135837D01*
X0360921Y0134085D02*
X0358295Y0134085D01*
X0358295Y0134959D02*
X0360921Y0134959D01*
X0360921Y0135833D02*
X0358295Y0135833D01*
X0350795Y0135837D02*
X0350795Y0133211D01*
X0350795Y0135837D02*
X0353421Y0135837D01*
X0353421Y0133211D01*
X0350795Y0133211D01*
X0350795Y0134085D02*
X0353421Y0134085D01*
X0353421Y0134959D02*
X0350795Y0134959D01*
X0350795Y0135833D02*
X0353421Y0135833D01*
X0376495Y0117211D02*
X0379121Y0117211D01*
X0376495Y0117211D02*
X0376495Y0119837D01*
X0379121Y0119837D01*
X0379121Y0117211D01*
X0379121Y0118085D02*
X0376495Y0118085D01*
X0376495Y0118959D02*
X0379121Y0118959D01*
X0379121Y0119833D02*
X0376495Y0119833D01*
X0382495Y0117211D02*
X0385121Y0117211D01*
X0382495Y0117211D02*
X0382495Y0119837D01*
X0385121Y0119837D01*
X0385121Y0117211D01*
X0385121Y0118085D02*
X0382495Y0118085D01*
X0382495Y0118959D02*
X0385121Y0118959D01*
X0385121Y0119833D02*
X0382495Y0119833D01*
X0431521Y0183411D02*
X0431521Y0186037D01*
X0431521Y0183411D02*
X0428895Y0183411D01*
X0428895Y0186037D01*
X0431521Y0186037D01*
X0431521Y0184285D02*
X0428895Y0184285D01*
X0428895Y0185159D02*
X0431521Y0185159D01*
X0431521Y0186033D02*
X0428895Y0186033D01*
X0431521Y0189411D02*
X0431521Y0192037D01*
X0431521Y0189411D02*
X0428895Y0189411D01*
X0428895Y0192037D01*
X0431521Y0192037D01*
X0431521Y0190285D02*
X0428895Y0190285D01*
X0428895Y0191159D02*
X0431521Y0191159D01*
X0431521Y0192033D02*
X0428895Y0192033D01*
X0445721Y0192037D02*
X0445721Y0189411D01*
X0443095Y0189411D01*
X0443095Y0192037D01*
X0445721Y0192037D01*
X0445721Y0190285D02*
X0443095Y0190285D01*
X0443095Y0191159D02*
X0445721Y0191159D01*
X0445721Y0192033D02*
X0443095Y0192033D01*
X0445721Y0186037D02*
X0445721Y0183411D01*
X0443095Y0183411D01*
X0443095Y0186037D01*
X0445721Y0186037D01*
X0445721Y0184285D02*
X0443095Y0184285D01*
X0443095Y0185159D02*
X0445721Y0185159D01*
X0445721Y0186033D02*
X0443095Y0186033D01*
X0459921Y0186037D02*
X0459921Y0183411D01*
X0457295Y0183411D01*
X0457295Y0186037D01*
X0459921Y0186037D01*
X0459921Y0184285D02*
X0457295Y0184285D01*
X0457295Y0185159D02*
X0459921Y0185159D01*
X0459921Y0186033D02*
X0457295Y0186033D01*
X0459921Y0189411D02*
X0459921Y0192037D01*
X0459921Y0189411D02*
X0457295Y0189411D01*
X0457295Y0192037D01*
X0459921Y0192037D01*
X0459921Y0190285D02*
X0457295Y0190285D01*
X0457295Y0191159D02*
X0459921Y0191159D01*
X0459921Y0192033D02*
X0457295Y0192033D01*
X0474121Y0192037D02*
X0474121Y0189411D01*
X0471495Y0189411D01*
X0471495Y0192037D01*
X0474121Y0192037D01*
X0474121Y0190285D02*
X0471495Y0190285D01*
X0471495Y0191159D02*
X0474121Y0191159D01*
X0474121Y0192033D02*
X0471495Y0192033D01*
X0474121Y0186037D02*
X0474121Y0183411D01*
X0471495Y0183411D01*
X0471495Y0186037D01*
X0474121Y0186037D01*
X0474121Y0184285D02*
X0471495Y0184285D01*
X0471495Y0185159D02*
X0474121Y0185159D01*
X0474121Y0186033D02*
X0471495Y0186033D01*
D13*
X0227608Y0058274D03*
X0227608Y0046774D03*
D14*
X0269234Y0111008D03*
X0271990Y0111008D03*
X0274549Y0111008D03*
X0277108Y0111008D03*
X0279667Y0111008D03*
X0282226Y0111008D03*
X0284982Y0111008D03*
X0284982Y0134040D03*
X0282226Y0134040D03*
X0279667Y0134040D03*
X0277108Y0134040D03*
X0274549Y0134040D03*
X0271990Y0134040D03*
X0269234Y0134040D03*
X0239982Y0156008D03*
X0237226Y0156008D03*
X0234667Y0156008D03*
X0232108Y0156008D03*
X0229549Y0156008D03*
X0226990Y0156008D03*
X0224234Y0156008D03*
X0224234Y0179040D03*
X0226990Y0179040D03*
X0229549Y0179040D03*
X0232108Y0179040D03*
X0234667Y0179040D03*
X0237226Y0179040D03*
X0239982Y0179040D03*
D15*
X0210608Y0094847D03*
X0210608Y0090516D03*
X0210608Y0086185D03*
X0210608Y0081854D03*
X0210608Y0077524D03*
X0210608Y0073193D03*
X0210608Y0068862D03*
X0210608Y0064532D03*
X0210608Y0060201D03*
D16*
X0208246Y0100146D03*
D17*
X0169769Y0038154D03*
X0169769Y0098784D03*
D18*
X0209065Y0041378D03*
D19*
X0250358Y0047524D02*
X0250358Y0050524D01*
X0250358Y0047524D02*
X0245858Y0047524D01*
X0245858Y0050524D01*
X0250358Y0050524D01*
X0250358Y0048523D02*
X0245858Y0048523D01*
X0245858Y0049522D02*
X0250358Y0049522D01*
X0250358Y0050521D02*
X0245858Y0050521D01*
X0250358Y0054524D02*
X0250358Y0057524D01*
X0250358Y0054524D02*
X0245858Y0054524D01*
X0245858Y0057524D01*
X0250358Y0057524D01*
X0250358Y0055523D02*
X0245858Y0055523D01*
X0245858Y0056522D02*
X0250358Y0056522D01*
X0250358Y0057521D02*
X0245858Y0057521D01*
X0297858Y0065024D02*
X0297858Y0068024D01*
X0297858Y0065024D02*
X0293358Y0065024D01*
X0293358Y0068024D01*
X0297858Y0068024D01*
X0297858Y0066023D02*
X0293358Y0066023D01*
X0293358Y0067022D02*
X0297858Y0067022D01*
X0297858Y0068021D02*
X0293358Y0068021D01*
X0297858Y0072024D02*
X0297858Y0075024D01*
X0297858Y0072024D02*
X0293358Y0072024D01*
X0293358Y0075024D01*
X0297858Y0075024D01*
X0297858Y0073023D02*
X0293358Y0073023D01*
X0293358Y0074022D02*
X0297858Y0074022D01*
X0297858Y0075021D02*
X0293358Y0075021D01*
X0318858Y0075024D02*
X0318858Y0072024D01*
X0318858Y0075024D02*
X0323358Y0075024D01*
X0323358Y0072024D01*
X0318858Y0072024D01*
X0318858Y0073023D02*
X0323358Y0073023D01*
X0323358Y0074022D02*
X0318858Y0074022D01*
X0318858Y0075021D02*
X0323358Y0075021D01*
X0318858Y0068024D02*
X0318858Y0065024D01*
X0318858Y0068024D02*
X0323358Y0068024D01*
X0323358Y0065024D01*
X0318858Y0065024D01*
X0318858Y0066023D02*
X0323358Y0066023D01*
X0323358Y0067022D02*
X0318858Y0067022D01*
X0318858Y0068021D02*
X0323358Y0068021D01*
X0342008Y0060774D02*
X0345008Y0060774D01*
X0342008Y0060774D02*
X0342008Y0065274D01*
X0345008Y0065274D01*
X0345008Y0060774D01*
X0345008Y0061773D02*
X0342008Y0061773D01*
X0342008Y0062772D02*
X0345008Y0062772D01*
X0345008Y0063771D02*
X0342008Y0063771D01*
X0342008Y0064770D02*
X0345008Y0064770D01*
X0349008Y0060774D02*
X0352008Y0060774D01*
X0349008Y0060774D02*
X0349008Y0065274D01*
X0352008Y0065274D01*
X0352008Y0060774D01*
X0352008Y0061773D02*
X0349008Y0061773D01*
X0349008Y0062772D02*
X0352008Y0062772D01*
X0352008Y0063771D02*
X0349008Y0063771D01*
X0349008Y0064770D02*
X0352008Y0064770D01*
X0375808Y0071374D02*
X0378808Y0071374D01*
X0378808Y0066874D01*
X0375808Y0066874D01*
X0375808Y0071374D01*
X0375808Y0067873D02*
X0378808Y0067873D01*
X0378808Y0068872D02*
X0375808Y0068872D01*
X0375808Y0069871D02*
X0378808Y0069871D01*
X0378808Y0070870D02*
X0375808Y0070870D01*
X0382808Y0071374D02*
X0385808Y0071374D01*
X0385808Y0066874D01*
X0382808Y0066874D01*
X0382808Y0071374D01*
X0382808Y0067873D02*
X0385808Y0067873D01*
X0385808Y0068872D02*
X0382808Y0068872D01*
X0382808Y0069871D02*
X0385808Y0069871D01*
X0385808Y0070870D02*
X0382808Y0070870D01*
X0382808Y0079374D02*
X0385808Y0079374D01*
X0385808Y0074874D01*
X0382808Y0074874D01*
X0382808Y0079374D01*
X0382808Y0075873D02*
X0385808Y0075873D01*
X0385808Y0076872D02*
X0382808Y0076872D01*
X0382808Y0077871D02*
X0385808Y0077871D01*
X0385808Y0078870D02*
X0382808Y0078870D01*
X0378808Y0079374D02*
X0375808Y0079374D01*
X0378808Y0079374D02*
X0378808Y0074874D01*
X0375808Y0074874D01*
X0375808Y0079374D01*
X0375808Y0075873D02*
X0378808Y0075873D01*
X0378808Y0076872D02*
X0375808Y0076872D01*
X0375808Y0077871D02*
X0378808Y0077871D01*
X0378808Y0078870D02*
X0375808Y0078870D01*
X0375808Y0089374D02*
X0378808Y0089374D01*
X0378808Y0084874D01*
X0375808Y0084874D01*
X0375808Y0089374D01*
X0375808Y0085873D02*
X0378808Y0085873D01*
X0378808Y0086872D02*
X0375808Y0086872D01*
X0375808Y0087871D02*
X0378808Y0087871D01*
X0378808Y0088870D02*
X0375808Y0088870D01*
X0382808Y0089374D02*
X0385808Y0089374D01*
X0385808Y0084874D01*
X0382808Y0084874D01*
X0382808Y0089374D01*
X0382808Y0085873D02*
X0385808Y0085873D01*
X0385808Y0086872D02*
X0382808Y0086872D01*
X0382808Y0087871D02*
X0385808Y0087871D01*
X0385808Y0088870D02*
X0382808Y0088870D01*
X0382808Y0095374D02*
X0385808Y0095374D01*
X0382808Y0095374D02*
X0382808Y0099874D01*
X0385808Y0099874D01*
X0385808Y0095374D01*
X0385808Y0096373D02*
X0382808Y0096373D01*
X0382808Y0097372D02*
X0385808Y0097372D01*
X0385808Y0098371D02*
X0382808Y0098371D01*
X0382808Y0099370D02*
X0385808Y0099370D01*
X0378808Y0095374D02*
X0375808Y0095374D01*
X0375808Y0099874D01*
X0378808Y0099874D01*
X0378808Y0095374D01*
X0378808Y0096373D02*
X0375808Y0096373D01*
X0375808Y0097372D02*
X0378808Y0097372D01*
X0378808Y0098371D02*
X0375808Y0098371D01*
X0375808Y0099370D02*
X0378808Y0099370D01*
X0378808Y0106974D02*
X0375808Y0106974D01*
X0375808Y0111474D01*
X0378808Y0111474D01*
X0378808Y0106974D01*
X0378808Y0107973D02*
X0375808Y0107973D01*
X0375808Y0108972D02*
X0378808Y0108972D01*
X0378808Y0109971D02*
X0375808Y0109971D01*
X0375808Y0110970D02*
X0378808Y0110970D01*
X0382808Y0106974D02*
X0385808Y0106974D01*
X0382808Y0106974D02*
X0382808Y0111474D01*
X0385808Y0111474D01*
X0385808Y0106974D01*
X0385808Y0107973D02*
X0382808Y0107973D01*
X0382808Y0108972D02*
X0385808Y0108972D01*
X0385808Y0109971D02*
X0382808Y0109971D01*
X0382808Y0110970D02*
X0385808Y0110970D01*
X0352508Y0109274D02*
X0349508Y0109274D01*
X0352508Y0109274D02*
X0352508Y0104774D01*
X0349508Y0104774D01*
X0349508Y0109274D01*
X0349508Y0105773D02*
X0352508Y0105773D01*
X0352508Y0106772D02*
X0349508Y0106772D01*
X0349508Y0107771D02*
X0352508Y0107771D01*
X0352508Y0108770D02*
X0349508Y0108770D01*
X0345508Y0109274D02*
X0342508Y0109274D01*
X0345508Y0109274D02*
X0345508Y0104774D01*
X0342508Y0104774D01*
X0342508Y0109274D01*
X0342508Y0105773D02*
X0345508Y0105773D01*
X0345508Y0106772D02*
X0342508Y0106772D01*
X0342508Y0107771D02*
X0345508Y0107771D01*
X0345508Y0108770D02*
X0342508Y0108770D01*
X0342508Y0113074D02*
X0345508Y0113074D01*
X0342508Y0113074D02*
X0342508Y0117574D01*
X0345508Y0117574D01*
X0345508Y0113074D01*
X0345508Y0114073D02*
X0342508Y0114073D01*
X0342508Y0115072D02*
X0345508Y0115072D01*
X0345508Y0116071D02*
X0342508Y0116071D01*
X0342508Y0117070D02*
X0345508Y0117070D01*
X0349508Y0113074D02*
X0352508Y0113074D01*
X0349508Y0113074D02*
X0349508Y0117574D01*
X0352508Y0117574D01*
X0352508Y0113074D01*
X0352508Y0114073D02*
X0349508Y0114073D01*
X0349508Y0115072D02*
X0352508Y0115072D01*
X0352508Y0116071D02*
X0349508Y0116071D01*
X0349508Y0117070D02*
X0352508Y0117070D01*
X0318858Y0110024D02*
X0318858Y0107024D01*
X0318858Y0110024D02*
X0323358Y0110024D01*
X0323358Y0107024D01*
X0318858Y0107024D01*
X0318858Y0108023D02*
X0323358Y0108023D01*
X0323358Y0109022D02*
X0318858Y0109022D01*
X0318858Y0110021D02*
X0323358Y0110021D01*
X0318858Y0103024D02*
X0318858Y0100024D01*
X0318858Y0103024D02*
X0323358Y0103024D01*
X0323358Y0100024D01*
X0318858Y0100024D01*
X0318858Y0101023D02*
X0323358Y0101023D01*
X0323358Y0102022D02*
X0318858Y0102022D01*
X0318858Y0103021D02*
X0323358Y0103021D01*
X0342508Y0100274D02*
X0345508Y0100274D01*
X0345508Y0095774D01*
X0342508Y0095774D01*
X0342508Y0100274D01*
X0342508Y0096773D02*
X0345508Y0096773D01*
X0345508Y0097772D02*
X0342508Y0097772D01*
X0342508Y0098771D02*
X0345508Y0098771D01*
X0345508Y0099770D02*
X0342508Y0099770D01*
X0349508Y0100274D02*
X0352508Y0100274D01*
X0352508Y0095774D01*
X0349508Y0095774D01*
X0349508Y0100274D01*
X0349508Y0096773D02*
X0352508Y0096773D01*
X0352508Y0097772D02*
X0349508Y0097772D01*
X0349508Y0098771D02*
X0352508Y0098771D01*
X0352508Y0099770D02*
X0349508Y0099770D01*
X0349508Y0091074D02*
X0352508Y0091074D01*
X0352508Y0086574D01*
X0349508Y0086574D01*
X0349508Y0091074D01*
X0349508Y0087573D02*
X0352508Y0087573D01*
X0352508Y0088572D02*
X0349508Y0088572D01*
X0349508Y0089571D02*
X0352508Y0089571D01*
X0352508Y0090570D02*
X0349508Y0090570D01*
X0345508Y0091074D02*
X0342508Y0091074D01*
X0345508Y0091074D02*
X0345508Y0086574D01*
X0342508Y0086574D01*
X0342508Y0091074D01*
X0342508Y0087573D02*
X0345508Y0087573D01*
X0345508Y0088572D02*
X0342508Y0088572D01*
X0342508Y0089571D02*
X0345508Y0089571D01*
X0345508Y0090570D02*
X0342508Y0090570D01*
X0342508Y0081574D02*
X0345508Y0081574D01*
X0345508Y0077074D01*
X0342508Y0077074D01*
X0342508Y0081574D01*
X0342508Y0078073D02*
X0345508Y0078073D01*
X0345508Y0079072D02*
X0342508Y0079072D01*
X0342508Y0080071D02*
X0345508Y0080071D01*
X0345508Y0081070D02*
X0342508Y0081070D01*
X0349508Y0081574D02*
X0352508Y0081574D01*
X0352508Y0077074D01*
X0349508Y0077074D01*
X0349508Y0081574D01*
X0349508Y0078073D02*
X0352508Y0078073D01*
X0352508Y0079072D02*
X0349508Y0079072D01*
X0349508Y0080071D02*
X0352508Y0080071D01*
X0352508Y0081070D02*
X0349508Y0081070D01*
X0375808Y0052874D02*
X0378808Y0052874D01*
X0375808Y0052874D02*
X0375808Y0057374D01*
X0378808Y0057374D01*
X0378808Y0052874D01*
X0378808Y0053873D02*
X0375808Y0053873D01*
X0375808Y0054872D02*
X0378808Y0054872D01*
X0378808Y0055871D02*
X0375808Y0055871D01*
X0375808Y0056870D02*
X0378808Y0056870D01*
X0382808Y0052874D02*
X0385808Y0052874D01*
X0382808Y0052874D02*
X0382808Y0057374D01*
X0385808Y0057374D01*
X0385808Y0052874D01*
X0385808Y0053873D02*
X0382808Y0053873D01*
X0382808Y0054872D02*
X0385808Y0054872D01*
X0385808Y0055871D02*
X0382808Y0055871D01*
X0382808Y0056870D02*
X0385808Y0056870D01*
X0385808Y0044374D02*
X0382808Y0044374D01*
X0382808Y0048874D01*
X0385808Y0048874D01*
X0385808Y0044374D01*
X0385808Y0045373D02*
X0382808Y0045373D01*
X0382808Y0046372D02*
X0385808Y0046372D01*
X0385808Y0047371D02*
X0382808Y0047371D01*
X0382808Y0048370D02*
X0385808Y0048370D01*
X0378808Y0044374D02*
X0375808Y0044374D01*
X0375808Y0048874D01*
X0378808Y0048874D01*
X0378808Y0044374D01*
X0378808Y0045373D02*
X0375808Y0045373D01*
X0375808Y0046372D02*
X0378808Y0046372D01*
X0378808Y0047371D02*
X0375808Y0047371D01*
X0375808Y0048370D02*
X0378808Y0048370D01*
X0378808Y0035874D02*
X0375808Y0035874D01*
X0375808Y0040374D01*
X0378808Y0040374D01*
X0378808Y0035874D01*
X0378808Y0036873D02*
X0375808Y0036873D01*
X0375808Y0037872D02*
X0378808Y0037872D01*
X0378808Y0038871D02*
X0375808Y0038871D01*
X0375808Y0039870D02*
X0378808Y0039870D01*
X0382808Y0035874D02*
X0385808Y0035874D01*
X0382808Y0035874D02*
X0382808Y0040374D01*
X0385808Y0040374D01*
X0385808Y0035874D01*
X0385808Y0036873D02*
X0382808Y0036873D01*
X0382808Y0037872D02*
X0385808Y0037872D01*
X0385808Y0038871D02*
X0382808Y0038871D01*
X0382808Y0039870D02*
X0385808Y0039870D01*
X0385808Y0027374D02*
X0382808Y0027374D01*
X0382808Y0031874D01*
X0385808Y0031874D01*
X0385808Y0027374D01*
X0385808Y0028373D02*
X0382808Y0028373D01*
X0382808Y0029372D02*
X0385808Y0029372D01*
X0385808Y0030371D02*
X0382808Y0030371D01*
X0382808Y0031370D02*
X0385808Y0031370D01*
X0378808Y0027374D02*
X0375808Y0027374D01*
X0375808Y0031874D01*
X0378808Y0031874D01*
X0378808Y0027374D01*
X0378808Y0028373D02*
X0375808Y0028373D01*
X0375808Y0029372D02*
X0378808Y0029372D01*
X0378808Y0030371D02*
X0375808Y0030371D01*
X0375808Y0031370D02*
X0378808Y0031370D01*
X0352008Y0042774D02*
X0349008Y0042774D01*
X0352008Y0042774D02*
X0352008Y0038274D01*
X0349008Y0038274D01*
X0349008Y0042774D01*
X0349008Y0039273D02*
X0352008Y0039273D01*
X0352008Y0040272D02*
X0349008Y0040272D01*
X0349008Y0041271D02*
X0352008Y0041271D01*
X0352008Y0042270D02*
X0349008Y0042270D01*
X0345008Y0042774D02*
X0342008Y0042774D01*
X0345008Y0042774D02*
X0345008Y0038274D01*
X0342008Y0038274D01*
X0342008Y0042774D01*
X0342008Y0039273D02*
X0345008Y0039273D01*
X0345008Y0040272D02*
X0342008Y0040272D01*
X0342008Y0041271D02*
X0345008Y0041271D01*
X0345008Y0042270D02*
X0342008Y0042270D01*
D20*
X0257608Y0110274D03*
X0257608Y0113524D03*
X0251608Y0113524D03*
X0251608Y0110274D03*
X0251608Y0116524D03*
X0251608Y0119774D03*
X0257608Y0119774D03*
X0257608Y0116524D03*
X0257608Y0125274D03*
X0251608Y0125274D03*
X0251608Y0128524D03*
X0251608Y0131524D03*
X0251608Y0134774D03*
X0257608Y0134774D03*
X0257608Y0131524D03*
X0257608Y0128524D03*
X0314108Y0165274D03*
X0314108Y0168524D03*
X0314108Y0171524D03*
X0320108Y0171524D03*
X0320108Y0168524D03*
X0320108Y0165274D03*
X0320108Y0174774D03*
X0314108Y0174774D03*
D21*
X0288608Y0155024D03*
X0275608Y0155024D03*
X0252608Y0076524D03*
X0252608Y0063524D03*
X0271608Y0047524D03*
X0284608Y0047524D03*
X0304108Y0063524D03*
X0312608Y0063524D03*
X0312608Y0076524D03*
X0304108Y0076524D03*
D22*
X0316274Y0120265D03*
X0316274Y0125383D03*
X0324542Y0120265D03*
D23*
X0324542Y0125186D03*
D24*
X0239108Y0131524D02*
X0230108Y0131524D01*
X0239108Y0131524D02*
X0239108Y0128524D01*
X0230108Y0128524D01*
X0230108Y0131524D01*
X0230108Y0131523D02*
X0239108Y0131523D01*
X0239108Y0121524D02*
X0230108Y0121524D01*
X0239108Y0121524D02*
X0239108Y0118524D01*
X0230108Y0118524D01*
X0230108Y0121524D01*
X0230108Y0121523D02*
X0239108Y0121523D01*
X0239108Y0111524D02*
X0230108Y0111524D01*
X0239108Y0111524D02*
X0239108Y0108524D01*
X0230108Y0108524D01*
X0230108Y0111524D01*
X0230108Y0111523D02*
X0239108Y0111523D01*
X0219108Y0108524D02*
X0210108Y0108524D01*
X0210108Y0111524D01*
X0219108Y0111524D01*
X0219108Y0108524D01*
X0219108Y0111523D02*
X0210108Y0111523D01*
X0210108Y0118524D02*
X0219108Y0118524D01*
X0210108Y0118524D02*
X0210108Y0121524D01*
X0219108Y0121524D01*
X0219108Y0118524D01*
X0219108Y0121523D02*
X0210108Y0121523D01*
X0241108Y0200524D02*
X0241108Y0209524D01*
X0241108Y0200524D02*
X0238108Y0200524D01*
X0238108Y0209524D01*
X0241108Y0209524D01*
X0241108Y0203523D02*
X0238108Y0203523D01*
X0238108Y0206522D02*
X0241108Y0206522D01*
X0241108Y0209521D02*
X0238108Y0209521D01*
X0251108Y0210524D02*
X0251108Y0219524D01*
X0251108Y0210524D02*
X0248108Y0210524D01*
X0248108Y0219524D01*
X0251108Y0219524D01*
X0251108Y0213523D02*
X0248108Y0213523D01*
X0248108Y0216522D02*
X0251108Y0216522D01*
X0251108Y0219521D02*
X0248108Y0219521D01*
X0271108Y0219524D02*
X0271108Y0210524D01*
X0268108Y0210524D01*
X0268108Y0219524D01*
X0271108Y0219524D01*
X0271108Y0213523D02*
X0268108Y0213523D01*
X0268108Y0216522D02*
X0271108Y0216522D01*
X0271108Y0219521D02*
X0268108Y0219521D01*
X0291108Y0219524D02*
X0291108Y0210524D01*
X0288108Y0210524D01*
X0288108Y0219524D01*
X0291108Y0219524D01*
X0291108Y0213523D02*
X0288108Y0213523D01*
X0288108Y0216522D02*
X0291108Y0216522D01*
X0291108Y0219521D02*
X0288108Y0219521D01*
X0281108Y0209524D02*
X0281108Y0200524D01*
X0278108Y0200524D01*
X0278108Y0209524D01*
X0281108Y0209524D01*
X0281108Y0203523D02*
X0278108Y0203523D01*
X0278108Y0206522D02*
X0281108Y0206522D01*
X0281108Y0209521D02*
X0278108Y0209521D01*
X0261108Y0209524D02*
X0261108Y0200524D01*
X0258108Y0200524D01*
X0258108Y0209524D01*
X0261108Y0209524D01*
X0261108Y0203523D02*
X0258108Y0203523D01*
X0258108Y0206522D02*
X0261108Y0206522D01*
X0261108Y0209521D02*
X0258108Y0209521D01*
X0301108Y0209524D02*
X0301108Y0200524D01*
X0298108Y0200524D01*
X0298108Y0209524D01*
X0301108Y0209524D01*
X0301108Y0203523D02*
X0298108Y0203523D01*
X0298108Y0206522D02*
X0301108Y0206522D01*
X0301108Y0209521D02*
X0298108Y0209521D01*
X0327008Y0209524D02*
X0327008Y0200524D01*
X0324008Y0200524D01*
X0324008Y0209524D01*
X0327008Y0209524D01*
X0327008Y0203523D02*
X0324008Y0203523D01*
X0324008Y0206522D02*
X0327008Y0206522D01*
X0327008Y0209521D02*
X0324008Y0209521D01*
X0337008Y0210524D02*
X0337008Y0219524D01*
X0337008Y0210524D02*
X0334008Y0210524D01*
X0334008Y0219524D01*
X0337008Y0219524D01*
X0337008Y0213523D02*
X0334008Y0213523D01*
X0334008Y0216522D02*
X0337008Y0216522D01*
X0337008Y0219521D02*
X0334008Y0219521D01*
X0341108Y0029524D02*
X0341108Y0020524D01*
X0338108Y0020524D01*
X0338108Y0029524D01*
X0341108Y0029524D01*
X0341108Y0023523D02*
X0338108Y0023523D01*
X0338108Y0026522D02*
X0341108Y0026522D01*
X0341108Y0029521D02*
X0338108Y0029521D01*
X0321108Y0029524D02*
X0321108Y0020524D01*
X0318108Y0020524D01*
X0318108Y0029524D01*
X0321108Y0029524D01*
X0321108Y0023523D02*
X0318108Y0023523D01*
X0318108Y0026522D02*
X0321108Y0026522D01*
X0321108Y0029521D02*
X0318108Y0029521D01*
X0311108Y0019524D02*
X0311108Y0010524D01*
X0308108Y0010524D01*
X0308108Y0019524D01*
X0311108Y0019524D01*
X0311108Y0013523D02*
X0308108Y0013523D01*
X0308108Y0016522D02*
X0311108Y0016522D01*
X0311108Y0019521D02*
X0308108Y0019521D01*
X0331108Y0019524D02*
X0331108Y0010524D01*
X0328108Y0010524D01*
X0328108Y0019524D01*
X0331108Y0019524D01*
X0331108Y0013523D02*
X0328108Y0013523D01*
X0328108Y0016522D02*
X0331108Y0016522D01*
X0331108Y0019521D02*
X0328108Y0019521D01*
X0351108Y0019524D02*
X0351108Y0010524D01*
X0348108Y0010524D01*
X0348108Y0019524D01*
X0351108Y0019524D01*
X0351108Y0013523D02*
X0348108Y0013523D01*
X0348108Y0016522D02*
X0351108Y0016522D01*
X0351108Y0019521D02*
X0348108Y0019521D01*
X0268108Y0020524D02*
X0268108Y0029524D01*
X0271108Y0029524D01*
X0271108Y0020524D01*
X0268108Y0020524D01*
X0268108Y0023523D02*
X0271108Y0023523D01*
X0271108Y0026522D02*
X0268108Y0026522D01*
X0268108Y0029521D02*
X0271108Y0029521D01*
X0248108Y0029524D02*
X0248108Y0020524D01*
X0248108Y0029524D02*
X0251108Y0029524D01*
X0251108Y0020524D01*
X0248108Y0020524D01*
X0248108Y0023523D02*
X0251108Y0023523D01*
X0251108Y0026522D02*
X0248108Y0026522D01*
X0248108Y0029521D02*
X0251108Y0029521D01*
X0228108Y0029524D02*
X0228108Y0020524D01*
X0228108Y0029524D02*
X0231108Y0029524D01*
X0231108Y0020524D01*
X0228108Y0020524D01*
X0228108Y0023523D02*
X0231108Y0023523D01*
X0231108Y0026522D02*
X0228108Y0026522D01*
X0228108Y0029521D02*
X0231108Y0029521D01*
X0238108Y0019524D02*
X0238108Y0010524D01*
X0238108Y0019524D02*
X0241108Y0019524D01*
X0241108Y0010524D01*
X0238108Y0010524D01*
X0238108Y0013523D02*
X0241108Y0013523D01*
X0241108Y0016522D02*
X0238108Y0016522D01*
X0238108Y0019521D02*
X0241108Y0019521D01*
X0258108Y0019524D02*
X0258108Y0010524D01*
X0258108Y0019524D02*
X0261108Y0019524D01*
X0261108Y0010524D01*
X0258108Y0010524D01*
X0258108Y0013523D02*
X0261108Y0013523D01*
X0261108Y0016522D02*
X0258108Y0016522D01*
X0258108Y0019521D02*
X0261108Y0019521D01*
D25*
X0279608Y0015024D03*
X0299608Y0025024D03*
X0315508Y0215024D03*
X0229608Y0215024D03*
D26*
X0214608Y0130024D03*
D27*
X0405913Y0119910D03*
X0405913Y0117941D03*
X0405913Y0115973D03*
X0405913Y0114004D03*
X0405913Y0112036D03*
X0405913Y0110067D03*
X0405913Y0108099D03*
X0405913Y0106130D03*
X0405913Y0104162D03*
X0405913Y0102193D03*
X0405913Y0100225D03*
X0405913Y0098256D03*
X0405913Y0096288D03*
X0405913Y0094319D03*
X0405913Y0092351D03*
X0405913Y0090382D03*
X0405913Y0088414D03*
X0405913Y0086445D03*
X0405913Y0084477D03*
X0405913Y0082508D03*
X0405913Y0080540D03*
X0405913Y0078571D03*
X0405913Y0076602D03*
X0405913Y0074634D03*
X0405913Y0072665D03*
X0405913Y0070697D03*
X0405913Y0068728D03*
X0405913Y0066760D03*
X0405913Y0064791D03*
X0405913Y0062823D03*
X0405913Y0060854D03*
X0405913Y0058886D03*
X0405913Y0056917D03*
X0405913Y0054949D03*
X0405913Y0052980D03*
X0405913Y0051012D03*
X0405913Y0049043D03*
X0405913Y0047075D03*
X0405913Y0045106D03*
X0405913Y0043138D03*
D28*
X0418708Y0035658D03*
X0418708Y0127390D03*
D29*
X0204354Y0205424D03*
X0197661Y0205424D03*
X0197661Y0215424D03*
X0204354Y0215424D03*
M02*
