%FSLAX44Y44*%
%MOMM*%
G71*
G01*
G75*
G04 Layer_Color=16711935*
%ADD10C,0.7620*%
%ADD11R,0.3000X0.4900*%
%ADD12R,0.3000X0.5200*%
%ADD13R,0.4900X0.3000*%
%ADD14R,0.5200X0.3000*%
%ADD15R,0.7000X0.9000*%
%ADD16R,1.7000X1.1000*%
%ADD17R,0.2500X0.7000*%
%ADD18R,2.3800X1.6500*%
%ADD19O,1.7500X0.3000*%
%ADD20O,0.3000X1.7500*%
G04:AMPARAMS|DCode=21|XSize=1.524mm|YSize=2.8448mm|CornerRadius=0mm|HoleSize=0mm|Usage=FLASHONLY|Rotation=82.000|XOffset=0mm|YOffset=0mm|HoleType=Round|Shape=Rectangle|*
%AMROTATEDRECTD21*
4,1,4,1.3025,-0.9525,-1.5146,-0.5566,-1.3025,0.9525,1.5146,0.5566,1.3025,-0.9525,0.0*
%
%ADD21ROTATEDRECTD21*%

G04:AMPARAMS|DCode=22|XSize=1.524mm|YSize=2.8448mm|CornerRadius=0mm|HoleSize=0mm|Usage=FLASHONLY|Rotation=352.000|XOffset=0mm|YOffset=0mm|HoleType=Round|Shape=Rectangle|*
%AMROTATEDRECTD22*
4,1,4,-0.9525,-1.3025,-0.5566,1.5146,0.9525,1.3025,0.5566,-1.5146,-0.9525,-1.3025,0.0*
%
%ADD22ROTATEDRECTD22*%

%ADD23R,2.0000X0.4000*%
%ADD24O,1.3500X0.4500*%
%ADD25O,0.7000X2.0000*%
%ADD26R,0.8500X0.7000*%
%ADD27R,0.9000X0.8000*%
%ADD28R,0.4500X0.8500*%
%ADD29R,2.4000X1.5000*%
%ADD30R,0.7000X0.3000*%
%ADD31R,1.0000X1.6000*%
%ADD32O,0.2800X0.8500*%
%ADD33R,2.4000X1.6500*%
%ADD34C,0.4000*%
%ADD35R,0.9000X0.7000*%
%ADD36R,0.5500X0.9500*%
%ADD37R,0.7000X1.4000*%
%ADD38R,1.0000X1.0000*%
%ADD39R,0.8000X0.9000*%
%ADD40R,2.3000X2.3000*%
G04:AMPARAMS|DCode=41|XSize=2mm|YSize=1.75mm|CornerRadius=0mm|HoleSize=0mm|Usage=FLASHONLY|Rotation=279.640|XOffset=0mm|YOffset=0mm|HoleType=Round|Shape=Rectangle|*
%AMROTATEDRECTD41*
4,1,4,-1.0301,0.8394,0.6952,1.1324,1.0301,-0.8394,-0.6952,-1.1324,-1.0301,0.8394,0.0*
%
%ADD41ROTATEDRECTD41*%

%ADD42C,0.1905*%
%ADD43C,0.4064*%
%ADD44C,0.2032*%
%ADD45C,0.6096*%
%ADD46C,0.3048*%
%ADD47C,0.2540*%
%ADD48C,1.0160*%
%ADD49C,0.5080*%
%ADD50C,1.2700*%
%ADD51C,0.3556*%
%ADD52R,0.7000X0.2800*%
%ADD53C,2.9000*%
%ADD54C,1.5000*%
%ADD55R,1.5000X1.5000*%
%ADD56R,1.5000X1.5000*%
%ADD57C,1.5240*%
%ADD58C,1.2700*%
%ADD59R,1.2700X1.2700*%
%ADD60R,1.8500X1.8500*%
%ADD61C,1.8500*%
%ADD62C,0.6350*%
%ADD63C,0.5000*%
%ADD64C,0.9000*%
%ADD65C,0.7000*%
%ADD66C,0.6350*%
G04:AMPARAMS|DCode=67|XSize=0.65mm|YSize=1.35mm|CornerRadius=0mm|HoleSize=0mm|Usage=FLASHONLY|Rotation=13.600|XOffset=0mm|YOffset=0mm|HoleType=Round|Shape=Rectangle|*
%AMROTATEDRECTD67*
4,1,4,-0.1572,-0.7325,-0.4746,0.5797,0.1572,0.7325,0.4746,-0.5797,-0.1572,-0.7325,0.0*
%
%ADD67ROTATEDRECTD67*%

G04:AMPARAMS|DCode=68|XSize=0.4mm|YSize=1.35mm|CornerRadius=0mm|HoleSize=0mm|Usage=FLASHONLY|Rotation=13.600|XOffset=0mm|YOffset=0mm|HoleType=Round|Shape=Rectangle|*
%AMROTATEDRECTD68*
4,1,4,-0.0357,-0.7031,-0.3531,0.6090,0.0357,0.7031,0.3531,-0.6090,-0.0357,-0.7031,0.0*
%
%ADD68ROTATEDRECTD68*%

G04:AMPARAMS|DCode=69|XSize=2.51mm|YSize=1mm|CornerRadius=0mm|HoleSize=0mm|Usage=FLASHONLY|Rotation=13.600|XOffset=0mm|YOffset=0mm|HoleType=Round|Shape=Rectangle|*
%AMROTATEDRECTD69*
4,1,4,-1.1022,-0.7811,-1.3374,0.1909,1.1022,0.7811,1.3374,-0.1909,-1.1022,-0.7811,0.0*
%
%ADD69ROTATEDRECTD69*%

G04:AMPARAMS|DCode=70|XSize=1.2mm|YSize=2.1mm|CornerRadius=0mm|HoleSize=0mm|Usage=FLASHONLY|Rotation=13.600|XOffset=0mm|YOffset=0mm|HoleType=Round|Shape=Rectangle|*
%AMROTATEDRECTD70*
4,1,4,-0.3363,-1.1617,-0.8301,0.8795,0.3363,1.1617,0.8301,-0.8795,-0.3363,-1.1617,0.0*
%
%ADD70ROTATEDRECTD70*%

G04:AMPARAMS|DCode=71|XSize=1.2mm|YSize=1.55mm|CornerRadius=0mm|HoleSize=0mm|Usage=FLASHONLY|Rotation=13.600|XOffset=0mm|YOffset=0mm|HoleType=Round|Shape=Rectangle|*
%AMROTATEDRECTD71*
4,1,4,-0.4009,-0.8943,-0.7654,0.6122,0.4009,0.8943,0.7654,-0.6122,-0.4009,-0.8943,0.0*
%
%ADD71ROTATEDRECTD71*%

G04:AMPARAMS|DCode=72|XSize=0.775mm|YSize=1.15mm|CornerRadius=0mm|HoleSize=0mm|Usage=FLASHONLY|Rotation=13.600|XOffset=0mm|YOffset=0mm|HoleType=Round|Shape=Rectangle|*
%AMROTATEDRECTD72*
4,1,4,-0.2414,-0.6500,-0.5118,0.4678,0.2414,0.6500,0.5118,-0.4678,-0.2414,-0.6500,0.0*
%
%ADD72ROTATEDRECTD72*%

G04:AMPARAMS|DCode=73|XSize=0.825mm|YSize=1.15mm|CornerRadius=0mm|HoleSize=0mm|Usage=FLASHONLY|Rotation=13.600|XOffset=0mm|YOffset=0mm|HoleType=Round|Shape=Rectangle|*
%AMROTATEDRECTD73*
4,1,4,-0.2657,-0.6559,-0.5361,0.4619,0.2657,0.6559,0.5361,-0.4619,-0.2657,-0.6559,0.0*
%
%ADD73ROTATEDRECTD73*%

%ADD74C,0.3000*%
%ADD75C,0.1000*%
%ADD76C,0.6000*%
%ADD77C,0.2500*%
%ADD78C,0.0000*%
%ADD79C,0.2000*%
%ADD80C,0.0127*%
%ADD81C,0.1500*%
%ADD82R,0.6502X0.1854*%
%ADD83R,0.5842X0.1651*%
%ADD84R,0.4572X1.7018*%
%ADD85R,0.8000X1.4000*%
%ADD86R,0.5000X0.2600*%
%ADD87R,1.0500X0.6800*%
%ADD88R,0.6500X0.2500*%
%ADD89R,0.0000X0.6000*%
%ADD90O,0.2300X0.8000*%
%ADD91R,0.4000X0.5900*%
%ADD92R,0.4000X0.6200*%
%ADD93R,0.5900X0.4000*%
%ADD94R,0.6200X0.4000*%
%ADD95R,0.9032X1.1032*%
%ADD96R,1.9032X1.3032*%
%ADD97R,0.4532X0.9032*%
%ADD98R,2.5832X1.8532*%
%ADD99O,1.9532X0.5032*%
%ADD100O,0.5032X1.9532*%
G04:AMPARAMS|DCode=101|XSize=1.7272mm|YSize=3.048mm|CornerRadius=0mm|HoleSize=0mm|Usage=FLASHONLY|Rotation=82.000|XOffset=0mm|YOffset=0mm|HoleType=Round|Shape=Rectangle|*
%AMROTATEDRECTD101*
4,1,4,1.3890,-1.0673,-1.6294,-0.6431,-1.3890,1.0673,1.6294,0.6431,1.3890,-1.0673,0.0*
%
%ADD101ROTATEDRECTD101*%

G04:AMPARAMS|DCode=102|XSize=1.7272mm|YSize=3.048mm|CornerRadius=0mm|HoleSize=0mm|Usage=FLASHONLY|Rotation=352.000|XOffset=0mm|YOffset=0mm|HoleType=Round|Shape=Rectangle|*
%AMROTATEDRECTD102*
4,1,4,-1.0673,-1.3890,-0.6431,1.6294,1.0673,1.3890,0.6431,-1.6294,-1.0673,-1.3890,0.0*
%
%ADD102ROTATEDRECTD102*%

%ADD103R,2.2032X0.6032*%
%ADD104O,1.5532X0.6532*%
%ADD105O,0.9032X2.2032*%
%ADD106R,1.0532X0.9032*%
%ADD107R,1.1032X1.0032*%
%ADD108R,0.6532X1.0532*%
%ADD109R,2.6032X1.7032*%
%ADD110R,0.8400X0.4400*%
%ADD111R,1.1400X1.7400*%
%ADD112O,0.4200X0.9900*%
%ADD113R,2.5400X1.7900*%
%ADD114C,0.6032*%
%ADD115R,1.1032X0.9032*%
%ADD116R,0.7532X1.1532*%
%ADD117R,0.9032X1.6032*%
%ADD118R,1.0032X1.1032*%
%ADD119R,2.5032X2.5032*%
G04:AMPARAMS|DCode=120|XSize=2.2032mm|YSize=1.9532mm|CornerRadius=0mm|HoleSize=0mm|Usage=FLASHONLY|Rotation=279.640|XOffset=0mm|YOffset=0mm|HoleType=Round|Shape=Rectangle|*
%AMROTATEDRECTD120*
4,1,4,-1.1473,0.9225,0.7783,1.2496,1.1473,-0.9225,-0.7783,-1.2496,-1.1473,0.9225,0.0*
%
%ADD120ROTATEDRECTD120*%

%ADD121R,0.9032X0.4832*%
%ADD122C,3.1032*%
%ADD123C,1.7032*%
%ADD124R,1.7032X1.7032*%
%ADD125R,1.7032X1.7032*%
%ADD126C,1.7272*%
%ADD127C,1.4732*%
%ADD128R,1.4732X1.4732*%
%ADD129R,2.0532X2.0532*%
%ADD130C,2.0532*%
%ADD131C,0.8382*%
%ADD132C,0.7032*%
%ADD133C,1.1032*%
%ADD134C,0.9032*%
G04:AMPARAMS|DCode=135|XSize=0.8532mm|YSize=1.5532mm|CornerRadius=0mm|HoleSize=0mm|Usage=FLASHONLY|Rotation=13.600|XOffset=0mm|YOffset=0mm|HoleType=Round|Shape=Rectangle|*
%AMROTATEDRECTD135*
4,1,4,-0.2320,-0.8551,-0.5972,0.6545,0.2320,0.8551,0.5972,-0.6545,-0.2320,-0.8551,0.0*
%
%ADD135ROTATEDRECTD135*%

G04:AMPARAMS|DCode=136|XSize=0.6032mm|YSize=1.5532mm|CornerRadius=0mm|HoleSize=0mm|Usage=FLASHONLY|Rotation=13.600|XOffset=0mm|YOffset=0mm|HoleType=Round|Shape=Rectangle|*
%AMROTATEDRECTD136*
4,1,4,-0.1105,-0.8257,-0.4758,0.6839,0.1105,0.8257,0.4758,-0.6839,-0.1105,-0.8257,0.0*
%
%ADD136ROTATEDRECTD136*%

G04:AMPARAMS|DCode=137|XSize=2.7132mm|YSize=1.2032mm|CornerRadius=0mm|HoleSize=0mm|Usage=FLASHONLY|Rotation=13.600|XOffset=0mm|YOffset=0mm|HoleType=Round|Shape=Rectangle|*
%AMROTATEDRECTD137*
4,1,4,-1.1771,-0.9037,-1.4600,0.2657,1.1771,0.9037,1.4600,-0.2657,-1.1771,-0.9037,0.0*
%
%ADD137ROTATEDRECTD137*%

G04:AMPARAMS|DCode=138|XSize=1.4032mm|YSize=2.3032mm|CornerRadius=0mm|HoleSize=0mm|Usage=FLASHONLY|Rotation=13.600|XOffset=0mm|YOffset=0mm|HoleType=Round|Shape=Rectangle|*
%AMROTATEDRECTD138*
4,1,4,-0.4111,-1.2843,-0.9527,0.9543,0.4111,1.2843,0.9527,-0.9543,-0.4111,-1.2843,0.0*
%
%ADD138ROTATEDRECTD138*%

G04:AMPARAMS|DCode=139|XSize=1.4032mm|YSize=1.7532mm|CornerRadius=0mm|HoleSize=0mm|Usage=FLASHONLY|Rotation=13.600|XOffset=0mm|YOffset=0mm|HoleType=Round|Shape=Rectangle|*
%AMROTATEDRECTD139*
4,1,4,-0.4758,-1.0170,-0.8881,0.6870,0.4758,1.0170,0.8881,-0.6870,-0.4758,-1.0170,0.0*
%
%ADD139ROTATEDRECTD139*%

G04:AMPARAMS|DCode=140|XSize=0.9782mm|YSize=1.3532mm|CornerRadius=0mm|HoleSize=0mm|Usage=FLASHONLY|Rotation=13.600|XOffset=0mm|YOffset=0mm|HoleType=Round|Shape=Rectangle|*
%AMROTATEDRECTD140*
4,1,4,-0.3163,-0.7726,-0.6345,0.5426,0.3163,0.7726,0.6345,-0.5426,-0.3163,-0.7726,0.0*
%
%ADD140ROTATEDRECTD140*%

G04:AMPARAMS|DCode=141|XSize=1.0282mm|YSize=1.3532mm|CornerRadius=0mm|HoleSize=0mm|Usage=FLASHONLY|Rotation=13.600|XOffset=0mm|YOffset=0mm|HoleType=Round|Shape=Rectangle|*
%AMROTATEDRECTD141*
4,1,4,-0.3406,-0.7785,-0.6588,0.5367,0.3406,0.7785,0.6588,-0.5367,-0.3406,-0.7785,0.0*
%
%ADD141ROTATEDRECTD141*%

D95*
X240000Y77072D02*
D03*
X225000D02*
D03*
X240000Y62072D02*
D03*
X225000D02*
D03*
X240000Y32072D02*
D03*
X225000D02*
D03*
X240000Y47072D02*
D03*
X225000D02*
D03*
D122*
X-540000Y160000D02*
D03*
Y-160000D02*
D03*
X540000Y160000D02*
D03*
Y-160000D02*
D03*
D123*
X-264200Y-25428D02*
D03*
X542500Y112900D02*
D03*
X-280400Y-250000D02*
D03*
X-305800D02*
D03*
X-331200D02*
D03*
X-550000Y-43128D02*
D03*
X-345694Y86614D02*
D03*
D124*
X-289600Y-25428D02*
D03*
X-255000Y-250000D02*
D03*
X-371094Y86614D02*
D03*
D125*
X542500Y87500D02*
D03*
X-550000Y-17728D02*
D03*
D126*
X375000Y-60000D02*
D03*
X355000D02*
D03*
X395000D02*
D03*
X315000D02*
D03*
X295000D02*
D03*
X335000D02*
D03*
X375000Y-280000D02*
D03*
X355000D02*
D03*
X395000D02*
D03*
X315000D02*
D03*
X335000D02*
D03*
X275000Y-60000D02*
D03*
X255000D02*
D03*
X295000Y-280000D02*
D03*
X215000Y-60000D02*
D03*
X235000D02*
D03*
X275000Y-280000D02*
D03*
X255000D02*
D03*
X215000D02*
D03*
X235000D02*
D03*
D127*
X-118745Y240030D02*
D03*
X-93345D02*
D03*
X-67945D02*
D03*
X-78105Y-240030D02*
D03*
X-27305Y240030D02*
D03*
Y-240030D02*
D03*
X23495Y240030D02*
D03*
Y-240030D02*
D03*
X48895Y240030D02*
D03*
Y-240030D02*
D03*
X74295Y240030D02*
D03*
Y-240030D02*
D03*
X99695Y240030D02*
D03*
Y-240030D02*
D03*
X125095Y240030D02*
D03*
Y-240030D02*
D03*
X150495Y240030D02*
D03*
X-52705Y-240030D02*
D03*
X-1905Y240030D02*
D03*
X150495Y39370D02*
D03*
Y13970D02*
D03*
Y-11430D02*
D03*
X175895D02*
D03*
Y13970D02*
D03*
Y39370D02*
D03*
X-103505Y-240030D02*
D03*
X-128905D02*
D03*
X-154305D02*
D03*
D128*
X150495D02*
D03*
D129*
X-550000Y64172D02*
D03*
D130*
Y114972D02*
D03*
D131*
X-312166Y48768D02*
D03*
X-217170Y33274D02*
D03*
X40640Y115316D02*
D03*
X17526Y114808D02*
D03*
X-360172Y-58928D02*
D03*
X422483Y181183D02*
D03*
X418432Y147132D02*
D03*
X-157480Y-113284D02*
D03*
X-166624Y-105156D02*
D03*
X-127000Y-52324D02*
D03*
X-134112Y-37084D02*
D03*
X-406400Y-58420D02*
D03*
X273958Y39572D02*
D03*
X259426D02*
D03*
X288489D02*
D03*
X49784Y38100D02*
D03*
X37831Y37861D02*
D03*
X49685Y26007D02*
D03*
X55611Y20080D02*
D03*
X-223520Y-126492D02*
D03*
X-98880Y-18468D02*
D03*
X-209296Y-121412D02*
D03*
X-104807Y-12541D02*
D03*
X7493Y38100D02*
D03*
X7112Y62484D02*
D03*
X23368Y-145796D02*
D03*
X-59944Y-3556D02*
D03*
X-71120Y21844D02*
D03*
X-96520Y-52324D02*
D03*
X-104648Y-67564D02*
D03*
X-239776Y9652D02*
D03*
X7493Y115316D02*
D03*
X15875Y55372D02*
D03*
X15875Y38100D02*
D03*
X50800Y115316D02*
D03*
X61976Y10668D02*
D03*
X68739Y3905D02*
D03*
X36576Y137668D02*
D03*
X8128Y-155956D02*
D03*
X28448Y127508D02*
D03*
X14055Y-161883D02*
D03*
X147320Y58420D02*
D03*
X282448Y92964D02*
D03*
X97536Y45593D02*
D03*
Y53975D02*
D03*
X122936Y82804D02*
D03*
X-114808Y62484D02*
D03*
X-79248Y-7620D02*
D03*
X60960Y115316D02*
D03*
X71120D02*
D03*
X81280Y-101092D02*
D03*
X68739Y-79089D02*
D03*
X65024Y-89916D02*
D03*
X-110744Y-190420D02*
D03*
Y-198802D02*
D03*
Y-182038D02*
D03*
X34713Y-176445D02*
D03*
X81280Y-130810D02*
D03*
X-416560Y-76708D02*
D03*
X-434340Y-43688D02*
D03*
X40640Y-182372D02*
D03*
X81280Y-139192D02*
D03*
X-457200Y-78740D02*
D03*
X-452120Y-3556D02*
D03*
X28786Y-170518D02*
D03*
X81280Y-122428D02*
D03*
X-314960Y-176276D02*
D03*
X-326814Y-188130D02*
D03*
X-320887Y-182203D02*
D03*
X102616Y134620D02*
D03*
X116840Y119380D02*
D03*
X132080Y75692D02*
D03*
X27432Y115316D02*
D03*
X26416Y38100D02*
D03*
X461128Y-128524D02*
D03*
X479416Y-146812D02*
D03*
X-235712Y91948D02*
D03*
X-66040Y183388D02*
D03*
X-65024Y154940D02*
D03*
X-111760Y90932D02*
D03*
Y75692D02*
D03*
X-83312Y120396D02*
D03*
X-122936Y140716D02*
D03*
X-169672Y149860D02*
D03*
X168656Y208788D02*
D03*
X170688Y169164D02*
D03*
X-438912Y-508D02*
D03*
X-367792Y113284D02*
D03*
X-95504Y11684D02*
D03*
X-218064Y-35428D02*
D03*
X-72136Y-67564D02*
D03*
X-80264Y-156972D02*
D03*
X-106680Y-144780D02*
D03*
X-13208Y-126492D02*
D03*
X-45720Y-66548D02*
D03*
X-218440Y-2540D02*
D03*
X-430784Y-76708D02*
D03*
X-334264Y-28956D02*
D03*
X-406400Y-27940D02*
D03*
X-450088Y-191516D02*
D03*
X-477520Y-204724D02*
D03*
X485512Y-188468D02*
D03*
X-202184Y201676D02*
D03*
X-374904Y-243332D02*
D03*
X225000Y-305000D02*
D03*
X-105664Y187452D02*
D03*
X-508000Y102108D02*
D03*
X-450060Y217452D02*
D03*
X-386052Y270284D02*
D03*
X-81280Y90043D02*
D03*
X-72136Y91948D02*
D03*
X-142240Y68580D02*
D03*
X-179832Y-9652D02*
D03*
X-216408Y166116D02*
D03*
X-239776Y154940D02*
D03*
X-400050Y27686D02*
D03*
X-241808Y183642D02*
D03*
X-333502D02*
D03*
X-229870Y205740D02*
D03*
X-240538Y169418D02*
D03*
X-180848Y184658D02*
D03*
X-167386Y198120D02*
D03*
X-248412Y207518D02*
D03*
X-370332Y1016D02*
D03*
X-361188Y49784D02*
D03*
X-453390Y16256D02*
D03*
X-479298Y58674D02*
D03*
X-516636Y116078D02*
D03*
X-478536Y13216D02*
D03*
X235000Y-207688D02*
D03*
X255000Y-210000D02*
D03*
X135000Y-305000D02*
D03*
X120000Y-270000D02*
D03*
X303022Y39572D02*
D03*
X195000Y22500D02*
D03*
X177500Y-40000D02*
D03*
Y-55000D02*
D03*
X-314960Y124460D02*
D03*
X-425676Y227612D02*
D03*
X-404340Y217452D02*
D03*
X-425000Y277500D02*
D03*
X-277500Y70000D02*
D03*
X-220308Y85000D02*
D03*
X-435000Y272500D02*
D03*
X-479806Y116078D02*
D03*
X-355000Y292500D02*
D03*
Y300000D02*
D03*
X-177500Y32500D02*
D03*
X-210000Y307500D02*
D03*
X-311912Y60706D02*
D03*
D132*
X-455000Y-25428D02*
D03*
Y-35428D02*
D03*
X-465000D02*
D03*
Y-25428D02*
D03*
X-445000Y-215428D02*
D03*
Y-225428D02*
D03*
X-455000D02*
D03*
Y-215428D02*
D03*
X-405000Y68572D02*
D03*
Y60572D02*
D03*
X-362500Y-25428D02*
D03*
X-370000Y-30428D02*
D03*
X-362500Y-35428D02*
D03*
X-377500Y-25428D02*
D03*
Y-35428D02*
D03*
D133*
X-448028Y244884D02*
D03*
X-405356Y269268D02*
D03*
X-292862Y123190D02*
D03*
D134*
X-424999Y265000D02*
D03*
D135*
X-420325Y301283D02*
D03*
X-448026Y294581D02*
D03*
D136*
X-427858Y299461D02*
D03*
X-434176Y297932D02*
D03*
X-440494Y296404D02*
D03*
D137*
X-467635Y293559D02*
D03*
X-402417Y309337D02*
D03*
D138*
X-475295Y297365D02*
D03*
X-397345Y316223D02*
D03*
D139*
X-460622Y292426D02*
D03*
X-408137Y305124D02*
D03*
D140*
X-382110Y315022D02*
D03*
D141*
X-488480Y289031D02*
D03*
M02*
