%FSLAX44Y44*%
%MOMM*%
G71*
G01*
G75*
G04 Layer_Color=32896*
%ADD10C,0.7620*%
%ADD11R,0.3000X0.4900*%
%ADD12R,0.3000X0.5200*%
%ADD13R,0.4900X0.3000*%
%ADD14R,0.5200X0.3000*%
%ADD15R,0.7000X0.9000*%
%ADD16R,1.7000X1.1000*%
%ADD17R,0.2500X0.7000*%
%ADD18R,2.3800X1.6500*%
%ADD19O,1.7500X0.3000*%
%ADD20O,0.3000X1.7500*%
G04:AMPARAMS|DCode=21|XSize=1.524mm|YSize=2.8448mm|CornerRadius=0mm|HoleSize=0mm|Usage=FLASHONLY|Rotation=82.000|XOffset=0mm|YOffset=0mm|HoleType=Round|Shape=Rectangle|*
%AMROTATEDRECTD21*
4,1,4,1.3025,-0.9525,-1.5146,-0.5566,-1.3025,0.9525,1.5146,0.5566,1.3025,-0.9525,0.0*
%
%ADD21ROTATEDRECTD21*%

G04:AMPARAMS|DCode=22|XSize=1.524mm|YSize=2.8448mm|CornerRadius=0mm|HoleSize=0mm|Usage=FLASHONLY|Rotation=352.000|XOffset=0mm|YOffset=0mm|HoleType=Round|Shape=Rectangle|*
%AMROTATEDRECTD22*
4,1,4,-0.9525,-1.3025,-0.5566,1.5146,0.9525,1.3025,0.5566,-1.5146,-0.9525,-1.3025,0.0*
%
%ADD22ROTATEDRECTD22*%

%ADD23R,2.0000X0.4000*%
%ADD24O,1.3500X0.4500*%
%ADD25O,0.7000X2.0000*%
%ADD26R,0.8500X0.7000*%
%ADD27R,0.9000X0.8000*%
%ADD28R,0.4500X0.8500*%
%ADD29R,2.4000X1.5000*%
%ADD30R,0.7000X0.3000*%
%ADD31R,1.0000X1.6000*%
%ADD32O,0.2800X0.8500*%
%ADD33R,2.4000X1.6500*%
%ADD34C,0.4000*%
%ADD35R,0.9000X0.7000*%
%ADD36R,0.5500X0.9500*%
%ADD37R,0.7000X1.4000*%
%ADD38R,1.0000X1.0000*%
%ADD39R,0.8000X0.9000*%
%ADD40R,2.3000X2.3000*%
G04:AMPARAMS|DCode=41|XSize=2mm|YSize=1.75mm|CornerRadius=0mm|HoleSize=0mm|Usage=FLASHONLY|Rotation=279.640|XOffset=0mm|YOffset=0mm|HoleType=Round|Shape=Rectangle|*
%AMROTATEDRECTD41*
4,1,4,-1.0301,0.8394,0.6952,1.1324,1.0301,-0.8394,-0.6952,-1.1324,-1.0301,0.8394,0.0*
%
%ADD41ROTATEDRECTD41*%

%ADD42C,0.1905*%
%ADD43C,0.4064*%
%ADD44C,0.2032*%
%ADD45C,0.6096*%
%ADD46C,0.3048*%
%ADD47C,0.2540*%
%ADD48C,1.0160*%
%ADD49C,0.5080*%
%ADD50C,1.2700*%
%ADD51C,0.3556*%
%ADD52R,0.7000X0.2800*%
%ADD53C,2.9000*%
%ADD54C,1.5000*%
%ADD55R,1.5000X1.5000*%
%ADD56R,1.5000X1.5000*%
%ADD57C,1.5240*%
%ADD58C,1.2700*%
%ADD59R,1.2700X1.2700*%
%ADD60R,1.8500X1.8500*%
%ADD61C,1.8500*%
%ADD62C,0.6350*%
%ADD63C,0.5000*%
%ADD64C,0.9000*%
%ADD65C,0.7000*%
%ADD66C,0.6350*%
G04:AMPARAMS|DCode=67|XSize=0.65mm|YSize=1.35mm|CornerRadius=0mm|HoleSize=0mm|Usage=FLASHONLY|Rotation=13.600|XOffset=0mm|YOffset=0mm|HoleType=Round|Shape=Rectangle|*
%AMROTATEDRECTD67*
4,1,4,-0.1572,-0.7325,-0.4746,0.5797,0.1572,0.7325,0.4746,-0.5797,-0.1572,-0.7325,0.0*
%
%ADD67ROTATEDRECTD67*%

G04:AMPARAMS|DCode=68|XSize=0.4mm|YSize=1.35mm|CornerRadius=0mm|HoleSize=0mm|Usage=FLASHONLY|Rotation=13.600|XOffset=0mm|YOffset=0mm|HoleType=Round|Shape=Rectangle|*
%AMROTATEDRECTD68*
4,1,4,-0.0357,-0.7031,-0.3531,0.6090,0.0357,0.7031,0.3531,-0.6090,-0.0357,-0.7031,0.0*
%
%ADD68ROTATEDRECTD68*%

G04:AMPARAMS|DCode=69|XSize=2.51mm|YSize=1mm|CornerRadius=0mm|HoleSize=0mm|Usage=FLASHONLY|Rotation=13.600|XOffset=0mm|YOffset=0mm|HoleType=Round|Shape=Rectangle|*
%AMROTATEDRECTD69*
4,1,4,-1.1022,-0.7811,-1.3374,0.1909,1.1022,0.7811,1.3374,-0.1909,-1.1022,-0.7811,0.0*
%
%ADD69ROTATEDRECTD69*%

G04:AMPARAMS|DCode=70|XSize=1.2mm|YSize=2.1mm|CornerRadius=0mm|HoleSize=0mm|Usage=FLASHONLY|Rotation=13.600|XOffset=0mm|YOffset=0mm|HoleType=Round|Shape=Rectangle|*
%AMROTATEDRECTD70*
4,1,4,-0.3363,-1.1617,-0.8301,0.8795,0.3363,1.1617,0.8301,-0.8795,-0.3363,-1.1617,0.0*
%
%ADD70ROTATEDRECTD70*%

G04:AMPARAMS|DCode=71|XSize=1.2mm|YSize=1.55mm|CornerRadius=0mm|HoleSize=0mm|Usage=FLASHONLY|Rotation=13.600|XOffset=0mm|YOffset=0mm|HoleType=Round|Shape=Rectangle|*
%AMROTATEDRECTD71*
4,1,4,-0.4009,-0.8943,-0.7654,0.6122,0.4009,0.8943,0.7654,-0.6122,-0.4009,-0.8943,0.0*
%
%ADD71ROTATEDRECTD71*%

G04:AMPARAMS|DCode=72|XSize=0.775mm|YSize=1.15mm|CornerRadius=0mm|HoleSize=0mm|Usage=FLASHONLY|Rotation=13.600|XOffset=0mm|YOffset=0mm|HoleType=Round|Shape=Rectangle|*
%AMROTATEDRECTD72*
4,1,4,-0.2414,-0.6500,-0.5118,0.4678,0.2414,0.6500,0.5118,-0.4678,-0.2414,-0.6500,0.0*
%
%ADD72ROTATEDRECTD72*%

G04:AMPARAMS|DCode=73|XSize=0.825mm|YSize=1.15mm|CornerRadius=0mm|HoleSize=0mm|Usage=FLASHONLY|Rotation=13.600|XOffset=0mm|YOffset=0mm|HoleType=Round|Shape=Rectangle|*
%AMROTATEDRECTD73*
4,1,4,-0.2657,-0.6559,-0.5361,0.4619,0.2657,0.6559,0.5361,-0.4619,-0.2657,-0.6559,0.0*
%
%ADD73ROTATEDRECTD73*%

%ADD74C,0.3000*%
%ADD75C,0.1000*%
%ADD76C,0.6000*%
%ADD77C,0.2500*%
%ADD78C,0.0000*%
%ADD79C,0.2000*%
%ADD80C,0.0127*%
%ADD81C,0.1500*%
%ADD82R,0.6502X0.1854*%
%ADD83R,0.5842X0.1651*%
%ADD84R,0.4572X1.7018*%
%ADD85R,0.8000X1.4000*%
%ADD86R,0.5000X0.2600*%
%ADD87R,1.0500X0.6800*%
%ADD88R,0.6500X0.2500*%
%ADD89R,0.0000X0.6000*%
%ADD90O,0.2300X0.8000*%
%ADD91R,0.4000X0.5900*%
%ADD92R,0.4000X0.6200*%
%ADD93R,0.5900X0.4000*%
%ADD94R,0.6200X0.4000*%
%ADD95R,0.9032X1.1032*%
%ADD96R,1.9032X1.3032*%
%ADD97R,0.4532X0.9032*%
%ADD98R,2.5832X1.8532*%
%ADD99O,1.9532X0.5032*%
%ADD100O,0.5032X1.9532*%
G04:AMPARAMS|DCode=101|XSize=1.7272mm|YSize=3.048mm|CornerRadius=0mm|HoleSize=0mm|Usage=FLASHONLY|Rotation=82.000|XOffset=0mm|YOffset=0mm|HoleType=Round|Shape=Rectangle|*
%AMROTATEDRECTD101*
4,1,4,1.3890,-1.0673,-1.6294,-0.6431,-1.3890,1.0673,1.6294,0.6431,1.3890,-1.0673,0.0*
%
%ADD101ROTATEDRECTD101*%

G04:AMPARAMS|DCode=102|XSize=1.7272mm|YSize=3.048mm|CornerRadius=0mm|HoleSize=0mm|Usage=FLASHONLY|Rotation=352.000|XOffset=0mm|YOffset=0mm|HoleType=Round|Shape=Rectangle|*
%AMROTATEDRECTD102*
4,1,4,-1.0673,-1.3890,-0.6431,1.6294,1.0673,1.3890,0.6431,-1.6294,-1.0673,-1.3890,0.0*
%
%ADD102ROTATEDRECTD102*%

%ADD103R,2.2032X0.6032*%
%ADD104O,1.5532X0.6532*%
%ADD105O,0.9032X2.2032*%
%ADD106R,1.0532X0.9032*%
%ADD107R,1.1032X1.0032*%
%ADD108R,0.6532X1.0532*%
%ADD109R,2.6032X1.7032*%
%ADD110R,0.8400X0.4400*%
%ADD111R,1.1400X1.7400*%
%ADD112O,0.4200X0.9900*%
%ADD113R,2.5400X1.7900*%
%ADD114C,0.6032*%
%ADD115R,1.1032X0.9032*%
%ADD116R,0.7532X1.1532*%
%ADD117R,0.9032X1.6032*%
%ADD118R,1.0032X1.1032*%
%ADD119R,2.5032X2.5032*%
G04:AMPARAMS|DCode=120|XSize=2.2032mm|YSize=1.9532mm|CornerRadius=0mm|HoleSize=0mm|Usage=FLASHONLY|Rotation=279.640|XOffset=0mm|YOffset=0mm|HoleType=Round|Shape=Rectangle|*
%AMROTATEDRECTD120*
4,1,4,-1.1473,0.9225,0.7783,1.2496,1.1473,-0.9225,-0.7783,-1.2496,-1.1473,0.9225,0.0*
%
%ADD120ROTATEDRECTD120*%

%ADD121R,0.9032X0.4832*%
%ADD122C,3.1032*%
%ADD123C,1.7032*%
%ADD124R,1.7032X1.7032*%
%ADD125R,1.7032X1.7032*%
%ADD126C,1.7272*%
%ADD127C,1.4732*%
%ADD128R,1.4732X1.4732*%
%ADD129R,2.0532X2.0532*%
%ADD130C,2.0532*%
%ADD131C,0.8382*%
%ADD132C,0.7032*%
%ADD133C,1.1032*%
%ADD134C,0.9032*%
G04:AMPARAMS|DCode=135|XSize=0.8532mm|YSize=1.5532mm|CornerRadius=0mm|HoleSize=0mm|Usage=FLASHONLY|Rotation=13.600|XOffset=0mm|YOffset=0mm|HoleType=Round|Shape=Rectangle|*
%AMROTATEDRECTD135*
4,1,4,-0.2320,-0.8551,-0.5972,0.6545,0.2320,0.8551,0.5972,-0.6545,-0.2320,-0.8551,0.0*
%
%ADD135ROTATEDRECTD135*%

G04:AMPARAMS|DCode=136|XSize=0.6032mm|YSize=1.5532mm|CornerRadius=0mm|HoleSize=0mm|Usage=FLASHONLY|Rotation=13.600|XOffset=0mm|YOffset=0mm|HoleType=Round|Shape=Rectangle|*
%AMROTATEDRECTD136*
4,1,4,-0.1105,-0.8257,-0.4758,0.6839,0.1105,0.8257,0.4758,-0.6839,-0.1105,-0.8257,0.0*
%
%ADD136ROTATEDRECTD136*%

G04:AMPARAMS|DCode=137|XSize=2.7132mm|YSize=1.2032mm|CornerRadius=0mm|HoleSize=0mm|Usage=FLASHONLY|Rotation=13.600|XOffset=0mm|YOffset=0mm|HoleType=Round|Shape=Rectangle|*
%AMROTATEDRECTD137*
4,1,4,-1.1771,-0.9037,-1.4600,0.2657,1.1771,0.9037,1.4600,-0.2657,-1.1771,-0.9037,0.0*
%
%ADD137ROTATEDRECTD137*%

G04:AMPARAMS|DCode=138|XSize=1.4032mm|YSize=2.3032mm|CornerRadius=0mm|HoleSize=0mm|Usage=FLASHONLY|Rotation=13.600|XOffset=0mm|YOffset=0mm|HoleType=Round|Shape=Rectangle|*
%AMROTATEDRECTD138*
4,1,4,-0.4111,-1.2843,-0.9527,0.9543,0.4111,1.2843,0.9527,-0.9543,-0.4111,-1.2843,0.0*
%
%ADD138ROTATEDRECTD138*%

G04:AMPARAMS|DCode=139|XSize=1.4032mm|YSize=1.7532mm|CornerRadius=0mm|HoleSize=0mm|Usage=FLASHONLY|Rotation=13.600|XOffset=0mm|YOffset=0mm|HoleType=Round|Shape=Rectangle|*
%AMROTATEDRECTD139*
4,1,4,-0.4758,-1.0170,-0.8881,0.6870,0.4758,1.0170,0.8881,-0.6870,-0.4758,-1.0170,0.0*
%
%ADD139ROTATEDRECTD139*%

G04:AMPARAMS|DCode=140|XSize=0.9782mm|YSize=1.3532mm|CornerRadius=0mm|HoleSize=0mm|Usage=FLASHONLY|Rotation=13.600|XOffset=0mm|YOffset=0mm|HoleType=Round|Shape=Rectangle|*
%AMROTATEDRECTD140*
4,1,4,-0.3163,-0.7726,-0.6345,0.5426,0.3163,0.7726,0.6345,-0.5426,-0.3163,-0.7726,0.0*
%
%ADD140ROTATEDRECTD140*%

G04:AMPARAMS|DCode=141|XSize=1.0282mm|YSize=1.3532mm|CornerRadius=0mm|HoleSize=0mm|Usage=FLASHONLY|Rotation=13.600|XOffset=0mm|YOffset=0mm|HoleType=Round|Shape=Rectangle|*
%AMROTATEDRECTD141*
4,1,4,-0.3406,-0.7785,-0.6588,0.5367,0.3406,0.7785,0.6588,-0.5367,-0.3406,-0.7785,0.0*
%
%ADD141ROTATEDRECTD141*%

%ADD142C,0.0254*%
D47*
X190000Y47500D02*
Y37343D01*
X195078D01*
X196771Y39036D01*
Y42422D01*
X195078Y44114D01*
X190000D01*
X193386D02*
X196771Y47500D01*
X206928D02*
X200157D01*
X206928Y40729D01*
Y39036D01*
X205235Y37343D01*
X201849D01*
X200157Y39036D01*
X210313Y47500D02*
X213699D01*
X212006D01*
Y37343D01*
X210313Y39036D01*
X215000Y20000D02*
Y9843D01*
X220078D01*
X221771Y11536D01*
Y14922D01*
X220078Y16614D01*
X215000D01*
X218386D02*
X221771Y20000D01*
X231928D02*
X225157D01*
X231928Y13229D01*
Y11536D01*
X230235Y9843D01*
X226849D01*
X225157Y11536D01*
X242085Y20000D02*
X235313D01*
X242085Y13229D01*
Y11536D01*
X240392Y9843D01*
X237006D01*
X235313Y11536D01*
X187500Y65000D02*
Y54843D01*
X192578D01*
X194271Y56536D01*
Y59922D01*
X192578Y61614D01*
X187500D01*
X190886D02*
X194271Y65000D01*
X204428D02*
X197657D01*
X204428Y58229D01*
Y56536D01*
X202735Y54843D01*
X199349D01*
X197657Y56536D01*
X207813D02*
X209506Y54843D01*
X212892D01*
X214585Y56536D01*
Y58229D01*
X212892Y59922D01*
X211199D01*
X212892D01*
X214585Y61614D01*
Y63307D01*
X212892Y65000D01*
X209506D01*
X207813Y63307D01*
X187500Y80000D02*
Y69843D01*
X192578D01*
X194271Y71536D01*
Y74922D01*
X192578Y76614D01*
X187500D01*
X190886D02*
X194271Y80000D01*
X204428D02*
X197657D01*
X204428Y73229D01*
Y71536D01*
X202735Y69843D01*
X199349D01*
X197657Y71536D01*
X212892Y80000D02*
Y69843D01*
X207813Y74922D01*
X214585D01*
X-259823Y56733D02*
X-256438D01*
X-258130D01*
Y48269D01*
X-256438Y46576D01*
X-254745D01*
X-253052Y48269D01*
X-263209Y46576D02*
Y56733D01*
X-268287D01*
X-269980Y55040D01*
Y51655D01*
X-268287Y49962D01*
X-263209D01*
X-273366Y55040D02*
X-275058Y56733D01*
X-278444D01*
X-280137Y55040D01*
Y53347D01*
X-278444Y51655D01*
X-276751D01*
X-278444D01*
X-280137Y49962D01*
Y48269D01*
X-278444Y46576D01*
X-275058D01*
X-273366Y48269D01*
X-283522Y56733D02*
Y49962D01*
X-286908Y46576D01*
X-290293Y49962D01*
Y56733D01*
X-293679Y55040D02*
X-295372Y56733D01*
X-298757D01*
X-300450Y55040D01*
Y53347D01*
X-298757Y51655D01*
X-297065D01*
X-298757D01*
X-300450Y49962D01*
Y48269D01*
X-298757Y46576D01*
X-295372D01*
X-293679Y48269D01*
X-341357Y169001D02*
X-337972D01*
X-339664D01*
Y160537D01*
X-337972Y158844D01*
X-336279D01*
X-334586Y160537D01*
X-344743Y158844D02*
Y169001D01*
X-349821D01*
X-351514Y167308D01*
Y163923D01*
X-349821Y162230D01*
X-344743D01*
X-361671Y169001D02*
X-354900D01*
Y163923D01*
X-358285Y165615D01*
X-359978D01*
X-361671Y163923D01*
Y160537D01*
X-359978Y158844D01*
X-356592D01*
X-354900Y160537D01*
X-365056Y169001D02*
Y162230D01*
X-368442Y158844D01*
X-371827Y162230D01*
Y169001D01*
X414843Y-184765D02*
Y-200000D01*
X422461D01*
X425000Y-197461D01*
Y-192383D01*
X422461Y-189843D01*
X414843D01*
X402147Y-184765D02*
X407226D01*
X409765Y-187304D01*
Y-197461D01*
X407226Y-200000D01*
X402147D01*
X399608Y-197461D01*
Y-187304D01*
X402147Y-184765D01*
X394530Y-189843D02*
Y-200000D01*
Y-194922D01*
X391991Y-192383D01*
X389451Y-189843D01*
X386912D01*
X379295D02*
Y-197461D01*
X376756Y-200000D01*
X369138D01*
Y-202539D01*
X371677Y-205078D01*
X374216D01*
X369138Y-200000D02*
Y-189843D01*
X348825Y-200000D02*
Y-189843D01*
X346285D01*
X343746Y-192383D01*
Y-200000D01*
Y-192383D01*
X341207Y-189843D01*
X338668Y-192383D01*
Y-200000D01*
X331050Y-189843D02*
X325972D01*
X323433Y-192383D01*
Y-200000D01*
X331050D01*
X333590Y-197461D01*
X331050Y-194922D01*
X323433D01*
X318354Y-200000D02*
X313276D01*
X315815D01*
Y-189843D01*
X318354D01*
X305659Y-200000D02*
Y-189843D01*
X298041D01*
X295502Y-192383D01*
Y-200000D01*
X290424Y-184765D02*
Y-200000D01*
X282806D01*
X280267Y-197461D01*
Y-194922D01*
Y-192383D01*
X282806Y-189843D01*
X290424D01*
X272649Y-200000D02*
X267571D01*
X265032Y-197461D01*
Y-192383D01*
X267571Y-189843D01*
X272649D01*
X275189Y-192383D01*
Y-197461D01*
X272649Y-200000D01*
X257414Y-189843D02*
X252336D01*
X249797Y-192383D01*
Y-200000D01*
X257414D01*
X259953Y-197461D01*
X257414Y-194922D01*
X249797D01*
X244718Y-189843D02*
Y-200000D01*
Y-194922D01*
X242179Y-192383D01*
X239640Y-189843D01*
X237101D01*
X219326Y-184765D02*
Y-200000D01*
X226944D01*
X229483Y-197461D01*
Y-192383D01*
X226944Y-189843D01*
X219326D01*
X199013D02*
X193935Y-200000D01*
X188856Y-189843D01*
X183778Y-200000D02*
X178700D01*
X181239D01*
Y-184765D01*
X183778Y-187304D01*
X171082Y-200000D02*
Y-197461D01*
X168543D01*
Y-200000D01*
X171082D01*
X158386Y-187304D02*
X155847Y-184765D01*
X150769D01*
X148230Y-187304D01*
Y-197461D01*
X150769Y-200000D01*
X155847D01*
X158386Y-197461D01*
Y-187304D01*
D77*
X-442680Y282964D02*
G03*
X-442680Y282964I-1250J0D01*
G01*
D79*
X-264200Y38072D02*
X-259967Y33839D01*
Y-28D02*
Y33839D01*
X-268433D02*
X-264200Y38072D01*
X-268433Y-28D02*
Y33839D01*
X-251500Y-12728D02*
Y-28D01*
X-285367D02*
Y33839D01*
X-289600Y38072D02*
X-285367Y33839D01*
X-302300Y-28D02*
X-251500D01*
X-293833Y33839D02*
X-289600Y38072D01*
X-293833Y-28D02*
Y33839D01*
X-302300Y-12728D02*
X-251500D01*
X-302300D02*
Y-28D01*
X-332994Y99314D02*
Y112014D01*
X-349927D02*
Y145880D01*
X-341461Y112014D02*
Y145880D01*
X-349927D02*
X-345694Y150114D01*
X-341461Y145880D01*
X-366861Y112014D02*
Y145881D01*
X-383794Y99314D02*
X-332994D01*
X-383794Y112014D02*
X-332994D01*
X-383794Y99314D02*
Y112014D01*
X-375327Y145880D02*
X-371094Y150114D01*
X-366861Y145880D01*
X-375327Y112014D02*
Y145880D01*
X230500Y80572D02*
X234500D01*
X230500Y73572D02*
X234500D01*
X230500Y65572D02*
X234500D01*
X230500Y58572D02*
X234500D01*
X230500Y35572D02*
X234500D01*
X230500Y28572D02*
X234500D01*
X230500Y50572D02*
X234500D01*
X230500Y43572D02*
X234500D01*
X-387564Y312583D02*
X-385880Y305621D01*
X-480160Y282812D02*
X-467524Y285869D01*
X-481844Y289775D02*
X-480160Y282812D01*
X-399001Y302447D02*
X-385880Y305621D01*
D142*
X359944Y-106280D02*
X405664D01*
X280696Y-146920D02*
X296698D01*
X191288D02*
X205004D01*
X200686Y-167240D02*
X214402D01*
X280950Y-147428D02*
X297206D01*
X280696Y-147174D02*
X296952D01*
X282474Y-150222D02*
X300254D01*
X282220Y-149968D02*
X300000D01*
X282220Y-149714D02*
X299746D01*
X281966Y-149460D02*
X299238D01*
X281966Y-149206D02*
X298984D01*
X281712Y-148952D02*
X298730D01*
X281458Y-148698D02*
X298476D01*
X281458Y-148444D02*
X298222D01*
X281204Y-148190D02*
X297968D01*
X281204Y-147936D02*
X297714D01*
X280950Y-147682D02*
X297460D01*
X284252Y-152762D02*
X304572D01*
X283998Y-152508D02*
X304064D01*
X283744Y-152254D02*
X303556D01*
X283744Y-152000D02*
X303048D01*
X283490Y-151746D02*
X302540D01*
X283236Y-151492D02*
X302286D01*
X283236Y-151238D02*
X301778D01*
X282982Y-150984D02*
X301270D01*
X282728Y-150730D02*
X301016D01*
X282728Y-150476D02*
X300762D01*
X280442Y-146666D02*
X296444D01*
X280442Y-146412D02*
X296190D01*
X280188Y-146158D02*
X296190D01*
X280188Y-145904D02*
X295936D01*
X359944Y-136760D02*
X407950D01*
X359944Y-138538D02*
X406680D01*
X359944Y-138284D02*
X406934D01*
X359944Y-138030D02*
X407188D01*
X359944Y-137776D02*
X407188D01*
X359944Y-137522D02*
X407442D01*
X359944Y-137268D02*
X407442D01*
X359944Y-137014D02*
X407696D01*
X359944Y-136506D02*
X382804D01*
X359944Y-136252D02*
X381534D01*
X359944Y-135998D02*
X380518D01*
X359944Y-135744D02*
X379756D01*
X359944Y-135490D02*
X379248D01*
X359944Y-135236D02*
X378740D01*
X359944Y-134982D02*
X378232D01*
X359944Y-134728D02*
X377724D01*
X359944Y-134474D02*
X377216D01*
X359944Y-134220D02*
X376962D01*
X359944Y-133966D02*
X376454D01*
X359944Y-133712D02*
X376200D01*
X359944Y-133458D02*
X375946D01*
X359944Y-133204D02*
X375692D01*
X280188Y-145650D02*
X295682D01*
X279934Y-145396D02*
X295428D01*
X279934Y-145142D02*
X295428D01*
X279680Y-144888D02*
X295174D01*
X279680Y-144634D02*
X294920D01*
X279426Y-144380D02*
X294920D01*
X279426Y-144126D02*
X294666D01*
X279426Y-143872D02*
X294412D01*
X359944D02*
X401600D01*
X279172Y-143618D02*
X294412D01*
X359944D02*
X401854D01*
X359944Y-143364D02*
X402362D01*
X359944Y-143110D02*
X402616D01*
X359944Y-142856D02*
X402870D01*
X359944Y-142602D02*
X403124D01*
X359944Y-142348D02*
X403378D01*
X359944Y-142094D02*
X403632D01*
X359944Y-141840D02*
X403886D01*
X359944Y-141586D02*
X404140D01*
X359944Y-141332D02*
X404394D01*
X359944Y-141078D02*
X404648D01*
X359944Y-140824D02*
X404902D01*
X359944Y-140570D02*
X405156D01*
X359944Y-140316D02*
X405410D01*
X359944Y-140062D02*
X405664D01*
X359944Y-139808D02*
X405918D01*
X359944Y-139554D02*
X405918D01*
X359944Y-139300D02*
X406172D01*
X359944Y-139046D02*
X406426D01*
X359944Y-138792D02*
X406680D01*
X359944Y-109582D02*
X407950D01*
X359944Y-109328D02*
X407696D01*
X359944Y-109074D02*
X407696D01*
X359944Y-108820D02*
X407442D01*
X359944Y-108566D02*
X407188D01*
X359944Y-108312D02*
X407188D01*
X359944Y-108058D02*
X406934D01*
X359944Y-107804D02*
X406680D01*
X359944Y-107550D02*
X406680D01*
X359944Y-107296D02*
X406426D01*
X359944Y-107042D02*
X406172D01*
X359944Y-106788D02*
X405918D01*
X359944Y-106534D02*
X405918D01*
X359944Y-113138D02*
X375692D01*
X359944Y-112884D02*
X375946D01*
X359944Y-112630D02*
X376454D01*
X359944Y-112376D02*
X376708D01*
X359944Y-112122D02*
X377216D01*
X359944Y-111868D02*
X377470D01*
X359944Y-111614D02*
X377978D01*
X359944Y-111360D02*
X378486D01*
X359944Y-111106D02*
X378994D01*
X359944Y-110852D02*
X379502D01*
X359944Y-110598D02*
X380010D01*
X359944Y-110344D02*
X380772D01*
X359944Y-110090D02*
X381788D01*
X359944Y-109836D02*
X383058D01*
X277648Y-123044D02*
X295174D01*
X277648Y-122790D02*
X296698D01*
X277648Y-122536D02*
X297968D01*
X277648Y-122282D02*
X298984D01*
X277648Y-122028D02*
X299746D01*
X359944Y-105264D02*
X404648D01*
X359944Y-105010D02*
X404648D01*
X359944Y-104756D02*
X404394D01*
X359944Y-104502D02*
X404140D01*
X359944Y-104248D02*
X403886D01*
X359944Y-103994D02*
X403632D01*
X359944Y-103740D02*
X403378D01*
X359944Y-103486D02*
X402870D01*
X359944Y-103232D02*
X402616D01*
X359944Y-102978D02*
X402362D01*
X359944Y-102724D02*
X402108D01*
X359944Y-102470D02*
X401854D01*
X359944Y-102216D02*
X401346D01*
X359944Y-101962D02*
X401092D01*
X359944Y-106026D02*
X405410D01*
X359944Y-105772D02*
X405156D01*
X359944Y-105518D02*
X404902D01*
X202972Y-172574D02*
X216942D01*
X202972Y-172320D02*
X216688D01*
X202718Y-172066D02*
X216688D01*
X202718Y-171812D02*
X216434D01*
X202464Y-171558D02*
X216434D01*
X202464Y-171304D02*
X216180D01*
X202210Y-171050D02*
X216180D01*
X202210Y-170796D02*
X216180D01*
X202210Y-170542D02*
X215926D01*
X201956Y-170288D02*
X215926D01*
X201956Y-170034D02*
X215672D01*
X201702Y-169780D02*
X215672D01*
X201702Y-169526D02*
X215418D01*
X201448Y-169272D02*
X215418D01*
X201448Y-169018D02*
X215164D01*
X201194Y-168764D02*
X215164D01*
X201194Y-168510D02*
X214910D01*
X200940Y-168256D02*
X214910D01*
X200940Y-168002D02*
X214656D01*
X200686Y-167748D02*
X214656D01*
X200686Y-167494D02*
X214402D01*
X191542Y-147428D02*
X205258D01*
X191288Y-147174D02*
X205004D01*
X192558Y-149968D02*
X206528D01*
X192558Y-149714D02*
X206274D01*
X192304Y-149460D02*
X206274D01*
X192304Y-149206D02*
X206020D01*
X192050Y-148952D02*
X206020D01*
X192050Y-148698D02*
X205766D01*
X191796Y-148444D02*
X205766D01*
X191796Y-148190D02*
X205512D01*
X191796Y-147936D02*
X205512D01*
X191542Y-147682D02*
X205258D01*
X200432Y-166986D02*
X214402D01*
X200432Y-166732D02*
X214148D01*
X200178Y-166478D02*
X214148D01*
X200178Y-166224D02*
X213894D01*
X199924Y-165970D02*
X213894D01*
X199924Y-165716D02*
X213640D01*
X199670Y-165462D02*
X213640D01*
X199670Y-165208D02*
X213386D01*
X199416Y-164954D02*
X213386D01*
X199416Y-164700D02*
X213132D01*
X199162Y-164446D02*
X213132D01*
X192812Y-150476D02*
X206528D01*
X192812Y-150222D02*
X206528D01*
X184176Y-131426D02*
X209068D01*
X183922Y-131172D02*
X209322D01*
X183922Y-130918D02*
X209322D01*
X183668Y-130664D02*
X209576D01*
X191034Y-146666D02*
X204750D01*
X191034Y-146412D02*
X204750D01*
X190780Y-146158D02*
X204750D01*
X190780Y-145904D02*
X204496D01*
X183668Y-130410D02*
X209576D01*
X183414Y-130156D02*
X209830D01*
X183414Y-129902D02*
X209830D01*
X187224Y-138030D02*
X205766D01*
X183160Y-129648D02*
X210084D01*
X183160Y-129394D02*
X210084D01*
X182906Y-129140D02*
X210338D01*
X182906Y-128886D02*
X210338D01*
X182906Y-128632D02*
X210592D01*
X182652Y-128378D02*
X210592D01*
X187224Y-138284D02*
X205766D01*
X186970Y-137776D02*
X206020D01*
X186970Y-137522D02*
X206020D01*
X186716Y-137268D02*
X206274D01*
X186716Y-137014D02*
X206274D01*
X186462Y-136760D02*
X206528D01*
X186462Y-136506D02*
X206528D01*
X186208Y-136252D02*
X206782D01*
X186208Y-135998D02*
X206782D01*
X185954Y-135744D02*
X207036D01*
X185954Y-135490D02*
X207036D01*
X185954Y-135236D02*
X207290D01*
X185700Y-134982D02*
X207290D01*
X185700Y-134728D02*
X207544D01*
X185446Y-134474D02*
X207544D01*
X185446Y-134220D02*
X207798D01*
X185192Y-133966D02*
X207798D01*
X185192Y-133712D02*
X208052D01*
X184938Y-133458D02*
X208052D01*
X184938Y-133204D02*
X208306D01*
X184684Y-132950D02*
X208306D01*
X184684Y-132696D02*
X208560D01*
X184430Y-132442D02*
X208560D01*
X184430Y-132188D02*
X208814D01*
X184430Y-131934D02*
X208814D01*
X184176Y-131680D02*
X209068D01*
X190526Y-145650D02*
X204496D01*
X190526Y-145396D02*
X204242D01*
X190272Y-145142D02*
X204242D01*
X190272Y-144888D02*
X203988D01*
X190272Y-144634D02*
X203988D01*
X190018Y-144380D02*
X203734D01*
X190018Y-144126D02*
X203734D01*
X189764Y-143872D02*
X203480D01*
X189764Y-143618D02*
X203480D01*
X189510Y-143364D02*
X203226D01*
X189510Y-143110D02*
X203226D01*
X189256Y-142856D02*
X203480D01*
X189256Y-142602D02*
X203480D01*
X189002Y-142348D02*
X203734D01*
X189002Y-142094D02*
X203734D01*
X188748Y-141840D02*
X203988D01*
X188748Y-141586D02*
X203988D01*
X188748Y-141332D02*
X204242D01*
X188494Y-141078D02*
X204242D01*
X188494Y-140824D02*
X204496D01*
X188240Y-140570D02*
X204496D01*
X188240Y-140316D02*
X204750D01*
X187986Y-140062D02*
X204750D01*
X187986Y-139808D02*
X205004D01*
X187732Y-139554D02*
X205004D01*
X187732Y-139300D02*
X205258D01*
X187478Y-139046D02*
X205258D01*
X187478Y-138792D02*
X205512D01*
X187224Y-138538D02*
X205512D01*
X201194Y-118472D02*
X215418D01*
X201194Y-118218D02*
X215672D01*
X201448Y-117964D02*
X215672D01*
X201448Y-117710D02*
X215926D01*
X201702Y-117456D02*
X215926D01*
X201702Y-117202D02*
X216180D01*
X201956Y-116948D02*
X216180D01*
X201956Y-116694D02*
X216434D01*
X202210Y-116440D02*
X216434D01*
X202210Y-116186D02*
X216688D01*
X202464Y-115932D02*
X216688D01*
X202464Y-115678D02*
X216942D01*
X202718Y-115424D02*
X216942D01*
X202718Y-115170D02*
X217196D01*
X202972Y-114916D02*
X217196D01*
X198908Y-123044D02*
X213132D01*
X202972Y-114662D02*
X217450D01*
X198908Y-123298D02*
X213132D01*
X198908Y-122790D02*
X213386D01*
X199162Y-122536D02*
X213386D01*
X199162Y-122282D02*
X213640D01*
X199416Y-122028D02*
X213640D01*
X199416Y-121774D02*
X213894D01*
X199670Y-121520D02*
X213894D01*
X199670Y-121266D02*
X214148D01*
X199924Y-121012D02*
X214148D01*
X199924Y-120758D02*
X214402D01*
X200178Y-120504D02*
X214402D01*
X200178Y-120250D02*
X214656D01*
X200432Y-119996D02*
X214656D01*
X200432Y-119742D02*
X214910D01*
X200686Y-119488D02*
X214910D01*
X200686Y-119234D02*
X215164D01*
X200940Y-118980D02*
X215164D01*
X200940Y-118726D02*
X215418D01*
X377216Y-146920D02*
X396266D01*
X313716Y-106280D02*
X314986D01*
X319050D02*
X342926D01*
X331496Y-146920D02*
X347752D01*
X207036Y-106280D02*
X221514D01*
X233452D02*
X264186D01*
X250978Y-146920D02*
X264186D01*
X250978Y-126600D02*
X264186D01*
X273838Y-85960D02*
X275362D01*
X172492Y-106280D02*
X186462D01*
X181890Y-126600D02*
X195606D01*
X395758Y-131426D02*
X410236D01*
X395758Y-131172D02*
X410236D01*
X396012Y-130918D02*
X410490D01*
X376708Y-146666D02*
X397028D01*
X376200Y-146412D02*
X397536D01*
X375946Y-146158D02*
X398044D01*
X387630Y-136506D02*
X407950D01*
X388646Y-136252D02*
X408204D01*
X389408Y-135998D02*
X408204D01*
X390170Y-135744D02*
X408458D01*
X390678Y-135490D02*
X408458D01*
X391186Y-135236D02*
X408712D01*
X391694Y-134982D02*
X408712D01*
X392202Y-134728D02*
X408966D01*
X392456Y-134474D02*
X408966D01*
X392964Y-134220D02*
X409220D01*
X393218Y-133966D02*
X409220D01*
X393472Y-133712D02*
X409474D01*
X393980Y-133458D02*
X409474D01*
X394234Y-133204D02*
X409474D01*
X394488Y-132950D02*
X409728D01*
X394742Y-132696D02*
X409728D01*
X394996Y-132442D02*
X409982D01*
X394996Y-132188D02*
X409982D01*
X395250Y-131934D02*
X409982D01*
X395504Y-131680D02*
X410236D01*
X375438Y-145904D02*
X398552D01*
X374930Y-145650D02*
X399060D01*
X374676Y-145396D02*
X399314D01*
X374168Y-145142D02*
X399822D01*
X373914Y-144888D02*
X400076D01*
X373660Y-144634D02*
X400584D01*
X373152Y-144380D02*
X400838D01*
X372898Y-144126D02*
X401346D01*
X394996Y-113900D02*
X409982D01*
X394742Y-113646D02*
X409728D01*
X394488Y-113392D02*
X409728D01*
X394234Y-113138D02*
X409728D01*
X393980Y-112884D02*
X409474D01*
X393726Y-112630D02*
X409474D01*
X393218Y-112376D02*
X409220D01*
X392964Y-112122D02*
X409220D01*
X392710Y-111868D02*
X408966D01*
X392202Y-111614D02*
X408966D01*
X391948Y-111360D02*
X408712D01*
X391440Y-111106D02*
X408712D01*
X390932Y-110852D02*
X408712D01*
X390424Y-110598D02*
X408458D01*
X389662Y-110344D02*
X408204D01*
X388900Y-110090D02*
X408204D01*
X387630Y-109836D02*
X407950D01*
X396012Y-115424D02*
X410490D01*
X395758Y-115170D02*
X410236D01*
X395758Y-114916D02*
X410236D01*
X395504Y-114662D02*
X410236D01*
X395250Y-114408D02*
X409982D01*
X394996Y-114154D02*
X409982D01*
X373660Y-101708D02*
X400838D01*
X373914Y-101454D02*
X400330D01*
X374422Y-101200D02*
X400076D01*
X374676Y-100946D02*
X399568D01*
X375184Y-100692D02*
X399314D01*
X375438Y-100438D02*
X398806D01*
X375946Y-100184D02*
X398298D01*
X376454Y-99930D02*
X397790D01*
X376962Y-99676D02*
X397282D01*
X377470Y-99422D02*
X396774D01*
X377978Y-99168D02*
X396266D01*
X330988Y-147428D02*
X347498D01*
X331242Y-147174D02*
X347498D01*
X327940Y-150222D02*
X345720D01*
X328194Y-149968D02*
X345974D01*
X328702Y-149714D02*
X346228D01*
X328956Y-149460D02*
X346228D01*
X329210Y-149206D02*
X346482D01*
X329464Y-148952D02*
X346482D01*
X329718Y-148698D02*
X346736D01*
X329972Y-148444D02*
X346736D01*
X330226Y-148190D02*
X346990D01*
X330480Y-147936D02*
X346990D01*
X330734Y-147682D02*
X347244D01*
X312700Y-166986D02*
X315748D01*
X309144Y-166732D02*
X319050D01*
X307366Y-166478D02*
X320828D01*
X306096Y-166224D02*
X322352D01*
X304826Y-165970D02*
X323368D01*
X303810Y-165716D02*
X324384D01*
X302794Y-165462D02*
X325400D01*
X302032Y-165208D02*
X326162D01*
X301270Y-164954D02*
X327178D01*
X300508Y-164700D02*
X327686D01*
X299746Y-164446D02*
X328448D01*
X299238Y-164192D02*
X329210D01*
X298476Y-163938D02*
X329718D01*
X297968Y-163684D02*
X330226D01*
X297460Y-163430D02*
X330988D01*
X296952Y-163176D02*
X331496D01*
X296444Y-162922D02*
X332004D01*
X295936Y-162668D02*
X332512D01*
X295428Y-162414D02*
X332766D01*
X294920Y-162160D02*
X333274D01*
X294412Y-161906D02*
X333782D01*
X294158Y-161652D02*
X334290D01*
X293650Y-161398D02*
X334544D01*
X293396Y-161144D02*
X335052D01*
X292888Y-160890D02*
X335306D01*
X292380Y-160636D02*
X335814D01*
X292126Y-160382D02*
X336068D01*
X291872Y-160128D02*
X336576D01*
X291364Y-159874D02*
X336830D01*
X291110Y-159620D02*
X337084D01*
X290856Y-159366D02*
X337592D01*
X290348Y-159112D02*
X337846D01*
X290094Y-158858D02*
X338100D01*
X289586Y-158350D02*
X338862D01*
X289078Y-158096D02*
X339116D01*
X288824Y-157842D02*
X339370D01*
X288570Y-157588D02*
X339624D01*
X288316Y-157334D02*
X339878D01*
X288062Y-157080D02*
X340132D01*
X287808Y-156826D02*
X340386D01*
X287554Y-156572D02*
X340640D01*
X287300Y-156318D02*
X340894D01*
X287046Y-156064D02*
X341148D01*
X286792Y-155810D02*
X341402D01*
X286538Y-155556D02*
X341656D01*
X286284Y-155302D02*
X341910D01*
X286030Y-155048D02*
X342164D01*
X285776Y-154794D02*
X342418D01*
X285776Y-154540D02*
X310668D01*
X317526D02*
X342672D01*
X285522Y-154286D02*
X309398D01*
X319050D02*
X342926D01*
X285268Y-154032D02*
X308128D01*
X320066D02*
X342926D01*
X285014Y-153778D02*
X307366D01*
X321082D02*
X343180D01*
X284760Y-153524D02*
X306604D01*
X321844D02*
X343434D01*
X284506Y-153270D02*
X305842D01*
X322352D02*
X343688D01*
X284506Y-153016D02*
X305080D01*
X323114D02*
X343942D01*
X323622Y-152762D02*
X343942D01*
X324130Y-152508D02*
X344196D01*
X324638Y-152254D02*
X344450D01*
X325146Y-152000D02*
X344704D01*
X325654Y-151746D02*
X344704D01*
X326162Y-151492D02*
X344958D01*
X326416Y-151238D02*
X345212D01*
X326924Y-150984D02*
X345212D01*
X327178Y-150730D02*
X345466D01*
X327686Y-150476D02*
X345720D01*
X289840Y-158604D02*
X338608D01*
X331750Y-146666D02*
X347752D01*
X332004Y-146412D02*
X347752D01*
X332258Y-146158D02*
X348006D01*
X332258Y-145904D02*
X348006D01*
X332512Y-145650D02*
X348260D01*
X332766Y-145396D02*
X348260D01*
X333020Y-145142D02*
X348514D01*
X333020Y-144888D02*
X348514D01*
X333274Y-144634D02*
X348768D01*
X333528Y-144380D02*
X348768D01*
X333528Y-144126D02*
X348768D01*
X333782Y-143872D02*
X349022D01*
X334036Y-143618D02*
X349022D01*
X334036Y-143364D02*
X349022D01*
X334290Y-143110D02*
X349276D01*
X334290Y-142856D02*
X349276D01*
X334544Y-142602D02*
X349276D01*
X334798Y-142348D02*
X349530D01*
X334798Y-142094D02*
X349530D01*
X335052Y-141840D02*
X349530D01*
X335052Y-141586D02*
X349784D01*
X331750Y-113900D02*
X347752D01*
X331496Y-113646D02*
X347752D01*
X326924Y-109582D02*
X345212D01*
X326670Y-109328D02*
X345212D01*
X326162Y-109074D02*
X344958D01*
X325654Y-108820D02*
X344704D01*
X325400Y-108566D02*
X344704D01*
X324892Y-108312D02*
X344450D01*
X324384Y-108058D02*
X344196D01*
X323876Y-107804D02*
X344196D01*
X313208Y-107550D02*
X314732D01*
X323114D02*
X343942D01*
X313462Y-107296D02*
X314732D01*
X322606D02*
X343688D01*
X313462Y-107042D02*
X314732D01*
X321844D02*
X343434D01*
X313462Y-106788D02*
X314986D01*
X321082D02*
X343180D01*
X313716Y-106534D02*
X314986D01*
X320320D02*
X343180D01*
X331242Y-113392D02*
X347498D01*
X289332Y-113138D02*
X295428D01*
X330988D02*
X347498D01*
X288316Y-112884D02*
X296444D01*
X330988D02*
X347244D01*
X287554Y-112630D02*
X297206D01*
X330734D02*
X347244D01*
X287046Y-112376D02*
X297714D01*
X330480D02*
X346990D01*
X294158Y-112122D02*
X298222D01*
X330226D02*
X346736D01*
X329972Y-111868D02*
X346736D01*
X329464Y-111614D02*
X346482D01*
X329210Y-111360D02*
X346482D01*
X328956Y-111106D02*
X346228D01*
X328702Y-110852D02*
X346228D01*
X328448Y-110598D02*
X345974D01*
X327940Y-110344D02*
X345720D01*
X327686Y-110090D02*
X345720D01*
X327432Y-109836D02*
X345466D01*
X335052Y-118726D02*
X349530D01*
X334798Y-118472D02*
X349530D01*
X334798Y-118218D02*
X349530D01*
X334544Y-117964D02*
X349530D01*
X334544Y-117710D02*
X349276D01*
X334290Y-117456D02*
X349276D01*
X334036Y-117202D02*
X349022D01*
X334036Y-116948D02*
X349022D01*
X333782Y-116694D02*
X349022D01*
X333782Y-116440D02*
X348768D01*
X333528Y-116186D02*
X348768D01*
X333274Y-115932D02*
X348768D01*
X333274Y-115678D02*
X348514D01*
X333020Y-115424D02*
X348514D01*
X332766Y-115170D02*
X348260D01*
X332512Y-114916D02*
X348260D01*
X332512Y-114662D02*
X348006D01*
X332258Y-114408D02*
X348006D01*
X332004Y-114154D02*
X348006D01*
X335052Y-118980D02*
X349784D01*
X313970Y-105264D02*
X341910D01*
X313970Y-105010D02*
X341656D01*
X314224Y-104756D02*
X341402D01*
X314224Y-104502D02*
X341148D01*
X314224Y-104248D02*
X340894D01*
X314224Y-103994D02*
X340640D01*
X314478Y-103740D02*
X340386D01*
X314478Y-103486D02*
X340132D01*
X314478Y-103232D02*
X339878D01*
X314478Y-102978D02*
X339624D01*
X314478Y-102724D02*
X339370D01*
X314478Y-102470D02*
X339116D01*
X314478Y-102216D02*
X338862D01*
X314732Y-101962D02*
X338608D01*
X314732Y-101708D02*
X338100D01*
X314732Y-101454D02*
X337846D01*
X314732Y-101200D02*
X337592D01*
X313716Y-106026D02*
X315240D01*
X317780D02*
X342672D01*
X313970Y-105772D02*
X342418D01*
X313970Y-105518D02*
X342164D01*
X314224Y-95104D02*
X325654D01*
X314224Y-94850D02*
X324638D01*
X313970Y-94596D02*
X323622D01*
X313970Y-94342D02*
X322352D01*
X313970Y-94088D02*
X321082D01*
X313970Y-93834D02*
X319304D01*
X313716Y-93580D02*
X316510D01*
X313716Y-93326D02*
X314986D01*
X313716Y-93072D02*
X314986D01*
X313462Y-92818D02*
X314986D01*
X313462Y-92564D02*
X314732D01*
X313462Y-92310D02*
X314732D01*
X313208Y-92056D02*
X314732D01*
X293904Y-88500D02*
X298476D01*
X287046Y-88246D02*
X297968D01*
X287554Y-87992D02*
X297206D01*
X288316Y-87738D02*
X296698D01*
X289332Y-87484D02*
X295682D01*
X290856Y-87230D02*
X294412D01*
X314732Y-100946D02*
X337338D01*
X314732Y-100692D02*
X336830D01*
X314732Y-100438D02*
X336576D01*
X314732Y-100184D02*
X336322D01*
X314732Y-99930D02*
X335814D01*
X314732Y-99676D02*
X335560D01*
X314732Y-99422D02*
X335052D01*
X314732Y-99168D02*
X334544D01*
X314732Y-98914D02*
X334290D01*
X314732Y-98660D02*
X333782D01*
X314732Y-98406D02*
X333274D01*
X314732Y-98152D02*
X333020D01*
X314732Y-97898D02*
X332512D01*
X314732Y-97644D02*
X332004D01*
X314478Y-97390D02*
X331496D01*
X314478Y-97136D02*
X330988D01*
X314478Y-96882D02*
X330480D01*
X314478Y-96628D02*
X329718D01*
X314478Y-96374D02*
X329210D01*
X314478Y-96120D02*
X328448D01*
X314478Y-95866D02*
X327940D01*
X314224Y-95612D02*
X327178D01*
X314224Y-95358D02*
X326416D01*
X285522Y-77578D02*
X299746D01*
X286284Y-77324D02*
X298984D01*
X287300Y-77070D02*
X297968D01*
X288570Y-76816D02*
X296698D01*
X290348Y-76562D02*
X295174D01*
X250978Y-147428D02*
X264186D01*
X250978Y-147174D02*
X264186D01*
X250978Y-147936D02*
X264186D01*
X250978Y-147682D02*
X264186D01*
X250978Y-131426D02*
X264186D01*
X250978Y-131172D02*
X264186D01*
X250978Y-130918D02*
X264186D01*
X250978Y-130664D02*
X264186D01*
X250978Y-146666D02*
X264186D01*
X250978Y-146412D02*
X264186D01*
X250978Y-146158D02*
X264186D01*
X250978Y-145904D02*
X264186D01*
X250978Y-130410D02*
X264186D01*
X250978Y-130156D02*
X264186D01*
X250978Y-129902D02*
X264186D01*
X250978Y-138030D02*
X264186D01*
X250978Y-129648D02*
X264186D01*
X250978Y-129394D02*
X264186D01*
X250978Y-129140D02*
X264186D01*
X250978Y-128886D02*
X264186D01*
X250978Y-128632D02*
X264186D01*
X250978Y-128378D02*
X264186D01*
X250978Y-128124D02*
X264186D01*
X250978Y-127870D02*
X264186D01*
X250978Y-127616D02*
X264186D01*
X250978Y-127362D02*
X264186D01*
X250978Y-127108D02*
X264186D01*
X250978Y-126854D02*
X264186D01*
X250978Y-138284D02*
X264186D01*
X250978Y-137776D02*
X264186D01*
X250978Y-137522D02*
X264186D01*
X250978Y-137268D02*
X264186D01*
X250978Y-137014D02*
X264186D01*
X250978Y-136760D02*
X264186D01*
X250978Y-136506D02*
X264186D01*
X250978Y-136252D02*
X264186D01*
X250978Y-135998D02*
X264186D01*
X250978Y-135744D02*
X264186D01*
X250978Y-135490D02*
X264186D01*
X250978Y-135236D02*
X264186D01*
X250978Y-134982D02*
X264186D01*
X250978Y-134728D02*
X264186D01*
X250978Y-134474D02*
X264186D01*
X250978Y-134220D02*
X264186D01*
X250978Y-133966D02*
X264186D01*
X250978Y-133712D02*
X264186D01*
X250978Y-133458D02*
X264186D01*
X250978Y-133204D02*
X264186D01*
X250978Y-132950D02*
X264186D01*
X250978Y-132696D02*
X264186D01*
X250978Y-132442D02*
X264186D01*
X250978Y-132188D02*
X264186D01*
X250978Y-131934D02*
X264186D01*
X250978Y-131680D02*
X264186D01*
X250978Y-145650D02*
X264186D01*
X250978Y-145396D02*
X264186D01*
X250978Y-145142D02*
X264186D01*
X250978Y-144888D02*
X264186D01*
X250978Y-144634D02*
X264186D01*
X250978Y-144380D02*
X264186D01*
X250978Y-144126D02*
X264186D01*
X250978Y-143872D02*
X264186D01*
X250978Y-143618D02*
X264186D01*
X250978Y-143364D02*
X264186D01*
X250978Y-143110D02*
X264186D01*
X250978Y-142856D02*
X264186D01*
X250978Y-142602D02*
X264186D01*
X250978Y-142348D02*
X264186D01*
X250978Y-142094D02*
X264186D01*
X250978Y-141840D02*
X264186D01*
X250978Y-141586D02*
X264186D01*
X250978Y-141332D02*
X264186D01*
X250978Y-141078D02*
X264186D01*
X250978Y-140824D02*
X264186D01*
X250978Y-140570D02*
X264186D01*
X250978Y-140316D02*
X264186D01*
X250978Y-140062D02*
X264186D01*
X250978Y-139808D02*
X264186D01*
X250978Y-139554D02*
X264186D01*
X250978Y-139300D02*
X264186D01*
X250978Y-139046D02*
X264186D01*
X250978Y-138792D02*
X264186D01*
X250978Y-138538D02*
X264186D01*
X274092Y-113900D02*
X275616D01*
X203480Y-113646D02*
X217958D01*
X273838D02*
X275362D01*
X203734Y-113392D02*
X217958D01*
X205512Y-109328D02*
X219990D01*
X233960D02*
X264186D01*
X205766Y-109074D02*
X220244D01*
X233960D02*
X264186D01*
X205766Y-108820D02*
X220244D01*
X233960D02*
X264186D01*
X206020Y-108566D02*
X220498D01*
X233960D02*
X264186D01*
X206020Y-108312D02*
X220498D01*
X233706D02*
X264186D01*
X206274Y-108058D02*
X220752D01*
X233706D02*
X264186D01*
X248184Y-113646D02*
X264186D01*
X206274Y-107804D02*
X220752D01*
X233706D02*
X264186D01*
X206528Y-107550D02*
X221006D01*
X233706D02*
X264186D01*
X206528Y-107296D02*
X221006D01*
X233706D02*
X264186D01*
X206782Y-107042D02*
X221260D01*
X233706D02*
X264186D01*
X206782Y-106788D02*
X221260D01*
X233706D02*
X264186D01*
X207036Y-106534D02*
X221514D01*
X233706D02*
X264186D01*
X247930Y-113392D02*
X264186D01*
X273584D02*
X275108D01*
X203734Y-113138D02*
X218212D01*
X247422D02*
X264186D01*
X273330D02*
X275108D01*
X203988Y-112884D02*
X218212D01*
X247168D02*
X264186D01*
X273330D02*
X274854D01*
X203988Y-112630D02*
X218466D01*
X246914D02*
X264186D01*
X273076D02*
X274600D01*
X203988Y-112376D02*
X218466D01*
X246406D02*
X264186D01*
X272822D02*
X274346D01*
X204242Y-112122D02*
X218720D01*
X246152D02*
X264186D01*
X272822D02*
X274346D01*
X204242Y-111868D02*
X218720D01*
X245644D02*
X264186D01*
X272568D02*
X274092D01*
X204496Y-111614D02*
X218974D01*
X245390D02*
X264186D01*
X272568D02*
X274092D01*
X204496Y-111360D02*
X218974D01*
X244882D02*
X264186D01*
X204750Y-111106D02*
X219228D01*
X244374D02*
X264186D01*
X204750Y-110852D02*
X219228D01*
X243612D02*
X264186D01*
X205004Y-110598D02*
X219482D01*
X243104D02*
X264186D01*
X205004Y-110344D02*
X219482D01*
X242342D02*
X264186D01*
X205258Y-110090D02*
X219736D01*
X241072D02*
X264186D01*
X205258Y-109836D02*
X219736D01*
X233960D02*
X264186D01*
X205512Y-109582D02*
X219990D01*
X250978Y-126346D02*
X264186D01*
X233960Y-109582D02*
X264186D01*
X250978Y-124822D02*
X264186D01*
X250978Y-124568D02*
X264186D01*
X250978Y-124314D02*
X264186D01*
X250978Y-124060D02*
X264186D01*
X250978Y-118726D02*
X264186D01*
X250978Y-118472D02*
X264186D01*
X250978Y-118218D02*
X264186D01*
X250978Y-117964D02*
X264186D01*
X250978Y-117710D02*
X264186D01*
X250978Y-117456D02*
X264186D01*
X250978Y-117202D02*
X264186D01*
X250978Y-116948D02*
X264186D01*
X250724Y-116694D02*
X264186D01*
X250470Y-116440D02*
X264186D01*
X250470Y-116186D02*
X264186D01*
X250216Y-115932D02*
X264186D01*
X249962Y-115678D02*
X264186D01*
X249708Y-115424D02*
X264186D01*
X249708Y-115170D02*
X264186D01*
X249454Y-114916D02*
X264186D01*
X249200Y-114662D02*
X264186D01*
X203226Y-114408D02*
X217450D01*
X248946D02*
X264186D01*
X203226Y-114154D02*
X217704D01*
X248692D02*
X264186D01*
X274092D02*
X275870D01*
X203480Y-113900D02*
X217704D01*
X248438D02*
X264186D01*
X250978Y-123806D02*
X264186D01*
X250978Y-123552D02*
X264186D01*
X250978Y-123298D02*
X264186D01*
X250978Y-123044D02*
X264186D01*
X250978Y-122790D02*
X264186D01*
X250978Y-122536D02*
X264186D01*
X250978Y-122282D02*
X264186D01*
X250978Y-122028D02*
X264186D01*
X250978Y-121774D02*
X264186D01*
X250978Y-121520D02*
X264186D01*
X250978Y-121266D02*
X264186D01*
X250978Y-121012D02*
X264186D01*
X250978Y-120758D02*
X264186D01*
X250978Y-120504D02*
X264186D01*
X250978Y-120250D02*
X264186D01*
X250978Y-119996D02*
X264186D01*
X250978Y-119742D02*
X264186D01*
X250978Y-119488D02*
X264186D01*
X250978Y-119234D02*
X264186D01*
X250978Y-118980D02*
X264186D01*
X250978Y-126092D02*
X264186D01*
X250978Y-125838D02*
X264186D01*
X250978Y-125584D02*
X264186D01*
X250978Y-125330D02*
X264186D01*
X250978Y-125076D02*
X264186D01*
X233452Y-105264D02*
X264186D01*
X207798Y-105010D02*
X222276D01*
X233452D02*
X264186D01*
X207798Y-104756D02*
X222276D01*
X233452D02*
X264186D01*
X208052Y-104502D02*
X222530D01*
X233452D02*
X264186D01*
X208052Y-104248D02*
X222530D01*
X233198D02*
X264186D01*
X208306Y-103994D02*
X222784D01*
X233198D02*
X264186D01*
X208306Y-103740D02*
X222784D01*
X233198D02*
X264186D01*
X208560Y-103486D02*
X223038D01*
X233198D02*
X251232D01*
X251486D02*
X264186D01*
X208560Y-103232D02*
X223038D01*
X233198D02*
X250978D01*
X251486D02*
X264186D01*
X208814Y-102978D02*
X223292D01*
X233198D02*
X250724D01*
X251486D02*
X264186D01*
X208814Y-102724D02*
X223292D01*
X233198D02*
X250470D01*
X251486D02*
X264186D01*
X209068Y-102470D02*
X223546D01*
X233198D02*
X250216D01*
X251486D02*
X264186D01*
X209068Y-102216D02*
X223546D01*
X232944D02*
X249962D01*
X251486D02*
X264186D01*
X209068Y-101962D02*
X223800D01*
X232944D02*
X249708D01*
X251486D02*
X264186D01*
X209322Y-101708D02*
X223800D01*
X232944D02*
X249454D01*
X251486D02*
X264186D01*
X209322Y-101454D02*
X224054D01*
X232944D02*
X249200D01*
X251486D02*
X264186D01*
X209576Y-101200D02*
X224054D01*
X232944D02*
X248692D01*
X251486D02*
X264186D01*
X209576Y-100946D02*
X224308D01*
X207290Y-106026D02*
X221768D01*
X233452D02*
X264186D01*
X207290Y-105772D02*
X221768D01*
X233452D02*
X264186D01*
X207544Y-105518D02*
X222022D01*
X233452D02*
X264186D01*
X207544Y-105264D02*
X222022D01*
X272568Y-87992D02*
X274092D01*
X272568Y-87738D02*
X274092D01*
X272822Y-87484D02*
X274346D01*
X273076Y-87230D02*
X274600D01*
X273076Y-86976D02*
X274600D01*
X273330Y-86722D02*
X274854D01*
X273584Y-86468D02*
X275108D01*
X273584Y-86214D02*
X275108D01*
X251486Y-98660D02*
X264186D01*
X232690D02*
X243612D01*
X232690Y-98406D02*
X242850D01*
X210846Y-98660D02*
X225324D01*
X232436Y-98152D02*
X241834D01*
X232944Y-100946D02*
X248438D01*
X251486D02*
X264186D01*
X209830Y-100692D02*
X224308D01*
X232944D02*
X248184D01*
X251486D02*
X264186D01*
X209830Y-100438D02*
X224562D01*
X232944D02*
X247676D01*
X251486D02*
X264186D01*
X210084Y-100184D02*
X224562D01*
X232690D02*
X247168D01*
X251486D02*
X264186D01*
X210084Y-99930D02*
X224816D01*
X232690D02*
X246660D01*
X251486D02*
X264186D01*
X210338Y-99676D02*
X224816D01*
X232690D02*
X246152D01*
X251486D02*
X264186D01*
X210338Y-99422D02*
X225070D01*
X232690D02*
X245644D01*
X251486D02*
X264186D01*
X210592Y-99168D02*
X225070D01*
X232690D02*
X245136D01*
X251486D02*
X264186D01*
X210592Y-98914D02*
X225324D01*
X232690D02*
X244374D01*
X251486D02*
X264186D01*
X233452Y-97898D02*
X240564D01*
X274092Y-85706D02*
X275616D01*
X182652Y-128124D02*
X196114D01*
X182398Y-127870D02*
X196114D01*
X182398Y-127616D02*
X195860D01*
X182144Y-127362D02*
X195860D01*
X182144Y-127108D02*
X195860D01*
X181890Y-126854D02*
X195606D01*
X172492Y-106534D02*
X186462D01*
X180874Y-124568D02*
X194590D01*
X180874Y-124314D02*
X194590D01*
X180620Y-124060D02*
X194336D01*
X180620Y-123806D02*
X194336D01*
X180366Y-123552D02*
X194082D01*
X180366Y-123298D02*
X194082D01*
X180112Y-123044D02*
X193828D01*
X180112Y-122790D02*
X193828D01*
X180112Y-122536D02*
X193574D01*
X179858Y-122282D02*
X193574D01*
X179858Y-122028D02*
X193574D01*
X179604Y-121774D02*
X193320D01*
X179604Y-121520D02*
X193320D01*
X179350Y-121266D02*
X193066D01*
X179350Y-121012D02*
X193066D01*
X179096Y-120758D02*
X192812D01*
X179096Y-120504D02*
X192812D01*
X181636Y-126346D02*
X195352D01*
X181636Y-126092D02*
X195352D01*
X181382Y-125838D02*
X195098D01*
X181382Y-125584D02*
X195098D01*
X181382Y-125330D02*
X194844D01*
X181128Y-125076D02*
X194844D01*
X181128Y-124822D02*
X194844D01*
X171984Y-105010D02*
X185700D01*
X171730Y-104756D02*
X185700D01*
X171730Y-104502D02*
X185700D01*
X171476Y-104248D02*
X185446D01*
X171476Y-103994D02*
X185446D01*
X171222Y-103740D02*
X185192D01*
X171222Y-103486D02*
X185192D01*
X171222Y-103232D02*
X184938D01*
X170968Y-102978D02*
X184938D01*
X170968Y-102724D02*
X184684D01*
X170714Y-102470D02*
X184684D01*
X170714Y-102216D02*
X184430D01*
X170460Y-101962D02*
X184430D01*
X170460Y-101708D02*
X184430D01*
X170206Y-101454D02*
X184176D01*
X170206Y-101200D02*
X184176D01*
X169952Y-100946D02*
X183922D01*
X172492Y-106026D02*
X186208D01*
X172238Y-105772D02*
X186208D01*
X172238Y-105518D02*
X185954D01*
X171984Y-105264D02*
X185954D01*
X168936Y-98660D02*
X182906D01*
X169952Y-100692D02*
X183922D01*
X169698Y-100438D02*
X183668D01*
X169698Y-100184D02*
X183668D01*
X169698Y-99930D02*
X183414D01*
X169444Y-99676D02*
X183414D01*
X169444Y-99422D02*
X183414D01*
X169190Y-99168D02*
X183160D01*
X169190Y-98914D02*
X183160D01*
X397790Y-126600D02*
X411252D01*
X359944Y-146920D02*
X372644D01*
X359944Y-126600D02*
X373152D01*
X359944Y-85960D02*
X373152D01*
X337338Y-126600D02*
X351308D01*
X302794Y-106280D02*
X304064D01*
X309906Y-85960D02*
X311430D01*
X280696Y-106280D02*
X281966D01*
X277140Y-126600D02*
X290856D01*
X270282Y-106280D02*
X271552D01*
X197130Y-126600D02*
X211608D01*
X396266Y-130664D02*
X410490D01*
X396266Y-130410D02*
X410490D01*
X396520Y-130156D02*
X410490D01*
X396520Y-129902D02*
X410744D01*
X396774Y-129648D02*
X410744D01*
X396774Y-129394D02*
X410744D01*
X397028Y-129140D02*
X410744D01*
X397028Y-128886D02*
X410998D01*
X397282Y-128632D02*
X410998D01*
X397282Y-128378D02*
X410998D01*
X397536Y-128124D02*
X410998D01*
X397536Y-127870D02*
X410998D01*
X397536Y-127616D02*
X410998D01*
X397536Y-127362D02*
X411252D01*
X397790Y-127108D02*
X411252D01*
X397790Y-126854D02*
X411252D01*
X397282Y-117964D02*
X410998D01*
X398044Y-124822D02*
X411506D01*
X398298Y-124568D02*
X411506D01*
X398298Y-124314D02*
X411506D01*
X397536Y-118726D02*
X410998D01*
X397536Y-118472D02*
X410998D01*
X397282Y-118218D02*
X410998D01*
X397282Y-117710D02*
X410998D01*
X397028Y-117456D02*
X410998D01*
X397028Y-117202D02*
X410744D01*
X396774Y-116948D02*
X410744D01*
X396774Y-116694D02*
X410744D01*
X396520Y-116440D02*
X410744D01*
X396520Y-116186D02*
X410490D01*
X396266Y-115932D02*
X410490D01*
X396266Y-115678D02*
X410490D01*
X398298Y-124060D02*
X411506D01*
X398298Y-123806D02*
X411506D01*
X398298Y-123552D02*
X411506D01*
X398298Y-123298D02*
X411506D01*
X398298Y-123044D02*
X411506D01*
X398298Y-122790D02*
X411506D01*
X398298Y-122536D02*
X411506D01*
X398298Y-122282D02*
X411506D01*
X398298Y-122028D02*
X411506D01*
X398044Y-121774D02*
X411506D01*
X398044Y-121520D02*
X411506D01*
X398044Y-121266D02*
X411506D01*
X398044Y-121012D02*
X411506D01*
X398044Y-120758D02*
X411252D01*
X398044Y-120504D02*
X411252D01*
X398044Y-120250D02*
X411252D01*
X397790Y-119996D02*
X411252D01*
X397790Y-119742D02*
X411252D01*
X397790Y-119488D02*
X411252D01*
X397790Y-119234D02*
X411252D01*
X397536Y-118980D02*
X411252D01*
X397790Y-126346D02*
X411252D01*
X398044Y-126092D02*
X411252D01*
X398044Y-125838D02*
X411252D01*
X398044Y-125584D02*
X411252D01*
X398044Y-125330D02*
X411506D01*
X398044Y-125076D02*
X411506D01*
X378994Y-147682D02*
X394234D01*
X378486Y-147428D02*
X394996D01*
X377724Y-147174D02*
X395758D01*
X383058Y-148698D02*
X389916D01*
X381788Y-148444D02*
X391440D01*
X380772Y-148190D02*
X392456D01*
X379756Y-147936D02*
X393472D01*
X379248Y-98660D02*
X394742D01*
X378740Y-98914D02*
X395504D01*
X380010Y-98406D02*
X393980D01*
X381026Y-98152D02*
X393218D01*
X382042Y-97898D02*
X391948D01*
X383566Y-97644D02*
X390678D01*
X359944Y-147428D02*
X372644D01*
X359944Y-147174D02*
X372644D01*
X359944Y-147936D02*
X372644D01*
X359944Y-147682D02*
X372644D01*
X359944Y-131426D02*
X373914D01*
X359944Y-131172D02*
X373660D01*
X359944Y-130918D02*
X373406D01*
X359944Y-146666D02*
X372644D01*
X359944Y-146412D02*
X372644D01*
X359944Y-146158D02*
X372644D01*
X359944Y-130664D02*
X373152D01*
X359944Y-130410D02*
X373152D01*
X359944Y-130156D02*
X373152D01*
X359944Y-129902D02*
X373152D01*
X359944Y-129648D02*
X373152D01*
X359944Y-129394D02*
X373152D01*
X359944Y-129140D02*
X373152D01*
X359944Y-128886D02*
X373152D01*
X359944Y-128632D02*
X373152D01*
X359944Y-128378D02*
X373152D01*
X359944Y-128124D02*
X373152D01*
X359944Y-127870D02*
X373152D01*
X359944Y-127616D02*
X373152D01*
X359944Y-127362D02*
X373152D01*
X359944Y-127108D02*
X373152D01*
X359944Y-126854D02*
X373152D01*
X359944Y-145904D02*
X372644D01*
X359944Y-132950D02*
X375184D01*
X359944Y-132696D02*
X374930D01*
X359944Y-132442D02*
X374676D01*
X359944Y-132188D02*
X374422D01*
X359944Y-131934D02*
X374168D01*
X359944Y-131680D02*
X374168D01*
X359944Y-145650D02*
X372644D01*
X359944Y-145396D02*
X372644D01*
X359944Y-145142D02*
X372644D01*
X359944Y-144888D02*
X372644D01*
X359944Y-144634D02*
X372644D01*
X359944Y-144380D02*
X372644D01*
X359944Y-144126D02*
X372644D01*
X359944Y-113900D02*
X374930D01*
X359944Y-113646D02*
X375184D01*
X359944Y-113392D02*
X375438D01*
X359944Y-121012D02*
X373152D01*
X359944Y-124822D02*
X373152D01*
X359944Y-124568D02*
X373152D01*
X359944Y-124314D02*
X373152D01*
X359944Y-124060D02*
X373152D01*
X359944Y-118726D02*
X373152D01*
X359944Y-118472D02*
X373152D01*
X359944Y-118218D02*
X373152D01*
X359944Y-117964D02*
X373152D01*
X359944Y-117710D02*
X373152D01*
X359944Y-117456D02*
X373152D01*
X359944Y-117202D02*
X373152D01*
X359944Y-116948D02*
X373152D01*
X359944Y-116694D02*
X373152D01*
X359944Y-116440D02*
X373152D01*
X359944Y-116186D02*
X373152D01*
X359944Y-115932D02*
X373152D01*
X359944Y-115678D02*
X373152D01*
X359944Y-115424D02*
X373406D01*
X359944Y-115170D02*
X373660D01*
X359944Y-114916D02*
X373914D01*
X359944Y-114662D02*
X374168D01*
X359944Y-114408D02*
X374422D01*
X359944Y-114154D02*
X374676D01*
X359944Y-123806D02*
X373152D01*
X359944Y-123552D02*
X373152D01*
X359944Y-123298D02*
X373152D01*
X359944Y-123044D02*
X373152D01*
X359944Y-122790D02*
X373152D01*
X359944Y-122536D02*
X373152D01*
X359944Y-122282D02*
X373152D01*
X359944Y-122028D02*
X373152D01*
X359944Y-121774D02*
X373152D01*
X359944Y-121520D02*
X373152D01*
X359944Y-121266D02*
X373152D01*
X359944Y-120758D02*
X373152D01*
X359944Y-120504D02*
X373152D01*
X359944Y-120250D02*
X373152D01*
X359944Y-119996D02*
X373152D01*
X359944Y-119742D02*
X373152D01*
X359944Y-119488D02*
X373152D01*
X359944Y-119234D02*
X373152D01*
X359944Y-118980D02*
X373152D01*
X359944Y-126346D02*
X373152D01*
X359944Y-126092D02*
X373152D01*
X359944Y-125838D02*
X373152D01*
X359944Y-125584D02*
X373152D01*
X359944Y-125330D02*
X373152D01*
X359944Y-125076D02*
X373152D01*
X359944Y-101708D02*
X373152D01*
X359944Y-101454D02*
X373152D01*
X359944Y-101200D02*
X373152D01*
X359944Y-95358D02*
X373152D01*
X359944Y-95104D02*
X373152D01*
X359944Y-94850D02*
X373152D01*
X359944Y-94596D02*
X373152D01*
X359944Y-94342D02*
X373152D01*
X359944Y-93834D02*
X373152D01*
X359944Y-93580D02*
X373152D01*
X359944Y-93326D02*
X373152D01*
X359944Y-93072D02*
X373152D01*
X359944Y-92818D02*
X373152D01*
X359944Y-92564D02*
X373152D01*
X359944Y-92310D02*
X373152D01*
X359944Y-92056D02*
X373152D01*
X359944Y-91802D02*
X373152D01*
X359944Y-91548D02*
X373152D01*
X359944Y-91294D02*
X373152D01*
X359944Y-91040D02*
X373152D01*
X359944Y-90786D02*
X373152D01*
X359944Y-90532D02*
X373152D01*
X359944Y-90278D02*
X373152D01*
X359944Y-90024D02*
X373152D01*
X359944Y-89770D02*
X373152D01*
X359944Y-89516D02*
X373152D01*
X359944Y-94088D02*
X373152D01*
X359944Y-89262D02*
X373152D01*
X359944Y-89008D02*
X373152D01*
X359944Y-88754D02*
X373152D01*
X359944Y-88500D02*
X373152D01*
X359944Y-88246D02*
X373152D01*
X359944Y-87992D02*
X373152D01*
X359944Y-87738D02*
X373152D01*
X359944Y-87484D02*
X373152D01*
X359944Y-87230D02*
X373152D01*
X359944Y-86976D02*
X373152D01*
X359944Y-86722D02*
X373152D01*
X359944Y-86468D02*
X373152D01*
X359944Y-98914D02*
X373152D01*
X359944Y-86214D02*
X373152D01*
X359944Y-100946D02*
X373152D01*
X359944Y-100692D02*
X373152D01*
X359944Y-100438D02*
X373152D01*
X359944Y-100184D02*
X373152D01*
X359944Y-99930D02*
X373152D01*
X359944Y-99676D02*
X373152D01*
X359944Y-99422D02*
X373152D01*
X359944Y-99168D02*
X373152D01*
X359944Y-98660D02*
X373152D01*
X359944Y-98406D02*
X373152D01*
X359944Y-98152D02*
X373152D01*
X359944Y-97898D02*
X373152D01*
X359944Y-97644D02*
X373152D01*
X359944Y-97390D02*
X373152D01*
X359944Y-97136D02*
X373152D01*
X359944Y-96882D02*
X373152D01*
X359944Y-96628D02*
X373152D01*
X359944Y-96374D02*
X373152D01*
X359944Y-96120D02*
X373152D01*
X359944Y-95866D02*
X373152D01*
X359944Y-95612D02*
X373152D01*
X359944Y-85706D02*
X373152D01*
X359944Y-85452D02*
X373152D01*
X359944Y-85198D02*
X373152D01*
X359944Y-84944D02*
X373152D01*
X359944Y-84690D02*
X373152D01*
X359944Y-84436D02*
X373152D01*
X359944Y-84182D02*
X373152D01*
X359944Y-83928D02*
X373152D01*
X359944Y-83674D02*
X373152D01*
X359944Y-83420D02*
X373152D01*
X359944Y-83166D02*
X373152D01*
X359944Y-82912D02*
X373152D01*
X359944Y-82658D02*
X373152D01*
X359944Y-82404D02*
X373152D01*
X359944Y-82150D02*
X373152D01*
X359944Y-81896D02*
X373152D01*
X359944Y-81642D02*
X373152D01*
X359944Y-81388D02*
X373152D01*
X359944Y-81134D02*
X373152D01*
X359944Y-80880D02*
X373152D01*
X359944Y-80626D02*
X373152D01*
X359944Y-80372D02*
X373152D01*
X359944Y-80118D02*
X373152D01*
X359944Y-79864D02*
X373152D01*
X359944Y-79610D02*
X373152D01*
X359944Y-79356D02*
X373152D01*
X359944Y-79102D02*
X373152D01*
X359944Y-78848D02*
X373152D01*
X359944Y-78594D02*
X373152D01*
X359944Y-78340D02*
X373152D01*
X359944Y-78086D02*
X373152D01*
X359944Y-77832D02*
X373152D01*
X359944Y-77578D02*
X373152D01*
X359944Y-77324D02*
X373152D01*
X359944Y-77070D02*
X373152D01*
X359944Y-76816D02*
X373152D01*
X359944Y-76562D02*
X373152D01*
X359944Y-76308D02*
X373152D01*
X359944Y-76054D02*
X373152D01*
X359944Y-75546D02*
X373152D01*
X359944Y-75800D02*
X373152D01*
X337592Y-131426D02*
X351308D01*
X337592Y-131172D02*
X351308D01*
X337592Y-130918D02*
X351308D01*
X337592Y-130664D02*
X351308D01*
X337592Y-130410D02*
X351308D01*
X337592Y-130156D02*
X351308D01*
X337592Y-129902D02*
X351308D01*
X337592Y-129648D02*
X351308D01*
X337592Y-129394D02*
X351308D01*
X337592Y-129140D02*
X351308D01*
X337592Y-128886D02*
X351308D01*
X337592Y-128632D02*
X351308D01*
X337592Y-128378D02*
X351308D01*
X337592Y-132442D02*
X351308D01*
X337592Y-128124D02*
X351308D01*
X337592Y-127870D02*
X351308D01*
X337592Y-127616D02*
X351308D01*
X337592Y-127362D02*
X351308D01*
X337338Y-127108D02*
X351308D01*
X337338Y-126854D02*
X351308D01*
X336322Y-138284D02*
X350546D01*
X336576Y-138030D02*
X350546D01*
X336576Y-137776D02*
X350546D01*
X336576Y-137522D02*
X350800D01*
X336576Y-137268D02*
X350800D01*
X336830Y-137014D02*
X350800D01*
X336830Y-136760D02*
X350800D01*
X336830Y-136506D02*
X350800D01*
X337084Y-136252D02*
X351054D01*
X337084Y-135998D02*
X351054D01*
X337084Y-135744D02*
X351054D01*
X337084Y-135490D02*
X351054D01*
X337084Y-135236D02*
X351054D01*
X337338Y-134982D02*
X351054D01*
X337338Y-134728D02*
X351054D01*
X337338Y-134474D02*
X351054D01*
X337338Y-134220D02*
X351308D01*
X337338Y-133966D02*
X351308D01*
X337338Y-133712D02*
X351308D01*
X337338Y-133458D02*
X351308D01*
X337592Y-133204D02*
X351308D01*
X337592Y-132950D02*
X351308D01*
X337592Y-132696D02*
X351308D01*
X337592Y-132188D02*
X351308D01*
X337592Y-131934D02*
X351308D01*
X337592Y-131680D02*
X351308D01*
X335306Y-141332D02*
X349784D01*
X335306Y-141078D02*
X349784D01*
X335306Y-140824D02*
X350038D01*
X335560Y-140570D02*
X350038D01*
X335560Y-140316D02*
X350038D01*
X335814Y-140062D02*
X350038D01*
X335814Y-139808D02*
X350292D01*
X336068Y-139554D02*
X350292D01*
X336068Y-139300D02*
X350292D01*
X336068Y-139046D02*
X350292D01*
X336322Y-138792D02*
X350546D01*
X336322Y-138538D02*
X350546D01*
X337084Y-124822D02*
X351054D01*
X337084Y-124568D02*
X351054D01*
X337084Y-124314D02*
X351054D01*
X336830Y-124060D02*
X350800D01*
X336830Y-123806D02*
X350800D01*
X336830Y-123552D02*
X350800D01*
X336830Y-123298D02*
X350800D01*
X336576Y-123044D02*
X350800D01*
X336576Y-122790D02*
X350800D01*
X336576Y-122536D02*
X350546D01*
X336322Y-122282D02*
X350546D01*
X336322Y-122028D02*
X350546D01*
X336322Y-121774D02*
X350546D01*
X336068Y-121520D02*
X350292D01*
X336068Y-121266D02*
X350292D01*
X336068Y-121012D02*
X350292D01*
X335814Y-120758D02*
X350292D01*
X335814Y-120504D02*
X350038D01*
X335560Y-120250D02*
X350038D01*
X335560Y-119996D02*
X350038D01*
X335560Y-119742D02*
X350038D01*
X335306Y-119488D02*
X349784D01*
X335306Y-119234D02*
X349784D01*
X337338Y-126346D02*
X351308D01*
X337338Y-126092D02*
X351054D01*
X337338Y-125838D02*
X351054D01*
X337338Y-125584D02*
X351054D01*
X337084Y-125330D02*
X351054D01*
X337084Y-125076D02*
X351054D01*
X309652Y-113900D02*
X311176D01*
X309906Y-113646D02*
X311430D01*
X299746Y-109582D02*
X301778D01*
X312446D02*
X313716D01*
X300254Y-109328D02*
X302032D01*
X312446D02*
X313970D01*
X300508Y-109074D02*
X302286D01*
X312700D02*
X313970D01*
X300762Y-108820D02*
X302286D01*
X312700D02*
X314224D01*
X301016Y-108566D02*
X302540D01*
X312954D02*
X314224D01*
X301270Y-108312D02*
X302794D01*
X312954D02*
X314478D01*
X301270Y-108058D02*
X303048D01*
X313208D02*
X314478D01*
X301524Y-107804D02*
X303302D01*
X313208D02*
X314478D01*
X301778Y-107550D02*
X303302D01*
X302032Y-107296D02*
X303556D01*
X302286Y-107042D02*
X303810D01*
X302286Y-106788D02*
X303810D01*
X302540Y-106534D02*
X304064D01*
X310160Y-113392D02*
X311684D01*
X310160Y-113138D02*
X311684D01*
X310414Y-112884D02*
X311938D01*
X310668Y-112630D02*
X312192D01*
X310668Y-112376D02*
X312192D01*
X310922Y-112122D02*
X312446D01*
X307366Y-116186D02*
X309398D01*
X295428Y-111868D02*
X298730D01*
X311176D02*
X312700D01*
X296190Y-111614D02*
X299238D01*
X311176D02*
X312700D01*
X296952Y-111360D02*
X299746D01*
X311430D02*
X312954D01*
X297460Y-111106D02*
X300000D01*
X311684D02*
X313208D01*
X297968Y-110852D02*
X300254D01*
X311684D02*
X313208D01*
X298476Y-110598D02*
X300508D01*
X311938D02*
X313462D01*
X298730Y-110344D02*
X300762D01*
X311938D02*
X313462D01*
X299238Y-110090D02*
X301270D01*
X312192D02*
X313462D01*
X299492Y-109836D02*
X301524D01*
X312192D02*
X313716D01*
X304064Y-118726D02*
X306350D01*
X304318Y-118472D02*
X306604D01*
X304826Y-118218D02*
X307112D01*
X305080Y-117964D02*
X307366D01*
X305588Y-117710D02*
X307620D01*
X305842Y-117456D02*
X307874D01*
X306096Y-117202D02*
X308128D01*
X306604Y-116948D02*
X308382D01*
X306858Y-116694D02*
X308636D01*
X307112Y-116440D02*
X309144D01*
X307620Y-115932D02*
X309398D01*
X307874Y-115678D02*
X309652D01*
X308382Y-115424D02*
X309906D01*
X308382Y-115170D02*
X310160D01*
X308636Y-114916D02*
X310414D01*
X308890Y-114662D02*
X310668D01*
X309144Y-114408D02*
X310922D01*
X309398Y-114154D02*
X310922D01*
X295174Y-121774D02*
X300508D01*
X296698Y-121520D02*
X301270D01*
X297968Y-121266D02*
X301778D01*
X298984Y-121012D02*
X302286D01*
X299746Y-120758D02*
X303048D01*
X300254Y-120504D02*
X303556D01*
X301016Y-120250D02*
X304064D01*
X301524Y-119996D02*
X304318D01*
X302032Y-119742D02*
X304826D01*
X302540Y-119488D02*
X305080D01*
X303048Y-119234D02*
X305588D01*
X303556Y-118980D02*
X305842D01*
X303302Y-105264D02*
X304572D01*
X303302Y-105010D02*
X304826D01*
X303556Y-104756D02*
X304826D01*
X303556Y-104502D02*
X304826D01*
X303556Y-104248D02*
X305080D01*
X303810Y-103994D02*
X305080D01*
X303810Y-103740D02*
X305080D01*
X303810Y-103486D02*
X305080D01*
X304064Y-103232D02*
X305334D01*
X304064Y-102978D02*
X305334D01*
X304064Y-102724D02*
X305334D01*
X304064Y-102470D02*
X305334D01*
X304064Y-102216D02*
X305334D01*
X304064Y-101962D02*
X305588D01*
X304318Y-101708D02*
X305588D01*
X304318Y-101454D02*
X305588D01*
X304318Y-101200D02*
X305588D01*
X302794Y-106026D02*
X304318D01*
X303048Y-105772D02*
X304318D01*
X303048Y-105518D02*
X304572D01*
X303048Y-95104D02*
X304572D01*
X303048Y-94850D02*
X304572D01*
X302794Y-94596D02*
X304318D01*
X302794Y-94342D02*
X304318D01*
X302540Y-94088D02*
X304064D01*
X302286Y-93834D02*
X304064D01*
X302286Y-93580D02*
X303810D01*
X302032Y-93326D02*
X303556D01*
X301778Y-93072D02*
X303556D01*
X301524Y-92818D02*
X303302D01*
X301270Y-92564D02*
X303048D01*
X301270Y-92310D02*
X303048D01*
X301016Y-92056D02*
X302794D01*
X300762Y-91802D02*
X302540D01*
X313208D02*
X314478D01*
X300508Y-91548D02*
X302286D01*
X313208D02*
X314478D01*
X300000Y-91294D02*
X302032D01*
X312954D02*
X314478D01*
X299746Y-91040D02*
X301778D01*
X312954D02*
X314224D01*
X299492Y-90786D02*
X301524D01*
X312700D02*
X314224D01*
X299238Y-90532D02*
X301270D01*
X312700D02*
X313970D01*
X298730Y-90278D02*
X301016D01*
X312446D02*
X313970D01*
X298476Y-90024D02*
X300762D01*
X312446D02*
X313716D01*
X297968Y-89770D02*
X300508D01*
X312192D02*
X313716D01*
X297460Y-89516D02*
X300000D01*
X312192D02*
X313462D01*
X296952Y-89262D02*
X299746D01*
X311938D02*
X313462D01*
X303556Y-96374D02*
X305080D01*
X296190Y-89008D02*
X299238D01*
X311938D02*
X313462D01*
X295174Y-88754D02*
X298984D01*
X311684D02*
X313208D01*
X311684Y-88500D02*
X312954D01*
X311430Y-88246D02*
X312954D01*
X311176Y-87992D02*
X312700D01*
X311176Y-87738D02*
X312700D01*
X310922Y-87484D02*
X312446D01*
X310668Y-87230D02*
X312192D01*
X310668Y-86976D02*
X312192D01*
X310414Y-86722D02*
X311938D01*
X310160Y-86468D02*
X311684D01*
X309906Y-86214D02*
X311684D01*
X304318Y-98914D02*
X305588D01*
X304318Y-100946D02*
X305588D01*
X304318Y-100692D02*
X305588D01*
X304318Y-100438D02*
X305588D01*
X304318Y-100184D02*
X305588D01*
X304318Y-99930D02*
X305588D01*
X304318Y-99676D02*
X305588D01*
X304318Y-99422D02*
X305588D01*
X304318Y-99168D02*
X305588D01*
X304064Y-98660D02*
X305588D01*
X304064Y-98406D02*
X305588D01*
X304064Y-98152D02*
X305334D01*
X304064Y-97898D02*
X305334D01*
X304064Y-97644D02*
X305334D01*
X303810Y-97390D02*
X305334D01*
X303810Y-97136D02*
X305334D01*
X303810Y-96882D02*
X305334D01*
X303810Y-96628D02*
X305080D01*
X303556Y-96120D02*
X305080D01*
X303556Y-95866D02*
X304826D01*
X303302Y-95612D02*
X304826D01*
X303302Y-95358D02*
X304572D01*
X309652Y-85706D02*
X311176D01*
X309398Y-85452D02*
X310922D01*
X309144Y-85198D02*
X310922D01*
X308636Y-84690D02*
X310414D01*
X308382Y-84436D02*
X310160D01*
X308128Y-84182D02*
X309906D01*
X307874Y-83928D02*
X309652D01*
X307620Y-83674D02*
X309398D01*
X307366Y-83420D02*
X309144D01*
X307112Y-83166D02*
X308890D01*
X306858Y-82912D02*
X308636D01*
X306604Y-82658D02*
X308382D01*
X306096Y-82404D02*
X308128D01*
X305842Y-82150D02*
X307874D01*
X305588Y-81896D02*
X307620D01*
X305080Y-81642D02*
X307366D01*
X304826Y-81388D02*
X306858D01*
X304318Y-81134D02*
X306604D01*
X304064Y-80880D02*
X306350D01*
X303556Y-80626D02*
X305842D01*
X302540Y-80118D02*
X305080D01*
X302032Y-79864D02*
X304826D01*
X301524Y-79610D02*
X304318D01*
X301016Y-79356D02*
X303810D01*
X300254Y-79102D02*
X303302D01*
X299492Y-78848D02*
X302794D01*
X298730Y-78594D02*
X302286D01*
X308890Y-84944D02*
X310668D01*
X297714Y-78340D02*
X301778D01*
X296698Y-78086D02*
X301270D01*
X294920Y-77832D02*
X300508D01*
X303048Y-80372D02*
X305588D01*
X276886Y-131426D02*
X290602D01*
X276886Y-131172D02*
X290602D01*
X276886Y-130918D02*
X290602D01*
X276886Y-130664D02*
X290602D01*
X276886Y-130410D02*
X290602D01*
X276886Y-130156D02*
X290602D01*
X276886Y-129902D02*
X290602D01*
X276886Y-129648D02*
X290602D01*
X276886Y-129394D02*
X290602D01*
X276886Y-129140D02*
X290602D01*
X276886Y-128886D02*
X290602D01*
X276886Y-128632D02*
X290602D01*
X276886Y-128378D02*
X290602D01*
X276886Y-128124D02*
X290856D01*
X276886Y-127870D02*
X290856D01*
X276886Y-127616D02*
X290856D01*
X276886Y-127362D02*
X290856D01*
X277140Y-127108D02*
X290856D01*
X277140Y-126854D02*
X290856D01*
X277648Y-138284D02*
X291872D01*
X277648Y-138030D02*
X291872D01*
X277648Y-137776D02*
X291618D01*
X277648Y-137522D02*
X291618D01*
X277394Y-137268D02*
X291618D01*
X277394Y-137014D02*
X291618D01*
X277394Y-136760D02*
X291364D01*
X277394Y-136506D02*
X291364D01*
X277394Y-136252D02*
X291364D01*
X277394Y-135998D02*
X291364D01*
X277394Y-135744D02*
X291110D01*
X277140Y-135490D02*
X291110D01*
X277140Y-135236D02*
X291110D01*
X277140Y-134982D02*
X291110D01*
X277140Y-134728D02*
X291110D01*
X277140Y-134474D02*
X290856D01*
X277140Y-134220D02*
X290856D01*
X277140Y-133966D02*
X290856D01*
X277140Y-133712D02*
X290856D01*
X277140Y-133458D02*
X290856D01*
X276886Y-133204D02*
X290856D01*
X276886Y-132950D02*
X290856D01*
X276886Y-132696D02*
X290856D01*
X276886Y-132442D02*
X290856D01*
X276886Y-132188D02*
X290602D01*
X276886Y-131934D02*
X290602D01*
X276886Y-131680D02*
X290602D01*
X279172Y-143364D02*
X294158D01*
X279172Y-143110D02*
X293904D01*
X278918Y-142856D02*
X293904D01*
X278918Y-142602D02*
X293650D01*
X278918Y-142348D02*
X293650D01*
X278664Y-142094D02*
X293396D01*
X278664Y-141840D02*
X293396D01*
X278664Y-141586D02*
X293142D01*
X278410Y-141332D02*
X293142D01*
X278410Y-141078D02*
X292888D01*
X278410Y-140824D02*
X292888D01*
X278156Y-140570D02*
X292634D01*
X278156Y-140316D02*
X292634D01*
X278156Y-140062D02*
X292634D01*
X278156Y-139808D02*
X292380D01*
X277902Y-139554D02*
X292380D01*
X277902Y-139300D02*
X292126D01*
X277902Y-139046D02*
X292126D01*
X277902Y-138792D02*
X292126D01*
X277648Y-138538D02*
X291872D01*
X282982Y-109582D02*
X285014D01*
X282728Y-109328D02*
X284506D01*
X282474Y-109074D02*
X284252D01*
X282220Y-108820D02*
X283998D01*
X282220Y-108566D02*
X283744D01*
X281966Y-108312D02*
X283490D01*
X281712Y-108058D02*
X283236D01*
X281458Y-107804D02*
X283236D01*
X281204Y-107550D02*
X282982D01*
X281204Y-107296D02*
X282728D01*
X280950Y-107042D02*
X282474D01*
X280950Y-106788D02*
X282220D01*
X280696Y-106534D02*
X282220D01*
X290602Y-113392D02*
X294158D01*
X286538Y-112122D02*
X290602D01*
X286030Y-111868D02*
X289332D01*
X285522Y-111614D02*
X288570D01*
X285014Y-111360D02*
X287808D01*
X284760Y-111106D02*
X287300D01*
X284506Y-110852D02*
X286792D01*
X284252Y-110598D02*
X286284D01*
X283744Y-110344D02*
X285776D01*
X283490Y-110090D02*
X285522D01*
X283236Y-109836D02*
X285268D01*
X277140Y-124822D02*
X291110D01*
X277394Y-124568D02*
X291364D01*
X277394Y-124314D02*
X291364D01*
X277394Y-124060D02*
X291364D01*
X278664Y-118726D02*
X281204D01*
X278664Y-118472D02*
X280950D01*
X278156Y-118218D02*
X280442D01*
X277902Y-117964D02*
X279934D01*
X277648Y-117710D02*
X279680D01*
X277394Y-117456D02*
X279426D01*
X277140Y-117202D02*
X278918D01*
X276886Y-116948D02*
X278664D01*
X276378Y-116694D02*
X278410D01*
X276124Y-116440D02*
X278156D01*
X275870Y-116186D02*
X277902D01*
X275616Y-115932D02*
X277648D01*
X275616Y-115678D02*
X277140D01*
X275362Y-115424D02*
X276886D01*
X275108Y-115170D02*
X276632D01*
X274854Y-114916D02*
X276632D01*
X274600Y-114662D02*
X276378D01*
X274346Y-114408D02*
X276124D01*
X277394Y-123806D02*
X291364D01*
X277394Y-123552D02*
X291618D01*
X277394Y-123298D02*
X291618D01*
X277902Y-121774D02*
X290094D01*
X277902Y-121520D02*
X288570D01*
X277902Y-121266D02*
X287300D01*
X277902Y-121012D02*
X286284D01*
X278156Y-120758D02*
X285522D01*
X278156Y-120504D02*
X285014D01*
X278156Y-120250D02*
X284252D01*
X278156Y-119996D02*
X283744D01*
X278410Y-119742D02*
X283236D01*
X278410Y-119488D02*
X282728D01*
X278410Y-119234D02*
X281966D01*
X278664Y-118980D02*
X281712D01*
X277140Y-126346D02*
X290856D01*
X277140Y-126092D02*
X290856D01*
X277140Y-125838D02*
X291110D01*
X277140Y-125584D02*
X291110D01*
X277140Y-125330D02*
X291110D01*
X277140Y-125076D02*
X291110D01*
X280188Y-105264D02*
X281458D01*
X279934Y-105010D02*
X281458D01*
X279934Y-104756D02*
X281204D01*
X279934Y-104502D02*
X281204D01*
X279680Y-104248D02*
X281204D01*
X279680Y-103994D02*
X280950D01*
X279680Y-103740D02*
X280950D01*
X279680Y-103486D02*
X280950D01*
X279426Y-103232D02*
X280696D01*
X279426Y-102978D02*
X280696D01*
X279426Y-102724D02*
X280696D01*
X279426Y-102470D02*
X280696D01*
X279426Y-102216D02*
X280696D01*
X279172Y-101962D02*
X280442D01*
X279172Y-101708D02*
X280442D01*
X279172Y-101454D02*
X280442D01*
X279172Y-101200D02*
X280442D01*
Y-106026D02*
X281966D01*
X280442Y-105772D02*
X281712D01*
X280188Y-105518D02*
X281712D01*
X280188Y-95104D02*
X281712D01*
X280442Y-94850D02*
X281712D01*
X280442Y-94596D02*
X281966D01*
X280696Y-94342D02*
X281966D01*
X280696Y-94088D02*
X282220D01*
X280950Y-93834D02*
X282474D01*
X280950Y-93580D02*
X282474D01*
X281204Y-93326D02*
X282728D01*
X281204Y-93072D02*
X282982D01*
X281458Y-92818D02*
X283236D01*
X281712Y-92564D02*
X283236D01*
X281966Y-92310D02*
X283490D01*
X282220Y-92056D02*
X283744D01*
X282474Y-91802D02*
X283998D01*
X282474Y-91548D02*
X284252D01*
X282728Y-91294D02*
X284760D01*
X282982Y-91040D02*
X285014D01*
X283236Y-90786D02*
X285268D01*
X283490Y-90532D02*
X285522D01*
X283998Y-90278D02*
X286030D01*
X284252Y-90024D02*
X286284D01*
X279426Y-98152D02*
X280696D01*
X284506Y-89770D02*
X286792D01*
X284760Y-89516D02*
X287300D01*
X285268Y-89262D02*
X287808D01*
X285522Y-89008D02*
X288570D01*
X286030Y-88754D02*
X289332D01*
X286538Y-88500D02*
X290856D01*
X279172Y-98660D02*
X280442D01*
X279172Y-98914D02*
X280442D01*
X279426Y-98406D02*
X280696D01*
X279172Y-100946D02*
X280442D01*
X279172Y-100692D02*
X280442D01*
X279172Y-100438D02*
X280442D01*
X279172Y-100184D02*
X280442D01*
X279172Y-99930D02*
X280442D01*
X279172Y-99676D02*
X280442D01*
X279172Y-99422D02*
X280442D01*
X279172Y-99168D02*
X280442D01*
X279426Y-97898D02*
X280696D01*
X279426Y-97644D02*
X280696D01*
X279426Y-97390D02*
X280696D01*
X279680Y-97136D02*
X280950D01*
X279680Y-96882D02*
X280950D01*
X279680Y-96628D02*
X280950D01*
X279680Y-96374D02*
X281204D01*
X279934Y-96120D02*
X281204D01*
X279934Y-95866D02*
X281204D01*
X279934Y-95612D02*
X281458D01*
X280188Y-95358D02*
X281458D01*
X274346Y-85452D02*
X275870D01*
X274346Y-85198D02*
X276124D01*
X274600Y-84944D02*
X276378D01*
X274854Y-84690D02*
X276632D01*
X275108Y-84436D02*
X276886D01*
X275362Y-84182D02*
X276886D01*
X275616Y-83928D02*
X277394D01*
X275870Y-83674D02*
X277648D01*
X275870Y-83420D02*
X277902D01*
X276124Y-83166D02*
X278156D01*
X276632Y-82912D02*
X278410D01*
X276886Y-82658D02*
X278664D01*
X277140Y-82404D02*
X279172D01*
X277394Y-82150D02*
X279426D01*
X277648Y-81896D02*
X279680D01*
X277902Y-81642D02*
X280188D01*
X278156Y-81388D02*
X280442D01*
X278664Y-81134D02*
X280950D01*
X278918Y-80880D02*
X281204D01*
X279426Y-80626D02*
X281712D01*
X280188Y-80118D02*
X282728D01*
X280442Y-79864D02*
X283236D01*
X280950Y-79610D02*
X283744D01*
X281204Y-79356D02*
X284252D01*
X281712Y-79102D02*
X285014D01*
X282474Y-78848D02*
X285522D01*
X282982Y-78594D02*
X286538D01*
X283490Y-78340D02*
X287554D01*
X283998Y-78086D02*
X288570D01*
X284760Y-77832D02*
X290348D01*
X279680Y-80372D02*
X282220D01*
X271298Y-109328D02*
X272822D01*
X271298Y-109074D02*
X272568D01*
X271044Y-108820D02*
X272568D01*
X271044Y-108566D02*
X272314D01*
X270790Y-108312D02*
X272314D01*
X270790Y-108058D02*
X272060D01*
X270790Y-107804D02*
X272060D01*
X270536Y-107550D02*
X272060D01*
X270536Y-107296D02*
X271806D01*
X270536Y-107042D02*
X271806D01*
X270282Y-106788D02*
X271552D01*
X270282Y-106534D02*
X271552D01*
X272314Y-111360D02*
X273838D01*
X272060Y-111106D02*
X273584D01*
X272060Y-110852D02*
X273584D01*
X271806Y-110598D02*
X273330D01*
X271806Y-110344D02*
X273330D01*
X271552Y-110090D02*
X273076D01*
X271552Y-109836D02*
X273076D01*
X271552Y-109582D02*
X272822D01*
X270028Y-105264D02*
X271298D01*
X269774Y-105010D02*
X271044D01*
X269774Y-104756D02*
X271044D01*
X269774Y-104502D02*
X271044D01*
X269774Y-104248D02*
X271044D01*
X269774Y-103994D02*
X271044D01*
X269520Y-103740D02*
X270790D01*
X269520Y-103486D02*
X270790D01*
X269520Y-103232D02*
X270790D01*
X269520Y-102978D02*
X270790D01*
X269520Y-102724D02*
X270790D01*
X269520Y-102470D02*
X270790D01*
X269266Y-102216D02*
X270536D01*
X269266Y-101962D02*
X270536D01*
X269266Y-101708D02*
X270536D01*
X269266Y-101454D02*
X270536D01*
X269266Y-101200D02*
X270536D01*
X270028Y-106026D02*
X271298D01*
X270028Y-105772D02*
X271298D01*
X270028Y-105518D02*
X271298D01*
X269774Y-95104D02*
X271044D01*
X269774Y-94850D02*
X271044D01*
X269774Y-94596D02*
X271044D01*
X270028Y-94342D02*
X271298D01*
X270028Y-94088D02*
X271298D01*
X270028Y-93834D02*
X271298D01*
X270028Y-93580D02*
X271298D01*
X270282Y-93326D02*
X271552D01*
X270282Y-93072D02*
X271552D01*
X270282Y-92818D02*
X271552D01*
X270282Y-92564D02*
X271806D01*
X270536Y-92310D02*
X271806D01*
X270536Y-92056D02*
X272060D01*
X270790Y-91802D02*
X272060D01*
X270790Y-91548D02*
X272060D01*
X270790Y-91294D02*
X272314D01*
X271044Y-91040D02*
X272314D01*
X271044Y-90786D02*
X272568D01*
X271298Y-90532D02*
X272568D01*
X271298Y-90278D02*
X272822D01*
X271552Y-90024D02*
X272822D01*
X271552Y-89770D02*
X273076D01*
X271552Y-89516D02*
X273076D01*
X271806Y-89262D02*
X273330D01*
X271806Y-89008D02*
X273330D01*
X272060Y-88754D02*
X273584D01*
X272314Y-88500D02*
X273584D01*
X272314Y-88246D02*
X273838D01*
X269266Y-98660D02*
X270536D01*
X269266Y-98152D02*
X270536D01*
X269266Y-98406D02*
X270536D01*
X269266Y-100946D02*
X270536D01*
X269266Y-100692D02*
X270536D01*
X269266Y-100438D02*
X270536D01*
X269266Y-100184D02*
X270536D01*
X269266Y-99930D02*
X270536D01*
X269266Y-99676D02*
X270536D01*
X269266Y-99422D02*
X270536D01*
X269266Y-99168D02*
X270536D01*
X269266Y-98914D02*
X270536D01*
X269266Y-97898D02*
X270536D01*
X269266Y-97644D02*
X270536D01*
X269266Y-97390D02*
X270536D01*
X269520Y-97136D02*
X270790D01*
X269520Y-96882D02*
X270790D01*
X269520Y-96628D02*
X270790D01*
X269520Y-96374D02*
X270790D01*
X269520Y-96120D02*
X270790D01*
X269520Y-95866D02*
X270790D01*
X269774Y-95612D02*
X271044D01*
X269774Y-95358D02*
X271044D01*
X233960Y-110090D02*
X235484D01*
X236246Y-97644D02*
X237770D01*
X199162Y-164192D02*
X212878D01*
X199162Y-163938D02*
X212878D01*
X198908Y-163684D02*
X212878D01*
X198908Y-163430D02*
X212624D01*
X198654Y-163176D02*
X212624D01*
X198654Y-162922D02*
X212370D01*
X198400Y-162668D02*
X212370D01*
X198400Y-162414D02*
X212116D01*
X198146Y-162160D02*
X212116D01*
X198146Y-161906D02*
X211862D01*
X197892Y-161652D02*
X211862D01*
X197892Y-161398D02*
X211608D01*
X197638Y-161144D02*
X211608D01*
X197638Y-160890D02*
X211354D01*
X197638Y-160636D02*
X211354D01*
X197384Y-160382D02*
X211354D01*
X197384Y-160128D02*
X211100D01*
X197130Y-159874D02*
X211100D01*
X197130Y-159620D02*
X210846D01*
X196876Y-159366D02*
X210846D01*
X196876Y-159112D02*
X210592D01*
X196622Y-158858D02*
X210592D01*
X196622Y-158604D02*
X210338D01*
X196368Y-158350D02*
X210338D01*
X196368Y-158096D02*
X210084D01*
X196114Y-157842D02*
X210084D01*
X196114Y-157588D02*
X209830D01*
X196114Y-157334D02*
X209830D01*
X195860Y-157080D02*
X209830D01*
X195860Y-156826D02*
X209576D01*
X195606Y-156572D02*
X209576D01*
X195606Y-156318D02*
X209322D01*
X195352Y-156064D02*
X209322D01*
X195352Y-155810D02*
X209068D01*
X195098Y-155556D02*
X209068D01*
X195098Y-155302D02*
X208814D01*
X194844Y-155048D02*
X208814D01*
X194844Y-154794D02*
X208560D01*
X194590Y-154540D02*
X208560D01*
X194590Y-154286D02*
X208306D01*
X194590Y-154032D02*
X208306D01*
X194336Y-153778D02*
X208052D01*
X194336Y-153524D02*
X208052D01*
X194082Y-153270D02*
X208052D01*
X194082Y-153016D02*
X207798D01*
X193828Y-152762D02*
X207798D01*
X193828Y-152508D02*
X207544D01*
X193574Y-152254D02*
X207544D01*
X193574Y-152000D02*
X207290D01*
X193320Y-151746D02*
X207290D01*
X193320Y-151492D02*
X207036D01*
X193320Y-151238D02*
X207036D01*
X193066Y-150984D02*
X206782D01*
X193066Y-150730D02*
X206782D01*
X196368Y-128124D02*
X210846D01*
X196622Y-127870D02*
X210846D01*
X196622Y-127616D02*
X211100D01*
X196876Y-127362D02*
X211100D01*
X196876Y-127108D02*
X211100D01*
X197130Y-126854D02*
X211354D01*
X198146Y-124568D02*
X212370D01*
X198400Y-124314D02*
X212624D01*
X198400Y-124060D02*
X212624D01*
X198654Y-123806D02*
X212878D01*
X198654Y-123552D02*
X212878D01*
X197384Y-126346D02*
X211608D01*
X197384Y-126092D02*
X211608D01*
X197638Y-125838D02*
X211862D01*
X197638Y-125584D02*
X211862D01*
X197892Y-125330D02*
X212116D01*
X197892Y-125076D02*
X212116D01*
X198146Y-124822D02*
X212370D01*
X175794Y-113646D02*
X189764D01*
X175794Y-113392D02*
X189510D01*
X174016Y-109328D02*
X187732D01*
X173762Y-109074D02*
X187732D01*
X173762Y-108820D02*
X187478D01*
X173508Y-108566D02*
X187478D01*
X173508Y-108312D02*
X187224D01*
X173254Y-108058D02*
X187224D01*
X173254Y-107804D02*
X186970D01*
X173000Y-107550D02*
X186970D01*
X173000Y-107296D02*
X186716D01*
X172746Y-107042D02*
X186716D01*
X172746Y-106788D02*
X186716D01*
X175540Y-113138D02*
X189510D01*
X175540Y-112884D02*
X189256D01*
X175540Y-112630D02*
X189256D01*
X175286Y-112376D02*
X189002D01*
X175286Y-112122D02*
X189002D01*
X175032Y-111868D02*
X189002D01*
X175032Y-111614D02*
X188748D01*
X174778Y-111360D02*
X188748D01*
X174778Y-111106D02*
X188494D01*
X174524Y-110852D02*
X188494D01*
X174524Y-110598D02*
X188240D01*
X174270Y-110344D02*
X188240D01*
X174270Y-110090D02*
X187986D01*
X174016Y-109836D02*
X187986D01*
X174016Y-109582D02*
X187986D01*
X178080Y-118472D02*
X191796D01*
X178080Y-118218D02*
X191796D01*
X177826Y-117964D02*
X191542D01*
X177826Y-117710D02*
X191542D01*
X177572Y-117456D02*
X191288D01*
X177572Y-117202D02*
X191288D01*
X177318Y-116948D02*
X191288D01*
X177318Y-116694D02*
X191034D01*
X177064Y-116440D02*
X191034D01*
X177064Y-116186D02*
X190780D01*
X177064Y-115932D02*
X190780D01*
X176810Y-115678D02*
X190526D01*
X176810Y-115424D02*
X190526D01*
X176556Y-115170D02*
X190272D01*
X176556Y-114916D02*
X190272D01*
X176302Y-114662D02*
X190272D01*
X176302Y-114408D02*
X190018D01*
X176048Y-114154D02*
X190018D01*
X176048Y-113900D02*
X189764D01*
X178842Y-120250D02*
X192558D01*
X178842Y-119996D02*
X192558D01*
X178588Y-119742D02*
X192558D01*
X178588Y-119488D02*
X192304D01*
X178588Y-119234D02*
X192304D01*
X178334Y-118980D02*
X192050D01*
X178334Y-118726D02*
X192050D01*
M02*
