M48
;Layer_Color=9474304
;FILE_FORMAT=2:5
INCH,LZ
;TYPE=PLATED
T1F00S00C0.00787
T2F00S00C0.01181
T3F00S00C0.02362
T4F00S00C0.03000
T5F00S00C0.03543
T6F00S00C0.03900
T7F00S00C0.04331
T8F00S00C0.11417
%
T01
X-0179134Y-0088751
X-0175197
Y-0084814
X-0179134
X-0179134Y-0013948
Y-0010011
X-0183071
Y-0013948
X-0148622
Y-0010011
X-0145669Y-001198
X-0142717Y-0010011
Y-0013948
X-0159449Y0023847
Y0026997
T02
X-0188Y-00806
X-01772Y-00754
X-018Y-0031
X-01696Y-00302
X-0164
X-016Y-0023
Y-0011
X-0171Y-00172
X-01728Y-00002
X-0178Y-00014
X-01785Y00064
X-01884Y0005203
X-01887Y00231
X-01575Y00109
X-01458Y00004
X-01422Y00196
X-01229Y00192
X-01228Y00239
X-0109252Y0027559
X-01316Y-00114
X-01418Y-00232
X-0124Y-00694
X-0126333Y-0071733
X-0128667Y-0074067
X-01476Y-00958
X-0088Y-00498
X-00824Y-00478
X-00656Y-00414
X-0062Y-00446
X-0042Y-0057
X-00316Y-00618
X-00436Y-0071668
Y-0074968
Y-0078268
X-00412Y-00266
X-0038Y-00206
X-005
X-00528Y-00146
X-0038929Y-0007271
X-0041263Y-0004937
X-00312Y-0003
X-00236Y-00014
X-0028Y00086
X-00376Y00046
X-00452Y00246
X-0044Y00298
X-0056Y0027
X-0069882Y0012795
X-00855Y00131
X-0086Y-0001
X-0085852Y-0013948
X-00708Y-00038
X-00944Y00038
X-00284Y-00266
X-0018Y-00262
X-00052Y-00498
X00032Y-00614
X0005533Y-0063734
X0011333Y-0067133
X0013667Y-0069467
X0016Y-00718
X00092Y-00574
X0032Y-00548
Y-00515
Y-00482
Y-00398
X00256Y-00354
X0027063Y-0031137
Y0001537
X00244Y00042
X0021894Y0007906
X0019561Y0010239
X00196Y0015
X0014894Y0014906
X00104Y0015
X000625Y0015
X000295
X00028Y00246
X000625Y00218
X00384Y002125
Y001795
X00484Y00326
X0047244Y-0106299
X005315Y-0120079
X0088583
X009252Y-0081767
X0100394Y-0082677
X0069882Y-0021654
Y-0015748
X0076772Y0008858
X0102136Y0015579
X0107857
X0113578
X01193
X0058Y0023
X0052Y00298
X0181546Y-00506
X0188746Y-00578
X0191146Y-00742
X0164737Y0057926
X0166332Y0071332
X01112Y00366
X00672Y00666
X00664Y00822
X00404Y0053
X0046Y0047
X0028Y00454
X0024
X002
X0016
X00108Y00454
X00069Y00452
X000295Y00454
X00112Y00502
X00144Y00542
X-00256Y0061
X-0026Y00722
X-00416Y00738
X-00484Y00554
X-00668Y0059
X-00712Y00727
X-00659Y0078
X-00796Y00794
X-00905Y0081
X-00978Y00817
X-00952Y00723
X-00947Y00667
X-00944Y0061
X-00852Y00654
X-0086735Y0033465
X-00928Y00362
X-0044Y00358
X-0032Y003545
X-00284Y00362
X-00328Y00474
X-0082677Y0121063
X-0139764Y011811
Y0115157
X-0151989Y0106411
X-0167323Y0104331
X-0167323Y0109252
X-017126Y0107283
X-0167589Y0089611
X-0159189Y0085611
X-0177189
X-01889Y00457
X-02034
X-02Y00402
X-01448Y00446
X-0124Y0049
X-01313Y00723
T03
X-0176389Y0096411
X-0159589Y0106011
X-01153Y00485
T04
X0084646Y-0110236
X009252
X0100394
X0108268
X0116142
X0124016
X013189
X0139764
X0147638
X0155512
Y-0023622
X0147638
X0139764
X013189
X0124016
X0116142
X0108268
X0100394
X009252
X0084646
T05
X-0216535Y-001698
Y-0006979
X-0114016Y-0010011
X-0110394Y-0098425
X-0120394
X-0130394
X-0100394
X-0104016Y-0010011
X0213583Y0034449
Y0044449
X-01361Y00341
X-01461
T06
X-006075Y-00945
X-005075
X-004075
X-003075
X-002075
X-001075
X000925
X001925
X002925
X003925
X004925
X005925
Y-00045
Y00055
Y00155
X006925
Y00055
Y-00045
X005925Y00945
X004925
X003925
X002925
X001925
X000925
X-000075
X-001075
X-002675
X-003675
X-004675
T07
X-0216535Y0025264
Y0045265
T08
X-0212598Y-0062992
X0212598
Y0062992
X-0212598
M30
