%
M48
M72
T01C0.01181
T02C0.01200
T03C0.01500
T04C0.03500
T05C0.04400
%
T01
X421717Y29062
X442976Y25912
X452425Y30243
X451638Y125125
T02
X136008Y29455
X136008Y41424
X136008Y51424
X199394Y49377
X203190Y57110
X211408Y56324
X213173Y51581
X217757Y62504
X217508Y68924
X218508Y81424
X243308Y82024
X248808Y90524
X258608Y88024
X258808Y82024
X276108Y79524
X276608Y95024
X269108Y95524
X259508Y95424
X253508Y100424
X249508Y100924
X245608Y108024
X236108Y100024
X264108Y115824
X269108Y118824
X269108Y122524
X277108Y118024
X279608Y114524
X284608Y118524
X284608Y122524
X293708Y124324
X293908Y119324
X305808Y114124
X316008Y115424
X291608Y113524
X287108Y95024
X298108Y95024
X322108Y95024
X322108Y83024
X311108Y83524
X308108Y70024
X295108Y61524
X284608Y61524
X272108Y61524
X263108Y61524
X240608Y61524
X228908Y42324
X218291Y34337
X194276Y23156
X257800Y28362
X269477Y39630
X263808Y43280
X284008Y39424
X298466Y41185
X318108Y45024
X336114Y45955
X340008Y51424
X323108Y57524
X330308Y70524
X362008Y70424
X361508Y78924
X370508Y78924
X371008Y87924
X390008Y85924
X392008Y75424
X413008Y71424
X413508Y76424
X412508Y60924
X396608Y58524
X370332Y50949
X364805Y51244
X363864Y34319
X370433Y33518
X356677Y34518
X365520Y15736
X380002Y15673
X394827Y15636
X414482Y19610
X419214Y16067
X409608Y28024
X398596Y28417
X456970Y47524
X474883Y47524
X474883Y32917
X472508Y104624
X425508Y105424
X414008Y109924
X414008Y117924
X401508Y121424
X381508Y127924
X377008Y129424
X376508Y132424
X381008Y135924
X384508Y139524
X382308Y147524
X404808Y147524
X411508Y149424
X411508Y156424
X433998Y165693
X453289Y165536
X452108Y147524
X387508Y164424
X385008Y173424
X365008Y165424
X344108Y156024
X333008Y154424
X324008Y154424
X315108Y154524
X303608Y155024
X303708Y149524
X303008Y145924
X293108Y149524
X292008Y145924
X285608Y142524
X282108Y142524
X275108Y138024
X279608Y130524
X293608Y135024
X309608Y137524
X318008Y134424
X319008Y139424
X329908Y138824
X334608Y139024
X343408Y138824
X346508Y134424
X329808Y145824
X323108Y146024
X344108Y149524
X334008Y160924
X301008Y170924
X290108Y177524
X283108Y178524
X277108Y178524
X269608Y179524
X258108Y173524
X251508Y166424
X265608Y166024
X269608Y156524
X272008Y149924
X267608Y148524
X256508Y156424
X247108Y153024
X247108Y142524
X239608Y140024
X207308Y142524
X207308Y155024
X225108Y164524
X236108Y163524
X225608Y173024
X234608Y174524
X244608Y181524
X257608Y190524
X254608Y196024
X266508Y201424
X269608Y207524
X259808Y217524
X279808Y217524
X289608Y207524
X298946Y216449
X299008Y220924
X335608Y203524
X320108Y201024
X299608Y196024
X283108Y195024
X275108Y195024
X292508Y186924
X289608Y182024
X299608Y184524
X235608Y196524
X227508Y197424
X222608Y196524
X227008Y203424
X224508Y214924
X239808Y217524
X202308Y196524
X210308Y186524
X207308Y177524
X207308Y167524
X179315Y192762
X136008Y126424
X136008Y111424
X247108Y120024
X371508Y118424
X479490Y201717
X407108Y210024
X399608Y210024
X387308Y217524
X344808Y217524
X290808Y28024
X290808Y20524
T03
X305108Y42524
X250608Y42524
T04
X167694Y56264
X167694Y87760
T05
X432740Y210951
X442740Y210951
X452740Y210951
X462740Y210951
X472740Y210951
M30
