G75*
%MOIN*%
%OFA0B0*%
%FSLAX25Y25*%
%IPPOS*%
%LPD*%
%AMOC8*
5,1,8,0,0,1.08239X$1,22.5*
%
%ADD10C,0.00100*%
%ADD11C,0.00000*%
%ADD12C,0.03900*%
%ADD13R,0.05518X0.06502*%
%ADD14R,0.03550X0.03550*%
%ADD15C,0.07800*%
D10*
X0091780Y0019562D02*
X0091780Y0219467D01*
X0091794Y0219705D01*
X0091814Y0219942D01*
X0091839Y0220179D01*
X0091871Y0220416D01*
X0091907Y0220651D01*
X0091950Y0220886D01*
X0091998Y0221119D01*
X0092052Y0221352D01*
X0092112Y0221582D01*
X0092177Y0221812D01*
X0092248Y0222040D01*
X0092324Y0222266D01*
X0092405Y0222490D01*
X0092492Y0222712D01*
X0092584Y0222932D01*
X0092682Y0223149D01*
X0092785Y0223364D01*
X0092893Y0223577D01*
X0093006Y0223787D01*
X0093124Y0223994D01*
X0093247Y0224198D01*
X0093375Y0224399D01*
X0093508Y0224597D01*
X0093645Y0224792D01*
X0093787Y0224984D01*
X0093934Y0225172D01*
X0094085Y0225356D01*
X0094241Y0225536D01*
X0094401Y0225713D01*
X0094565Y0225886D01*
X0094734Y0226055D01*
X0094906Y0226220D01*
X0095082Y0226380D01*
X0095263Y0226536D01*
X0095446Y0226688D01*
X0095634Y0226836D01*
X0095825Y0226978D01*
X0096019Y0227116D01*
X0096217Y0227250D01*
X0096418Y0227378D01*
X0096622Y0227502D01*
X0096828Y0227621D01*
X0097038Y0227734D01*
X0097250Y0227843D01*
X0097465Y0227946D01*
X0097683Y0228044D01*
X0097902Y0228137D01*
X0098124Y0228225D01*
X0098348Y0228307D01*
X0098573Y0228384D01*
X0098801Y0228455D01*
X0099030Y0228521D01*
X0099261Y0228581D01*
X0099493Y0228635D01*
X0099726Y0228684D01*
X0099961Y0228728D01*
X0100196Y0228765D01*
X0100433Y0228797D01*
X0100670Y0228824D01*
X0100907Y0228844D01*
X0101145Y0228859D01*
X0101383Y0228868D01*
X0101622Y0228871D01*
X0101860Y0228868D01*
X0102099Y0228860D01*
X0102098Y0228861D02*
X0476594Y0228861D01*
X0476836Y0228858D01*
X0477077Y0228849D01*
X0477318Y0228835D01*
X0477559Y0228814D01*
X0477799Y0228788D01*
X0478039Y0228756D01*
X0478278Y0228718D01*
X0478515Y0228675D01*
X0478752Y0228625D01*
X0478987Y0228570D01*
X0479221Y0228510D01*
X0479453Y0228443D01*
X0479684Y0228372D01*
X0479913Y0228294D01*
X0480140Y0228211D01*
X0480365Y0228123D01*
X0480588Y0228029D01*
X0480808Y0227930D01*
X0481026Y0227825D01*
X0481241Y0227716D01*
X0481454Y0227601D01*
X0481664Y0227481D01*
X0481870Y0227356D01*
X0482074Y0227226D01*
X0482275Y0227091D01*
X0482472Y0226951D01*
X0482666Y0226807D01*
X0482856Y0226658D01*
X0483042Y0226504D01*
X0483225Y0226346D01*
X0483404Y0226184D01*
X0483579Y0226017D01*
X0483750Y0225846D01*
X0483917Y0225671D01*
X0484079Y0225492D01*
X0484237Y0225309D01*
X0484391Y0225123D01*
X0484540Y0224933D01*
X0484684Y0224739D01*
X0484824Y0224542D01*
X0484959Y0224341D01*
X0485089Y0224137D01*
X0485214Y0223931D01*
X0485334Y0223721D01*
X0485449Y0223508D01*
X0485558Y0223293D01*
X0485663Y0223075D01*
X0485762Y0222855D01*
X0485856Y0222632D01*
X0485944Y0222407D01*
X0486027Y0222180D01*
X0486105Y0221951D01*
X0486176Y0221720D01*
X0486243Y0221488D01*
X0486303Y0221254D01*
X0486358Y0221019D01*
X0486408Y0220782D01*
X0486451Y0220545D01*
X0486489Y0220306D01*
X0486521Y0220066D01*
X0486547Y0219826D01*
X0486568Y0219585D01*
X0486582Y0219344D01*
X0486591Y0219103D01*
X0486594Y0218861D01*
X0486594Y0017955D01*
X0486591Y0017713D01*
X0486582Y0017472D01*
X0486568Y0017231D01*
X0486547Y0016990D01*
X0486521Y0016750D01*
X0486489Y0016510D01*
X0486451Y0016271D01*
X0486408Y0016034D01*
X0486358Y0015797D01*
X0486303Y0015562D01*
X0486243Y0015328D01*
X0486176Y0015096D01*
X0486105Y0014865D01*
X0486027Y0014636D01*
X0485944Y0014409D01*
X0485856Y0014184D01*
X0485762Y0013961D01*
X0485663Y0013741D01*
X0485558Y0013523D01*
X0485449Y0013308D01*
X0485334Y0013095D01*
X0485214Y0012885D01*
X0485089Y0012679D01*
X0484959Y0012475D01*
X0484824Y0012274D01*
X0484684Y0012077D01*
X0484540Y0011883D01*
X0484391Y0011693D01*
X0484237Y0011507D01*
X0484079Y0011324D01*
X0483917Y0011145D01*
X0483750Y0010970D01*
X0483579Y0010799D01*
X0483404Y0010632D01*
X0483225Y0010470D01*
X0483042Y0010312D01*
X0482856Y0010158D01*
X0482666Y0010009D01*
X0482472Y0009865D01*
X0482275Y0009725D01*
X0482074Y0009590D01*
X0481870Y0009460D01*
X0481664Y0009335D01*
X0481454Y0009215D01*
X0481241Y0009100D01*
X0481026Y0008991D01*
X0480808Y0008886D01*
X0480588Y0008787D01*
X0480365Y0008693D01*
X0480140Y0008605D01*
X0479913Y0008522D01*
X0479684Y0008444D01*
X0479453Y0008373D01*
X0479221Y0008306D01*
X0478987Y0008246D01*
X0478752Y0008191D01*
X0478515Y0008141D01*
X0478278Y0008098D01*
X0478039Y0008060D01*
X0477799Y0008028D01*
X0477559Y0008002D01*
X0477318Y0007981D01*
X0477077Y0007967D01*
X0476836Y0007958D01*
X0476594Y0007955D01*
X0395677Y0007562D01*
X0396496Y0007562D01*
X0395677Y0007562D02*
X0212150Y0007562D01*
X0107780Y0007562D01*
X0107441Y0007518D01*
X0107101Y0007482D01*
X0106761Y0007454D01*
X0106419Y0007434D01*
X0106078Y0007423D01*
X0105736Y0007420D01*
X0105394Y0007425D01*
X0105053Y0007439D01*
X0104712Y0007460D01*
X0104371Y0007490D01*
X0104032Y0007528D01*
X0103693Y0007575D01*
X0103356Y0007629D01*
X0103020Y0007692D01*
X0102686Y0007763D01*
X0102353Y0007841D01*
X0102023Y0007928D01*
X0101694Y0008023D01*
X0101368Y0008126D01*
X0101045Y0008236D01*
X0100724Y0008355D01*
X0100407Y0008481D01*
X0100092Y0008614D01*
X0099781Y0008756D01*
X0099473Y0008904D01*
X0099169Y0009060D01*
X0098869Y0009224D01*
X0098573Y0009394D01*
X0098281Y0009572D01*
X0097993Y0009757D01*
X0097710Y0009948D01*
X0097432Y0010147D01*
X0097159Y0010352D01*
X0096890Y0010563D01*
X0096627Y0010781D01*
X0096369Y0011006D01*
X0096117Y0011236D01*
X0095870Y0011473D01*
X0095629Y0011715D01*
X0095394Y0011963D01*
X0095166Y0012217D01*
X0094943Y0012476D01*
X0094726Y0012741D01*
X0094517Y0013010D01*
X0094313Y0013285D01*
X0094117Y0013565D01*
X0093927Y0013849D01*
X0093744Y0014137D01*
X0093568Y0014430D01*
X0093399Y0014728D01*
X0093238Y0015029D01*
X0093083Y0015334D01*
X0092937Y0015642D01*
X0092797Y0015954D01*
X0092666Y0016270D01*
X0092542Y0016588D01*
X0092425Y0016910D01*
X0092317Y0017234D01*
X0092216Y0017560D01*
X0092123Y0017889D01*
X0092039Y0018220D01*
X0091962Y0018553D01*
X0091893Y0018888D01*
X0091833Y0019224D01*
X0091780Y0019562D01*
X0431008Y0029924D02*
X0438966Y0029886D01*
X0431008Y0029924D02*
X0431008Y0122424D01*
X0439008Y0122424D01*
X0439148Y0122421D01*
X0439288Y0122414D01*
X0439428Y0122403D01*
X0439567Y0122388D01*
X0439706Y0122369D01*
X0439844Y0122347D01*
X0439982Y0122320D01*
X0440119Y0122290D01*
X0440255Y0122255D01*
X0440390Y0122218D01*
X0440524Y0122176D01*
X0440656Y0122130D01*
X0440787Y0122081D01*
X0440917Y0122028D01*
X0441046Y0121972D01*
X0441172Y0121912D01*
X0441297Y0121848D01*
X0441420Y0121781D01*
X0441542Y0121711D01*
X0441661Y0121637D01*
X0441778Y0121559D01*
X0441893Y0121479D01*
X0442005Y0121395D01*
X0442115Y0121309D01*
X0442223Y0121219D01*
X0442328Y0121126D01*
X0442430Y0121030D01*
X0442530Y0120932D01*
X0442627Y0120831D01*
X0442721Y0120727D01*
X0442812Y0120620D01*
X0442900Y0120511D01*
X0442985Y0120400D01*
X0443067Y0120286D01*
X0443146Y0120170D01*
X0443221Y0120051D01*
X0443293Y0119931D01*
X0443361Y0119809D01*
X0443427Y0119685D01*
X0443488Y0119559D01*
X0443546Y0119431D01*
X0443601Y0119302D01*
X0443651Y0119171D01*
X0443699Y0119039D01*
X0443742Y0118906D01*
X0443782Y0118771D01*
X0443817Y0118636D01*
X0443849Y0118499D01*
X0443878Y0118362D01*
X0443902Y0118224D01*
X0443922Y0118085D01*
X0443939Y0117946D01*
X0443951Y0117806D01*
X0443960Y0117667D01*
X0443965Y0117526D01*
X0443966Y0117386D01*
X0443966Y0034886D01*
X0443964Y0034746D01*
X0443958Y0034606D01*
X0443948Y0034466D01*
X0443935Y0034326D01*
X0443917Y0034187D01*
X0443895Y0034048D01*
X0443870Y0033911D01*
X0443841Y0033773D01*
X0443808Y0033637D01*
X0443771Y0033502D01*
X0443730Y0033368D01*
X0443685Y0033235D01*
X0443637Y0033103D01*
X0443585Y0032973D01*
X0443530Y0032844D01*
X0443471Y0032717D01*
X0443408Y0032591D01*
X0443342Y0032467D01*
X0443273Y0032346D01*
X0443200Y0032226D01*
X0443123Y0032108D01*
X0443044Y0031993D01*
X0442961Y0031879D01*
X0442875Y0031769D01*
X0442786Y0031660D01*
X0442694Y0031554D01*
X0442599Y0031451D01*
X0442502Y0031350D01*
X0442401Y0031253D01*
X0442298Y0031158D01*
X0442192Y0031066D01*
X0442083Y0030977D01*
X0441973Y0030891D01*
X0441859Y0030808D01*
X0441744Y0030729D01*
X0441626Y0030652D01*
X0441506Y0030579D01*
X0441385Y0030510D01*
X0441261Y0030444D01*
X0441135Y0030381D01*
X0441008Y0030322D01*
X0440879Y0030267D01*
X0440749Y0030215D01*
X0440617Y0030167D01*
X0440484Y0030122D01*
X0440350Y0030081D01*
X0440215Y0030044D01*
X0440079Y0030011D01*
X0439941Y0029982D01*
X0439804Y0029957D01*
X0439665Y0029935D01*
X0439526Y0029917D01*
X0439386Y0029904D01*
X0439246Y0029894D01*
X0439106Y0029888D01*
X0438966Y0029886D01*
D11*
X0165944Y0056264D02*
X0165946Y0056347D01*
X0165952Y0056430D01*
X0165962Y0056513D01*
X0165976Y0056595D01*
X0165993Y0056677D01*
X0166015Y0056757D01*
X0166040Y0056836D01*
X0166069Y0056914D01*
X0166102Y0056991D01*
X0166139Y0057066D01*
X0166178Y0057139D01*
X0166222Y0057210D01*
X0166268Y0057279D01*
X0166318Y0057346D01*
X0166371Y0057410D01*
X0166427Y0057472D01*
X0166486Y0057531D01*
X0166548Y0057587D01*
X0166612Y0057640D01*
X0166679Y0057690D01*
X0166748Y0057736D01*
X0166819Y0057780D01*
X0166892Y0057819D01*
X0166967Y0057856D01*
X0167044Y0057889D01*
X0167122Y0057918D01*
X0167201Y0057943D01*
X0167281Y0057965D01*
X0167363Y0057982D01*
X0167445Y0057996D01*
X0167528Y0058006D01*
X0167611Y0058012D01*
X0167694Y0058014D01*
X0167777Y0058012D01*
X0167860Y0058006D01*
X0167943Y0057996D01*
X0168025Y0057982D01*
X0168107Y0057965D01*
X0168187Y0057943D01*
X0168266Y0057918D01*
X0168344Y0057889D01*
X0168421Y0057856D01*
X0168496Y0057819D01*
X0168569Y0057780D01*
X0168640Y0057736D01*
X0168709Y0057690D01*
X0168776Y0057640D01*
X0168840Y0057587D01*
X0168902Y0057531D01*
X0168961Y0057472D01*
X0169017Y0057410D01*
X0169070Y0057346D01*
X0169120Y0057279D01*
X0169166Y0057210D01*
X0169210Y0057139D01*
X0169249Y0057066D01*
X0169286Y0056991D01*
X0169319Y0056914D01*
X0169348Y0056836D01*
X0169373Y0056757D01*
X0169395Y0056677D01*
X0169412Y0056595D01*
X0169426Y0056513D01*
X0169436Y0056430D01*
X0169442Y0056347D01*
X0169444Y0056264D01*
X0169442Y0056181D01*
X0169436Y0056098D01*
X0169426Y0056015D01*
X0169412Y0055933D01*
X0169395Y0055851D01*
X0169373Y0055771D01*
X0169348Y0055692D01*
X0169319Y0055614D01*
X0169286Y0055537D01*
X0169249Y0055462D01*
X0169210Y0055389D01*
X0169166Y0055318D01*
X0169120Y0055249D01*
X0169070Y0055182D01*
X0169017Y0055118D01*
X0168961Y0055056D01*
X0168902Y0054997D01*
X0168840Y0054941D01*
X0168776Y0054888D01*
X0168709Y0054838D01*
X0168640Y0054792D01*
X0168569Y0054748D01*
X0168496Y0054709D01*
X0168421Y0054672D01*
X0168344Y0054639D01*
X0168266Y0054610D01*
X0168187Y0054585D01*
X0168107Y0054563D01*
X0168025Y0054546D01*
X0167943Y0054532D01*
X0167860Y0054522D01*
X0167777Y0054516D01*
X0167694Y0054514D01*
X0167611Y0054516D01*
X0167528Y0054522D01*
X0167445Y0054532D01*
X0167363Y0054546D01*
X0167281Y0054563D01*
X0167201Y0054585D01*
X0167122Y0054610D01*
X0167044Y0054639D01*
X0166967Y0054672D01*
X0166892Y0054709D01*
X0166819Y0054748D01*
X0166748Y0054792D01*
X0166679Y0054838D01*
X0166612Y0054888D01*
X0166548Y0054941D01*
X0166486Y0054997D01*
X0166427Y0055056D01*
X0166371Y0055118D01*
X0166318Y0055182D01*
X0166268Y0055249D01*
X0166222Y0055318D01*
X0166178Y0055389D01*
X0166139Y0055462D01*
X0166102Y0055537D01*
X0166069Y0055614D01*
X0166040Y0055692D01*
X0166015Y0055771D01*
X0165993Y0055851D01*
X0165976Y0055933D01*
X0165962Y0056015D01*
X0165952Y0056098D01*
X0165946Y0056181D01*
X0165944Y0056264D01*
X0165944Y0087760D02*
X0165946Y0087843D01*
X0165952Y0087926D01*
X0165962Y0088009D01*
X0165976Y0088091D01*
X0165993Y0088173D01*
X0166015Y0088253D01*
X0166040Y0088332D01*
X0166069Y0088410D01*
X0166102Y0088487D01*
X0166139Y0088562D01*
X0166178Y0088635D01*
X0166222Y0088706D01*
X0166268Y0088775D01*
X0166318Y0088842D01*
X0166371Y0088906D01*
X0166427Y0088968D01*
X0166486Y0089027D01*
X0166548Y0089083D01*
X0166612Y0089136D01*
X0166679Y0089186D01*
X0166748Y0089232D01*
X0166819Y0089276D01*
X0166892Y0089315D01*
X0166967Y0089352D01*
X0167044Y0089385D01*
X0167122Y0089414D01*
X0167201Y0089439D01*
X0167281Y0089461D01*
X0167363Y0089478D01*
X0167445Y0089492D01*
X0167528Y0089502D01*
X0167611Y0089508D01*
X0167694Y0089510D01*
X0167777Y0089508D01*
X0167860Y0089502D01*
X0167943Y0089492D01*
X0168025Y0089478D01*
X0168107Y0089461D01*
X0168187Y0089439D01*
X0168266Y0089414D01*
X0168344Y0089385D01*
X0168421Y0089352D01*
X0168496Y0089315D01*
X0168569Y0089276D01*
X0168640Y0089232D01*
X0168709Y0089186D01*
X0168776Y0089136D01*
X0168840Y0089083D01*
X0168902Y0089027D01*
X0168961Y0088968D01*
X0169017Y0088906D01*
X0169070Y0088842D01*
X0169120Y0088775D01*
X0169166Y0088706D01*
X0169210Y0088635D01*
X0169249Y0088562D01*
X0169286Y0088487D01*
X0169319Y0088410D01*
X0169348Y0088332D01*
X0169373Y0088253D01*
X0169395Y0088173D01*
X0169412Y0088091D01*
X0169426Y0088009D01*
X0169436Y0087926D01*
X0169442Y0087843D01*
X0169444Y0087760D01*
X0169442Y0087677D01*
X0169436Y0087594D01*
X0169426Y0087511D01*
X0169412Y0087429D01*
X0169395Y0087347D01*
X0169373Y0087267D01*
X0169348Y0087188D01*
X0169319Y0087110D01*
X0169286Y0087033D01*
X0169249Y0086958D01*
X0169210Y0086885D01*
X0169166Y0086814D01*
X0169120Y0086745D01*
X0169070Y0086678D01*
X0169017Y0086614D01*
X0168961Y0086552D01*
X0168902Y0086493D01*
X0168840Y0086437D01*
X0168776Y0086384D01*
X0168709Y0086334D01*
X0168640Y0086288D01*
X0168569Y0086244D01*
X0168496Y0086205D01*
X0168421Y0086168D01*
X0168344Y0086135D01*
X0168266Y0086106D01*
X0168187Y0086081D01*
X0168107Y0086059D01*
X0168025Y0086042D01*
X0167943Y0086028D01*
X0167860Y0086018D01*
X0167777Y0086012D01*
X0167694Y0086010D01*
X0167611Y0086012D01*
X0167528Y0086018D01*
X0167445Y0086028D01*
X0167363Y0086042D01*
X0167281Y0086059D01*
X0167201Y0086081D01*
X0167122Y0086106D01*
X0167044Y0086135D01*
X0166967Y0086168D01*
X0166892Y0086205D01*
X0166819Y0086244D01*
X0166748Y0086288D01*
X0166679Y0086334D01*
X0166612Y0086384D01*
X0166548Y0086437D01*
X0166486Y0086493D01*
X0166427Y0086552D01*
X0166371Y0086614D01*
X0166318Y0086678D01*
X0166268Y0086745D01*
X0166222Y0086814D01*
X0166178Y0086885D01*
X0166139Y0086958D01*
X0166102Y0087033D01*
X0166069Y0087110D01*
X0166040Y0087188D01*
X0166015Y0087267D01*
X0165993Y0087347D01*
X0165976Y0087429D01*
X0165962Y0087511D01*
X0165952Y0087594D01*
X0165946Y0087677D01*
X0165944Y0087760D01*
D12*
X0167694Y0087760D03*
X0167694Y0056264D03*
D13*
X0127606Y0068325D03*
X0109890Y0068325D03*
X0109890Y0099625D03*
X0127606Y0099625D03*
X0119734Y0126543D03*
X0102017Y0126543D03*
X0102017Y0157842D03*
X0119734Y0157842D03*
X0454150Y0099636D03*
X0471866Y0099636D03*
X0479717Y0126526D03*
X0462000Y0126526D03*
X0462000Y0157825D03*
X0479717Y0157825D03*
X0471866Y0068337D03*
X0454150Y0068337D03*
D14*
X0308445Y0220908D03*
X0302539Y0220908D03*
X0275276Y0220924D03*
X0269370Y0220924D03*
D15*
X0432740Y0214651D02*
X0432740Y0207251D01*
X0442740Y0207251D02*
X0442740Y0214651D01*
X0452740Y0214651D02*
X0452740Y0207251D01*
X0462740Y0207251D02*
X0462740Y0214651D01*
X0472740Y0214651D02*
X0472740Y0207251D01*
M02*
