%FSLAX25Y25*%
%MOIN*%
G70*
G01*
G75*
G04 Layer_Physical_Order=2*
G04 Layer_Color=16711680*
%ADD10R,0.03543X0.03150*%
%ADD11R,0.03543X0.02756*%
%ADD12R,0.02756X0.05118*%
%ADD13R,0.03347X0.02756*%
%ADD14C,0.01969*%
%ADD15C,0.01575*%
%ADD16C,0.01181*%
%ADD17C,0.00984*%
%ADD18C,0.05906*%
%ADD19R,0.05906X0.05906*%
%ADD20C,0.06000*%
%ADD21C,0.02500*%
G36*
X547241Y476802D02*
X551542Y476293D01*
X555790Y475448D01*
X559959Y474272D01*
X564022Y472773D01*
X567956Y470960D01*
X571735Y468843D01*
X575336Y466437D01*
X578737Y463756D01*
X581918Y460815D01*
X584858Y457635D01*
X587539Y454234D01*
X589946Y450632D01*
X592062Y446853D01*
X593875Y442920D01*
X595374Y438857D01*
X596550Y434688D01*
X597395Y430440D01*
X597904Y426139D01*
X598074Y421811D01*
X597904Y417483D01*
X597395Y413182D01*
X596550Y408934D01*
X595374Y404765D01*
X593875Y400702D01*
X592062Y396769D01*
X589946Y392990D01*
X587539Y389388D01*
X584858Y385987D01*
X581918Y382807D01*
X578737Y379867D01*
X575336Y377185D01*
X571735Y374779D01*
X567956Y372662D01*
X564022Y370849D01*
X559959Y369350D01*
X555790Y368175D01*
X551542Y367330D01*
X547241Y366820D01*
X542913Y366650D01*
X538586Y366820D01*
X534284Y367330D01*
X530036Y368175D01*
X525868Y369350D01*
X521804Y370849D01*
X517871Y372662D01*
X514092Y374779D01*
X510491Y377185D01*
X507089Y379867D01*
X503909Y382807D01*
X500969Y385987D01*
X498287Y389388D01*
X495881Y392990D01*
X494381Y395669D01*
X494095D01*
D01*
Y395669D01*
X494095D01*
D01*
D01*
X494094Y395669D01*
Y396180D01*
X493765Y396769D01*
X491952Y400702D01*
X490452Y404765D01*
X489277Y408934D01*
X488432Y413182D01*
X487923Y417483D01*
X487753Y421811D01*
X487923Y426139D01*
X488432Y430440D01*
X489277Y434688D01*
X490452Y438857D01*
X491952Y442920D01*
X493765Y446853D01*
X495881Y450632D01*
X498287Y454234D01*
X500969Y457635D01*
X503909Y460815D01*
X507089Y463756D01*
X510491Y466437D01*
X514092Y468843D01*
X517871Y470960D01*
X521804Y472773D01*
X525868Y474272D01*
X530036Y475448D01*
X534284Y476293D01*
X538586Y476802D01*
X542913Y476972D01*
X547241Y476802D01*
D02*
G37*
%LPC*%
G36*
X504724Y418711D02*
X503692Y418575D01*
X502731Y418177D01*
X501905Y417544D01*
X501272Y416718D01*
X500873Y415756D01*
X500738Y414724D01*
X500873Y413693D01*
X501272Y412731D01*
X501905Y411905D01*
X502731Y411272D01*
X503692Y410873D01*
X504724Y410738D01*
X505756Y410873D01*
X506718Y411272D01*
X507544Y411905D01*
X508177Y412731D01*
X508575Y413693D01*
X508711Y414724D01*
X508575Y415756D01*
X508177Y416718D01*
X507544Y417544D01*
X506718Y418177D01*
X505756Y418575D01*
X504724Y418711D01*
D02*
G37*
G36*
X570669Y412008D02*
X569605D01*
X570031Y411370D01*
X570669Y410944D01*
Y412008D01*
D02*
G37*
G36*
X573702D02*
X572638D01*
Y410944D01*
X573276Y411370D01*
X573702Y412008D01*
D02*
G37*
G36*
X547685Y404932D02*
Y403867D01*
X548749D01*
X548323Y404505D01*
X547685Y404932D01*
D02*
G37*
G36*
X503740Y408677D02*
X500772D01*
Y405709D01*
X503740D01*
Y408677D01*
D02*
G37*
G36*
X508677D02*
X505709D01*
Y405709D01*
X508677D01*
Y408677D01*
D02*
G37*
G36*
X554134Y412402D02*
X553070D01*
X553496Y411764D01*
X554134Y411337D01*
Y412402D01*
D02*
G37*
G36*
X572638Y415040D02*
Y413976D01*
X573702D01*
X573276Y414614D01*
X572638Y415040D01*
D02*
G37*
G36*
X554134Y415434D02*
X553496Y415008D01*
X553070Y414370D01*
X554134D01*
Y415434D01*
D02*
G37*
G36*
X556102D02*
Y414370D01*
X557166D01*
X556740Y415008D01*
X556102Y415434D01*
D02*
G37*
G36*
X557166Y412402D02*
X556102D01*
Y411337D01*
X556740Y411764D01*
X557166Y412402D01*
D02*
G37*
G36*
X544898Y419701D02*
X536992D01*
Y411795D01*
X544898D01*
Y419701D01*
D02*
G37*
G36*
X570669Y415040D02*
X570031Y414614D01*
X569605Y413976D01*
X570669D01*
Y415040D01*
D02*
G37*
G36*
X545717Y404932D02*
X545079Y404505D01*
X544653Y403867D01*
X545717D01*
Y404932D01*
D02*
G37*
G36*
X570669Y392323D02*
X569605D01*
X570031Y391685D01*
X570669Y391259D01*
Y392323D01*
D02*
G37*
G36*
X573702D02*
X572638D01*
Y391259D01*
X573276Y391685D01*
X573702Y392323D01*
D02*
G37*
G36*
X511614Y395356D02*
X510976Y394929D01*
X510550Y394291D01*
X511614D01*
Y395356D01*
D02*
G37*
G36*
X541339Y390010D02*
X539985Y389877D01*
X538683Y389482D01*
X537484Y388840D01*
X536432Y387977D01*
X535569Y386926D01*
X534928Y385726D01*
X534533Y384425D01*
X534400Y383071D01*
X534533Y381717D01*
X534928Y380416D01*
X535569Y379216D01*
X536432Y378164D01*
X537484Y377301D01*
X538683Y376660D01*
X539985Y376265D01*
X541339Y376132D01*
X542692Y376265D01*
X543994Y376660D01*
X545194Y377301D01*
X546245Y378164D01*
X547108Y379216D01*
X547749Y380416D01*
X548144Y381717D01*
X548278Y383071D01*
X548144Y384425D01*
X547749Y385726D01*
X547108Y386926D01*
X546245Y387977D01*
X545194Y388840D01*
X543994Y389482D01*
X542692Y389877D01*
X541339Y390010D01*
D02*
G37*
G36*
X511614Y392323D02*
X510550D01*
X510976Y391685D01*
X511614Y391259D01*
Y392323D01*
D02*
G37*
G36*
X514647D02*
X513583D01*
Y391259D01*
X514221Y391685D01*
X514647Y392323D01*
D02*
G37*
G36*
X513583Y395356D02*
Y394291D01*
X514647D01*
X514221Y394929D01*
X513583Y395356D01*
D02*
G37*
G36*
X508677Y403740D02*
X505709D01*
Y400772D01*
X508677D01*
Y403740D01*
D02*
G37*
G36*
X545717Y401899D02*
X544653D01*
X545079Y401261D01*
X545717Y400835D01*
Y401899D01*
D02*
G37*
G36*
X548749D02*
X547685D01*
Y400835D01*
X548323Y401261D01*
X548749Y401899D01*
D02*
G37*
G36*
X570669Y395356D02*
X570031Y394929D01*
X569605Y394291D01*
X570669D01*
Y395356D01*
D02*
G37*
G36*
X572638D02*
Y394291D01*
X573702D01*
X573276Y394929D01*
X572638Y395356D01*
D02*
G37*
G36*
X503740Y403740D02*
X500772D01*
Y400772D01*
X503740D01*
Y403740D01*
D02*
G37*
G36*
X541142Y451378D02*
X540078D01*
X540504Y450740D01*
X541142Y450314D01*
Y451378D01*
D02*
G37*
G36*
X544174D02*
X543110D01*
Y450314D01*
X543748Y450740D01*
X544174Y451378D01*
D02*
G37*
G36*
X570669D02*
X569605D01*
X570031Y450740D01*
X570669Y450314D01*
Y451378D01*
D02*
G37*
G36*
X514647D02*
X513583D01*
Y450314D01*
X514221Y450740D01*
X514647Y451378D01*
D02*
G37*
G36*
X570669Y434726D02*
X570031Y434299D01*
X569605Y433661D01*
X570669D01*
Y434726D01*
D02*
G37*
G36*
X572638D02*
Y433661D01*
X573702D01*
X573276Y434299D01*
X572638Y434726D01*
D02*
G37*
G36*
X511614Y451378D02*
X510550D01*
X510976Y450740D01*
X511614Y450314D01*
Y451378D01*
D02*
G37*
G36*
X543110Y454411D02*
Y453346D01*
X544174D01*
X543748Y453984D01*
X543110Y454411D01*
D02*
G37*
G36*
X570669D02*
X570031Y453984D01*
X569605Y453346D01*
X570669D01*
Y454411D01*
D02*
G37*
G36*
X572638D02*
Y453346D01*
X573702D01*
X573276Y453984D01*
X572638Y454411D01*
D02*
G37*
G36*
X541142D02*
X540504Y453984D01*
X540078Y453346D01*
X541142D01*
Y454411D01*
D02*
G37*
G36*
X573702Y451378D02*
X572638D01*
Y450314D01*
X573276Y450740D01*
X573702Y451378D01*
D02*
G37*
G36*
X511614Y454411D02*
X510976Y453984D01*
X510550Y453346D01*
X511614D01*
Y454411D01*
D02*
G37*
G36*
X513583D02*
Y453346D01*
X514647D01*
X514221Y453984D01*
X513583Y454411D01*
D02*
G37*
G36*
X504724Y428711D02*
X503692Y428575D01*
X502731Y428177D01*
X501905Y427543D01*
X501272Y426718D01*
X500873Y425756D01*
X500738Y424724D01*
X500873Y423693D01*
X501272Y422731D01*
X501905Y421905D01*
X502731Y421272D01*
X503692Y420873D01*
X504724Y420738D01*
X505756Y420873D01*
X506718Y421272D01*
X507544Y421905D01*
X508177Y422731D01*
X508575Y423693D01*
X508711Y424724D01*
X508575Y425756D01*
X508177Y426718D01*
X507544Y427543D01*
X506718Y428177D01*
X505756Y428575D01*
X504724Y428711D01*
D02*
G37*
G36*
X540945Y429735D02*
X539913Y429599D01*
X538951Y429201D01*
X538126Y428567D01*
X537492Y427741D01*
X537094Y426780D01*
X536958Y425748D01*
X537094Y424716D01*
X537492Y423755D01*
X538126Y422929D01*
X538951Y422295D01*
X539913Y421897D01*
X540945Y421761D01*
X541977Y421897D01*
X542938Y422295D01*
X543764Y422929D01*
X544398Y423755D01*
X544796Y424716D01*
X544932Y425748D01*
X544796Y426780D01*
X544398Y427741D01*
X543764Y428567D01*
X542938Y429201D01*
X541977Y429599D01*
X540945Y429735D01*
D02*
G37*
G36*
X529331Y430512D02*
X528267D01*
X528693Y429874D01*
X529331Y429448D01*
Y430512D01*
D02*
G37*
G36*
X556102Y421340D02*
Y420276D01*
X557166D01*
X556740Y420914D01*
X556102Y421340D01*
D02*
G37*
G36*
X554134Y418307D02*
X553070D01*
X553496Y417669D01*
X554134Y417243D01*
Y418307D01*
D02*
G37*
G36*
X557166D02*
X556102D01*
Y417243D01*
X556740Y417669D01*
X557166Y418307D01*
D02*
G37*
G36*
X554134Y421340D02*
X553496Y420914D01*
X553070Y420276D01*
X554134D01*
Y421340D01*
D02*
G37*
G36*
X540945Y439735D02*
X539913Y439599D01*
X538951Y439201D01*
X538126Y438567D01*
X537492Y437742D01*
X537094Y436780D01*
X536958Y435748D01*
X537094Y434716D01*
X537492Y433755D01*
X538126Y432929D01*
X538951Y432295D01*
X539913Y431897D01*
X540945Y431761D01*
X541977Y431897D01*
X542938Y432295D01*
X543764Y432929D01*
X544398Y433755D01*
X544796Y434716D01*
X544932Y435748D01*
X544796Y436780D01*
X544398Y437742D01*
X543764Y438567D01*
X542938Y439201D01*
X541977Y439599D01*
X540945Y439735D01*
D02*
G37*
G36*
X529331Y433544D02*
X528693Y433118D01*
X528267Y432480D01*
X529331D01*
Y433544D01*
D02*
G37*
G36*
X531299D02*
Y432480D01*
X532363D01*
X531937Y433118D01*
X531299Y433544D01*
D02*
G37*
G36*
X504724Y438711D02*
X503692Y438575D01*
X502731Y438177D01*
X501905Y437543D01*
X501272Y436718D01*
X500873Y435756D01*
X500738Y434724D01*
X500873Y433693D01*
X501272Y432731D01*
X501905Y431905D01*
X502731Y431272D01*
X503692Y430873D01*
X504724Y430738D01*
X505756Y430873D01*
X506718Y431272D01*
X507544Y431905D01*
X508177Y432731D01*
X508575Y433693D01*
X508711Y434724D01*
X508575Y435756D01*
X508177Y436718D01*
X507544Y437543D01*
X506718Y438177D01*
X505756Y438575D01*
X504724Y438711D01*
D02*
G37*
G36*
X532363Y430512D02*
X531299D01*
Y429448D01*
X531937Y429874D01*
X532363Y430512D01*
D02*
G37*
G36*
X570669Y431693D02*
X569605D01*
X570031Y431055D01*
X570669Y430629D01*
Y431693D01*
D02*
G37*
G36*
X573702D02*
X572638D01*
Y430629D01*
X573276Y431055D01*
X573702Y431693D01*
D02*
G37*
%LPD*%
D18*
X504724Y434724D02*
D03*
Y424724D02*
D03*
Y414724D02*
D03*
X540945Y425748D02*
D03*
Y435748D02*
D03*
D19*
X504724Y404724D02*
D03*
X540945Y415748D02*
D03*
D20*
X541339Y383071D02*
D03*
D21*
X546701Y402883D02*
D03*
X512598Y393307D02*
D03*
Y452362D02*
D03*
X542126D02*
D03*
X571654D02*
D03*
Y432677D02*
D03*
Y412992D02*
D03*
Y393307D02*
D03*
X530315Y431496D02*
D03*
X555118Y419291D02*
D03*
Y413386D02*
D03*
M02*
