%FSLAX25Y25*%
%MOIN*%
G70*
G01*
G75*
G04 Layer_Color=65535*
%ADD10R,0.03543X0.03150*%
%ADD11R,0.03543X0.02756*%
%ADD12R,0.02756X0.05118*%
%ADD13R,0.03347X0.02756*%
%ADD14C,0.01969*%
%ADD15C,0.01575*%
%ADD16C,0.01181*%
%ADD17C,0.00984*%
%ADD18C,0.05906*%
%ADD19R,0.05906X0.05906*%
%ADD20C,0.06000*%
%ADD21C,0.02500*%
%ADD22C,0.00787*%
%ADD23C,0.00606*%
D17*
X527461Y425984D02*
G03*
X527461Y425984I-492J0D01*
G01*
D22*
X499724Y399724D02*
X509724D01*
X499724D02*
Y439724D01*
X509724Y399724D02*
Y439724D01*
X499724D02*
X509724D01*
X545945Y410748D02*
Y440748D01*
X535945D02*
X545945D01*
X535945Y410748D02*
Y440748D01*
Y410748D02*
X545945D01*
X530315Y418716D02*
Y420291D01*
X533071Y418716D02*
Y420291D01*
X530118Y402362D02*
Y403937D01*
X532874Y402362D02*
Y403937D01*
X513583Y420669D02*
X525787D01*
X513583Y421850D02*
X525787D01*
X513583Y420669D02*
Y421850D01*
X525787Y420669D02*
Y421850D01*
X529134Y425197D02*
Y429133D01*
X531102D01*
X531758Y428477D01*
Y427165D01*
X531102Y426509D01*
X529134D01*
X530446D02*
X531758Y425197D01*
X535693D02*
X533070D01*
X535693Y427821D01*
Y428477D01*
X535038Y429133D01*
X533726D01*
X533070Y428477D01*
X539388Y402575D02*
X535452D01*
Y404543D01*
X536108Y405199D01*
X537420D01*
X538076Y404543D01*
Y402575D01*
Y403887D02*
X539388Y405199D01*
Y406511D02*
Y407823D01*
Y407166D01*
X535452D01*
X536108Y406511D01*
X554906Y426705D02*
X554250Y427361D01*
X552938D01*
X552282Y426705D01*
Y424081D01*
X552938Y423425D01*
X554250D01*
X554906Y424081D01*
X556218Y423425D02*
X557530D01*
X556874D01*
Y427361D01*
X556218Y426705D01*
X524279Y400655D02*
X523623Y399999D01*
Y398688D01*
X524279Y398031D01*
X526903D01*
X527559Y398688D01*
Y399999D01*
X526903Y400655D01*
X527559Y404591D02*
Y401967D01*
X524935Y404591D01*
X524279D01*
X523623Y403935D01*
Y402623D01*
X524279Y401967D01*
X513779Y413778D02*
Y410499D01*
X514435Y409842D01*
X515747D01*
X516403Y410499D01*
Y413778D01*
X517715Y409842D02*
X519027D01*
X518371D01*
Y413778D01*
X517715Y413122D01*
X511417Y440156D02*
Y436221D01*
X514041D01*
X515353D02*
X516665D01*
X516009D01*
Y440156D01*
X515353Y439500D01*
D23*
X496429Y402061D02*
X495969Y401602D01*
Y400684D01*
X496429Y400224D01*
X498265D01*
X498724Y400684D01*
Y401602D01*
X498265Y402061D01*
X497347D01*
Y401143D01*
X498724Y402979D02*
X495969D01*
X498724Y404816D01*
X495969D01*
Y405734D02*
X498724D01*
Y407112D01*
X498265Y407571D01*
X496429D01*
X495969Y407112D01*
Y405734D01*
X496429Y413081D02*
X495969Y412622D01*
Y411704D01*
X496429Y411244D01*
X496888D01*
X497347Y411704D01*
Y412622D01*
X497806Y413081D01*
X498265D01*
X498724Y412622D01*
Y411704D01*
X498265Y411244D01*
X495969Y414000D02*
X498724D01*
Y415377D01*
X498265Y415836D01*
X496429D01*
X495969Y415377D01*
Y414000D01*
X498724Y416754D02*
X496888D01*
X495969Y417673D01*
X496888Y418591D01*
X498724D01*
X497347D01*
Y416754D01*
X496429Y424101D02*
X495969Y423642D01*
Y422724D01*
X496429Y422265D01*
X496888D01*
X497347Y422724D01*
Y423642D01*
X497806Y424101D01*
X498265D01*
X498724Y423642D01*
Y422724D01*
X498265Y422265D01*
X496429Y426856D02*
X495969Y426397D01*
Y425479D01*
X496429Y425020D01*
X498265D01*
X498724Y425479D01*
Y426397D01*
X498265Y426856D01*
X495969Y427775D02*
X498724D01*
Y429611D01*
X495969Y435121D02*
Y433285D01*
X497347D01*
X496888Y434203D01*
Y434662D01*
X497347Y435121D01*
X498265D01*
X498724Y434662D01*
Y433744D01*
X498265Y433285D01*
X495969Y436040D02*
X497806D01*
X498724Y436958D01*
X497806Y437876D01*
X495969D01*
X550787Y412205D02*
X548032D01*
Y413582D01*
X548492Y414041D01*
X549410D01*
X549869Y413582D01*
Y412205D01*
X548492Y414960D02*
X548032Y415419D01*
Y416337D01*
X548492Y416796D01*
X548951D01*
X549410Y416337D01*
Y415878D01*
Y416337D01*
X549869Y416796D01*
X550328D01*
X550787Y416337D01*
Y415419D01*
X550328Y414960D01*
X548032Y420470D02*
X549869D01*
X550787Y421388D01*
X549869Y422306D01*
X548032D01*
Y424602D02*
Y423684D01*
X548492Y423225D01*
X550328D01*
X550787Y423684D01*
Y424602D01*
X550328Y425062D01*
X548492D01*
X548032Y424602D01*
Y425980D02*
X550328D01*
X550787Y426439D01*
Y427357D01*
X550328Y427816D01*
X548032D01*
Y428735D02*
Y430572D01*
Y429653D01*
X550787D01*
X548032Y436082D02*
Y434245D01*
X549410D01*
X548951Y435163D01*
Y435622D01*
X549410Y436082D01*
X550328D01*
X550787Y435622D01*
Y434704D01*
X550328Y434245D01*
X548032Y437000D02*
X549869D01*
X550787Y437918D01*
X549869Y438837D01*
X548032D01*
M02*
